<?xml version="1.0" encoding="UTF-8"?>
<!DOCTYPE svg PUBLIC "-//W3C//DTD SVG 1.1//EN" "http://www.w3.org/Graphics/SVG/1.1/DTD/svg11.dtd">
<!-- Creator: CorelDRAW -->
<svg xmlns="http://www.w3.org/2000/svg" xml:space="preserve" width="6.82666in" height="6.82666in" style="shape-rendering:geometricPrecision; text-rendering:geometricPrecision; image-rendering:optimizeQuality; fill-rule:evenodd; clip-rule:evenodd"
viewBox="0 0 6.82666 6.82666"
 xmlns:xlink="http://www.w3.org/1999/xlink">
 <defs>
  <style type="text/css">
   <![CDATA[
    .fil1 {fill:none}
    .fil0 {fill:black;fill-rule:nonzero}
   ]]>
  </style>
 </defs>
 <g id="Layer_x0020_1">
  <metadata id="CorelCorpID_0Corel-Layer"/>
  <path class="fil0" d="M0.868953 2.70237c-0.0208228,0.0208228 -0.0208228,0.0545945 0,0.0754173 0.0208228,0.0208228 0.0545945,0.0208228 0.0754173,0 0.681776,-0.681776 1.57537,-1.02267 2.46896,-1.02267 0.893591,0 1.78719,0.340894 2.46896,1.02267 0.0208228,0.0208228 0.0545945,0.0208228 0.0754173,0 0.0208228,-0.0208228 0.0208228,-0.0545945 0,-0.0754173 -0.70261,-0.70261 -1.6235,-1.05392 -2.54438,-1.05392 -0.920878,0 -1.84177,0.351311 -2.54438,1.05392z"/>
  <path class="fil0" d="M1.75106 3.27428c-0.0208228,0.0208228 -0.0208228,0.0545945 0,0.0754173 0.0208228,0.0208228 0.0545945,0.0208228 0.0754173,0 0.438189,-0.438189 1.01252,-0.657291 1.58685,-0.657291 0.574331,0 1.14866,0.219102 1.58685,0.657291 0.0208228,0.0208228 0.0545945,0.0208228 0.0754173,0 0.0208228,-0.0208228 0.0208228,-0.0545945 0,-0.0754173 -0.459024,-0.459024 -1.06065,-0.688543 -1.66227,-0.688543 -0.601618,0 -1.20324,0.22952 -1.66227,0.688543z"/>
  <path class="fil0" d="M2.24825 3.9259c-0.0208228,0.0208228 -0.0208228,0.0545945 0,0.0754173 0.0208228,0.0208228 0.0545945,0.0208228 0.0754173,0 0.300894,-0.300894 0.69528,-0.451346 1.08966,-0.451346 0.394382,0 0.788768,0.150453 1.08966,0.451346 0.0208228,0.0208228 0.0545945,0.0208228 0.0754173,0 0.0208228,-0.0208228 0.0208228,-0.0545945 0,-0.0754173 -0.321728,-0.321728 -0.743409,-0.482598 -1.16508,-0.482598 -0.421669,0 -0.84335,0.16087 -1.16508,0.482598z"/>
  <path class="fil0" d="M3.41333 4.21822c0.132539,0 0.252547,0.0537362 0.339409,0.140598 0.0868622,0.0868622 0.140594,0.206866 0.140594,0.339406 0,0.132539 -0.0537362,0.252543 -0.140598,0.339406 -0.0868622,0.0868622 -0.206866,0.140594 -0.339406,0.140594 -0.132539,0 -0.252543,-0.0537323 -0.339406,-0.140594 -0.0868622,-0.0868622 -0.140598,-0.206866 -0.140598,-0.339406 0,-0.132539 0.0537323,-0.252543 0.140594,-0.339406 0.0868622,-0.0868622 0.20687,-0.140598 0.339409,-0.140598zm0.263992 0.216016c-0.0675551,-0.0675551 -0.160898,-0.109346 -0.263992,-0.109346 -0.103094,0 -0.196437,0.0417913 -0.263992,0.109346 -0.0675551,0.0675551 -0.109343,0.160894 -0.109343,0.263988 0,0.103094 0.0417913,0.196433 0.109346,0.263988 0.0675551,0.0675551 0.160894,0.109343 0.263988,0.109343 0.103094,0 0.196433,-0.0417874 0.263988,-0.109343 0.0675551,-0.0675551 0.109346,-0.160894 0.109346,-0.263988 0,-0.103094 -0.0417874,-0.196433 -0.109343,-0.263988z"/>
 </g>
 <rect class="fil1" width="6.82666" height="6.82666"/>
</svg>
