<?xml version="1.0" encoding="utf-8"?>
<!-- Generator: Adobe Illustrator 25.0.0, SVG Export Plug-In . SVG Version: 6.00 Build 0)  -->
<svg version="1.1" xmlns="http://www.w3.org/2000/svg" xmlns:xlink="http://www.w3.org/1999/xlink" x="0px" y="0px"
	 viewBox="0 0 503.6 503.6" style="enable-background:new 0 0 503.6 503.6;" xml:space="preserve">
<style type="text/css">
	.st0{display:none;}
	.st1{display:inline;}
	.st2{font-family:'ArialMT';}
	.st3{font-size:72px;}
	.st4{fill:none;stroke:#000000;stroke-width:7.1296;stroke-linecap:round;stroke-miterlimit:10;}
	.st5{fill:none;stroke:#000000;stroke-width:7.1296;stroke-linecap:round;stroke-linejoin:round;stroke-miterlimit:10;}
</style>
<g id="Number" class="st0">
	<text transform="matrix(1 0 0 1 231.7787 457.4454)" class="st1 st2 st3">8</text>
</g>
<g id="New_icon_1_">
	<line class="st4" x1="80.4" y1="302.6" x2="421.3" y2="302.9"/>
	<line class="st4" x1="74.9" y1="273.2" x2="425.9" y2="273.5"/>
	<path class="st4" d="M417.5,304.1L399,386.9c0,0-6.9,29-38.5,31.7l-218.2-0.5c-31.5-1.3-38-30.1-38.4-31.3l-18.5-82.9"/>
	<path class="st4" d="M-85,198.6"/>
	<path class="st4" d="M76.9,273.1c-23.5,0-28.6,29.5,3.5,29.5"/>
	<path class="st4" d="M425.9,273.5c23.5,0,28.6,29.5-3.5,29.5"/>
	<path class="st5" d="M345,142.1l-53.3-0.3c0.3,0.7-0.6-9.1,5.2-17.1c8.1-11.1,27.5-19.5,40.7-0.5C340.8,128.6,345,134.7,345,142.1z
		"/>
	<line class="st4" x1="291.7" y1="166.4" x2="291.7" y2="177.8"/>
	<line class="st4" x1="318.2" y1="166.4" x2="318.2" y2="177.8"/>
	<line class="st4" x1="345" y1="166.4" x2="345" y2="177.8"/>
	<line class="st4" x1="291.7" y1="196.7" x2="291.7" y2="210.5"/>
	<line class="st4" x1="318.2" y1="197.1" x2="318.2" y2="210.1"/>
	<line class="st4" x1="345" y1="196.7" x2="345" y2="210.5"/>
	<line class="st4" x1="291.7" y1="228.9" x2="291.7" y2="240.5"/>
	<line class="st4" x1="318.2" y1="228.9" x2="318.2" y2="240.5"/>
	<line class="st4" x1="345" y1="228.9" x2="345" y2="240.5"/>
	<line class="st4" x1="159.6" y1="419.1" x2="144.5" y2="449.6"/>
	<line class="st4" x1="351.7" y1="418.6" x2="365.1" y2="449.5"/>
	<path class="st4" d="M78.4,270.9c0,0-1.3-14.3,17.1-23.9c1.3-0.6,19.4-7.7,30.1,9.4"/>
	<path class="st4" d="M125.6,255.3c0,0-1.3-14.3,17.1-23.9c1.3-0.6,21.8-5.3,32.8,13.6"/>
	<path class="st4" d="M176,245.6c0,0,10.6-1.8,17.5,3.6c1.3,0.7,12.6,8,9.6,24.2"/>
	<path class="st4" d="M318.2,109.3c0,0,1.2-56.5,46.8-54.9c39.2,1.4,50.8,34.3,51.8,42.2c0.6,4.3,0.7,10.1,0.7,10.1v164.2"/>
</g>
<g id="Template" class="st0">
</g>
</svg>
