<?xml version="1.0" encoding="utf-8"?>
<!-- Generator: Adobe Illustrator 25.0.0, SVG Export Plug-In . SVG Version: 6.00 Build 0)  -->
<svg version="1.1" xmlns="http://www.w3.org/2000/svg" xmlns:xlink="http://www.w3.org/1999/xlink" x="0px" y="0px"
	 viewBox="0 0 503.6 503.6" style="enable-background:new 0 0 503.6 503.6;" xml:space="preserve">
<style type="text/css">
	.st0{fill:none;stroke:#000000;stroke-width:4.8177;stroke-linecap:round;stroke-linejoin:round;stroke-miterlimit:10;}
	.st1{fill:none;stroke:#000000;stroke-width:4.8177;stroke-miterlimit:10;}
	.st2{display:none;}
	.st3{display:inline;opacity:0.17;}
	.st4{fill:none;stroke:#000000;stroke-width:5.3168;stroke-linecap:round;stroke-miterlimit:10;}
	.st5{fill:none;stroke:#000000;stroke-width:5.3168;stroke-linecap:round;stroke-linejoin:round;stroke-miterlimit:10;}
	.st6{stroke:#000000;stroke-width:0.75;stroke-miterlimit:10;}
	.st7{font-family:'ArialMT';}
	.st8{font-size:77.7566px;}
</style>
<g id="toilet">
	<g id="New_icon">
		<path class="st0" d="M74.2,388"/>
		<path class="st0" d="M138.9,388"/>
		<path class="st1" d="M143.2,289.9c0,28.2-22.2,51.1-49.5,51.1s-49.5-22.9-49.5-51.1"/>
		<path class="st1" d="M42.1,288.1c0-14,23.1-10.9,52.2-10.9"/>
		<path class="st1" d="M144.4,288.1c0-14-23.2-10.8-52.4-10.8"/>
		<line class="st1" x1="40.6" y1="289.5" x2="146" y2="288.8"/>
	</g>
	<g id="Template_1_" class="st2">
		<g transform="translate(1 1)" class="st3">
			<g>
				<g>
					<path d="M254.1,188.1c-42.9,0-79.2,36.3-79.2,79.2s36.3,79.2,79.2,79.2s79.2-36.3,79.2-79.2S297,188.1,254.1,188.1z
						 M254.1,333.3c-35.6,0-66-30.4-66-66s30.4-66,66-66s66,30.4,66,66S289.7,333.3,254.1,333.3z"/>
					<path d="M432.3,244.5V95.7c0-2.6-1.3-4.6-4-5.9c-2.6-1.3-5.3-0.7-7.3,1.3c-18.5,18.5-28.4,42.9-28.4,68.6v39.6
						c0,15.2,3.3,30.4,9.9,43.6l1.5,2.7c-6.9,4.8-11.4,12.7-11.4,21.7v118.8c0,14.5,11.9,26.4,26.4,26.4s26.4-11.9,26.4-26.4V267.3
						C445.5,257.6,440.2,249.1,432.3,244.5z M416.5,240.9l-2-4c-5.3-11.9-8.6-24.4-8.6-37.6V159c0-15.8,4.6-31.7,13.2-44.9v126.7
						L416.5,240.9L416.5,240.9z M432.3,386.1c0,7.3-5.9,13.2-13.2,13.2s-13.2-5.9-13.2-13.2V267.3c0-7.3,5.9-13.2,13.2-13.2
						s13.2,5.9,13.2,13.2V386.1z"/>
					<path d="M115.5,95.7c-4,0-6.6,2.6-6.6,6.6v72.6c0,8.9-5.4,16.1-13.2,18.7v-91.3c0-4-2.6-6.6-6.6-6.6s-6.6,2.6-6.6,6.6v91.3
						c-7.8-2.6-13.2-9.9-13.2-18.7v-72.6c0-4-2.6-6.6-6.6-6.6s-6.6,2.6-6.6,6.6v72.6c0,16.2,11.2,29.4,26.4,32.4v34.5
						c-11.4,3-19.8,13.3-19.8,25.6v118.8c0,14.5,11.9,26.4,26.4,26.4s26.4-11.9,26.4-26.4V267.3c0-12.2-8.4-22.6-19.8-25.6v-34.5
						c15.2-3,26.4-16.1,26.4-32.4v-72.6C122.1,98.3,119.4,95.7,115.5,95.7z M102.3,267.3v118.8c0,7.3-5.9,13.2-13.2,13.2
						s-13.2-5.9-13.2-13.2V267.3c0-7.3,5.9-13.2,13.2-13.2C96.3,254.1,102.3,260.1,102.3,267.3z"/>
					<path d="M82.5,293.7c0,4,2.6,6.6,6.6,6.6s6.6-2.6,6.6-6.6s-2.6-6.6-6.6-6.6S82.5,289.8,82.5,293.7z"/>
					<path d="M419.1,287.1c-4,0-6.6,2.6-6.6,6.6s2.6,6.6,6.6,6.6s6.6-2.6,6.6-6.6S423.1,287.1,419.1,287.1z"/>
					<path d="M254.1,141.9c-69.3,0-125.4,56.1-125.4,125.4s56.1,125.4,125.4,125.4s125.4-56.1,125.4-125.4S323.4,141.9,254.1,141.9z
						 M254.1,379.5c-62,0-112.2-50.2-112.2-112.2s50.2-112.2,112.2-112.2s112.2,50.2,112.2,112.2S316.1,379.5,254.1,379.5z"/>
				</g>
			</g>
		</g>
	</g>
	<path class="st0" d="M114.4,338.8v32.9c0,2.9-2.8,5.2-6.2,5.2H79.1c-3.4,0-6.2-2.3-6.2-5.2l-0.7-32.9"/>
	<path class="st0" d="M133.1,263.2H53.6c-4,0-7.3-3.3-7.3-7.3v-54.4c0-4,3.3-7.3,7.3-7.3h79.6c4,0,7.3,3.3,7.3,7.3V256
		C140.4,260,137.2,263.2,133.1,263.2z"/>
	<path class="st0" d="M141.4,194.3h-96c-1.8,0-3.2-1.5-3.2-3.2v-5.2c0-1.8,1.5-3.2,3.2-3.2h96.1c1.8,0,3.2,1.5,3.2,3.2v5.1
		C144.6,192.9,143.1,194.3,141.4,194.3z"/>
	<line class="st0" x1="130.6" y1="265.8" x2="130.8" y2="275.4"/>
	<line class="st0" x1="58" y1="265.6" x2="58" y2="275.1"/>
	<ellipse class="st0" cx="63" cy="213.6" rx="5.9" ry="6"/>
	<line class="st0" x1="70.8" y1="213.6" x2="79.2" y2="213.6"/>
</g>
<g id="bathtub">
	<g id="New_icon_1_">
		<line class="st4" x1="202.8" y1="266.9" x2="456.3" y2="267.1"/>
		<line class="st4" x1="198.7" y1="245" x2="459.7" y2="245.2"/>
		<path class="st4" d="M453.5,268l-13.8,61.6c0,0-5.1,21.6-28.6,23.6l-162.2-0.4c-23.4-1-28.3-22.4-28.6-23.3l-13.8-61.6"/>
		<path class="st4" d="M79.8,189.5"/>
		<path class="st4" d="M200.2,244.9c-17.5,0-21.3,21.9,2.6,21.9"/>
		<path class="st4" d="M459.7,245.2c17.5,0,21.3,21.9-2.6,21.9"/>
		<path class="st5" d="M399.6,147.5l-39.6-0.2c0.2,0.5-0.4-6.8,3.9-12.7c6-8.3,20.4-14.5,30.3-0.4
			C396.5,137.5,399.6,142,399.6,147.5z"/>
		<line class="st4" x1="360" y1="165.6" x2="360" y2="174.1"/>
		<line class="st4" x1="379.7" y1="165.6" x2="379.7" y2="174.1"/>
		<line class="st4" x1="399.6" y1="165.6" x2="399.6" y2="174.1"/>
		<line class="st4" x1="360" y1="188.1" x2="360" y2="198.4"/>
		<line class="st4" x1="379.7" y1="188.4" x2="379.7" y2="198.1"/>
		<line class="st4" x1="399.6" y1="188.1" x2="399.6" y2="198.4"/>
		<line class="st4" x1="360" y1="212.1" x2="360" y2="220.7"/>
		<line class="st4" x1="379.7" y1="212.1" x2="379.7" y2="220.7"/>
		<line class="st4" x1="399.6" y1="212.1" x2="399.6" y2="220.7"/>
		<line class="st4" x1="261.7" y1="353.5" x2="250.5" y2="376.2"/>
		<line class="st4" x1="404.6" y1="353.1" x2="414.5" y2="376.1"/>
		<path class="st4" d="M201.3,243.3c0,0-1-10.6,12.7-17.8c1-0.4,14.4-5.7,22.4,7"/>
		<path class="st4" d="M236.4,231.7c0,0-1-10.6,12.7-17.8c1-0.4,16.2-3.9,24.4,10.1"/>
		<path class="st4" d="M273.9,224.5c0,0,7.9-1.3,13,2.7c1,0.5,9.4,5.9,7.1,18"/>
		<path class="st4" d="M379.7,123.1c0,0,0.9-42,34.8-40.8c29.1,1,37.8,25.5,38.5,31.4c0.4,3.2,0.5,7.5,0.5,7.5v122.1"/>
	</g>
</g>
<g id="number">
	<g id="Number">
		<text transform="matrix(1 0 0 1 214.7065 465.576)" class="st6 st7 st8">4</text>
	</g>
</g>
</svg>
