<?xml version="1.0" encoding="utf-8"?>
<!-- Generator: Adobe Illustrator 25.0.0, SVG Export Plug-In . SVG Version: 6.00 Build 0)  -->
<svg version="1.1" id="Ebene_1" xmlns="http://www.w3.org/2000/svg" xmlns:xlink="http://www.w3.org/1999/xlink" x="0px" y="0px"
	 viewBox="0 0 491.5 491.5" style="enable-background:new 0 0 491.5 491.5;" xml:space="preserve">
<style type="text/css">
	.st0{fill:none;}
</style>
<g id="Layer_x0020_1">
	<g id="_169502096">
		<g>
			<path id="_172747360" d="M181.1,221.1c18.9,0,36,1.3,48.5,3.4c14.2,2.4,23,6.5,23,11.8c0,5.3-8.8,9.4-23,11.8
				c-12.5,2.1-29.6,3.4-48.5,3.4s-36-1.3-48.5-3.4c-14.2-2.4-23-6.5-23-11.8c0-5.3,8.8-9.4,23-11.8
				C145.1,222.3,162.3,221.1,181.1,221.1z M228.4,232c-12-2-28.7-3.2-47.2-3.2c-18.5,0-35.2,1.2-47.2,3.2
				c-10.3,1.7-16.6,3.2-16.6,4.2c0,1,6.3,2.5,16.6,4.2c12,2,28.7,3.2,47.2,3.2s35.2-1.2,47.2-3.2c10.3-1.7,16.6-3.2,16.6-4.2
				C245,235.2,238.6,233.7,228.4,232z"/>
			<polygon id="_172747312" points="110.1,234.2 110.1,178.1 110.1,174.2 113.9,174.2 248.4,174.2 252.2,174.2 252.2,178.1 
				252.2,236.2 244.5,236.2 244.5,181.9 117.7,181.9 117.7,234.2 			"/>
		</g>
		<g>
			<path id="_172747192" d="M147.1,290.9c0-2.1-1.7-3.8-3.8-3.8c-2.1,0-3.8,1.7-3.8,3.8v22.6c0,2.1,1.7,3.8,3.8,3.8
				c2.1,0,3.8-1.7,3.8-3.8V290.9z"/>
			<path id="_172747096" d="M147.1,347.3c0-2.1-1.7-3.8-3.8-3.8c-2.1,0-3.8,1.7-3.8,3.8v22.6c0,2.1,1.7,3.8,3.8,3.8
				c2.1,0,3.8-1.7,3.8-3.8V347.3z"/>
			<path id="_172747048" d="M147.1,403.7c0-2.1-1.7-3.8-3.8-3.8c-2.1,0-3.8,1.7-3.8,3.8v22.6c0,2.1,1.7,3.8,3.8,3.8
				c2.1,0,3.8-1.7,3.8-3.8V403.7z"/>
		</g>
		<g>
			<path id="_172746928" d="M192.3,290.9c0-2.1-1.7-3.8-3.8-3.8c-2.1,0-3.8,1.7-3.8,3.8v22.6c0,2.1,1.7,3.8,3.8,3.8
				c2.1,0,3.8-1.7,3.8-3.8V290.9z"/>
			<path id="_169502552" d="M192.3,347.3c0-2.1-1.7-3.8-3.8-3.8c-2.1,0-3.8,1.7-3.8,3.8v22.6c0,2.1,1.7,3.8,3.8,3.8
				c2.1,0,3.8-1.7,3.8-3.8V347.3z"/>
			<path id="_169502504" d="M192.3,403.7c0-2.1-1.7-3.8-3.8-3.8c-2.1,0-3.8,1.7-3.8,3.8v22.6c0,2.1,1.7,3.8,3.8,3.8
				c2.1,0,3.8-1.7,3.8-3.8V403.7z"/>
		</g>
		<g>
			<path id="_169502384" d="M237.4,290.9c0-2.1-1.7-3.8-3.8-3.8s-3.8,1.7-3.8,3.8v22.6c0,2.1,1.7,3.8,3.8,3.8s3.8-1.7,3.8-3.8V290.9
				z"/>
			<path id="_169502288" d="M237.4,347.3c0-2.1-1.7-3.8-3.8-3.8s-3.8,1.7-3.8,3.8v22.6c0,2.1,1.7,3.8,3.8,3.8s3.8-1.7,3.8-3.8V347.3
				z"/>
			<path id="_169502240" d="M237.4,403.7c0-2.1-1.7-3.8-3.8-3.8s-3.8,1.7-3.8,3.8v22.6c0,2.1,1.7,3.8,3.8,3.8s3.8-1.7,3.8-3.8V403.7
				z"/>
		</g>
		<polygon id="_169502144" points="177.3,178.1 177.3,65.3 177.3,61.4 181.1,61.4 378.1,61.4 378.1,69.1 185,69.1 185,178.1 		"/>
	</g>
</g>
<rect class="st0" width="491.5" height="491.5"/>
</svg>
