<svg xmlns="http://www.w3.org/2000/svg" viewBox="0 0 491.5 491.5"><defs><style>.cls-1{fill:none;}</style></defs><g id="Ebene_2" data-name="Ebene 2"><path d="M140.89,213.56c-24.7,0-44.79-18.91-44.79-42.14s20.09-42.15,44.79-42.15,44.78,18.91,44.78,42.15S165.58,213.56,140.89,213.56Zm0-79.92c-22.29,0-40.42,17-40.42,37.78s18.13,37.77,40.42,37.77,40.41-16.95,40.41-37.77S163.17,133.64,140.89,133.64Z"/><path class="cls-1" d="M198.88,98.82a133.76,133.76,0,0,0-49.68-9.27C89.4,89.55,40.75,127,40.75,173.06q0,3.27.32,6.48c.12,1.23.28,2.44.48,3.65,4.52,28.7,28,53,60.54,65.09,1.2.45,2.42.88,3.64,1.29a137.91,137.91,0,0,0,93.71-2.49,278.36,278.36,0,0,1,46-13.83L344.27,212V133.7l-98.42-20.84A290,290,0,0,1,198.88,98.82Z"/><path class="cls-1" d="M95.71,285.79c0,9.58,3.16,15.7,5.33,15.7a1.77,1.77,0,0,0,1-.43V270.51a1.81,1.81,0,0,0-1-.42C98.87,270.09,95.71,276.2,95.71,285.79Z"/><path class="cls-1" d="M96.12,338.6c0,9.59,3.16,15.71,5.34,15.71a1.57,1.57,0,0,0,.63-.17V323.07a1.57,1.57,0,0,0-.63-.17C99.28,322.9,96.12,329,96.12,338.6Z"/><path class="cls-1" d="M92.85,338.6c0-9.2,3-19,8.61-19a4.34,4.34,0,0,1,.63.07V304.65a5.2,5.2,0,0,1-1,.12c-5.59,0-8.61-9.78-8.61-19s3-19,8.61-19a4.57,4.57,0,0,1,1,.12V252.66c-29.35-10.57-51.9-30.69-61-55.21v145c0,7.74-3.8,14-8.94,15.17v27.82c0,3.72,1.86,6.31,3.54,6.31h43c12.45,0,22.66-15.18,23.38-34.26a5.42,5.42,0,0,1-.58.06C95.87,357.58,92.85,347.81,92.85,338.6Z"/><path d="M246.71,108.82A286.11,286.11,0,0,1,200.4,95a137.7,137.7,0,0,0-51.2-9.56c-62.08,0-112.58,39.31-112.58,87.64a68.66,68.66,0,0,0,.79,10.38v159c0,6.36-3.27,11.73-7.13,11.73H28.46v31.26c0,5.58,3.16,10,7.19,10h43c14.93,0,27.07-18,27.07-40.07V253.91a142,142,0,0,0,95.26-3,273.32,273.32,0,0,1,45.35-13.62L348.4,215.34v-85Zm-168,283h-43c-1.68,0-3.54-2.59-3.54-6.31V357.65c5.14-1.2,8.94-7.43,8.94-15.17v-145c9.14,24.52,31.69,44.64,61,55.21v14.27a4.57,4.57,0,0,0-1-.12c-5.59,0-8.61,9.78-8.61,19s3,19,8.61,19a5.2,5.2,0,0,0,1-.12V319.7a4.34,4.34,0,0,0-.63-.07c-5.59,0-8.61,9.77-8.61,19s3,19,8.61,19a5.42,5.42,0,0,0,.58-.06C101.32,376.6,91.11,391.78,78.66,391.78Zm22.8-37.47c-2.18,0-5.34-6.12-5.34-15.71s3.16-15.7,5.34-15.7a1.57,1.57,0,0,1,.63.17v31.07A1.57,1.57,0,0,1,101.46,354.31Zm.63-53.25a1.77,1.77,0,0,1-1,.43c-2.17,0-5.33-6.12-5.33-15.7s3.16-15.7,5.33-15.7a1.81,1.81,0,0,1,1,.42ZM344.27,212l-98.8,21.25a278.36,278.36,0,0,0-46,13.83,137.91,137.91,0,0,1-93.71,2.49c-1.22-.41-2.44-.84-3.64-1.29-32.51-12.12-56-36.39-60.54-65.09-.2-1.21-.36-2.42-.48-3.65q-.32-3.21-.32-6.48c0-46,48.65-83.51,108.45-83.51a133.76,133.76,0,0,1,49.68,9.27,290,290,0,0,0,47,14l98.42,20.84Z"/><path d="M436.25,157.28c-8.75,0-17-4.4-24.44-13.09-6.59-7.67-13.55-11.27-20.67-10.7-14.22,1.13-25,18.33-25.07,18.5l-3.18-2c.47-.77,11.82-19,27.94-20.28,8.39-.66,16.39,3.37,23.81,12,6.91,8,14.4,12,22.23,11.79,14.42-.4,25.58-14.71,25.7-14.86l3,2.28c-.5.65-12.38,15.87-28.56,16.31Z"/><path d="M437.44,183.17c-8.75,0-17-4.4-24.44-13.1-6.59-7.66-13.55-11.27-20.67-10.7-14.22,1.13-25,18.34-25.07,18.51l-3.18-1.95c.47-.78,11.82-19,27.94-20.28,8.38-.67,16.39,3.36,23.81,12,6.9,8,14.37,12,22.21,11.79,14.39-.39,25.6-14.72,25.72-14.86l3,2.28c-.5.64-12.38,15.87-28.56,16.31Z"/><path d="M439.22,209.06c-8.75,0-17-4.41-24.44-13.1-6.59-7.67-13.55-11.27-20.67-10.7-14.22,1.13-25,18.33-25.07,18.51l-3.18-2c.48-.77,11.83-19,27.94-20.27,8.4-.66,16.4,3.36,23.81,12,6.91,8,14.38,12,22.21,11.78,14.4-.38,25.61-14.71,25.72-14.85l3,2.27c-.5.65-12.37,15.87-28.56,16.32Z"/></g></svg>