<?xml version="1.0" encoding="UTF-8"?>
<!DOCTYPE svg PUBLIC "-//W3C//DTD SVG 1.1//EN" "http://www.w3.org/Graphics/SVG/1.1/DTD/svg11.dtd">
<!-- Creator: CorelDRAW -->
<svg xmlns="http://www.w3.org/2000/svg" xml:space="preserve" width="6.82666in" height="6.82666in" style="shape-rendering:geometricPrecision; text-rendering:geometricPrecision; image-rendering:optimizeQuality; fill-rule:evenodd; clip-rule:evenodd"
viewBox="0 0 6.82666 6.82666"
 xmlns:xlink="http://www.w3.org/1999/xlink">
 <defs>
  <style type="text/css">
   <![CDATA[
    .fil1 {fill:none}
    .fil0 {fill:black;fill-rule:nonzero}
   ]]>
  </style>
 </defs>
 <g id="Layer_x0020_1">
  <metadata id="CorelCorpID_0Corel-Layer"/>
  <g id="_172566920">
   <polygon id="_171474720" class="fil0" points="3.03988,2.55692 3.03988,1.62927 3.14655,1.62927 3.14655,2.55692 "/>
   <path id="_171474648" class="fil0" d="M2.52786 1.44925l0.438665 0 0 0.106669 -0.438665 0 0 -0.106669zm0.692043 0l0.438669 0 0 0.106669 -0.438669 0 0 -0.106669z"/>
   <path id="_171474576" class="fil0" d="M3.09321 1.32256c0.0497047,0 0.0947165,0.0201575 0.127291,0.0527323 0.0325748,0.0325748 0.0527323,0.0775866 0.0527323,0.127291 0,0.0497047 -0.0201575,0.0947165 -0.0527323,0.127291 -0.0325748,0.0325748 -0.0775866,0.0527323 -0.127291,0.0527323 -0.0497047,0 -0.0947126,-0.0201575 -0.127287,-0.0527323 -0.0325748,-0.0325748 -0.0527323,-0.0775866 -0.0527323,-0.127291 0,-0.0497047 0.0201575,-0.0947165 0.0527323,-0.127291 0.0325748,-0.0325748 0.0775827,-0.0527323 0.127287,-0.0527323zm0.051874 0.12815c-0.0132677,-0.0132677 -0.0316142,-0.0214803 -0.051874,-0.0214803 -0.0202598,0 -0.0386024,0.0082126 -0.0518701,0.0214803 -0.0132677,0.0132677 -0.0214803,0.0316142 -0.0214803,0.051874 0,0.0202598 0.0082126,0.0386063 0.0214803,0.051874 0.0132677,0.0132677 0.0316102,0.0214803 0.0518701,0.0214803 0.0202598,0 0.0386063,-0.0082126 0.051874,-0.0214803 0.0132677,-0.0132677 0.0214803,-0.0316142 0.0214803,-0.051874 0,-0.0202598 -0.0082126,-0.0386063 -0.0214803,-0.051874z"/>
   <path id="_171474504" class="fil0" d="M2.43859 2.46093l1.30924 0 0.0533346 0 0 0.0533346 0 1.30925 0 0.0533346 -0.0533346 0 -1.30924 0 -0.0533346 0 0 -0.0533346 0 -1.30925 0 -0.0533346 0.0533346 0zm1.25591 0.106669l-1.20257 0 0 1.20258 1.20257 0 0 -1.20258z"/>
   <path id="_171474432" class="fil0" d="M0.906661 2.8087l1.53193 0 0.0533346 0 0 0.0533346 0 0.613709 0 0.0533346 -0.0533346 0 -1.53193 0 -0.0533346 0 0 -0.0533346 0 -0.613709 0 -0.0533346 0.0533346 0zm1.47859 0.106669l-1.42526 0 0 0.507039 1.42526 0 0 -0.507039z"/>
   <path id="_173064024" class="fil0" d="M5.30629 2.91537l-1.47537 0 0 0.507039 1.47537 0 0.0533346 0 0 0.0533346 0 0.864882 0.507035 0 0 -0.864882c0,-0.153646 -0.0625866,-0.293323 -0.163496,-0.394756 -0.101091,-0.101618 -0.240492,-0.164988 -0.393866,-0.165787l-0.000417323 0 -0.00259055 -3.14961e-005 0 0.000200787zm-1.52871 -0.106669l1.52871 0 0.000625984 0.000208661 0.00321654 3.93701e-005 0 3.93701e-006c0.182626,0.00106299 0.348398,0.0763543 0.468449,0.197035 0.120201,0.120823 0.194748,0.287043 0.194748,0.469756l0 0.918217 0 0.0533346 -0.0533346 0 -0.613705 0 -0.0533346 0 0 -0.0533346 0 -0.864882 -1.47537 0 -0.0533346 0 0 -0.0533346 0 -0.613709 0 -0.0533346 0.0533346 0z"/>
   <path id="_172566968" class="fil0" d="M5.68888 4.62006c0.0299291,0.0733031 0.0722283,0.141756 0.112732,0.207315 0.0835433,0.135213 0.160217,0.259303 0.131016,0.408122 -0.0150039,0.0764764 -0.052815,0.143484 -0.104945,0.191287 -0.0527559,0.0483898 -0.119909,0.0773189 -0.193213,0.0773189 -0.0723386,0 -0.1415,-0.0277283 -0.195126,-0.075 -0.0517717,-0.0456378 -0.089185,-0.109772 -0.100933,-0.184909 -0.0243622,-0.15578 0.0427835,-0.244563 0.116843,-0.342488 0.0551654,-0.0729409 0.114906,-0.151929 0.129937,-0.271752l0.0529173 0.00645669 -0.0529173 -0.0066378c0.00366535,-0.0292244 0.0303307,-0.0499449 0.0595551,-0.0462795 0.0212283,0.00266142 0.0379685,0.0174646 0.0441339,0.0365669zm0.022315 0.26315c-0.0195157,-0.0315866 -0.0394291,-0.063811 -0.0584449,-0.0971654 -0.0303189,0.0711614 -0.0724528,0.126882 -0.112496,0.179827 -0.0599016,0.0792047 -0.114209,0.151016 -0.0968425,0.262071 0.00767323,0.0490827 0.0322756,0.091122 0.0663504,0.121161 0.0345551,0.0304606 0.0787717,0.0483307 0.124709,0.0483307 0.0455827,0 0.0877165,-0.0183268 0.121134,-0.0489803 0.0357795,-0.032811 0.061874,-0.0795118 0.0724409,-0.133374 0.0212598,-0.108346 -0.0448346,-0.215315 -0.11685,-0.33187z"/>
  </g>
 </g>
 <rect class="fil1" width="6.82666" height="6.82666"/>
</svg>
