<?xml version="1.0" encoding="utf-8"?>
<!-- Generator: Adobe Illustrator 25.0.0, SVG Export Plug-In . SVG Version: 6.00 Build 0)  -->
<svg version="1.1" id="Ebene_1" xmlns="http://www.w3.org/2000/svg" xmlns:xlink="http://www.w3.org/1999/xlink" x="0px" y="0px"
	 viewBox="0 0 491.5 491.5" style="enable-background:new 0 0 491.5 491.5;" xml:space="preserve">
<style type="text/css">
	.st0{fill:none;}
	.st1{font-family:'MyriadPro-Regular';}
	.st2{font-size:72px;}
</style>
<g id="Layer_x0020_1">
	<g id="_172566920">
		<polygon id="_171474720" points="218.9,184.1 218.9,117.3 226.6,117.3 226.6,184.1 		"/>
		<path id="_171474648" d="M182,104.3h31.6v7.7H182V104.3z M231.8,104.3h31.6v7.7h-31.6V104.3z"/>
		<path id="_171474576" d="M222.7,95.2c3.6,0,6.8,1.5,9.2,3.8c2.3,2.3,3.8,5.6,3.8,9.2c0,3.6-1.5,6.8-3.8,9.2
			c-2.3,2.3-5.6,3.8-9.2,3.8c-3.6,0-6.8-1.5-9.2-3.8c-2.3-2.3-3.8-5.6-3.8-9.2c0-3.6,1.5-6.8,3.8-9.2
			C215.9,96.7,219.1,95.2,222.7,95.2z M226.4,104.5c-1-1-2.3-1.5-3.7-1.5c-1.5,0-2.8,0.6-3.7,1.5c-1,1-1.5,2.3-1.5,3.7
			s0.6,2.8,1.5,3.7c1,1,2.3,1.5,3.7,1.5s2.8-0.6,3.7-1.5c1-1,1.5-2.3,1.5-3.7S227.4,105.4,226.4,104.5z"/>
		<path id="_171474504" d="M175.6,177.2h94.3h3.8v3.8v94.3v3.8h-3.8h-94.3h-3.8v-3.8V181v-3.8L175.6,177.2L175.6,177.2z M266,184.9
			h-86.6v86.6H266V184.9z"/>
		<path id="_171474432" d="M65.3,202.2h110.3h3.8v3.8v44.2v3.8h-3.8H65.3h-3.8v-3.8v-44.2v-3.8C61.4,202.2,65.3,202.2,65.3,202.2z
			 M171.7,209.9H69.1v36.5h102.6V209.9z"/>
		<path id="_173064024" d="M382.1,209.9H275.8v36.5h106.2h3.8v3.8v62.3h36.5v-62.3c0-11.1-4.5-21.1-11.8-28.4
			c-7.3-7.3-17.3-11.9-28.4-11.9h0L382.1,209.9L382.1,209.9z M272,202.2h110.1l0,0l0.2,0v0c13.1,0.1,25.1,5.5,33.7,14.2
			c8.7,8.7,14,20.7,14,33.8v66.1v3.8h-3.8h-44.2h-3.8v-3.8v-62.3H272h-3.8v-3.8v-44.2v-3.8H272L272,202.2z"/>
		<path id="_172566968" d="M409.6,332.6c2.2,5.3,5.2,10.2,8.1,14.9c6,9.7,11.5,18.7,9.4,29.4c-1.1,5.5-3.8,10.3-7.6,13.8
			c-3.8,3.5-8.6,5.6-13.9,5.6c-5.2,0-10.2-2-14-5.4c-3.7-3.3-6.4-7.9-7.3-13.3c-1.8-11.2,3.1-17.6,8.4-24.7c4-5.3,8.3-10.9,9.4-19.6
			l3.8,0.5l-3.8-0.5c0.3-2.1,2.2-3.6,4.3-3.3C408,330.2,409.2,331.3,409.6,332.6L409.6,332.6z M411.2,351.6c-1.4-2.3-2.8-4.6-4.2-7
			c-2.2,5.1-5.2,9.1-8.1,12.9c-4.3,5.7-8.2,10.9-7,18.9c0.6,3.5,2.3,6.6,4.8,8.7c2.5,2.2,5.7,3.5,9,3.5c3.3,0,6.3-1.3,8.7-3.5
			c2.6-2.4,4.5-5.7,5.2-9.6C421.2,367.7,416.4,360,411.2,351.6L411.2,351.6z"/>
	</g>
</g>
<rect class="st0" width="491.5" height="491.5"/>
<text transform="matrix(1 0 0 1 226.5516 447.1948)" class="st1 st2">2</text>
</svg>
