<svg xmlns="http://www.w3.org/2000/svg" viewBox="0 0 491.5 491.5"><defs><style>.cls-1,.cls-10,.cls-2,.cls-3,.cls-4,.cls-5,.cls-6,.cls-7,.cls-8,.cls-9{fill:none;stroke:#000;}.cls-1,.cls-10,.cls-3,.cls-4,.cls-5,.cls-6,.cls-7,.cls-8,.cls-9{stroke-miterlimit:10;}.cls-1{stroke-width:5.1px;}.cls-2{stroke-linejoin:round;}.cls-2,.cls-7{stroke-width:4.48px;}.cls-3{stroke-width:5.97px;}.cls-4{stroke-width:3px;}.cls-5{stroke-width:2.9px;}.cls-6{stroke-width:2.9px;}.cls-8{stroke-width:5.33px;}.cls-9{stroke-width:3.68px;}.cls-10{stroke-width:2.98px;}</style></defs><g id="Ebene_2" data-name="Ebene 2"><rect class="cls-1" x="172.76" y="287.82" width="151.98" height="151.98" transform="translate(497.5 727.61) rotate(-180)"/><polygon class="cls-2" points="172.87 152.73 324.85 152.73 289.22 129.03 208.75 129.03 172.87 152.73"/><rect class="cls-3" x="20.96" y="55.88" width="151.98" height="383.92" transform="translate(193.9 495.67) rotate(-180)"/><rect class="cls-1" x="325.83" y="287.82" width="151.98" height="151.98" transform="translate(803.64 727.61) rotate(-180)"/><rect class="cls-4" x="325.83" y="287.7" width="151.98" height="52.55" transform="translate(803.64 627.95) rotate(-180)"/><rect class="cls-5" x="325.83" y="340.25" width="151.98" height="48.94" transform="translate(803.64 729.44) rotate(-180)"/><rect class="cls-6" x="325.83" y="389.71" width="151.98" height="48.94" transform="translate(803.64 828.36) rotate(-180)"/><rect class="cls-7" x="188.83" y="333.65" width="119.84" height="86.46" transform="translate(497.5 753.75) rotate(-180)"/><rect class="cls-7" x="380.18" y="316.55" width="43.62" height="0.27" transform="translate(803.98 633.37) rotate(180)"/><rect class="cls-8" x="186.99" y="312.49" width="123.76" height="0.13" transform="translate(497.75 625.1) rotate(180)"/><rect class="cls-7" x="112.55" y="252.16" width="43.62" height="0.27" transform="translate(268.72 504.58) rotate(180)"/><rect class="cls-7" x="112.55" y="290.79" width="43.62" height="0.27" transform="translate(268.72 581.86) rotate(180)"/><rect class="cls-7" x="380.18" y="363.43" width="43.62" height="0.27" transform="translate(803.98 727.14) rotate(180)"/><rect class="cls-7" x="380.18" y="413.92" width="43.62" height="0.27" transform="translate(803.98 828.11) rotate(180)"/><rect class="cls-9" x="172.64" y="272.69" width="308.85" height="15.46" transform="translate(654.14 560.83) rotate(-180)"/><line class="cls-10" x1="198.52" y1="355.95" x2="298.98" y2="355.95"/><line class="cls-10" x1="198.52" y1="375.66" x2="298.98" y2="375.66"/><line class="cls-10" x1="198.52" y1="395.37" x2="298.98" y2="395.37"/><line class="cls-7" x1="230.24" y1="72.09" x2="267.77" y2="72.09"/><line class="cls-7" x1="230.24" y1="79.95" x2="267.77" y2="79.95"/><line class="cls-7" x1="230.24" y1="87.82" x2="267.77" y2="87.82"/><line class="cls-10" x1="21.23" y1="271.16" x2="171.14" y2="271.16"/><rect class="cls-7" x="207.82" y="58.45" width="82.37" height="70.58"/></g></svg>