<?xml version="1.0" encoding="utf-8"?>
<!-- Generator: Adobe Illustrator 25.0.0, SVG Export Plug-In . SVG Version: 6.00 Build 0)  -->
<svg version="1.1" id="Ebene_1" xmlns="http://www.w3.org/2000/svg" xmlns:xlink="http://www.w3.org/1999/xlink" x="0px" y="0px"
	 viewBox="0 0 503.6 503.6" style="enable-background:new 0 0 503.6 503.6;" xml:space="preserve">
<style type="text/css">
	.st0{fill:none;stroke:#000000;stroke-width:7;stroke-linecap:round;stroke-linejoin:round;stroke-miterlimit:10;}
	.st1{fill:none;stroke:#000000;stroke-width:7;stroke-miterlimit:10;}
	.st2{fill:none;stroke:#000000;stroke-width:5;stroke-miterlimit:10;}
	.st3{fill:none;stroke:#000000;stroke-width:6;stroke-miterlimit:10;}
	.st4{fill:none;stroke:#000000;stroke-width:4;stroke-miterlimit:10;}
	.st5{display:none;}
	.st6{display:inline;opacity:0.17;}
</style>
<g id="New_icon">
	<path class="st0" d="M81.7,451"/>
	<path class="st0" d="M143.7,451"/>
	<rect x="38.2" y="273.3" class="st1" width="153.8" height="166.3"/>
	<rect x="57.3" y="338.5" class="st1" width="114.5" height="84.6"/>
	<line class="st2" x1="38.2" y1="301.9" x2="192" y2="301.9"/>
	<line class="st3" x1="74.2" y1="410.9" x2="156.1" y2="410.9"/>
	<line class="st2" x1="50.7" y1="317.8" x2="176.7" y2="318.1"/>
	<path class="st4" d="M141.4,291.6H86c-1,0-1.8-1-1.8-2.2v-3.8c0-1.2,0.8-2.2,1.8-2.2h55.3c1,0,1.8,1,1.8,2.2v3.8
		C143.1,290.6,142.3,291.6,141.4,291.6z"/>
	<ellipse class="st4" cx="54.7" cy="287.5" rx="4.9" ry="6.2"/>
	<ellipse class="st4" cx="72" cy="287.5" rx="4.9" ry="6.2"/>
	<ellipse class="st4" cx="156.9" cy="287.5" rx="4.9" ry="6.2"/>
	<ellipse class="st4" cx="175.4" cy="287.5" rx="4.9" ry="6.2"/>
</g>
<g id="Template_1_" class="st5">
	<g transform="translate(1 1)" class="st6">
		<g>
			<g>
				<path d="M254.1,188.1c-42.9,0-79.2,36.3-79.2,79.2s36.3,79.2,79.2,79.2s79.2-36.3,79.2-79.2S297,188.1,254.1,188.1z
					 M254.1,333.3c-35.6,0-66-30.4-66-66s30.4-66,66-66s66,30.4,66,66S289.7,333.3,254.1,333.3z"/>
				<path d="M432.3,244.5V95.7c0-2.6-1.3-4.6-4-5.9c-2.6-1.3-5.3-0.7-7.3,1.3c-18.5,18.5-28.4,42.9-28.4,68.6v39.6
					c0,15.2,3.3,30.4,9.9,43.6l1.5,2.7c-6.9,4.8-11.4,12.7-11.4,21.7v118.8c0,14.5,11.9,26.4,26.4,26.4s26.4-11.9,26.4-26.4V267.3
					C445.5,257.6,440.2,249.1,432.3,244.5z M416.5,240.9l-2-4c-5.3-11.9-8.6-24.4-8.6-37.6V159c0-15.8,4.6-31.7,13.2-44.9v126.7
					L416.5,240.9L416.5,240.9z M432.3,386.1c0,7.3-5.9,13.2-13.2,13.2s-13.2-5.9-13.2-13.2V267.3c0-7.3,5.9-13.2,13.2-13.2
					s13.2,5.9,13.2,13.2V386.1z"/>
				<path d="M115.5,95.7c-4,0-6.6,2.6-6.6,6.6v72.6c0,8.9-5.4,16.1-13.2,18.7v-91.3c0-4-2.6-6.6-6.6-6.6s-6.6,2.6-6.6,6.6v91.3
					c-7.8-2.6-13.2-9.9-13.2-18.7v-72.6c0-4-2.6-6.6-6.6-6.6s-6.6,2.6-6.6,6.6v72.6c0,16.2,11.2,29.4,26.4,32.4v34.5
					c-11.4,3-19.8,13.3-19.8,25.6v118.8c0,14.5,11.9,26.4,26.4,26.4s26.4-11.9,26.4-26.4V267.3c0-12.2-8.4-22.6-19.8-25.6v-34.5
					c15.2-3,26.4-16.1,26.4-32.4v-72.6C122.1,98.3,119.4,95.7,115.5,95.7z M102.3,267.3v118.8c0,7.3-5.9,13.2-13.2,13.2
					s-13.2-5.9-13.2-13.2V267.3c0-7.3,5.9-13.2,13.2-13.2C96.3,254.1,102.3,260.1,102.3,267.3z"/>
				<path d="M82.5,293.7c0,4,2.6,6.6,6.6,6.6s6.6-2.6,6.6-6.6s-2.6-6.6-6.6-6.6S82.5,289.8,82.5,293.7z"/>
				<path d="M419.1,287.1c-4,0-6.6,2.6-6.6,6.6s2.6,6.6,6.6,6.6s6.6-2.6,6.6-6.6S423.1,287.1,419.1,287.1z"/>
				<path d="M254.1,141.9c-69.3,0-125.4,56.1-125.4,125.4s56.1,125.4,125.4,125.4s125.4-56.1,125.4-125.4S323.4,141.9,254.1,141.9z
					 M254.1,379.5c-62,0-112.2-50.2-112.2-112.2s50.2-112.2,112.2-112.2s112.2,50.2,112.2,112.2S316.1,379.5,254.1,379.5z"/>
			</g>
		</g>
	</g>
</g>
<g id="New_icon_1_">
	<path class="st1" d="M462.2,238.1H336.7c-4.2,0-7.7-3.9-7.7-8.7v-85.9c0-4.8,3.5-8.7,7.7-8.7h125.5c4.2,0,7.7,3.9,7.7,8.7v85.9
		C469.9,234.3,466.4,238.1,462.2,238.1z"/>
	<path class="st1" d="M462.2,430.5H336.7c-4.2,0-7.7-3.9-7.7-8.7V247.1c0-4.8,3.5-8.7,7.7-8.7h125.5c4.2,0,7.7,3.9,7.7,8.7v174.8
		C469.9,426.6,466.4,430.5,462.2,430.5z"/>
	<line class="st1" x1="343.6" y1="171.2" x2="343.6" y2="201.9"/>
	<line class="st1" x1="343.6" y1="319.2" x2="343.6" y2="349.8"/>
	<line class="st1" x1="353.6" y1="432.7" x2="353.6" y2="442"/>
	<line class="st1" x1="445.5" y1="432.7" x2="445.5" y2="442"/>
</g>
<g id="Template_2_" class="st5">
</g>
<g id="New_icon_2_">
	<path class="st0" d="M230.5,451"/>
	<path class="st0" d="M285.9,451"/>
	<rect x="191.7" y="273.5" class="st1" width="137.3" height="166.1"/>
	<line class="st1" x1="192.8" y1="333.5" x2="329" y2="333.7"/>
	<line class="st1" x1="192.3" y1="389.5" x2="328.5" y2="389.7"/>
	<line class="st1" x1="230.5" y1="299.8" x2="287.9" y2="299.8"/>
	<line class="st1" x1="230.5" y1="365" x2="287.9" y2="365"/>
	<line class="st1" x1="230.5" y1="417.1" x2="287.9" y2="417.1"/>
</g>
<g id="New_icon_3_">
	<path class="st0" d="M102.5,157.9"/>
	<path class="st0" d="M120.6,157.9"/>
	<polyline class="st1" points="95.2,146.2 95.2,84.9 134.8,84.9 134.8,146.3 	"/>
</g>
<path class="st1" d="M181.1,189.7H48.8c-1.2,0-1.8-1.5-0.8-2.3l46-39.7c0.6-0.5,1.4-0.8,2.2-0.8h37.4c0.8,0,1.5,0.3,2.1,0.8
	l46.3,39.5C183,188.1,182.4,189.7,181.1,189.7z"/>
</svg>
