<svg xmlns="http://www.w3.org/2000/svg" viewBox="0 0 491.5 491.5"><defs><style>.cls-1,.cls-2{fill:none;stroke:#000;stroke-linecap:round;stroke-width:6.5px;}.cls-1{stroke-miterlimit:10;}.cls-2{stroke-linejoin:round;}</style></defs><g id="Ebene_4" data-name="Ebene 4"><g id="Layer_1"><path d="M223.69,130.24H454.13a2.7,2.7,0,0,1,2.7,2.7v40.22a11.47,11.47,0,0,1-11.44,11.45h-213A11.47,11.47,0,0,1,221,173.16V132.94a2.7,2.7,0,0,1,2.7-2.7Zm227.74,5.4h-225v37.52a6.08,6.08,0,0,0,6,6.05h213a6.08,6.08,0,0,0,6.05-6.05V135.64Z"/><path d="M226.39,130.24H451.44V55h-225Zm227.75,5.4H223.69a2.7,2.7,0,0,1-2.7-2.7V52.28a2.7,2.7,0,0,1,2.7-2.7H454.14a2.69,2.69,0,0,1,2.69,2.7v80.66A2.69,2.69,0,0,1,454.14,135.64Z"/><path d="M404.77,195a2.7,2.7,0,1,0-5.4,0v18a2.7,2.7,0,1,0,5.4,0Z"/><path d="M278.45,195a2.7,2.7,0,1,0-5.4,0v18a2.7,2.7,0,0,0,5.4,0Z"/><path d="M249.91,132.2a2.7,2.7,0,0,0,5.4,0v-53h64.24v53a2.7,2.7,0,0,0,5.4,0V76.48a2.69,2.69,0,0,0-2.7-2.69H252.61a2.69,2.69,0,0,0-2.7,2.69V132.2Z"/><path d="M352.87,132.2a2.7,2.7,0,1,0,5.4,0v-53h64.25v53a2.7,2.7,0,1,0,5.4,0V76.48a2.69,2.69,0,0,0-2.7-2.69H355.57a2.69,2.69,0,0,0-2.7,2.69V132.2Z"/><path d="M376.27,115.53h29.42a10.09,10.09,0,0,1,10.06,10h0a10.09,10.09,0,0,1-10.06,10.06H376.27a10.07,10.07,0,0,1-10-10.06h0a10.07,10.07,0,0,1,10-10Zm29.42,5.4H376.27a4.68,4.68,0,0,0-4.65,4.65h0a4.68,4.68,0,0,0,4.65,4.66h29.42a4.68,4.68,0,0,0,4.66-4.66h0a4.68,4.68,0,0,0-4.66-4.65Z"/><path d="M272.13,115.53h29.42a10.09,10.09,0,0,1,10.06,10h0a10.09,10.09,0,0,1-10.06,10.06H272.13a10.07,10.07,0,0,1-10.05-10.06h0a10.07,10.07,0,0,1,10.05-10Zm29.42,5.4H272.13a4.68,4.68,0,0,0-4.65,4.65h0a4.68,4.68,0,0,0,4.65,4.66h29.42a4.68,4.68,0,0,0,4.66-4.66h0a4.68,4.68,0,0,0-4.66-4.65Z"/><path d="M222.85,125.4a2.7,2.7,0,1,0,0-5.4H212a2.7,2.7,0,0,0-2.7,2.7v64.09a11.19,11.19,0,0,0,3,7.65,10,10,0,0,0,7.37,3.28H458.16a10,10,0,0,0,7.37-3.28,11.24,11.24,0,0,0,3-7.65V122.7a2.7,2.7,0,0,0-2.7-2.7H453.54c-1.49,0-.85,1.21-.85,2.7s-.64,2.7.85,2.7h9.56v61.39a5.81,5.81,0,0,1-1.52,4,4.67,4.67,0,0,1-3.42,1.55H219.67a4.69,4.69,0,0,1-3.43-1.55,5.85,5.85,0,0,1-1.51-4V125.4Z"/></g><g id="Layer_1-2" data-name="Layer 1"><path d="M60.32,341.57H277.25a5.29,5.29,0,0,0,5.06-5.56V264.37a5.38,5.38,0,0,0-5.06-5.56H60.32a5.29,5.29,0,0,0-5.06,5.56V336A5.38,5.38,0,0,0,60.32,341.57Zm222.06,2.75H58c-4.54,0-8.23-4-8.23-8.89V261.56c0-4.7,3.47-8.45,7.8-8.45H279.93c4.33,0,7.79,3.75,7.79,8.45v76.91A5.54,5.54,0,0,1,282.38,344.32Z"/><path d="M75,342.44c0,1.08,1.22,1.88,2.74,1.88s2.74-.87,2.74-1.88V305.17h66v37.27c0,1.08,1.23,1.88,2.74,1.88s2.75-.87,2.75-1.88V303.3c0-1.09-1.23-1.88-2.75-1.88H77.65c-1.52,0-2.75.87-2.75,1.88L75,342.44Z"/><path d="M180.7,342.44c0,1.08,1.23,1.88,2.74,1.88s2.75-.87,2.75-1.88V305.17h66v37.27c0,1.08,1.23,1.88,2.75,1.88s2.74-.87,2.74-1.88V303.3c0-1.09-1.22-1.88-2.74-1.88H183.37c-1.51,0-2.74.87-2.74,1.88l.07,39.14Z"/><path d="M204.75,324.46h30.18a10.35,10.35,0,0,1,10.33,10.32h0a10.35,10.35,0,0,1-10.33,10.33H204.75a10.35,10.35,0,0,1-10.33-10.33h0a10.35,10.35,0,0,1,10.33-10.32ZM234.93,330H204.75a4.68,4.68,0,0,0-4.77,4.76h0a4.68,4.68,0,0,0,4.77,4.77h30.18a4.68,4.68,0,0,0,4.77-4.77h0a4.77,4.77,0,0,0-1.37-3.39A4.67,4.67,0,0,0,234.93,330Z"/><path d="M97.8,324.46H128a10.35,10.35,0,0,1,10.33,10.32h0A10.35,10.35,0,0,1,128,345.11H97.8a10.35,10.35,0,0,1-10.33-10.33h0a10.32,10.32,0,0,1,3-7.29A10.2,10.2,0,0,1,97.8,324.46ZM128,330H97.8A4.68,4.68,0,0,0,93,334.71h0a4.68,4.68,0,0,0,4.77,4.77H128a4.68,4.68,0,0,0,4.77-4.77h0a4.81,4.81,0,0,0-1.37-3.39A5.13,5.13,0,0,0,128,330Z"/><path d="M301.59,344.75a19.19,19.19,0,0,0-9.39-2.24H45.37A19.39,19.39,0,0,0,36,344.75c-2.38,1.37-3.9,3.25-3.9,5.27v26.36a1.36,1.36,0,0,0,.58,1h0c.14,0,.29-.07.43-.07h.07c.15,0,.29-.07.44-.07h2.09c.22,0,.51.07.72.07h0a12,12,0,0,1,1.88-.29l.14-2.38V350a3.49,3.49,0,0,1,2.1-2.82,10.29,10.29,0,0,1,4.91-1.15H292.35a9.9,9.9,0,0,1,4.91,1.15,3.48,3.48,0,0,1,2.09,2.82v24.63h0c.07.86.15,1.73.22,2.6h0c0,.07-.22.29,0,.43a2.09,2.09,0,0,0,1.59.14c.43.15.86.22,1.3.37a4.94,4.94,0,0,0,2.24-.51,1.66,1.66,0,0,0,.93-1.23V350.09C305.49,348,304,346.12,301.59,344.75Z"/><path d="M36.27,443.83V384.61a5.43,5.43,0,0,1,1.59-3.82,5.18,5.18,0,0,1,3.68-1.52H296.25a5.31,5.31,0,0,1,5.27,5.34v59.22H291.34c-15.31-.14-15.68-.14-15.68,1.3s-.21,3.9,1.38,3.9h27.37a2.76,2.76,0,0,0,2.89-2.6V384.61c0-2.89.72-7.07-1.23-8.95s-6.72-1.59-9.82-1.59H41.54c-3.11,0-7.29,0-9.32,1.95s-1.73,5.78-1.73,8.59v61.82a2.76,2.76,0,0,0,2.89,2.6l27.44-.29c1.59,0,1.88-.94,1.88-2.31s0-2.6-1.59-2.6Z"/><line class="cls-1" x1="64.07" y1="407.14" x2="276.31" y2="407.14"/><polyline class="cls-2" points="276.17 407.14 276.1 429.82 276.17 445.56 276.17 407.14 62.48 407.14 61.69 445.42"/></g></g></svg>