<svg xmlns="http://www.w3.org/2000/svg" viewBox="0 0 491.5 491.5"><defs><style>.cls-1{fill:none;}</style></defs><g id="Ebene_4" data-name="Ebene 4"><g id="Layer_1"><path d="M64.54,155H296a2.71,2.71,0,0,1,2.71,2.71v40.41a11.51,11.51,0,0,1-11.49,11.49H73.32a11.51,11.51,0,0,1-11.49-11.49V157.7A2.71,2.71,0,0,1,64.54,155Zm228.77,5.42H67.25v37.7a6.11,6.11,0,0,0,6.07,6.07H287.24a6.09,6.09,0,0,0,6.07-6.07v-37.7Z"/><path d="M67.25,155H293.31V79.4H67.25ZM296,160.41H64.54a2.71,2.71,0,0,1-2.71-2.71v-81A2.71,2.71,0,0,1,64.54,74H296a2.71,2.71,0,0,1,2.71,2.71v81A2.71,2.71,0,0,1,296,160.41Z"/><path d="M246.44,220.07a2.71,2.71,0,1,0-5.42,0v18.09a2.71,2.71,0,1,0,5.42,0Z"/><path d="M119.55,220.07a2.72,2.72,0,1,0-5.43,0v18.09a2.72,2.72,0,1,0,5.43,0Z"/><path d="M90.88,157a2.71,2.71,0,1,0,5.42,0V103.71h64.53V157a2.72,2.72,0,0,0,5.43,0V101a2.72,2.72,0,0,0-2.71-2.71h-70A2.71,2.71,0,0,0,90.88,101v56Z"/><path d="M194.3,157a2.72,2.72,0,0,0,5.43,0V103.71h64.53V157a2.72,2.72,0,0,0,5.43,0V101A2.72,2.72,0,0,0,267,98.28H197A2.72,2.72,0,0,0,194.3,101v56Z"/><path d="M217.81,140.22h29.55a10.11,10.11,0,0,1,10.1,10.09h0a10.11,10.11,0,0,1-10.1,10.09H217.81a10.11,10.11,0,0,1-10.1-10.09h0a10.11,10.11,0,0,1,10.1-10.09Zm29.55,5.42H217.81a4.69,4.69,0,0,0-4.68,4.67h0a4.69,4.69,0,0,0,4.68,4.67h29.55a4.69,4.69,0,0,0,4.68-4.67h0a4.69,4.69,0,0,0-4.68-4.67Z"/><path d="M113.2,140.22h29.55a10.11,10.11,0,0,1,10.1,10.09h0a10.11,10.11,0,0,1-10.1,10.09H113.2a10.12,10.12,0,0,1-10.1-10.09h0a10.12,10.12,0,0,1,10.1-10.09Zm29.55,5.42H113.2a4.68,4.68,0,0,0-4.67,4.67h0A4.68,4.68,0,0,0,113.2,155h29.55a4.69,4.69,0,0,0,4.68-4.67h0a4.69,4.69,0,0,0-4.68-4.67Z"/><path d="M63.7,150.13a2.71,2.71,0,1,0,0-5.42H52.82a2.71,2.71,0,0,0-2.71,2.71V211.8a11.24,11.24,0,0,0,3,7.68,10.06,10.06,0,0,0,7.4,3.3H300.06a10.07,10.07,0,0,0,7.41-3.3,11.27,11.27,0,0,0,3-7.68V147.42a2.71,2.71,0,0,0-2.71-2.71H295.43c-1.5,0-.86,1.21-.86,2.71s-.64,2.71.86,2.71H305V211.8a5.84,5.84,0,0,1-1.53,4,4.66,4.66,0,0,1-3.44,1.56H60.5a4.66,4.66,0,0,1-3.44-1.56,5.84,5.84,0,0,1-1.53-4V150.13Z"/></g><path class="cls-1" d="M306.31,400.26a11.52,11.52,0,0,1-11.49-11.5v-40.4h0v-7.56h-6.3v61.66a5.87,5.87,0,0,0,1.53,4,4.7,4.7,0,0,0,3.44,1.56H413.27v-7.75Z"/><path class="cls-1" d="M336.09,341a10.11,10.11,0,0,1,10.1-10.1h29.55a10.12,10.12,0,0,1,10.1,10.1h0a10,10,0,0,1-1.16,4.68h9.14V294.36H329.29v51.29h8a10,10,0,0,1-1.16-4.68Z"/><path class="cls-1" d="M380.42,341h0a4.71,4.71,0,0,0-4.68-4.68H346.19a4.71,4.71,0,0,0-4.68,4.68h0a4.71,4.71,0,0,0,4.68,4.68h29.55a4.71,4.71,0,0,0,4.68-4.68Z"/><path d="M294.82,388.76a11.52,11.52,0,0,0,11.49,11.5h107v-5.42h-107a6.09,6.09,0,0,1-6.07-6.08V351.07h-2.71a2.71,2.71,0,0,1-2.71-2.71h0Z"/><path d="M299.4,338.08a2.71,2.71,0,0,1-2.71,2.71h-1.87v7.56a2.7,2.7,0,0,1,2.71-2.7h2.71v-75.6h113v-5.42H297.53a2.71,2.71,0,0,0-2.71,2.71v68h1.87A2.71,2.71,0,0,1,299.4,338.08Z"/><polygon points="346.19 345.65 375.74 345.65 375.74 345.65 346.19 345.65 346.19 345.65"/><path d="M396.53,350.33a2.72,2.72,0,0,1-2.71-2.71v-2h-9.14a10.42,10.42,0,0,1-1.81,2.46,10.08,10.08,0,0,1-7.13,3h37.53v-5.42h-14v2A2.72,2.72,0,0,1,396.53,350.33Z"/><path d="M297.53,351.07h48.66a10.12,10.12,0,0,1-7.14-3,10.38,10.38,0,0,1-1.8-2.46h-8v2a2.72,2.72,0,0,1-5.43,0v-2H297.53a2.7,2.7,0,0,0-2.71,2.7h0A2.71,2.71,0,0,0,297.53,351.07Z"/><path d="M317.11,428.82a2.71,2.71,0,0,0,5.42,0V413.43h-5.42Z"/><path d="M393.82,294.36v51.29h5.43v-54a2.71,2.71,0,0,0-2.72-2.71h-70a2.71,2.71,0,0,0-2.71,2.71v54h5.43V294.36Z"/><path d="M323.86,347.62a2.72,2.72,0,0,0,5.43,0v-2h-5.43Z"/><path d="M393.82,347.62a2.72,2.72,0,0,0,5.43,0v-2h-5.43Z"/><path d="M342.89,344.27a4.67,4.67,0,0,1-1.38-3.3h0a4.71,4.71,0,0,1,4.68-4.68h29.55a4.71,4.71,0,0,1,4.68,4.68h0a4.71,4.71,0,0,1-4.68,4.68h8.94a10,10,0,0,0,1.16-4.68h0a10.12,10.12,0,0,0-10.1-10.1H346.19a10.11,10.11,0,0,0-10.1,10.1h0a10,10,0,0,0,1.16,4.68h8.94A4.65,4.65,0,0,1,342.89,344.27Z"/><polygon points="375.74 351.07 375.74 351.07 346.19 351.07 346.19 351.07 375.74 351.07"/><path d="M382.87,348.11a10.42,10.42,0,0,0,1.81-2.46H337.25a10.38,10.38,0,0,0,1.8,2.46,10.12,10.12,0,0,0,7.14,3h29.55A10.08,10.08,0,0,0,382.87,348.11Z"/><path d="M293.49,408a4.7,4.7,0,0,1-3.44-1.56,5.87,5.87,0,0,1-1.53-4V340.79h6.3v-5.43h-9a2.71,2.71,0,0,0-2.71,2.72v64.37a11.32,11.32,0,0,0,3,7.69,10.1,10.1,0,0,0,7.41,3.29h53.62v-2.71a2.71,2.71,0,1,1,5.42,0v2.71h60.74V408Z"/><path d="M296.69,340.79a2.72,2.72,0,0,0,0-5.43h-1.87v5.43Z"/><path class="cls-1" d="M329.94,294.27v51.28h9.14a10,10,0,0,1-1.16-4.67h0a10.12,10.12,0,0,1,10.1-10.1h29.55a10.11,10.11,0,0,1,10.1,10.1h0a10,10,0,0,1-1.16,4.67h8V294.27Z"/><path class="cls-1" d="M380.87,344.18a4.67,4.67,0,0,0,1.38-3.3h0a4.71,4.71,0,0,0-4.68-4.68H348a4.69,4.69,0,0,0-4.67,4.68h0a4.68,4.68,0,0,0,4.67,4.67h29.55A4.64,4.64,0,0,0,380.87,344.18Z"/><path d="M426.23,351h-2.71v37.69a6.08,6.08,0,0,1-6.07,6.07h-107v5.43h107a11.54,11.54,0,0,0,11.5-11.5v-40.4A2.72,2.72,0,0,1,426.23,351Z"/><path d="M423.52,270v75.59h2.71a2.72,2.72,0,0,1,2.72,2.72h0V340.7h-3.31c-1.5,0-.86-1.22-.86-2.72s-.64-2.71.86-2.71H429v-68a2.72,2.72,0,0,0-2.72-2.72H310.49V270Z"/><path d="M348,351a10,10,0,0,1-7.13-3,10.22,10.22,0,0,1-1.81-2.46h-9.14v2a2.72,2.72,0,1,1-5.43,0v-2h-14V351Z"/><polygon points="377.57 345.55 377.57 345.55 348.02 345.55 348.02 345.55 377.57 345.55"/><path d="M399.9,347.52a2.72,2.72,0,1,1-5.43,0v-2h-8a10.18,10.18,0,0,1-1.8,2.46,10.08,10.08,0,0,1-7.13,3h48.65a2.72,2.72,0,0,0,2.72-2.71h0a2.72,2.72,0,0,0-2.72-2.72H399.9Z"/><path d="M401.23,428.73a2.71,2.71,0,1,0,5.42,0V413.34h-5.42Z"/><path d="M329.94,294.27h64.53v51.28h5.43v-54a2.71,2.71,0,0,0-2.71-2.71h-70a2.71,2.71,0,0,0-2.72,2.71v54h5.43Z"/><path d="M394.47,347.52a2.72,2.72,0,1,0,5.43,0v-2h-5.43Z"/><path d="M327.23,350.24a2.72,2.72,0,0,0,2.71-2.72v-2h-5.43v2A2.72,2.72,0,0,0,327.23,350.24Z"/><path d="M387.67,340.88a10.11,10.11,0,0,0-10.1-10.1H348a10.12,10.12,0,0,0-10.1,10.1h0a10,10,0,0,0,1.16,4.67H348a4.68,4.68,0,0,1-4.67-4.67h0A4.69,4.69,0,0,1,348,336.2h29.55a4.71,4.71,0,0,1,4.68,4.68h0a4.69,4.69,0,0,1-4.68,4.67h8.94a10,10,0,0,0,1.16-4.67Z"/><polygon points="348.02 350.98 377.57 350.98 377.58 350.98 348.02 350.98 348.02 350.98"/><path d="M377.57,345.55H339.08a10.22,10.22,0,0,0,1.81,2.46,10,10,0,0,0,7.13,3h29.56a10.08,10.08,0,0,0,7.13-3,10.18,10.18,0,0,0,1.8-2.46Z"/><path d="M438,335.27h-9v5.43h6.29v61.66a5.87,5.87,0,0,1-1.53,4,4.7,4.7,0,0,1-3.44,1.56H310.49v5.42h60.74v-2.71a2.71,2.71,0,1,1,5.42,0v2.71h53.62a10.07,10.07,0,0,0,7.41-3.3,11.27,11.27,0,0,0,3-7.68V338A2.71,2.71,0,0,0,438,335.27Z"/><path d="M424.78,338c0,1.5-.64,2.72.86,2.72H429v-5.43h-3.31C424.14,335.27,424.78,336.49,424.78,338Z"/><path d="M373.94,407.92a2.71,2.71,0,0,0-2.71,2.71v2.71h5.42v-2.71A2.71,2.71,0,0,0,373.94,407.92Z"/><path d="M349.82,408a2.71,2.71,0,0,0-2.71,2.71v2.71h5.42v-2.71A2.71,2.71,0,0,0,349.82,408Z"/></g></svg>