<svg xmlns="http://www.w3.org/2000/svg" viewBox="0 0 491.5 491.5"><defs><style>.cls-1,.cls-2{fill:none;stroke:#000;stroke-linecap:round;stroke-width:5.06px;}.cls-1{stroke-miterlimit:10;}.cls-2{stroke-linejoin:round;}</style></defs><g id="Ebene_4" data-name="Ebene 4"><g id="Layer_1"><path d="M220,126.68H450.39a2.7,2.7,0,0,1,2.7,2.7v40.23a11.47,11.47,0,0,1-11.44,11.44h-213a11.47,11.47,0,0,1-11.44-11.44V129.38a2.7,2.7,0,0,1,2.7-2.7Zm227.74,5.4h-225v37.53a6.08,6.08,0,0,0,6,6h213a6.06,6.06,0,0,0,6-6V132.08Z"/><path d="M222.65,126.68h225V51.43h-225Zm227.74,5.4H220a2.7,2.7,0,0,1-2.7-2.7V48.73A2.7,2.7,0,0,1,220,46H450.39a2.7,2.7,0,0,1,2.7,2.7v80.65A2.7,2.7,0,0,1,450.39,132.08Z"/><path d="M401,191.47a2.7,2.7,0,1,0-5.4,0v18a2.7,2.7,0,1,0,5.4,0Z"/><path d="M274.71,191.47a2.7,2.7,0,0,0-5.4,0v18a2.7,2.7,0,0,0,5.4,0Z"/><path d="M246.17,128.64a2.7,2.7,0,0,0,5.4,0v-53h64.24v53a2.7,2.7,0,0,0,5.4,0V72.93a2.7,2.7,0,0,0-2.7-2.7H248.87a2.7,2.7,0,0,0-2.7,2.7v55.71Z"/><path d="M349.13,128.64a2.7,2.7,0,1,0,5.4,0v-53h64.25v53a2.7,2.7,0,1,0,5.4,0V72.93a2.7,2.7,0,0,0-2.7-2.7H351.83a2.7,2.7,0,0,0-2.7,2.7v55.71Z"/><path d="M372.53,112H402A10.07,10.07,0,0,1,412,122h0A10.07,10.07,0,0,1,402,132.08H372.53a10.07,10.07,0,0,1-10-10.05h0a10.07,10.07,0,0,1,10-10.06Zm29.42,5.4H372.53a4.68,4.68,0,0,0-4.65,4.66h0a4.68,4.68,0,0,0,4.65,4.65H402A4.66,4.66,0,0,0,406.6,122h0a4.66,4.66,0,0,0-4.65-4.66Z"/><path d="M268.39,112h29.42A10.07,10.07,0,0,1,307.86,122h0a10.07,10.07,0,0,1-10.05,10.05H268.39A10.07,10.07,0,0,1,258.34,122h0A10.07,10.07,0,0,1,268.39,112Zm29.42,5.4H268.39a4.68,4.68,0,0,0-4.65,4.66h0a4.68,4.68,0,0,0,4.65,4.65h29.42a4.66,4.66,0,0,0,4.65-4.65h0a4.66,4.66,0,0,0-4.65-4.66Z"/><path d="M219.11,121.85a2.7,2.7,0,0,0,0-5.4H208.28a2.7,2.7,0,0,0-2.7,2.7v64.09a11.19,11.19,0,0,0,3,7.64,10,10,0,0,0,7.37,3.29H454.42a10,10,0,0,0,7.36-3.29,11.19,11.19,0,0,0,3-7.64V119.15a2.7,2.7,0,0,0-2.7-2.7H449.8c-1.49,0-.85,1.2-.85,2.7s-.64,2.7.85,2.7h9.56v61.39a5.78,5.78,0,0,1-1.52,4,4.67,4.67,0,0,1-3.42,1.56H215.93a4.68,4.68,0,0,1-3.43-1.56,5.78,5.78,0,0,1-1.52-4V121.85Z"/></g><g id="Ebene_2-2" data-name="Ebene 2"><line class="cls-1" x1="53.76" y1="257.37" x2="53.32" y2="440.3"/><line class="cls-1" x1="72.68" y1="257.73" x2="72.46" y2="322.3"/><line class="cls-1" x1="118.32" y1="325.11" x2="117.96" y2="381.22"/><line class="cls-1" x1="71.74" y1="382.16" x2="71.67" y2="440.66"/><line class="cls-1" x1="303.63" y1="381.95" x2="303.63" y2="439.72"/><line class="cls-1" x1="320.67" y1="343.24" x2="321.39" y2="439.72"/><path class="cls-2" d="M54.12,256.29c.57-.15,7.29-5.63,18,.22"/><path class="cls-2" d="M53.68,440.88c.58.14,7.3,5.63,18-.22"/><path class="cls-2" d="M303.55,440.51c.58.15,7.3,5.64,18-.21"/><path class="cls-2" d="M320.67,343.24c-.36-.51-.94-15.31-23.18-18.71"/><line class="cls-1" x1="55.71" y1="323.88" x2="297.49" y2="324.53"/><line class="cls-1" x1="72.03" y1="381.15" x2="303.48" y2="381.22"/><path class="cls-1" d="M94.34,323.59c-8.52-5.92-4.77-22.53,2.31-23.39"/><path class="cls-1" d="M141.93,324c8.52-5.92,3.76-22.75-3.32-23.54"/><line class="cls-1" x1="97.01" y1="300.27" x2="137.96" y2="300.34"/></g></g></svg>