<?xml version="1.0" encoding="utf-8"?>
<!-- Generator: Adobe Illustrator 25.0.0, SVG Export Plug-In . SVG Version: 6.00 Build 0)  -->
<svg version="1.1" xmlns="http://www.w3.org/2000/svg" xmlns:xlink="http://www.w3.org/1999/xlink" x="0px" y="0px"
	 viewBox="0 0 503.6 503.6" style="enable-background:new 0 0 503.6 503.6;" xml:space="preserve">
<style type="text/css">
	.st0{fill:none;stroke:#000000;stroke-width:7;stroke-linecap:round;stroke-linejoin:round;stroke-miterlimit:10;}
	.st1{fill:none;stroke:#000000;stroke-width:7.4594;stroke-linecap:round;stroke-linejoin:round;stroke-miterlimit:10;}
	.st2{fill:none;stroke:#000000;stroke-width:10.2219;stroke-linecap:round;stroke-linejoin:round;stroke-miterlimit:10;}
	.st3{fill:none;stroke:#000000;stroke-width:7.7001;stroke-linecap:round;stroke-linejoin:round;stroke-miterlimit:10;}
	.st4{display:none;}
	.st5{display:inline;opacity:0.17;}
</style>
<g id="New_icon">
	<path class="st0" d="M456,182.7"/>
	<path class="st0" d="M245.7,156.1"/>
	<path class="st0" d="M453.8,319"/>
	<path class="st0" d="M245.7,156.1"/>
	<path class="st1" d="M258,476.5"/>
	<path class="st2" d="M170.5,490.2"/>
	<path class="st2" d="M332.1,490.2"/>
	<path class="st0" d="M245.7,156.1"/>
	<path class="st0" d="M378.1,191"/>
	<ellipse class="st0" cx="255.6" cy="269.1" rx="144.7" ry="143.7"/>
	<circle class="st3" cx="255.6" cy="268.1" r="96.9"/>
	<path class="st0" d="M75.4,189.1v53.1c0,10.8-8.5,19.7-19,19.7h-1.8c-10.4,0-19-8.9-19-19.7v-53.1"/>
	<line class="st0" x1="55.5" y1="189.1" x2="55.5" y2="295.1"/>
	<path class="st0" d="M55.8,411.2L55.8,411.2c-8.2,0-14.8-6.7-14.8-14.8v-85.7c0-8.2,6.7-14.8,14.8-14.8h0c8.2,0,14.8,6.7,14.8,14.8
		v85.7C70.6,404.5,63.9,411.2,55.8,411.2z"/>
	<path class="st0" d="M446.9,412.5L446.9,412.5c-8.4,0-15.3-6.9-15.3-15.3v-81.7c0-8.4,6.9-15.3,15.3-15.3h0
		c8.4,0,15.3,6.9,15.3,15.3v81.7C462.3,405.6,455.4,412.5,446.9,412.5z"/>
	<circle class="st0" cx="55.5" cy="329.1" r="1.5"/>
	<ellipse class="st0" cx="446.9" cy="332.9" rx="1.5" ry="1.4"/>
	<line class="st0" x1="453.5" y1="171.3" x2="453.5" y2="299.3"/>
	<path class="st0" d="M453.1,170.9c-34.2,31.9-27.4,105.4-11.9,129.2"/>
</g>
<g id="Template_1_" class="st4">
	<g transform="translate(1 1)" class="st5">
		<g>
			<g>
				<path d="M254.1,188.1c-42.9,0-79.2,36.3-79.2,79.2s36.3,79.2,79.2,79.2s79.2-36.3,79.2-79.2S297,188.1,254.1,188.1z
					 M254.1,333.3c-35.6,0-66-30.4-66-66s30.4-66,66-66s66,30.4,66,66S289.7,333.3,254.1,333.3z"/>
				<path d="M432.3,244.5V95.7c0-2.6-1.3-4.6-4-5.9c-2.6-1.3-5.3-0.7-7.3,1.3c-18.5,18.5-28.4,42.9-28.4,68.6v39.6
					c0,15.2,3.3,30.4,9.9,43.6l1.5,2.7c-6.9,4.8-11.4,12.7-11.4,21.7v118.8c0,14.5,11.9,26.4,26.4,26.4s26.4-11.9,26.4-26.4V267.3
					C445.5,257.6,440.2,249.1,432.3,244.5z M416.5,240.9l-2-4c-5.3-11.9-8.6-24.4-8.6-37.6v-40.3c0-15.8,4.6-31.7,13.2-44.9v126.7
					L416.5,240.9L416.5,240.9z M432.3,386.1c0,7.3-5.9,13.2-13.2,13.2s-13.2-5.9-13.2-13.2V267.3c0-7.3,5.9-13.2,13.2-13.2
					s13.2,5.9,13.2,13.2V386.1z"/>
				<path d="M115.5,95.7c-4,0-6.6,2.6-6.6,6.6v72.6c0,8.9-5.4,16.1-13.2,18.7v-91.3c0-4-2.6-6.6-6.6-6.6c-4,0-6.6,2.6-6.6,6.6v91.3
					c-7.8-2.6-13.2-9.9-13.2-18.7v-72.6c0-4-2.6-6.6-6.6-6.6s-6.6,2.6-6.6,6.6v72.6c0,16.2,11.2,29.4,26.4,32.4v34.5
					c-11.4,3-19.8,13.3-19.8,25.6v118.8c0,14.5,11.9,26.4,26.4,26.4s26.4-11.9,26.4-26.4V267.3c0-12.2-8.4-22.6-19.8-25.6v-34.5
					c15.2-3,26.4-16.1,26.4-32.4v-72.6C122.1,98.3,119.4,95.7,115.5,95.7z M102.3,267.3v118.8c0,7.3-5.9,13.2-13.2,13.2
					s-13.2-5.9-13.2-13.2V267.3c0-7.3,5.9-13.2,13.2-13.2C96.3,254.1,102.3,260.1,102.3,267.3z"/>
				<path d="M82.5,293.7c0,4,2.6,6.6,6.6,6.6s6.6-2.6,6.6-6.6s-2.6-6.6-6.6-6.6S82.5,289.8,82.5,293.7z"/>
				<path d="M419.1,287.1c-4,0-6.6,2.6-6.6,6.6s2.6,6.6,6.6,6.6s6.6-2.6,6.6-6.6S423.1,287.1,419.1,287.1z"/>
				<path d="M254.1,141.9c-69.3,0-125.4,56.1-125.4,125.4s56.1,125.4,125.4,125.4s125.4-56.1,125.4-125.4S323.4,141.9,254.1,141.9z
					 M254.1,379.5c-62,0-112.2-50.2-112.2-112.2s50.2-112.2,112.2-112.2s112.2,50.2,112.2,112.2S316.1,379.5,254.1,379.5z"/>
			</g>
		</g>
	</g>
</g>
</svg>
