<?xml version="1.0" encoding="utf-8"?>
<!-- Generator: Adobe Illustrator 25.0.0, SVG Export Plug-In . SVG Version: 6.00 Build 0)  -->
<svg version="1.1" xmlns="http://www.w3.org/2000/svg" xmlns:xlink="http://www.w3.org/1999/xlink" x="0px" y="0px"
	 viewBox="0 0 503.6 503.6" style="enable-background:new 0 0 503.6 503.6;" xml:space="preserve">
<style type="text/css">
	.st0{fill:none;stroke:#000000;stroke-width:7;stroke-linecap:round;stroke-linejoin:round;stroke-miterlimit:10;}
	.st1{fill:none;stroke:#000000;stroke-width:8;stroke-linecap:round;stroke-linejoin:round;stroke-miterlimit:10;}
	.st2{display:none;}
	.st3{display:inline;opacity:0.17;}
</style>
<g id="New_icon">
	<path class="st0" d="M456,182.7"/>
	<path class="st0" d="M254.4,187.4"/>
	<path class="st0" d="M254.4,187.4"/>
	<path class="st0" d="M258,434.4"/>
	<path class="st0" d="M170.5,490.2"/>
	<path class="st0" d="M332.1,490.2"/>
	<path class="st0" d="M254.4,187.4"/>
	<path class="st0" d="M378.1,191"/>
	<path class="st0" d="M385,336.9"/>
	<path class="st0" d="M361.8,221.3c-3.4-14.6-9.1-19.2-15.7-19.2H160.6c-5.6,0-10.4,3.9-11.6,9.4l-38.9,182
		c-0.2,0.8,1.3-0.2,0.9,0.6c-1,2.3,44.1,33.1,103.2,5.4c11,5.7,44.7,35,94.4,4.1c0,0,59.1,26.4,84.8-3"/>
	<line class="st0" x1="209.9" y1="396.9" x2="210.7" y2="302.1"/>
	<line class="st0" x1="305.1" y1="400.6" x2="304.5" y2="351.6"/>
	<line class="st0" x1="362.2" y1="221.3" x2="393.9" y2="400.6"/>
	<line class="st1" x1="134.3" y1="270" x2="64.4" y2="268.3"/>
	<line class="st1" x1="64.4" y1="268.3" x2="50.1" y2="143"/>
	<line class="st1" x1="88.2" y1="270.3" x2="72.2" y2="360.6"/>
	<line class="st1" x1="372.9" y1="270" x2="442.8" y2="268.3"/>
	<line class="st1" x1="442.8" y1="268.3" x2="457.2" y2="143"/>
	<line class="st1" x1="419.1" y1="270.3" x2="435.1" y2="360.6"/>
	<path class="st0" d="M190,186.9c0.3-34.3,28.3-61.9,62.7-61.6s61.9,28.3,61.6,62.7"/>
	<line class="st0" x1="190" y1="186.9" x2="314.3" y2="187.9"/>
	<line class="st0" x1="254.4" y1="121.4" x2="254.4" y2="112.1"/>
	<path id="_172961952" d="M212.6,66.8c0-0.6-0.6-1.1-1.4-1.1s-1.4,0.5-1.4,1.1c0,1.3-0.9,2.7-1.8,4.2c-1.1,1.7-2.1,3.4-2.1,5.2
		s1.1,3.5,2.1,5.2c0.9,1.4,1.8,2.9,1.8,4.2c0,1.3-0.9,2.7-1.8,4.2c-1.1,1.7-2.1,3.4-2.1,5.2c0,0.6,0.6,1.1,1.4,1.1s1.4-0.5,1.4-1.1
		c0-1.3,0.9-2.7,1.8-4.2c1.1-1.7,2.1-3.4,2.1-5.2c0-1.8-1.1-3.5-2.1-5.2c-0.9-1.4-1.8-2.9-1.8-4.2c0-1.3,0.9-2.7,1.8-4.2
		C211.5,70.3,212.6,68.7,212.6,66.8L212.6,66.8z"/>
	<path id="_172961952_1_" d="M255.5,55.8c0-0.6-0.6-1.1-1.4-1.1s-1.4,0.5-1.4,1.1c0,1.3-0.9,2.7-1.8,4.2c-1.1,1.7-2.1,3.4-2.1,5.2
		c0,1.8,1.1,3.5,2.1,5.2c0.9,1.4,1.8,2.9,1.8,4.2c0,1.3-0.9,2.7-1.8,4.2c-1.1,1.7-2.1,3.4-2.1,5.2c0,0.6,0.6,1.1,1.4,1.1
		s1.4-0.5,1.4-1.1c0-1.3,0.9-2.7,1.8-4.2c1.1-1.7,2.1-3.4,2.1-5.2c0-1.8-1.1-3.5-2.1-5.2c-0.9-1.4-1.8-2.9-1.8-4.2
		c0-1.3,0.9-2.7,1.8-4.2C254.5,59.3,255.5,57.6,255.5,55.8L255.5,55.8z"/>
	<path id="_172961952_2_" d="M296.7,68.7c0-0.6-0.6-1.1-1.4-1.1c-0.8,0-1.4,0.5-1.4,1.1c0,1.3-0.9,2.7-1.8,4.2
		c-1.1,1.7-2.1,3.4-2.1,5.2c0,1.8,1.1,3.5,2.1,5.2c0.9,1.4,1.8,2.9,1.8,4.2c0,1.3-0.9,2.7-1.8,4.2c-1.1,1.7-2.1,3.4-2.1,5.2
		c0,0.6,0.6,1.1,1.4,1.1c0.8,0,1.4-0.5,1.4-1.1c0-1.3,0.9-2.7,1.8-4.2c1.1-1.7,2.1-3.4,2.1-5.2c0-1.8-1.1-3.5-2.1-5.2
		c-0.9-1.4-1.8-2.9-1.8-4.2s0.9-2.7,1.8-4.2C295.6,72.2,296.7,70.6,296.7,68.7L296.7,68.7z"/>
</g>
<g id="Template_1_" class="st2">
	<g transform="translate(1 1)" class="st3">
		<g>
			<g>
				<path d="M254.1,188.1c-42.9,0-79.2,36.3-79.2,79.2s36.3,79.2,79.2,79.2s79.2-36.3,79.2-79.2S297,188.1,254.1,188.1z
					 M254.1,333.3c-35.6,0-66-30.4-66-66s30.4-66,66-66s66,30.4,66,66S289.7,333.3,254.1,333.3z"/>
				<path d="M432.3,244.5V95.7c0-2.6-1.3-4.6-4-5.9c-2.6-1.3-5.3-0.7-7.3,1.3c-18.5,18.5-28.4,42.9-28.4,68.6v39.6
					c0,15.2,3.3,30.4,9.9,43.6l1.5,2.7c-6.9,4.8-11.4,12.7-11.4,21.7v118.8c0,14.5,11.9,26.4,26.4,26.4s26.4-11.9,26.4-26.4V267.3
					C445.5,257.6,440.2,249.1,432.3,244.5z M416.5,240.9l-2-4c-5.3-11.9-8.6-24.4-8.6-37.6v-40.3c0-15.8,4.6-31.7,13.2-44.9v126.7
					L416.5,240.9L416.5,240.9z M432.3,386.1c0,7.3-5.9,13.2-13.2,13.2s-13.2-5.9-13.2-13.2V267.3c0-7.3,5.9-13.2,13.2-13.2
					s13.2,5.9,13.2,13.2V386.1z"/>
				<path d="M115.5,95.7c-4,0-6.6,2.6-6.6,6.6v72.6c0,8.9-5.4,16.1-13.2,18.7v-91.3c0-4-2.6-6.6-6.6-6.6c-4,0-6.6,2.6-6.6,6.6v91.3
					c-7.8-2.6-13.2-9.9-13.2-18.7v-72.6c0-4-2.6-6.6-6.6-6.6s-6.6,2.6-6.6,6.6v72.6c0,16.2,11.2,29.4,26.4,32.4v34.5
					c-11.4,3-19.8,13.3-19.8,25.6v118.8c0,14.5,11.9,26.4,26.4,26.4s26.4-11.9,26.4-26.4V267.3c0-12.2-8.4-22.6-19.8-25.6v-34.5
					c15.2-3,26.4-16.1,26.4-32.4v-72.6C122.1,98.3,119.4,95.7,115.5,95.7z M102.3,267.3v118.8c0,7.3-5.9,13.2-13.2,13.2
					s-13.2-5.9-13.2-13.2V267.3c0-7.3,5.9-13.2,13.2-13.2C96.3,254.1,102.3,260.1,102.3,267.3z"/>
				<path d="M82.5,293.7c0,4,2.6,6.6,6.6,6.6s6.6-2.6,6.6-6.6s-2.6-6.6-6.6-6.6S82.5,289.8,82.5,293.7z"/>
				<path d="M419.1,287.1c-4,0-6.6,2.6-6.6,6.6s2.6,6.6,6.6,6.6s6.6-2.6,6.6-6.6S423.1,287.1,419.1,287.1z"/>
				<path d="M254.1,141.9c-69.3,0-125.4,56.1-125.4,125.4s56.1,125.4,125.4,125.4s125.4-56.1,125.4-125.4S323.4,141.9,254.1,141.9z
					 M254.1,379.5c-62,0-112.2-50.2-112.2-112.2s50.2-112.2,112.2-112.2s112.2,50.2,112.2,112.2S316.1,379.5,254.1,379.5z"/>
			</g>
		</g>
	</g>
</g>
</svg>
