<svg xmlns="http://www.w3.org/2000/svg" viewBox="0 0 491.5 491.5"><defs><style>.cls-1,.cls-2,.cls-3{fill:none;stroke:#000;stroke-linecap:round;}.cls-1,.cls-3{stroke-linejoin:round;}.cls-1,.cls-2{stroke-width:5.06px;}.cls-2{stroke-miterlimit:10;}.cls-3{stroke-width:6.24px;}</style></defs><g id="Ebene_4" data-name="Ebene 4"><path class="cls-1" d="M302.86,219.84H189.11A87.56,87.56,0,0,0,200,361.94h90.56a87.56,87.56,0,0,0,11.71-141.4l26.63-22s-133.68,20.87-169,3.3c0,0-53.39,74.17-26.48,108.2,0,0,13.18,9.32,13.18-5,0,0-15.93-33.5,20.86-84.57l21.63-.7"/><path class="cls-2" d="M159.92,292.45s30-15.64,57.37,7.38c22.5,18.93,46.27,6.75,54,1.81a27.33,27.33,0,0,0,3.86-3c5.68-5.3,29.92-26.16,53.71-20.66"/><polygon class="cls-3" points="175.68 94.55 206.61 190.3 289.4 190.3 320.32 94.55 175.68 94.55"/><line class="cls-3" x1="264.46" y1="190.3" x2="267.45" y2="94.54"/><line class="cls-3" x1="159.92" y1="374.84" x2="328.88" y2="376.83"/></g></svg>