<?xml version="1.0" encoding="UTF-8"?>
<!DOCTYPE svg PUBLIC "-//W3C//DTD SVG 1.1//EN" "http://www.w3.org/Graphics/SVG/1.1/DTD/svg11.dtd">
<!-- Creator: CorelDRAW -->
<svg xmlns="http://www.w3.org/2000/svg" xml:space="preserve" width="6.82666in" height="6.82666in" style="shape-rendering:geometricPrecision; text-rendering:geometricPrecision; image-rendering:optimizeQuality; fill-rule:evenodd; clip-rule:evenodd"
viewBox="0 0 6.82666 6.82666"
 xmlns:xlink="http://www.w3.org/1999/xlink">
 <defs>
  <style type="text/css">
   <![CDATA[
    .fil2 {fill:none}
    .fil1 {fill:black}
    .fil0 {fill:black;fill-rule:nonzero}
   ]]>
  </style>
 </defs>
 <g id="Layer_x0020_1">
  <metadata id="CorelCorpID_0Corel-Layer"/>
  <path class="fil0" d="M0.906661 1.62534l5.01334 0c0.0294528,0 0.0533346,0.0238819 0.0533346,0.0533346l0 3.46931c0,0.0294528 -0.0238819,0.0533346 -0.0533346,0.0533346l-5.01334 0c-0.0294528,0 -0.0533346,-0.0238819 -0.0533346,-0.0533346l0 -3.46931c0,-0.0294528 0.0238819,-0.0533346 0.0533346,-0.0533346zm4.96 0.106669l-4.90667 0 0 3.36265 4.90667 0 0 -3.36265z"/>
  <path class="fil0" d="M1.10046 1.81808l4.62575 0c0.0294528,0 0.0533346,0.0238819 0.0533346,0.0533346l0 2.69835c0,0.0294528 -0.0238819,0.0533346 -0.0533346,0.0533346l-4.62575 0c-0.0294528,0 -0.0533346,-0.0238819 -0.0533346,-0.0533346l0 -2.69835c0,-0.0294528 0.0238819,-0.0533346 0.0533346,-0.0533346zm4.57241 0.106669l-4.51908 0 0 2.59169 4.51908 0 0 -2.59169z"/>
  <g id="_173062440">
   <g>
    <rect id="_173062920" class="fil1" x="5.21656" y="4.73443" width="0.106665" height="0.24889" rx="0.0533307" ry="0.0533307"/>
    <rect id="_173062776" class="fil1" x="4.89303" y="4.73443" width="0.106665" height="0.24889" rx="0.0533307" ry="0.0533307"/>
    <circle id="_173062704" class="fil1" cx="3.37021" cy="4.85888" r="0.0800009"/>
   </g>
   <g>
    <path id="_173062512" class="fil0" d="M2.50289 4.81585c0.0294528,0 0.0533346,-0.0238819 0.0533346,-0.0533346 0,-0.0294528 -0.0238819,-0.0533346 -0.0533346,-0.0533346l-0.999445 0c-0.0294528,0 -0.0533346,0.0238819 -0.0533346,0.0533346 0,0.0294528 0.0238819,0.0533346 0.0533346,0.0533346l0.999445 0z"/>
    <path id="_173062560" class="fil0" d="M2.50289 5.00857c0.0294528,0 0.0533346,-0.0238819 0.0533346,-0.0533346 0,-0.0294528 -0.0238819,-0.0533346 -0.0533346,-0.0533346l-0.999445 0c-0.0294528,0 -0.0533346,0.0238819 -0.0533346,0.0533346 0,0.0294528 0.0238819,0.0533346 0.0533346,0.0533346l0.999445 0z"/>
   </g>
  </g>
 </g>
 <rect class="fil2" width="6.82666" height="6.82666"/>
</svg>
