<svg xmlns="http://www.w3.org/2000/svg" viewBox="0 0 491.5 491.5"><defs><style>.cls-1,.cls-2,.cls-3,.cls-4{fill:none;stroke:#000;}.cls-1,.cls-2,.cls-3{stroke-miterlimit:10;}.cls-1{stroke-width:6.88px;}.cls-2{stroke-width:5.16px;}.cls-3{stroke-width:3.44px;}.cls-4{stroke-linecap:round;stroke-linejoin:round;stroke-width:6.68px;}</style></defs><g id="Ebene_2" data-name="Ebene 2"><rect class="cls-1" x="150.61" y="24.62" width="175.3" height="442.84" transform="translate(476.52 492.08) rotate(-180)"/><rect class="cls-2" x="256.25" y="251.02" width="50.31" height="0.31" transform="translate(562.82 502.35) rotate(180)"/><rect class="cls-2" x="256.25" y="295.59" width="50.31" height="0.31" transform="translate(562.82 591.49) rotate(180)"/><line class="cls-3" x1="150.91" y1="272.95" x2="323.84" y2="272.95"/><line class="cls-4" x1="237.7" y1="318.54" x2="237.7" y2="437.74"/><polyline class="cls-4" points="222.98 318.54 237.7 334.76 251.77 318.54"/><polyline class="cls-4" points="223.2 437.67 237.92 421.45 251.99 437.67"/><line class="cls-4" x1="296.97" y1="378.35" x2="177.78" y2="378.35"/><polyline class="cls-4" points="296.97 363.64 280.75 378.35 296.97 392.42"/><polyline class="cls-4" points="177.85 363.86 194.07 378.57 177.85 392.64"/><line class="cls-4" x1="279.64" y1="336.38" x2="195.36" y2="420.66"/><polyline class="cls-4" points="269.24 325.98 268.17 347.85 289.59 346.33"/><polyline class="cls-4" points="185.16 410.37 207.03 409.3 205.52 430.72"/><line class="cls-4" x1="279.35" y1="418.77" x2="195.06" y2="334.49"/><polyline class="cls-4" points="289.75 408.37 267.88 407.3 269.39 428.72"/><polyline class="cls-4" points="205.36 324.29 206.43 346.16 185 344.64"/></g></svg>