<svg xmlns="http://www.w3.org/2000/svg" viewBox="0 0 491.5 491.5"><defs><style>.cls-1,.cls-3{fill:none;}.cls-1,.cls-2,.cls-3{stroke:#000;stroke-miterlimit:10;}.cls-1{stroke-width:1.67px;}.cls-2{fill:#fff;stroke-width:1.25px;}.cls-3{stroke-width:1.37px;}</style></defs><g id="Ebene_4" data-name="Ebene 4"><polygon class="cls-1" points="406.7 53.34 398.76 45.56 358.48 45.56 349.82 53.34 341.74 105.6 414.78 105.6 406.7 53.34"/><rect class="cls-1" x="334.38" y="105.6" width="87.77" height="1.89"/><path d="M205,125.15a33.72,33.72,0,0,0-33.69,33.68v43a33.73,33.73,0,0,0,22,31.58c-.15-.64-.31-1.27-.49-1.89a32.13,32.13,0,0,1-19.92-29.69v-43a32.1,32.1,0,1,1,64.19,0v43a32.14,32.14,0,0,1-19.92,29.69c-.17.62-.33,1.25-.49,1.89a33.73,33.73,0,0,0,22-31.58v-43A33.72,33.72,0,0,0,205,125.15Z"/><path d="M213.69,246.56H196.34A54.89,54.89,0,0,0,195.09,234c-.6-.18-1.18-.38-1.76-.6a52.65,52.65,0,0,1,1.41,13.91l0,.81h20.61l0-.81a53.54,53.54,0,0,1,1.41-13.91c-.58.22-1.16.42-1.76.6A54.89,54.89,0,0,0,213.69,246.56Z"/><path d="M229.37,210.51l-1-1.19c-.12.1-9.13,8-13,22.89.61-.21,1.22-.44,1.81-.68C221,217.87,229.25,210.61,229.37,210.51Z"/><path d="M181.7,209.32l-1,1.19c.11.1,8.35,7.35,12.17,21,.6.24,1.2.47,1.81.68C190.83,217.35,181.82,209.42,181.7,209.32Z"/><path d="M215.38,232.21c-.16.59-.3,1.2-.44,1.81.6-.18,1.18-.38,1.76-.6.16-.64.32-1.27.49-1.89C216.6,231.77,216,232,215.38,232.21Z"/><path d="M194.65,232.21c-.61-.21-1.21-.44-1.81-.68.18.62.34,1.25.49,1.89.58.22,1.16.42,1.76.6C195,233.41,194.81,232.8,194.65,232.21Z"/><path class="cls-1" d="M311.14,168.9A106.92,106.92,0,0,0,240,68.14v8.39H171.33V67.2a106.92,106.92,0,0,0-74,101.7V169h0V453.79H311.14V169h0Z"/><path class="cls-1" d="M171.33,76.53l4.32-30.79S181.1,38.35,205,38c0,0,23.34-.94,30.87,7.17L240,76.53"/><path class="cls-1" d="M175.65,45.74s8,5.22,30,0c0,0,12.28,4.64,30.24-.58"/><rect class="cls-1" x="110.94" y="260.49" width="187.24" height="95.73"/><polygon class="cls-2" points="351.24 438.59 53.69 438.59 109.72 384.78 296.96 384.78 351.24 438.59"/><line class="cls-1" x1="142.1" y1="284.03" x2="264.57" y2="284.03"/><line class="cls-1" x1="142.1" y1="300.82" x2="264.57" y2="300.82"/><line class="cls-1" x1="142.1" y1="317.61" x2="264.57" y2="317.61"/><line class="cls-1" x1="142.1" y1="334.4" x2="264.57" y2="334.4"/><line class="cls-3" x1="142.1" y1="394" x2="264.57" y2="394"/><line class="cls-3" x1="135" y1="405.2" x2="270.37" y2="405.2"/><line class="cls-3" x1="129.8" y1="416.39" x2="277.6" y2="416.39"/><line class="cls-3" x1="125.76" y1="427.59" x2="281.7" y2="427.59"/><rect class="cls-2" x="53.69" y="438.59" width="297.55" height="11.57"/></g></svg>