<svg xmlns="http://www.w3.org/2000/svg" viewBox="0 0 491.5 491.5"><defs><style>.cls-1{fill:none;}</style></defs><g id="Ebene_4" data-name="Ebene 4"><path class="cls-1" d="M287.69,302.59a13.83,13.83,0,0,0-11.29-6.84v40.09a14.9,14.9,0,0,0,29.79,0V309.22a30.49,30.49,0,0,1-3.85.25C297.6,309.47,291.16,308.29,287.69,302.59Z"/><path class="cls-1" d="M262.2,54.31a118.86,118.86,0,0,0-106.95,67.21l214.08.37A118.85,118.85,0,0,0,262.2,54.31Z"/><path class="cls-1" d="M149.69,117.88l-25.85-8.58a2.95,2.95,0,0,0-3.74,1.88l-.3.9a3,3,0,0,0,1.88,3.75l25.85,8.57a3,3,0,0,0,3.24-1c.24-.55.49-1.09.74-1.63l.06-.18A3,3,0,0,0,149.69,117.88Z"/><path class="cls-1" d="M96.21,138.41a9.3,9.3,0,0,0-8,4.52l-.14.2a13.21,13.21,0,0,0-3.1,8.49V311a13.21,13.21,0,0,0,26.41,0V157.12h29.87a122.14,122.14,0,0,1,4-18.71Z"/><path class="cls-1" d="M291.3,208.66a14.91,14.91,0,0,0-14.9,14.89v68.94a17,17,0,0,1,14.07,8.4c3.7,6.08,12.44,5.49,15.72,5V223.55A14.91,14.91,0,0,0,291.3,208.66Z"/><polygon class="cls-1" points="380.92 425.39 380.92 399.36 143.49 399.36 143.49 403.23 143.5 403.23 143.5 421.89 143.49 421.89 143.49 425.39 380.92 425.39"/><path class="cls-1" d="M132.55,406.49a4.46,4.46,0,0,0-4.45,4.45v3.23a4.46,4.46,0,0,0,4.45,4.46h7.67V406.49Z"/><path d="M153.63,125a6.22,6.22,0,0,1-4.7,2.75q-1.45,3.63-2.68,7.37h3.43C150.84,131.7,152.17,128.33,153.63,125Z"/><path d="M381.69,200l-.42-2c0-.05-.12-.57-.35-1.44V389.79H143.49V173a120.23,120.23,0,0,1,.67-12.65h-3.28a123,123,0,0,0-.66,12.65V338.78c.9,0,1.49,0,1.69,0l-.09,3.26c-.06,0-.62,0-1.6,0v51h244V198.81l-.62.31Z"/><path d="M145.23,138.41a122.14,122.14,0,0,0-4,18.71h3.29a118.4,118.4,0,0,1,4.09-18.71Z"/><path d="M151.28,122.52l.23-.71c-.25.54-.5,1.08-.74,1.63A3.16,3.16,0,0,0,151.28,122.52Z"/><polygon points="143.49 399.36 380.92 399.36 380.92 425.39 143.49 425.39 143.49 421.89 140.22 421.89 140.22 428.65 384.18 428.65 384.18 396.09 140.22 396.09 140.22 403.23 143.49 403.23 143.49 399.36"/><rect x="140.22" y="406.49" width="0.01" height="12.13"/><rect x="143.49" y="403.23" width="0.01" height="18.66"/><path d="M126.38,414l-1.54-.11v.28a7.72,7.72,0,0,0,7.71,7.72h7.67v-3.26h-7.67a4.46,4.46,0,0,1-4.45-4.46v-3.23a4.46,4.46,0,0,1,4.45-4.45h7.67v-3.26h-7.67a7.71,7.71,0,0,0-7.69,7.37c1,.1,1.66.14,1.7.14Z"/><polygon points="140.24 406.49 140.24 418.63 140.22 418.63 140.22 421.89 143.49 421.89 143.49 403.23 140.22 403.23 140.22 406.49 140.24 406.49"/><path d="M72.05,373.65c-1.12,8.11.82,15.26,5.76,21.25,12.47,15.15,40.15,18.4,47,19v-2.95c0-.11,0-.22,0-.34-6.92-.64-33.17-4-44.54-17.77a23.33,23.33,0,0,1-5-18.73c4.2-30.39,55.22-32,64.94-32v-3.28C129.78,338.74,76.68,340.2,72.05,373.65Z"/><path d="M141.82,342.07l.09-3.26c-.2,0-.79,0-1.69,0v3.28C141.2,342.05,141.76,342.06,141.82,342.07Z"/><path d="M124.84,413.89l1.54.11.18-3.26s-.66,0-1.7-.14c0,.12,0,.23,0,.34Z"/><path d="M291.3,205.39a18.18,18.18,0,0,0-18.16,18.16V335.84a18.16,18.16,0,0,0,36.31,0V223.55A18.18,18.18,0,0,0,291.3,205.39Zm16.16,100.32.72,3.18c-.12,0-.86.19-2,.33v26.62a14.9,14.9,0,0,1-29.79,0V295.75a9.89,9.89,0,0,0-1.45,0l-.37-3.24a13.41,13.41,0,0,1,1.82,0V223.55a14.9,14.9,0,0,1,29.79,0v82.37C307,305.81,307.43,305.71,307.46,305.71Z"/><path d="M384,195.28a89.87,89.87,0,0,0-3.07-9.5v10.75c.23.87.34,1.39.35,1.44l.42,2,1.87-.86.62-.31v-3.63Z"/><path d="M111.39,157.12V311A13.21,13.21,0,0,1,85,311V151.62a13.21,13.21,0,0,1,3.1-8.49l.14-.2a9.3,9.3,0,0,1,8-4.52h49c.33-1.09.67-2.18,1-3.26h-50a12.51,12.51,0,0,0-10.71,6,16.46,16.46,0,0,0-3.78,10.49V311a16.47,16.47,0,0,0,32.93,0V160.38h26.23c.11-1.09.24-2.18.38-3.26Z"/><path d="M144.55,157.12h-3.29c-.14,1.08-.27,2.17-.38,3.26h3.28C144.28,159.29,144.41,158.2,144.55,157.12Z"/><path d="M148.64,138.41c.33-1.09.68-2.18,1-3.26h-3.43c-.35,1.08-.69,2.17-1,3.26Z"/><path d="M153.74,124.78c0,.09-.07.17-.11.25.05-.08.11-.16.16-.25Z"/><path d="M154.55,123c.23-.5.46-1,.7-1.49h-.32a6.37,6.37,0,0,1-.26,1.13Z"/><path d="M154.37,123.55l.18-.54-.81,1.77h0A5.78,5.78,0,0,0,154.37,123.55Z"/><path d="M422.13,135.81c-5.24,3.44-22.91,6-41.56,7.71a122,122,0,0,0-226.74-26.43,6.13,6.13,0,0,0-3.11-2.31l-25.85-8.58a6.24,6.24,0,0,0-7.87,4l-.3.9a6.23,6.23,0,0,0,4,7.87l25.85,8.58a6.09,6.09,0,0,0,2,.32c.15,0,.31,0,.47,0a6.22,6.22,0,0,0,4.7-2.75c0-.08.07-.16.11-.25l.81-1.77.12-.36a6.37,6.37,0,0,0,.26-1.13h.32a118.7,118.7,0,0,1,214.08.37l-214.08-.37c-.24.49-.47,1-.7,1.49l-.18.54a5.78,5.78,0,0,1-.58,1.23l217,.38a116.47,116.47,0,0,1,6.45,18.66C364.2,145,351,145.7,341.47,146.06l-11.34.43,11,2.78c27.94,7.06,37.91,40,39.79,47.26V185.78c-4.44-11.61-13.67-28.87-31-36.85,6.9-.35,17.25-1,28.1-1.92l3.28-.3c15.74-1.47,31.92-3.64,39.72-6.74-1.43,9.63-8.2,40.66-36.86,55.21v3.63c37.05-17.67,40.44-61.09,40.47-61.53l.23-3.27ZM151.57,121.63l-.06.18-.23.71a3.16,3.16,0,0,1-.51.92,3,3,0,0,1-3.24,1l-25.85-8.57a3,3,0,0,1-1.88-3.75l.3-.9a2.95,2.95,0,0,1,3.74-1.88l25.85,8.58A3,3,0,0,1,151.57,121.63Z"/><path d="M290.47,300.89a17,17,0,0,0-14.07-8.4v3.26a13.83,13.83,0,0,1,11.29,6.84c3.47,5.7,9.91,6.88,14.65,6.88a30.49,30.49,0,0,0,3.85-.25v-3.3C302.91,306.38,294.17,307,290.47,300.89Z"/><path d="M274.58,292.53l.37,3.24a9.89,9.89,0,0,1,1.45,0v-3.26A13.41,13.41,0,0,0,274.58,292.53Z"/><path d="M308.18,308.89l-.72-3.18s-.5.1-1.27.21v3.3C307.32,309.08,308.06,308.92,308.18,308.89Z"/><rect x="248.48" y="332.89" width="16.9" height="3.26"/><rect x="248.48" y="225.58" width="16.9" height="3.26"/><rect x="248.48" y="252.41" width="16.9" height="3.26"/><rect x="248.48" y="279.24" width="16.9" height="3.26"/><rect x="248.48" y="306.06" width="16.9" height="3.26"/></g></svg>