<svg xmlns="http://www.w3.org/2000/svg" viewBox="0 0 491.5 491.5"><defs><style>.cls-1,.cls-10,.cls-11,.cls-2,.cls-3,.cls-4,.cls-5,.cls-6,.cls-7,.cls-8,.cls-9{fill:none;stroke:#000;}.cls-1,.cls-10,.cls-11,.cls-3,.cls-4,.cls-5,.cls-6,.cls-7,.cls-8,.cls-9{stroke-miterlimit:10;}.cls-1{stroke-width:3.61px;}.cls-2{stroke-linejoin:round;}.cls-2,.cls-7{stroke-width:3.17px;}.cls-3{stroke-width:4.22px;}.cls-4{stroke-width:2.12px;}.cls-5{stroke-width:2.05px;}.cls-6{stroke-width:2.05px;}.cls-8{stroke-width:3.77px;}.cls-9{stroke-width:2.6px;}.cls-10{stroke-width:5.09px;}.cls-11{stroke-width:2.11px;}</style></defs><g id="Ebene_2" data-name="Ebene 2"><rect class="cls-1" x="134.83" y="194.36" width="107.54" height="107.54" transform="translate(377.21 496.26) rotate(-180)"/><polygon class="cls-2" points="134.91 98.76 242.45 98.76 217.24 81.99 160.3 81.99 134.91 98.76"/><rect class="cls-3" x="27.41" y="30.23" width="107.54" height="271.67" transform="translate(162.37 332.13) rotate(-180)"/><rect class="cls-1" x="243.15" y="194.36" width="107.54" height="107.54" transform="translate(593.84 496.26) rotate(-180)"/><rect class="cls-4" x="243.15" y="194.28" width="107.54" height="37.18" transform="translate(593.84 425.74) rotate(-180)"/><rect class="cls-5" x="243.15" y="231.46" width="107.54" height="34.63" transform="translate(593.84 497.55) rotate(-180)"/><rect class="cls-6" x="243.15" y="266.46" width="107.54" height="34.63" transform="translate(593.84 567.55) rotate(-180)"/><rect class="cls-7" x="146.2" y="226.79" width="84.8" height="61.18" transform="translate(377.21 514.75) rotate(-180)"/><rect class="cls-7" x="281.61" y="214.69" width="30.87" height="0.19" transform="translate(594.08 429.57) rotate(180)"/><rect class="cls-8" x="144.9" y="211.81" width="87.58" height="0.09" transform="translate(377.38 423.72) rotate(180)"/><rect class="cls-7" x="92.22" y="169.12" width="30.87" height="0.19" transform="translate(215.31 338.43) rotate(180)"/><rect class="cls-7" x="92.22" y="196.46" width="30.87" height="0.19" transform="translate(215.31 393.12) rotate(180)"/><rect class="cls-7" x="281.61" y="247.86" width="30.87" height="0.19" transform="translate(594.08 495.92) rotate(180)"/><rect class="cls-7" x="281.61" y="283.59" width="30.87" height="0.19" transform="translate(594.08 567.37) rotate(180)"/><rect class="cls-1" x="354.85" y="346.83" width="107.54" height="107.54" transform="translate(817.25 801.21) rotate(-180)"/><rect class="cls-4" x="354.85" y="346.75" width="107.54" height="37.18" transform="translate(817.25 730.69) rotate(-180)"/><rect class="cls-5" x="354.85" y="383.94" width="107.54" height="34.63" transform="translate(817.25 802.5) rotate(-180)"/><rect class="cls-6" x="354.85" y="418.93" width="107.54" height="34.63" transform="translate(817.25 872.5) rotate(-180)"/><rect class="cls-7" x="393.31" y="367.17" width="30.87" height="0.19" transform="translate(817.49 734.52) rotate(180)"/><rect class="cls-7" x="393.31" y="400.34" width="30.87" height="0.19" transform="translate(817.49 800.87) rotate(180)"/><rect class="cls-7" x="308.36" y="367.26" width="30.87" height="0.19" transform="translate(647.58 734.71) rotate(180)"/><rect class="cls-7" x="393.31" y="436.07" width="30.87" height="0.19" transform="translate(817.49 872.32) rotate(180)"/><rect class="cls-9" x="134.75" y="183.65" width="218.55" height="10.94" transform="translate(488.05 378.24) rotate(-180)"/><rect class="cls-10" x="248.16" y="346.79" width="213.96" height="107.54" transform="translate(710.29 801.13) rotate(-180)"/><rect class="cls-9" x="245.58" y="336.09" width="218.55" height="10.94" transform="translate(709.71 683.11) rotate(-180)"/><line class="cls-11" x1="153.06" y1="242.57" x2="224.15" y2="242.57"/><line class="cls-11" x1="153.06" y1="256.52" x2="224.15" y2="256.52"/><line class="cls-11" x1="153.06" y1="270.47" x2="224.15" y2="270.47"/><line class="cls-7" x1="175.5" y1="41.7" x2="202.06" y2="41.7"/><line class="cls-7" x1="175.5" y1="47.27" x2="202.06" y2="47.27"/><line class="cls-7" x1="175.5" y1="52.83" x2="202.06" y2="52.83"/><line class="cls-11" x1="27.6" y1="182.57" x2="133.69" y2="182.57"/><rect class="cls-7" x="159.64" y="32.05" width="58.29" height="49.94"/></g></svg>