<?xml version="1.0" encoding="utf-8"?>
<!-- Generator: Adobe Illustrator 25.0.0, SVG Export Plug-In . SVG Version: 6.00 Build 0)  -->
<svg version="1.1" xmlns="http://www.w3.org/2000/svg" xmlns:xlink="http://www.w3.org/1999/xlink" x="0px" y="0px"
	 viewBox="0 0 503.6 503.6" style="enable-background:new 0 0 503.6 503.6;" xml:space="preserve">
<style type="text/css">
	.st0{fill:none;stroke:#000000;stroke-width:7.4015;stroke-linecap:round;stroke-linejoin:round;stroke-miterlimit:10;}
	.st1{fill:none;stroke:#000000;stroke-width:6;stroke-linecap:round;stroke-linejoin:round;stroke-miterlimit:10;}
	.st2{fill:none;stroke:#000000;stroke-width:6.402;stroke-linecap:round;stroke-linejoin:round;stroke-miterlimit:10;}
	.st3{fill:none;stroke:#000000;stroke-width:6.0751;stroke-linecap:round;stroke-linejoin:round;stroke-miterlimit:10;}
	.st4{fill:none;stroke:#000000;stroke-width:8.0702;stroke-linecap:round;stroke-linejoin:round;stroke-miterlimit:10;}
	.st5{fill:none;stroke:#000000;stroke-width:8.6309;stroke-linecap:round;stroke-linejoin:round;stroke-miterlimit:10;}
	.st6{fill:none;stroke:#000000;stroke-width:5.5069;stroke-linecap:round;stroke-linejoin:round;stroke-miterlimit:10;}
</style>
<g id="New_icon">
	<path class="st0" d="M429.2,97.4"/>
	<path class="st0" d="M71.2,103.8"/>
	<path class="st0" d="M429.2,275"/>
	<path class="st1" d="M140.8-13.9"/>
	<path class="st2" d="M257.1,450.3"/>
	<path class="st3" d="M303.7,190.3"/>
	<path class="st4" d="M419.5,380.3H84.1c-8.8,0-16-7.2-16-16V139.3c0-8.8,7.2-16,16-16h335.3c8.8,0,16,7.2,16,16v224.9
		C435.5,373.1,428.3,380.3,419.5,380.3z"/>
	<path class="st5" d="M297.9,355.4H129.3c-21.5,0-39-17.6-39-39V187.2c0-21.5,17.6-39,39-39h168.6c21.5,0,39,17.6,39,39v129.2
		C336.9,337.8,319.3,355.4,297.9,355.4z"/>
	<line class="st5" x1="360.7" y1="168.6" x2="413.2" y2="168.6"/>
	<line class="st5" x1="360.6" y1="194.3" x2="413.2" y2="194.3"/>
	<line class="st5" x1="360.6" y1="220.1" x2="413.2" y2="220.1"/>
	<line class="st5" x1="144.4" y1="178.4" x2="118.3" y2="204.1"/>
	<line class="st5" x1="183.8" y1="172" x2="163.5" y2="191.9"/>
	<line class="st5" x1="117.2" y1="237.5" x2="126.2" y2="228.7"/>
	<circle class="st5" cx="145.6" cy="210.6" r="1.3"/>
	<line class="st5" x1="121.7" y1="384" x2="121.7" y2="406.3"/>
	<line class="st5" x1="387" y1="384" x2="387" y2="406.3"/>
	<circle class="st5" cx="387" cy="302" r="26.1"/>
	<ellipse class="st6" cx="213.6" cy="320.8" rx="91.6" ry="15"/>
</g>
<g id="Template_1_">
</g>
</svg>
