<?xml version="1.0" encoding="UTF-8"?>
<!DOCTYPE svg PUBLIC "-//W3C//DTD SVG 1.1//EN" "http://www.w3.org/Graphics/SVG/1.1/DTD/svg11.dtd">
<!-- Creator: CorelDRAW -->
<svg xmlns="http://www.w3.org/2000/svg" xml:space="preserve" width="6.82666in" height="6.82666in" style="shape-rendering:geometricPrecision; text-rendering:geometricPrecision; image-rendering:optimizeQuality; fill-rule:evenodd; clip-rule:evenodd"
viewBox="0 0 6.82666 6.82666"
 xmlns:xlink="http://www.w3.org/1999/xlink">
 <defs>
  <style type="text/css">
   <![CDATA[
    .fil1 {fill:none}
    .fil0 {fill:black;fill-rule:nonzero}
   ]]>
  </style>
 </defs>
 <g id="Layer_x0020_1">
  <metadata id="CorelCorpID_0Corel-Layer"/>
  <path class="fil0" d="M1.1371 3.36549l4.55246 0c0.0294528,0 0.0533346,0.0238819 0.0533346,0.0533346l0 0.794642c0,0.0622323 -0.0254213,0.118764 -0.0663701,0.159709 -0.0409449,0.0409488 -0.0974764,0.0663701 -0.159709,0.0663701l-4.20698 0c-0.0622205,0 -0.118756,-0.0254213 -0.159709,-0.0663661 -0.0409449,-0.0409528 -0.0663661,-0.0974882 -0.0663661,-0.159713l0 -0.794642c0,-0.0294528 0.0238819,-0.0533346 0.0533346,-0.0533346zm4.49913 0.106669l-4.44579 0 0 0.741307c0,0.0327835 0.0134488,0.0626299 0.0351142,0.0842953 0.0216654,0.0216654 0.0515118,0.0351142 0.0842913,0.0351142l4.20698 0c0.0327835,0 0.062626,-0.0134528 0.0842913,-0.0351181 0.0216654,-0.0216654 0.0351181,-0.0515079 0.0351181,-0.0842913l0 -0.741307z"/>
  <path class="fil0" d="M1.19044 3.36549l4.44579 0 0 -1.4867 -4.44579 0 0 1.4867zm4.49913 0.106669l-4.55246 0c-0.0294528,0 -0.0533346,-0.0238819 -0.0533346,-0.0533346l0 -1.59337c0,-0.0294528 0.0238819,-0.0533346 0.0533346,-0.0533346l4.55246 0c0.0294528,0 0.0533346,0.0238819 0.0533346,0.0533346l0 1.59337c0,0.0294528 -0.0238819,0.0533346 -0.0533346,0.0533346z"/>
  <path class="fil0" d="M4.71443 4.64531c0,-0.0294528 -0.0238819,-0.0533346 -0.0533346,-0.0533346 -0.0294528,0 -0.0533346,0.0238819 -0.0533346,0.0533346l0 0.355894c0,0.0294528 0.0238819,0.0533346 0.0533346,0.0533346 0.0294528,0 0.0533346,-0.0238819 0.0533346,-0.0533346l0 -0.355894z"/>
  <path class="fil0" d="M2.2189 4.64531c0,-0.0294528 -0.0238819,-0.0533346 -0.0533346,-0.0533346 -0.0294528,0 -0.0533346,0.0238819 -0.0533346,0.0533346l0 0.355894c0,0.0294528 0.0238819,0.0533346 0.0533346,0.0533346 0.0294528,0 0.0533346,-0.0238819 0.0533346,-0.0533346l0 -0.355894z"/>
  <path class="fil0" d="M1.65503 3.40424c0,0.0294528 0.0238819,0.0533346 0.0533346,0.0533346 0.0294528,0 0.0533346,-0.0238819 0.0533346,-0.0533346l0 -1.04734 1.26918 0 0 1.04734c0,0.0294528 0.0238819,0.0533346 0.0533346,0.0533346 0.0294528,0 0.0533346,-0.0238819 0.0533346,-0.0533346l0 -1.10067c0,-0.0294528 -0.0238819,-0.0533346 -0.0533346,-0.0533346l-1.37585 0c-0.0294528,0 -0.0533346,0.0238819 -0.0533346,0.0533346l0 1.10067z"/>
  <path class="fil0" d="M3.68911 3.40424c0,0.0294528 0.0238819,0.0533346 0.0533346,0.0533346 0.0294528,0 0.0533346,-0.0238819 0.0533346,-0.0533346l0 -1.04734 1.26918 0 0 1.04734c0,0.0294528 0.0238819,0.0533346 0.0533346,0.0533346 0.0294528,0 0.0533346,-0.0238819 0.0533346,-0.0533346l0 -1.10067c0,-0.0294528 -0.0238819,-0.0533346 -0.0533346,-0.0533346l-1.37585 0c-0.0294528,0 -0.0533346,0.0238819 -0.0533346,0.0533346l0 1.10067z"/>
  <path class="fil0" d="M4.15139 3.07491l0.581173 0c0.0546772,0 0.104346,0.0223307 0.140319,0.0583031 0.0359724,0.0359724 0.0583031,0.0856417 0.0583031,0.140319l0 7.87402e-006c0,0.0546732 -0.0223307,0.104346 -0.0583031,0.140319 -0.0359724,0.0359685 -0.0856417,0.0583031 -0.140319,0.0583031l-0.581173 0c-0.0546693,0 -0.104346,-0.0223346 -0.140319,-0.0583031 -0.0359685,-0.0359724 -0.0583031,-0.0856496 -0.0583031,-0.140319l0 -7.87402e-006c0,-0.0546772 0.0223346,-0.104346 0.0583031,-0.140319 0.0359724,-0.0359724 0.0856457,-0.0583031 0.140319,-0.0583031zm0.581173 0.106669l-0.581173 0c-0.0252283,0 -0.0482126,0.0103622 -0.0649016,0.0270512 -0.016685,0.016689 -0.0270512,0.0396693 -0.0270512,0.0649016l0 7.87402e-006c0,0.0252283 0.0103661,0.0482126 0.0270512,0.0649016 0.016689,0.016685 0.0396732,0.0270512 0.0649016,0.0270512l0.581173 0c0.0252323,0 0.0482126,-0.0103661 0.0649016,-0.0270512 0.016689,-0.016689 0.0270512,-0.0396732 0.0270512,-0.0649016l0 -7.87402e-006c0,-0.0252323 -0.0103622,-0.0482126 -0.0270512,-0.0649016 -0.016689,-0.016689 -0.0396693,-0.0270512 -0.0649016,-0.0270512z"/>
  <path class="fil0" d="M2.0941 3.07491l0.581173 0c0.0546732,0 0.104346,0.0223307 0.140319,0.0583031 0.0359685,0.0359724 0.0583031,0.0856417 0.0583031,0.140319l0 7.87402e-006c0,0.0546693 -0.0223346,0.104346 -0.0583031,0.140319 -0.0359724,0.0359685 -0.0856496,0.0583031 -0.140319,0.0583031l-0.581173 0c-0.0546772,0 -0.104346,-0.0223346 -0.140319,-0.0583031 -0.0359724,-0.0359724 -0.0583031,-0.0856457 -0.0583031,-0.140319l0 -7.87402e-006c0,-0.0546772 0.0223307,-0.104346 0.0583031,-0.140319 0.0359724,-0.0359724 0.0856417,-0.0583031 0.140319,-0.0583031zm0.581173 0.106669l-0.581173 0c-0.0252323,0 -0.0482126,0.0103622 -0.0649016,0.0270512 -0.016689,0.016689 -0.0270512,0.0396693 -0.0270512,0.0649016l0 7.87402e-006c0,0.0252283 0.0103622,0.0482126 0.0270512,0.0649016 0.016689,0.016685 0.0396693,0.0270512 0.0649016,0.0270512l0.581173 0c0.0252283,0 0.0482126,-0.0103661 0.0649016,-0.0270512 0.016685,-0.016689 0.0270512,-0.0396732 0.0270512,-0.0649016l0 -7.87402e-006c0,-0.0252323 -0.0103661,-0.0482126 -0.0270512,-0.0649016 -0.016689,-0.016689 -0.0396732,-0.0270512 -0.0649016,-0.0270512z"/>
  <path class="fil0" d="M1.1206 3.26994c0.0294528,0 0.0533346,-0.0238819 0.0533346,-0.0533346 0,-0.0294528 -0.0238819,-0.0533346 -0.0533346,-0.0533346l-0.213937 0c-0.0294528,0 -0.0533346,0.0238819 -0.0533346,0.0533346l0 1.26612c0,0.0585472 0.0224961,0.112051 0.0587244,0.151071 0.0371496,0.0400039 0.0886693,0.0648465 0.145579,0.0648465l4.7114 0c0.0569094,0 0.108429,-0.0248425 0.145579,-0.0648465 0.0362283,-0.0390197 0.0587244,-0.0925236 0.0587244,-0.151071l0 -1.26612c0,-0.0294528 -0.0238819,-0.0533346 -0.0533346,-0.0533346l-0.24215 0c-0.0294528,0 -0.016878,0.0238819 -0.016878,0.0533346 0,0.0294528 -0.0125748,0.0533346 0.016878,0.0533346l0.188815 0 0 1.21278c0,0.0308661 -0.0114803,0.0586654 -0.0299685,0.0785748 -0.0175709,0.0189213 -0.0415472,0.0306732 -0.0676654,0.0306732l-4.7114 0c-0.0261181,0 -0.0500945,-0.011752 -0.0676654,-0.0306732 -0.0184882,-0.0199094 -0.0299685,-0.0477087 -0.0299685,-0.0785748l0 -1.21278 0.160602 0z"/>
 </g>
 <rect class="fil1" width="6.82666" height="6.82666"/>
</svg>
