<?xml version="1.0" encoding="utf-8"?>
<!-- Generator: Adobe Illustrator 25.0.0, SVG Export Plug-In . SVG Version: 6.00 Build 0)  -->
<svg version="1.1" xmlns="http://www.w3.org/2000/svg" xmlns:xlink="http://www.w3.org/1999/xlink" x="0px" y="0px"
	 viewBox="0 0 503.6 503.6" style="enable-background:new 0 0 503.6 503.6;" xml:space="preserve">
<style type="text/css">
	.st0{fill:none;stroke:#000000;stroke-width:7.871;stroke-linecap:round;stroke-linejoin:round;stroke-miterlimit:10;}
	.st1{fill:none;stroke:#000000;stroke-width:7.871;stroke-miterlimit:10;}
	.st2{fill:none;stroke:#000000;stroke-width:8.906;stroke-miterlimit:10;}
	.st3{fill:none;stroke:#000000;stroke-width:5.6221;stroke-miterlimit:10;}
	.st4{display:none;}
	.st5{display:inline;opacity:0.17;}
</style>
<g id="New_icon">
	<path class="st0" d="M198.6,470.5"/>
	<path class="st0" d="M346.1,470.5"/>
	<rect x="68.9" y="82" class="st1" width="365.9" height="363.6"/>
	<line class="st1" x1="68.9" y1="139.9" x2="434.7" y2="139.9"/>
	<path class="st1" d="M123.3,119.6h-14c-2.9,0-5.3-2.4-5.3-5.3v-5.2c0-2.9,2.4-5.3,5.3-5.3h14c2.9,0,5.3,2.4,5.3,5.3v5.2
		C128.6,117.2,126.2,119.6,123.3,119.6z"/>
	<path class="st1" d="M170.7,119h-14c-2.9,0-5.3-2.4-5.3-5.3v-5.2c0-2.9,2.4-5.3,5.3-5.3h14c2.9,0,5.3,2.4,5.3,5.3v5.2
		C176,116.6,173.6,119,170.7,119z"/>
	<path class="st1" d="M218.1,119h-14c-2.9,0-5.3-2.4-5.3-5.3v-5.2c0-2.9,2.4-5.3,5.3-5.3h14c2.9,0,5.3,2.4,5.3,5.3v5.2
		C223.4,116.6,221,119,218.1,119z"/>
	<path class="st1" d="M412.5,118.4h-90c-2.5,0-4.5-2-4.5-4.5v-5.6c0-2.5,2-4.5,4.5-4.5h90c2.5,0,4.5,2,4.5,4.5v5.6
		C417,116.4,415,118.4,412.5,118.4z"/>
	<path class="st1" d="M388.8,408.7h-274c-6.6,0-12-5.4-12-12V201.5c0-6.6,5.4-12,12-12h274c6.6,0,12,5.4,12,12v195.2
		C400.8,403.3,395.4,408.7,388.8,408.7z"/>
	<g>
		<path class="st2" d="M400.8,307.7c-9.2-15.3-25.1-24.6-42.5-24.6c-6.6,0-13,1.4-18.8,4c19.9,8.7,34,30.9,34,56.8
			c0,26-14.1,48.1-34,56.8c5.8,2.6,12.2,4,18.8,4c18.7,0,33.1-11.3,42.4-28.2"/>
		<path class="st2" d="M339.6,287c-5.8-2.6-12.2-4-18.8-4c-6.8,0-13.2,1.5-19.2,4.1c7.2,3.2,13.6,8.2,18.8,14.4"/>
		<path class="st2" d="M320.4,386.1c-5.2,6.3-11.6,11.2-18.8,14.4c5.9,2.7,12.4,4.1,19.2,4.1c6.6,0,13-1.4,18.8-4"/>
		<path class="st2" d="M268,343.9"/>
		<path class="st2" d="M301.6,287.2c-5.9-2.7-12.4-4.1-19.2-4.1c-29.2,0-52.8,27.2-52.8,60.8c0,33.6,23.6,60.8,52.8,60.8
			c6.8,0,13.2-1.5,19.2-4.1"/>
		<path class="st2" d="M320.4,386.1c9.2-10.9,14.8-25.8,14.8-42.3c0-16.4-5.7-31.3-14.8-42.3"/>
	</g>
	<ellipse class="st1" cx="282.1" cy="343.9" rx="30.8" ry="35.5"/>
	<path class="st2" d="M321.1,357.8"/>
	<path class="st3" d="M331.3,319.4c9.9,6.1,14.6,14.4,14.6,27.4c0,13-8.6,23.5-18.9,29.7"/>
	<path class="st3" d="M369.5,317.4c8.5,2.9,15.4,16.3,15.4,27.4c0,13-10.1,23.5-19.2,29.7"/>
	<line class="st1" x1="169.8" y1="379.6" x2="169.8" y2="407.3"/>
	<path class="st1" d="M185.2,326v35.2c0,10.1-5.7,18.3-12.6,18.3h-6.6c-6.9,0-12.6-8.3-12.6-18.3v-37.8"/>
	<line class="st1" x1="149.6" y1="327.5" x2="189.3" y2="327.5"/>
</g>
<g id="Template_1_" class="st4">
	<g transform="translate(1 1)" class="st5">
		<g>
			<g>
				<path d="M254.1,188.1c-42.9,0-79.2,36.3-79.2,79.2s36.3,79.2,79.2,79.2s79.2-36.3,79.2-79.2S297,188.1,254.1,188.1z
					 M254.1,333.3c-35.6,0-66-30.4-66-66s30.4-66,66-66s66,30.4,66,66S289.7,333.3,254.1,333.3z"/>
				<path d="M432.3,244.5V95.7c0-2.6-1.3-4.6-4-5.9c-2.6-1.3-5.3-0.7-7.3,1.3c-18.5,18.5-28.4,42.9-28.4,68.6v39.6
					c0,15.2,3.3,30.4,9.9,43.6l1.5,2.7c-6.9,4.8-11.4,12.7-11.4,21.7v118.8c0,14.5,11.9,26.4,26.4,26.4s26.4-11.9,26.4-26.4V267.3
					C445.5,257.6,440.2,249.1,432.3,244.5z M416.5,240.9l-2-4c-5.3-11.9-8.6-24.4-8.6-37.6v-40.3c0-15.8,4.6-31.7,13.2-44.9v126.7
					L416.5,240.9L416.5,240.9z M432.3,386.1c0,7.3-5.9,13.2-13.2,13.2s-13.2-5.9-13.2-13.2V267.3c0-7.3,5.9-13.2,13.2-13.2
					s13.2,5.9,13.2,13.2V386.1z"/>
				<path d="M115.5,95.7c-4,0-6.6,2.6-6.6,6.6v72.6c0,8.9-5.4,16.1-13.2,18.7v-91.3c0-4-2.6-6.6-6.6-6.6c-4,0-6.6,2.6-6.6,6.6v91.3
					c-7.8-2.6-13.2-9.9-13.2-18.7v-72.6c0-4-2.6-6.6-6.6-6.6s-6.6,2.6-6.6,6.6v72.6c0,16.2,11.2,29.4,26.4,32.4v34.5
					c-11.4,3-19.8,13.3-19.8,25.6v118.8c0,14.5,11.9,26.4,26.4,26.4s26.4-11.9,26.4-26.4V267.3c0-12.2-8.4-22.6-19.8-25.6v-34.5
					c15.2-3,26.4-16.1,26.4-32.4v-72.6C122.1,98.3,119.4,95.7,115.5,95.7z M102.3,267.3v118.8c0,7.3-5.9,13.2-13.2,13.2
					s-13.2-5.9-13.2-13.2V267.3c0-7.3,5.9-13.2,13.2-13.2C96.3,254.1,102.3,260.1,102.3,267.3z"/>
				<path d="M82.5,293.7c0,4,2.6,6.6,6.6,6.6s6.6-2.6,6.6-6.6s-2.6-6.6-6.6-6.6S82.5,289.8,82.5,293.7z"/>
				<path d="M419.1,287.1c-4,0-6.6,2.6-6.6,6.6s2.6,6.6,6.6,6.6s6.6-2.6,6.6-6.6S423.1,287.1,419.1,287.1z"/>
				<path d="M254.1,141.9c-69.3,0-125.4,56.1-125.4,125.4s56.1,125.4,125.4,125.4s125.4-56.1,125.4-125.4S323.4,141.9,254.1,141.9z
					 M254.1,379.5c-62,0-112.2-50.2-112.2-112.2s50.2-112.2,112.2-112.2s112.2,50.2,112.2,112.2S316.1,379.5,254.1,379.5z"/>
			</g>
		</g>
	</g>
</g>
</svg>
