<svg xmlns="http://www.w3.org/2000/svg" viewBox="0 0 491.5 491.5"><defs><style>.cls-1,.cls-2,.cls-3,.cls-4,.cls-5{fill:none;stroke:#000;stroke-linecap:round;stroke-linejoin:round;}.cls-1{stroke-width:6.48px;}.cls-2{stroke-width:8.63px;}.cls-3{stroke-width:6.58px;}.cls-4{stroke-width:7.45px;}.cls-5{stroke-width:7px;}</style></defs><g id="Ebene_2" data-name="Ebene 2"><path class="cls-1" d="M406,385H70.61c-8.8,0-16-4.64-16-10.32V229.62c0-5.67,7.2-10.31,16-10.31h335.3c8.8,0,16,4.64,16,10.31v145C422,380.39,414.81,385,406,385Z"/><line class="cls-2" x1="108.21" y1="388.73" x2="108.21" y2="411.03"/><line class="cls-2" x1="373.51" y1="388.73" x2="373.51" y2="411.03"/><circle class="cls-2" cx="373.51" cy="326.73" r="26.1"/><rect class="cls-3" x="421.91" y="234.18" width="36.21" height="19.1"/><path class="cls-4" d="M221.26,216.82H84l5.83-40c-14.43-23.66,2.89-29.5,13.64-29.5H205.16c10.75,0,19.47,9,7.9,25.62Z"/><path class="cls-4" d="M387.1,216.82H249.87l5.83-40c-14.43-23.66,2.88-29.5,13.63-29.5H371c10.75,0,19.46,9,7.9,25.62Z"/><line class="cls-4" x1="99.26" y1="202.9" x2="114.01" y2="190.45"/><line class="cls-4" x1="121.91" y1="183.79" x2="150.09" y2="160.01"/><line class="cls-4" x1="99.91" y1="183.79" x2="128.09" y2="160.01"/><line class="cls-4" x1="268.48" y1="203.5" x2="283.23" y2="191.05"/><line class="cls-4" x1="291.12" y1="184.39" x2="319.31" y2="160.61"/><line class="cls-4" x1="269.13" y1="184.39" x2="297.31" y2="160.61"/><line class="cls-5" x1="92.78" y1="367.88" x2="92.86" y2="340.86"/><line class="cls-5" x1="92.9" y1="326.39" x2="93.05" y2="274.77"/><line class="cls-5" x1="70.62" y1="349.87" x2="70.77" y2="298.24"/></g></svg>