<svg xmlns="http://www.w3.org/2000/svg" viewBox="0 0 491.5 491.5"><defs><style>.cls-1,.cls-2,.cls-3{fill:none;stroke:#000;stroke-linecap:round;stroke-linejoin:round;}.cls-1{stroke-width:7px;}.cls-2{stroke-width:8.67px;}.cls-3{stroke-width:3.5px;}</style></defs><g id="Ebene_2" data-name="Ebene 2"><path class="cls-1" d="M73.18,241.87H51.51a12,12,0,0,0-12,12v58.44a12,12,0,0,0,12,12H433.4a12,12,0,0,0,12-12V253.87a12,12,0,0,0-12-12H215.12"/><path class="cls-2" d="M249.77,194A85.62,85.62,0,1,0,93.18,241.87H235.12A85.22,85.22,0,0,0,249.77,194Z"/><path class="cls-1" d="M215.12,241.87H73.18"/><circle class="cls-2" cx="163.36" cy="194.74" r="25.14"/><circle class="cls-3" cx="413.38" cy="298.78" r="6.19"/><circle class="cls-3" cx="395.83" cy="298.78" r="6.19"/><circle class="cls-3" cx="378.69" cy="298.78" r="6.19"/><circle class="cls-3" cx="361.14" cy="298.78" r="6.19"/><line class="cls-1" x1="82.38" y1="283.09" x2="245.92" y2="283.09"/></g></svg>