<svg xmlns="http://www.w3.org/2000/svg" viewBox="0 0 491.5 491.5"><defs><style>.cls-1{fill:none;stroke:#000;stroke-linecap:round;stroke-linejoin:round;stroke-width:10.13px;}</style></defs><g id="Ebene_2" data-name="Ebene 2"><path class="cls-1" d="M435.22,400.56H51.94a14.06,14.06,0,0,1-14-14V156a14.06,14.06,0,0,1,14-14H435.22a14.06,14.06,0,0,1,14,14V386.54A14.06,14.06,0,0,1,435.22,400.56Z"/><polyline class="cls-1" points="74.09 438.07 100.89 400.56 384.93 400.56 409.04 438.07"/><line class="cls-1" x1="80.79" y1="38.81" x2="413.06" y2="141.97"/><rect class="cls-1" x="74.09" y="246.48" width="219.73" height="117.9"/><circle class="cls-1" cx="379.57" cy="312.76" r="29.48"/><rect class="cls-1" x="65.88" y="180.83" width="353.71" height="25.46"/><line class="cls-1" x1="139.41" y1="200.93" x2="139.41" y2="163.41"/><line class="cls-1" x1="74.09" y1="286.31" x2="293.82" y2="286.31"/><line class="cls-1" x1="74.09" y1="267.84" x2="293.82" y2="267.84"/><line class="cls-1" x1="74.09" y1="304.78" x2="293.82" y2="304.78"/><line class="cls-1" x1="74.09" y1="323.24" x2="293.82" y2="323.24"/><line class="cls-1" x1="74.09" y1="341.71" x2="293.82" y2="341.71"/></g></svg>