<?xml version="1.0" encoding="utf-8"?>
<!-- Generator: Adobe Illustrator 25.0.0, SVG Export Plug-In . SVG Version: 6.00 Build 0)  -->
<svg version="1.1" id="Ebene_1" xmlns="http://www.w3.org/2000/svg" xmlns:xlink="http://www.w3.org/1999/xlink" x="0px" y="0px"
	 viewBox="0 0 503.6 503.6" style="enable-background:new 0 0 503.6 503.6;" xml:space="preserve">
<style type="text/css">
	.st0{fill:none;stroke:#000000;stroke-width:7;stroke-linecap:round;stroke-linejoin:round;stroke-miterlimit:10;}
	.st1{fill:none;stroke:#000000;stroke-width:7;stroke-miterlimit:10;}
	.st2{display:none;}
	.st3{display:inline;opacity:0.17;}
</style>
<g id="New_icon">
	<path class="st0" d="M198.6,470.5"/>
	<path class="st0" d="M346.1,470.5"/>
	<rect x="68.9" y="82" class="st1" width="365.9" height="363.6"/>
	<line class="st1" x1="68.9" y1="139.9" x2="434.7" y2="139.9"/>
	<path class="st1" d="M123.3,119.6h-14c-2.9,0-5.3-2.4-5.3-5.3v-5.2c0-2.9,2.4-5.3,5.3-5.3h14c2.9,0,5.3,2.4,5.3,5.3v5.2
		C128.6,117.2,126.2,119.6,123.3,119.6z"/>
	<path class="st1" d="M170.7,119h-14c-2.9,0-5.3-2.4-5.3-5.3v-5.2c0-2.9,2.4-5.3,5.3-5.3h14c2.9,0,5.3,2.4,5.3,5.3v5.2
		C176,116.6,173.6,119,170.7,119z"/>
	<path class="st1" d="M218.1,119h-14c-2.9,0-5.3-2.4-5.3-5.3v-5.2c0-2.9,2.4-5.3,5.3-5.3h14c2.9,0,5.3,2.4,5.3,5.3v5.2
		C223.4,116.6,221,119,218.1,119z"/>
	<path class="st1" d="M412.5,118.4h-90c-2.5,0-4.5-2-4.5-4.5v-5.6c0-2.5,2-4.5,4.5-4.5h90c2.5,0,4.5,2,4.5,4.5v5.6
		C417,116.4,415,118.4,412.5,118.4z"/>
	<circle class="st1" cx="251.8" cy="298.5" r="102.6"/>
	<path class="st1" d="M177.4,298.5c0-41.1,33.3-74.4,74.4-74.4s74.4,33.3,74.4,74.4s-33.3,74.4-74.4,74.4
		c-41.4,0-69.2-35.9-73.8-64.4C177.4,304,177.4,300.5,177.4,298.5z"/>
	<path class="st1" d="M177.8,316.8c9.3-19.4,34.1-24.9,49.3-8.8c3.3,3.5,4.2,5.1,7.5,7.8c6.3,5.2,22.7,16.5,41-5.4
		c6.1-7.3,32.6-22.4,47.1,7.3"/>
</g>
<g id="Template_1_" class="st2">
	<g transform="translate(1 1)" class="st3">
		<g>
			<g>
				<path d="M254.1,188.1c-42.9,0-79.2,36.3-79.2,79.2s36.3,79.2,79.2,79.2s79.2-36.3,79.2-79.2S297,188.1,254.1,188.1z
					 M254.1,333.3c-35.6,0-66-30.4-66-66s30.4-66,66-66s66,30.4,66,66S289.7,333.3,254.1,333.3z"/>
				<path d="M432.3,244.5V95.7c0-2.6-1.3-4.6-4-5.9c-2.6-1.3-5.3-0.7-7.3,1.3c-18.5,18.5-28.4,42.9-28.4,68.6v39.6
					c0,15.2,3.3,30.4,9.9,43.6l1.5,2.7c-6.9,4.8-11.4,12.7-11.4,21.7v118.8c0,14.5,11.9,26.4,26.4,26.4s26.4-11.9,26.4-26.4V267.3
					C445.5,257.6,440.2,249.1,432.3,244.5z M416.5,240.9l-2-4c-5.3-11.9-8.6-24.4-8.6-37.6V159c0-15.8,4.6-31.7,13.2-44.9v126.7
					L416.5,240.9L416.5,240.9z M432.3,386.1c0,7.3-5.9,13.2-13.2,13.2s-13.2-5.9-13.2-13.2V267.3c0-7.3,5.9-13.2,13.2-13.2
					s13.2,5.9,13.2,13.2V386.1z"/>
				<path d="M115.5,95.7c-4,0-6.6,2.6-6.6,6.6v72.6c0,8.9-5.4,16.1-13.2,18.7v-91.3c0-4-2.6-6.6-6.6-6.6s-6.6,2.6-6.6,6.6v91.3
					c-7.8-2.6-13.2-9.9-13.2-18.7v-72.6c0-4-2.6-6.6-6.6-6.6s-6.6,2.6-6.6,6.6v72.6c0,16.2,11.2,29.4,26.4,32.4v34.5
					c-11.4,3-19.8,13.3-19.8,25.6v118.8c0,14.5,11.9,26.4,26.4,26.4s26.4-11.9,26.4-26.4V267.3c0-12.2-8.4-22.6-19.8-25.6v-34.5
					c15.2-3,26.4-16.1,26.4-32.4v-72.6C122.1,98.3,119.4,95.7,115.5,95.7z M102.3,267.3v118.8c0,7.3-5.9,13.2-13.2,13.2
					s-13.2-5.9-13.2-13.2V267.3c0-7.3,5.9-13.2,13.2-13.2C96.3,254.1,102.3,260.1,102.3,267.3z"/>
				<path d="M82.5,293.7c0,4,2.6,6.6,6.6,6.6s6.6-2.6,6.6-6.6s-2.6-6.6-6.6-6.6S82.5,289.8,82.5,293.7z"/>
				<path d="M419.1,287.1c-4,0-6.6,2.6-6.6,6.6s2.6,6.6,6.6,6.6s6.6-2.6,6.6-6.6S423.1,287.1,419.1,287.1z"/>
				<path d="M254.1,141.9c-69.3,0-125.4,56.1-125.4,125.4s56.1,125.4,125.4,125.4s125.4-56.1,125.4-125.4S323.4,141.9,254.1,141.9z
					 M254.1,379.5c-62,0-112.2-50.2-112.2-112.2s50.2-112.2,112.2-112.2s112.2,50.2,112.2,112.2S316.1,379.5,254.1,379.5z"/>
			</g>
		</g>
	</g>
</g>
</svg>
