<svg xmlns="http://www.w3.org/2000/svg" viewBox="0 0 491.5 491.5"><defs><style>.cls-1,.cls-2{fill:none;stroke:#000;stroke-linecap:round;stroke-linejoin:round;}.cls-1{stroke-width:8.67px;}.cls-2{stroke-width:7.51px;}</style></defs><g id="Ebene_2" data-name="Ebene 2"><path class="cls-1" d="M104.28,190.8a85.62,85.62,0,1,0,47.9,156.58V205.45A85.19,85.19,0,0,0,104.28,190.8Z"/><circle class="cls-1" cx="105.06" cy="277.2" r="25.14"/><path class="cls-2" d="M447.76,366H163.51a10.42,10.42,0,0,1-10.39-10.4v-171a10.42,10.42,0,0,1,10.39-10.4H447.76a10.42,10.42,0,0,1,10.39,10.4v171A10.42,10.42,0,0,1,447.76,366Z"/><polyline class="cls-2" points="179.94 393.8 199.81 365.98 410.46 365.98 428.35 393.8"/><line class="cls-2" x1="184.91" y1="97.7" x2="431.33" y2="174.21"/><rect class="cls-2" x="179.94" y="251.71" width="162.95" height="87.44"/><circle class="cls-2" cx="406.49" cy="300.86" r="21.86"/><rect class="cls-2" x="173.85" y="203.02" width="262.31" height="18.88"/><line class="cls-2" x1="228.38" y1="217.93" x2="228.38" y2="190.11"/><line class="cls-2" x1="179.94" y1="281.25" x2="342.89" y2="281.25"/><line class="cls-2" x1="179.94" y1="267.55" x2="342.89" y2="267.55"/><line class="cls-2" x1="179.94" y1="294.94" x2="342.89" y2="294.94"/><line class="cls-2" x1="179.94" y1="308.64" x2="342.89" y2="308.64"/><line class="cls-2" x1="179.94" y1="322.34" x2="342.89" y2="322.34"/></g></svg>