<?xml version="1.0" encoding="utf-8"?>
<!-- Generator: Adobe Illustrator 25.0.0, SVG Export Plug-In . SVG Version: 6.00 Build 0)  -->
<svg version="1.1" id="Ebene_1" xmlns="http://www.w3.org/2000/svg" xmlns:xlink="http://www.w3.org/1999/xlink" x="0px" y="0px"
	 viewBox="0 0 491.5 491.5" style="enable-background:new 0 0 491.5 491.5;" xml:space="preserve">
<style type="text/css">
	.st0{fill:none;}
	.st1{fill:#FFFFFF;stroke:#000000;stroke-width:6.1022;stroke-miterlimit:10;}
</style>
<g id="Layer_x0020_1">
	<path d="M237.6,143.6c35.7,0,68.1,2.5,91.6,6.5c25.3,4.3,40.9,11.1,40.9,19.3c0,8.2-15.6,15-40.9,19.3c-23.5,4-55.9,6.5-91.6,6.5
		c-35.7,0-68.1-2.5-91.6-6.5c-25.3-4.3-40.9-11.1-40.9-19.3c0-8.2,15.6-15,40.9-19.3C169.5,146.1,201.9,143.6,237.6,143.6z
		 M327.8,157.6c-23-3.9-54.9-6.4-90.2-6.4s-67.2,2.4-90.2,6.4c-21.2,3.6-34.4,7.8-34.4,11.7c0,3.9,13.1,8.1,34.4,11.7
		c23,3.9,54.9,6.4,90.2,6.4c35.3,0,67.2-2.4,90.2-6.4c21.2-3.6,34.4-7.8,34.4-11.7C362.2,165.5,349,161.3,327.8,157.6z"/>
	<path d="M370.1,169.9c-0.2-2.1-2.2-3.6-4.4-3.4c-2.2,0.2-3.8,2.1-3.5,4.2c0,0.4,14.9,129.5-43.8,172l2.4,3.1l-2.4-3.1
		c-1,0.8-1.6,1.9-1.6,3.1v0v21.5c0,7.9-20.6,13.5-46.7,16.2c-10.7,1.1-22.2,1.7-33.7,1.7c-11.5,0-22.9-0.5-33.5-1.7
		c-25.1-2.7-44.5-8.1-44.5-16.3v-21.5c0-1.3-0.7-2.5-1.8-3.2c-58.4-42.7-43.6-171.5-43.6-171.8c0.2-2.1-1.3-4-3.5-4.2
		c-2.2-0.2-4.1,1.3-4.4,3.4c0,0.4-15.1,131.4,45.3,177.7v19.6c0,13,22.5,20.8,51.6,23.9c10.8,1.1,22.5,1.7,34.4,1.7
		c11.8,0,23.6-0.6,34.5-1.8c30.1-3.2,53.8-11.1,53.8-23.9v-19.6C385.2,301.3,370.1,170.3,370.1,169.9L370.1,169.9z"/>
	<path d="M367.9,192.6c-2.2,0-4,1.7-4,3.8c0,2.1,1.8,3.8,4,3.8c14.1,0,29.1,0.4,39.3,5.9c9.6,5.2,15.4,15.6,12.4,35.9
		c-2.1,14.4-10.7,28.2-23.1,38.4c-11.9,9.8-27.2,16-43.4,16c-2.2,0-4,1.7-4,3.8s1.8,3.8,4,3.8c18.1,0,35.3-7,48.5-17.9
		c13.8-11.3,23.5-26.9,25.8-43.2c3.5-24.2-4-36.9-16.4-43.6C399.1,193,383,192.6,367.9,192.6L367.9,192.6z"/>
	<path d="M151.9,364.4c2.2-0.2,3.8-2.1,3.6-4.2c-0.2-2.1-2.2-3.6-4.3-3.4c-27,2.6-49.5,6.4-65.1,10.9c-16.7,4.8-26.3,11.1-26.3,18.3
		c0,10.2,20.7,18.8,54.3,24.5c31.7,5.3,75.4,8.6,123.7,8.6c48.2,0,92-3.3,123.7-8.6c33.5-5.6,54.3-14.2,54.3-24.5
		c0-7.4-9.8-13.7-26.9-18.5c-16.1-4.6-39.1-8.3-66.7-10.9c-2.2-0.2-4.1,1.3-4.3,3.5c-0.2,2.1,1.4,4,3.6,4.2
		c27,2.5,49.6,6.2,65.2,10.6c13.5,3.8,21.2,7.7,21.2,11.2c0,5.9-18.2,12-47.6,16.9c-31.3,5.3-74.5,8.5-122.3,8.5
		c-47.8,0-91.1-3.3-122.3-8.5c-29.4-4.9-47.6-11-47.6-16.9c0-3.4,7.5-7.2,20.6-11C103.4,370.6,125.4,366.9,151.9,364.4L151.9,364.4z
		"/>
	<path d="M206.7,72.8c0-2.1-1.8-3.8-4-3.8c-2.2,0-4,1.7-4,3.8c0,2-1.7,4.6-3.4,7.2c-2.3,3.6-4.7,7.1-4.7,11.3
		c0,4.2,2.3,7.7,4.7,11.3c1.7,2.6,3.4,5.2,3.4,7.2c0,2-1.7,4.6-3.4,7.2c-2.3,3.6-4.7,7.1-4.7,11.3c0,2.1,1.8,3.8,4,3.8
		c2.2,0,4-1.7,4-3.8c0-2,1.7-4.6,3.4-7.2c2.3-3.6,4.7-7.1,4.7-11.3c0-4.2-2.3-7.7-4.7-11.3c-1.7-2.6-3.4-5.2-3.4-7.2
		c0-2,1.7-4.6,3.4-7.2C204.3,80.5,206.7,77,206.7,72.8z"/>
	<path d="M249.5,65.3c0-2.1-1.8-3.8-4-3.8c-2.2,0-4,1.7-4,3.8c0,2-1.7,4.6-3.4,7.2c-2.3,3.6-4.7,7.1-4.7,11.3
		c0,4.2,2.3,7.7,4.7,11.3c1.7,2.6,3.4,5.2,3.4,7.2c0,2-1.7,4.6-3.4,7.2c-2.3,3.6-4.7,7.1-4.7,11.3c0,2.1,1.8,3.8,4,3.8
		c2.2,0,4-1.7,4-3.8c0-2,1.7-4.6,3.4-7.2c2.3-3.6,4.7-7.1,4.7-11.3c0-4.2-2.3-7.7-4.7-11.3c-1.7-2.6-3.4-5.2-3.4-7.2
		c0-2,1.7-4.6,3.4-7.2C247.1,73,249.5,69.5,249.5,65.3z"/>
	<path d="M284.5,72.8c0-2.1-1.8-3.8-4-3.8s-4,1.7-4,3.8c0,2-1.7,4.6-3.4,7.2c-2.3,3.6-4.7,7.1-4.7,11.3c0,4.2,2.3,7.7,4.7,11.3
		c1.7,2.6,3.4,5.2,3.4,7.2c0,2-1.7,4.6-3.4,7.2c-2.3,3.6-4.7,7.1-4.7,11.3c0,2.1,1.8,3.8,4,3.8s4-1.7,4-3.8c0-2,1.7-4.6,3.4-7.2
		c2.3-3.6,4.7-7.1,4.7-11.3c0-4.2-2.3-7.7-4.7-11.3c-1.7-2.6-3.4-5.2-3.4-7.2c0-2,1.7-4.6,3.4-7.2C282.2,80.5,284.5,77,284.5,72.8z"
		/>
</g>
<rect class="st0" width="491.5" height="491.5"/>
<polyline class="st1" points="272.2,189.9 273.6,224.3 294.7,229.9 294.7,279.7 270.6,274 249.5,279.7 249.5,252.8 249.5,229.9 
	273.6,224.3 "/>
</svg>
