<?xml version="1.0" encoding="UTF-8"?>
<!DOCTYPE svg PUBLIC "-//W3C//DTD SVG 1.1//EN" "http://www.w3.org/Graphics/SVG/1.1/DTD/svg11.dtd">
<!-- Creator: CorelDRAW -->
<svg xmlns="http://www.w3.org/2000/svg" xml:space="preserve" width="6.82666in" height="6.82666in" style="shape-rendering:geometricPrecision; text-rendering:geometricPrecision; image-rendering:optimizeQuality; fill-rule:evenodd; clip-rule:evenodd"
viewBox="0 0 6.82666 6.82666"
 xmlns:xlink="http://www.w3.org/1999/xlink">
 <defs>
  <style type="text/css">
   <![CDATA[
    .fil1 {fill:none}
    .fil0 {fill:black;fill-rule:nonzero}
   ]]>
  </style>
 </defs>
 <g id="Layer_x0020_1">
  <metadata id="CorelCorpID_0Corel-Layer"/>
  <g id="_404634728">
   <path id="_404623256" class="fil0" d="M0.906673 1.36486l5.01332 0 0.0533346 0 0 0.0533346 0 0.613874 0 0.0533346 -0.0533346 0 -5.01332 0 -0.0533346 0 0 -0.0533346 0 -0.613874 0 -0.0533346 0.0533346 0zm4.95998 0.106669l-4.90665 0 0 0.507205 4.90665 0 0 -0.507205z"/>
   <path id="_404630840" class="fil0" d="M3.36217 3.20729l0.102323 0c0.253878,0 0.484642,0.103823 0.651906,0.271087 0.167264,0.167264 0.271087,0.398028 0.271087,0.651902l0 0.869661 0 0.0533307 -0.0533346 3.93701e-006 -1.84163 0 -0.0533346 -3.93701e-006 0 -0.0533307 0 -0.869661c0,-0.253874 0.103823,-0.484638 0.271087,-0.651902 0.16726,-0.167264 0.398024,-0.271087 0.651902,-0.271087zm0.102323 0.106669l-0.102323 0c-0.224433,0 -0.428508,0.0918543 -0.576484,0.239835 -0.14798,0.14798 -0.239835,0.352055 -0.239835,0.576484l0 0.816327 1.73496 0 0 -0.816327c0,-0.224429 -0.0918543,-0.428504 -0.239835,-0.576484 -0.14798,-0.14798 -0.352055,-0.239835 -0.576488,-0.239835z"/>
   <path id="_404631824" class="fil0" d="M0.906673 4.94581l5.01332 0 0.0533346 0 0 0.0533346 0 0.409327 0 0.0533346 -0.0533346 0 -5.01332 0 -0.0533346 0 0 -0.0533346 0 -0.409327 0 -0.0533346 0.0533346 0zm4.95998 0.106669l-4.90665 0 0 0.302657 4.90665 0 0 -0.302657z"/>
   <polygon id="_404630144" class="fil0" points="5.97333,2.03207 5.97333,4.99914 5.86666,4.99914 5.86666,2.03207 "/>
   <polygon id="_404628464" class="fil0" points="0.960008,2.03207 0.960008,4.99914 0.853339,4.99914 0.853339,2.03207 "/>
   <path id="_404630768" class="fil0" d="M3.08213 2.59479l-0.141618 -0.141622 -0.141622 0.141622 0.141622 0.141618 0.141618 -0.141618zm-0.103909 -0.254748l0.217035 0.217039 0.0377087 0.0377126 -0.0377087 0.0377047 -0.217035 0.217035 -0.0377047 0.0377087 -0.0377126 -0.0377087 -0.217039 -0.217035 -0.0377087 -0.0377047 0.0377087 -0.0377126 0.217039 -0.217039 0.0377126 -0.0377087 0.0377047 0.0377087z"/>
   <path id="_404627048" class="fil0" d="M3.55495 2.59479l-0.141622 -0.141622 -0.141622 0.141622 0.141622 0.141618 0.141622 -0.141618zm-0.103913 -0.254748l0.217039 0.217039 0.0377087 0.0377126 -0.0377087 0.0377047 -0.217039 0.217035 -0.0377087 0.0377087 -0.0377087 -0.0377087 -0.217039 -0.217035 -0.0377087 -0.0377047 0.0377087 -0.0377126 0.217039 -0.217039 0.0377087 -0.0377087 0.0377087 0.0377087z"/>
   <path id="_404625776" class="fil0" d="M4.02777 2.59479l-0.141622 -0.141622 -0.141618 0.141622 0.141618 0.141618 0.141622 -0.141618zm-0.103913 -0.254748l0.217039 0.217039 0.0377087 0.0377126 -0.0377087 0.0377047 -0.217039 0.217035 -0.0377126 0.0377087 -0.0377047 -0.0377087 -0.217035 -0.217035 -0.0377087 -0.0377047 0.0377087 -0.0377126 0.217035 -0.217039 0.0377047 -0.0377087 0.0377126 0.0377087z"/>
   <path id="_404632160" class="fil0" d="M5.10845 3.53009l0.141622 -0.141618 -0.141622 -0.141622 -0.141618 0.141622 0.141618 0.141618zm0.254748 -0.103909l-0.217039 0.217035 -0.0377126 0.0377047 -0.0377047 -0.0377047 -0.217035 -0.217035 -0.0377087 -0.0377047 0.0377087 -0.0377126 0.217035 -0.217039 0.0377047 -0.0377087 0.0377126 0.0377087 0.217039 0.217039 0.0377087 0.0377126 -0.0377087 0.0377047z"/>
   <path id="_404629880" class="fil0" d="M5.10845 4.00291l0.141622 -0.141622 -0.141622 -0.141622 -0.141618 0.141622 0.141618 0.141622zm0.254748 -0.103913l-0.217039 0.217039 -0.0377126 0.0377087 -0.0377047 -0.0377087 -0.217035 -0.217039 -0.0377087 -0.0377087 0.0377087 -0.0377087 0.217035 -0.217039 0.0377047 -0.0377126 0.0377126 0.0377126 0.217039 0.217039 0.0377087 0.0377087 -0.0377087 0.0377087z"/>
   <path id="_404622176" class="fil0" d="M5.10845 4.47573l0.141622 -0.141622 -0.141622 -0.141622 -0.141618 0.141622 0.141618 0.141622zm0.254748 -0.103913l-0.217039 0.217039 -0.0377126 0.0377087 -0.0377047 -0.0377087 -0.217035 -0.217039 -0.0377087 -0.0377087 0.0377087 -0.0377087 0.217035 -0.217039 0.0377047 -0.0377126 0.0377126 0.0377126 0.217039 0.217039 0.0377087 0.0377087 -0.0377087 0.0377087z"/>
   <path id="_404621072" class="fil0" d="M1.71822 3.53009l0.141618 -0.141618 -0.141618 -0.141622 -0.141622 0.141622 0.141622 0.141618zm0.254744 -0.103909l-0.217035 0.217035 -0.0377047 0.0377047 -0.0377126 -0.0377047 -0.217039 -0.217035 -0.0377087 -0.0377047 0.0377087 -0.0377126 0.217039 -0.217039 0.0377126 -0.0377087 0.0377047 0.0377087 0.217035 0.217039 0.0377087 0.0377126 -0.0377087 0.0377047z"/>
   <path id="_404619224" class="fil0" d="M1.71822 4.00291l0.141618 -0.141622 -0.141618 -0.141622 -0.141622 0.141622 0.141622 0.141622zm0.254744 -0.103913l-0.217035 0.217039 -0.0377047 0.0377087 -0.0377126 -0.0377087 -0.217039 -0.217039 -0.0377087 -0.0377087 0.0377087 -0.0377087 0.217039 -0.217039 0.0377126 -0.0377126 0.0377047 0.0377126 0.217035 0.217039 0.0377087 0.0377087 -0.0377087 0.0377087z"/>
   <path id="_404628104" class="fil0" d="M1.71822 4.47573l0.141618 -0.141622 -0.141618 -0.141622 -0.141622 0.141622 0.141622 0.141622zm0.254744 -0.103913l-0.217035 0.217039 -0.0377047 0.0377087 -0.0377126 -0.0377087 -0.217039 -0.217039 -0.0377087 -0.0377087 0.0377087 -0.0377087 0.217039 -0.217039 0.0377126 -0.0377126 0.0377047 0.0377126 0.217035 0.217039 0.0377087 0.0377087 -0.0377087 0.0377087z"/>
   <path id="_404619392" class="fil0" d="M3.19189 3.78019c0.0186102,0.0131378 0.165472,0.119394 0.274937,0.27763 0.0175157,-0.127858 -0.00215748,-0.223516 -0.00238583,-0.224626l-0.000173228 3.54331e-005c-0.00590157,-0.0288543 0.0127087,-0.0570394 0.041563,-0.0629409 0.015752,-0.00322047 0.0312992,0.000862205 0.0431378,0.0099252 0.0295394,0.0208386 0.380992,0.275374 0.396264,0.603732 0.000948819,0.0204213 0.000610236,0.0400197 -0.000877953,0.0587992 -0.0125276,0.158055 -0.102366,0.296067 -0.194445,0.394673 -0.0945945,0.101299 -0.201681,0.163677 -0.229689,0.165256l0 1.5748e-005 -3.54331e-005 0 7.87402e-006 0.000149606c-0.00219685,0.000102362 -0.00437008,6.69291e-005 -0.00651181,-9.44882e-005l-3.93701e-006 0 -0.000129921 -7.87402e-006 -0.000944882 -5.90551e-005 0 -2.3622e-005 -0.000125984 -1.1811e-005 -7.87402e-006 8.66142e-005c-0.00863386,-0.000661417 -0.0166299,-0.00334646 -0.0235551,-0.00755512 -0.0235866,-0.010748 -0.057374,-0.0325394 -0.0904567,-0.062874 -0.016,-0.0146693 -0.032811,-0.0317677 -0.0493031,-0.0509961 -0.0249528,0.0235236 -0.049189,0.043878 -0.0710866,0.0606063 -0.0533386,0.040748 -0.102098,0.0624016 -0.12272,0.0607677 -0.0170157,-0.00134646 -0.0543937,-0.0201772 -0.0929055,-0.0521417 -0.0390866,-0.0324409 -0.0865748,-0.0813898 -0.122949,-0.141429 -0.0380236,-0.0627559 -0.0641417,-0.137449 -0.057689,-0.218728 0.00511024,-0.064378 0.0304843,-0.131764 0.0862165,-0.198913 0.202705,-0.244224 0.140236,-0.553437 0.139185,-0.558598l-5.51181e-005 1.1811e-005c-0.00570866,-0.0288937 0.0130906,-0.0569528 0.0419843,-0.0626614 0.0156299,-0.00308661 0.0310197,0.000996063 0.0427559,0.00997244zm0.296433 0.42176l-0.0485394 0.021874c-0.0538071,-0.118677 -0.146504,-0.217709 -0.216685,-0.281232 0.00108268,0.130945 -0.0253465,0.338406 -0.173409,0.516787 -0.0400236,0.0482205 -0.0581339,0.095252 -0.0616339,0.139331 -0.00447244,0.0563425 0.0146063,0.109736 0.0422717,0.155398 0.029311,0.0483819 0.0680354,0.0882087 0.100028,0.11476 0.0214291,0.0177874 0.0332638,0.0275551 0.0333228,0.0275591 0.000649606,5.11811e-005 0.0172402,-0.0142165 0.0498071,-0.0390984 0.0298465,-0.0228031 0.0647283,-0.0533583 0.0994016,-0.0902323 0.0032126,-0.00394882 0.00704331,-0.0075 0.0114764,-0.0105 0.0243858,-0.0165157 0.0575472,-0.0101339 0.074063,0.014252l-0.000188976 0.000129921c0.0219961,0.0324803 0.0480709,0.0607795 0.0722992,0.0829921 0.0254488,0.0233386 0.0429409,0.0379291 0.0484764,0.041563 0.018752,-0.00704331 0.0823346,-0.0549567 0.152984,-0.13061 0.0789567,-0.0845551 0.15585,-0.201122 0.166106,-0.330508 0.00124016,-0.0156575 0.00157087,-0.0309961 0.000877953,-0.0458858 -0.00880315,-0.189343 -0.15739,-0.354646 -0.258921,-0.446205 0.000700787,0.0733346 -0.00716535,0.170524 -0.0400315,0.272701 -0.00384646,0.0151772 -0.014311,0.0285315 -0.0296811,0.0355 -0.0268268,0.0121614 -0.058437,0.000275591 -0.0705984,-0.0265512l0.0485748 -0.0220236zm0.0293976 0.747614l-0.000413386 -0.00956299 -1.9685e-005 0.000251969 0.000433071 0.00931102z"/>
  </g>
 </g>
 <rect class="fil1" width="6.82666" height="6.82666"/>
</svg>
