<svg xmlns="http://www.w3.org/2000/svg" viewBox="0 0 491.5 491.5"><defs><style>.cls-1,.cls-2,.cls-3,.cls-4,.cls-5,.cls-6{fill:none;}.cls-1,.cls-2,.cls-3,.cls-4,.cls-5{stroke:#000;}.cls-1,.cls-2,.cls-4,.cls-5{stroke-linecap:round;stroke-linejoin:round;}.cls-1{stroke-width:3.5px;}.cls-2{stroke-width:7px;}.cls-3{stroke-miterlimit:10;stroke-width:7.64px;}.cls-4{stroke-width:5.35px;}.cls-5{stroke-width:4.54px;}</style></defs><g id="Ebene_2" data-name="Ebene 2"><circle class="cls-1" cx="408.48" cy="107.28" r="6.19"/><circle class="cls-1" cx="390.93" cy="107.28" r="6.19"/><circle class="cls-1" cx="373.79" cy="107.28" r="6.19"/><circle class="cls-1" cx="356.24" cy="107.28" r="6.19"/><line class="cls-2" x1="77.48" y1="91.59" x2="241.02" y2="91.59"/><path class="cls-3" d="M353.46,294.1c-2,0-4,.1-6,.27H144.65c-2-.17-4-.27-6-.27a69.51,69.51,0,1,0,68.88,78.75h77a69.5,69.5,0,1,0,68.88-78.75Z"/><line class="cls-3" x1="139.43" y1="335.14" x2="139.43" y2="400.97"/><line class="cls-3" x1="172.35" y1="368.05" x2="106.51" y2="368.05"/><circle class="cls-4" cx="384.59" cy="368.05" r="9.45"/><circle class="cls-4" cx="354.72" cy="397.92" r="9.45"/><circle class="cls-4" cx="324.86" cy="368.05" r="9.45"/><circle class="cls-4" cx="354.72" cy="338.19" r="9.45"/><rect class="cls-5" x="236.77" y="269.91" width="17.13" height="24.46"/><path class="cls-6" d="M437.75,102.14a3,3,0,1,1,5.75-1.7A95.73,95.73,0,0,1,446,135.72h.91V66.86H60.86v68.86h379A91.56,91.56,0,0,0,437.75,102.14Z"/><path d="M428.29,165.37c-14.48,19-41.19,28.25-79.39,27.53-45.58-.88-77.32,9.22-94.31,30-17.71,21.65-12.42,46.61-12.18,47.66a3,3,0,0,0,2.92,2.35,3.59,3.59,0,0,0,.65-.07,3,3,0,0,0,2.29-3.58c-.05-.23-4.86-23.29,11-42.64s45.9-28.54,89.49-27.72c40.22.8,68.57-9.29,84.27-29.89a65.87,65.87,0,0,0,12-27.29h-6.19A59.06,59.06,0,0,1,428.29,165.37Z"/><path d="M449.94,60.86H57.86a3,3,0,0,0-3,3v74.86a3,3,0,0,0,3,3h381c.44-2,.76-4,1-6h-379V66.86H446.94v68.86H446c-.24,2-.56,4-1,6h4.87a3,3,0,0,0,3-3V63.86A3,3,0,0,0,449.94,60.86Z"/><path d="M439.9,135.72c-.26,2-.58,4-1,6h6.19c.4-2,.72-4,1-6Z"/></g></svg>