<svg xmlns="http://www.w3.org/2000/svg" viewBox="0 0 491.5 491.5"><defs><style>.cls-1,.cls-2{fill:none;stroke:#000;}.cls-1{stroke-miterlimit:10;stroke-width:4px;}.cls-2{stroke-linecap:round;stroke-linejoin:round;stroke-width:8.63px;}</style></defs><g id="Ebene_2" data-name="Ebene 2"><path d="M437.92,24.29H336.6A9.69,9.69,0,0,0,326.94,34V135.27a10,10,0,0,0,.24,2.13h-.24l.42.67a9.59,9.59,0,0,0,2.61,4.2l7.34,11.82,10.38,16.7,10.37-16.7,5.7-9.15h74.16a9.7,9.7,0,0,0,9.67-9.67V34A9.69,9.69,0,0,0,437.92,24.29Zm-53.5,95.21h-.1c-3.45,0-5.88-2.74-5.88-6.29,0-3.75,2.54-6.38,6.08-6.38s6,2.63,6,6.38C390.51,116.76,388.17,119.5,384.42,119.5Zm9.84-38.12c-4.46,5.27-6.09,9.83-5.78,15l.1,2.54h-7.91l-.2-2.64c-.61-5.37,1.22-11.45,6.28-17.43,4.57-5.48,7.1-9.43,7.1-14,0-5.17-3.24-8.62-9.63-8.72A18.08,18.08,0,0,0,374,59.28l-2.43-6.38c3.45-2.44,9.12-4.06,14.5-4.06C397.7,48.84,403,56,403,63.74,403,70.64,399.12,75.7,394.26,81.38Z"/><rect class="cls-1" x="79.58" y="206.2" width="358.19" height="206.89"/><rect x="79.58" y="377.9" width="358.19" height="34.26"/><line class="cls-1" x1="104.93" y1="206.2" x2="104.93" y2="412.16"/><line class="cls-1" x1="413.36" y1="205.74" x2="413.36" y2="411.7"/><line class="cls-1" x1="130.63" y1="206.67" x2="130.63" y2="412.63"/><line class="cls-1" x1="156.33" y1="206.67" x2="156.33" y2="412.63"/><line class="cls-1" x1="387.65" y1="206.67" x2="387.65" y2="412.63"/><line class="cls-1" x1="361.95" y1="206.67" x2="361.95" y2="412.63"/><line class="cls-1" x1="336.25" y1="205.74" x2="336.25" y2="411.7"/><line class="cls-1" x1="310.55" y1="205.74" x2="310.55" y2="411.7"/><line class="cls-1" x1="284.84" y1="205.74" x2="284.84" y2="411.7"/><line class="cls-1" x1="259.14" y1="205.74" x2="259.14" y2="411.7"/><line class="cls-1" x1="233.44" y1="205.74" x2="233.44" y2="411.7"/><line class="cls-1" x1="207.74" y1="205.74" x2="207.74" y2="411.7"/><line class="cls-1" x1="182.03" y1="205.74" x2="182.03" y2="411.7"/><circle class="cls-1" cx="79.58" cy="189.87" r="8.8"/><line class="cls-1" x1="79.58" y1="206.2" x2="79.58" y2="198.67"/><circle class="cls-1" cx="437.77" cy="189.87" r="8.8"/><line class="cls-1" x1="437.77" y1="206.2" x2="437.77" y2="198.67"/><line class="cls-1" x1="79.58" y1="413.09" x2="79.58" y2="412.16"/><line class="cls-2" x1="127.39" y1="416.92" x2="127.39" y2="439.22"/><line class="cls-2" x1="392.69" y1="416.92" x2="392.69" y2="439.22"/></g></svg>