<?xml version="1.0" encoding="utf-8"?>
<!-- Generator: Adobe Illustrator 25.0.0, SVG Export Plug-In . SVG Version: 6.00 Build 0)  -->
<svg version="1.1" xmlns="http://www.w3.org/2000/svg" xmlns:xlink="http://www.w3.org/1999/xlink" x="0px" y="0px"
	 viewBox="0 0 503.6 503.6" style="enable-background:new 0 0 503.6 503.6;" xml:space="preserve">
<style type="text/css">
	.st0{stroke:#000000;stroke-width:10;stroke-miterlimit:10;}
	.st1{fill:none;stroke:#000000;stroke-width:9;stroke-linecap:round;stroke-miterlimit:10;}
	.st2{fill:none;stroke:#000000;stroke-width:9;stroke-linecap:round;stroke-linejoin:round;stroke-miterlimit:10;}
	.st3{display:none;}
	.st4{display:inline;}
	.st5{display:inline;fill:none;}
</style>
<g id="Layer_1">
	<path d="M101.6,249H402c3.9,0,7-3.4,7-7.7v-99.2c0-4.2-3.2-7.7-7-7.7H101.6c-3.9,0-7,3.4-7,7.7l0,99.2
		C94.6,245.5,97.8,249,101.6,249z M409.1,252.8H98.4c-6.3,0-11.4-5.5-11.4-12.3V138.2c0-6.5,4.8-11.7,10.8-11.7h307.9
		c6,0,10.8,5.2,10.8,11.7v106.5C416.6,249.2,413.2,252.8,409.1,252.8z"/>
	<path d="M121.9,250.2c0,1.5,1.7,2.6,3.8,2.6c2.1,0,3.8-1.2,3.8-2.6v-51.6h91.4v51.6c0,1.5,1.7,2.6,3.8,2.6s3.8-1.2,3.8-2.6V196
		c0-1.5-1.7-2.6-3.8-2.6h-99.1c-2.1,0-3.8,1.2-3.8,2.6L121.9,250.2L121.9,250.2z"/>
	<path d="M268.3,250.2c0,1.5,1.7,2.6,3.8,2.6s3.8-1.2,3.8-2.6v-51.6h91.4v51.6c0,1.5,1.7,2.6,3.8,2.6c2.1,0,3.8-1.2,3.8-2.6V196
		c0-1.5-1.7-2.6-3.8-2.6h-99.1c-2.1,0-3.8,1.2-3.8,2.6L268.3,250.2L268.3,250.2z"/>
	<path d="M301.6,225.3h41.8c3.9,0,7.5,1.6,10.1,4.2c2.6,2.6,4.2,6.2,4.2,10.1v0c0,3.9-1.6,7.5-4.2,10.1c-2.6,2.6-6.2,4.2-10.1,4.2
		h-41.8c-3.9,0-7.5-1.6-10.1-4.2c-2.6-2.6-4.2-6.2-4.2-10.1v0c0-3.9,1.6-7.5,4.2-10.1C294.1,226.9,297.7,225.3,301.6,225.3z
		 M343.4,232.9h-41.8c-1.8,0-3.5,0.7-4.7,1.9c-1.2,1.2-1.9,2.9-1.9,4.7v0c0,1.8,0.7,3.5,1.9,4.7c1.2,1.2,2.9,1.9,4.7,1.9h41.8
		c1.8,0,3.5-0.7,4.7-1.9c1.2-1.2,1.9-2.9,1.9-4.7v0c0-1.8-0.7-3.5-1.9-4.7S345.3,232.9,343.4,232.9z"/>
	<path d="M153.5,225.3h41.8c3.9,0,7.5,1.6,10.1,4.2c2.6,2.6,4.2,6.2,4.2,10.1v0c0,3.9-1.6,7.5-4.2,10.1c-2.6,2.6-6.2,4.2-10.1,4.2
		h-41.8c-3.9,0-7.5-1.6-10.1-4.2c-2.6-2.6-4.2-6.2-4.2-10.1v0c0-3.9,1.6-7.5,4.2-10.1C146,226.9,149.5,225.3,153.5,225.3z
		 M195.3,232.9h-41.8c-1.8,0-3.5,0.7-4.7,1.9s-1.9,2.9-1.9,4.7v0c0,1.8,0.7,3.5,1.9,4.7c1.2,1.2,2.9,1.9,4.7,1.9h41.8
		c1.8,0,3.5-0.7,4.7-1.9c1.2-1.2,1.9-2.9,1.9-4.7v0c0-1.8-0.7-3.5-1.9-4.7C198.8,233.7,197.1,232.9,195.3,232.9z"/>
	<path d="M435.7,253.4c-3.3-1.9-7.9-3.1-13-3.1H80.9c-5.1,0-9.6,1.2-13,3.1c-3.3,1.9-5.4,4.5-5.4,7.3v36.5c0,0.5,0.3,1,0.8,1.4
		c0,0,0,0,0,0c0.2,0,0.4-0.1,0.6-0.1c0,0,0.1,0,0.1,0c0.2,0,0.4-0.1,0.6-0.1c0.1,0,0.2,0,0.3,0c0.2,0,0.3,0,0.5,0c0.3,0,0.6,0,0.9,0
		c0,0,0.7,0,1.1,0c0,0,0.1,0,0.1,0c0.3,0,0.7,0.1,1,0.1c0,0,0,0,0,0c0.8-0.2,1.6-0.3,2.6-0.4l0.2-3.3v-34.1c0-1.5,1.1-2.9,2.9-3.9
		c1.8-1,4.2-1.6,6.8-1.6h341.9c2.7,0,5.1,0.6,6.8,1.6c1.8,1,2.9,2.4,2.9,3.9v34.1h0c0.1,1.2,0.2,2.4,0.3,3.6l0,0
		c0,0.1-0.3,0.4,0,0.6c0.3,0.3,1.3,0.4,2.2,0.2c0.6,0.2,1.2,0.3,1.8,0.5c0.3,0,1.8,0,3.1-0.7c1.2-0.7,1.3-1.6,1.3-1.7
		c0-12.2,0-24.4,0-36.5C441.1,257.9,439,255.3,435.7,253.4z"/>
	<path d="M68.3,390.6v-82c0-2.1,0.9-4,2.2-5.3c1.3-1.3,3.1-2.1,5.1-2.1h343.8h8.9c2,0,3.8,0.8,5.1,2.1c1.4,1.3,2.2,3.2,2.2,5.3v82
		h-14.1c-21.2-0.2-21.7-0.2-21.7,1.8c0,2-0.3,5.4,1.9,5.4h37.9c2.2,0,4-1.6,4-3.6v-85.6c0-4,1-9.8-1.7-12.4
		c-2.8-2.7-9.3-2.2-13.6-2.2H75.6c-4.3,0-10.1,0-12.9,2.7c-2.7,2.6-2.4,8-2.4,11.9v85.6c0,2,1.8,3.6,4,3.6l38-0.4
		c2.2,0,2.6-1.3,2.6-3.2c0-2,0-3.6-2.2-3.6C102.6,390.6,68.3,390.6,68.3,390.6z"/>
	<path class="st0" d="M403.3,301.4"/>
	<path class="st0" d="M403.9,303.9"/>
	<line class="st1" x1="106.8" y1="339.8" x2="400.7" y2="339.8"/>
	<polyline class="st2" points="400.5,339.8 400.4,371.2 400.5,393 400.5,339.8 104.6,339.8 103.5,392.8 	"/>
</g>
<g id="Ebene_2" class="st3">
	<g id="Layer_x0020_1" class="st4">
		<path d="M82.2,209H410c2.1,0,3.8,1.7,3.8,3.8V270c0,4.5-1.8,8.6-4.8,11.5c-2.9,2.9-7,4.8-11.5,4.8H94.6c-4.5,0-8.6-1.8-11.5-4.8
			c-2.9-2.9-4.8-7-4.8-11.5v-57.2C78.4,210.7,80.1,209,82.2,209L82.2,209z M406.1,216.6H86V270c0,2.4,1,4.5,2.5,6.1
			c1.6,1.6,3.7,2.5,6.1,2.5h302.9c2.4,0,4.5-1,6.1-2.5c1.6-1.6,2.5-3.7,2.5-6.1L406.1,216.6L406.1,216.6z"/>
		<path d="M86,209h320.1v-107H86C86,101.9,86,209,86,209z M410,216.6H82.2c-2.1,0-3.8-1.7-3.8-3.8V98.1c0-2.1,1.7-3.8,3.8-3.8H410
			c2.1,0,3.8,1.7,3.8,3.8v114.7C413.8,214.9,412.1,216.6,410,216.6z"/>
		<path d="M339.8,301.1c0-2.1-1.7-3.8-3.8-3.8s-3.8,1.7-3.8,3.8v25.6c0,2.1,1.7,3.8,3.8,3.8s3.8-1.7,3.8-3.8V301.1z"/>
		<path d="M160.1,301.1c0-2.1-1.7-3.8-3.8-3.8s-3.8,1.7-3.8,3.8v25.6c0,2.1,1.7,3.8,3.8,3.8s3.8-1.7,3.8-3.8V301.1z"/>
		<path d="M119.5,211.8c0,2.1,1.7,3.8,3.8,3.8s3.8-1.7,3.8-3.8v-75.4h91.4v75.4c0,2.1,1.7,3.8,3.8,3.8c2.1,0,3.8-1.7,3.8-3.8v-79.2
			c0-2.1-1.7-3.8-3.8-3.8h-99.1c-2.1,0-3.8,1.7-3.8,3.8L119.5,211.8L119.5,211.8z"/>
		<path d="M265.9,211.8c0,2.1,1.7,3.8,3.8,3.8s3.8-1.7,3.8-3.8v-75.4H365v75.4c0,2.1,1.7,3.8,3.8,3.8s3.8-1.7,3.8-3.8v-79.2
			c0-2.1-1.7-3.8-3.8-3.8h-99.1c-2.1,0-3.8,1.7-3.8,3.8L265.9,211.8L265.9,211.8z"/>
		<path d="M299.2,188h41.8c3.9,0,7.5,1.6,10.1,4.2c2.6,2.6,4.2,6.2,4.2,10.1v0c0,3.9-1.6,7.5-4.2,10.1c-2.6,2.6-6.2,4.2-10.1,4.2
			h-41.8c-3.9,0-7.5-1.6-10.1-4.2c-2.6-2.6-4.2-6.2-4.2-10.1v0c0-3.9,1.6-7.5,4.2-10.1C291.7,189.7,295.3,188,299.2,188z
			 M341.1,195.7h-41.8c-1.8,0-3.5,0.7-4.7,1.9c-1.2,1.2-1.9,2.9-1.9,4.7v0c0,1.8,0.7,3.5,1.9,4.7c1.2,1.2,2.9,1.9,4.7,1.9h41.8
			c1.8,0,3.5-0.7,4.7-1.9c1.2-1.2,1.9-2.9,1.9-4.7v0c0-1.8-0.7-3.5-1.9-4.7S342.9,195.7,341.1,195.7z"/>
		<path d="M151.1,188h41.8c3.9,0,7.5,1.6,10.1,4.2c2.6,2.6,4.2,6.2,4.2,10.1v0c0,3.9-1.6,7.5-4.2,10.1c-2.6,2.6-6.2,4.2-10.1,4.2
			h-41.8c-3.9,0-7.5-1.6-10.1-4.2c-2.6-2.6-4.2-6.2-4.2-10.1v0c0-3.9,1.6-7.5,4.2-10.1C143.6,189.7,147.2,188,151.1,188z
			 M192.9,195.7h-41.8c-1.8,0-3.5,0.7-4.7,1.9s-1.9,2.9-1.9,4.7v0c0,1.8,0.7,3.5,1.9,4.7c1.2,1.2,2.9,1.9,4.7,1.9h41.8
			c1.8,0,3.5-0.7,4.7-1.9c1.2-1.2,1.9-2.9,1.9-4.7v0c0-1.8-0.7-3.5-1.9-4.7C196.4,196.5,194.8,195.7,192.9,195.7z"/>
		<path d="M81,202.1c2.1,0,3.8-1.7,3.8-3.8s-1.7-3.8-3.8-3.8H65.6c-2.1,0-3.8,1.7-3.8,3.8v91.2c0,4.2,1.6,8.1,4.2,10.9
			c2.7,2.9,6.4,4.7,10.5,4.7h339.2c4.1,0,7.8-1.8,10.5-4.7c2.6-2.8,4.2-6.7,4.2-10.9v-91.2c0-2.1-1.7-3.8-3.8-3.8h-17.4
			c-2.1,0-1.2,1.7-1.2,3.8s-0.9,3.8,1.2,3.8h13.6v87.3c0,2.2-0.8,4.2-2.2,5.7c-1.3,1.4-3,2.2-4.9,2.2H76.5c-1.9,0-3.6-0.8-4.9-2.2
			c-1.3-1.4-2.2-3.4-2.2-5.7v-87.3C69.4,202.1,81,202.1,81,202.1z"/>
	</g>
	<rect x="0.3" y="-33.3" class="st5" width="491.5" height="491.5"/>
</g>
</svg>
