<?xml version="1.0" encoding="utf-8"?>
<!-- Generator: Adobe Illustrator 25.0.0, SVG Export Plug-In . SVG Version: 6.00 Build 0)  -->
<svg version="1.1" xmlns="http://www.w3.org/2000/svg" xmlns:xlink="http://www.w3.org/1999/xlink" x="0px" y="0px"
	 viewBox="0 0 503.6 503.6" style="enable-background:new 0 0 503.6 503.6;" xml:space="preserve">
<style type="text/css">
	.st0{fill:none;stroke:#000000;stroke-width:7;stroke-linecap:round;stroke-miterlimit:10;}
	.st1{fill:none;stroke:#000000;stroke-width:7;stroke-linecap:round;stroke-linejoin:round;stroke-miterlimit:10;}
	.st2{font-family:'ArialMT';}
	.st3{font-size:72px;}
	.st4{display:none;}
	.st5{display:inline;opacity:0.25;}
	.st6{stroke:#000000;stroke-width:10;stroke-miterlimit:10;}
	.st7{fill:none;stroke:#000000;stroke-width:9;stroke-linecap:round;stroke-miterlimit:10;}
	.st8{fill:none;stroke:#000000;stroke-width:9;stroke-linecap:round;stroke-linejoin:round;stroke-miterlimit:10;}
	.st9{display:inline;opacity:0.24;}
</style>
<g id="Ebene_2">
	<line class="st0" x1="66.7" y1="125.5" x2="66.1" y2="378.8"/>
	<line class="st0" x1="92.9" y1="126" x2="92.6" y2="215.4"/>
	<line class="st0" x1="156.1" y1="219.3" x2="155.6" y2="297"/>
	<line class="st0" x1="91.6" y1="298.3" x2="91.5" y2="379.3"/>
	<line class="st0" x1="412.7" y1="298" x2="412.7" y2="378"/>
	<line class="st0" x1="436.3" y1="244.4" x2="437.3" y2="378"/>
	<path class="st1" d="M91.3,122.4"/>
	<path class="st1" d="M66.9,122.4"/>
	<path class="st1" d="M67.2,124c0.8-0.2,10.1-7.8,24.9,0.3"/>
	<path class="st1" d="M66.6,379.6c0.8,0.2,10.1,7.8,24.9-0.3"/>
	<path class="st1" d="M412.6,379.1c0.8,0.2,10.1,7.8,24.9-0.3"/>
	<path class="st1" d="M436.3,244.4c-0.5-0.7-1.3-21.2-32.1-25.9"/>
	<line class="st0" x1="69.4" y1="217.6" x2="404.2" y2="218.5"/>
	<line class="st0" x1="92" y1="296.9" x2="412.5" y2="297"/>
	<path class="st0" d="M122.9,217.2c-11.8-8.2-6.6-31.2,3.2-32.4"/>
	<path class="st0" d="M188.8,217.8c11.8-8.2,5.2-31.5-4.6-32.6"/>
	<line class="st0" x1="126.6" y1="184.9" x2="183.3" y2="185"/>
	<text transform="matrix(1 0 0 1 231.7784 457.4453)" class="st2 st3">4</text>
</g>
<g id="Ebene_4" class="st4">
	<g id="Layer_1" class="st5">
		<path d="M101.4,238.7h300.4c3.9,0,7-3.4,7-7.7v-99.2c0-4.2-3.2-7.7-7-7.7H101.4c-3.9,0-7,3.4-7,7.7V231
			C94.4,235.2,97.6,238.7,101.4,238.7z M408.9,242.5H98.2c-6.3,0-11.4-5.5-11.4-12.3V127.9c0-6.5,4.8-11.7,10.8-11.7h307.9
			c6,0,10.8,5.2,10.8,11.7v106.5C416.4,238.9,413,242.5,408.9,242.5z"/>
		<path d="M121.7,239.9c0,1.5,1.7,2.6,3.8,2.6c2.1,0,3.8-1.2,3.8-2.6v-51.6h91.4v51.6c0,1.5,1.7,2.6,3.8,2.6s3.8-1.2,3.8-2.6v-54.2
			c0-1.5-1.7-2.6-3.8-2.6h-99.1c-2.1,0-3.8,1.2-3.8,2.6L121.7,239.9L121.7,239.9z"/>
		<path d="M268.1,239.9c0,1.5,1.7,2.6,3.8,2.6s3.8-1.2,3.8-2.6v-51.6h91.4v51.6c0,1.5,1.7,2.6,3.8,2.6c2.1,0,3.8-1.2,3.8-2.6v-54.2
			c0-1.5-1.7-2.6-3.8-2.6h-99.1c-2.1,0-3.8,1.2-3.8,2.6L268.1,239.9L268.1,239.9z"/>
		<path d="M301.4,215h41.8c3.9,0,7.5,1.6,10.1,4.2c2.6,2.6,4.2,6.2,4.2,10.1l0,0c0,3.9-1.6,7.5-4.2,10.1s-6.2,4.2-10.1,4.2h-41.8
			c-3.9,0-7.5-1.6-10.1-4.2c-2.6-2.6-4.2-6.2-4.2-10.1l0,0c0-3.9,1.6-7.5,4.2-10.1S297.5,215,301.4,215z M343.2,222.6h-41.8
			c-1.8,0-3.5,0.7-4.7,1.9s-1.9,2.9-1.9,4.7l0,0c0,1.8,0.7,3.5,1.9,4.7c1.2,1.2,2.9,1.9,4.7,1.9h41.8c1.8,0,3.5-0.7,4.7-1.9
			s1.9-2.9,1.9-4.7l0,0c0-1.8-0.7-3.5-1.9-4.7S345.1,222.6,343.2,222.6z"/>
		<path d="M153.3,215h41.8c3.9,0,7.5,1.6,10.1,4.2c2.6,2.6,4.2,6.2,4.2,10.1l0,0c0,3.9-1.6,7.5-4.2,10.1c-2.6,2.6-6.2,4.2-10.1,4.2
			h-41.8c-3.9,0-7.5-1.6-10.1-4.2c-2.6-2.6-4.2-6.2-4.2-10.1l0,0c0-3.9,1.6-7.5,4.2-10.1C145.8,216.6,149.3,215,153.3,215z
			 M195.1,222.6h-41.8c-1.8,0-3.5,0.7-4.7,1.9s-1.9,2.9-1.9,4.7l0,0c0,1.8,0.7,3.5,1.9,4.7s2.9,1.9,4.7,1.9h41.8
			c1.8,0,3.5-0.7,4.7-1.9s1.9-2.9,1.9-4.7l0,0c0-1.8-0.7-3.5-1.9-4.7C198.6,223.4,196.9,222.6,195.1,222.6z"/>
		<path d="M435.5,243.1c-3.3-1.9-7.9-3.1-13-3.1H80.7c-5.1,0-9.6,1.2-13,3.1c-3.3,1.9-5.4,4.5-5.4,7.3v36.5c0,0.5,0.3,1,0.8,1.4l0,0
			c0.2,0,0.4-0.1,0.6-0.1h0.1c0.2,0,0.4-0.1,0.6-0.1c0.1,0,0.2,0,0.3,0c0.2,0,0.3,0,0.5,0c0.3,0,0.6,0,0.9,0c0,0,0.7,0,1.1,0h0.1
			c0.3,0,0.7,0.1,1,0.1l0,0c0.8-0.2,1.6-0.3,2.6-0.4l0.2-3.3v-34.1c0-1.5,1.1-2.9,2.9-3.9s4.2-1.6,6.8-1.6h341.9
			c2.7,0,5.1,0.6,6.8,1.6c1.8,1,2.9,2.4,2.9,3.9v34.1l0,0c0.1,1.2,0.2,2.4,0.3,3.6l0,0c0,0.1-0.3,0.4,0,0.6c0.3,0.3,1.3,0.4,2.2,0.2
			c0.6,0.2,1.2,0.3,1.8,0.5c0.3,0,1.8,0,3.1-0.7c1.2-0.7,1.3-1.6,1.3-1.7c0-12.2,0-24.4,0-36.5C440.9,247.6,438.8,245,435.5,243.1z"
			/>
		<path d="M68.1,380.3v-82c0-2.1,0.9-4,2.2-5.3c1.3-1.3,3.1-2.1,5.1-2.1h343.8h8.9c2,0,3.8,0.8,5.1,2.1c1.4,1.3,2.2,3.2,2.2,5.3v82
			h-14.1c-21.2-0.2-21.7-0.2-21.7,1.8s-0.3,5.4,1.9,5.4h37.9c2.2,0,4-1.6,4-3.6v-85.6c0-4,1-9.8-1.7-12.4c-2.8-2.7-9.3-2.2-13.6-2.2
			H75.4c-4.3,0-10.1,0-12.9,2.7c-2.7,2.6-2.4,8-2.4,11.9v85.6c0,2,1.8,3.6,4,3.6l38-0.4c2.2,0,2.6-1.3,2.6-3.2c0-2,0-3.6-2.2-3.6
			C102.4,380.3,68.1,380.3,68.1,380.3z"/>
		<path class="st6" d="M403.1,291"/>
		<path class="st6" d="M403.7,293.5"/>
		<line class="st7" x1="106.6" y1="329.5" x2="400.5" y2="329.5"/>
		<polyline class="st8" points="400.3,329.5 400.2,360.9 400.3,382.7 400.3,329.5 104.4,329.5 103.3,382.5 		"/>
	</g>
</g>
<g id="Ebene_3" class="st4">
	<g id="Layer_x0020_1" class="st9">
		<path d="M81.5,258.2h341c2.2,0,4,2,4,4.4v65.7c0,5.1-1.9,9.8-5,13.2c-3.1,3.4-7.3,5.5-12,5.5H94.5c-4.7,0-8.9-2.1-12-5.5
			c-3.1-3.4-5-8.1-5-13.2v-65.7C77.5,260.2,79.3,258.2,81.5,258.2L81.5,258.2z M418.5,267h-333v61.3c0,2.7,1,5.2,2.6,7
			c1.6,1.8,3.9,2.9,6.3,2.9h315.1c2.5,0,4.7-1.1,6.3-2.9c1.6-1.8,2.6-4.3,2.6-7L418.5,267L418.5,267z"/>
		<path d="M85.5,258.2h333V135.3h-333C85.5,135.3,85.5,258.2,85.5,258.2z M422.5,267h-341c-2.2,0-4-2-4-4.4V130.9
			c0-2.4,1.8-4.4,4-4.4h341c2.2,0,4,2,4,4.4v131.7C426.5,265,424.7,267,422.5,267z"/>
		<path d="M349.5,364c0-2.4-1.8-4.4-4-4.4s-4,2-4,4.4v29.4c0,2.4,1.8,4.4,4,4.4s4-2,4-4.4V364z"/>
		<path d="M162.6,364c0-2.4-1.8-4.4-4-4.4c-2.2,0-4,2-4,4.4v29.4c0,2.4,1.8,4.4,4,4.4c2.2,0,4-2,4-4.4V364z"/>
		<path d="M120.3,261.4c0,2.4,1.8,4.4,4,4.4c2.2,0,4-2,4-4.4v-86.6h95.1v86.6c0,2.4,1.8,4.4,4,4.4c2.2,0,4-2,4-4.4v-91
			c0-2.4-1.8-4.4-4-4.4H124.3c-2.2,0-4,2-4,4.4L120.3,261.4L120.3,261.4z"/>
		<path d="M272.7,261.4c0,2.4,1.8,4.4,4,4.4s4-2,4-4.4v-86.6h95.1v86.6c0,2.4,1.8,4.4,4,4.4c2.2,0,4-2,4-4.4v-91
			c0-2.4-1.8-4.4-4-4.4H276.7c-2.2,0-4,2-4,4.4L272.7,261.4L272.7,261.4z"/>
		<path d="M307.3,234.2h43.5c4.1,0,7.8,1.8,10.5,4.8c2.7,3,4.4,7.1,4.4,11.6v0c0,4.5-1.7,8.6-4.4,11.6c-2.7,3-6.4,4.8-10.5,4.8
			h-43.5c-4.1,0-7.8-1.8-10.5-4.8c-2.7-3-4.4-7.1-4.4-11.6v0c0-4.5,1.7-8.6,4.4-11.6C299.5,236,303.2,234.2,307.3,234.2z M350.8,243
			h-43.5c-1.9,0-3.6,0.9-4.9,2.2c-1.2,1.4-2,3.3-2,5.4v0c0,2.1,0.8,4,2,5.4c1.3,1.4,3,2.2,4.9,2.2h43.5c1.9,0,3.6-0.9,4.9-2.2
			c1.3-1.4,2-3.3,2-5.4v0c0-2.1-0.8-4-2-5.4C354.5,243.9,352.7,243,350.8,243z"/>
		<path d="M153.2,234.2h43.5c4.1,0,7.8,1.8,10.5,4.8c2.7,3,4.4,7.1,4.4,11.6v0c0,4.5-1.7,8.6-4.4,11.6c-2.7,3-6.4,4.8-10.5,4.8
			h-43.5c-4.1,0-7.8-1.8-10.5-4.8c-2.7-3-4.4-7.1-4.4-11.6v0c0-4.5,1.7-8.6,4.4-11.6C145.4,236,149.1,234.2,153.2,234.2z M196.8,243
			h-43.5c-1.9,0-3.6,0.9-4.9,2.2c-1.3,1.4-2,3.3-2,5.4v0c0,2.1,0.8,4,2,5.4c1.3,1.4,3,2.2,4.9,2.2h43.5c1.9,0,3.6-0.9,4.9-2.2
			c1.2-1.4,2-3.3,2-5.4v0c0-2.1-0.8-4-2-5.4C200.4,243.9,198.6,243,196.8,243z"/>
		<path d="M80.3,250.3c2.2,0,4-2,4-4.4c0-2.4-1.8-4.4-4-4.4h-16c-2.2,0-4,2-4,4.4v104.6c0,4.8,1.7,9.3,4.4,12.5
			c2.8,3.3,6.6,5.4,10.9,5.4h352.9c4.3,0,8.1-2.1,10.9-5.4c2.7-3.2,4.4-7.6,4.4-12.5V245.9c0-2.4-1.8-4.4-4-4.4h-18.1
			c-2.2,0-1.3,2-1.3,4.4c0,2.4-0.9,4.4,1.3,4.4h14.1v100.2c0,2.6-0.9,4.8-2.2,6.5c-1.3,1.6-3.1,2.5-5.1,2.5H75.6c-2,0-3.8-1-5.1-2.5
			c-1.4-1.6-2.2-3.9-2.2-6.5V250.3C68.3,250.3,80.3,250.3,80.3,250.3z"/>
	</g>
</g>
</svg>
