<svg xmlns="http://www.w3.org/2000/svg" viewBox="0 0 491.5 491.5"><defs><style>.cls-1,.cls-2{fill:none;stroke:#000;stroke-linecap:round;stroke-width:5.41px;}.cls-1{stroke-miterlimit:10;}.cls-2{stroke-linejoin:round;}</style></defs><g id="Ebene_2" data-name="Ebene 2"><g id="Layer_1"><path d="M242.67,86.85H456.59a2.28,2.28,0,0,1,2.27,2.28v148a2.28,2.28,0,0,1-2.27,2.28H242.67a2.28,2.28,0,0,1-2.27-2.28v-148A2.28,2.28,0,0,1,242.67,86.85ZM454.31,91.4H245V234.88H454.31Z"/><path d="M250.94,95.08H448.32a2.27,2.27,0,0,1,2.27,2.27V212.49a2.27,2.27,0,0,1-2.27,2.27H250.94a2.27,2.27,0,0,1-2.27-2.27V97.35A2.27,2.27,0,0,1,250.94,95.08ZM446,99.63H253.22V210.21H446Z"/><g id="_173062440" data-name=" 173062440"><rect id="_173062920" data-name=" 173062920" x="426.57" y="219.51" width="4.55" height="10.62" rx="2.28"/><rect id="_173062776" data-name=" 173062776" x="412.77" y="219.51" width="4.55" height="10.62" rx="2.28"/><circle id="_173062704" data-name=" 173062704" cx="347.79" cy="224.82" r="3.41"/><path id="_173062512" data-name=" 173062512" d="M310.78,223a2.28,2.28,0,1,0,0-4.55H268.14a2.28,2.28,0,1,0,0,4.55Z"/><path id="_173062560" data-name=" 173062560" d="M310.78,231.21a2.28,2.28,0,1,0,0-4.55H268.14a2.28,2.28,0,1,0,0,4.55Z"/></g></g></g><g id="Ebene_4" data-name="Ebene 4"><g id="Ebene_2-2" data-name="Ebene 2"><line class="cls-1" x1="37.45" y1="230.92" x2="36.99" y2="426.64"/><line class="cls-1" x1="57.69" y1="231.31" x2="57.46" y2="300.39"/><line class="cls-1" x1="106.53" y1="303.4" x2="106.14" y2="363.43"/><line class="cls-1" x1="56.69" y1="364.44" x2="56.61" y2="427.02"/><line class="cls-1" x1="304.79" y1="364.21" x2="304.79" y2="426.02"/><line class="cls-1" x1="323.02" y1="322.79" x2="323.8" y2="426.02"/><path class="cls-2" d="M37.84,229.77c.62-.16,7.8-6,19.24.23"/><path class="cls-2" d="M37.37,427.26c.62.15,7.81,6,19.24-.24"/><path class="cls-2" d="M304.71,426.87c.62.15,7.81,6,19.24-.23"/><path class="cls-2" d="M323,322.79c-.38-.54-1-16.38-24.8-20"/><line class="cls-1" x1="39.54" y1="302.09" x2="298.22" y2="302.78"/><line class="cls-1" x1="57" y1="363.36" x2="304.63" y2="363.43"/><path class="cls-1" d="M80.87,301.78c-9.11-6.34-5.1-24.11,2.48-25"/><path class="cls-1" d="M131.79,302.24c9.12-6.34,4-24.34-3.55-25.19"/><line class="cls-1" x1="83.73" y1="276.82" x2="127.54" y2="276.9"/></g></g></svg>