<?xml version="1.0" encoding="utf-8"?>
<!-- Generator: Adobe Illustrator 25.0.0, SVG Export Plug-In . SVG Version: 6.00 Build 0)  -->
<svg version="1.1" xmlns="http://www.w3.org/2000/svg" xmlns:xlink="http://www.w3.org/1999/xlink" x="0px" y="0px"
	 viewBox="0 0 503.6 503.6" style="enable-background:new 0 0 503.6 503.6;" xml:space="preserve">
<style type="text/css">
	.st0{font-family:'ArialMT';}
	.st1{font-size:72px;}
	.st2{fill:none;stroke:#000000;stroke-width:7;stroke-linecap:round;stroke-miterlimit:10;}
	.st3{fill:none;stroke:#000000;stroke-width:7;stroke-linecap:round;stroke-linejoin:round;stroke-miterlimit:10;}
</style>
<g id="Number">
	<text transform="matrix(1 0 0 1 231.7787 457.4454)" class="st0 st1">3</text>
</g>
<g id="New_icon">
	<line class="st2" x1="79.4" y1="120.2" x2="78.7" y2="378"/>
	<line class="st2" x1="283.8" y1="174.1" x2="283.5" y2="380.5"/>
	<line class="st2" x1="373.4" y1="174.2" x2="373.2" y2="380.7"/>
	<line class="st2" x1="424.2" y1="120.2" x2="424.7" y2="378.1"/>
	<path class="st3" d="M91.3,122.4"/>
	<path class="st3" d="M66.9,122.4"/>
	<line class="st2" x1="64.1" y1="382" x2="439.2" y2="382.5"/>
	<path class="st2" d="M212.7,173.9c-10.2-3.7-10.7-24.6,6.7-25.5"/>
	<path class="st2" d="M212.8,315.1c-8.4-3.8-8.8-25.8,6.7-26.3"/>
	<path class="st2" d="M390.9,174.1c10.3-0.2,13.7-24.7-6.7-25.5"/>
	<path class="st2" d="M387.4,315.4c14.8,1,17.5-26.1-3.2-27.1"/>
	<path class="st2" d="M176.1,172.8c11.8-8.2,5.4-24.2-7.1-24.6"/>
	<path class="st2" d="M176.1,313.8c11.8-8.2,5.4-24.2-7.1-24.6"/>
	<line class="st2" x1="79.2" y1="173.8" x2="421.3" y2="174.1"/>
	<line class="st2" x1="85.6" y1="210.9" x2="283.7" y2="211.1"/>
	<line class="st2" x1="82.5" y1="351.2" x2="280.5" y2="351.4"/>
	<line class="st2" x1="81.9" y1="315" x2="280" y2="315.2"/>
	<line class="st2" x1="283.8" y1="197.8" x2="370.9" y2="197.9"/>
	<line class="st2" x1="115.5" y1="148.3" x2="169" y2="148.3"/>
	<line class="st2" x1="115.5" y1="289.3" x2="169" y2="289.3"/>
	<line class="st2" x1="221" y1="148.3" x2="382.6" y2="148.5"/>
	<line class="st2" x1="283.8" y1="215.6" x2="370.9" y2="215.7"/>
	<line class="st2" x1="375.7" y1="211.1" x2="424.5" y2="211.2"/>
	<line class="st2" x1="375.7" y1="315.3" x2="424.5" y2="315.4"/>
	<line class="st2" x1="374.4" y1="351.5" x2="423.2" y2="351.6"/>
	<line class="st2" x1="283.7" y1="232.5" x2="370.8" y2="232.6"/>
	<line class="st2" x1="283.7" y1="251.8" x2="370.8" y2="251.9"/>
	<line class="st2" x1="284.9" y1="269.6" x2="372" y2="269.7"/>
	<line class="st2" x1="219.4" y1="288.8" x2="386" y2="288.3"/>
	<line class="st2" x1="284.9" y1="305.5" x2="372" y2="305.6"/>
	<line class="st2" x1="286.2" y1="324.2" x2="373.3" y2="324.3"/>
	<line class="st2" x1="285" y1="341.1" x2="372" y2="341.2"/>
	<line class="st2" x1="283.6" y1="361.6" x2="370.7" y2="361.7"/>
	<path class="st2" d="M109.5,172.8c-11.8-8.2-5.4-24.2,7.1-24.6"/>
	<path class="st2" d="M109.5,313.8c-11.8-8.2-5.4-24.2,7.1-24.6"/>
</g>
</svg>
