<svg xmlns="http://www.w3.org/2000/svg" viewBox="0 0 491.5 491.5"><g id="Ebene_4" data-name="Ebene 4"><path d="M383.78,283.58V258.37c-.15-2.1-1.67-4-4-5.35a19.19,19.19,0,0,0-9.39-2.24h-5.93a5.9,5.9,0,0,0,1.46-4V169.83c0-4.7-3.47-8.45-7.8-8.45H135.71c-4.33,0-7.8,3.75-7.8,8.45v73.88a9.11,9.11,0,0,0,3.27,7.07h-7.67a19.39,19.39,0,0,0-9.39,2.24c-2.38,1.37-3.9,3.25-3.9,5.27v26.18c-1.78,1.93-1.59,5.68-1.59,8.41V354.7a2.75,2.75,0,0,0,2.89,2.6L139,357a2.78,2.78,0,0,0,.69-.08h.18a3.26,3.26,0,0,0,3.25-3.18l.73-35.09H351.05L351,338.11l.07,15.74a3.25,3.25,0,0,0,3.25,3.23h.16a1.06,1.06,0,0,0,.71.23h27.37a2.75,2.75,0,0,0,2.89-2.6V292.88c0-2.88.72-7.07-1.23-8.95A2.86,2.86,0,0,0,383.78,283.58Zm-53.44-33.74h-9.51a10.32,10.32,0,0,0-7.75-17.11H282.89a10.29,10.29,0,0,0-7.75,17.11H264.33V213.45h66ZM278.12,243a4.68,4.68,0,0,1,4.77-4.76h30.19a4.67,4.67,0,0,1,3.39,1.37,4.77,4.77,0,0,1-3.39,8.16H282.89a4.68,4.68,0,0,1-4.77-4.77Zm-107,0a4.68,4.68,0,0,1,4.77-4.76h30.18a5.13,5.13,0,0,1,3.4,1.37,4.77,4.77,0,0,1-3.4,8.16H175.94a4.68,4.68,0,0,1-4.77-4.77Zm53.44,6.86H213.88a10.32,10.32,0,0,0-7.76-17.11H175.94a10.2,10.2,0,0,0-7.3,3,10.27,10.27,0,0,0-.46,14.08H158.6V213.45h66Zm-91.21-77.2a5.29,5.29,0,0,1,5.06-5.56H355.39a5.38,5.38,0,0,1,5.06,5.56v71.64a5.29,5.29,0,0,1-5.06,5.56H335.82V211.57c0-1.08-1.22-1.88-2.74-1.88H261.51c-1.51,0-2.74.87-2.74,1.88l.07,38.27H230.1V211.57c0-1.08-1.23-1.88-2.75-1.88H155.79c-1.52,0-2.75.87-2.75,1.88l.07,38.27H138.46a5.38,5.38,0,0,1-5.06-5.56Zm-14.73,82.84a10.18,10.18,0,0,1,4.91-1.16H370.49a9.79,9.79,0,0,1,4.91,1.16,3.46,3.46,0,0,1,2.09,2.81v24c-1.1,0-2.17,0-3.1,0H119.68c-1,0-2,0-3.11.07V258.29A3.47,3.47,0,0,1,118.67,255.48Zm261,96.62H369.48c-5.94-.05-9.63-.09-11.92,0V316.32a3,3,0,0,0,.15-.9,3.25,3.25,0,0,0-3.25-3.25H140.62a3.25,3.25,0,0,0-3.25,3.18l-.76,36.75h-22.2V292.88a5.45,5.45,0,0,1,1.59-3.82,5.18,5.18,0,0,1,3.68-1.52H374.39a5.31,5.31,0,0,1,5.27,5.34Z"/><path d="M435.58,56.79h-377a14.52,14.52,0,0,0-14.5,14.5v316.1a14.52,14.52,0,0,0,14.5,14.5h377a14.52,14.52,0,0,0,14.5-14.5V71.29A14.52,14.52,0,0,0,435.58,56.79Zm9.5,330.6a9.51,9.51,0,0,1-9.5,9.5h-377a9.51,9.51,0,0,1-9.5-9.5V71.29a9.51,9.51,0,0,1,9.5-9.5h377a9.51,9.51,0,0,1,9.5,9.5Z"/></g></svg>