<svg xmlns="http://www.w3.org/2000/svg" viewBox="0 0 491.5 491.5"><defs><style>.cls-1,.cls-2{fill:none;stroke:#000;stroke-width:5px;}.cls-1{stroke-miterlimit:10;}.cls-2{stroke-linecap:round;stroke-linejoin:round;}</style></defs><g id="Ebene_4" data-name="Ebene 4"><g id="Layer_1"><path d="M130.85,182H361.29a2.7,2.7,0,0,1,2.7,2.7v40.23a11.47,11.47,0,0,1-11.44,11.44h-213a11.47,11.47,0,0,1-11.44-11.44V184.66a2.7,2.7,0,0,1,2.7-2.7Zm227.74,5.4h-225v37.53a6.08,6.08,0,0,0,6,6h213a6.06,6.06,0,0,0,6-6V187.36Z"/><path d="M133.55,182h225V106.71h-225Zm227.74,5.4H130.85a2.7,2.7,0,0,1-2.7-2.7V104a2.7,2.7,0,0,1,2.7-2.7H361.29A2.7,2.7,0,0,1,364,104v80.65A2.7,2.7,0,0,1,361.29,187.36Z"/><path d="M311.93,246.75a2.7,2.7,0,0,0-5.4,0v18a2.7,2.7,0,1,0,5.4,0Z"/><path d="M185.61,246.75a2.7,2.7,0,0,0-5.4,0v18a2.7,2.7,0,1,0,5.4,0Z"/><path d="M398.87,383.58a2.7,2.7,0,1,0-5.39,0v18a2.7,2.7,0,1,0,5.39,0Z"/><path d="M102,383.58a2.7,2.7,0,1,0-5.4,0v18a2.7,2.7,0,1,0,5.4,0Z"/><path d="M157.07,183.92a2.7,2.7,0,0,0,5.4,0v-53h64.24v53a2.7,2.7,0,0,0,5.4,0V128.21a2.7,2.7,0,0,0-2.7-2.7H159.77a2.7,2.7,0,0,0-2.7,2.7v55.71Z"/><path d="M260,183.92a2.7,2.7,0,1,0,5.4,0v-53h64.25v53a2.7,2.7,0,1,0,5.4,0V128.21a2.7,2.7,0,0,0-2.7-2.7H262.73a2.7,2.7,0,0,0-2.7,2.7v55.71Z"/><path d="M283.43,167.25h29.42a10.11,10.11,0,0,1,10.06,10.06h0a10.09,10.09,0,0,1-10.06,10.05H283.43a10.07,10.07,0,0,1-10.05-10.05h0a10.09,10.09,0,0,1,10.05-10.06Zm29.42,5.4H283.43a4.68,4.68,0,0,0-4.65,4.66h0a4.68,4.68,0,0,0,4.65,4.65h29.42a4.68,4.68,0,0,0,4.66-4.65h0a4.68,4.68,0,0,0-4.66-4.66Z"/><path d="M179.29,167.25h29.42a10.11,10.11,0,0,1,10.06,10.06h0a10.09,10.09,0,0,1-10.06,10.05H179.29a10.07,10.07,0,0,1-10-10.05h0a10.09,10.09,0,0,1,10-10.06Zm29.42,5.4H179.29a4.68,4.68,0,0,0-4.65,4.66h0a4.68,4.68,0,0,0,4.65,4.65h29.42a4.68,4.68,0,0,0,4.66-4.65h0a4.68,4.68,0,0,0-4.66-4.66Z"/><path d="M130,177.13a2.7,2.7,0,1,0,0-5.4H119.18a2.7,2.7,0,0,0-2.7,2.7v64.09a11.19,11.19,0,0,0,3,7.64,10,10,0,0,0,7.37,3.29H365.32a10,10,0,0,0,7.37-3.29,11.23,11.23,0,0,0,3-7.64V174.43a2.7,2.7,0,0,0-2.7-2.7H360.7c-1.49,0-.85,1.21-.85,2.7s-.64,2.7.85,2.7h9.56v61.39a5.78,5.78,0,0,1-1.52,4,4.67,4.67,0,0,1-3.42,1.56H126.83a4.68,4.68,0,0,1-3.43-1.56,5.83,5.83,0,0,1-1.52-4V177.13Z"/></g><polygon class="cls-1" points="433.11 380.88 61.95 380.88 101.99 273.41 130.87 195.87 361.29 195.87 433.11 380.88"/><polygon class="cls-1" points="107.6 309.56 83.33 370.63 232.11 370.63 232.11 276.58 163.28 276.58 107.6 309.56"/><polygon class="cls-2" points="107.6 309.56 163.28 276.58 159.65 309.56 107.6 309.56"/><polygon class="cls-1" points="388.39 308.89 412.66 369.97 263.88 369.97 263.88 275.91 332.71 275.91 388.39 308.89"/><polygon class="cls-2" points="388.39 308.89 332.71 275.91 336.35 308.89 388.39 308.89"/></g></svg>