<svg xmlns="http://www.w3.org/2000/svg" viewBox="0 0 491.5 491.5"><defs><style>.cls-1,.cls-2{fill:none;stroke:#000;stroke-width:5px;}.cls-1{stroke-miterlimit:10;}.cls-2{stroke-linecap:round;stroke-linejoin:round;}.cls-3{isolation:isolate;font-size:72px;font-family:ArialMT, Arial;}</style></defs><g id="Ebene_4" data-name="Ebene 4"><g id="Layer_1"><path d="M132.47,134.92H362.91a2.7,2.7,0,0,1,2.7,2.7v40.22a11.47,11.47,0,0,1-11.44,11.45h-213a11.45,11.45,0,0,1-11.44-11.45V137.62a2.7,2.7,0,0,1,2.7-2.7Zm227.74,5.4h-225v37.52a6.06,6.06,0,0,0,6,6h213a6.08,6.08,0,0,0,6-6V140.32Z"/><path d="M135.17,134.92h225V59.66h-225Zm227.74,5.4H132.47a2.7,2.7,0,0,1-2.7-2.7V57a2.7,2.7,0,0,1,2.7-2.7H362.91a2.7,2.7,0,0,1,2.7,2.7v80.66A2.7,2.7,0,0,1,362.91,140.32Z"/><path d="M313.55,199.7a2.7,2.7,0,1,0-5.4,0v18a2.7,2.7,0,1,0,5.4,0Z"/><path d="M187.23,199.7a2.7,2.7,0,0,0-5.4,0v18a2.7,2.7,0,0,0,5.4,0Z"/><path d="M400.49,336.53a2.7,2.7,0,0,0-5.4,0v18a2.7,2.7,0,1,0,5.4,0Z"/><path d="M103.61,336.53a2.7,2.7,0,0,0-5.4,0v18a2.7,2.7,0,0,0,5.4,0Z"/><path d="M158.68,136.88a2.7,2.7,0,0,0,5.4,0v-53h64.25v53a2.7,2.7,0,0,0,5.4,0V81.16a2.7,2.7,0,0,0-2.7-2.7H161.38a2.7,2.7,0,0,0-2.7,2.7v55.72Z"/><path d="M261.65,136.88a2.7,2.7,0,1,0,5.4,0v-53h64.24v53a2.7,2.7,0,0,0,5.4,0V81.16a2.7,2.7,0,0,0-2.7-2.7H264.35a2.7,2.7,0,0,0-2.7,2.7v55.72Z"/><path d="M285.05,120.21h29.42a10.07,10.07,0,0,1,10,10h0a10.07,10.07,0,0,1-10,10.06H285.05A10.09,10.09,0,0,1,275,130.26h0a10.09,10.09,0,0,1,10.06-10Zm29.42,5.4H285.05a4.68,4.68,0,0,0-4.66,4.65h0a4.68,4.68,0,0,0,4.66,4.66h29.42a4.68,4.68,0,0,0,4.65-4.66h0a4.68,4.68,0,0,0-4.65-4.65Z"/><path d="M180.91,120.21h29.42a10.07,10.07,0,0,1,10,10h0a10.07,10.07,0,0,1-10,10.06H180.91a10.09,10.09,0,0,1-10.06-10.06h0a10.09,10.09,0,0,1,10.06-10Zm29.42,5.4H180.91a4.68,4.68,0,0,0-4.66,4.65h0a4.68,4.68,0,0,0,4.66,4.66h29.42a4.68,4.68,0,0,0,4.65-4.66h0a4.68,4.68,0,0,0-4.65-4.65Z"/><path d="M131.63,130.08a2.7,2.7,0,1,0,0-5.4H120.8a2.7,2.7,0,0,0-2.7,2.7v64.09a11.26,11.26,0,0,0,3,7.65,10.05,10.05,0,0,0,7.37,3.28H366.93a10.05,10.05,0,0,0,7.37-3.28,11.21,11.21,0,0,0,3-7.65V127.38a2.7,2.7,0,0,0-2.7-2.7H362.32c-1.49,0-.86,1.21-.86,2.7s-.63,2.7.86,2.7h9.56v61.39a5.88,5.88,0,0,1-1.52,4,4.67,4.67,0,0,1-3.43,1.55H128.44a4.67,4.67,0,0,1-3.42-1.55,5.83,5.83,0,0,1-1.52-4V130.08Z"/></g><polygon class="cls-1" points="434.72 333.83 63.56 333.83 103.6 226.36 132.49 148.83 362.9 148.83 434.72 333.83"/><polygon class="cls-1" points="109.22 262.51 84.95 323.59 233.73 323.59 233.73 229.53 164.9 229.53 109.22 262.51"/><polygon class="cls-2" points="109.22 262.51 164.9 229.53 161.26 262.51 109.22 262.51"/><polygon class="cls-1" points="390.01 261.85 414.28 322.92 265.5 322.92 265.5 228.87 334.33 228.87 390.01 261.85"/><polygon class="cls-2" points="390.01 261.85 334.33 228.87 337.96 261.85 390.01 261.85"/><text class="cls-3" transform="translate(233.44 432.68)">2</text></g></svg>