<svg xmlns="http://www.w3.org/2000/svg" viewBox="0 0 491.5 491.5"><defs><style>.cls-1,.cls-2{fill:none;stroke:#000;stroke-width:5px;}.cls-1{stroke-miterlimit:10;}.cls-2{stroke-linecap:round;stroke-linejoin:round;}.cls-3{isolation:isolate;font-size:72px;font-family:ArialMT, Arial;}</style></defs><g id="Ebene_4" data-name="Ebene 4"><g id="Layer_1"><path d="M130.54,134.61H361a2.7,2.7,0,0,1,2.7,2.7v40.22A11.47,11.47,0,0,1,352.24,189H139.29a11.47,11.47,0,0,1-11.45-11.45V137.31a2.7,2.7,0,0,1,2.7-2.7ZM358.29,140h-225v37.52a6.08,6.08,0,0,0,6,6.05h213a6.08,6.08,0,0,0,6.05-6.05V140Z"/><path d="M133.24,134.61H358.29V59.35h-225ZM361,140H130.54a2.7,2.7,0,0,1-2.7-2.7V56.65a2.7,2.7,0,0,1,2.7-2.7H361a2.7,2.7,0,0,1,2.7,2.7v80.66A2.7,2.7,0,0,1,361,140Z"/><path d="M311.63,199.39a2.7,2.7,0,1,0-5.4,0v18a2.7,2.7,0,0,0,5.4,0Z"/><path d="M185.3,199.39a2.7,2.7,0,0,0-5.4,0v18a2.7,2.7,0,0,0,5.4,0Z"/><path d="M398.57,336.23a2.7,2.7,0,1,0-5.4,0v18a2.7,2.7,0,0,0,5.4,0Z"/><path d="M101.68,336.23a2.7,2.7,0,1,0-5.4,0v18a2.7,2.7,0,0,0,5.4,0Z"/><path d="M156.76,136.57a2.7,2.7,0,1,0,5.4,0v-53H226.4v53a2.7,2.7,0,0,0,5.4,0V80.86a2.7,2.7,0,0,0-2.7-2.7H159.46a2.7,2.7,0,0,0-2.7,2.7v55.71Z"/><path d="M259.72,136.57a2.7,2.7,0,0,0,5.4,0v-53h64.25v53a2.7,2.7,0,1,0,5.4,0V80.86a2.7,2.7,0,0,0-2.7-2.7H262.42a2.7,2.7,0,0,0-2.7,2.7v55.71Z"/><path d="M283.12,119.9h29.42A10.07,10.07,0,0,1,322.6,130h0a10.07,10.07,0,0,1-10.06,10H283.12a10.07,10.07,0,0,1-10.05-10h0a10.07,10.07,0,0,1,10.05-10.06Zm29.42,5.4H283.12a4.68,4.68,0,0,0-4.65,4.66h0a4.68,4.68,0,0,0,4.65,4.65h29.42A4.68,4.68,0,0,0,317.2,130h0a4.68,4.68,0,0,0-4.66-4.66Z"/><path d="M179,119.9H208.4A10.07,10.07,0,0,1,218.46,130h0a10.07,10.07,0,0,1-10.06,10H179a10.07,10.07,0,0,1-10.06-10h0A10.07,10.07,0,0,1,179,119.9Zm29.41,5.4H179a4.68,4.68,0,0,0-4.66,4.66h0a4.68,4.68,0,0,0,4.66,4.65H208.4a4.68,4.68,0,0,0,4.66-4.65h0a4.68,4.68,0,0,0-4.66-4.66Z"/><path d="M129.71,129.77a2.7,2.7,0,0,0,0-5.4H118.88a2.7,2.7,0,0,0-2.7,2.7v64.09a11.24,11.24,0,0,0,3,7.65,10,10,0,0,0,7.37,3.28H365a10,10,0,0,0,7.37-3.28,11.24,11.24,0,0,0,3-7.65V127.07a2.7,2.7,0,0,0-2.7-2.7H360.39c-1.49,0-.85,1.21-.85,2.7s-.64,2.7.85,2.7H370v61.39a5.81,5.81,0,0,1-1.52,4,4.65,4.65,0,0,1-3.42,1.55H126.52a4.69,4.69,0,0,1-3.43-1.55,5.85,5.85,0,0,1-1.51-4V129.77Z"/></g><polygon class="cls-1" points="432.8 333.53 61.64 333.53 101.68 226.05 130.57 148.52 360.98 148.52 432.8 333.53"/><polygon class="cls-1" points="107.3 262.21 83.03 323.28 231.8 323.28 231.8 229.22 162.98 229.22 107.3 262.21"/><polygon class="cls-2" points="107.3 262.21 162.98 229.22 159.34 262.21 107.3 262.21"/><polygon class="cls-1" points="388.08 261.54 412.36 322.61 263.58 322.61 263.58 228.56 332.4 228.56 388.08 261.54"/><polygon class="cls-2" points="388.08 261.54 332.4 228.56 336.04 261.54 388.08 261.54"/><text class="cls-3" transform="translate(231.74 431.81)">3</text></g></svg>