<?xml version="1.0" encoding="utf-8"?>
<!-- Generator: Adobe Illustrator 25.0.0, SVG Export Plug-In . SVG Version: 6.00 Build 0)  -->
<svg version="1.1" id="Ebene_1" xmlns="http://www.w3.org/2000/svg" xmlns:xlink="http://www.w3.org/1999/xlink" x="0px" y="0px"
	 viewBox="0 0 503.6 503.6" style="enable-background:new 0 0 503.6 503.6;" xml:space="preserve">
<style type="text/css">
	.st0{font-family:'ArialMT';}
	.st1{font-size:77.7566px;}
	.st2{stroke:#000000;stroke-width:2;stroke-miterlimit:10;}
	.st3{stroke:#000000;stroke-width:0.5;stroke-miterlimit:10;}
	.st4{stroke:#000000;stroke-width:8.5866;stroke-miterlimit:10;}
	.st5{fill:none;stroke:#000000;stroke-width:7;stroke-linecap:round;stroke-linejoin:round;stroke-miterlimit:10;}
	.st6{fill:none;stroke:#000000;stroke-width:5.3998;stroke-linecap:round;stroke-linejoin:round;stroke-miterlimit:10;}
	.st7{display:none;}
</style>
<g id="Number">
	<text transform="matrix(1 0 0 1 214.707 455.5762)" class="st0 st1">4</text>
</g>
<g id="New_icon_1_">
	<g id="Layer_1">
		<path class="st2" d="M72.4,232.9h179.8c2.4,0,4.2-2.6,4.2-5.9v-77.1c0-3.2-1.9-5.9-4.2-5.9H72.4c-2.4,0-4.2,2.6-4.2,5.9V227
			C68.2,230.2,70.2,232.9,72.4,232.9z M256.6,235.9H70.5c-3.8,0-6.8-4.3-6.8-9.6v-79.6c0-5.1,2.9-9.1,6.5-9.1h184.3
			c3.6,0,6.5,4,6.5,9.1v82.8C261,233.1,258.9,235.9,256.6,235.9z"/>
		<path class="st2" d="M274.8,235.9c-2.1-1.8-4.9-3-8-3H57.6c-3.1,0-5.8,1.2-8,3c-2.1,1.8-3.3,4.4-3.3,7.1v35.5c0,0.5,0.2,1,0.5,1.4
			l0,0c0.1,0,0.2-0.1,0.3-0.1h0.1c0.1,0,0.2-0.1,0.3-0.1s0.1,0,0.2,0s0.2,0,0.3,0c0.2,0,0.3,0,0.5,0c0,0,0.4,0,0.6,0h0.1
			c0.2,0,0.4,0.1,0.6,0.1l0,0c0.5-0.2,1-0.3,1.6-0.4l0.1-3.2v-33.3c0-1.5,0.6-2.8,1.7-3.8s2.6-1.5,4.2-1.5H267
			c1.6,0,3.1,0.5,4.2,1.5s1.7,2.4,1.7,3.8v33.3l0,0c0.1,1.2,0.1,2.4,0.2,3.5l0,0c0,0.1-0.2,0.4,0,0.5c0.2,0.3,0.8,0.4,1.3,0.2
			c0.3,0.2,0.8,0.3,1.1,0.5c0.2,0,1.1,0,1.9-0.6s0.8-1.5,0.8-1.6c0-11.9,0-23.8,0-35.5C278.2,240.4,276.9,237.8,274.8,235.9z"/>
		<path class="st3" d="M49.6,359.8v-70.3c0-1.8,0.5-3.5,1.3-4.5c0.8-1.1,1.9-1.8,3.1-1.8h210.8h5.5c1.2,0,2.4,0.6,3.1,1.8
			c0.9,1.1,1.3,2.7,1.3,4.5v70.3h-8.6c-13-0.2-13.3-0.2-13.3,1.5s-0.2,4.6,1.2,4.6h23.2c1.3,0,2.5-1.4,2.5-3.1v-73.4
			c0-3.5,0.6-8.4-1.1-10.6c-1.7-2.3-5.7-1.8-8.3-1.8H54.2c-2.6,0-6.2,0-7.9,2.3c-1.6,2.3-1.5,6.9-1.5,10.2v73.4
			c0,1.7,1.1,3.1,2.5,3.1l23.3-0.3c1.3,0,1.6-1.1,1.6-2.7c0-1.7,0-3.1-1.3-3.1C70.7,359.8,49.6,359.8,49.6,359.8z"/>
		<path class="st4" d="M280.3,262.3"/>
		<path class="st4" d="M280.6,265"/>
		<polyline class="st5" points="253.9,323.1 253.9,346.5 253.9,362.8 253.9,323.1 72.3,323.1 71.6,362.7 		"/>
		<path class="st5" d="M207.4,232.9h-90.2v-33.2c0-7.2,5.8-13.1,13.1-13.1h63.9c7.2,0,13.1,5.8,13.1,13.1L207.4,232.9L207.4,232.9z"
			/>
		<path class="st5" d="M450.6,342.9h-93.8c-4.5,0-8.2-3.7-8.2-8.2v-75.1c0-4.5,3.7-8.2,8.2-8.2h93.8c4.5,0,8.2,3.7,8.2,8.2v75.1
			C458.9,339.3,455.3,342.9,450.6,342.9z"/>
		<line class="st6" x1="357.2" y1="344.9" x2="357.2" y2="362.8"/>
		<line class="st5" x1="450.2" y1="344.9" x2="450.2" y2="362.8"/>
		<line class="st5" x1="389.9" y1="297.2" x2="417.5" y2="297.2"/>
		<line class="st5" x1="403.7" y1="249.4" x2="403.7" y2="230.6"/>
		<polygon class="st5" points="421.7,227.3 386.6,227.3 393.9,182.8 414.3,182.6 		"/>
	</g>
</g>
<g id="Template" class="st7">
</g>
</svg>
