<svg xmlns="http://www.w3.org/2000/svg" viewBox="0 0 491.5 491.5"><defs><style>.cls-1,.cls-2,.cls-3{fill:none;stroke:#000;stroke-linecap:round;}.cls-1,.cls-2{stroke-miterlimit:10;}.cls-1{stroke-width:8.94px;}.cls-2,.cls-3{stroke-width:5.41px;}.cls-3{stroke-linejoin:round;}</style></defs><g id="Ebene_2" data-name="Ebene 2"><line class="cls-1" x1="336.24" y1="120.99" x2="336.24" y2="198.06"/><line class="cls-1" x1="374.77" y1="159.52" x2="297.7" y2="159.52"/></g><g id="Ebene_4" data-name="Ebene 4"><g id="Ebene_2-2" data-name="Ebene 2"><line class="cls-2" x1="107.01" y1="218.49" x2="106.55" y2="414.2"/><line class="cls-2" x1="127.26" y1="218.88" x2="127.03" y2="287.95"/><line class="cls-2" x1="176.09" y1="290.96" x2="175.7" y2="351"/><line class="cls-2" x1="126.25" y1="352" x2="126.18" y2="414.59"/><line class="cls-2" x1="374.35" y1="351.77" x2="374.35" y2="413.58"/><line class="cls-2" x1="392.59" y1="310.36" x2="393.36" y2="413.58"/><path class="cls-3" d="M107.4,217.33c.62-.15,7.8-6,19.24.23"/><path class="cls-3" d="M106.94,414.82c.61.16,7.8,6,19.24-.23"/><path class="cls-3" d="M374.27,414.43c.62.16,7.81,6,19.24-.23"/><path class="cls-3" d="M392.59,310.36c-.39-.54-1-16.38-24.81-20"/><line class="cls-2" x1="109.1" y1="289.65" x2="367.78" y2="290.35"/><line class="cls-2" x1="126.56" y1="350.92" x2="374.2" y2="351"/><path class="cls-2" d="M150.44,289.34c-9.12-6.33-5.1-24.1,2.47-25"/><path class="cls-2" d="M201.35,289.81c9.12-6.34,4-24.34-3.55-25.19"/><line class="cls-2" x1="153.3" y1="264.39" x2="197.1" y2="264.46"/></g><circle class="cls-2" cx="336.24" cy="159.52" r="74.36"/></g></svg>