<svg xmlns="http://www.w3.org/2000/svg" viewBox="0 0 491.5 491.5"><defs><style>.cls-1{fill:none;stroke:#000;stroke-linecap:round;stroke-miterlimit:10;stroke-width:7px;}</style></defs><g id="Ebene_4" data-name="Ebene 4"><line class="cls-1" x1="63.27" y1="122.94" x2="62.57" y2="380.74"/><line class="cls-1" x1="267.67" y1="176.84" x2="267.37" y2="383.24"/><line class="cls-1" x1="357.27" y1="176.94" x2="357.07" y2="383.44"/><line class="cls-1" x1="408.07" y1="122.94" x2="408.57" y2="380.84"/><line class="cls-1" x1="47.97" y1="384.74" x2="423.07" y2="385.24"/><path class="cls-1" d="M196.57,176.64c-10.2-3.7-10.7-24.6,6.7-25.5"/><path class="cls-1" d="M374.77,176.84c10.3-.2,13.7-24.7-6.7-25.5"/><path class="cls-1" d="M160,175.54c11.8-8.2,5.4-24.2-7.1-24.6"/><line class="cls-1" x1="63.07" y1="176.54" x2="405.17" y2="176.84"/><line class="cls-1" x1="69.47" y1="213.64" x2="267.57" y2="213.84"/><line class="cls-1" x1="267.67" y1="200.54" x2="354.77" y2="200.64"/><line class="cls-1" x1="99.37" y1="151.04" x2="152.87" y2="151.04"/><line class="cls-1" x1="204.87" y1="151.04" x2="366.47" y2="151.24"/><line class="cls-1" x1="267.67" y1="218.34" x2="354.77" y2="218.44"/><line class="cls-1" x1="359.57" y1="213.84" x2="408.37" y2="213.94"/><line class="cls-1" x1="267.57" y1="235.24" x2="354.67" y2="235.34"/><line class="cls-1" x1="267.57" y1="254.54" x2="354.67" y2="254.64"/><line class="cls-1" x1="268.77" y1="272.34" x2="355.87" y2="272.44"/><line class="cls-1" x1="268.77" y1="308.24" x2="355.87" y2="308.34"/><line class="cls-1" x1="267.57" y1="290.29" x2="354.67" y2="290.39"/><line class="cls-1" x1="270.07" y1="326.94" x2="357.17" y2="327.04"/><line class="cls-1" x1="268.87" y1="343.84" x2="355.87" y2="343.94"/><line class="cls-1" x1="267.47" y1="364.34" x2="354.57" y2="364.44"/><path class="cls-1" d="M93.37,175.54c-11.8-8.2-5.4-24.2,7.1-24.6"/></g></svg>