<svg xmlns="http://www.w3.org/2000/svg" viewBox="0 0 491.5 491.5"><defs><style>.cls-1,.cls-2,.cls-3,.cls-4{fill:none;stroke:#000;stroke-miterlimit:10;}.cls-1{stroke-width:5px;}.cls-2,.cls-3,.cls-4{stroke-linecap:round;}.cls-2{stroke-width:5.06px;}.cls-3{stroke-width:3.48px;}.cls-4{stroke-width:1.74px;}</style></defs><g id="Ebene_4" data-name="Ebene 4"><polygon class="cls-1" points="423.63 372.69 52.47 372.69 92.51 265.22 121.4 187.68 351.81 187.68 423.63 372.69"/><path class="cls-2" d="M100,243.87s30,15.64,57.37-7.39c22.5-18.92,46.27-6.74,54-1.8a27.33,27.33,0,0,1,3.86,3C221,243,245.19,263.84,269,258.33"/><path class="cls-3" d="M236.9,355.71s20.67,10.78,39.54-5.09c15.51-13,31.89-4.65,37.24-1.24a17.65,17.65,0,0,1,2.65,2.07c3.92,3.65,20.63,18,37,14.23"/><path class="cls-4" d="M281.92,220.36s10.33,5.39,19.77-2.55c7.76-6.52,15.95-2.32,18.62-.62a10.07,10.07,0,0,1,1.33,1c2,1.83,10.31,9,18.51,7.12"/><path class="cls-3" d="M100,295.93s20.67,10.77,39.54-5.1c15.51-13,31.9-4.64,37.24-1.24a19,19,0,0,1,2.66,2.07c3.92,3.65,20.62,18,37,14.23"/><path class="cls-2" d="M210.67,277.53s30-15.64,57.37,7.39c22.5,18.92,46.27,6.74,54,1.8a26.62,26.62,0,0,0,3.86-3c5.68-5.3,29.92-26.16,53.71-20.65"/><path class="cls-2" d="M68.28,340.22s30-15.64,57.37,7.39c22.5,18.92,46.27,6.74,54,1.8a27.33,27.33,0,0,0,3.86-3c5.68-5.3,29.92-26.16,53.71-20.65"/><path class="cls-2" d="M224.46,132.94s-.09-20.63-12.79-18.2-11.48,18.2-11.48,18.2v96.31"/><path class="cls-2" d="M295.13,132.94s-.1-20.63-12.79-18.2-11.48,18.2-11.48,18.2v96.31"/><line class="cls-2" x1="200.16" y1="200.54" x2="268.53" y2="200.54"/><line class="cls-2" x1="200.16" y1="213.74" x2="268.53" y2="213.74"/><line class="cls-2" x1="200.16" y1="173.77" x2="268.53" y2="173.77"/><line class="cls-2" x1="200.16" y1="159.86" x2="268.53" y2="159.86"/></g></svg>