<svg xmlns="http://www.w3.org/2000/svg" viewBox="0 0 491.5 491.5"><defs><style>.cls-1{fill:none;}</style></defs><g id="Ebene_4" data-name="Ebene 4"><rect class="cls-1" x="150.97" y="272.28" width="40.39" height="168.32"/><rect class="cls-1" x="197.37" y="272.28" width="121.92" height="168.32"/><path d="M151,440.6V272.28h40.4v-6H151v2.24a3,3,0,0,1-6,0v-2.24h0V446.6h46.4v-6Z"/><path d="M194.36,272.28h-3V440.6h6V272.28h-3Z"/><path d="M193,272a3,3,0,0,1-1.34-4l.82-1.66h-1.14v6h3A3,3,0,0,1,193,272Z"/><path d="M322.29,272.28a3,3,0,0,1-3-3v-3H199.22l-2.17,4.35a3,3,0,0,1-2.67,1.65H319.29V440.6H191.37v6H325.29V269.28A3,3,0,0,1,322.29,272.28Z"/><path d="M404.16,192.35,295.41,83.6l-.62.62a3,3,0,0,1,1.15,4.12L291.55,96l3.86-3.87L395.68,192.35l-49.16,49.16-22.1-22.11a3,3,0,0,1,.87,2.12v7.24L346.52,250Z"/><path d="M324.41,219.4h0Z"/><polygon points="319.29 266.28 325.29 266.28 325.29 228.76 319.29 222.76 319.29 266.28"/><path d="M319.29,269.28a3,3,0,0,0,6,0v-3h-6Z"/><path d="M324.42,219.4h0a3,3,0,0,0-2.12-.88,3,3,0,0,0-3,3v1.24l6,6v-7.24A3,3,0,0,0,324.42,219.4Z"/><path d="M145.87,218.63l-22.11,22.11L74.6,191.58,175.08,91.11l3.39,3.38-3.55-6.15a3,3,0,0,1,0-3A3,3,0,0,1,176.5,84l-1.42-1.42-109,109,57.64,57.64L145,228v-7.25A3,3,0,0,1,145.87,218.63Z"/><path d="M145.87,218.63Z"/><polygon points="150.99 222 144.99 228 144.99 266.28 150.99 266.28 150.99 222"/><path d="M148,271.52a3,3,0,0,0,3-3v-2.24h-6v2.24A3,3,0,0,0,148,271.52Z"/><path d="M151,220.75a3,3,0,0,0-5.12-2.12h0a3,3,0,0,0-.88,2.12V228l6-6Z"/><path d="M235.43,181.15l-16-27.64-4.39,4.4L232,187.25l.72-1.44a3,3,0,0,1,5.37,2.68l0,.08,17.22-29.81-4.4-4.4Z"/><polygon points="254 148.98 258.39 153.38 291.55 95.95 275.15 112.34 254 148.98"/><path d="M182.71,89.84H288.14l-1.4,2.43,8.05-8a3,3,0,0,0-1.45-.38H177.52a3.19,3.19,0,0,0-1,.2l6.77,6.77Z"/><polygon points="216.37 148.13 194.86 110.88 178.47 94.49 211.97 152.53 216.37 148.13"/><polygon points="255.29 158.76 258.39 153.38 254 148.98 250.89 154.36 255.29 158.76"/><path d="M275.15,112.34,291.55,96l4.39-7.61a3,3,0,0,0-1.15-4.12l-8.05,8Z"/><polygon points="216.37 148.13 211.97 152.53 215.08 157.91 219.47 153.51 216.37 148.13"/><path d="M174.92,85.34a3,3,0,0,0,0,3l3.55,6.15,16.39,16.39L183.27,90.81,176.5,84A3,3,0,0,0,174.92,85.34Z"/><path d="M238,188.65a3,3,0,0,1-5.2,0l-.81-1.4-39.51,79h6.71l38.85-77.71Z"/><path d="M194.37,272.28h0Z"/><path d="M191.69,267.94a3,3,0,0,0,2.67,4.34h0a3,3,0,0,0,2.67-1.65l2.17-4.35h-6.71Z"/><path d="M236.77,184.47a3,3,0,0,0-4,1.34l-.72,1.44.81,1.4a3,3,0,0,0,5.2,0l0-.08,0-.08A3,3,0,0,0,236.77,184.47Z"/></g></svg>