<svg xmlns="http://www.w3.org/2000/svg" viewBox="0 0 491.5 491.5"><defs><style>.cls-1,.cls-2{fill:none;stroke:#000;stroke-linecap:round;stroke-linejoin:round;}.cls-1{stroke-width:4.77px;}.cls-2{stroke-width:5px;}</style></defs><g id="Ebene_4" data-name="Ebene 4"><line class="cls-1" x1="173.99" y1="302.01" x2="330.98" y2="302.01"/><rect class="cls-1" x="201.55" y="302.01" width="101.88" height="133.61"/><path d="M250.1,302a2.39,2.39,0,1,0,4.77,0V174.64H250.1Z"/><path d="M254.87,59.2V56.56a2.39,2.39,0,0,0-4.77,0v2.63h2Z"/><path d="M76.89,173.92a2.48,2.48,0,0,1-.25-.3A1.81,1.81,0,0,0,76.89,173.92Z"/><path d="M76.61,173.57a2,2,0,0,1-.21-.38A1.58,1.58,0,0,0,76.61,173.57Z"/><path d="M77.22,174.2A2.31,2.31,0,0,1,77,174,2.31,2.31,0,0,0,77.22,174.2Z"/><path d="M78.07,174.58h0Z"/><path d="M77.57,174.41h0l-.19-.1Z"/><path d="M427.38,170.49A193.64,193.64,0,0,0,254.87,59.2V64a188.75,188.75,0,0,1,166.88,105.9h1.88a2.38,2.38,0,0,1,1.74,4,2.43,2.43,0,0,0,.86-.22A2.39,2.39,0,0,0,427.38,170.49Z"/><path d="M78.59,169.87h3.8A188.71,188.71,0,0,1,250.1,64V59.19A193.61,193.61,0,0,0,76.42,171.24a2.39,2.39,0,0,0,0,1.94,2.41,2.41,0,0,1-.18-.93A2.37,2.37,0,0,1,78.59,169.87Z"/><path d="M252.07,64l2.8,0V59.2l-2.8,0h-2V64Z"/><path d="M423.06,172.52c-.42-.89-.88-1.77-1.31-2.65H254.87v4.77H423.63a2.39,2.39,0,0,0,1.74-.75A2.38,2.38,0,0,1,423.06,172.52Z"/><path d="M78.06,174.57a2,2,0,0,1-.45-.15A1.7,1.7,0,0,0,78.06,174.57Z"/><path d="M77.42,174.32l-.2-.12Z"/><path d="M82.39,169.87c-.55,1.12-1.12,2.24-1.65,3.38a2.37,2.37,0,0,1-2.16,1.38,2.21,2.21,0,0,1-.51,0,2.24,2.24,0,0,0,.52.06H250.1v-4.77Z"/><path d="M76.64,173.62l0-.05Z"/><path d="M77,174a.73.73,0,0,1-.09-.08A.73.73,0,0,0,77,174Z"/><path d="M76.4,173.19h0Z"/><rect x="250.1" y="169.87" width="4.77" height="4.77"/><path d="M423.63,169.87h-1.88c.43.88.89,1.76,1.31,2.65a1.77,1.77,0,1,0,.57-2.65Z"/><path d="M80.74,173.25c.53-1.14,1.1-2.26,1.65-3.38h-3.8a2.37,2.37,0,0,0-2.38,2.38,2.41,2.41,0,0,0,.18.93h0a2,2,0,0,0,.21.38l0,.05a2.48,2.48,0,0,0,.25.3A.73.73,0,0,0,77,174a2.31,2.31,0,0,0,.24.2l.2.12.19.1a2,2,0,0,0,.45.15h0a2.21,2.21,0,0,0,.51,0A2.37,2.37,0,0,0,80.74,173.25Z"/><polyline class="cls-2" points="341.24 360.93 421.75 360.93 459.02 271.42"/><line class="cls-2" x1="359.83" y1="361.96" x2="346.12" y2="436.35"/><line class="cls-2" x1="406.29" y1="361.96" x2="420" y2="436.35"/><polyline class="cls-2" points="161.71 360.93 81.2 360.93 43.93 271.42"/><line class="cls-2" x1="143.12" y1="361.96" x2="156.83" y2="436.35"/><line class="cls-2" x1="96.66" y1="361.96" x2="82.95" y2="436.35"/></g></svg>