<svg xmlns="http://www.w3.org/2000/svg" viewBox="0 0 491.5 491.5"><g id="Layer_5" data-name="Layer 5"><path d="M405.58,152.52c-42.74-27-99.5-41.89-159.83-41.89S128.66,125.51,85.92,152.52C42.76,179.79,19,216.2,19,255s23.77,75.25,66.93,102.53c42.74,27,99.5,41.88,159.83,41.88s117.09-14.87,159.83-41.88c43.16-27.28,66.93-63.69,66.93-102.53S448.74,179.79,405.58,152.52ZM245.75,393.46C124,393.46,25,331.37,25,255s99-138.42,220.78-138.42S466.53,178.72,466.53,255,367.49,393.46,245.75,393.46Z"/><path d="M178.91,155.15c6.8,2.16,15.83,3.35,25.42,3.35s18.61-1.19,25.42-3.35c7.29-2.32,11.15-5.43,11.15-9a4.57,4.57,0,0,0-.13-1,5.69,5.69,0,0,0-1-2.15l-2.93.09-21.89.7,13.74-4.64,3.38-1.14c-.74-.28-1.52-.55-2.34-.82l-1.08-.32a89.35,89.35,0,0,0-24.34-3c-9.59,0-18.62,1.19-25.42,3.35-7.3,2.32-11.15,5.43-11.15,9S171.61,152.83,178.91,155.15Z"/><path d="M119.86,248.69c10.17-3.23,15.54-7.57,15.54-12.55a7.2,7.2,0,0,0-.17-1.47,8,8,0,0,0-1.38-3l-4.07.13-30.51,1,19.15-6.46,4.7-1.59c-1-.39-2.11-.78-3.26-1.14l-1.5-.46c-9.29-2.72-21.25-4.21-33.92-4.21-13.36,0-25.94,1.65-35.42,4.67-10.17,3.23-15.54,7.57-15.54,12.55s5.37,9.32,15.54,12.55c9.48,3,22.06,4.67,35.42,4.67S110.38,251.7,119.86,248.69Z"/><path d="M404.36,344.58c-19,4.4-38.89-13.06-42.69-16.6a24.72,24.72,0,0,0-3.44-2.68c-6-3.8-27-14.94-46.7,1.63-21.37,18-44.39,6.38-45.35,5.88a1.79,1.79,0,0,0-1.66,3.18c.25.14,26.07,13.24,49.32-6.31,17.34-14.59,35.47-5.8,42.46-1.35a20.67,20.67,0,0,1,2.92,2.27,84,84,0,0,0,16.94,12.14c7.69,4.1,15,6.15,21.81,6.15a31.79,31.79,0,0,0,7.2-.81,1.8,1.8,0,1,0-.81-3.5Z"/><path d="M458.9,274.88c-10.19-2.37-20.26,6.12-23.11,8.77a9.46,9.46,0,0,1-1.44,1.12c-3.46,2.21-12.46,6.57-21.06-.66a22.79,22.79,0,0,0-21.42-4.43s0-.08,0-.11l-8.6-38.36c12.19-9,32.69-20.57,52.56-16a1.79,1.79,0,1,0,.81-3.49c-12.54-2.91-26.51-.33-41.52,7.67a112.78,112.78,0,0,0-12.71,8l-5.83-26a9.63,9.63,0,0,0-.76-2.13c-4.85-12.19-16.53-14.54-21-15l-.56-.05c-.55,0-.93,0-1.1,0H342.6a23.89,23.89,0,0,0,16-27.37,22.3,22.3,0,0,1,6.05,2.7,10,10,0,0,1,1.44,1.12c2.51,2.34,10.62,9.18,19.47,9.18a16.24,16.24,0,0,0,3.64-.4,1,1,0,0,0-.47-2c-9.41,2.18-19.33-6.5-21.22-8.27a12.31,12.31,0,0,0-1.74-1.35A24,24,0,0,0,358,164.5a23.92,23.92,0,1,0-30.38,29.61H317.12s-.5,0-1.34.06l-.2,0c-4.27.4-16.28,2.61-21.22,15a10.15,10.15,0,0,0-.75,2.13l-1.28,5.72c-24.16-.91-46.82-20.78-51.66-25.28A33.8,33.8,0,0,0,235.8,188c-8.55-5.45-38.64-21.39-66.8,2.29-31.44,26.44-66.35,8.81-66.69,8.63a1.8,1.8,0,0,0-1.66,3.19c.37.19,37.34,19,70.66-9.07,25.57-21.51,52.27-8.57,62.56-2a30.48,30.48,0,0,1,4.35,3.38,121.15,121.15,0,0,0,24.41,17.49c10.15,5.41,19.82,8.33,28.89,8.77l-3.91,17.46c-28.08-12.31-54.18.93-54.49,1.09a1.79,1.79,0,1,0,1.66,3.18c.29-.15,25.3-12.78,52-.69l-8.49,37.87a9.68,9.68,0,0,0,18.9,4.23l5.54-24.73v32.17a14.42,14.42,0,0,0,14.37,14.37h36a14.41,14.41,0,0,0,14.36-14.37V259.46L373,283.8a9.68,9.68,0,0,0,19.12-2.05,20.56,20.56,0,0,1,19.87,4,17.83,17.83,0,0,0,11.72,4.44,22.91,22.91,0,0,0,11.8-3.62,11.76,11.76,0,0,0,1.74-1.35c1.89-1.77,11.79-10.45,21.22-8.27a1,1,0,1,0,.47-2Z"/><path d="M102.31,261.23a1.79,1.79,0,0,0-1.66,3.18c.26.14,26.07,13.24,49.32-6.31,17.34-14.58,35.47-5.8,42.46-1.35a20.59,20.59,0,0,1,2.92,2.28,84.44,84.44,0,0,0,16.94,12.13c7.69,4.1,15,6.16,21.81,6.16a31.79,31.79,0,0,0,7.2-.81,1.8,1.8,0,1,0-.81-3.5c-19,4.39-38.89-13.07-42.69-16.61a24.72,24.72,0,0,0-3.44-2.68c-6-3.8-27-14.94-46.7,1.63C126.3,273.31,103.31,261.75,102.31,261.23Z"/><path d="M267.5,298.94a1.8,1.8,0,0,0-1.34-2.16c-12.55-2.9-26.52-.32-41.53,7.68A121.15,121.15,0,0,0,200.22,322a29.86,29.86,0,0,1-4.35,3.39c-10.29,6.55-37,19.48-62.56-2-33.32-28-70.29-9.26-70.66-9.06a1.79,1.79,0,0,0,1.66,3.18c.34-.18,35.25-17.81,66.69,8.63,11.27,9.48,22.84,12.61,33.23,12.61,15.56,0,28.44-7.05,33.57-10.31a34.53,34.53,0,0,0,4.87-3.79c5.57-5.2,34.76-30.76,62.68-24.3A1.79,1.79,0,0,0,267.5,298.94Z"/></g></svg>