<svg xmlns="http://www.w3.org/2000/svg" viewBox="0 0 491.5 491.5"><defs><style>.cls-1,.cls-2{fill:none;}.cls-1,.cls-3{stroke:#000;stroke-linecap:round;stroke-linejoin:round;}.cls-1{stroke-width:4px;}.cls-3{stroke-width:3.86px;}</style></defs><g id="Ebene_2" data-name="Ebene 2"><rect class="cls-1" x="66.66" y="238.05" width="358.19" height="206.89"/><rect x="66.66" y="409.75" width="358.19" height="34.26"/><line class="cls-1" x1="92" y1="238.05" x2="92" y2="444.01"/><line class="cls-1" x1="400.43" y1="238.59" x2="400.43" y2="444.55"/><line class="cls-1" x1="117.71" y1="238.52" x2="117.71" y2="444.48"/><line class="cls-1" x1="143.41" y1="238.52" x2="143.41" y2="444.48"/><line class="cls-1" x1="374.73" y1="238.52" x2="374.73" y2="444.48"/><line class="cls-1" x1="349.03" y1="238.52" x2="349.03" y2="444.48"/><line class="cls-1" x1="297.62" y1="238.59" x2="297.62" y2="444.55"/><line class="cls-1" x1="323.33" y1="238.59" x2="323.33" y2="444.55"/><line class="cls-1" x1="271.92" y1="238.59" x2="271.92" y2="444.55"/><line class="cls-1" x1="246.22" y1="238.59" x2="246.22" y2="444.55"/><line class="cls-1" x1="220.52" y1="238.59" x2="220.52" y2="444.55"/><line class="cls-1" x1="194.81" y1="238.59" x2="194.81" y2="444.55"/><line class="cls-1" x1="169.11" y1="238.59" x2="169.11" y2="444.55"/><rect class="cls-2" x="251.07" y="77.97" width="95.96" height="158.54"/><rect class="cls-2" x="145.41" y="77.97" width="96.4" height="158.54"/><path d="M145.41,236.52V78h96.4V76a2,2,0,0,1,2-2H143.41a2,2,0,0,0-2,2V238.52a2,2,0,0,0,2,2h98.4v-4Z"/><path d="M349,74h-100a2,2,0,0,1,2,2v2h96V236.52h-96v4h98a2,2,0,0,0,2-2V76A2,2,0,0,0,349,74Z"/><rect x="245.81" y="77.97" width="1.26" height="158.54"/><rect x="245.81" y="240.52" width="1.26" height="179.71"/><rect x="245.81" y="236.52" width="1.26" height="4"/><rect x="249.07" y="77.97" width="2" height="158.54"/><rect x="241.81" y="77.97" width="2" height="158.54"/><rect x="241.81" y="236.52" width="2" height="4"/><rect x="249.07" y="236.52" width="2" height="4"/><path d="M241.81,76v2h2V76h5.26v2h2V76a2,2,0,0,0-2-2h-5.26A2,2,0,0,0,241.81,76Z"/><rect x="247.07" y="77.97" width="2" height="158.54"/><polygon points="247.07 420.23 245.81 420.23 245.81 240.52 243.81 240.52 243.81 422.23 249.07 422.23 249.07 240.52 247.07 240.52 247.07 420.23"/><rect x="243.81" y="77.97" width="2" height="158.54"/><rect x="243.81" y="236.52" width="2" height="4"/><polygon points="247.07 77.97 249.07 77.97 249.07 75.97 243.81 75.97 243.81 77.97 245.81 77.97 247.07 77.97"/><rect x="247.07" y="236.52" width="2" height="4"/><rect class="cls-3" x="143.41" y="195.9" width="205.62" height="5.25"/></g></svg>