<svg xmlns="http://www.w3.org/2000/svg" viewBox="0 0 491.5 491.5"><defs><style>.cls-1,.cls-2,.cls-3,.cls-4{fill:none;}.cls-1,.cls-2,.cls-4{stroke:#000;stroke-width:6px;}.cls-1,.cls-4{stroke-linecap:round;}.cls-1{stroke-linejoin:round;}.cls-2,.cls-4{stroke-miterlimit:10;}</style></defs><g id="Ebene_2" data-name="Ebene 2"><line class="cls-1" x1="75.82" y1="271.86" x2="373.13" y2="271.86"/><path class="cls-2" d="M422,436.15,334.1,396.26l-.14-.07a19.86,19.86,0,0,1-6.69-4.44l-62.69-62.92-90.24-.17a20,20,0,0,1-20-20h0a20,20,0,0,1,20-20l96.56.18a26.93,26.93,0,0,1,16.47,6.27L353,360.92l85.56,38.81a20,20,0,0,1,9.95,26.47h0A20,20,0,0,1,422,436.15Z"/><path class="cls-3" d="M222.11,241.69c9.46,6.66,21.92,12.48,35.92,16.2,33.41,8.89,65.18,3.11,69.37-12.63,2.72-10.25-6.82-22.66-23-32.52-4.15,3.5-9.3,9.86-12.59,14.69a2.23,2.23,0,0,1-2.36.9l-.24-.07a2.21,2.21,0,0,1-1.42-1.84c-.79-7.46,2.73-14.44,6.11-19.25q-4.12-1.9-8.57-3.58-5.4-2-11.2-3.58c-4.56,5.52-7.74,15.44-8.74,19.6a2.15,2.15,0,0,1-4,.49c-4.18-8-1.51-16.57,1.65-22.59a116.09,116.09,0,0,0-18.66-1.89,40.18,40.18,0,0,0-4.1,6.29,20.21,20.21,0,0,1,2.28,5.78C245.09,219.28,237,231.7,222.11,241.69Z"/><path class="cls-3" d="M234.36,203.88c-.2-.29-.41-.58-.64-.86a24.68,24.68,0,0,0-.8,4.16C233.35,206.12,233.84,205,234.36,203.88Z"/><path class="cls-3" d="M236.72,209.39c-1.22,3-2.14,5.68-2.67,7.5a2.16,2.16,0,0,1-2,1.55,2.2,2.2,0,0,1-.85-.14,2.11,2.11,0,0,1-1.25-1.23c-2.42-6.16-1.53-12.37.26-17.45a27.59,27.59,0,0,0-3.77-2.47c-12.48,2.57-20.42,8-22.37,15.32-2.09,7.87,3,17,12.87,25.29C230.56,229.14,238.48,218.64,236.72,209.39Z"/><path class="cls-3" d="M198.31,210.93c2.07-7.79,8.72-13.84,19-17.48a76,76,0,0,0-16.13-2.7c-2.07,5-3.71,13-4.41,18.83a2.22,2.22,0,0,1-1.68,1.89l-.24,0a2.22,2.22,0,0,1-2.11-1c-4.14-6.26-4.22-14.08-3.45-19.9-3,.14-6.11.39-9.25.77q-5.72.71-11.59,2c-1.5,7,.24,17.28,1.27,21.42a2.16,2.16,0,0,1-3.32,2.29c-7.38-5.14-9-14-9-20.82a115.29,115.29,0,0,0-17.43,6.92c-1.62,7.64-.27,18.82.68,23.62a2.15,2.15,0,0,1-1,2.28,2,2,0,0,1-.81.27,2.13,2.13,0,0,1-1.68-.51c-6.14-5.36-7.86-13.1-8.13-19.2-1.39,1-2.72,2-4,3-10,8.08-14.63,16.62-13,24.06,3.53,15.9,35,23,68.79,15.47A119.62,119.62,0,0,0,211.43,241C200.86,231.47,195.7,220.74,198.31,210.93Z"/><path d="M180.91,252.16c-33.76,7.51-65.26.43-68.79-15.47-1.66-7.44,2.95-16,13-24.06,1.26-1,2.59-2,4-3,.27,6.1,2,13.84,8.13,19.2a2.13,2.13,0,0,0,1.68.51,2,2,0,0,0,.81-.27,2.15,2.15,0,0,0,1-2.28c-.95-4.8-2.3-16-.68-23.62a115.29,115.29,0,0,1,17.43-6.92c0,6.8,1.57,15.68,9,20.82a2.16,2.16,0,0,0,3.32-2.29c-1-4.14-2.77-14.42-1.27-21.42q5.86-1.27,11.59-2c3.14-.38,6.23-.63,9.25-.77-.77,5.82-.69,13.64,3.45,19.9a2.22,2.22,0,0,0,2.11,1l.24,0a2.22,2.22,0,0,0,1.68-1.89c.7-5.8,2.34-13.82,4.41-18.83a76,76,0,0,1,16.13,2.7,59.53,59.53,0,0,1,8.18-2.24c.64-.13,1.29-.24,1.94-.36a64.88,64.88,0,0,0-20.4-5.68q-3.56-.43-7.33-.62a24.78,24.78,0,0,0-3.17,6,59.33,59.33,0,0,0-2.84,10.19,33.43,33.43,0,0,1,.1-10.22,44.77,44.77,0,0,1,1.35-6.08c-1.52,0-3,0-4.61.07a128.75,128.75,0,0,0-15,1.46q-4.46.69-9,1.69l-.65.16a20.19,20.19,0,0,0-2,6.64,52.79,52.79,0,0,0,.2,13.51c-2.06-4.14-2.45-9-2.32-13a40.87,40.87,0,0,1,.71-6.38,126.17,126.17,0,0,0-25.29,9.27,27.29,27.29,0,0,0-2,7.87,64.4,64.4,0,0,0,0,12.95,30.47,30.47,0,0,1-1.88-11.84,34.66,34.66,0,0,1,.57-5.81,2.14,2.14,0,0,0-.16-1.35q-2.26,1.25-4.4,2.57a79.78,79.78,0,0,0-8,5.67c-11.9,9.58-17.25,20.25-15.07,30,3.87,17.4,30.29,26.29,62.7,22.31,4.32-.53,8.75-1.29,13.25-2.29a124.31,124.31,0,0,0,34.29-12.85c-1.81-1.36-3.49-2.75-5.07-4.17A119.62,119.62,0,0,1,180.91,252.16Z"/><path d="M236.7,195.8a37.2,37.2,0,0,1,3.18-4.89,2.12,2.12,0,0,0,.49-1.27c-1.73,0-3.42.12-5.09.25-2.69.21-5.31.53-7.82,1a34.46,34.46,0,0,1,8.71,6Z"/><path d="M230,217.07a2.11,2.11,0,0,0,1.25,1.23,2.2,2.2,0,0,0,.85.14,2.16,2.16,0,0,0,2-1.55c.53-1.82,1.45-4.52,2.67-7.5,0-.13,0-.27-.07-.4a14.15,14.15,0,0,0-2.29-5.11c-.52,1.13-1,2.24-1.44,3.3a24.68,24.68,0,0,1,.8-4.16,20.44,20.44,0,0,0-3.48-3.4C228.45,204.7,227.56,210.91,230,217.07Z"/><path d="M204.1,212.47c2-7.32,9.89-12.75,22.37-15.32a43.91,43.91,0,0,0-9.13-3.7c-10.31,3.64-17,9.69-19,17.48-2.61,9.81,2.55,20.54,13.12,30.07q2.91-1.58,5.54-3.24C207.14,229.48,202,220.34,204.1,212.47Z"/><path d="M312.1,210.49q-2.94-2-6.21-3.92a24.32,24.32,0,0,0-5.58,3.85,60.18,60.18,0,0,0-7.22,7.74,33.61,33.61,0,0,1,4.8-9,43,43,0,0,1,4-4.77c-1.35-.71-2.72-1.4-4.14-2.07a128.32,128.32,0,0,0-13.95-5.6c-2.85-1-5.78-1.86-8.8-2.66l-.65-.16a20.45,20.45,0,0,0-4.8,5,53.15,53.15,0,0,0-6,12.09c.08-4.63,2-9.16,3.92-12.58A43.09,43.09,0,0,1,271,193a126,126,0,0,0-26.71-3.41,27,27,0,0,0-5.4,6.06c-.52.77-1,1.57-1.49,2.38a23.43,23.43,0,0,1,2.83,3.84,40.18,40.18,0,0,1,4.1-6.29A116.09,116.09,0,0,1,263,197.51c-3.16,6-5.83,14.63-1.65,22.59a2.15,2.15,0,0,0,4-.49c1-4.16,4.18-14.08,8.74-19.6q5.79,1.58,11.2,3.58,4.44,1.66,8.57,3.58c-3.38,4.81-6.9,11.79-6.11,19.25a2.21,2.21,0,0,0,1.42,1.84l.24.07a2.23,2.23,0,0,0,2.36-.9c3.29-4.83,8.44-11.19,12.59-14.69,16.23,9.86,25.77,22.27,23,32.52-4.19,15.74-36,21.52-69.37,12.63-14-3.72-26.46-9.54-35.92-16.2q-2.66,1.8-5.61,3.48a108.38,108.38,0,0,0,27.17,14.45c4.08,1.52,8.36,2.89,12.82,4.07,37.82,10.06,71.51,2.64,76.7-16.88C336.39,234.78,327.92,221.37,312.1,210.49Z"/><path d="M217.34,193.45a43.91,43.91,0,0,1,9.13,3.7l.24-.06c1.58-.32,3.22-.58,4.89-.8-.48,1-.94,2.15-1.36,3.33a20.44,20.44,0,0,1,3.48,3.4,33.49,33.49,0,0,1,2.45-6.21,34.46,34.46,0,0,0-8.71-6c-.65.12-1.3.23-1.94.36A59.53,59.53,0,0,0,217.34,193.45Z"/><path d="M236.65,209c0,.13,0,.27.07.4a75.93,75.93,0,0,1,3.51-7.48,23.43,23.43,0,0,0-2.83-3.84c-1.13,1.91-2.15,3.89-3,5.81A14.15,14.15,0,0,1,236.65,209Z"/><path d="M217,237.76q-2.62,1.67-5.54,3.24c1.58,1.42,3.26,2.81,5.07,4.17q3-1.68,5.61-3.48C220.29,240.41,218.56,239.1,217,237.76Z"/></g><g id="Ebene_4" data-name="Ebene 4"><path class="cls-4" d="M190.55,163s-11.49-14.35,5.42-27.46c13.89-10.77,4.95-22.15,1.32-25.86a14.89,14.89,0,0,0-2.2-1.84c-3.89-2.72-19.21-14.32-15.16-25.71"/><path class="cls-4" d="M215.68,163.94s-11.48-14.35,5.42-27.45c13.9-10.78,5-22.15,1.33-25.86a16.27,16.27,0,0,0-2.21-1.85c-3.89-2.72-19.2-14.32-15.16-25.7"/><path class="cls-4" d="M239.54,163s-11.48-14.35,5.43-27.46c13.89-10.77,4.95-22.15,1.32-25.86a15.42,15.42,0,0,0-2.2-1.84c-3.89-2.72-19.21-14.32-15.17-25.71"/></g></svg>