<svg xmlns="http://www.w3.org/2000/svg" viewBox="0 0 491.5 491.5"><defs><style>.cls-1{fill:none;stroke:#000;stroke-linecap:round;stroke-linejoin:round;stroke-width:4px;}</style></defs><g id="Ebene_2" data-name="Ebene 2"><path class="cls-1" d="M215.83,113.06h0A11.18,11.18,0,0,1,227,124.24V465.11a0,0,0,0,1,0,0H204.64a0,0,0,0,1,0,0V124.24a11.18,11.18,0,0,1,11.18-11.18Z"/><path class="cls-1" d="M260.82,113.06h0A11.18,11.18,0,0,1,272,124.24V465.11a0,0,0,0,1,0,0H249.63a0,0,0,0,1,0,0V124.24a11.18,11.18,0,0,1,11.18-11.18Z"/><rect class="cls-1" x="162.7" y="266.67" width="14.31" height="23.26"/><line class="cls-1" x1="169.85" y1="289.92" x2="169.85" y2="459.45"/><line class="cls-1" x1="162.7" y1="450.01" x2="177.01" y2="450.01"/><rect class="cls-1" x="298.73" y="266.67" width="14.31" height="23.26"/><line class="cls-1" x1="305.88" y1="289.92" x2="305.88" y2="459.45"/><line class="cls-1" x1="298.73" y1="450.01" x2="313.04" y2="450.01"/><line class="cls-1" x1="198.53" y1="292.85" x2="232.14" y2="292.85"/><line class="cls-1" x1="199.02" y1="364.75" x2="232.63" y2="364.75"/><line class="cls-1" x1="243.77" y1="292.85" x2="277.38" y2="292.85"/><line class="cls-1" x1="244.25" y1="364.75" x2="277.87" y2="364.75"/><line class="cls-1" x1="227.01" y1="142.74" x2="204.64" y2="167.58"/><line class="cls-1" x1="249.63" y1="142.74" x2="272" y2="167.58"/><polyline class="cls-1" points="412.87 123.06 237.14 44.75 237.63 44.75 61.9 123.06"/></g></svg>