<svg xmlns="http://www.w3.org/2000/svg" viewBox="0 0 491.5 491.5"><defs><style>.cls-1,.cls-2{fill:none;stroke:#000;stroke-miterlimit:10;stroke-width:6px;}.cls-2{stroke-linecap:round;}</style></defs><g id="Ebene_4" data-name="Ebene 4"><path d="M447.37,242.52H429.65a14.52,14.52,0,0,1-14.5-14.5V216.89a14.52,14.52,0,0,1,14.5-14.5h17.72a14.51,14.51,0,0,1,14.5,14.5V228A14.52,14.52,0,0,1,447.37,242.52Zm-17.72-35.13a9.51,9.51,0,0,0-9.5,9.5V228a9.51,9.51,0,0,0,9.5,9.5h17.72a9.51,9.51,0,0,0,9.5-9.5V216.89a9.51,9.51,0,0,0-9.5-9.5Z"/><path d="M103.73,149.53a3,3,0,0,1-2.34-1.12,22.45,22.45,0,0,1-4.33-15.49c.72-6,4.17-11.49,10.26-16.21,4-3.07,6.09-6.37,6.33-9.81.36-5.18-3.6-9.82-5.31-11.58a12.26,12.26,0,0,0-1.78-1.48c-5-3.5-21-16-16.27-29.17a3,3,0,1,1,5.65,2c-1.34,3.79,0,8.23,4.11,13.21a52.42,52.42,0,0,0,10,9,18.72,18.72,0,0,1,2.63,2.21c2.83,2.9,7.51,8.85,7,16.18-.36,5.22-3.27,10-8.64,14.14-4.75,3.68-7.43,7.76-8,12.11a16.59,16.59,0,0,0,3.06,11.12,3,3,0,0,1-.5,4.2A3,3,0,0,1,103.73,149.53Z"/><path d="M208.23,150.45a3,3,0,0,1-2.34-1.12,22.51,22.51,0,0,1-4.33-15.5c.72-6,4.17-11.48,10.26-16.21,4-3.07,6.09-6.37,6.33-9.81.35-5.18-3.6-9.82-5.32-11.57a12.29,12.29,0,0,0-1.77-1.49c-5-3.5-21-15.94-16.27-29.17a3,3,0,1,1,5.65,2c-1.34,3.78,0,8.22,4.1,13.2a52.49,52.49,0,0,0,10,9,18.78,18.78,0,0,1,2.63,2.2c2.83,2.9,7.51,8.86,7,16.18-.36,5.22-3.26,10-8.63,14.15-4.78,3.7-7.46,7.79-8,12.17a16.59,16.59,0,0,0,3.06,11,3,3,0,0,1-2.35,4.87Z"/><path d="M312.73,149.54a3,3,0,0,1-2.34-1.13,22.45,22.45,0,0,1-4.33-15.49c.72-6,4.17-11.49,10.26-16.21,4-3.07,6.09-6.37,6.33-9.81.35-5.18-3.6-9.82-5.32-11.58a11.64,11.64,0,0,0-1.77-1.48c-5-3.5-21-16-16.27-29.17a3,3,0,1,1,5.65,2c-.59,1.66-2.68,10.54,14.06,22.25a18.07,18.07,0,0,1,2.62,2.21c2.84,2.9,7.52,8.85,7,16.18-.36,5.22-3.26,10-8.64,14.14-4.77,3.7-7.45,7.8-8,12.18a16.61,16.61,0,0,0,3.05,11,3,3,0,0,1-2.34,4.88Z"/><rect class="cls-1" x="43.83" y="178.03" width="356.16" height="254.76" rx="41.17"/><line class="cls-2" x1="97.17" y1="223.5" x2="97.17" y2="393.71"/><line class="cls-2" x1="348.29" y1="223.5" x2="348.29" y2="393.71"/><line class="cls-2" x1="285.51" y1="223.5" x2="285.51" y2="393.71"/><line class="cls-2" x1="222.73" y1="223.5" x2="222.73" y2="393.71"/><line class="cls-2" x1="159.95" y1="223.5" x2="159.95" y2="393.71"/></g></svg>