<svg xmlns="http://www.w3.org/2000/svg" viewBox="0 0 491.5 491.5"><defs><style>.cls-1,.cls-2,.cls-3{fill:none;}.cls-2,.cls-3{stroke:#000;stroke-width:3px;}.cls-2{stroke-miterlimit:10;}.cls-3{stroke-linecap:round;stroke-linejoin:round;}</style></defs><g id="Ebene_4" data-name="Ebene 4"><path class="cls-1" d="M92.19,111.82A2.19,2.19,0,0,0,90,114v64.43a2.19,2.19,0,1,0,4.37,0V114A2.19,2.19,0,0,0,92.19,111.82Z"/><path class="cls-1" d="M142.38,180.63a2.19,2.19,0,0,0,2.19-2.19V114a2.19,2.19,0,1,0-4.38,0v64.43A2.2,2.2,0,0,0,142.38,180.63Z"/><path class="cls-1" d="M109.36,209.93V399.74a7.79,7.79,0,1,0,15.58,0V209.93a7.34,7.34,0,0,0-.1-1.15H109.45A7.33,7.33,0,0,0,109.36,209.93Z"/><path class="cls-1" d="M117.28,180.63a2.19,2.19,0,0,0,2.19-2.19V114a2.19,2.19,0,1,0-4.37,0v64.43A2.19,2.19,0,0,0,117.28,180.63Z"/><path d="M153.1,83.66H81.47A13.51,13.51,0,0,0,68,97.16v98.12a13.51,13.51,0,0,0,13.5,13.5h25a10.93,10.93,0,0,0-.06,1.15V399.74a10.79,10.79,0,1,0,21.58,0V209.93a10.92,10.92,0,0,0-.07-1.15H153.1a13.51,13.51,0,0,0,13.5-13.5V97.16A13.51,13.51,0,0,0,153.1,83.66ZM124.94,399.74a7.79,7.79,0,1,1-15.58,0V209.93a7.33,7.33,0,0,1,.09-1.15h15.39a7.34,7.34,0,0,1,.1,1.15ZM163.6,195.28a10.51,10.51,0,0,1-10.5,10.5H81.47A10.51,10.51,0,0,1,71,195.28V97.16a10.51,10.51,0,0,1,10.5-10.5H153.1a10.51,10.51,0,0,1,10.5,10.5Z"/><path d="M92.19,108.82A5.19,5.19,0,0,0,87,114v64.43a5.19,5.19,0,1,0,10.37,0V114A5.18,5.18,0,0,0,92.19,108.82Zm2.18,69.62a2.19,2.19,0,1,1-4.37,0V114a2.19,2.19,0,1,1,4.37,0Z"/><path d="M117.28,183.63a5.19,5.19,0,0,0,5.19-5.19V114a5.19,5.19,0,1,0-10.37,0v64.43A5.19,5.19,0,0,0,117.28,183.63ZM115.1,114a2.19,2.19,0,1,1,4.37,0v64.43a2.19,2.19,0,1,1-4.37,0Z"/><path d="M142.38,183.63a5.19,5.19,0,0,0,5.19-5.19V114a5.19,5.19,0,1,0-10.38,0v64.43A5.2,5.2,0,0,0,142.38,183.63ZM140.19,114a2.19,2.19,0,1,1,4.38,0v64.43a2.19,2.19,0,0,1-4.38,0Z"/><path class="cls-1" d="M250.4,406a7.79,7.79,0,0,0,7.79-7.79V210.84a16.61,16.61,0,0,1-15.58,0v187.4A7.8,7.8,0,0,0,250.4,406Z"/><path class="cls-1" d="M270.12,103.36c-2.79-5.93-6-10.47-9.54-13.46.84,9.51,1.16,19.36,1.16,26.79,0,20.38-2.37,58.92-11.34,58.92s-11.33-38.54-11.33-58.92c0-7.43.31-17.28,1.15-26.79-3.5,3-6.74,7.53-9.54,13.46-5.56,11.79-8.62,27.5-8.62,44.24s3.06,32.45,8.62,44.24c5.38,11.39,12.38,17.67,19.72,17.67s14.35-6.28,19.72-17.67c5.57-11.79,8.63-27.5,8.63-44.24S275.69,115.15,270.12,103.36Z"/><path d="M273.08,102c-3.63-7.7-8.05-13.27-12.92-16.45a20.17,20.17,0,0,0-3.48-1.85c.15,1.24.3,2.51.43,3.81.88,8.73,1.36,18.76,1.36,29.22,0,15.22-1,29.5-2.82,40.24-2.17,12.79-4.69,15.41-5.25,15.41s-3.08-2.62-5.24-15.41c-1.82-10.74-2.82-25-2.82-40.24,0-10.46.47-20.49,1.36-29.22q.2-1.95.42-3.81a19.73,19.73,0,0,0-3.47,1.85c-4.87,3.18-9.29,8.75-12.93,16.45-5.76,12.22-8.93,28.43-8.93,45.64S222,181,227.72,193.23c3.38,7.15,7.43,12.48,11.89,15.75V398.24a10.79,10.79,0,0,0,21.58,0V209c4.46-3.27,8.52-8.6,11.89-15.75C278.84,181,282,164.81,282,147.6S278.84,114.18,273.08,102ZM258.19,398.24a7.79,7.79,0,0,1-15.58,0V210.84a16.61,16.61,0,0,0,15.58,0Zm11.93-206.4c-5.37,11.39-12.38,17.67-19.72,17.67s-14.34-6.28-19.72-17.67c-5.56-11.79-8.62-27.5-8.62-44.24s3.06-32.45,8.62-44.24c2.8-5.93,6-10.46,9.54-13.46-.84,9.51-1.15,19.36-1.15,26.79,0,20.38,2.37,58.92,11.33,58.92s11.34-38.54,11.34-58.92c0-7.43-.32-17.28-1.16-26.79,3.5,3,6.75,7.53,9.54,13.46,5.57,11.79,8.63,27.5,8.63,44.24S275.69,180.05,270.12,191.84Z"/><path class="cls-2" d="M411,91.14a8.48,8.48,0,0,0-9.48,7.37L371.8,336.56l-29.74-238a8.49,8.49,0,0,0-16.85,2.1l37.64,301.32a9.11,9.11,0,0,0,17.9,0l37.63-301.32A8.49,8.49,0,0,0,411,91.14Z"/><line class="cls-3" x1="335.87" y1="108.89" x2="343.42" y2="107.97"/><line class="cls-3" x1="336.9" y1="117.32" x2="344.45" y2="116.4"/><line class="cls-3" x1="337.93" y1="125.75" x2="345.48" y2="124.83"/><line class="cls-3" x1="338.96" y1="134.18" x2="346.51" y2="133.26"/><line class="cls-3" x1="340" y1="142.61" x2="347.55" y2="141.69"/><line class="cls-3" x1="341.03" y1="151.04" x2="348.58" y2="150.12"/><line class="cls-3" x1="407.86" y1="108.89" x2="400.31" y2="107.97"/><line class="cls-3" x1="406.83" y1="117.32" x2="399.28" y2="116.4"/><line class="cls-3" x1="405.8" y1="125.75" x2="398.25" y2="124.83"/><line class="cls-3" x1="404.76" y1="134.18" x2="397.21" y2="133.26"/><line class="cls-3" x1="403.73" y1="142.61" x2="396.18" y2="141.69"/><line class="cls-3" x1="402.7" y1="151.04" x2="395.15" y2="150.12"/></g></svg>