<svg xmlns="http://www.w3.org/2000/svg" viewBox="0 0 491.5 491.5"><defs><style>.cls-1,.cls-2,.cls-3,.cls-4{fill:none;stroke:#000;stroke-miterlimit:10;}.cls-1{stroke-width:6.46px;}.cls-2{stroke-width:6px;}.cls-3{stroke-width:6.52px;}.cls-4{stroke-linecap:round;stroke-width:7.06px;}</style></defs><g id="Ebene_2" data-name="Ebene 2"><path d="M215.46,357.44q-2.94-2-6.21-3.92a24.32,24.32,0,0,0-5.58,3.85,60.9,60.9,0,0,0-7.22,7.74,33.61,33.61,0,0,1,4.8-9,43,43,0,0,1,4-4.77c-1.35-.71-2.72-1.4-4.13-2.07a129.32,129.32,0,0,0-14-5.6c-2.85-1-5.78-1.86-8.8-2.66l-.64-.16a20.3,20.3,0,0,0-4.81,5,53.15,53.15,0,0,0-6,12.09c.08-4.63,2-9.16,3.92-12.57a42.63,42.63,0,0,1,3.56-5.35,126,126,0,0,0-26.71-3.41,26.77,26.77,0,0,0-5.39,6.06c-.53.77-1,1.57-1.5,2.38a63.28,63.28,0,0,0-3,5.81c-.53,1.13-1,2.24-1.45,3.3a24.68,24.68,0,0,1,.8-4.16,33.49,33.49,0,0,1,2.45-6.21l.53-1a35.47,35.47,0,0,1,3.19-4.89,2.17,2.17,0,0,0,.48-1.27c-1.73,0-3.42.12-5.09.25q-4,.32-7.82,1c-.65.12-1.3.23-1.94.36a59.53,59.53,0,0,0-8.18,2.24c-10.31,3.64-17,9.69-19,17.48-2.61,9.81,2.55,20.54,13.12,30.07q2.37,2.13,5.07,4.17A108.38,108.38,0,0,0,147,406.57c4.08,1.52,8.36,2.89,12.82,4.07,37.82,10.06,71.51,2.64,76.71-16.88C239.75,381.73,231.28,368.32,215.46,357.44Zm15.3,34.77c-4.19,15.74-36,21.52-69.37,12.63-14-3.72-26.46-9.54-35.92-16.2-1.82-1.28-3.54-2.59-5.13-3.93-9.84-8.28-15-17.42-12.88-25.29,2-7.32,9.89-12.75,22.37-15.32l.24-.06c1.58-.32,3.22-.58,4.89-.8-.48,1-.94,2.15-1.36,3.33-1.79,5.08-2.68,11.29-.26,17.45a2.11,2.11,0,0,0,1.25,1.23,2.2,2.2,0,0,0,.85.14,2.16,2.16,0,0,0,2-1.55c.53-1.82,1.45-4.52,2.67-7.5a75.93,75.93,0,0,1,3.51-7.48,40.18,40.18,0,0,1,4.1-6.29,116.09,116.09,0,0,1,18.66,1.89c-3.15,6-5.83,14.63-1.65,22.59a2.15,2.15,0,0,0,4-.49c1-4.16,4.19-14.08,8.74-19.6q5.79,1.57,11.2,3.58,4.44,1.66,8.57,3.58c-3.38,4.81-6.9,11.79-6.11,19.25a2.22,2.22,0,0,0,1.42,1.84l.24.07a2.22,2.22,0,0,0,2.36-.9c3.29-4.83,8.44-11.19,12.59-14.69C223.94,369.55,233.48,382,230.76,392.21Z"/><circle class="cls-1" cx="207.12" cy="277.63" r="174.23"/><circle class="cls-2" cx="144.49" cy="259.8" r="23.36"/><path class="cls-2" d="M74.43,257.77s20.28-16.34,19.51-40.72,16.38-29,16.38-29,22.89-8.09,32.54,15.76,25.63,9.45,40.46,18.86,44.87,25.72,5.94,57.73-37-2.64-74.5,33.11c0,0-25.13,25.71-49.09-8.63S74.43,257.77,74.43,257.77Z"/><path class="cls-3" d="M231.22,327l65.44-24.8s8.27,29.68-21.18,40.41S231.22,327,231.22,327Z"/><path class="cls-3" d="M288.16,345.88l65.44-24.8s8.27,29.68-21.18,40.41S288.16,345.88,288.16,345.88Z"/><path d="M465.5,30.15H364.18a9.69,9.69,0,0,0-9.66,9.67V141.14a9.84,9.84,0,0,0,.24,2.12h-.24l.42.68a9.68,9.68,0,0,0,2.61,4.2L364.89,160l10.38,16.7L385.65,160l5.69-9.16H465.5a9.69,9.69,0,0,0,9.67-9.66V39.82A9.7,9.7,0,0,0,465.5,30.15ZM412,125.36h-.1c-3.44,0-5.88-2.73-5.88-6.28,0-3.75,2.54-6.39,6.09-6.39s6,2.64,6,6.39C418.09,122.63,415.76,125.36,412,125.36Zm9.84-38.11c-4.46,5.27-6.08,9.83-5.78,15l.1,2.53h-7.91l-.2-2.63c-.61-5.37,1.22-11.46,6.29-17.44,4.56-5.47,7.09-9.43,7.09-14,0-5.17-3.24-8.61-9.63-8.72a18,18,0,0,0-10.24,3.15l-2.43-6.39c3.45-2.43,9.12-4,14.5-4,11.65,0,16.93,7.19,16.93,14.9C430.56,76.5,426.7,81.57,421.84,87.25Z"/></g><g id="Ebene_4" data-name="Ebene 4"><path class="cls-4" d="M249.86,248.68s-11.48-19.85,5.42-38c13.9-14.89,5-30.63,1.32-35.76a17.65,17.65,0,0,0-2.2-2.55c-3.89-3.76-19.2-19.81-15.16-35.56l-23.86,1.27c-4,15.75,11.27,31.79,15.16,35.56a17.13,17.13,0,0,1,2.2,2.55c3.63,5.13,12.57,20.86-1.32,35.76-16.91,18.13-5.42,38-5.42,38Z"/><path class="cls-4" d="M305,268.46s-11.48-19.85,5.43-38c13.89-14.89,4.95-30.63,1.32-35.76a18.29,18.29,0,0,0-2.2-2.55c-3.89-3.76-19.21-19.81-15.17-35.56l-23.86,1.27c-4,15.75,11.27,31.79,15.16,35.56a17.81,17.81,0,0,1,2.21,2.55c3.62,5.13,12.57,20.86-1.33,35.76-16.9,18.13-5.42,38-5.42,38Z"/></g></svg>