<?xml version="1.0" encoding="utf-8"?>
<!-- Generator: Adobe Illustrator 25.0.0, SVG Export Plug-In . SVG Version: 6.00 Build 0)  -->
<svg version="1.1" id="icon" xmlns="http://www.w3.org/2000/svg" xmlns:xlink="http://www.w3.org/1999/xlink" x="0px" y="0px"
	 viewBox="0 0 502.3 502.3" style="enable-background:new 0 0 502.3 502.3;" xml:space="preserve">
<style type="text/css">
	.st0{fill:none;stroke:#000000;stroke-width:7;stroke-miterlimit:10;}
	.st1{fill:none;stroke:#000000;stroke-width:7;stroke-linecap:round;stroke-linejoin:round;stroke-miterlimit:10;}
</style>
<line class="st0" x1="66.4" y1="440.5" x2="435.9" y2="67.5"/>
<path class="st0" d="M441.1,300.1H62.7c-2.2,0-4-1.8-4-4v-38.6c0-2.2,1.8-4,4-4h378.4c2.2,0,4,1.8,4,4v38.6
	C445.2,298.3,443.3,300.1,441.1,300.1z"/>
<line class="st0" x1="334.8" y1="252.8" x2="335.2" y2="301.8"/>
<path class="st1" d="M65.2,225.8c0,0-10.1-87.5,86.2-72.3c0,0-43.8-50,12.4-68c3.2-1,7.2-1.7,11.5-0.9"/>
<path class="st1" d="M95.3,226.8c0.4,0.4-3.3-27.7,23.8-40.3c11.6-5.4,27.2-2.2,55.7-2.6c14.2-0.1,47.7-21.6,6.2-45.7
	c-2.5,1.4,71.5-14.1,25.4-66.4c-2.3-2.6-5.2-5.6-10.3-7.5"/>
</svg>
