<svg xmlns="http://www.w3.org/2000/svg" viewBox="0 0 491.5 491.5"><defs><style>.cls-1{fill:none;}</style></defs><g id="Ebene_2" data-name="Ebene 2"><rect class="cls-1" x="115.41" y="338.06" width="15.32" height="66.83"/><rect class="cls-1" x="68.35" y="338.06" width="15.32" height="66.83"/><rect class="cls-1" x="162.47" y="338.06" width="15.32" height="66.83"/><rect class="cls-1" x="209.52" y="338.06" width="15.32" height="66.83"/><rect class="cls-1" x="256.58" y="338.06" width="15.32" height="66.83"/><path d="M312.57,404.89h-8.94V338.06h8.94a1.73,1.73,0,1,0,0-3.46h-8.94V294.86a1.75,1.75,0,0,0-.35-1.06l-7.07-9.17-7.07-9.16a1.79,1.79,0,0,0-2.74,0L272.26,293.8a1.76,1.76,0,0,0-.36,1.06V334.6H256.58V294.86a1.76,1.76,0,0,0-.36-1.06l-14.14-18.33a1.79,1.79,0,0,0-2.74,0L225.21,293.8a1.7,1.7,0,0,0-.36,1.06V334.6H209.52V294.86a1.7,1.7,0,0,0-.36-1.06l-7.06-9.17L195,275.47a1.79,1.79,0,0,0-2.74,0L178.15,293.8a1.76,1.76,0,0,0-.36,1.06V334.6H162.47V294.86a1.76,1.76,0,0,0-.36-1.06L155,284.63,148,275.47a1.79,1.79,0,0,0-2.74,0L131.09,293.8a1.76,1.76,0,0,0-.36,1.06V334.6H115.41V294.86a1.76,1.76,0,0,0-.36-1.06L108,284.63l-7.07-9.16a1.79,1.79,0,0,0-2.74,0L84,293.8a1.7,1.7,0,0,0-.36,1.06V334.6H68.35V294.86A1.7,1.7,0,0,0,68,293.8l-7.06-9.17-7.07-9.16a1.79,1.79,0,0,0-2.74,0L37,293.8a1.76,1.76,0,0,0-.36,1.06V334.6H27.68a1.73,1.73,0,0,0,0,3.46h8.94v66.83H27.68a1.73,1.73,0,1,0,0,3.46h8.94v38.54a1.74,1.74,0,0,0,1.73,1.73H66.62a1.73,1.73,0,0,0,1.73-1.73V408.35H83.68v38.54a1.73,1.73,0,0,0,1.73,1.73h28.27a1.73,1.73,0,0,0,1.73-1.73V408.35h15.32v38.54a1.74,1.74,0,0,0,1.74,1.73h28.27a1.74,1.74,0,0,0,1.73-1.73V408.35h15.32v38.54a1.74,1.74,0,0,0,1.73,1.73h28.27a1.73,1.73,0,0,0,1.73-1.73V408.35h15.33v38.54a1.73,1.73,0,0,0,1.73,1.73h28.27a1.74,1.74,0,0,0,1.73-1.73V408.35H271.9v38.54a1.74,1.74,0,0,0,1.73,1.73H301.9a1.73,1.73,0,0,0,1.73-1.73V408.35h8.94a1.73,1.73,0,1,0,0-3.46ZM64.89,334.6V445.16H40.08V295.45l12.41-16.09,12.4,16.09Zm18.79,70.29H68.35V338.06H83.68ZM112,334.6V445.16H87.14V295.45l12.4-16.09L112,295.45Zm18.78,70.29H115.41V338.06h15.32ZM159,334.6V445.16H134.2V295.45l12.4-16.09L159,295.45Zm18.78,70.29H162.47V338.06h15.32Zm28.27-70.29V445.16H181.25V295.45l12.41-16.09,12.4,16.09Zm18.79,70.29H209.52V338.06h15.33Zm28.27-70.29V445.16H228.31V295.45l12.4-16.09,12.41,16.09Zm18.78,70.29H256.58V338.06H271.9Zm28.27,40.27H275.36V295.45l12.41-16.09,12.4,16.09V445.16Z"/><path d="M415.48,447.74c-32-76.19-25.18-227.23-25.11-228.75l4.4.21c-.07,1.51-6.8,151.57,24.77,226.84Z"/><path d="M432.34,65.21a46.92,46.92,0,0,0-7.06.54,46.43,46.43,0,0,0-55-11A46.43,46.43,0,0,0,288.2,74.27C274,78.62,262,92.45,255.82,111.69a46.43,46.43,0,0,0,16.5,91.36,46.42,46.42,0,0,0,16.33,11.83A76,76,0,0,0,297,247.55c14.62,28.69,43.31,39.46,65.5,43.39.18,15.78.89,128.66-15.52,154.78l3.72,2.34c7.72-12.28,12.78-42.83,15-90.78,1.67-35.51,1.13-67.91,1.12-68.24l0-1.83-1.81-.3c-31.06-5.07-52.6-18.93-64-41.18a73.21,73.21,0,0,1-7.87-29.19,46.73,46.73,0,0,0,12.22,2.12c4.08,17.09,12.2,29.61,24.19,37.19C340,262.49,351.27,264,359.45,264a55.78,55.78,0,0,0,11.74-1.13l1.32-.3.32-1.31c2.74-11,1.43-25.11.79-30.42a46.22,46.22,0,0,0,35.78-36.32c14.19-4.35,26.17-18.18,32.37-37.42a46.44,46.44,0,0,0-9.43-91.91ZM368.88,258.86c-4.85.8-22.05,2.74-37-6.72-10.75-6.81-18.15-18.08-22-33.52a46.85,46.85,0,0,0,17.47-4.55,46.56,46.56,0,0,0,36.55,17.81,45.79,45.79,0,0,0,5.4-.32C369.84,236.5,371,249,368.88,258.86ZM439.69,153l-1.33.23-.39,1.29c-5.83,19.05-17.43,32.55-31,36.11l-1.38.36-.23,1.4A42,42,0,0,1,329.74,210l-1.13-1.56-1.7.91a42,42,0,0,1-52.05-10.06l-.82-1-1.26.23a42.85,42.85,0,0,1-7.53.68,42,42,0,0,1-7.34-83.43l1.33-.24.39-1.29c5.83-19,17.43-32.55,31-36.1l1.38-.36.23-1.41a42,42,0,0,1,75.58-17.55L369,60.39l1.69-.91a42.06,42.06,0,0,1,52.06,10.06l.82,1,1.26-.23a42.83,42.83,0,0,1,7.52-.68A42,42,0,0,1,439.69,153Z"/></g></svg>