<svg xmlns="http://www.w3.org/2000/svg" viewBox="0 0 491.5 491.5"><g id="Ebene_2" data-name="Ebene 2"><path d="M267.69,313.12H223.81a2.46,2.46,0,0,0-1.69,4.24l21.93,20.92a2.47,2.47,0,0,0,3.4,0l21.93-20.92a2.46,2.46,0,0,0-1.69-4.24Zm-21.94,20L230,318h31.6Z"/><path d="M401.55,90A220.33,220.33,0,0,0,90,401.55,220.33,220.33,0,0,0,401.55,90ZM245.75,35.42a209.87,209.87,0,0,1,158.5,72.22l-34,28.21,1.41-23.2a14.11,14.11,0,0,0-21.41-12.93L291.6,135.3a179.63,179.63,0,0,0-91.7,0L141.21,99.72a14.11,14.11,0,0,0-21.41,12.93l4.33,71.21c-12.36,16.59-18.89,35.52-18.89,54.81,0,30.57,16.46,59.51,44.8,80L80.85,376.16A209.29,209.29,0,0,1,35.42,245.75C35.42,129.77,129.77,35.42,245.75,35.42Zm116,151.25c12,15.73,18.32,33.71,18.32,52,0,33.49-21.34,65-57.09,84.39l-1.44.78-.15,1.63c-1.61,16.87-10.16,32.53-24.07,44.09a82.49,82.49,0,0,1-103.22,0c-13.91-11.56-22.46-27.22-24.07-44.09l-.15-1.63-1.44-.78c-1.62-.88-3.19-1.79-4.75-2.71L363,154.92l-1.87,30.84Zm-206.86,128c-27.52-19.43-43.55-47-43.55-76,0-18.29,6.34-36.27,18.33-52l.69-.91-4.47-73.48a8,8,0,0,1,8-8.48A8,8,0,0,1,138,105L199,141.92l1.27-.35a173.29,173.29,0,0,1,91,0l1.27.35,61-36.95a8,8,0,0,1,12.1,7.31l-1.76,28.95Zm90.82,141.42A209.92,209.92,0,0,1,87.24,383.85l71.48-59.34c1.77,1.08,3.57,2.15,5.41,3.17,2.14,17.88,11.36,34.38,26.08,46.61a88.63,88.63,0,0,0,111.08,0c14.72-12.23,23.94-28.73,26.08-46.61,36.91-20.51,58.89-53.68,58.89-89,0-19.29-6.53-38.22-18.89-54.81l2.09-34.33,41.19-34.2a209.34,209.34,0,0,1,45.43,130.42C456.08,361.73,361.73,456.08,245.75,456.08Z"/></g></svg>