<svg xmlns="http://www.w3.org/2000/svg" viewBox="0 0 491.5 491.5"><g id="Ebene_2" data-name="Ebene 2"><path d="M462.48,175.72a2.42,2.42,0,0,1-1-.21L251.66,82,41.81,175.51a2.4,2.4,0,0,1-2-4.39L249.53,77.69a2.39,2.39,0,0,1,1.84-.86H252a2.41,2.41,0,0,1,1.84.86l209.67,93.43a2.4,2.4,0,0,1-1,4.6Z"/><path d="M378.53,212a6,6,0,0,0-6.24-6.24,6.52,6.52,0,0,0-4.4,1.91L329.56,246l-10.17-10.17,38.33-38.33a6.17,6.17,0,1,0-8.72-8.73l-38.34,38.34L300.5,216.92l37.65-37.64a6.18,6.18,0,1,0-8.73-8.73l-37.81,37.8a2.4,2.4,0,0,0-2.44.55c-14.29,14.3-20.76,32.81-16.95,47l-.05.05L245.5,282.63l-.21-.21a2.47,2.47,0,0,0-.48-.68L136,172.88a2.4,2.4,0,0,0-3.4,0c-8.29,8.29-10,22-4.84,38.54,5,16,15.91,33,30.72,47.84,19.85,19.84,43.36,32.39,62.42,33.53a2.42,2.42,0,0,0,.57.91l6.51,6.5L132.5,395.63a2.33,2.33,0,0,0,0,3.31l15,15a2.33,2.33,0,0,0,3.31,0l95.43-95.43L333,405.26a2.38,2.38,0,0,0,3.39,0l14.18-14.17a2.41,2.41,0,0,0,0-3.4L263.85,301l26.67-26.67,0-.05c14.21,3.81,32.72-2.66,47-17a2.34,2.34,0,0,0,.54-2.44l38.5-38.49A6.52,6.52,0,0,0,378.53,212ZM149.19,409l-11.73-11.73,93.78-93.78L243,315.24Zm196.27-19.63-10.77,10.77-85-85-3.3-3.3-11.74-11.74-3.3-3.3L226.51,292a2.4,2.4,0,0,0,.37-2.48,2.44,2.44,0,0,0-2.27-1.46c-18.12.43-42.77-12.18-62.78-32.19-28-28-39.77-62-27.47-77.78L240.82,284.55a2.47,2.47,0,0,0,.48.68l.8.8,3.31,3.31,11.73,11.73,3.31,3.31Zm27.85-176.33-39.4,39.41a1.76,1.76,0,0,1-.3.24,2.34,2.34,0,0,0-1,1.71,2.5,2.5,0,0,0,.14,1.06c-14.3,13.39-33.06,18.71-45.26,12.64a2.34,2.34,0,0,0-2.7,3.75l.79.79-25,25-11.73-11.73,25-25,.79.79a2.34,2.34,0,0,0,3.74-2.7c-6.06-12.21-.73-31,12.67-45.29a2.36,2.36,0,0,0,2.41-.56l39.3-39.3a1.51,1.51,0,1,1,2.11,2.11l-39.3,39.3a2.33,2.33,0,0,0,0,3.31l13.53,13.52a2.33,2.33,0,0,0,3.59-.34,1.76,1.76,0,0,1,.24-.3l39.4-39.4a1.51,1.51,0,1,1,2.12,2.11L315,233.58a1.68,1.68,0,0,1-.29.24,2.34,2.34,0,0,0-.35,3.59L328,251a2.34,2.34,0,0,0,3.59-.35,1.37,1.37,0,0,1,.24-.29L371.2,211a1.76,1.76,0,0,1,1.22-.54,1.34,1.34,0,0,1,1.43,1.43A1.76,1.76,0,0,1,373.31,213.06Z"/></g></svg>