<svg xmlns="http://www.w3.org/2000/svg" viewBox="0 0 491.5 491.5"><defs><style>.cls-1,.cls-2{fill:none;}.cls-1{stroke:#000;stroke-linecap:round;stroke-linejoin:round;stroke-width:7.33px;}</style></defs><g id="Ebene_2" data-name="Ebene 2"><line class="cls-1" x1="91.35" y1="184.74" x2="359.82" y2="184.74"/><path class="cls-1" d="M353,171.13a127.44,127.44,0,0,0-254.87,0Z"/></g><g id="Ebene_4" data-name="Ebene 4"><path d="M221.49,18h8.2a8.11,8.11,0,0,1,8.11,8.11V42.38a0,0,0,0,1,0,0H213.38a0,0,0,0,1,0,0V26.08A8.11,8.11,0,0,1,221.49,18Z"/><path class="cls-2" d="M185.66,281.14H234.1a261.29,261.29,0,0,0-3-37.63l-42.35-.08A262.26,262.26,0,0,0,185.66,281.14Z"/><path class="cls-2" d="M209.88,197.39c-2.27,0-4.66,1.61-7,4.54l14.07,0C214.56,199,212.16,197.39,209.88,197.39Z"/><path class="cls-2" d="M265.15,238.16l57.4,57.61a15.26,15.26,0,0,0,5.13,3.41l.27.12,79.37,36A15.35,15.35,0,1,0,420,307.35L342.29,272.1l-59.54-59.76a15.1,15.1,0,0,0-9.25-4.43l-.32,0a15,15,0,0,0-3.39-.39l-41.15-.08c3.79,8.24,6.76,18.87,8.89,30.71Z"/><path d="M188.71,243.43l42.35.08q-.44-2.76-.93-5.42L189.65,238C189.32,239.79,189,241.59,188.71,243.43Z"/><path d="M216.93,202l-14.07,0a35.73,35.73,0,0,0-3.52,5.41l21.11,0A36.51,36.51,0,0,0,216.93,202Z"/><path d="M433.1,314a20.62,20.62,0,0,0-10.86-11.6l-76.81-34.84-58.84-59.07a20.81,20.81,0,0,0-12.37-6,21.3,21.3,0,0,0-4.42-.49l-44-.08a57.1,57.1,0,0,1,2.82,5.42l41.15.08a15,15,0,0,1,3.39.39l.32,0a15.1,15.1,0,0,1,9.25,4.43l59.54,59.76L420,307.35a15.35,15.35,0,1,1-12.68,27.95L328,299.3l-.27-.12a15.26,15.26,0,0,1-5.13-3.41l-57.4-57.61-27.62-.06q.48,2.67.9,5.42l24.46,0,55.82,56a20.54,20.54,0,0,0,6.86,4.56l79.52,36.07a20.76,20.76,0,0,0,28-26.21Z"/><path d="M167.22,222.62a15.36,15.36,0,0,1,15.35-15.31h8.58a59.3,59.3,0,0,1,2.83-5.41l-11.37,0h0a20.75,20.75,0,0,0-1.21,41.47q.42-2.73.9-5.37A15.38,15.38,0,0,1,167.22,222.62Z"/><path d="M185.63,284.8c0,1.23,0,2.45,0,3.67H234.1c0-1.22,0-2.44,0-3.67s0-2.45,0-3.66H185.66C185.65,282.35,185.63,283.57,185.63,284.8Z"/><path d="M241.44,288.47h41.34v174.8H131.48V288.47h46.85c0-1.23,0-2.45,0-3.67s0-2.44,0-3.66H127.81a3.66,3.66,0,0,0-3.66,3.66V466.94a3.66,3.66,0,0,0,3.66,3.66H286.44a3.66,3.66,0,0,0,3.67-3.66V284.8a3.66,3.66,0,0,0-3.67-3.66h-45c0,1.22,0,2.44,0,3.66S241.45,287.24,241.44,288.47Z"/><path d="M226.12,221.47a154.82,154.82,0,0,1,4,16.62h7.4c-2.13-11.84-5.1-22.47-8.89-30.71h-8.19A79.88,79.88,0,0,1,226.12,221.47Z"/><path d="M188.71,243.43h-6.18c-.39,0-.78,0-1.17-.06a273,273,0,0,0-3,37.78h7.33A262.26,262.26,0,0,1,188.71,243.43Z"/><path d="M234.1,281.14h7.34a275.64,275.64,0,0,0-3-37.62h-7.37A261.29,261.29,0,0,1,234.1,281.14Z"/><path d="M209.88,197.39c2.28,0,4.68,1.62,7.05,4.56l8.89,0c-4.42-7.47-9.75-11.91-15.94-11.91s-11.48,4.42-15.9,11.85l8.88,0C205.22,199,207.61,197.39,209.88,197.39Z"/><path d="M230.13,238.09q.5,2.66.93,5.42h7.37q-.42-2.75-.9-5.42Z"/><path d="M188.71,243.43c.3-1.84.61-3.64.94-5.42h-7.39q-.48,2.64-.9,5.37c.39,0,.78.06,1.17.06Z"/><path d="M199.34,207.34a35.73,35.73,0,0,1,3.52-5.41l-8.88,0a59.3,59.3,0,0,0-2.83,5.41Z"/><path d="M220.45,207.38h8.19a57.1,57.1,0,0,0-2.82-5.42l-8.89,0A36.51,36.51,0,0,1,220.45,207.38Z"/><path d="M234.13,284.8c0,1.23,0,2.45,0,3.67h7.34c0-1.23,0-2.45,0-3.67s0-2.44,0-3.66H234.1Q234.13,283,234.13,284.8Z"/><path d="M178.33,288.47h7.33c0-1.22,0-2.44,0-3.67s0-2.45,0-3.66h-7.33q0,1.83,0,3.66C178.3,286,178.31,287.24,178.33,288.47Z"/></g></svg>