<svg xmlns="http://www.w3.org/2000/svg" viewBox="0 0 491.5 491.5"><defs><style>.cls-1,.cls-2{fill:none;stroke:#000;stroke-miterlimit:10;}.cls-1{stroke-width:4px;}.cls-2{stroke-linecap:round;stroke-width:6px;}</style></defs><g id="Ebene_4" data-name="Ebene 4"><path class="cls-1" d="M367.89,299.92V275.16h-.12c-2.62-11.32-54.25-20.34-117.57-20.34s-114.95,9-117.58,20.34h-.11v29.77H107.87v10h24.64V417.43c0,11.74,52.69,21.25,117.69,21.25s117.69-9.51,117.69-21.25V310h24.64v-10Zm-34.71-9.54c-22.16,4-51.62,6.2-83,6.2s-60.83-2.2-83-6.2c-21.42-3.87-33.71-9.09-33.71-14.32a3.5,3.5,0,0,1,.13-.9c1.32-4.92,13.39-9.77,33.58-13.41,22.15-4,51.62-6.2,83-6.2s60.82,2.2,83,6.2c20.19,3.64,32.26,8.49,33.58,13.41a3.5,3.5,0,0,1,.13.9C366.89,281.29,354.6,286.51,333.18,290.38Z"/><path class="cls-1" d="M214.69,84c-23.64-17.84-66.59-7.6-101.52,24l-8.26-8a6.62,6.62,0,0,0-9.38.12l-4.69,4.8a6.64,6.64,0,0,0,.12,9.38l8.26,8.06C68.79,157.7,59.53,200.47,77.36,223.8c-6.23,11.33-8.32,19.45-5.09,22.62,3.65,3.59,13.55.25,27.17-8.27l1.16-.74,1.23-.79c18.55-12,43.36-32.94,68.65-58.69s45.54-50.65,57.27-69.38l.77-1.23.73-1.2c8.41-13.93,11.65-24,8-27.61C234,75.34,225.91,77.57,214.69,84Z"/><path class="cls-2" d="M224.88,232.43S213.4,218.08,230.3,205c13.9-10.77,4.95-22.15,1.32-25.86a14.89,14.89,0,0,0-2.2-1.84c-3.89-2.72-19.2-14.32-15.16-25.71"/><path class="cls-2" d="M250,233.34s-11.48-14.35,5.43-27.46c13.89-10.77,4.94-22.14,1.32-25.85a16.05,16.05,0,0,0-2.2-1.85c-3.9-2.72-19.21-14.32-15.17-25.71"/><path class="cls-2" d="M273.87,232.43S262.39,218.08,279.3,205c13.89-10.77,4.95-22.15,1.32-25.86a14.89,14.89,0,0,0-2.2-1.84c-3.89-2.72-19.21-14.32-15.16-25.71"/></g></svg>