<?xml version="1.0" encoding="utf-8"?>
<!-- Generator: Adobe Illustrator 25.0.0, SVG Export Plug-In . SVG Version: 6.00 Build 0)  -->
<svg version="1.1" xmlns="http://www.w3.org/2000/svg" xmlns:xlink="http://www.w3.org/1999/xlink" x="0px" y="0px"
	 viewBox="0 0 503.6 503.6" style="enable-background:new 0 0 503.6 503.6;" xml:space="preserve">
<style type="text/css">
	.st0{fill:none;stroke:#000000;stroke-width:7.4015;stroke-linecap:round;stroke-linejoin:round;stroke-miterlimit:10;}
	.st1{fill:none;stroke:#000000;stroke-width:6;stroke-linecap:round;stroke-linejoin:round;stroke-miterlimit:10;}
	.st2{fill:none;stroke:#000000;stroke-width:6.402;stroke-linecap:round;stroke-linejoin:round;stroke-miterlimit:10;}
	.st3{fill:none;stroke:#000000;stroke-width:10.2219;stroke-linecap:round;stroke-linejoin:round;stroke-miterlimit:10;}
	.st4{fill:none;stroke:#000000;stroke-width:8;stroke-linecap:round;stroke-linejoin:round;stroke-miterlimit:10;}
</style>
<g id="New_icon">
	<path class="st0" d="M429.2,97.4"/>
	<path class="st0" d="M71.2,103.8"/>
	<path class="st0" d="M429.2,275"/>
	<path class="st1" d="M140.8-13.9"/>
	<path class="st2" d="M257.1,450.3"/>
	<path class="st3" d="M170.5,490.2"/>
	<path class="st3" d="M332.1,490.2"/>
	<path class="st4" d="M251.8,406.7"/>
	<path class="st4" d="M176.3,427"/>
	<path class="st4" d="M176.3,68.5"/>
	<path class="st4" d="M189.9,65.3c125-18.2,172.4,47.2,170.3,111.5c-1.6,49.8-42.5,110.3-146.6,98.2"/>
	<path class="st4" d="M217.7,103.2c91.6-11,102.9,40.7,103.4,66.4c0.8,40.9-35.6,81.7-105.2,67.1"/>
	<path class="st4" d="M213.6,275l-0.3,146.6c0,9.5-7.8,17.2-17.2,17.2h-2.5c-9.5,0-17.4-7.8-17.4-17.4V77.4c0-6.6,8.8-12,12-12"/>
	<line class="st4" x1="214.9" y1="103.8" x2="215.9" y2="236.7"/>
</g>
<g id="Template_1_">
</g>
</svg>
