<svg xmlns="http://www.w3.org/2000/svg" viewBox="0 0 491.5 491.5"><defs><style>.cls-1{fill:none;stroke:#000;stroke-miterlimit:10;stroke-width:6px;}</style></defs><g id="Ebene_2" data-name="Ebene 2"><path d="M188.29,101.37a303.77,303.77,0,0,1,50.32-3.92c25.91,0,44.9,6,56.95,16.87,11.14,9.64,17.78,24.41,17.78,42.49,0,18.38-5.43,32.84-15.67,43.39-13.86,14.76-36.46,22.29-62.07,22.29-7.84,0-15.07-.3-21.09-1.8V302H188.29Zm26.22,97.92c5.72,1.51,13,2.11,21.69,2.11,31.64,0,50.92-15.37,50.92-43.39,0-26.81-19-39.77-47.91-39.77-11.45,0-20.18.9-24.7,2.11Z"/><rect class="cls-1" x="110.52" y="70.07" width="259.74" height="370.52" rx="12"/><path d="M141.05,343.66h38.88v7.82H150.36v24h27.32v7.71H150.36v32.67h-9.31Z"/><path d="M193.2,344.63a96.53,96.53,0,0,1,17.89-1.51c10,0,16.39,1.83,20.89,5.9,3.64,3.21,5.67,8.14,5.67,13.71,0,9.53-6,15.85-13.6,18.42v.32c5.57,1.93,8.89,7.07,10.6,14.57,2.36,10.06,4.07,17,5.57,19.81h-9.64c-1.17-2.14-2.78-8.25-4.82-17.24-2.14-10-6-13.71-14.46-14h-8.78v31.27H193.2Zm9.32,32.88h9.53c10,0,16.29-5.47,16.29-13.71,0-9.32-6.75-13.39-16.61-13.5a38.18,38.18,0,0,0-9.21.86Z"/><path d="M288.2,382H260.14v26h31.28v7.82h-40.6V343.66h39v7.82H260.14v22.81H288.2Z"/><path d="M340.89,382H312.83v26h31.28v7.82h-40.6V343.66h39v7.82H312.83v22.81h28.06Z"/></g></svg>