<svg xmlns="http://www.w3.org/2000/svg" viewBox="0 0 491.5 491.5"><g id="Layer_7" data-name="Layer 7"><path d="M209.32,222.59A89.3,89.3,0,0,0,193,224.1a5.14,5.14,0,0,1-6.08-5.28c.26-6.4.4-13,.4-19.67,0-66.61-13.5-120.6-30.15-120.6s-21.13,52.32-21.13,118.93c0,23.19-7.38,46.51-4.54,64.9a5.21,5.21,0,0,1-.85,3.71l-.06.09a5.17,5.17,0,0,1-8.77-.41c-14.34-25.44-40.43-60-53.3-55.15-16.42,6.21,2,53.83,16.65,92.56,8.63,22.83,16.35,41.22,26.94,59.26,4.89,8.34,7.74,14,12.24,22.56,17,32.28,48.64,54,84.93,54,54.2,0,81-39.68,81-99.44S263.52,222.59,209.32,222.59Z"/><path d="M268.62,95.66A110.07,110.07,0,0,1,287,94.22c9.48,0,16.43,2.21,20.84,6.17,4.08,3.53,6.5,8.93,6.5,15.55s-2,12-5.73,15.87c-5.07,5.4-13.34,8.16-22.71,8.16a33,33,0,0,1-7.71-.66v29.76h-9.59Zm9.59,35.82a32.18,32.18,0,0,0,7.93.77c11.58,0,18.63-5.62,18.63-15.87,0-9.81-6.94-14.55-17.53-14.55a40.27,40.27,0,0,0-9,.77Z"/><path d="M323.18,159.15A25.42,25.42,0,0,0,336,163c7.06,0,10.36-3.53,10.36-7.94,0-4.63-2.75-7.17-9.92-9.81-9.59-3.42-14.11-8.71-14.11-15.1,0-8.6,6.95-15.66,18.41-15.66a26.66,26.66,0,0,1,13.12,3.31l-2.42,7.06a20.74,20.74,0,0,0-10.92-3.09c-5.73,0-8.93,3.31-8.93,7.27,0,4.41,3.2,6.4,10.14,9,9.26,3.53,14,8.16,14,16.1,0,9.37-7.27,16.09-19.95,16.09a30.36,30.36,0,0,1-15-3.75Z"/><path d="M366.82,159.15A25.49,25.49,0,0,0,379.61,163c7.06,0,10.36-3.53,10.36-7.94,0-4.63-2.75-7.17-9.92-9.81-9.59-3.42-14.11-8.71-14.11-15.1,0-8.6,6.95-15.66,18.41-15.66a26.69,26.69,0,0,1,13.12,3.31L395,124.87a20.67,20.67,0,0,0-10.91-3.09c-5.73,0-8.93,3.31-8.93,7.27,0,4.41,3.2,6.4,10.14,9,9.26,3.53,14,8.16,14,16.1,0,9.37-7.27,16.09-19.95,16.09a30.36,30.36,0,0,1-15-3.75Z"/><path d="M423.48,102.93v12.79h13.89v7.38H423.48v28.77c0,6.62,1.87,10.36,7.27,10.36a18.1,18.1,0,0,0,5.62-.66l.45,7.28a23.45,23.45,0,0,1-8.6,1.43c-4.52,0-8.16-1.54-10.47-4.19-2.76-2.86-3.75-7.6-3.75-13.89V123.1h-8.27v-7.38H414v-9.81Z"/></g></svg>