<?xml version="1.0" encoding="utf-8"?>
<!-- Generator: Adobe Illustrator 25.0.0, SVG Export Plug-In . SVG Version: 6.00 Build 0)  -->
<svg version="1.1" xmlns="http://www.w3.org/2000/svg" xmlns:xlink="http://www.w3.org/1999/xlink" x="0px" y="0px"
	 viewBox="0 0 503.6 503.6" style="enable-background:new 0 0 503.6 503.6;" xml:space="preserve">
<style type="text/css">
	.st0{fill:none;stroke:#000000;stroke-width:7.4015;stroke-linecap:round;stroke-linejoin:round;stroke-miterlimit:10;}
	.st1{fill:none;stroke:#000000;stroke-width:8.1561;stroke-linecap:round;stroke-linejoin:round;stroke-miterlimit:10;}
	.st2{fill:none;stroke:#000000;stroke-width:7;stroke-linecap:round;stroke-linejoin:round;stroke-miterlimit:10;}
	.st3{fill:none;stroke:#000000;stroke-width:7.4594;stroke-linecap:round;stroke-linejoin:round;stroke-miterlimit:10;}
	.st4{fill:none;stroke:#000000;stroke-width:10.2219;stroke-linecap:round;stroke-linejoin:round;stroke-miterlimit:10;}
	.st5{fill:none;stroke:#000000;stroke-width:6.991;stroke-linecap:round;stroke-linejoin:round;stroke-miterlimit:10;}
</style>
<g id="New_icon">
	<path class="st0" d="M429.2,97.4"/>
	<path class="st1" d="M178.4,207.5"/>
	<path class="st2" d="M429.2,275"/>
	<path class="st1" d="M178.4,207.5"/>
	<path class="st3" d="M258,476.5"/>
	<path class="st4" d="M170.5,490.2"/>
	<path class="st4" d="M332.1,490.2"/>
	<path class="st1" d="M178.4,207.5"/>
	<path class="st1" d="M378.1,191"/>
	<path class="st1" d="M90.9,210.3"/>
	<path class="st1" d="M90.9,173.5v-30.9c0-7.7,6.3-14,14-14h293.9c7.7,0,14,6.3,14,14v205.2c0,7.7-6.3,14-14,14H104.9
		c-7.7,0-14-6.3-14-14v-27.6"/>
	<line class="st1" x1="90.9" y1="213.9" x2="90.9" y2="280.3"/>
	<path class="st1" d="M432.9,383H70.7c-3.5,0-6.3-2.8-6.3-6.3v-263c0-3.5,2.8-6.3,6.3-6.3h362.3c3.5,0,6.3,2.8,6.3,6.3v263
		C439.2,380.2,436.4,383,432.9,383z"/>
	<rect x="64.4" y="176.5" class="st1" width="52.9" height="33.8"/>
	<rect x="64.4" y="282.7" class="st1" width="52.9" height="33.8"/>
	<circle class="st1" cx="182.5" cy="258" r="47.7"/>
	<circle class="st1" cx="182.5" cy="258" r="28.4"/>
	<rect x="278.5" y="179.5" class="st5" width="87.5" height="47.1"/>
	<circle class="st5" cx="291.8" cy="253.1" r="2.4"/>
	<circle class="st5" cx="321.3" cy="253.1" r="2.4"/>
	<circle class="st5" cx="350.9" cy="253.1" r="2.4"/>
	<circle class="st5" cx="291.8" cy="274.7" r="2.4"/>
	<circle class="st5" cx="321.3" cy="274.7" r="2.4"/>
	<circle class="st5" cx="350.9" cy="274.7" r="2.4"/>
	<circle class="st5" cx="291.8" cy="296.2" r="2.4"/>
	<circle class="st5" cx="321.3" cy="296.2" r="2.4"/>
	<circle class="st5" cx="350.9" cy="296.2" r="2.4"/>
	<polygon class="st5" points="147.8,417.9 95.9,410.9 86.9,383 147.8,383 	"/>
	<polygon class="st5" points="353.3,417.9 405.2,410.9 414.3,383 353.3,383 	"/>
</g>
<g id="Template_1_">
</g>
</svg>
