<svg xmlns="http://www.w3.org/2000/svg" viewBox="0 0 491.5 491.5"><defs><style>.cls-1,.cls-2{fill:none;}.cls-1{stroke:#000;stroke-linecap:round;stroke-miterlimit:10;stroke-width:6px;}</style></defs><g id="Ebene_4" data-name="Ebene 4"><path class="cls-1" d="M276.51,139.49S265,125.14,281.93,112c13.9-10.77,4.95-22.14,1.32-25.85a14.94,14.94,0,0,0-2.2-1.85c-3.89-2.72-19.2-14.32-15.16-25.71"/><path class="cls-1" d="M301.64,140.4s-11.48-14.35,5.42-27.45C321,102.18,312,90.8,308.39,87.09a16,16,0,0,0-2.2-1.84C302.29,82.52,287,70.92,291,59.54"/><path class="cls-1" d="M325.5,139.49S314,125.14,330.93,112c13.89-10.77,4.95-22.14,1.32-25.85a14.94,14.94,0,0,0-2.2-1.85c-3.89-2.72-19.21-14.32-15.17-25.71"/><polygon class="cls-2" points="232.49 413.2 372.52 413.2 407.2 174 242.66 174 211.59 274.4 232.49 413.2"/><path class="cls-2" d="M96.73,400.12a67.92,67.92,0,0,0,82.19-37.62c.23-.52.44-1,.66-1.57a36.32,36.32,0,0,1-8.38.82c-15.62,0-40.6-5.78-59-11.48C89.88,343.37,59.67,331.2,50.49,321A67.92,67.92,0,0,0,96.73,400.12Z"/><polygon class="cls-2" points="196.48 174 204.02 224.12 219.53 174 196.48 174"/><path class="cls-2" d="M51.77,316c1.22,4.75,21.38,18,61.57,30.46,23.62,7.31,41.69,10.46,53.32,11.17a66.87,66.87,0,0,0,7.92.08,24.6,24.6,0,0,0,4.46-.61,6,6,0,0,0,2.59-2.88c-.85-1.89-4.17-4.86-10-8.47-1.35-.83-2.82-1.69-4.44-2.58-10.21-5.65-25.81-12.42-47-19-40.82-12.63-65.06-12.87-68.15-9.48a2.72,2.72,0,0,1-.09.56C51.9,315.51,51.84,315.75,51.77,316Z"/><path d="M51.77,316c.07-.24.13-.48.21-.72a2.72,2.72,0,0,0,.09-.56,1.26,1.26,0,0,0-.31.49A1.52,1.52,0,0,0,51.77,316Z"/><path d="M50.49,321q.54-2.5,1.28-5a1.52,1.52,0,0,1,0-.79,1.26,1.26,0,0,1,.31-.49,2.22,2.22,0,0,0-3.56-1.88,4.66,4.66,0,0,0-.57,1.19C47.27,316.15,48.27,318.51,50.49,321Z"/><path d="M244.21,169l3-9.6a11,11,0,1,0-21.11-6.53l-5,16.13H190.67l10,66.11L168.38,339.28c-13.35-7.22-32-14.26-47-18.91-26.6-8.23-66.8-16.64-72.9-7.54a2.22,2.22,0,0,1,3.56,1.88c3.09-3.39,27.33-3.15,68.15,9.48,21.15,6.55,36.75,13.32,47,19,1.62.89,3.09,1.75,4.44,2.58,5.84,3.61,9.16,6.58,10,8.47a6,6,0,0,1-2.59,2.88,24.6,24.6,0,0,1-4.46.61,66.87,66.87,0,0,1-7.92-.08c-11.63-.71-29.7-3.86-53.32-11.17C73.15,334,53,320.74,51.77,316q-.74,2.49-1.28,5c9.18,10.21,39.39,22.38,61.66,29.28,18.45,5.7,43.43,11.5,59,11.48a36.32,36.32,0,0,0,8.38-.82c-.22.53-.43,1.05-.66,1.57A67.82,67.82,0,0,1,50.49,321c-2.22-2.48-3.22-4.84-2.55-7a4.66,4.66,0,0,1,.57-1.19,2.18,2.18,0,0,0-.79,1.12A72.28,72.28,0,0,0,185.6,357.39a10.62,10.62,0,0,0,1-2.28l21.58-69.72,20,132.81H376.84L413,169Zm-47.73,5h23.05L204,224.12Zm10,100-23.41,75.64a46.32,46.32,0,0,0-10.24-7.83l29.5-95.34,3.4-11,19-61.49,1.55-5,4.53-14.65a6,6,0,0,1,11.56,3.57L239,169l-1.54,5-27.55,89Zm166,139.19h-140l-20.9-138.8L242.66,174H407.2Z"/></g></svg>