<?xml version="1.0" encoding="utf-8"?>
<!-- Generator: Adobe Illustrator 25.0.0, SVG Export Plug-In . SVG Version: 6.00 Build 0)  -->
<svg version="1.1" id="Ebene_1" xmlns="http://www.w3.org/2000/svg" xmlns:xlink="http://www.w3.org/1999/xlink" x="0px" y="0px"
	 viewBox="0 0 491.5 491.5" style="enable-background:new 0 0 491.5 491.5;" xml:space="preserve">
<g id="Layer_x0020_1">
	<g id="_168942904">
		<path id="_168944392" d="M416.1,192.5l0.7,18.6l0,0v0.1l0,0c0,0.1,0,0.1,0,0.2c0.3,5.2,0.9,11,1.5,17.1
			c1.2,11.5,2.4,23.9,2.1,34.4c-0.4,16.2-4.4,28.3-17.2,28.1h-0.1l0,0c-0.1,0-0.1,0-0.2,0l-90,1.8l-69.2,25.3l0,0
			c-0.5,0.2-1,0.3-1.5,0.2c-101.8,3.1-148.6-18.9-148.7-19l1.6-3.5l-1.6,3.5c-0.1,0-0.2-0.1-0.3-0.1c-8.7-4.5-14.5-9-17.9-13.4
			c-4.4-5.5-5.2-10.9-3.5-16c1.5-4.4,4.8-8.4,9.5-12.1c5-3.9,11.5-7.4,18.6-10.6c23.9-10.5,55-16.8,56.6-17.1h0.1l0,0l0,0
			c10.5-2.6,20.6-6.2,30-10.3c9.6-4.1,18.5-8.7,26.6-13.5c30.6-17.8,50-37.2,50.1-37.3l0,0c1.2-1.2,3.1-1.4,4.6-0.6
			c4.7,2.1,68.6,29.5,143.9,20.4l0,0c2.1-0.3,4,1.2,4.3,3.3C416.1,192.1,416.1,192.3,416.1,192.5L416.1,192.5z M413,211.3l-3.8,0.1
			l-0.6-14.8c-69.8,7.3-129.3-15.4-141.8-20.6c-5.7,5.3-23.9,21.6-49.8,36.7c-8.4,4.9-17.6,9.7-27.4,13.9
			c-9.8,4.2-20.2,7.9-31.2,10.6c-0.1,0-0.3,0.1-0.4,0.1l-0.7-3.8l0.7,3.8c-0.1,0-31.4,6.2-55.1,16.6c-6.6,2.9-12.5,6.1-16.9,9.6
			c-3.5,2.7-6,5.6-6.9,8.5c-0.9,2.7-0.3,5.6,2.3,8.9c2.8,3.6,7.9,7.4,15.6,11.4l0,0c3.1,1.4,48.5,21.1,144.8,18.2l68.9-25.2
			c0.5-0.2,1-0.3,1.5-0.3l0.1,3.8l-0.1-3.8l90.7-1.8c0.2,0,0.3,0,0.5,0l0,0c6.9,0.2,9.2-8.7,9.5-20.6c0.2-10.1-1-22.2-2.1-33.5
			c-0.6-6.2-1.2-12.1-1.5-17.3c0-0.1,0-0.2,0-0.3L413,211.3L413,211.3z"/>
		<path id="_168944320" d="M411.5,323.7H318c-2.1,0-3.8-1.7-3.8-3.8v-30.1c0-2.1,1.7-3.8,3.8-3.8h93.5c2.1,0,3.8,1.7,3.8,3.8v30.1
			C415.3,322,413.6,323.7,411.5,323.7z M321.8,316.1h85.8v-22.5h-85.8V316.1z"/>
		<g>
			<path id="_168944224" d="M263,214c-1.2,0-2.4,0.5-3.2,1.3c-0.8,0.8-1.3,1.9-1.3,3.2c0,1.2,0.5,2.4,1.3,3.2
				c0.8,0.8,1.9,1.3,3.2,1.3c1.2,0,2.4-0.5,3.2-1.3s1.3-1.9,1.3-3.2s-0.5-2.4-1.3-3.2C265.4,214.5,264.2,214,263,214z M254.4,209.9
				c2.2-2.2,5.2-3.6,8.6-3.6s6.4,1.4,8.6,3.6c2.2,2.2,3.6,5.2,3.6,8.6s-1.4,6.4-3.6,8.6s-5.2,3.6-8.6,3.6s-6.4-1.4-8.6-3.6
				s-3.6-5.2-3.6-8.6C250.9,215.1,252.2,212.1,254.4,209.9z"/>
			<path id="_168944176" d="M241.5,194.6c0.2,2.7,1.2,7,4.4,10.8c2.2,2.6,5.5,5,10.4,6.6l-2.3,7.3c-6.5-2.1-10.9-5.4-14-8.9
				c-4.5-5.4-5.8-11.3-6.2-15.1L241.5,194.6L241.5,194.6z"/>
		</g>
		<g>
			<path id="_168943024" d="M233.7,233.8c-1.2,0-2.4,0.5-3.2,1.3s-1.3,1.9-1.3,3.2c0,1.2,0.5,2.4,1.3,3.2c0.8,0.8,1.9,1.3,3.2,1.3
				c1.2,0,2.4-0.5,3.2-1.3s1.3-1.9,1.3-3.2s-0.5-2.4-1.3-3.2C236,234.3,234.9,233.8,233.7,233.8z M225.1,229.6
				c2.2-2.2,5.2-3.6,8.6-3.6c3.4,0,6.4,1.4,8.6,3.6c2.2,2.2,3.6,5.2,3.6,8.6s-1.4,6.4-3.6,8.6c-2.2,2.2-5.2,3.6-8.6,3.6
				c-3.4,0-6.4-1.4-8.6-3.6c-2.2-2.2-3.6-5.2-3.6-8.6C221.5,234.9,222.9,231.8,225.1,229.6z"/>
			<path id="_168942976" d="M212.2,214.3c0.2,2.7,1.2,7,4.4,10.8c2.2,2.6,5.5,5,10.4,6.6l-2.3,7.3c-6.5-2.1-10.9-5.4-14-8.9
				c-4.5-5.4-5.8-11.3-6.2-15.1L212.2,214.3L212.2,214.3z"/>
		</g>
	</g>
</g>
</svg>
