<svg xmlns="http://www.w3.org/2000/svg" viewBox="0 0 491.5 491.5"><defs><style>.cls-1,.cls-2,.cls-3{fill:none;stroke:#000;}.cls-1,.cls-2{stroke-linecap:round;stroke-linejoin:round;}.cls-1{stroke-width:2.34px;}.cls-2{stroke-width:2.21px;}.cls-3{stroke-miterlimit:10;stroke-width:4px;}</style></defs><g id="Ebene_2" data-name="Ebene 2"><path class="cls-1" d="M347.1,175.2c0,9.26-44,16.78-98.24,16.78s-98.25-7.52-98.25-16.78Z"/><line class="cls-2" x1="248.86" y1="205.46" x2="248.86" y2="243.53"/><line class="cls-2" x1="207.54" y1="202.53" x2="196.94" y2="240.29"/><line class="cls-2" x1="170.76" y1="198.62" x2="139.46" y2="233.88"/><line class="cls-2" x1="294.3" y1="202.34" x2="304.9" y2="240.1"/><line class="cls-2" x1="331.08" y1="198.43" x2="362.38" y2="233.69"/><path d="M383.44,281.46H285.83a10.63,10.63,0,0,0-7.66,3.27V283.1a12,12,0,0,0-12-12H162.29a12,12,0,0,0-11.95,11,21.26,21.26,0,1,0-.05,2.49v7a12,12,0,0,0,12,12H266.17a12,12,0,0,0,10.45-6.15,10.67,10.67,0,0,0,9.21,5.32h97.61a10.68,10.68,0,0,0,10.66-10.66h0A10.68,10.68,0,0,0,383.44,281.46Z"/></g><g id="Ebene_4" data-name="Ebene 4"><rect class="cls-3" x="58.83" y="303.6" width="384.18" height="57.02" rx="12"/><rect class="cls-3" x="58.83" y="130.38" width="384.18" height="28.51" rx="8.49"/></g></svg>