<svg xmlns="http://www.w3.org/2000/svg" viewBox="0 0 491.5 491.5"><g id="Ebene_2" data-name="Ebene 2"><path d="M446.73,453.86l-17-110.13h0l-17-110.14a1.5,1.5,0,0,0-.54-.93V105.56a1.6,1.6,0,0,0-.05-.39l0-.09a1.52,1.52,0,0,0-.18-.36h0a1.18,1.18,0,0,0-.29-.3l0,0L347.89,54.93a1.5,1.5,0,0,0-1.84,0l-63.39,49.13h-.15a1.5,1.5,0,0,0-1.5,1.5v92.11c-4.82-.5-18.49-1.15-27,6.1-4.61,3.94-7,9.54-6.94,16.67,0,6-6.33,21.41-17,41.15a610.11,610.11,0,0,1-42.53,67.18c-56.72,78-91.81,90.14-107.68,90.47a9.63,9.63,0,0,0-9.3,9.65v4.36H47.16a11.08,11.08,0,0,0-11.07,11.06v12.58H86.74l1.5,0v-.05c18.72-.77,47.6-8,81.31-37.35C210.18,384.11,247,326,279,246.73l-14.94,97v0l-17,110.1a1.5,1.5,0,0,0,3,.46l16.77-108.87H427l16.77,108.87a1.51,1.51,0,0,0,1.48,1.27l.24,0A1.5,1.5,0,0,0,446.73,453.86ZM407.07,213.72V185h2.19v28.7ZM392,185v28.7h-5.81V185Zm2.54,46.59V165.75l5-6.5,5,6.5v65.86ZM371.06,185v28.7h-5.81V185Zm2.54,46.59V165.75l5-6.5,5,6.5v65.86ZM350.15,185v28.7h-5.81V185Zm2.54,46.59V165.75l5-6.5,5,6.5v65.86ZM329.24,185v28.7h-5.81V185Zm2.53,46.59V165.75l5-6.5,5,6.5v65.86ZM308.32,185v28.7h-5.81V185Zm2.54,46.59V165.75l5-6.5,5,6.5v65.86Zm-20.91,0V165.75l5-6.5,5,6.5v65.86Zm119.31-49.13h-2.19V165.32a1.28,1.28,0,0,0-.26-.78l-6.28-8.15a1.27,1.27,0,0,0-1-.47h0a1.26,1.26,0,0,0-1,.47l-6.28,8.15a1.29,1.29,0,0,0-.27.78v17.16h-5.81V165.32a1.28,1.28,0,0,0-.26-.78l-6.28-8.15a1.35,1.35,0,0,0-2,0l-6.29,8.15a1.28,1.28,0,0,0-.26.78v17.16h-5.81V165.32a1.28,1.28,0,0,0-.26-.78l-6.29-8.15a1.25,1.25,0,0,0-1-.47h0a1.27,1.27,0,0,0-1,.47l-6.28,8.15a1.28,1.28,0,0,0-.26.78v17.16h-5.81V165.32a1.29,1.29,0,0,0-.27-.78l-6.28-8.15a1.35,1.35,0,0,0-2,0l-6.28,8.15a1.28,1.28,0,0,0-.26.78v17.16h-5.81V165.32a1.29,1.29,0,0,0-.27-.78l-6.28-8.15a1.27,1.27,0,0,0-1-.47,1.18,1.18,0,0,0-1,.47l-6.28,8.15a1.29,1.29,0,0,0-.27.78v17.16h-5.81V165.32a1.28,1.28,0,0,0-.26-.78L296,156.39a1.35,1.35,0,0,0-2,0l-6.29,8.15a1.28,1.28,0,0,0-.26.78v17.16H284V107.06H409.26ZM284,185h3.4v28.7H284V185Zm0,31.24h3.4v16.05H284Zm18.5,0h5.81v16.05h-5.81Zm20.92,0h5.81v16.05h-5.81Zm20.91,0h5.81v16.05h-5.81Zm20.91,0h5.81v16.05h-5.81Zm20.91,0H392v16.05h-5.81Zm20.91,0h2.19v16.05h-2.19ZM347,58l59.41,46.05H287.55ZM86.7,453.86l-.58,0h-47v-9.58a8.08,8.08,0,0,1,8.07-8.06H73.61v-7.36A6.61,6.61,0,0,1,80,422.24c38.27-.78,85.37-57.79,110-91.71,31.46-43.24,60.09-95.71,60.07-110.09,0-6.21,2-11,5.88-14.38,7.71-6.59,20.93-5.8,25-5.37v32.84C204.9,430,119.78,453.06,86.7,453.86ZM267.3,342.45l16.5-107.14H410l16.5,107.14Z"/></g></svg>