<svg xmlns="http://www.w3.org/2000/svg" viewBox="0 0 491.5 491.5"><defs><style>.cls-1{fill:none;stroke:#000;stroke-miterlimit:10;stroke-width:4px;}</style></defs><g id="Layer_7" data-name="Layer 7"><path d="M73.15,264s71.37-89.21,166.11-22.14c0,0-31.41-68.85-97.54-56.5C83,196.37,73.15,264,73.15,264Z"/><path d="M221.41,73.86S310.62,145.22,243.56,240c0,0,68.85-31.41,56.5-97.55C289.09,83.7,221.41,73.86,221.41,73.86Z"/><path d="M409.9,223.82S338.54,313,243.79,246c0,0,31.41,68.84,97.54,56.49C400.06,291.5,409.9,223.82,409.9,223.82Z"/><path d="M260.79,414.86s-89.21-71.37-22.15-166.12c0,0-68.84,31.41-56.49,97.55C193.11,405,260.79,414.86,260.79,414.86Z"/><path d="M107.84,139.37S221.39,126.75,241,241.17c0,0,26.47-70.9-29-108.93C162.66,98.47,107.84,139.37,107.84,139.37Z"/><path d="M347.17,109.72s12.61,113.55-101.8,133.13c0,0,70.89,26.47,108.92-29C388.06,164.54,347.17,109.72,347.17,109.72Z"/><path d="M374.41,349.05s-113.55,12.61-133.12-101.8c0,0-26.47,70.89,29,108.92C319.6,389.94,374.41,349.05,374.41,349.05Z"/><path d="M133.89,378.69s-12.62-113.55,101.8-133.12c0,0-70.9-26.47-108.93,29C93,323.88,133.89,378.69,133.89,378.69Z"/><circle class="cls-1" cx="241.53" cy="244.36" r="195.16"/></g></svg>