<svg xmlns="http://www.w3.org/2000/svg" viewBox="0 0 491.5 491.5"><defs><style>.cls-1{fill:none;stroke:#000;stroke-miterlimit:10;stroke-width:4px;}</style></defs><g id="Layer_7" data-name="Layer 7"><line class="cls-1" x1="230.73" y1="87.3" x2="230.73" y2="121.4"/><path d="M613,462.6,472.33,219l-2.42,4.19L54.55-15.84l-2,3.46,415.35,239-46.15,79.94L405.81,279l-45.76,79.27-23.13-40.07-17.26,29.89A48.35,48.35,0,0,0,223,349c0,1.23.06,2.44.15,3.65L152.8,230.88l-50.56,87.59L86.29,290.84-14.25,465h31.9l-5.48,9.5h234.5l-10.29,17.82H437.45L420.31,462.6Zm-341.65-130A16.44,16.44,0,1,1,254.89,349,16.44,16.44,0,0,1,271.32,332.56ZM428.79,487.29H245.05l10.28-17.82H20.83l5.48-9.5H-5.59L86.29,300.84l15.95,27.63,50.56-87.59L270.06,444l.22-.38,1,1.67,22.25-38.53,16.77-29a48.79,48.79,0,0,0,5.4-9.36l.07-.12h0a48.36,48.36,0,0,0,2.6-7.84l18.6-32.21,23.13,40.07L405.81,289l15.95,27.63L472.33,229l132,228.6H411.65Z"/><path d="M261.43,215.51a14,14,0,0,0,14-14V132.86a14,14,0,0,0-14-14H201.09a14,14,0,0,0-14,14v68.65a14,14,0,0,0,14,14Zm-70.34-14V132.86a10,10,0,0,1,10-10h60.34a10,10,0,0,1,10,10v68.65a10,10,0,0,1-10,10H201.09A10,10,0,0,1,191.09,201.51Z"/><path d="M251.89,165.54a13.84,13.84,0,1,0,0-27.67H210.47a13.84,13.84,0,0,0,0,27.67Zm-51.25-13.83a9.84,9.84,0,0,1,9.83-9.84h41.42a9.84,9.84,0,1,1,0,19.67H210.47A9.84,9.84,0,0,1,200.64,151.71Z"/></g></svg>