<svg xmlns="http://www.w3.org/2000/svg" viewBox="0 0 491.5 491.5"><g id="Layer_7" data-name="Layer 7"><path d="M265.74,225.55h0a48.37,48.37,0,1,0-88.78,0h-.18l.81,1.38a47.45,47.45,0,0,0,4,6.92L199,264.07l22.24,38.53,22.24-38.53,16.77-29a47.76,47.76,0,0,0,5.4-9.36ZM221.33,189.9a16.44,16.44,0,1,1-16.44,16.44A16.43,16.43,0,0,1,221.33,189.9Z"/><path d="M286.19,440.6a4.71,4.71,0,0,1-1.57-.27l-30.73-10.49-24.58-6.7a5.66,5.66,0,0,1-.58-.2l-36.38-14.82-7.82,16.23a4.76,4.76,0,0,1-2.91,2.5l-5.7,1.76.74,4.07a4.78,4.78,0,0,1-3,5.35,13.79,13.79,0,0,1-10.87-1c-5.59-2.83-10-8.92-13.12-18.12-5.5-.13-15.48-1.32-23.11-7.54a44.81,44.81,0,0,1-38,6.41c-6.39,4.2-20,12.16-28.25,10.06a9.34,9.34,0,0,1-6.15-4.89,7.63,7.63,0,0,1-.31-7C55.76,412,60.34,411,65.65,410A66.15,66.15,0,0,0,73.38,408c-5.44-.48-8.72-2.57-9.76-6.23a21.71,21.71,0,0,0-3.16-3c-4.7-4-11.8-10-10.52-21.42a13.29,13.29,0,0,1,1.33-4.76c-6.78.5-13.61,0-14.82-6.63-.3-1.68-.49-3.29-.66-4.71-.69-5.82-.95-8-6.46-9.57-2.17-.63-8.8-2.52-10.59-8.49C17,337.44,20.16,330.69,30,319.19,40.91,306.48,42.82,293.58,43.1,291c-.51-2.88-1.41-10.51,1.89-16.87a13,13,0,0,1-6.33-10,33,33,0,0,1-.16-4.53,15,15,0,0,1-8.92-.11,10.76,10.76,0,0,1-6.52-7.21,9.34,9.34,0,0,1,.65-7.88c2.32-3.81,6.8-4.61,11.14-5.37.59-.11,1.2-.21,1.8-.33a10.2,10.2,0,0,1-1.16-1.12c-3.77-4.16-4.92-11.45-3.64-22.93-.13-3.26-.28-24.14,16.71-38.81,4.67-4,8.14-5.45,11.59-4.74,4.6,1,6.64,5.14,9,10,3.51,7.22,8.81,18.12,25.11,25.57a4.78,4.78,0,0,1,2.45,6.18c-.38,1-.9,3.5,0,4.64s4,2,9.79,1.29c1.39-3.46,4.94-9.1,13.72-11.61a2.73,2.73,0,0,0,2-1.47c1.11-2.38-.11-7.37-1.29-10a4.8,4.8,0,0,1,5.51-6.62c.52.12,12.7,2.81,22.36-5.73L142.23,179a4.76,4.76,0,0,1-1.54-6.3c.1-.18,9.94-17.46,29.56-11.11L211,143.53l-1-6.93a4.79,4.79,0,0,1,8.73-3.34c.1.14,9.66,14,22,14.29l-.68-4.07a4.8,4.8,0,0,1,4.73-5.59h6l-1.7-16.5a4.8,4.8,0,0,1,3.39-5.09l3.28-1-4.34-20.48a4.82,4.82,0,0,1,1.72-4.76L267.43,78.8a4.79,4.79,0,0,1,6.36.37L282.58,88l14.16-7.39a4.87,4.87,0,0,1,3.78-.28l24.05,8.27a4.78,4.78,0,0,1,3.22,4.16l2.84,36.18,37.63,28.52,1.06-22.47a4.83,4.83,0,0,1,1.72-3.45,4.76,4.76,0,0,1,3.74-1.07L404,134.17a4.81,4.81,0,0,1,3,1.58l11.28,12.78a4.78,4.78,0,0,1,.69,5.32l-7.22,14.45,5,10.6,7.07,3.26,9.2-.66L443.33,180a4.75,4.75,0,0,1,5,2.75l3.77,8.28a4.82,4.82,0,0,1,.25,3.26L448.6,208l-4,12.13.59,1.76,9.1-.54a4.81,4.81,0,0,1,5.08,4.79v6.76a5,5,0,0,1-.17,1.27L443.65,291l2.1,14a4.83,4.83,0,0,1,0,1.47L441.36,334l2.44-1.47a4.8,4.8,0,0,1,7.25,3.72l1.28,16,6.51,3,19.52,2.17a4.79,4.79,0,0,1,4.26,4.45l3,46.6a4.79,4.79,0,0,1-6.3,4.86l-36.07-12a4.58,4.58,0,0,1-1.66-.95l-30.72-27.14L369.43,378,339,405.53a4.72,4.72,0,0,1-2.92,1.23L317,408l2.55,27.39a4.77,4.77,0,0,1-1.82,4.22,4.88,4.88,0,0,1-4.55.75l-13.35-4.67-11.88,4.62A4.67,4.67,0,0,1,286.19,440.6Zm-.1-5Zm-96.21-33.9,40.76,16.61,24.8,6.76,30.74,10.5,13.53-5.26,14.8,5.18-3-32.21,24.19-1.51,31.56-28.56,45.25-5.28,32.39,28.62,35.71,11.89-3-46.12-20.16-2.24-9.91-4.58-1.48-18.58-11.37,6.83,6.08-38-2.26-15,15.8-57.91v-6.49l-12.72.75-2.32-7,4.54-13.65,3.72-13.39L443.89,185l-10.39,1.48-10.57.76L413,182.67l-6.83-14.43,8.25-16.5-11.14-12.62-29-3.72-1.51,31.73-47-35.61-3-38.29L299,85l-17.34,9L270.38,82.83l-14,11.09,5.27,24.86L254.09,121l2.26,21.85H245.09l1.52,9.12-2.55.35c-15,2-26.48-12.29-28.95-15.64l1.4,9.85-46,20.38-.94-.34c-15.36-5.48-23.33,6.62-24.37,8.33l11.4,7.6-1.93,2.15c-11,12.26-26.31,9.9-28.94,9.39.7,1.7,3.39,8.86,1.1,13.78a7.69,7.69,0,0,1-5.14,4.17c-7.62,2.17-10.06,7.05-10.84,9.76l-.45,1.54-1.58.24c-8,1.23-13.34.26-15.89-2.86-2.86-3.5-1.27-8.45-.87-9.52-17.8-8.19-23.55-20-27.36-27.85-2.06-4.25-3.43-6.87-5.51-7.3-1.18-.25-3.07,0-7.32,3.63-15.62,13.48-15.09,32.81-15,35v.21l0,.21c-1.11,9.79-.32,16.25,2.35,19.21a6.26,6.26,0,0,0,4.54,2l6,.37-4.53,4c-2.37,2.09-6,2.73-9.5,3.35s-6.6,1.17-7.76,3.06a4.6,4.6,0,0,0-.13,3.8,5.74,5.74,0,0,0,3.48,4c2.77,1,6.46,0,9.07-1.1l4.11-1.68-.7,4.39a28.38,28.38,0,0,0-.17,7.22c.41,4.1,3.42,6.16,5.87,7.16l3,1.23-2,2.6c-4.18,5.47-2.78,14.09-2.46,15.76l.07.34,0,.35c-.24,2.73-2.06,17.05-14.31,31.33C25.57,332.06,22.4,338,23.53,341.81c.68,2.28,3,3.9,7.18,5.11,8.7,2.48,9.33,7.72,10,13.79.16,1.35.34,2.88.61,4.4.6,3.27,6.05,3,13.69,2.15s13.13-1.18,15.75,1.32a5,5,0,0,1,1.38,4.1,9.47,9.47,0,0,1-.3,2l.53,1.61-2.45.74c-1.39.43-3-.17-6.19-1.74-2.57-1.26-5.22-2.55-6.92-1.61-.4.22-1.58.87-2,4.24-1,8.8,4.44,13.37,8.79,17.05,2.25,1.91,4.21,3.56,4.74,5.42.71,2.49,6,3.34,13.84,2.21l6.45-.92-4.18,5c-4.49,5.38-11.91,6.91-17.88,8.13-4,.83-7.48,1.55-8.3,3.24-.13.25-.5,1,.28,2.6A4.3,4.3,0,0,0,61.56,423c5.53,1.41,17-4.51,25.2-10l1-.66,1.13.34a40,40,0,0,0,36.28-6.47l1.71-1.32,1.55,1.49c7.36,7.05,18.56,7.64,23,7.55l1.88,0,.55,1.79c2.73,8.84,6.49,14.53,11.17,16.9a9.21,9.21,0,0,0,6.69.88l-1.5-8.28,9.86-3Zm264.69-175.4ZM92.08,211Zm33.24-17Zm248.77-58.63Z"/></g></svg>