<svg xmlns="http://www.w3.org/2000/svg" viewBox="0 0 491.5 491.5"><g id="Layer_7" data-name="Layer 7"><path d="M169.14,466.27a38.23,38.23,0,0,1-38.07-37.56v-.16c0-.12,0-.24,0-.37a38.08,38.08,0,0,1,76.16,0c0,.12,0,.24,0,.36v.17A38.23,38.23,0,0,1,169.14,466.27Zm0-71.17a33.12,33.12,0,0,0-33.08,33.08v.47a33.07,33.07,0,0,0,66.14,0v-.46A33.12,33.12,0,0,0,169.14,395.1Z"/><path d="M347.62,466.27a38.23,38.23,0,0,1-38.07-37.56v-.16c0-.12,0-.24,0-.37a38.08,38.08,0,1,1,76.16,0c0,.12,0,.24,0,.36v.17A38.23,38.23,0,0,1,347.62,466.27Zm0-71.17a33.12,33.12,0,0,0-33.08,33.08v.47a33.07,33.07,0,0,0,66.14,0v-.46A33.12,33.12,0,0,0,347.62,395.1Z"/><path d="M397.89,431.18h-3.36a2.49,2.49,0,0,1-1.78-.75,2.46,2.46,0,0,1-.72-1.78v-.47a44.42,44.42,0,0,0-88.84,0v.47a2.46,2.46,0,0,1-.72,1.78,2.49,2.49,0,0,1-1.78.75H216.05a2.49,2.49,0,0,1-1.78-.75,2.46,2.46,0,0,1-.72-1.78v-.47a44.42,44.42,0,0,0-88.84,0v.47a2.46,2.46,0,0,1-.72,1.78,2.49,2.49,0,0,1-1.78.75H119a14.52,14.52,0,0,1-14.5-14.5V280.11a14.51,14.51,0,0,1,14.5-14.5H397.89a14.52,14.52,0,0,1,14.5,14.5V416.68A14.52,14.52,0,0,1,397.89,431.18Zm-.89-5h.89a9.52,9.52,0,0,0,9.5-9.5V280.11a9.52,9.52,0,0,0-9.5-9.5H119a9.51,9.51,0,0,0-9.5,9.5V416.68a9.52,9.52,0,0,0,9.5,9.5h.76a49.42,49.42,0,0,1,98.76,0h79.72a49.42,49.42,0,0,1,98.76,0Zm-18.62-89.52H318.43A13.66,13.66,0,0,1,304.79,323V298.84a13.66,13.66,0,0,1,13.64-13.64h59.95A13.66,13.66,0,0,1,392,298.84V323A13.66,13.66,0,0,1,378.38,336.66ZM318.43,290.2a8.65,8.65,0,0,0-8.64,8.64V323a8.65,8.65,0,0,0,8.64,8.65h59.95A8.66,8.66,0,0,0,387,323V298.84a8.66,8.66,0,0,0-8.65-8.64Zm-39.37,46.46h-60A13.66,13.66,0,0,1,205.46,323V298.84A13.66,13.66,0,0,1,219.1,285.2h60a13.66,13.66,0,0,1,13.64,13.64V323A13.66,13.66,0,0,1,279.06,336.66Zm-60-46.46a8.66,8.66,0,0,0-8.64,8.64V323a8.66,8.66,0,0,0,8.64,8.65h60A8.66,8.66,0,0,0,287.7,323V298.84a8.66,8.66,0,0,0-8.64-8.64Z"/><path d="M446.34,214.34H77.2a2.5,2.5,0,0,1-2.5-2.5v-.56a2.18,2.18,0,0,1,0-.25V101.72a2.49,2.49,0,0,1,2.5-2.5h0l28.62.06a2.49,2.49,0,0,1,2.36,1.71l16.88,50.46c1.24-.09,2.47-.13,3.69-.13h83l-29.9-117a2.51,2.51,0,0,1,2.42-3.12h0l38,.1a2.5,2.5,0,0,1,2.22,1.36l60.8,118.67H394.8a54.1,54.1,0,0,1,54,54v6.48A2.5,2.5,0,0,1,446.34,214.34Zm-366.65-5H443.84v-4a49.1,49.1,0,0,0-49-49h-111a2.52,2.52,0,0,1-2.23-1.36L220.73,36.28l-33.25-.08,29.89,117a2.51,2.51,0,0,1-2.43,3.12h-86.2a50.22,50.22,0,0,0-5.18.27,2.5,2.5,0,0,1-2.63-1.69L104,104.28l-24.31,0Z"/></g></svg>