<svg xmlns="http://www.w3.org/2000/svg" viewBox="0 0 491.5 491.5"><g id="Ebene_2" data-name="Ebene 2"><path d="M85.79,231.34H71.48a2,2,0,0,0-2,2v23.25a2,2,0,0,0,2,2h5.16V426.11a2,2,0,0,0,4,0V258.59h5.15a2,2,0,0,0,2-2V233.34A2,2,0,0,0,85.79,231.34Zm-2,23.25H73.48V235.34H83.79Z"/><path d="M221.82,231.34H207.51a2,2,0,0,0-2,2v23.25a2,2,0,0,0,2,2h5.16V426.11a2,2,0,0,0,4,0V258.59h5.15a2,2,0,0,0,2-2V233.34A2,2,0,0,0,221.82,231.34Zm-2,23.25H209.51V235.34h10.31Z"/><path d="M141.42,329.42h-3.63v-67.9h3.14a2,2,0,0,0,0-4h-3.14V90.91a13.18,13.18,0,1,0-26.36,0V257.52h-4.12a2,2,0,0,0,0,4h4.12v67.9H107.8a2,2,0,0,0,0,4h3.63v98.36a2,2,0,0,0,2,2h22.36a2,2,0,0,0,2-2V333.42h3.63a2,2,0,1,0,0-4Zm-26-238.51a9.18,9.18,0,1,1,18.36,0V257.52H115.43Zm0,170.61h18.36v67.9H115.43Zm18.36,168.26H115.43V333.42h18.36Z"/><path d="M186.65,329.42h-3.87v-67.9h3.38a2,2,0,0,0,0-4h-3.38V90.91a13.18,13.18,0,0,0-26.36,0V257.52h-3.87a2,2,0,0,0,0,4h3.87v67.9H153a2,2,0,0,0,0,4h3.38v98.36a2,2,0,0,0,2,2h22.36a2,2,0,0,0,2-2V333.42h3.87a2,2,0,1,0,0-4ZM160.42,90.91a9.18,9.18,0,0,1,18.36,0V257.52H160.42Zm0,170.61h18.36v67.9H160.42Zm18.36,168.26H160.42V333.42h18.36Z"/><path d="M248.59,135.17a85.09,85.09,0,1,0,85.09-85.09A85.18,85.18,0,0,0,248.59,135.17Zm166.18,0a81.09,81.09,0,1,1-81.09-81.09A81.19,81.19,0,0,1,414.77,135.17Z"/><path d="M430.12,132.85a2.32,2.32,0,0,0-2.32,2.32,94.12,94.12,0,1,1-94.12-94.11,2.33,2.33,0,0,0,0-4.65,98.76,98.76,0,1,0,98.76,98.76A2.32,2.32,0,0,0,430.12,132.85Z"/><path d="M331.68,81.17v55.75a2,2,0,0,0,.43,1.25l40.36,50.9a2,2,0,0,0,1.57.76,2,2,0,0,0,1.24-.44,2,2,0,0,0,.32-2.81l-39.92-50.35V81.17a2,2,0,0,0-4,0Z"/></g></svg>