<svg xmlns="http://www.w3.org/2000/svg" viewBox="0 0 491.5 491.5"><g id="Layer_7" data-name="Layer 7"><path d="M153.41,463.73a38.21,38.21,0,0,1-38.06-37.55V426c0-.12,0-.24,0-.36a38.08,38.08,0,0,1,76.16,0v.52A38.22,38.22,0,0,1,153.41,463.73Zm0-71.16a33.12,33.12,0,0,0-33.08,33.08l0,.46a33.07,33.07,0,0,0,66.13,0v-.46A33.12,33.12,0,0,0,153.41,392.57Z"/><path d="M331.89,463.73a38.22,38.22,0,0,1-38.06-37.55V426c0-.12,0-.24,0-.36a38.08,38.08,0,0,1,76.16,0v.52A38.22,38.22,0,0,1,331.89,463.73Zm0-71.16a33.12,33.12,0,0,0-33.08,33.08l0,.46a33.07,33.07,0,0,0,66.13,0v-.46A33.12,33.12,0,0,0,331.89,392.57Z"/><path d="M382.16,428.64H378.8a2.49,2.49,0,0,1-2.5-2.53v-.46a44.42,44.42,0,0,0-88.84,0l0,.46a2.49,2.49,0,0,1-2.5,2.53H200.32a2.49,2.49,0,0,1-2.5-2.53v-.46a44.42,44.42,0,0,0-88.84,0l0,.46a2.57,2.57,0,0,1-.72,1.79,2.5,2.5,0,0,1-1.78.74h-3.24a14.51,14.51,0,0,1-14.5-14.5V277.57a14.52,14.52,0,0,1,14.5-14.5H382.16a14.52,14.52,0,0,1,14.5,14.5V414.14A14.51,14.51,0,0,1,382.16,428.64Zm-.89-5h.89a9.51,9.51,0,0,0,9.5-9.5V277.57a9.52,9.52,0,0,0-9.5-9.5H103.27a9.52,9.52,0,0,0-9.5,9.5V414.14a9.51,9.51,0,0,0,9.5,9.5H104a49.42,49.42,0,0,1,98.76,0h79.72a49.42,49.42,0,0,1,98.76,0Zm-18.61-89.52h-60a13.66,13.66,0,0,1-13.64-13.64V296.31a13.66,13.66,0,0,1,13.64-13.64h60a13.66,13.66,0,0,1,13.64,13.64v24.17A13.66,13.66,0,0,1,362.66,334.12Zm-60-46.45a8.66,8.66,0,0,0-8.64,8.64v24.17a8.65,8.65,0,0,0,8.64,8.64h60a8.65,8.65,0,0,0,8.64-8.64V296.31a8.66,8.66,0,0,0-8.64-8.64Zm-39.37,46.45H203.38a13.66,13.66,0,0,1-13.65-13.64V296.31a13.66,13.66,0,0,1,13.65-13.64h59.95A13.66,13.66,0,0,1,277,296.31v24.17A13.66,13.66,0,0,1,263.33,334.12Zm-59.95-46.45a8.66,8.66,0,0,0-8.65,8.64v24.17a8.65,8.65,0,0,0,8.65,8.64h59.95a8.64,8.64,0,0,0,8.64-8.64V296.31a8.65,8.65,0,0,0-8.64-8.64Z"/><path d="M406.54,93.15c-1-14.71-11.83-28.35-30.65-38.62-19.34-10.55-45-16.36-72.24-16.36S250.74,44,231.4,54.53c-18.82,10.27-29.61,23.91-30.65,38.62h-.08v52.22A18.68,18.68,0,0,0,219.32,164h75.73V264.54h17.37V164h75.73a18.68,18.68,0,0,0,18.65-18.65V93.15Zm-4.74,52.22A13.66,13.66,0,0,1,388.15,159H219.32a13.67,13.67,0,0,1-13.65-13.65V95.49c0-28.85,44-52.32,98-52.32s98,23.47,98,52.33v2.65h.18Z"/><path d="M256.93,56.14a51.08,51.08,0,0,1,9.68-.86c5.29,0,8.7.92,11.26,3a8.59,8.59,0,0,1,3.41,7.24c0,3.95-2.62,7.42-6.94,9v.13c3.89,1,8.46,4.19,8.46,10.28a11,11,0,0,1-3.47,8.21c-2.86,2.62-7.49,3.84-14.18,3.84a62.53,62.53,0,0,1-8.22-.49Zm5.3,16.79H267c5.59,0,8.88-2.92,8.88-6.87,0-4.81-3.65-6.7-9-6.7a22,22,0,0,0-4.68.37Zm0,19.66a28.59,28.59,0,0,0,4.44.24c5.48,0,10.53-2,10.53-8,0-5.6-4.81-7.91-10.59-7.91h-4.38Z"/><path d="M295.21,55.59V79.87c0,9.19,4.07,13.08,9.55,13.08,6.09,0,10-4,10-13.08V55.59h5.36V79.5c0,12.6-6.64,17.77-15.52,17.77-8.4,0-14.73-4.8-14.73-17.52V55.59Z"/><path d="M328.55,90.15A18.75,18.75,0,0,0,338,92.83c5.42,0,8.58-2.86,8.58-7,0-3.83-2.19-6-7.73-8.15-6.69-2.37-10.83-5.84-10.83-11.62,0-6.39,5.3-11.14,13.27-11.14a18.59,18.59,0,0,1,9.07,2l-1.47,4.32a16.26,16.26,0,0,0-7.78-2c-5.6,0-7.73,3.35-7.73,6.15,0,3.83,2.49,5.72,8.15,7.91,6.94,2.68,10.47,6,10.47,12,0,6.33-4.69,11.86-14.36,11.86-4,0-8.28-1.21-10.47-2.67Z"/><path d="M241.49,143.69a18.75,18.75,0,0,0,9.49,2.68c5.42,0,8.58-2.86,8.58-7,0-3.83-2.19-6-7.73-8.15-6.69-2.38-10.83-5.85-10.83-11.63,0-6.39,5.29-11.13,13.27-11.13a18.68,18.68,0,0,1,9.06,2l-1.46,4.32a16.33,16.33,0,0,0-7.79-1.94c-5.6,0-7.72,3.34-7.72,6.14,0,3.84,2.49,5.72,8.15,7.91,6.94,2.68,10.47,6,10.47,12,0,6.33-4.69,11.87-14.37,11.87-4,0-8.27-1.22-10.46-2.68Z"/><path d="M280,113.63H267.53v-4.5h30.36v4.5H285.36v36.51H280Z"/><path d="M335.86,129.21c0,14.11-8.58,21.6-19,21.6-10.84,0-18.44-8.4-18.44-20.81,0-13,8.09-21.54,19.05-21.54C328.62,108.46,335.86,117,335.86,129.21Zm-31.82.67c0,8.76,4.74,16.61,13.08,16.61s13.14-7.73,13.14-17c0-8.15-4.25-16.67-13.08-16.67S304,120.87,304,129.88Z"/><path d="M342.74,109.61a62,62,0,0,1,10.16-.79c5.23,0,9.06,1.22,11.5,3.41a11,11,0,0,1,3.59,8.58,12.07,12.07,0,0,1-3.17,8.76c-2.79,3-7.36,4.5-12.53,4.5a18.5,18.5,0,0,1-4.26-.36v16.43h-5.29ZM348,129.39a18,18,0,0,0,4.38.43c6.39,0,10.29-3.11,10.29-8.77,0-5.41-3.84-8-9.68-8a21.76,21.76,0,0,0-5,.43Z"/></g></svg>