<svg xmlns="http://www.w3.org/2000/svg" viewBox="0 0 491.5 491.5"><g id="Layer_5" data-name="Layer 5"><path d="M241.85,357.54l26.25,15.9a2,2,0,0,0,2.07,0l26.25-15.9a2,2,0,0,0-1-3.71H242.88a2,2,0,0,0-1,3.71Zm46.38.29-19.1,11.56L250,357.83Z"/><path d="M413.41,88.94a9.91,9.91,0,0,0-14,1.43l-53,65L314,173.18c-4.51-.44-27.73-2.6-44.88-2.6s-40.44,2.16-44.95,2.6l-62.64-34.3a10.83,10.83,0,0,0-16,9.74l1.63,72.06c-13.61,16.32-20.77,35-20.77,54.28,0,15.6,4.75,30.71,13.54,44.4L50.8,238.77a9.92,9.92,0,0,0-13.31,14.72l138.9,125.6a10,10,0,0,0,6.66,2.56l.75,0a9.9,9.9,0,0,0,6.93-3.61,72.34,72.34,0,0,0,21.46,32.67c15.36,13.63,35.69,21.13,57.22,21.13s42-7.54,57.34-21.22c15-13.38,23.64-31.13,24.34-50.13,38.11-19.55,60.8-51.42,60.8-85.5,0-19.3-7.19-38-20.85-54.38l1.63-72a10.71,10.71,0,0,0-5.2-9.49,10.37,10.37,0,0,0-1.53-.76l28.9-35.47A9.92,9.92,0,0,0,413.41,88.94ZM153.09,221.43a2.49,2.49,0,0,0,0-3.26,2.52,2.52,0,0,0-1.06-.75l-1.56-68.91a5.82,5.82,0,0,1,8.62-5.24l63.31,34.67a2.53,2.53,0,0,0,1.45.29c.27,0,26.46-2.65,45.23-2.65s44.89,2.63,45.16,2.65a2.55,2.55,0,0,0,1.45-.29l22.35-12.24L185,353.62c-33.71-18.8-53.62-47.8-53.62-78.66C131.38,255.92,138.89,237.41,153.09,221.43Zm231.78-78a5.75,5.75,0,0,1,2.8,5.11l-1.56,69.1a2.38,2.38,0,0,0-.88.67,2.49,2.49,0,0,0,0,3.26c14.15,16,21.62,34.43,21.62,53.42,0,32.55-22.2,63.09-59.38,81.71a2.47,2.47,0,0,0-1.38,2.2c-.26,18.15-8.33,35.19-22.7,48s-33.65,20-54,20S230,419.75,215.5,406.94a66.83,66.83,0,0,1-20.89-33.69L382.5,142.59A5.92,5.92,0,0,1,384.87,143.4Z"/></g></svg>