<svg xmlns="http://www.w3.org/2000/svg" viewBox="0 0 491.5 491.5"><g id="Ebene_2" data-name="Ebene 2"><path d="M440.05,165.6a3.4,3.4,0,0,1-1.35-.28L246,79.46,53.34,165.32a3.32,3.32,0,0,1-2.7-6.06L243.4,73.36a3.34,3.34,0,0,1,2.35-1h.54a3.34,3.34,0,0,1,2.35,1l192.76,85.9a3.31,3.31,0,0,1-1.35,6.34Z"/></g><g id="Ebene_4" data-name="Ebene 4"><path d="M193.47,324.55a4.39,4.39,0,0,1-3.44-1.66c-.44-.54-10.66-13.54-8.61-30.81,1.43-12,8.36-22.93,20.61-32.42,8.64-6.7,13.29-14,13.82-21.66.79-11.47-7.8-21.59-11.53-25.41a28.23,28.23,0,0,0-3.94-3.29c-10.12-7.08-42.42-32.21-33.1-58.45a4.42,4.42,0,1,1,8.33,3c-7.41,20.87,23.55,43.85,29.84,48.24a36.66,36.66,0,0,1,5.19,4.36c5.67,5.8,15,17.69,14,32.2-.71,10.29-6.51,19.73-17.24,28-10.26,8-16.05,16.83-17.22,26.38-1.66,13.55,6.64,24.24,6.72,24.35a4.42,4.42,0,0,1-3.47,7.17Z"/><path d="M245.62,326.45a4.39,4.39,0,0,1-3.44-1.66c-.44-.54-10.66-13.54-8.6-30.81,1.42-12,8.36-22.93,20.6-32.42,8.64-6.7,13.3-14,13.82-21.66.79-11.47-7.8-21.59-11.53-25.41a27.66,27.66,0,0,0-3.94-3.29c-10.12-7.08-42.42-32.21-33.1-58.45a4.42,4.42,0,0,1,8.34,3c-7.42,20.87,23.55,43.84,29.83,48.24a36.76,36.76,0,0,1,5.19,4.36c5.67,5.8,15,17.69,14,32.19-.71,10.3-6.51,19.73-17.23,28.05-10.27,8-16.06,16.83-17.23,26.38-1.66,13.54,6.64,24.24,6.72,24.35a4.43,4.43,0,0,1-3.47,7.17Z"/><path d="M295.14,324.55a4.43,4.43,0,0,1-3.45-1.66c-.43-.54-10.65-13.54-8.6-30.81,1.43-12,8.36-22.93,20.6-32.42,8.65-6.7,13.3-14,13.83-21.66.79-11.47-7.81-21.59-11.54-25.41A27.11,27.11,0,0,0,302,209.3c-10.12-7.08-42.41-32.21-33.1-58.45a4.42,4.42,0,0,1,8.34,3c-7.41,20.87,23.55,43.85,29.83,48.24a36.2,36.2,0,0,1,5.2,4.36c5.67,5.8,15,17.69,14,32.2-.7,10.29-6.5,19.73-17.23,28-10.26,8-16.05,16.83-17.22,26.38-1.66,13.55,6.64,24.24,6.72,24.35a4.43,4.43,0,0,1-3.47,7.17Z"/><path d="M390.67,333.26h0a2.94,2.94,0,0,0-2.94,2.93l0,21.85-.16,0c-40.48-7-80.91,18.34-92.33,26.26a41.92,41.92,0,0,1-6,3.47C278,393,238.64,408.59,202,385.67c-42.69-26.73-88.27-13.19-97.37-10.05L104.31,337a3,3,0,0,0-2.94-2.91h0a2.94,2.94,0,0,0-2.91,3l.57,64.5c0,8.8,6.06,16,13.51,16H380c7.44,0,13.51-7.17,13.51-16l.08-65.33A2.93,2.93,0,0,0,390.67,333.26ZM380,411.63H112.52c-4.14,0-7.64-4.63-7.64-10.13l-.17-18.94a3.1,3.1,0,0,0,.77-.19c.48-.19,49.21-18.5,93,8.92a86.5,86.5,0,0,0,46.59,13.17c21.79,0,39.81-7.33,47-10.74a50,50,0,0,0,6.91-4c7.76-5.39,48.44-31.91,87.42-25.19a3.23,3.23,0,0,0,1.28,0l-.05,37C387.64,407,384.15,411.63,380,411.63Z"/></g></svg>