<svg xmlns="http://www.w3.org/2000/svg" viewBox="0 0 491.5 491.5"><defs><style>.cls-1,.cls-2{fill:none;stroke:#000;stroke-miterlimit:10;}.cls-1{stroke-width:5.76px;}.cls-2{stroke-width:5.2px;}</style></defs><g id="Ebene_2" data-name="Ebene 2"><path class="cls-1" d="M449.14,337.78,315.52,287.26l-.22-.07a29.28,29.28,0,0,0-11.63-2.38H172.27L77.88,190.42a29.56,29.56,0,0,0-41.83,0h0a29.58,29.58,0,0,0,0,41.83l101,101a29.22,29.22,0,0,0,5.13,4.1A29.47,29.47,0,0,0,160.83,344H298.22l130,49.15a29.57,29.57,0,0,0,38.12-17.21h0A29.56,29.56,0,0,0,449.14,337.78Z"/><line class="cls-1" x1="175.57" y1="258.19" x2="175.57" y2="326.75"/><rect class="cls-2" x="169.82" y="242" width="78.48" height="18.4" rx="9.2"/><rect class="cls-2" x="181.33" y="343.96" width="94.31" height="20.29"/><polygon class="cls-2" points="327.51 445.31 126.81 445.31 181.33 364.25 275.64 364.25 327.51 445.31"/><path d="M372.65,119.11c-67.49-67.49-177.3-67.49-244.8,0l17.74,17.73c57.71-57.71,151.61-57.71,209.33,0Z"/><path d="M337.18,154.58a123.07,123.07,0,0,0-173.85,0l17.73,17.74a98,98,0,0,1,138.38,0Z"/><path d="M301.71,190.05a72.86,72.86,0,0,0-102.91,0l17.74,17.74a47.68,47.68,0,0,1,67.43,0Z"/></g></svg>