<svg xmlns="http://www.w3.org/2000/svg" viewBox="0 0 491.5 491.5"><g id="Ebene_2" data-name="Ebene 2"><path d="M442.05,193.51c0-22.29-8.25-39.09-19.19-39.09H152c-7.1,0-13.06,7.09-16.37,18.16-4.9-10.64-12.19-18.2-15.75-18.2L56.62,155c-7.67,0-15.89,22.6-15.89,38.51v3.53h8.8V402.29h6.64V268.48H426.61V402.29h6.64V197h8.8ZM57.46,162.09l61.85-.65c2.82,1.9,11.59,12.79,13.72,26.25-.05.77-.09,1.55-.12,2.33h-85C48.82,175.4,55.19,164.3,57.46,162.09Zm-1.29,41.18,163.54,26.24L56.17,255.75Zm3.95,58.57,180.55-29,180.54,29ZM426.61,256l-165-26.48,165-26.47ZM240.67,226.15,59.53,197.08h81.05v0h281.5ZM140.42,190c-.07-.83-.17-1.66-.28-2.48,1.24-16.26,7.36-26,11.88-26H422.86c4.76,0,11.28,10.75,12.05,28.5Z"/></g></svg>