<svg xmlns="http://www.w3.org/2000/svg" viewBox="0 0 491.5 491.5"><defs><style>.cls-1,.cls-2{fill:none;stroke:#000;stroke-linecap:round;stroke-linejoin:round;}.cls-1{stroke-width:3.46px;}.cls-2{stroke-width:3.63px;}</style></defs><g id="Ebene_2" data-name="Ebene 2"><path d="M428.79,87.69a45.67,45.67,0,0,0-7.06.55,46.46,46.46,0,0,0-55-11,46.44,46.44,0,0,0-82.1,19.53c-14.19,4.35-26.16,18.18-32.37,37.42a46.44,46.44,0,0,0,9.43,91.91,46.92,46.92,0,0,0,7.06-.54,46.43,46.43,0,0,0,16.34,11.82A76,76,0,0,0,293.41,270c14.62,28.7,43.31,39.46,65.49,43.4.19,15.77.9,128.66-15.51,154.77l3.72,2.34c7.72-12.28,12.78-42.82,15.05-90.78,1.67-35.51,1.12-67.91,1.12-68.23l0-1.84-1.82-.3c-31.05-5.07-52.59-18.93-64-41.18A73.21,73.21,0,0,1,289.56,239a46.73,46.73,0,0,0,12.21,2.12c4.09,17.09,12.21,29.61,24.19,37.2,10.48,6.63,21.76,8.16,29.94,8.16a57,57,0,0,0,11.74-1.12l1.32-.3.32-1.31c2.74-11,1.43-25.12.79-30.43a46.29,46.29,0,0,0,16.57-7.11c-.86,26.28-3.46,155.43,25.29,224l4.06-1.7c-30.23-72.07-25.35-212.7-24.82-225.83A46.27,46.27,0,0,0,405.85,217C420,212.67,432,198.84,438.22,179.6a46.44,46.44,0,0,0-9.43-91.91ZM365.33,281.34c-4.85.8-22.05,2.75-37-6.72-10.76-6.81-18.16-18.08-22-33.52a46.37,46.37,0,0,0,17.46-4.55,46.6,46.6,0,0,0,36.56,17.82,48,48,0,0,0,5.4-.32C366.29,259,367.41,271.47,365.33,281.34Zm70.81-105.82-1.33.24-.39,1.29c-5.83,19-17.43,32.55-31,36.1l-1.38.36-.24,1.41a42,42,0,0,1-75.57,17.55l-1.13-1.57-1.7.91a42,42,0,0,1-52.05-10.06l-.82-1-1.26.23a42.94,42.94,0,0,1-7.53.68,42,42,0,0,1-7.34-83.43l1.33-.23.39-1.29c5.82-19,17.43-32.55,31-36.11l1.38-.36.23-1.4a42,42,0,0,1,75.58-17.55l1.12,1.56,1.7-.91A42.05,42.05,0,0,1,419.19,92l.82,1,1.26-.22a42,42,0,1,1,14.87,82.74Z"/></g><g id="Ebene_4" data-name="Ebene 4"><line class="cls-1" x1="114.14" y1="368.04" x2="228.04" y2="368.04"/><rect class="cls-1" x="134.13" y="368.04" width="73.91" height="96.93"/><path d="M169.36,368.93c0,.46.77.84,1.73.84s1.73-.38,1.73-.84V324.27h-3.46Z"/><polyline class="cls-2" points="235.48 410.78 293.89 410.78 320.92 345.84"/><line class="cls-2" x1="248.96" y1="411.53" x2="239.02" y2="465.49"/><line class="cls-2" x1="282.67" y1="411.53" x2="292.62" y2="465.49"/><polyline class="cls-2" points="105.23 410.78 46.82 410.78 19.78 345.84"/><line class="cls-2" x1="91.74" y1="411.53" x2="101.69" y2="465.49"/><line class="cls-2" x1="58.04" y1="411.53" x2="48.09" y2="465.49"/><path d="M150.14,329.45,168,197.28a1.49,1.49,0,0,1,2.94,0l20.55,131.5a1.48,1.48,0,0,1-.81,1.57A47.91,47.91,0,0,1,151,331,1.49,1.49,0,0,1,150.14,329.45Z"/><path d="M171.82,196.9v-2.64a2.39,2.39,0,0,0-4.77,0v2.63h2Z"/></g></svg>