<svg xmlns="http://www.w3.org/2000/svg" viewBox="0 0 491.5 491.5"><defs><style>.cls-1{stroke:#000;stroke-miterlimit:10;stroke-width:2px;}</style></defs><g id="Ebene_3" data-name="Ebene 3"><path d="M457.39,138.35a2.39,2.39,0,0,1-1-.21L246.57,44.63,36.72,138.14a2.4,2.4,0,0,1-2-4.39L244.44,40.32a2.39,2.39,0,0,1,1.83-.86h.59a2.41,2.41,0,0,1,1.84.86l209.67,93.43a2.4,2.4,0,0,1-1,4.6Z"/><path class="cls-1" d="M251.66,454c-1.55-60.9-1.27-152.12,5.81-155.13,10-4.24,13.17-8.57,13.73-9.43A58.86,58.86,0,0,0,302.55,218a183.5,183.5,0,0,1-4.86-18.85l-8.93-42.75H203.45l-9.26,46.95a142.86,142.86,0,0,1-3.76,15.13,58.73,58.73,0,0,0,31.4,70.82v0c.11.2,2.93,5,13.82,9.58,7.09,3,7.37,94.23,5.82,155.13-6.88.1-48.5.92-48.5,7.43,0,5.9,35.05,7.46,53.59,7.46s53.59-1.56,53.59-7.46C300.16,454.91,258.54,454.09,251.66,454ZM192.4,219.06a144.24,144.24,0,0,0,3.81-15.36l8.93-45.27h81.94l8.59,41.1a183.28,183.28,0,0,0,4.92,19.07c.2.61.38,1.24.56,1.86,0,1,.2,9.24-5.66,15.57-4.69,5.07-12,7.65-21.73,7.67h-.16c-16,0-21.55-5.62-27.45-11.58s-11.76-11.88-27.41-12.88c-10.05-.64-17.93,1.51-23.42,6.38a22.15,22.15,0,0,0-5.4,7.29A56.58,56.58,0,0,1,192.4,219.06ZM190,240.15a20.94,20.94,0,0,1,6.73-13c5.06-4.48,12.42-6.44,21.89-5.84,14.87.95,20.56,6.71,26.07,12.27,5.94,6,12.07,12.2,28.92,12.2h.17c10.32,0,18.13-2.83,23.24-8.34a23.28,23.28,0,0,0,5.54-10.67,56.94,56.94,0,0,1,.76,9.24,56.81,56.81,0,0,1-33.55,51.81h0a56.65,56.65,0,0,1-24,4.93C216.44,292.35,192.12,269.07,190,240.15Zm46.49,56.79a40.94,40.94,0,0,1-9.87-5.68,57.82,57.82,0,0,0,19.15,3.55h.82a58.91,58.91,0,0,0,19.74-3.38,41.75,41.75,0,0,1-9.66,5.51c-2,.85-7.32,3.11-7.81,82.89-.2,31.15.44,61.85.73,74.14h0v.54l0,.5h0l0,.77v.27h0l.05,1.88a4.32,4.32,0,0,1-3,1.34,5.33,5.33,0,0,1-3.26-1.37l0-1.85v-.41l0-.63h0v-1h0c.29-12.31.92-43.07.73-74.14C243.79,300.05,238.48,297.79,236.48,296.94ZM246.57,466.8c-35.31,0-51.15-3.85-51.51-5.37a.4.4,0,0,1,.08-.16l.05,0,.13-.13.09-.06.18-.12.13-.06.23-.13.18-.07.28-.12.22-.08.32-.12.27-.08.37-.12.31-.09.41-.12.4-.1.42-.11.48-.11.42-.1.56-.12.43-.09.63-.12.45-.09.68-.13.5-.09.73-.12.52-.09.82-.12.52-.08.89-.13.54-.08,1-.13.54-.07,1-.12.58-.08,1.11-.12.57-.07,1.18-.12.6-.06,1.2-.12.66-.06,1.27-.11.66-.06L219,457l.7-.06,1.33-.09.79-.06,1.34-.08.85-.06,1.38-.07.9-.05,1.43-.07.92-.05,1.47-.06,1,0,1.49-.05,1,0,1.49,0,1.11,0,1.48,0,1.22,0,1.47,0h1l-.07,2.67.29.32a7.69,7.69,0,0,0,5.08,2.29,6.49,6.49,0,0,0,4.77-2.29l.3-.32-.08-2.67h1l1.47,0,1.21,0,1.49,0,1.1,0,1.5,0,1,0,1.49.05,1,0,1.46.06.93.05,1.44.07.84,0,1.43.09.78,0,1.42.09.73.06,1.38.09.69.06,1.33.1.65.06,1.3.11.59.06,1.26.12.57.06,1.21.12.52.06,1.16.13.51.07,1.1.13.47.06,1,.14.46.07,1,.13.46.08.88.13.42.07.84.14.41.08.76.13.4.08.68.14.38.08.61.13.37.08.53.13.36.09.46.12.33.09.39.11.32.1.31.1.3.11.25.09.26.11.19.08.23.12.13.07.18.12.09.06a.51.51,0,0,1,.13.12l.05.05a.53.53,0,0,1,.09.16C297.72,463,281.87,466.8,246.57,466.8Z"/></g></svg>