<svg xmlns="http://www.w3.org/2000/svg" viewBox="0 0 491.5 491.5"><defs><style>.cls-1,.cls-2{fill:none;stroke:#000;stroke-miterlimit:10;}.cls-1{stroke-width:5.17px;}.cls-2{stroke-width:6px;}</style></defs><g id="Ebene_2" data-name="Ebene 2"><polygon class="cls-1" points="99.27 237.06 99.27 271.45 160.29 271.45 160.29 301.41 213.55 248.16 160.85 195.45 160.85 225.97 99.27 225.97 99.27 237.06"/></g><g id="Ebene_3" data-name="Ebene 3"><polygon class="cls-2" points="263.33 375.3 79.68 433.49 79.68 62.11 265.11 101.34 263.33 375.3"/><path d="M299.42,418.31A107.84,107.84,0,0,1,298,400.55c0-9.15,2.13-15.84,5.95-20.09,3.4-3.94,8.61-6.27,15-6.27s11.59,1.91,15.32,5.53c5.21,4.88,7.86,12.86,7.86,21.89a31.84,31.84,0,0,1-.64,7.44h28.71v9.26ZM334,409.05a31.53,31.53,0,0,0,.74-7.65c0-11.17-5.42-18-15.3-18-9.46,0-14,6.7-14,16.91a39.09,39.09,0,0,0,.74,8.71Z"/><path d="M299.52,361.72A96.08,96.08,0,0,1,298,344c0-9.89,1.8-16.27,5.85-20.73,3.18-3.62,8.07-5.64,13.6-5.64,9.46,0,15.73,6,18.29,13.51h.32c1.91-5.53,7-8.83,14.45-10.53,10-2.34,16.91-4,19.67-5.53v9.56c-2.13,1.18-8.19,2.77-17.12,4.79-9.88,2.13-13.6,6-13.92,14.35v8.72h31v9.25Zm32.64-9.25V343c0-9.89-5.42-16.16-13.61-16.16-9.24,0-13.29,6.7-13.39,16.48a37.82,37.82,0,0,0,.85,9.14Z"/><path d="M298.56,295.25h71.66v9.25H298.56Z"/><path d="M370.22,263.34l-71.66,23.39v-10l35.3-11.16c9.67-3.08,18.39-5.74,26.79-7.65v-.22c-8.29-2-17.33-5-26.68-8.18L298.56,237.4v-9.89l71.66,25.62Z"/><path d="M347.68,214.2l22.54,7.44v9.57l-71.66-24.34V195.7l71.66-24.45v9.89l-22.54,7.66Zm-7.23-23.49-20.62,7c-4.68,1.6-8.93,2.66-13.08,3.72v.22c4.25,1.06,8.61,2.23,13,3.61l20.73,7Z"/><path d="M306.43,155.28v21.79h-7.87V124h7.87v21.9h63.79v9.36Z"/><path d="M336.62,78.92v27.85h25.83v-31h7.77V116H298.56V77.33h7.77v29.44H329V78.92Z"/></g></svg>