<?xml version="1.0" encoding="utf-8"?>
<!-- Generator: Adobe Illustrator 25.0.0, SVG Export Plug-In . SVG Version: 6.00 Build 0)  -->
<svg version="1.1" xmlns="http://www.w3.org/2000/svg" xmlns:xlink="http://www.w3.org/1999/xlink" x="0px" y="0px"
	 viewBox="0 0 503.6 503.6" style="enable-background:new 0 0 503.6 503.6;" xml:space="preserve">
<style type="text/css">
	.st0{display:none;}
	.st1{display:inline;}
	.st2{font-family:'ArialMT';}
	.st3{font-size:72px;}
	.st4{fill:none;stroke:#000000;stroke-width:7.1296;stroke-linecap:round;stroke-miterlimit:10;}
	.st5{fill:none;stroke:#000000;stroke-width:6.8767;stroke-linecap:round;stroke-miterlimit:10;}
	.st6{display:inline;opacity:0.15;}
</style>
<g id="Number" class="st0">
	<text transform="matrix(1 0 0 1 231.7787 457.4454)" class="st1 st2 st3">8</text>
</g>
<g id="New_icon_1_">
	<path class="st4" d="M-85,198.6"/>
	<path class="st5" d="M331.7,419.3H130.2c-5.1,0-9.4-4.9-9.4-10.9V96c0-6,4.2-10.9,9.4-10.9h201.5c5.1,0,9.4,4.9,9.4,10.9v312.4
		C341,414.4,336.8,419.3,331.7,419.3z"/>
	<line class="st5" x1="120.8" y1="361.8" x2="341" y2="361.8"/>
	<ellipse class="st5" cx="71" cy="129.1" rx="22.1" ry="21.8"/>
	<ellipse class="st5" cx="432.6" cy="129.1" rx="22.1" ry="21.8"/>
	<line class="st5" x1="93.1" y1="129.1" x2="120.8" y2="129.1"/>
	<line class="st5" x1="341" y1="129.1" x2="410.5" y2="129.1"/>
	<line class="st5" x1="341" y1="391.1" x2="375.8" y2="391.1"/>
	<path class="st5" d="M341,102.4c0-9.7,6.8-14.1,11.9-16.4c7-3.2,30.3-3.5,30.3,13.1"/>
	<path class="st5" d="M383.3,99.1v279.5c-0.4,0.5,1.5,12.5-8.8,12.5"/>
</g>
<g id="Template" class="st0">
	<g transform="translate(1 1)" class="st6">
		<g>
			<path d="M403.8,101.5c-10.9,0-20.2,9.1-22.8,21.3h-12.5v-14.2c0-16.4-10-28.4-23.5-28.4H156.7c-12.9,0-23.5,10.7-23.5,24.2v18.5
				h-12.5c-2.6-12.2-11.9-21.3-22.8-21.3c-12.9,0-23.5,12.8-23.5,28.4s10.6,28.4,23.5,28.4c10.9,0,20.2-9.1,22.8-21.3h12.5v220.4
				v42.7c0,12.1,7.6,21.3,17.7,21.3h164.8c10,0,17.7-9.2,17.7-21.3V393h17.7c10,0,17.7-9.2,17.7-21.3V137.1H381
				c2.6,12.2,11.9,21.3,22.8,21.3c12.9,0,23.5-12.8,23.5-28.4C427.3,114.3,416.7,101.5,403.8,101.5z M97.8,144.2
				c-6.5,0-11.8-6.4-11.8-14.2s5.3-14.2,11.8-14.2s11.8,6.4,11.8,14.2S104.3,144.2,97.8,144.2z M356.7,108.6v14.2h-23.5v-14.2
				c0-5.7,5.3-14.2,11.8-14.2C352,94.4,356.7,100.1,356.7,108.6z M144.9,104.4c0-5.7,5.3-10,11.8-10h168.3
				c-2.1,3.9-3.3,8.3-3.5,12.8c0,0.5,0,0.9,0,1.4v241.7H144.9C144.9,350.3,144.9,104.4,144.9,104.4z M321.4,400.1
				c0,4.3-2.4,7.1-5.9,7.1H150.8c-3.5,0-5.9-2.8-5.9-7.1v-35.5h176.5v21.3V400.1z M356.7,371.6c0,4.3-2.4,7.1-5.9,7.1h-17.7v-21.3
				V137.1h23.5V371.6z M403.8,144.2c-6.5,0-11.8-6.4-11.8-14.2s5.3-14.2,11.8-14.2s11.8,6.4,11.8,14.2
				C415.6,137.8,410.3,144.2,403.8,144.2z"/>
		</g>
	</g>
</g>
</svg>
