<svg xmlns="http://www.w3.org/2000/svg" viewBox="0 0 491.5 491.5"><defs><style>.cls-1,.cls-2{fill:none;}.cls-1{stroke:#000;stroke-linecap:round;stroke-miterlimit:10;stroke-width:6px;}</style></defs><g id="Ebene_4" data-name="Ebene 4"><path class="cls-1" d="M294.26,160.06s-11.48-14.36,5.42-27.46c13.9-10.77,4.95-22.15,1.32-25.86a14.89,14.89,0,0,0-2.2-1.84c-3.89-2.73-19.2-14.33-15.16-25.71"/><path class="cls-1" d="M319.39,161s-11.48-14.35,5.43-27.46c13.89-10.77,4.94-22.14,1.32-25.85a16.05,16.05,0,0,0-2.2-1.85c-3.9-2.72-19.21-14.32-15.17-25.71"/><path class="cls-1" d="M343.25,160.06s-11.48-14.36,5.43-27.46c13.89-10.77,4.95-22.15,1.32-25.86a14.89,14.89,0,0,0-2.2-1.84c-3.89-2.73-19.21-14.33-15.16-25.71"/><polygon class="cls-2" points="250.24 433.77 390.27 433.77 424.95 194.57 260.41 194.57 229.34 294.96 250.24 433.77"/><path class="cls-2" d="M114.48,420.69a67.92,67.92,0,0,0,82.19-37.62c.23-.52.44-1.05.66-1.57a36.88,36.88,0,0,1-8.38.82c-15.62,0-40.6-5.78-59-11.49-22.27-6.89-52.48-19.07-61.66-29.28A67.93,67.93,0,0,0,114.48,420.69Z"/><polygon class="cls-2" points="214.23 194.57 221.77 244.68 237.28 194.57 214.23 194.57"/><path class="cls-2" d="M69.52,336.55c1.22,4.75,21.38,18,61.57,30.46,23.62,7.31,41.69,10.47,53.32,11.18a69.09,69.09,0,0,0,7.92.08,24.86,24.86,0,0,0,4.47-.61,6.1,6.1,0,0,0,2.58-2.88c-.85-1.9-4.17-4.87-10-8.47-1.35-.83-2.82-1.69-4.44-2.59-10.21-5.64-25.81-12.42-47-19-40.82-12.63-65.06-12.88-68.15-9.48a2.63,2.63,0,0,1-.09.55C69.65,336.07,69.6,336.31,69.52,336.55Z"/><path d="M69.52,336.55c.08-.24.13-.48.21-.72a2.63,2.63,0,0,0,.09-.55,1.16,1.16,0,0,0-.31.48A1.52,1.52,0,0,0,69.52,336.55Z"/><path d="M68.24,341.55c.36-1.67.79-3.33,1.28-5a1.52,1.52,0,0,1,0-.79,1.16,1.16,0,0,1,.31-.48A2.24,2.24,0,0,0,68.26,333a2.22,2.22,0,0,0-2,.36,4.6,4.6,0,0,0-.57,1.18C65,336.72,66,339.08,68.24,341.55Z"/><path d="M262,189.57l3-9.6a11,11,0,1,0-21.11-6.53l-5,16.13H208.42l10,66.1L186.13,359.85c-13.35-7.22-32-14.27-47-18.91-26.6-8.23-66.8-16.64-72.9-7.54a2.22,2.22,0,0,1,2-.36,2.24,2.24,0,0,1,1.56,2.24c3.09-3.4,27.33-3.15,68.15,9.48,21.15,6.54,36.75,13.32,47,19,1.62.9,3.09,1.76,4.44,2.59,5.84,3.6,9.16,6.57,10,8.47a6.1,6.1,0,0,1-2.58,2.88,24.86,24.86,0,0,1-4.47.61,69.09,69.09,0,0,1-7.92-.08c-11.63-.71-29.7-3.87-53.32-11.18C90.9,354.57,70.74,341.3,69.52,336.55c-.49,1.67-.92,3.33-1.28,5,9.18,10.21,39.39,22.39,61.66,29.28,18.45,5.71,43.43,11.5,59,11.49a36.88,36.88,0,0,0,8.38-.82c-.22.52-.43,1.05-.66,1.57A67.82,67.82,0,0,1,68.24,341.55c-2.22-2.47-3.21-4.83-2.55-7a4.6,4.6,0,0,1,.57-1.18,2.19,2.19,0,0,0-.79,1.11A72.29,72.29,0,0,0,203.36,378a11,11,0,0,0,1-2.29L225.94,306l20,132.82H394.59l36.13-249.2Zm-47.73,5h23.05l-15.51,50.11Zm10,100-23.41,75.65a45.72,45.72,0,0,0-10.24-7.83l29.5-95.34,3.41-11,19-61.49,1.55-5,4.54-14.66a6,6,0,1,1,11.55,3.58l-3.43,11.08-1.54,5-27.55,89Zm166,139.2h-140L229.34,295l31.07-100.39H425Z"/><path d="M93.26,62.76V171.28h-14V62.76Z"/><path d="M117.75,64.21A145.92,145.92,0,0,1,144.64,62c15,0,24.63,2.74,31.4,8.86,5.48,4.83,8.53,12.23,8.53,20.61,0,14.33-9,23.82-20.45,27.69v.48c8.38,2.9,13.37,10.62,15.94,21.9,3.54,15.13,6.13,25.6,8.38,29.78H174c-1.78-3.22-4.19-12.4-7.25-25.92-3.22-15-9-20.6-21.73-21.09h-13.2v47h-14Zm14,49.43H146.1c15,0,24.47-8.21,24.47-20.61,0-14-10.15-20.12-25-20.28-6.76,0-11.59.64-13.84,1.28Z"/></g></svg>