<svg xmlns="http://www.w3.org/2000/svg" viewBox="0 0 491.5 491.5"><defs><style>.cls-1{fill:none;}</style></defs><g id="Layer_7" data-name="Layer 7"><path class="cls-1" d="M220.51,283.23h0A261,261,0,0,1,246,296.32c2.95-1.45,5.93-2.86,9-4.22l.79-.35c-9.71-2.74-20.94-6.55-28.53-11.14-2.55.82-5.1,1.58-7.54,2.27Z"/><path d="M401.65,299.41c-6.25-14.05-21.15-23.14-43.1-26.31-14.59-4.91-33.55-9.15-53.42-12a340.56,340.56,0,0,0-49.1-3.41c-2.86-4.6-11.87-7.46-26.91-8.51-16-1.12-36.85,0-58.75,3.05-19.87,2.8-38.83,7-53.42,12-22,3.17-36.85,12.27-43.1,26.31C66.52,307,72.34,328,90.26,349.67c16.42,19.85,41.26,38.16,70.42,52a37.24,37.24,0,0,0,1.57,4.28c7.34,16.48,26.84,26.21,54.92,27.39q2.88.12,5.85.12c26.17,0,56.41-7.09,85.89-20.21,31.71-14.11,58.82-33.54,76.34-54.71C403.16,336.89,409,315.89,401.65,299.41ZM217.38,428.35c-25.65-1.09-43.43-9.5-50.22-23.72,29.31,13,59.33,20,85.33,20q3,0,5.85-.12l.55,0A168.29,168.29,0,0,1,217.38,428.35Zm40.75-8.87c-26.69,1.14-58.49-5.86-89.5-19.66-1.25-.56-2.48-1.13-3.71-1.71-1.85-.85-3.68-1.73-5.49-2.62-27-13.31-50-30.49-65.32-49-16.64-20.11-22.21-39.26-15.69-53.92C84,280.13,97.6,272,117.88,269.14l.45-.1c14.33-4.84,33.06-9,52.74-11.81a328.94,328.94,0,0,1,44.81-3.43c4.57,0,8.89.14,12.9.42,10.37.72,16.45,2.24,19.78,3.77,2.38,1.08,3.35,2.17,3.46,3a2.75,2.75,0,0,1-.65,1.88c-2.06,2.93-9.14,7.46-23.43,12.28q-2.69.9-5.71,1.82c-3.28,1-6.87,2-10.8,3l-7.37,1.86,7,2.88c2.59,1.06,5,2.09,7.38,3.14h0c7.72,3.44,15.15,7.19,22.23,11.21,1.73,1,3.43,2,5.11,3,19.15,11.5,35.42,24.92,47.18,39.14,16.64,20.11,22.21,39.26,15.69,53.91S284.21,418.38,258.13,419.48Zm-2.34-127.73-.79.35q-4.56,2-9,4.22a261,261,0,0,0-25.51-13.09h0l-.79-.35c2.44-.69,5-1.45,7.54-2.27C234.85,285.2,246.08,289,255.79,291.75ZM381.4,355.36c-17,20.58-43.5,39.52-74.52,53.33-1.24.55-2.48,1.07-3.71,1.59a36.76,36.76,0,0,0,10.08-13.2c7.33-16.49,1.51-37.49-16.41-59.14-11.54-13.95-27.27-27.13-45.72-38.55Q254,298,257,296.67c2.34-1,4.76-2.07,7.38-3.14l7-2.88-7.37-1.86c-14.08-3.56-23.91-7.19-30.38-10.38,11.4-4.18,21.64-9.56,23.14-15.72l2.79,0a328.82,328.82,0,0,1,44.81,3.43c19.67,2.77,38.4,7,52.74,11.81l.45.1c20.28,2.89,33.93,11,39.46,23.43C403.61,316.1,398,335.25,381.4,355.36Z"/><path d="M198.25,97.75c17.13,0,28.56,13.33,28.56,36.93,0,26.08-13.71,39-29.7,39-15.42,0-28.74-12.56-28.93-37.31,0-24.74,13.51-38.64,29.88-38.64Zm-.95,10.09c-10.28,0-15.8,12.37-15.8,28-.38,15.61,5.52,27.79,16,27.79,11,0,16-11.8,16-28.17,0-15-4.38-27.6-16-27.6Zm-1.33,118,72.71-128.3h10.66l-72.9,128.3ZM279,149c17.14,0,28.37,13.32,28.37,36.93,0,26.07-13.71,39-29.51,39-15.42,0-28.74-12.38-28.93-37.12,0-24.94,13.51-38.83,29.88-38.83ZM278,159c-10.28,0-16,12.38-16,28-.19,15.8,5.9,27.79,16.18,27.79,11,0,16-11.8,16-28.17,0-15-4.38-27.61-16-27.61Z"/></g></svg>