<svg xmlns="http://www.w3.org/2000/svg" viewBox="0 0 491.5 491.5"><defs><style>.cls-1{fill:none;stroke:#000;stroke-linecap:round;stroke-linejoin:round;stroke-width:6px;}</style></defs><g id="Ebene_4" data-name="Ebene 4"><path d="M353,246.51h0l-144.79-93a5.81,5.81,0,0,0-4.36-2h-.41a5.81,5.81,0,0,0-4.36,2l-144.8,93a7.34,7.34,0,0,0-2.71,8.29,6.43,6.43,0,0,0,3.88,4.26,5.75,5.75,0,0,0,5.05-.58l32.63-21v206h221v-206l32.62,21a5.69,5.69,0,0,0,3.11.93,6.21,6.21,0,0,0,5.82-4.6A7.34,7.34,0,0,0,353,246.51Zm-214,190V321.8h60.58V436.48Zm168.21,0H205.55V315.8H133V436.52H100.15V225.38l103.21-66.29.31-.2,103.51,66.49Z"/><path class="cls-1" d="M389.28,49.55s.93,68.9,56.5,111.35v0c-55.57,42.45-56.5,111.35-56.5,111.35l0,.06s-.93-68.9-56.5-111.35v0c55.57-42.45,56.5-111.35,56.5-111.35"/></g></svg>