<svg xmlns="http://www.w3.org/2000/svg" viewBox="0 0 491.5 491.5"><g id="Ebene_4" data-name="Ebene 4"><path d="M361.44,250.71h0l-144.79-93a5.85,5.85,0,0,0-4.37-2h-.4a5.79,5.79,0,0,0-4.37,2l-144.79,93A7.32,7.32,0,0,0,60,259a6.43,6.43,0,0,0,3.88,4.26,5.71,5.71,0,0,0,5-.58l32.63-21v206h221v-206l32.62,21a5.8,5.8,0,0,0,3.12.92,6.23,6.23,0,0,0,5.82-4.59A7.33,7.33,0,0,0,361.44,250.71Zm-214,190V326H208V440.67Zm168.2,0H214V320H141.39V440.71H108.57V229.58l103.2-66.3.31-.2,103.51,66.5Z"/><path d="M336,41.76c-27.41-1.67-50.33,18.94-52.5,21L266.37,75.49a3,3,0,0,0-.62,4.2L270,85.38,266.46,88l-4.7-6.32a3,3,0,0,0-4.2-.62L240.25,93.92a3,3,0,0,0-.62,4.2l22.89,30.77a3,3,0,0,0,4.2.62L284,116.63a3,3,0,0,0,.61-4.2L281,107.55l3.52-2.62,4.11,5.53a3,3,0,0,0,4.2.61l4.81-3.58L438,296.11a3,3,0,0,0,4.2.61l18.59-13.82a3,3,0,0,0,.61-4.2l-140.61-189a115.42,115.42,0,0,1,33.52-17C365.94,69.05,373.74,69,373.81,69a3,3,0,0,0,2.72-1.71,3,3,0,0,0-.4-3.2C364.62,50.19,351.13,42.68,336,41.76Zm-58,71.85-12.49,9.29L246.24,97l12.49-9.3Zm2.13-12.92-2.23,1.67-7.39-9.93,2.24-1.66ZM454.75,279.87,441,290.12,302.47,103.91l7.67-5.71,6.1-4.53ZM316.07,85.62q-4.76,3.54-9.61,7.85l-10,7.42-4.82,3.58-19.3-25.95,14.9-11.09.27-.22c.22-.22,22.59-21,48.18-19.46,11.7.72,22.39,6,31.85,15.76C357.81,64.79,337.94,69.36,316.07,85.62Z"/></g></svg>