<svg xmlns="http://www.w3.org/2000/svg" viewBox="0 0 491.5 491.5"><defs><style>.cls-1{fill:#231f20;}</style></defs><g id="Ebene_4" data-name="Ebene 4"><path d="M347.27,234.53h0l-144.79-93a5.81,5.81,0,0,0-4.37-2h-.4a5.85,5.85,0,0,0-4.37,2l-144.79,93a7.34,7.34,0,0,0-2.71,8.29,6.43,6.43,0,0,0,3.88,4.25,5.71,5.71,0,0,0,5.05-.58l32.63-21v206h221v-206l32.63,21a5.74,5.74,0,0,0,3.11.92,6.22,6.22,0,0,0,5.82-4.59A7.33,7.33,0,0,0,347.27,234.53Zm-214,190V309.82H193.8V424.49Zm168.2,0H199.8V303.82H127.22V424.53H94.4V213.4l103.2-66.3.31-.2,103.51,66.5Z"/><path class="cls-1" d="M434,159.7c-.54-13,5.63-26,18.35-38.38,14.34-14,21.31-28.95,20.72-44.42-.92-24.26-20.12-40.63-20.94-41.32L451,34.65l-132.41.69-10.82.06.31.26a24.42,24.42,0,1,0,24.2,30.07,40,40,0,0,1,2.44,12.52c.35,12.83-6,25.35-18.79,37.23-14.57,13.51-21.74,28.07-21.31,43.3.69,24.35,20.63,41.11,21.48,41.82l1.09.9H460.51l-8.46-7C451.88,194.37,434.81,180.06,434,159.7ZM308.5,76.62A16.55,16.55,0,1,1,325,60.07,16.56,16.56,0,0,1,308.5,76.62Zm11.59,117c-3.82-3.56-17.14-17.26-17.62-35.12-.34-12.84,6-25.36,18.79-37.24C335.84,107.75,343,93.18,342.56,78s-8.51-27.62-14.63-34.8L448,42.55c3.74,3.55,16.48,16.94,17.12,34.71.48,13.14-5.7,26.06-18.35,38.42-14.42,14.08-21.39,29-20.72,44.43.65,14.81,8.23,26.56,14.1,33.51Z"/></g></svg>