<?xml version="1.0" encoding="UTF-8"?>
<!DOCTYPE svg PUBLIC "-//W3C//DTD SVG 1.1//EN" "http://www.w3.org/Graphics/SVG/1.1/DTD/svg11.dtd">
<!-- Creator: CorelDRAW -->
<svg xmlns="http://www.w3.org/2000/svg" xml:space="preserve" width="6.82666in" height="6.82666in" style="shape-rendering:geometricPrecision; text-rendering:geometricPrecision; image-rendering:optimizeQuality; fill-rule:evenodd; clip-rule:evenodd"
viewBox="0 0 6.82666 6.82666"
 xmlns:xlink="http://www.w3.org/1999/xlink">
 <defs>
  <style type="text/css">
   <![CDATA[
    .str0 {stroke:black;stroke-width:0.106665}
    .fil1 {fill:none}
    .fil0 {fill:black;fill-rule:nonzero}
   ]]>
  </style>
 </defs>
 <g id="Layer_x0020_1">
  <metadata id="CorelCorpID_0Corel-Layer"/>
  <g id="_226835856">
   <path id="_175246536" class="fil0" d="M0.862909 5.01517c-0.0166811,0.0241575 -0.0106181,0.0572756 0.0135394,0.0739567 0.0241575,0.0166811 0.0572756,0.0106181 0.0739567,-0.0135394l1.0718 -1.55462 0.706358 1.02456c0.0166811,0.0241575 0.0497992,0.0302205 0.0739567,0.0135394 0.0241575,-0.0166811 0.0302205,-0.0497992 0.0135394,-0.0739567l-0.747602 -1.08438c-0.00384252,-0.00669685 -0.00920079,-0.0126614 -0.0159803,-0.0173346 -0.024248,-0.0167165 -0.0574646,-0.0106102 -0.0741811,0.0136378l0.000137795 9.44882e-005 -1.11552 1.61804z"/>
   <path id="_174501368" class="fil0" d="M2.72252 4.49657c-0.0103504,0.0274961 0.00354724,0.058189 0.0310433,0.0685394 0.0274961,0.0103504 0.058189,-0.00354724 0.0685394,-0.0310433l0.642744 -1.70703 0.7935 1.67416 0.048126 -0.0227087 -0.0481929 0.0228425c0.0126142,0.0266142 0.0444213,0.0379646 0.0710354,0.0253504 0.0155433,-0.00736614 0.025874,-0.0212795 0.0292756,-0.0368819l0.664803 -2.45411 0.45476 1.6267 0.371724 1.32966 -3.07857 0 -1.86464 0c-0.0294528,0 -0.0533346,0.0238819 -0.0533346,0.0533346 0,0.0294528 0.0238819,0.0533346 0.0533346,0.0533346l1.86464 0 3.14792 0c0.00499213,7.08661e-005 0.0100787,-0.000559055 0.0151299,-0.00197244 0.0283661,-0.00792913 0.0449331,-0.0373543 0.0370039,-0.0657205l-0.00015748 4.33071e-005 -0.390551 -1.39701 -0.50576 -1.80914c-0.00378346,-0.0192992 -0.0181378,-0.0357638 -0.0384055,-0.0412559 -0.0284291,-0.00770079 -0.0577205,0.00910236 -0.0654213,0.0375315l0.0514764 0.0139449 -0.0514567 -0.013748 -0.678307 2.50395 -0.783949 -1.65401c-0.00534646,-0.0134961 -0.0161457,-0.0247795 -0.0307992,-0.0302953 -0.027563,-0.010378 -0.0583268,0.00355906 -0.0687047,0.031122l0.000122047 4.72441e-005 -0.686925 1.82437z"/>
   <circle id="_174501344" class="fil1 str0" cx="2.06095" cy="2.47831" r="0.321586"/>
   <polygon id="_174501272" class="fil0" points="2.11456,1.72794 2.11456,2.04952 2.00735,2.04952 2.00735,1.88248 2.00735,1.77038 2.00735,1.72794 "/>
   <polygon id="_174501152" class="fil0" points="2.11456,3.22868 2.11456,2.90709 2.00735,2.90709 2.00735,3.07414 2.00735,3.18623 2.00735,3.22868 "/>
   <circle id="_174501128" class="fil1 str0" transform="matrix(0.710612 0.710612 -0.710612 0.710612 2.06095 2.47831)" r="0.32"/>
   <polygon id="_174501056" class="fil0" points="2.62945,1.98562 2.40205,2.21302 2.32625,2.13721 2.44437,2.01909 2.52363,1.93983 2.55365,1.90982 "/>
   <polygon id="_174500936" class="fil0" points="1.56826,3.0468 1.79566,2.81941 1.71986,2.7436 1.60174,2.86172 1.52248,2.94099 1.49246,2.971 "/>
   <circle id="_174500912" class="fil1 str0" transform="matrix(2.66101E-014 1.00496 -1.00496 2.66101E-014 2.06096 2.47831)" r="0.32"/>
   <polygon id="_174500840" class="fil0" points="2.81133,2.53191 2.48974,2.53191 2.48974,2.42471 2.65679,2.42471 2.76888,2.42471 2.81133,2.42471 "/>
   <polygon id="_174500768" class="fil0" points="1.31059,2.53191 1.63217,2.53191 1.63217,2.42471 1.46513,2.42471 1.35303,2.42471 1.31059,2.42471 "/>
   <path id="_174500696" class="fil0" d="M2.32606 2.74341l-7.87402e-006 7.87402e-006c-0.0732047,0.0732047 -0.169157,0.109811 -0.265098,0.109811 -0.095937,0 -0.19189,-0.0366063 -0.265094,-0.109811l-7.87402e-006 -7.87402e-006 -3.93701e-006 -3.93701e-006c-0.0732047,-0.0732047 -0.109815,-0.169157 -0.109815,-0.265098 0,-0.0959409 0.0366102,-0.191894 0.109815,-0.265102l3.93701e-006 -3.93701e-006c0.0732047,-0.0732126 0.169161,-0.109815 0.265102,-0.109815 0.0959449,0 0.191898,0.0366063 0.265106,0.109815 0.0732047,0.0732087 0.109815,0.169161 0.109815,0.265106 0,0.0959409 -0.0366102,0.191894 -0.109815,0.265102zm-0.0754252 -0.0754094l7.87402e-006 -7.87402e-006c0.052374,-0.052374 0.078563,-0.121031 0.078563,-0.189685 0,-0.0686575 -0.026189,-0.137315 -0.078563,-0.189689 -0.052374,-0.052374 -0.121031,-0.078563 -0.189689,-0.078563 -0.0686535,0 -0.137315,0.026189 -0.189685,0.078563l-3.93701e-006 3.93701e-006c-0.052374,0.052374 -0.078563,0.121031 -0.078563,0.189685 0,0.0686535 0.0261929,0.137311 0.078563,0.189681l3.93701e-006 3.93701e-006 7.87402e-006 7.87402e-006c0.0523701,0.0523701 0.121028,0.0785591 0.189677,0.0785591 0.0686535,0 0.137311,-0.026189 0.189681,-0.0785591z"/>
   <polygon id="_174500504" class="fil0" points="2.55365,3.0468 2.32626,2.8194 2.40206,2.7436 2.52018,2.86172 2.59944,2.94098 2.62945,2.971 "/>
   <polygon id="_226836048" class="fil0" points="1.49247,1.98562 1.71987,2.21301 1.79567,2.13721 1.67754,2.01909 1.59828,1.93983 1.56827,1.90981 "/>
   <polyline id="_226836024" class="fil1 str0" points="5.35028,2.93792 5.19085,3.01923 5.03141,2.93792 4.87198,3.01923 4.71254,2.93792 "/>
   <polygon id="_226835952" class="fil0" points="3.84881,3.44711 3.68257,3.53189 3.65841,3.54421 3.63424,3.53189 3.49217,3.45944 3.35011,3.53189 3.32594,3.54421 3.30178,3.53189 3.13554,3.44711 3.18387,3.35211 3.32594,3.42457 3.46801,3.35211 3.49217,3.33979 3.51634,3.35211 3.65841,3.42457 3.80048,3.35211 "/>
   <polygon id="_226835904" class="fil0" points="2.48015,4.11736 2.26517,4.2531 2.23684,4.27099 2.2085,4.2531 2.02186,4.13525 1.83522,4.2531 1.80689,4.27099 1.77855,4.2531 1.56357,4.11736 1.62024,4.02736 1.80688,4.14521 1.99352,4.02736 2.02186,4.00947 2.05019,4.02736 2.23684,4.14521 2.42348,4.02736 "/>
  </g>
 </g>
 <rect class="fil1" width="6.82666" height="6.82666"/>
</svg>
