<?xml version="1.0" encoding="utf-8"?>
<!-- Generator: Adobe Illustrator 25.0.0, SVG Export Plug-In . SVG Version: 6.00 Build 0)  -->
<svg version="1.1" id="Ebene_1" xmlns="http://www.w3.org/2000/svg" xmlns:xlink="http://www.w3.org/1999/xlink" x="0px" y="0px"
	 viewBox="0 0 503.6 503.6" style="enable-background:new 0 0 503.6 503.6;" xml:space="preserve">
<style type="text/css">
	.st0{fill:none;stroke:#000000;stroke-width:7;stroke-linecap:round;stroke-linejoin:round;stroke-miterlimit:10;}
	.st1{fill:none;stroke:#000000;stroke-width:7;stroke-miterlimit:10;}
	.st2{display:none;}
	.st3{display:inline;opacity:0.17;}
</style>
<g id="New_icon">
	<path class="st0" d="M208.8,492.9"/>
	<path class="st0" d="M351.2,492.9"/>
	<path class="st1" d="M360.7,276.9c0,62.1-48.8,112.4-108.9,112.4S142.9,339,142.9,276.9"/>
	<path class="st1" d="M138.3,273.1c0-30.7,50.9-24,114.8-24"/>
	<path class="st1" d="M363.4,272.9c0-30.7-51-23.8-115.3-23.8"/>
	<line class="st1" x1="134.9" y1="276.1" x2="366.8" y2="274.6"/>
</g>
<g id="Template_1_" class="st2">
	<g transform="translate(1 1)" class="st3">
		<g>
			<g>
				<path d="M254.1,188.1c-42.9,0-79.2,36.3-79.2,79.2s36.3,79.2,79.2,79.2s79.2-36.3,79.2-79.2S297,188.1,254.1,188.1z
					 M254.1,333.3c-35.6,0-66-30.4-66-66s30.4-66,66-66s66,30.4,66,66S289.7,333.3,254.1,333.3z"/>
				<path d="M432.3,244.5V95.7c0-2.6-1.3-4.6-4-5.9c-2.6-1.3-5.3-0.7-7.3,1.3c-18.5,18.5-28.4,42.9-28.4,68.6v39.6
					c0,15.2,3.3,30.4,9.9,43.6l1.5,2.7c-6.9,4.8-11.4,12.7-11.4,21.7v118.8c0,14.5,11.9,26.4,26.4,26.4s26.4-11.9,26.4-26.4V267.3
					C445.5,257.6,440.2,249.1,432.3,244.5z M416.5,240.9l-2-4c-5.3-11.9-8.6-24.4-8.6-37.6V159c0-15.8,4.6-31.7,13.2-44.9v126.7
					L416.5,240.9L416.5,240.9z M432.3,386.1c0,7.3-5.9,13.2-13.2,13.2s-13.2-5.9-13.2-13.2V267.3c0-7.3,5.9-13.2,13.2-13.2
					s13.2,5.9,13.2,13.2V386.1z"/>
				<path d="M115.5,95.7c-4,0-6.6,2.6-6.6,6.6v72.6c0,8.9-5.4,16.1-13.2,18.7v-91.3c0-4-2.6-6.6-6.6-6.6s-6.6,2.6-6.6,6.6v91.3
					c-7.8-2.6-13.2-9.9-13.2-18.7v-72.6c0-4-2.6-6.6-6.6-6.6s-6.6,2.6-6.6,6.6v72.6c0,16.2,11.2,29.4,26.4,32.4v34.5
					c-11.4,3-19.8,13.3-19.8,25.6v118.8c0,14.5,11.9,26.4,26.4,26.4s26.4-11.9,26.4-26.4V267.3c0-12.2-8.4-22.6-19.8-25.6v-34.5
					c15.2-3,26.4-16.1,26.4-32.4v-72.6C122.1,98.3,119.4,95.7,115.5,95.7z M102.3,267.3v118.8c0,7.3-5.9,13.2-13.2,13.2
					s-13.2-5.9-13.2-13.2V267.3c0-7.3,5.9-13.2,13.2-13.2C96.3,254.1,102.3,260.1,102.3,267.3z"/>
				<path d="M82.5,293.7c0,4,2.6,6.6,6.6,6.6s6.6-2.6,6.6-6.6s-2.6-6.6-6.6-6.6S82.5,289.8,82.5,293.7z"/>
				<path d="M419.1,287.1c-4,0-6.6,2.6-6.6,6.6s2.6,6.6,6.6,6.6s6.6-2.6,6.6-6.6S423.1,287.1,419.1,287.1z"/>
				<path d="M254.1,141.9c-69.3,0-125.4,56.1-125.4,125.4s56.1,125.4,125.4,125.4s125.4-56.1,125.4-125.4S323.4,141.9,254.1,141.9z
					 M254.1,379.5c-62,0-112.2-50.2-112.2-112.2s50.2-112.2,112.2-112.2s112.2,50.2,112.2,112.2S316.1,379.5,254.1,379.5z"/>
			</g>
		</g>
	</g>
</g>
<path class="st0" d="M297.4,384.6v72.5c0,6.3-6.1,11.5-13.6,11.5h-64.1c-7.5,0-13.6-5.1-13.6-11.5l-1.5-72.5"/>
<path class="st0" d="M338.6,218.3H163.5c-8.8,0-16-7.2-16-16V82.6c0-8.8,7.2-16,16-16h175.1c8.8,0,16,7.2,16,16v119.7
	C354.6,211.2,347.5,218.3,338.6,218.3z"/>
<path class="st0" d="M356.7,66.6H145.4c-3.9,0-7.1-3.2-7.1-7.1V48.1c0-3.9,3.2-7.1,7.1-7.1h211.4c3.9,0,7.1,3.2,7.1,7.1v11.3
	C363.8,63.4,360.6,66.6,356.7,66.6z"/>
<line class="st0" x1="333" y1="224" x2="333.5" y2="245"/>
<line class="st0" x1="173.3" y1="223.5" x2="173.3" y2="244.4"/>
<ellipse class="st0" cx="184.3" cy="109" rx="12.9" ry="13.2"/>
<line class="st0" x1="201.4" y1="109" x2="219.9" y2="109"/>
</svg>
