<?xml version="1.0" encoding="utf-8"?>
<!-- Generator: Adobe Illustrator 25.0.0, SVG Export Plug-In . SVG Version: 6.00 Build 0)  -->
<svg version="1.1" xmlns="http://www.w3.org/2000/svg" xmlns:xlink="http://www.w3.org/1999/xlink" x="0px" y="0px"
	 viewBox="0 0 503.6 503.6" style="enable-background:new 0 0 503.6 503.6;" xml:space="preserve">
<style type="text/css">
	.st0{display:none;}
	.st1{display:inline;opacity:0.17;}
	.st2{fill:none;stroke:#000000;stroke-width:7;stroke-miterlimit:10;}
	.st3{fill:none;stroke:#000000;stroke-width:7;stroke-linecap:round;stroke-miterlimit:10;}
</style>
<g id="Ebene_1">
	<g id="Template_1_" class="st0">
		<g transform="translate(1 1)" class="st1">
			<g>
				<g>
					<path d="M254.1,188.1c-42.9,0-79.2,36.3-79.2,79.2s36.3,79.2,79.2,79.2s79.2-36.3,79.2-79.2S297,188.1,254.1,188.1z
						 M254.1,333.3c-35.6,0-66-30.4-66-66s30.4-66,66-66s66,30.4,66,66S289.7,333.3,254.1,333.3z"/>
					<path d="M432.3,244.5V95.7c0-2.6-1.3-4.6-4-5.9c-2.6-1.3-5.3-0.7-7.3,1.3c-18.5,18.5-28.4,42.9-28.4,68.6v39.6
						c0,15.2,3.3,30.4,9.9,43.6l1.5,2.7c-6.9,4.8-11.4,12.7-11.4,21.7v118.8c0,14.5,11.9,26.4,26.4,26.4s26.4-11.9,26.4-26.4V267.3
						C445.5,257.6,440.2,249.1,432.3,244.5z M416.5,240.9l-2-4c-5.3-11.9-8.6-24.4-8.6-37.6V159c0-15.8,4.6-31.7,13.2-44.9v126.7
						L416.5,240.9L416.5,240.9z M432.3,386.1c0,7.3-5.9,13.2-13.2,13.2s-13.2-5.9-13.2-13.2V267.3c0-7.3,5.9-13.2,13.2-13.2
						s13.2,5.9,13.2,13.2V386.1z"/>
					<path d="M115.5,95.7c-4,0-6.6,2.6-6.6,6.6v72.6c0,8.9-5.4,16.1-13.2,18.7v-91.3c0-4-2.6-6.6-6.6-6.6s-6.6,2.6-6.6,6.6v91.3
						c-7.8-2.6-13.2-9.9-13.2-18.7v-72.6c0-4-2.6-6.6-6.6-6.6s-6.6,2.6-6.6,6.6v72.6c0,16.2,11.2,29.4,26.4,32.4v34.5
						c-11.4,3-19.8,13.3-19.8,25.6v118.8c0,14.5,11.9,26.4,26.4,26.4s26.4-11.9,26.4-26.4V267.3c0-12.2-8.4-22.6-19.8-25.6v-34.5
						c15.2-3,26.4-16.1,26.4-32.4v-72.6C122.1,98.3,119.4,95.7,115.5,95.7z M102.3,267.3v118.8c0,7.3-5.9,13.2-13.2,13.2
						s-13.2-5.9-13.2-13.2V267.3c0-7.3,5.9-13.2,13.2-13.2C96.3,254.1,102.3,260.1,102.3,267.3z"/>
					<path d="M82.5,293.7c0,4,2.6,6.6,6.6,6.6s6.6-2.6,6.6-6.6s-2.6-6.6-6.6-6.6S82.5,289.8,82.5,293.7z"/>
					<path d="M419.1,287.1c-4,0-6.6,2.6-6.6,6.6s2.6,6.6,6.6,6.6s6.6-2.6,6.6-6.6S423.1,287.1,419.1,287.1z"/>
					<path d="M254.1,141.9c-69.3,0-125.4,56.1-125.4,125.4s56.1,125.4,125.4,125.4s125.4-56.1,125.4-125.4S323.4,141.9,254.1,141.9z
						 M254.1,379.5c-62,0-112.2-50.2-112.2-112.2s50.2-112.2,112.2-112.2s112.2,50.2,112.2,112.2S316.1,379.5,254.1,379.5z"/>
				</g>
			</g>
		</g>
	</g>
	<line class="st2" x1="81.3" y1="365.4" x2="422.3" y2="365.1"/>
	<circle class="st2" cx="164.2" cy="162.5" r="43"/>
	<circle class="st2" cx="164.2" cy="287.5" r="43"/>
	<circle class="st2" cx="339.4" cy="287.5" r="43"/>
	<circle class="st2" cx="339.4" cy="161.9" r="43"/>
	<line class="st3" x1="164.2" y1="228.9" x2="164.2" y2="257.8"/>
	<line class="st3" x1="164.2" y1="186.3" x2="164.2" y2="215.2"/>
	<line class="st3" x1="339.4" y1="186.3" x2="339.4" y2="215.2"/>
	<line class="st3" x1="339.4" y1="228.9" x2="339.4" y2="257.8"/>
	<line class="st3" x1="339.4" y1="316.1" x2="339.4" y2="345"/>
	<line class="st3" x1="339.4" y1="105" x2="339.4" y2="133.9"/>
	<line class="st3" x1="164.2" y1="104.4" x2="164.2" y2="133.3"/>
	<line class="st3" x1="164.2" y1="316.1" x2="164.2" y2="345"/>
	<line class="st3" x1="106.8" y1="287.5" x2="135.7" y2="287.5"/>
	<line class="st3" x1="192.8" y1="287.5" x2="221.7" y2="287.5"/>
	<line class="st3" x1="281.9" y1="287.5" x2="310.8" y2="287.5"/>
	<line class="st3" x1="281.9" y1="161.9" x2="310.8" y2="161.9"/>
	<line class="st3" x1="106.8" y1="161.9" x2="135.7" y2="161.9"/>
	<line class="st3" x1="192.8" y1="162.5" x2="221.7" y2="162.5"/>
	<line class="st3" x1="367.9" y1="161.9" x2="396.8" y2="161.9"/>
	<line class="st3" x1="367.9" y1="287.5" x2="396.8" y2="287.5"/>
	<path class="st2" d="M294.3,404.2h-84.9c-4.6,0-8.3-3.7-8.3-8.3v-2.1c0-4.6,3.7-8.3,8.3-8.3h84.9c4.6,0,8.3,3.7,8.3,8.3v2.1
		C302.5,400.4,298.8,404.2,294.3,404.2z"/>
</g>
<g id="Ebene_2">
	<path class="st2" d="M409.3,421.3h-315c-6.6,0-12-5.4-12-12v-315c0-6.6,5.4-12,12-12h315c6.6,0,12,5.4,12,12v315
		C421.3,415.9,415.9,421.3,409.3,421.3z"/>
	<circle class="st2" cx="114.5" cy="394.8" r="11.5"/>
	<circle class="st2" cx="339.4" cy="394.8" r="11.5"/>
	<circle class="st2" cx="385.3" cy="394.8" r="11.5"/>
	<circle class="st2" cx="164.2" cy="394.8" r="11.5"/>
</g>
</svg>
