<svg xmlns="http://www.w3.org/2000/svg" viewBox="0 0 491.5 491.5"><defs><style>.cls-1{stroke:#000;}.cls-1,.cls-3{stroke-miterlimit:10;}.cls-2{fill:#231f20;}.cls-3{fill:none;stroke:#231f20;stroke-width:6px;}</style></defs><g id="Ebene_3" data-name="Ebene 3"><path class="cls-1" d="M252.52,194.61c-.78-30.46-.64-76.07,2.91-77.58,5-2.12,6.58-4.28,6.86-4.71a29.58,29.58,0,0,0,8.34-5.78,29.23,29.23,0,0,0,8.75-20.94,29.57,29.57,0,0,0-1.41-9,89.35,89.35,0,0,1-2.43-9.43l-4.47-21.37H228.41l-4.63,23.47a72.78,72.78,0,0,1-1.88,7.57,29.16,29.16,0,0,0-1.33,9.1,29.56,29.56,0,0,0,17,26.31h0c0,.1,1.46,2.48,6.91,4.79,3.54,1.51,3.68,47.12,2.91,77.58-3.44,0-24.26.46-24.26,3.72,0,2.95,17.53,3.73,26.8,3.73s26.8-.78,26.8-3.73C276.77,195.07,256,194.66,252.52,194.61ZM222.88,77.13a72.37,72.37,0,0,0,1.91-7.68l4.47-22.64h41l4.3,20.55A91.43,91.43,0,0,0,277,76.9c.09.31.19.62.28.93a11.42,11.42,0,0,1-2.83,7.78c-2.35,2.54-6,3.83-10.87,3.84h-.08c-8,0-10.78-2.81-13.73-5.79s-5.88-5.94-13.7-6.44c-5-.32-9,.75-11.72,3.19a11.23,11.23,0,0,0-2.7,3.65A28.48,28.48,0,0,1,222.88,77.13Zm-1.2,10.54a10.44,10.44,0,0,1,3.36-6.5c2.53-2.24,6.22-3.22,11-2.92,7.43.48,10.28,3.35,13,6.14,3,3,6,6.09,14.46,6.09h.08c5.16,0,9.07-1.41,11.62-4.17A11.65,11.65,0,0,0,278,81a28.43,28.43,0,0,1-16.4,30.53h0a28.4,28.4,0,0,1-39.89-23.84Zm23.25,28.41a20.55,20.55,0,0,1-4.94-2.85,28.82,28.82,0,0,0,9.58,1.78H250a29.5,29.5,0,0,0,9.87-1.69,20.93,20.93,0,0,1-4.83,2.76c-1,.42-3.66,1.55-3.91,41.44-.1,15.58.22,30.93.37,37.08h0v.52h0v.51h0l0,.94a2.13,2.13,0,0,1-1.48.67,2.64,2.64,0,0,1-1.63-.68l0-.93v-.51h0v-.52h0c.14-6.16.46-21.54.36-37.08C248.58,117.63,245.93,116.5,244.93,116.08ZM250,201c-17.65,0-25.58-1.92-25.76-2.68a.18.18,0,0,1,0-.08l0,0,.07-.06,0,0,.09-.06.06,0,.12-.06.09,0,.14-.06.11,0,.16-.06.13,0,.19-.06.16-.05.2,0,.2-.05.21-.06.24-.06.21,0,.28-.06.22-.05.31-.06.23,0,.33-.06.25,0,.37-.06.26-.05.41-.06.26,0,.45-.07.27,0,.48-.07.27,0,.52-.07.29,0,.55-.07.29,0,.58-.06.3,0,.61-.06.32,0,.64,0,.33,0,.67-.06.35,0,.66,0,.39,0,.68,0,.42,0,.69,0,.45,0,.71,0,.47,0,.73,0,.49,0,.74,0h.52l.75,0,.55,0,.74,0h1.87l0,1.34.15.16a3.86,3.86,0,0,0,2.54,1.14,3.23,3.23,0,0,0,2.38-1.14l.15-.16,0-1.34h1.86l.74,0h.56l.74,0H257l.75,0,.48,0,.73,0,.47,0,.72,0,.42,0,.72,0,.39,0,.7,0,.37,0,.69,0,.35,0,.66.06.32,0,.65.06.3,0,.63.06.29,0,.6.06.26,0,.58.07.26,0,.54.06.24,0,.52.06.23,0,.48.07.23,0,.45.07.21,0,.41.07.21,0,.38.07.2,0,.34.07.19,0,.3.06.19,0,.27.06.18.05.22,0,.17.05.2.06.16,0,.15.05a.66.66,0,0,1,.15.05l.13,0,.13.05.09,0,.12.06.06,0,.09.06.05,0,.06.07,0,0a.3.3,0,0,1,0,.08C275.55,199.09,267.63,201,250,201Z"/><path class="cls-1" d="M385.43,193.33c-.77-30.46-.64-76.07,2.91-77.58,5-2.12,6.59-4.28,6.87-4.71a29.57,29.57,0,0,0,8.33-5.79,29.45,29.45,0,0,0,7.34-29.95,92.55,92.55,0,0,1-2.43-9.43L404,44.49H361.32L356.69,68a70.34,70.34,0,0,1-1.88,7.57A29.39,29.39,0,0,0,370.51,111h0c.06.1,1.46,2.47,6.91,4.79,3.55,1.51,3.68,47.12,2.91,77.58-3.44,0-24.25.45-24.25,3.71,0,3,17.53,3.73,26.8,3.73s26.79-.78,26.79-3.73C409.68,193.78,388.87,193.37,385.43,193.33ZM355.8,75.84a74,74,0,0,0,1.91-7.67l4.46-22.65h41l4.29,20.56a90.55,90.55,0,0,0,2.46,9.53c.1.31.19.62.28.93a11.44,11.44,0,0,1-2.83,7.79c-2.35,2.53-6,3.83-10.86,3.84h-.09c-8,0-10.78-2.82-13.72-5.79S376.8,76.44,369,75.94c-5-.33-9,.75-11.71,3.19a10.92,10.92,0,0,0-2.7,3.64A28.1,28.1,0,0,1,355.8,75.84Zm-1.21,10.55a10.51,10.51,0,0,1,3.37-6.5c2.53-2.24,6.21-3.23,11-2.92,7.43.47,10.28,3.35,13,6.13,3,3,6,6.1,14.46,6.1h.09c5.16,0,9.07-1.42,11.62-4.17a11.67,11.67,0,0,0,2.77-5.33,28.39,28.39,0,0,1-16.4,30.52h0a28.38,28.38,0,0,1-39.89-23.83Zm23.25,28.4A20.46,20.46,0,0,1,372.9,112a28.86,28.86,0,0,0,9.58,1.77h.41a29.17,29.17,0,0,0,9.87-1.7,20.56,20.56,0,0,1-4.83,2.76c-1,.43-3.66,1.56-3.9,41.45-.1,15.57.21,30.93.36,37.08h0v.51h0v.52h0l0,.94A2.16,2.16,0,0,1,383,196a2.75,2.75,0,0,1-1.63-.68l0-.93v-.52h0v-.51h0c.15-6.16.46-21.54.37-37.08C381.5,116.35,378.84,115.22,377.84,114.79Zm5.05,84.94c-17.66,0-25.58-1.93-25.76-2.68a.18.18,0,0,1,0-.09,0,0,0,0,0,0,0l.07-.06,0,0,.09-.06.07,0,.12-.06.08,0,.14-.06.11,0,.16-.06.14-.05.18,0,.16-.05.21-.06.19,0,.21-.05.24-.06.21,0,.29-.06.21,0,.31-.07.23,0,.34-.06.25-.05.36-.06.26,0,.41-.07.27,0,.44-.06.27,0,.49-.06.27,0,.51-.06.29,0,.55-.06.29,0,.59-.06.3,0,.6-.06.33,0,.64-.06.33,0,.66,0,.35,0,.66,0,.4,0,.67-.05.43,0,.68,0,.45,0,.72,0,.46,0,.74,0,.48,0,.74,0,.52,0,.75,0h.56l.74,0h1.86l0,1.34.15.15A3.83,3.83,0,0,0,383,197a3.26,3.26,0,0,0,2.39-1.15l.15-.15,0-1.34h1.86l.75,0h.55l.75,0,.52,0,.74,0,.49,0,.73,0,.46,0,.72,0,.42,0,.72,0,.39,0,.71.05.36,0,.69.05.35,0,.66,0,.33,0,.65.06.29,0,.64.07.28,0,.6.07.27,0,.58.06.25,0,.55.07.24,0,.52.07.22,0,.49.07.23,0,.44.07.21,0,.42.07.21,0,.37.07.21,0,.33.06.19,0,.31.07.19,0,.26.06.18,0,.23.06.17.05.19,0,.16.05.16.05.15.06.12,0,.13.06.1,0,.11.06.07,0,.09.06,0,0,.07.06,0,0a.12.12,0,0,1,0,.08C408.46,197.8,400.54,199.73,382.89,199.73Z"/><path class="cls-1" d="M116.69,196c-.77-30.46-.63-76.07,2.91-77.58,5-2.12,6.59-4.28,6.87-4.71a29.54,29.54,0,0,0,8.33-5.78,29.47,29.47,0,0,0,7.34-30,91.87,91.87,0,0,1-2.43-9.43l-4.46-21.38H92.58L88,70.64a70.34,70.34,0,0,1-1.88,7.57,29.39,29.39,0,0,0,15.7,35.41h0c.06.1,1.46,2.48,6.91,4.79,3.55,1.51,3.68,47.12,2.91,77.58-3.44.05-24.25.46-24.25,3.72,0,2.95,17.53,3.73,26.8,3.73s26.79-.78,26.79-3.73C140.94,196.46,120.13,196.05,116.69,196ZM87.06,78.52A74.88,74.88,0,0,0,89,70.84L93.43,48.2h41l4.29,20.55a91.43,91.43,0,0,0,2.46,9.54c.1.31.19.62.28.93A11.42,11.42,0,0,1,138.61,87c-2.35,2.54-6,3.83-10.86,3.84h-.09c-8,0-10.77-2.81-13.72-5.79s-5.88-5.94-13.71-6.44c-5-.32-9,.75-11.71,3.19a11,11,0,0,0-2.7,3.65A28,28,0,0,1,87.06,78.52ZM85.85,89.06a10.53,10.53,0,0,1,3.37-6.5c2.53-2.24,6.21-3.22,11-2.92,7.43.48,10.28,3.35,13,6.14,3,3,6,6.09,14.46,6.09h.09c5.16,0,9.07-1.41,11.62-4.17a11.63,11.63,0,0,0,2.77-5.33,28.39,28.39,0,0,1-16.4,30.53h0A28.4,28.4,0,0,1,85.85,89.06Zm23.25,28.41a20.76,20.76,0,0,1-4.94-2.85,28.86,28.86,0,0,0,9.58,1.78h.41a29.41,29.41,0,0,0,9.87-1.69,21.07,21.07,0,0,1-4.83,2.76c-1,.42-3.66,1.55-3.9,41.44-.1,15.58.22,30.93.36,37.08h0v.52h0V197h0l0,.94a2.1,2.1,0,0,1-1.48.67,2.69,2.69,0,0,1-1.63-.68l0-.93v-.51h0V196h0c.15-6.16.46-21.54.37-37.08C112.76,119,110.1,117.89,109.1,117.47Zm5.05,84.93c-17.66,0-25.58-1.92-25.76-2.68a.3.3,0,0,1,0-.08l0,0,.07-.06,0,0,.09-.06.07,0,.12-.06a.2.2,0,0,1,.08,0l.14-.06.12,0,.16-.06.13,0,.18-.06.16,0L90,199l.19-.05.21-.06.25-.06.2,0,.29-.06.21,0,.31-.06.23-.05.34-.06.25,0,.36-.06.27,0,.4-.06.27,0,.44-.07.27,0,.49-.07.27,0,.51-.06.29,0,.55-.07.29,0,.59-.06.3,0,.6-.06.33,0,.64-.06.33,0,.66-.06.35,0,.66-.05.4,0,.67,0,.43,0,.68,0,.45,0,.72,0,.46,0,.74,0,.48,0,.74,0h.52l.75,0H109l.74,0h1.86l0,1.34.14.16a3.89,3.89,0,0,0,2.54,1.14,3.25,3.25,0,0,0,2.39-1.14l.15-.16,0-1.34h1.86l.75,0h.55l.75,0h.52l.74,0,.49,0,.73,0,.46,0,.72,0,.42,0,.72,0,.39,0,.71,0,.37,0,.68.05.35,0,.67.06.32,0,.65.06.29,0,.64.06.28,0,.6.06.27,0,.58.07.25,0,.55.06.24,0,.52.06.22,0,.49.07.23,0,.44.07.21,0,.42.07.21,0,.37.07.21,0,.33.07.2,0,.3.06.19.05.26.06.18,0,.23.06.17,0,.19.06.16.05.16,0,.15.05.12.05.13,0,.1,0,.11.06.07,0,.09.06,0,0,.07.07,0,0s0,.05,0,.08C139.73,200.48,131.8,202.4,114.15,202.4Z"/></g><g id="Ebene_4" data-name="Ebene 4"><path class="cls-2" d="M81.48,289.69V461.12h6v-151h60.66v151h6V289.69Zm6,14.41v-8.41h60.66v8.41Z"/><path class="cls-2" d="M345.14,289.69V461.12h6v-151h60.65v151h6V289.69Zm6,14.41v-8.41h60.65v8.41Z"/><path class="cls-2" d="M213.31,289.69V461.12h6v-151H280v151h6V289.69Zm6,14.41v-8.41H280v8.41Z"/><polyline class="cls-3" points="40.76 465.65 40.76 203.8 459.71 203.8 459.71 465.65"/></g></svg>