<svg xmlns="http://www.w3.org/2000/svg" viewBox="0 0 491.5 491.5"><defs><style>.cls-1,.cls-2{fill:none;stroke:#000;stroke-linecap:round;stroke-width:5.06px;}.cls-1{stroke-miterlimit:10;}.cls-2{stroke-linejoin:round;}</style></defs><g id="Ebene_4" data-name="Ebene 4"><g id="Layer_1"><path d="M209.06,140.3H439.51a2.7,2.7,0,0,1,2.7,2.7v40.23a11.47,11.47,0,0,1-11.45,11.44H217.81a11.47,11.47,0,0,1-11.45-11.44V143a2.7,2.7,0,0,1,2.7-2.7Zm227.75,5.4h-225v37.53a6.08,6.08,0,0,0,6.05,6h213a6.08,6.08,0,0,0,6.05-6V145.7Z"/><path d="M211.76,140.3H436.81V65h-225Zm227.75,5.4H209.06a2.7,2.7,0,0,1-2.7-2.7V62.34a2.7,2.7,0,0,1,2.7-2.7H439.51a2.7,2.7,0,0,1,2.7,2.7V143A2.7,2.7,0,0,1,439.51,145.7Z"/><path d="M390.15,205.09a2.7,2.7,0,1,0-5.4,0v18a2.7,2.7,0,0,0,5.4,0Z"/><path d="M263.82,205.09a2.7,2.7,0,1,0-5.4,0v18a2.7,2.7,0,0,0,5.4,0Z"/><path d="M235.28,142.26a2.7,2.7,0,0,0,5.4,0v-53h64.24v53a2.7,2.7,0,0,0,5.4,0V86.55a2.7,2.7,0,0,0-2.7-2.7H238a2.7,2.7,0,0,0-2.7,2.7v55.71Z"/><path d="M338.24,142.26a2.7,2.7,0,1,0,5.4,0v-53h64.25v53a2.7,2.7,0,0,0,5.4,0V86.55a2.7,2.7,0,0,0-2.7-2.7H340.94a2.7,2.7,0,0,0-2.7,2.7v55.71Z"/><path d="M361.64,125.59h29.42a10.07,10.07,0,0,1,10.06,10.06h0a10.07,10.07,0,0,1-10.06,10H361.64a10.07,10.07,0,0,1-10.05-10h0a10.07,10.07,0,0,1,10.05-10.06Zm29.42,5.4H361.64a4.68,4.68,0,0,0-4.65,4.66h0a4.68,4.68,0,0,0,4.65,4.65h29.42a4.68,4.68,0,0,0,4.66-4.65h0a4.68,4.68,0,0,0-4.66-4.66Z"/><path d="M257.5,125.59h29.42A10.07,10.07,0,0,1,297,135.65h0a10.07,10.07,0,0,1-10.06,10H257.5a10.07,10.07,0,0,1-10.05-10h0a10.07,10.07,0,0,1,10.05-10.06Zm29.42,5.4H257.5a4.68,4.68,0,0,0-4.65,4.66h0a4.68,4.68,0,0,0,4.65,4.65h29.42a4.68,4.68,0,0,0,4.66-4.65h0a4.68,4.68,0,0,0-4.66-4.66Z"/><path d="M208.23,135.46a2.7,2.7,0,1,0,0-5.4H197.4a2.7,2.7,0,0,0-2.7,2.7v64.1a11.23,11.23,0,0,0,3,7.64,10,10,0,0,0,7.37,3.28H443.53a10,10,0,0,0,7.37-3.28,11.23,11.23,0,0,0,3-7.64v-64.1a2.7,2.7,0,0,0-2.7-2.7H438.91c-1.49,0-.85,1.21-.85,2.7s-.64,2.7.85,2.7h9.56v61.4a5.8,5.8,0,0,1-1.52,4,4.67,4.67,0,0,1-3.42,1.56H205a4.7,4.7,0,0,1-3.43-1.56,5.84,5.84,0,0,1-1.51-4v-61.4Z"/></g><g id="Ebene_2-2" data-name="Ebene 2"><line class="cls-1" x1="42.87" y1="270.99" x2="42.44" y2="453.92"/><line class="cls-1" x1="61.79" y1="271.35" x2="61.57" y2="335.91"/><line class="cls-1" x1="107.43" y1="338.73" x2="107.07" y2="394.84"/><line class="cls-1" x1="60.85" y1="395.78" x2="60.78" y2="454.28"/><line class="cls-1" x1="292.74" y1="395.56" x2="292.74" y2="453.34"/><line class="cls-1" x1="309.78" y1="356.86" x2="310.5" y2="453.34"/><path class="cls-2" d="M43.23,269.91c.58-.15,7.29-5.64,18,.21"/><path class="cls-2" d="M42.8,454.49c.57.15,7.29,5.64,18-.21"/><path class="cls-2" d="M292.67,454.13c.57.15,7.29,5.64,18-.21"/><path class="cls-2" d="M309.78,356.86c-.36-.51-.94-15.31-23.18-18.71"/><line class="cls-1" x1="44.82" y1="337.5" x2="286.6" y2="338.15"/><line class="cls-1" x1="61.14" y1="394.77" x2="292.59" y2="394.84"/><path class="cls-1" d="M83.45,337.21c-8.52-5.92-4.76-22.53,2.32-23.39"/><path class="cls-1" d="M131.05,337.65c8.52-5.92,3.75-22.75-3.33-23.55"/><line class="cls-1" x1="86.13" y1="313.89" x2="127.07" y2="313.96"/></g><path d="M364.58,407.49v-4.86l6.21-6c14.95-14.22,21.7-21.79,21.79-30.62,0-5.94-2.88-11.43-11.62-11.43-5.31,0-9.73,2.7-12.43,4.95L366,353.91a25.67,25.67,0,0,1,16.57-6c12.61,0,17.92,8.65,17.92,17,0,10.81-7.83,19.54-20.17,31.43l-4.68,4.32v.18h26.29v6.58Z"/></g></svg>