<?xml version="1.0" encoding="utf-8"?>
<!-- Generator: Adobe Illustrator 25.0.0, SVG Export Plug-In . SVG Version: 6.00 Build 0)  -->
<svg version="1.1" xmlns="http://www.w3.org/2000/svg" xmlns:xlink="http://www.w3.org/1999/xlink" x="0px" y="0px"
	 viewBox="0 0 503.6 503.6" style="enable-background:new 0 0 503.6 503.6;" xml:space="preserve">
<style type="text/css">
	.st0{fill:none;stroke:#000000;stroke-width:7.6854;stroke-miterlimit:10;}
	.st1{display:none;}
</style>
<g id="New_icon">
	<path class="st0" d="M349.7,182H153.9c-6.6,0-12-5.4-12-12V50.9c0-6.6,5.4-12,12-12h195.8c6.6,0,12,5.4,12,12V170
		C361.7,176.6,356.3,182,349.7,182z"/>
	<path class="st0" d="M349.7,448.8H153.9c-6.6,0-12-5.4-12-12V194.4c0-6.6,5.4-12,12-12h195.8c6.6,0,12,5.4,12,12v242.4
		C361.7,443.4,356.3,448.8,349.7,448.8z"/>
	<line class="st0" x1="164.7" y1="89.2" x2="164.7" y2="131.7"/>
	<line class="st0" x1="164.7" y1="294.4" x2="164.7" y2="336.9"/>
	<line class="st0" x1="180.3" y1="451.9" x2="180.3" y2="464.7"/>
	<line class="st0" x1="323.7" y1="451.9" x2="323.7" y2="464.7"/>
</g>
<g id="Template_1_" class="st1">
</g>
</svg>
