<svg xmlns="http://www.w3.org/2000/svg" viewBox="0 0 491.5 491.5"><defs><style>.cls-1,.cls-2{fill:none;}.cls-1{stroke:#000;stroke-linecap:round;stroke-miterlimit:10;stroke-width:6px;}</style></defs><g id="Ebene_4" data-name="Ebene 4"><path class="cls-1" d="M320.27,162.09s-11.48-14.35,5.43-27.45c13.89-10.78,4.95-22.15,1.32-25.86a16.17,16.17,0,0,0-2.2-1.85c-3.89-2.72-19.21-14.32-15.17-25.7"/><path class="cls-1" d="M345.41,163s-11.49-14.35,5.42-27.46c13.89-10.77,4.95-22.15,1.32-25.86a14.89,14.89,0,0,0-2.2-1.84c-3.89-2.72-19.21-14.32-15.16-25.71"/><path class="cls-1" d="M369.27,162.09s-11.48-14.35,5.42-27.45c13.9-10.78,4.95-22.15,1.33-25.86a16.27,16.27,0,0,0-2.21-1.85c-3.89-2.72-19.2-14.32-15.16-25.7"/><polygon class="cls-2" points="276.25 435.81 416.28 435.81 450.96 196.6 286.43 196.6 255.36 297 276.25 435.81"/><path class="cls-2" d="M140.49,422.73a67.94,67.94,0,0,0,82.2-37.63c.22-.51.44-1,.65-1.56a36.25,36.25,0,0,1-8.38.81c-15.62,0-40.6-5.77-59-11.48-22.27-6.89-52.49-19.07-61.66-29.28A67.91,67.91,0,0,0,140.49,422.73Z"/><polygon class="cls-2" points="240.24 196.6 247.79 246.72 263.3 196.6 240.24 196.6"/><path class="cls-2" d="M95.54,338.59c1.22,4.75,21.37,18,61.56,30.46,23.63,7.31,41.69,10.47,53.33,11.18a66.61,66.61,0,0,0,7.92.07,24,24,0,0,0,4.46-.6,6,6,0,0,0,2.58-2.88c-.84-1.9-4.16-4.87-10-8.47-1.34-.83-2.82-1.7-4.43-2.59-10.22-5.64-25.81-12.42-47-19-40.82-12.64-65.06-12.88-68.16-9.48a2.11,2.11,0,0,1-.09.55C95.67,338.11,95.61,338.35,95.54,338.59Z"/><path d="M95.54,338.59c.07-.24.13-.48.2-.72a2.11,2.11,0,0,0,.09-.55,1.41,1.41,0,0,0-.31.48A1.43,1.43,0,0,0,95.54,338.59Z"/><path d="M94.26,343.59c.36-1.67.78-3.34,1.28-5a1.43,1.43,0,0,1,0-.79,1.41,1.41,0,0,1,.31-.48,2.22,2.22,0,0,0-3.55-1.89,4.38,4.38,0,0,0-.58,1.19C91,338.76,92,341.12,94.26,343.59Z"/><path d="M288,191.61l3-9.6a11,11,0,0,0-21.11-6.54l-5,16.14H234.43l10,66.1L212.15,361.89c-13.36-7.23-32-14.27-47-18.91-26.6-8.24-66.8-16.64-72.89-7.55a2.22,2.22,0,0,1,3.55,1.89c3.1-3.4,27.34-3.16,68.16,9.48,21.15,6.54,36.74,13.32,47,19,1.61.89,3.09,1.76,4.43,2.59,5.85,3.6,9.17,6.57,10,8.47a6,6,0,0,1-2.58,2.88,24,24,0,0,1-4.46.6,66.61,66.61,0,0,1-7.92-.07c-11.64-.71-29.7-3.87-53.33-11.18-40.19-12.44-60.34-25.71-61.56-30.46-.5,1.66-.92,3.33-1.28,5,9.17,10.21,39.39,22.39,61.66,29.28,18.44,5.71,43.42,11.5,59,11.48a36.25,36.25,0,0,0,8.38-.81c-.21.52-.43,1-.65,1.56A67.82,67.82,0,0,1,94.26,343.59c-2.23-2.47-3.22-4.83-2.56-7a4.38,4.38,0,0,1,.58-1.19,2.28,2.28,0,0,0-.8,1.12A72.29,72.29,0,0,0,229.37,380a10.67,10.67,0,0,0,1-2.28L252,308l20,132.82H420.61l36.13-249.2Zm-47.73,5H263.3l-15.51,50.11Zm10,100-23.41,75.65a45.94,45.94,0,0,0-10.23-7.84l29.5-95.33,3.4-11,19-61.49,1.55-5L274.61,177a6.05,6.05,0,1,1,11.56,3.58l-3.43,11.08-1.55,5-27.55,89Zm166,139.2h-140L255.36,297l31.06-100.39H451Z"/><path d="M185.71,140.94c-1.44-1.43-2.92-2.79-4.44-4.05a47.22,47.22,0,0,1-60,3.37,48.78,48.78,0,0,1-4.09-3.37c-1.53,1.26-3,2.62-4.45,4.05-15.67,15.59-25.9,40.94-25.9,69.52a2.63,2.63,0,1,0,5.25,0c0-27.38,9.75-51.6,24.61-66.15a53.16,53.16,0,0,0,65,0c14.86,14.55,24.62,38.77,24.62,66.15a2.63,2.63,0,1,0,5.25,0C211.62,181.88,201.39,156.53,185.71,140.94Z"/><path d="M149.24,62.9A39.14,39.14,0,0,0,124.05,132a37.9,37.9,0,0,0,4.61,3.35A39.16,39.16,0,1,0,149.24,62.9Zm19.39,66a33.41,33.41,0,0,1-5.74,3.33,33.06,33.06,0,0,1-27.3,0,33.18,33.18,0,1,1,33-3.33Z"/><path d="M264.72,93.45c-1-1-2.05-2-3.13-2.84A31.16,31.16,0,0,1,258.71,93a33.15,33.15,0,0,1-39.27,0,34.06,34.06,0,0,1-2.88-2.36c-1.07.88-2.11,1.84-3.12,2.84-11,11-18.21,28.78-18.21,48.88a1.85,1.85,0,0,0,3.69,0c0-19.25,6.85-36.28,17.3-46.51a37.38,37.38,0,0,0,45.71,0c10.45,10.23,17.31,27.26,17.31,46.51a1.85,1.85,0,0,0,3.69,0C282.93,122.23,275.74,104.42,264.72,93.45Z"/><path d="M239.08,38.59a27.51,27.51,0,0,0-17.71,48.59,28,28,0,0,0,3.24,2.36,27.47,27.47,0,0,0,28.94,0,28,28,0,0,0,3.24-2.36,27.52,27.52,0,0,0-17.71-48.59ZM252.71,85a24.15,24.15,0,0,1-4,2.34,23.27,23.27,0,0,1-19.19,0,23.67,23.67,0,0,1-4-2.34,23.31,23.31,0,1,1,27.26,0Z"/><path d="M83.57,95c-1-1-2-2-3.13-2.84a31.16,31.16,0,0,1-2.88,2.36,33.19,33.19,0,0,1-39.27,0,34.06,34.06,0,0,1-2.88-2.36C34.34,93.07,33.3,94,32.29,95c-11,11-18.22,28.78-18.22,48.88a1.85,1.85,0,0,0,3.7,0c0-19.25,6.85-36.28,17.3-46.51a37.38,37.38,0,0,0,45.71,0c10.45,10.23,17.31,27.26,17.31,46.51a1.85,1.85,0,0,0,3.69,0C101.78,123.81,94.59,106,83.57,95Z"/><path d="M57.93,40.17A27.51,27.51,0,0,0,40.22,88.76a28,28,0,0,0,3.24,2.36,27.47,27.47,0,0,0,28.94,0,28,28,0,0,0,3.24-2.36A27.52,27.52,0,0,0,57.93,40.17ZM71.56,86.6a23.53,23.53,0,0,1-4,2.35,23.41,23.41,0,1,1,4-2.35Z"/></g></svg>