<svg xmlns="http://www.w3.org/2000/svg" viewBox="0 0 491.5 491.5"><defs><style>.cls-1,.cls-2{fill:none;stroke:#000;stroke-linecap:round;stroke-width:6.5px;}.cls-1{stroke-miterlimit:10;}.cls-2{stroke-linejoin:round;}</style></defs><g id="Ebene_4" data-name="Ebene 4"><path d="M169.24,113q-2.15-2.15-4.44-4a47.36,47.36,0,0,1-64.05,0c-1.53,1.26-3,2.61-4.44,4-15.68,15.6-25.91,40.94-25.91,69.53a2.63,2.63,0,0,0,5.25,0c0-27.38,9.75-51.6,24.61-66.16a53.17,53.17,0,0,0,65,0c14.86,14.56,24.61,38.78,24.61,66.16a2.63,2.63,0,0,0,5.25,0C195.15,153.92,184.92,128.58,169.24,113Z"/><path d="M132.78,34.94a39.15,39.15,0,1,0,39.16,39.17A39.21,39.21,0,0,0,132.78,34.94ZM152.16,101a33.07,33.07,0,0,1-33,3.33,33.18,33.18,0,1,1,33-3.33Z"/><path d="M134.15,230V211.53H102.68v-6l30.22-43.25h9.9v42.1h9.49v7.19H142.8V230Zm0-25.64V181.73c0-3.55.1-7.09.32-10.63h-.32c-2.08,4-3.75,6.88-5.62,10l-16.58,23v.21Z"/><g id="Layer_1" data-name="Layer 1"><path d="M198.2,322.25H415.14a5.29,5.29,0,0,0,5.06-5.56V245.05a5.38,5.38,0,0,0-5.06-5.56H198.2a5.29,5.29,0,0,0-5,5.56v71.64A5.38,5.38,0,0,0,198.2,322.25ZM420.27,325H195.89c-4.55,0-8.23-4-8.23-8.88V242.24c0-4.7,3.47-8.45,7.8-8.45H417.81c4.34,0,7.8,3.75,7.8,8.45v76.91A5.55,5.55,0,0,1,420.27,325Z"/><path d="M212.86,323.12c0,1.08,1.23,1.88,2.75,1.88s2.74-.87,2.74-1.88V285.86h66v37.26c0,1.08,1.22,1.88,2.74,1.88s2.75-.87,2.75-1.88V284c0-1.08-1.23-1.88-2.75-1.88H215.53c-1.51,0-2.74.87-2.74,1.88l.07,39.14Z"/><path d="M318.59,323.12c0,1.08,1.23,1.88,2.74,1.88s2.75-.87,2.75-1.88V285.86h66v37.26c0,1.08,1.23,1.88,2.75,1.88s2.74-.87,2.74-1.88V284c0-1.08-1.23-1.88-2.74-1.88H321.26c-1.52,0-2.74.87-2.74,1.88l.07,39.14Z"/><path d="M342.64,305.14h30.18a10.35,10.35,0,0,1,10.33,10.33h0a10.35,10.35,0,0,1-10.33,10.32H342.64a10.35,10.35,0,0,1-10.33-10.32h0a10.35,10.35,0,0,1,10.33-10.33Zm30.18,5.49H342.64a4.68,4.68,0,0,0-4.77,4.76h0a4.68,4.68,0,0,0,4.77,4.77h30.18a4.68,4.68,0,0,0,4.77-4.77h0a4.83,4.83,0,0,0-1.37-3.39A4.69,4.69,0,0,0,372.82,310.63Z"/><path d="M235.68,305.14h30.19a10.36,10.36,0,0,1,10.33,10.33h0a10.36,10.36,0,0,1-10.33,10.32H235.68a10.35,10.35,0,0,1-10.32-10.32h0a10.32,10.32,0,0,1,3-7.3A10.18,10.18,0,0,1,235.68,305.14Zm30.19,5.49H235.68a4.68,4.68,0,0,0-4.76,4.76h0a4.68,4.68,0,0,0,4.76,4.77h30.19a4.7,4.7,0,0,0,4.77-4.77h0a4.79,4.79,0,0,0-1.38-3.39A5.08,5.08,0,0,0,265.87,310.63Z"/><path d="M439.48,325.43a19.24,19.24,0,0,0-9.39-2.24H183.25a19.37,19.37,0,0,0-9.38,2.24c-2.39,1.37-3.9,3.25-3.9,5.27v26.36a1.35,1.35,0,0,0,.57,1h0c.15,0,.29-.07.44-.07h.07c.14,0,.29-.07.43-.07h2.1c.21,0,.5.07.72.07h0a13.08,13.08,0,0,1,1.88-.29l.14-2.38V330.7a3.47,3.47,0,0,1,2.1-2.81,10.18,10.18,0,0,1,4.91-1.16h246.9a9.76,9.76,0,0,1,4.91,1.16,3.47,3.47,0,0,1,2.1,2.81v24.63h0c.07.87.14,1.73.22,2.6h0c0,.07-.22.29,0,.43a2.1,2.1,0,0,0,1.58.15c.44.14.87.21,1.3.36a4.92,4.92,0,0,0,2.24-.51,1.63,1.63,0,0,0,.94-1.23V330.78C443.38,328.68,441.86,326.8,439.48,325.43Z"/><path d="M174.16,424.51V365.29a5.44,5.44,0,0,1,1.58-3.82,5.19,5.19,0,0,1,3.69-1.52h254.7a5.31,5.31,0,0,1,5.28,5.34v59.22H429.22c-15.31-.14-15.67-.14-15.67,1.3s-.21,3.9,1.37,3.9h27.37a2.75,2.75,0,0,0,2.89-2.6V365.29c0-2.88.72-7.07-1.22-9s-6.72-1.59-9.83-1.59H179.43c-3.11,0-7.3,0-9.32,1.95s-1.73,5.78-1.73,8.59v61.82a2.75,2.75,0,0,0,2.89,2.6l27.44-.29c1.59,0,1.88-.94,1.88-2.31s0-2.6-1.59-2.6Z"/><line class="cls-1" x1="201.96" y1="387.83" x2="414.2" y2="387.83"/><polyline class="cls-2" points="414.06 387.83 413.99 410.5 414.06 426.25 414.06 387.83 200.37 387.83 199.57 426.1"/></g></g></svg>