<svg xmlns="http://www.w3.org/2000/svg" viewBox="0 0 491.5 491.5"><g id="Ebene_4" data-name="Ebene 4"><path d="M428.69,174.37v-4.86l6.21-6c15-14.22,21.7-21.79,21.79-30.62,0-5.94-2.88-11.43-11.61-11.43-5.32,0-9.73,2.7-12.43,5l-2.52-5.58a25.7,25.7,0,0,1,16.57-6c12.6,0,17.92,8.65,17.92,17,0,10.81-7.84,19.54-20.17,31.43l-4.69,4.32v.18h26.3v6.58Z"/><path d="M127.75,91.44c-1.43-1.43-2.91-2.79-4.44-4a47.28,47.28,0,0,1-64.05,0c-1.53,1.26-3,2.62-4.44,4C39.14,107,28.91,132.38,28.91,161a2.63,2.63,0,1,0,5.25,0c0-27.38,9.76-51.6,24.61-66.15a53.17,53.17,0,0,0,65,0c14.86,14.55,24.61,38.77,24.61,66.15a2.63,2.63,0,1,0,5.25,0C153.66,132.38,143.43,107,127.75,91.44Z"/><path d="M91.29,13.4a39.14,39.14,0,0,0-25.2,69.12,37.9,37.9,0,0,0,4.61,3.35,39.09,39.09,0,0,0,41.17,0,37.9,37.9,0,0,0,4.61-3.35A39.14,39.14,0,0,0,91.29,13.4Zm19.38,66.05a32.32,32.32,0,0,1-5.73,3.33,33.29,33.29,0,1,1,5.73-3.33Z"/><path d="M108.12,147a32.31,32.31,0,0,0-6.73.4c-14.07,2.34-21.51,12.65-23,23.56h.3a19.73,19.73,0,0,1,16-7.65c11.72,0,20,8.46,20,21.41,0,12.13-8.27,23.35-22,23.35-14.17,0-23.45-11-23.45-28.25,0-13.05,4.69-23.34,11.22-29.87a36.07,36.07,0,0,1,21.2-9.79,44.19,44.19,0,0,1,6.53-.51ZM92.73,201.15c7.64,0,12.84-6.43,12.84-15.91s-5.4-15.19-13.66-15.19a14.75,14.75,0,0,0-12.85,8.16,7.61,7.61,0,0,0-1,4c.21,10.91,5.2,19,14.58,19Z"/><path d="M424.58,376.14V355.55c-.11-1.71-1.35-3.25-3.3-4.37a15.66,15.66,0,0,0-7.67-1.83h-4.84a4.76,4.76,0,0,0,1.19-3.3V283.23a6.62,6.62,0,0,0-6.37-6.9H222a6.62,6.62,0,0,0-6.37,6.9v60.34a7.42,7.42,0,0,0,2.67,5.78H212a15.86,15.86,0,0,0-7.67,1.83c-1.94,1.12-3.18,2.66-3.18,4.31v21.38c-1.45,1.58-1.3,4.64-1.3,6.87v50.49a2.25,2.25,0,0,0,2.36,2.12l22.41-.23a2.25,2.25,0,0,0,.56-.07h.15a2.65,2.65,0,0,0,2.65-2.6l.6-28.66H397.86l-.05,15.88.06,12.85a2.65,2.65,0,0,0,2.65,2.65h0l.12,0a.9.9,0,0,0,.58.19h22.35a2.25,2.25,0,0,0,2.36-2.12V383.74c0-2.36.59-5.78-1-7.31A2.54,2.54,0,0,0,424.58,376.14Zm-43.64-27.55h-7.77a8.42,8.42,0,0,0-6.33-14H342.19a8.42,8.42,0,0,0-6.34,14H327V318.86h53.91ZM338.29,343a3.83,3.83,0,0,1,3.9-3.89h24.65a3.81,3.81,0,0,1,2.77,1.12,4,4,0,0,1,0,5.55,4,4,0,0,1-2.77,1.12H342.19a3.83,3.83,0,0,1-3.9-3.9Zm-87.35,0a3.83,3.83,0,0,1,3.89-3.89h24.66a4.19,4.19,0,0,1,2.77,1.12,4,4,0,0,1,0,5.55,4,4,0,0,1-2.77,1.12H254.83a3.83,3.83,0,0,1-3.89-3.9Zm43.65,5.61h-8.77a8.43,8.43,0,0,0-6.33-14H254.83a8.35,8.35,0,0,0-6,2.47,8.41,8.41,0,0,0-.37,11.51h-7.82V318.86h53.91Zm-74.5-63.06a4.32,4.32,0,0,1,4.13-4.54H401.4a4.39,4.39,0,0,1,4.13,4.54V344a4.33,4.33,0,0,1-4.13,4.55h-16V317.33c0-.89-1-1.54-2.24-1.54H324.73c-1.24,0-2.25.71-2.25,1.54l.06,31.26H299.07V317.33c0-.89-1-1.54-2.24-1.54H238.37c-1.23,0-2.24.71-2.24,1.54l.06,31.26h-12a4.4,4.4,0,0,1-4.13-4.55Zm-12,67.66a8.37,8.37,0,0,1,4-.95H413.73a8.06,8.06,0,0,1,4,.95,2.83,2.83,0,0,1,1.71,2.3v19.62c-.9,0-1.77,0-2.53,0h-208c-.78,0-1.66,0-2.53.05V355.49A2.83,2.83,0,0,1,208.06,353.19Zm213.16,78.92h-8.31c-4.86-.05-7.86-.08-9.74,0V402.88a2.55,2.55,0,0,0,.12-.74,2.65,2.65,0,0,0-2.65-2.65H226a2.64,2.64,0,0,0-2.65,2.6l-.63,30H204.58V383.74a4.46,4.46,0,0,1,1.3-3.13,4.22,4.22,0,0,1,3-1.23h208a4.3,4.3,0,0,1,4.3,4.36Z"/><path d="M466.9,190.91H159a11.85,11.85,0,0,0-11.84,11.84V460.93A11.85,11.85,0,0,0,159,472.77H466.9a11.85,11.85,0,0,0,11.84-11.84V202.75A11.85,11.85,0,0,0,466.9,190.91Zm7.76,270a7.77,7.77,0,0,1-7.76,7.76H159a7.77,7.77,0,0,1-7.76-7.76V202.75A7.77,7.77,0,0,1,159,195H466.9a7.77,7.77,0,0,1,7.76,7.76Z"/></g></svg>