<svg xmlns="http://www.w3.org/2000/svg" viewBox="0 0 491.5 491.5"><defs><style>.cls-1,.cls-2{fill:none;stroke:#000;stroke-linecap:round;stroke-width:6.5px;}.cls-1{stroke-miterlimit:10;}.cls-2{stroke-linejoin:round;}</style></defs><g id="Ebene_4" data-name="Ebene 4"><path d="M303.67,439.86V435l6.21-6c14.95-14.22,21.7-21.79,21.79-30.62,0-5.94-2.88-11.43-11.62-11.43-5.31,0-9.73,2.7-12.42,4.95l-2.53-5.58a25.72,25.72,0,0,1,16.57-5.95c12.61,0,17.93,8.65,17.93,17,0,10.81-7.84,19.54-20.18,31.43l-4.68,4.33v.17H341v6.58Z"/><g id="Layer_1" data-name="Layer 1"><path d="M222.36,270.13H439.3a5.29,5.29,0,0,0,5.05-5.56V192.93a5.38,5.38,0,0,0-5.05-5.56H222.36a5.29,5.29,0,0,0-5.06,5.56v71.64A5.38,5.38,0,0,0,222.36,270.13Zm222.06,2.74H220.05c-4.55,0-8.23-4-8.23-8.88V190.11c0-4.69,3.46-8.45,7.79-8.45H442c4.33,0,7.8,3.76,7.8,8.45V267A5.56,5.56,0,0,1,444.42,272.87Z"/><path d="M237,271c0,1.08,1.23,1.87,2.74,1.87s2.75-.86,2.75-1.87V233.73h66V271c0,1.08,1.23,1.87,2.75,1.87S314,272,314,271V231.85c0-1.08-1.23-1.87-2.74-1.87H239.69c-1.52,0-2.74.86-2.74,1.87L237,271Z"/><path d="M342.74,271c0,1.08,1.23,1.87,2.75,1.87s2.74-.86,2.74-1.87V233.73h66V271c0,1.08,1.23,1.87,2.74,1.87s2.75-.86,2.75-1.87V231.85c0-1.08-1.23-1.87-2.75-1.87H345.42c-1.52,0-2.75.86-2.75,1.87l.07,39.15Z"/><path d="M366.79,253H397a10.36,10.36,0,0,1,10.32,10.33h0A10.36,10.36,0,0,1,397,273.67H366.79a10.38,10.38,0,0,1-10.33-10.33h0A10.38,10.38,0,0,1,366.79,253ZM397,258.5H366.79a4.7,4.7,0,0,0-4.77,4.77h0a4.7,4.7,0,0,0,4.77,4.76H397a4.68,4.68,0,0,0,4.76-4.76h0a4.81,4.81,0,0,0-1.37-3.4A4.69,4.69,0,0,0,397,258.5Z"/><path d="M259.84,253H290a10.36,10.36,0,0,1,10.32,10.33h0A10.36,10.36,0,0,1,290,273.67H259.84a10.38,10.38,0,0,1-10.33-10.33h0a10.29,10.29,0,0,1,3-7.29A10.17,10.17,0,0,1,259.84,253ZM290,258.5H259.84a4.68,4.68,0,0,0-4.77,4.77h0a4.68,4.68,0,0,0,4.77,4.76H290a4.68,4.68,0,0,0,4.76-4.76h0a4.81,4.81,0,0,0-1.37-3.4A5.15,5.15,0,0,0,290,258.5Z"/><path d="M463.63,273.31a19.06,19.06,0,0,0-9.38-2.24H207.41a19.33,19.33,0,0,0-9.39,2.24c-2.38,1.37-3.9,3.25-3.9,5.27v26.36a1.36,1.36,0,0,0,.58,1h0c.14,0,.29-.07.43-.07h.08c.14,0,.28-.08.43-.08h2.09c.22,0,.51.08.73.08h0a11.68,11.68,0,0,1,1.87-.29l.15-2.39V278.58a3.46,3.46,0,0,1,2.09-2.82,10.29,10.29,0,0,1,4.91-1.15H454.39a9.9,9.9,0,0,1,4.91,1.15,3.46,3.46,0,0,1,2.09,2.82V303.2h0c.08.87.15,1.74.22,2.6h0c0,.08-.22.29,0,.44a2.15,2.15,0,0,0,1.59.14c.43.15.87.22,1.3.36a5,5,0,0,0,2.24-.5,1.66,1.66,0,0,0,.94-1.23V278.65C467.53,276.56,466,274.68,463.63,273.31Z"/><path d="M198.31,372.39V313.17a5.46,5.46,0,0,1,1.59-3.83,5.18,5.18,0,0,1,3.68-1.51H458.29a5.29,5.29,0,0,1,5.27,5.34v59.22H453.38c-15.31-.15-15.67-.15-15.67,1.3s-.22,3.9,1.37,3.9h27.37a2.76,2.76,0,0,0,2.89-2.6V313.17c0-2.89.72-7.08-1.23-9s-6.72-1.58-9.82-1.58H203.58c-3.1,0-7.29,0-9.31,1.95s-1.74,5.77-1.74,8.59V375a2.76,2.76,0,0,0,2.89,2.6l27.44-.29c1.59,0,1.88-.94,1.88-2.31s0-2.6-1.59-2.6Z"/><line class="cls-1" x1="226.11" y1="335.7" x2="438.36" y2="335.7"/><polyline class="cls-2" points="438.21 335.7 438.14 358.38 438.21 374.12 438.21 335.7 224.53 335.7 223.73 373.98"/></g><path d="M141.58,116.62c-1.43-1.43-2.91-2.79-4.44-4.05a47.28,47.28,0,0,1-64,0c-1.53,1.26-3,2.62-4.44,4.05C53,132.21,42.74,157.56,42.74,186.14a2.63,2.63,0,1,0,5.25,0c0-27.38,9.75-51.6,24.61-66.15a53.17,53.17,0,0,0,65,0c14.86,14.55,24.61,38.77,24.61,66.15a2.63,2.63,0,1,0,5.25,0C167.49,157.56,157.26,132.21,141.58,116.62Z"/><path d="M105.12,38.58a39.14,39.14,0,0,0-25.2,69.12,40.17,40.17,0,0,0,4.61,3.35,39.09,39.09,0,0,0,41.17,0,40.17,40.17,0,0,0,4.61-3.35,39.14,39.14,0,0,0-25.19-69.12Zm19.38,66.05a33.07,33.07,0,0,1-33,3.33,33.7,33.7,0,0,1-5.73-3.33,33.17,33.17,0,1,1,38.77,0Z"/><path d="M122,172.18a32.36,32.36,0,0,0-6.73.41c-14.07,2.34-21.52,12.65-23,23.55h.3a19.75,19.75,0,0,1,16-7.64c11.72,0,20,8.46,20,21.41,0,12.13-8.26,23.35-22,23.35C92.28,233.26,83,222.25,83,205c0-13,4.69-23.34,11.22-29.87a36,36,0,0,1,21.2-9.79,42.86,42.86,0,0,1,6.53-.51Zm-15.39,54.14c7.64,0,12.84-6.42,12.84-15.9s-5.4-15.2-13.67-15.2a14.77,14.77,0,0,0-12.84,8.16,7.67,7.67,0,0,0-1,4c.21,10.91,5.2,19,14.58,19Z"/></g></svg>