<svg xmlns="http://www.w3.org/2000/svg" viewBox="0 0 491.5 491.5"><g id="Ebene_4" data-name="Ebene 4"><path d="M130.06,108.75c-1.44-1.43-2.92-2.79-4.44-4a47.28,47.28,0,0,1-64.05,0c-1.53,1.26-3,2.62-4.45,4-15.67,15.59-25.9,40.94-25.9,69.52a2.63,2.63,0,1,0,5.25,0c0-27.38,9.75-51.6,24.61-66.15a53.21,53.21,0,0,0,65,0c14.85,14.55,24.61,38.77,24.61,66.15a2.63,2.63,0,1,0,5.25,0C156,149.69,145.74,124.34,130.06,108.75Z"/><path d="M93.59,30.71A39.14,39.14,0,0,0,68.4,99.83,40.17,40.17,0,0,0,73,103.18a39.09,39.09,0,0,0,41.17,0,40.17,40.17,0,0,0,4.61-3.35,39.14,39.14,0,0,0-25.2-69.12ZM113,96.76a33.41,33.41,0,0,1-5.74,3.33A33.25,33.25,0,1,1,113,96.76Z"/><path d="M95,225.74V207.3H63.5v-6.05L93.72,158h9.9v42.11h9.48v7.19h-9.48v18.44Zm0-25.63V177.49q0-5.31.31-10.63H95c-2.08,4-3.75,6.88-5.63,10l-16.57,23v.21Z"/><path d="M421.39,373.17v-20.6c-.12-1.71-1.35-3.24-3.3-4.36a15.69,15.69,0,0,0-7.67-1.83h-4.84a4.82,4.82,0,0,0,1.18-3.3V280.26a6.62,6.62,0,0,0-6.37-6.9H218.78a6.63,6.63,0,0,0-6.37,6.9V340.6a7.45,7.45,0,0,0,2.67,5.78h-6.26a15.83,15.83,0,0,0-7.67,1.83c-2,1.12-3.19,2.65-3.19,4.31V373.9c-1.45,1.58-1.29,4.63-1.29,6.87v50.49a2.25,2.25,0,0,0,2.36,2.12l22.41-.23a1.84,1.84,0,0,0,.56-.08l.09,0h.06a2.66,2.66,0,0,0,2.65-2.6l.6-28.66H394.66l-.05,15.87.06,12.86a2.66,2.66,0,0,0,2.66,2.64h.13a.85.85,0,0,0,.57.19h22.36a2.25,2.25,0,0,0,2.36-2.12V380.77c0-2.36.59-5.78-1-7.32A2.48,2.48,0,0,0,421.39,373.17Zm-43.65-27.56H370a8.42,8.42,0,0,0-6.33-14H339a8.41,8.41,0,0,0-6.33,14h-8.83V315.89h53.91ZM335.1,340a3.83,3.83,0,0,1,3.89-3.89h24.66a3.81,3.81,0,0,1,2.77,1.12,3.89,3.89,0,0,1-2.77,6.66H339A3.83,3.83,0,0,1,335.1,340Zm-87.35,0a3.83,3.83,0,0,1,3.89-3.89h24.65a4.2,4.2,0,0,1,2.78,1.12,3.89,3.89,0,0,1-2.78,6.66H251.64a3.83,3.83,0,0,1-3.89-3.89Zm43.64,5.6h-8.76a8.42,8.42,0,0,0-6.34-14H251.64a8.35,8.35,0,0,0-6,2.47,8.37,8.37,0,0,0-.37,11.5h-7.83V315.89h53.91ZM216.9,282.56A4.32,4.32,0,0,1,221,278H398.21a4.39,4.39,0,0,1,4.13,4.54v58.51a4.32,4.32,0,0,1-4.13,4.54h-16V314.35c0-.88-1-1.53-2.24-1.53H321.53c-1.24,0-2.24.71-2.24,1.53l.06,31.26H295.88V314.35c0-.88-1-1.53-2.25-1.53H235.18c-1.24,0-2.24.71-2.24,1.53l.06,31.26H221a4.39,4.39,0,0,1-4.13-4.54Zm-12,67.65a8.44,8.44,0,0,1,4-.94H410.54a8.06,8.06,0,0,1,4,.94,2.84,2.84,0,0,1,1.71,2.31v19.62c-.9,0-1.78,0-2.54,0h-208c-.79,0-1.66,0-2.54,0V352.52A2.84,2.84,0,0,1,204.86,350.21ZM418,429.13h-8.32c-4.85,0-7.86-.07-9.73,0v-29.2a2.55,2.55,0,0,0,.12-.74,2.65,2.65,0,0,0-2.65-2.65H222.8a2.65,2.65,0,0,0-2.66,2.6l-.62,30H201.38V380.77a4.5,4.5,0,0,1,1.3-3.13,4.27,4.27,0,0,1,3-1.24h208a4.34,4.34,0,0,1,4.31,4.37Z"/><path d="M463.71,187.94H155.81A11.85,11.85,0,0,0,144,199.78V458a11.85,11.85,0,0,0,11.84,11.84h307.9A11.85,11.85,0,0,0,475.55,458V199.78A11.85,11.85,0,0,0,463.71,187.94Zm7.76,270a7.77,7.77,0,0,1-7.76,7.75H155.81a7.77,7.77,0,0,1-7.76-7.75V199.78a7.77,7.77,0,0,1,7.76-7.76h307.9a7.77,7.77,0,0,1,7.76,7.76Z"/></g></svg>