<svg xmlns="http://www.w3.org/2000/svg" viewBox="0 0 491.5 491.5"><defs><style>.cls-1,.cls-2,.cls-3,.cls-4,.cls-6{fill:none;stroke:#000;}.cls-1,.cls-3,.cls-6{stroke-miterlimit:10;}.cls-1,.cls-2{stroke-width:3.97px;}.cls-2,.cls-3,.cls-4{stroke-linecap:round;}.cls-2,.cls-4{stroke-linejoin:round;}.cls-3,.cls-4{stroke-width:4.39px;}.cls-5,.cls-6{isolation:isolate;font-size:64.15px;font-family:ArialMT, Arial;}.cls-6{stroke-width:0.62px;}</style></defs><g id="Ebene_4" data-name="Ebene 4"><path d="M129,108.9c-1.44-1.43-2.92-2.79-4.44-4.05a47.22,47.22,0,0,1-60,3.37,48.78,48.78,0,0,1-4.09-3.37c-1.53,1.26-3,2.62-4.45,4.05-15.67,15.6-25.9,40.94-25.9,69.52a2.63,2.63,0,1,0,5.25,0c0-27.38,9.75-51.6,24.61-66.15a53.17,53.17,0,0,0,65,0c14.85,14.55,24.61,38.77,24.61,66.15a2.63,2.63,0,1,0,5.25,0C154.94,149.84,144.71,124.5,129,108.9Z"/><path d="M92.56,30.86A39.14,39.14,0,0,0,67.37,100,37.9,37.9,0,0,0,72,103.33,39.16,39.16,0,1,0,92.56,30.86ZM112,96.91a33.09,33.09,0,0,1-38.78,0,33.17,33.17,0,1,1,38.78,0Z"/><path d="M93.94,225.9V207.45H62.47v-6l30.22-43.25h9.9v42.1h9.48v7.19h-9.48V225.9Zm0-25.64V177.65c0-3.55.1-7.09.31-10.64h-.31c-2.08,4-3.75,6.89-5.63,10l-16.57,23v.21Z"/><g id="toilet"><g id="New_icon" data-name="New icon"><path class="cls-1" d="M204.39,323c0,23.26-18.32,42.16-40.84,42.16S122.71,346.3,122.71,323"/><path class="cls-1" d="M121,321.55c0-11.55,19.06-9,43.07-9"/><path class="cls-1" d="M205.38,321.55c0-11.55-19.15-8.91-43.24-8.91"/><line class="cls-1" x1="119.74" y1="322.71" x2="206.7" y2="322.13"/></g><path class="cls-2" d="M180.62,363.38v27.15c0,2.39-2.31,4.29-5.11,4.29h-24c-2.8,0-5.11-1.9-5.11-4.29l-.58-27.15"/><path class="cls-2" d="M196.05,301H130.46a6.05,6.05,0,0,1-6-6V250.1a6.05,6.05,0,0,1,6-6h65.68a6.05,6.05,0,0,1,6,6v45A6.06,6.06,0,0,1,196.05,301Z"/><path class="cls-2" d="M202.9,244.16H123.7a2.65,2.65,0,0,1-2.64-2.64v-4.29a2.66,2.66,0,0,1,2.64-2.64H203a2.66,2.66,0,0,1,2.64,2.64v4.21A2.79,2.79,0,0,1,202.9,244.16Z"/><line class="cls-2" x1="193.99" y1="303.15" x2="194.16" y2="311.07"/><line class="cls-2" x1="134.09" y1="302.99" x2="134.09" y2="310.83"/><ellipse class="cls-2" cx="138.22" cy="260.09" rx="4.87" ry="4.95"/><line class="cls-2" x1="144.65" y1="260.09" x2="151.58" y2="260.09"/></g><g id="bathtub"><g id="New_icon-2" data-name="New icon"><line class="cls-3" x1="253.56" y1="304.06" x2="462.71" y2="304.23"/><line class="cls-3" x1="250.18" y1="285.99" x2="465.51" y2="286.16"/><path class="cls-3" d="M460.4,305,449,355.79s-4.21,17.82-23.59,19.47l-133.83-.33c-19.3-.82-23.35-18.48-23.59-19.22l-11.39-50.82"/><path class="cls-3" d="M251.41,285.91c-14.43,0-17.57,18.07,2.15,18.07"/><path class="cls-3" d="M465.51,286.16c14.44,0,17.58,18.07-2.14,18.07"/><path class="cls-4" d="M415.93,205.55l-32.67-.16c.16.41-.33-5.61,3.21-10.48,4.95-6.85,16.83-12,25-.33C413.37,197.3,415.93,201,415.93,205.55Z"/><line class="cls-3" x1="383.26" y1="220.48" x2="383.26" y2="227.5"/><line class="cls-3" x1="399.51" y1="220.48" x2="399.51" y2="227.5"/><line class="cls-3" x1="415.93" y1="220.48" x2="415.93" y2="227.5"/><line class="cls-3" x1="383.26" y1="239.05" x2="383.26" y2="247.55"/><line class="cls-3" x1="399.51" y1="239.3" x2="399.51" y2="247.3"/><line class="cls-3" x1="415.93" y1="239.05" x2="415.93" y2="247.55"/><line class="cls-3" x1="383.26" y1="258.85" x2="383.26" y2="265.94"/><line class="cls-3" x1="399.51" y1="258.85" x2="399.51" y2="265.94"/><line class="cls-3" x1="415.93" y1="258.85" x2="415.93" y2="265.94"/><line class="cls-3" x1="302.15" y1="375.51" x2="292.91" y2="394.24"/><line class="cls-3" x1="420.05" y1="375.18" x2="428.22" y2="394.16"/><path class="cls-3" d="M252.32,284.59s-.82-8.75,10.48-14.69c.82-.33,11.88-4.7,18.48,5.78"/><path class="cls-3" d="M281.28,275s-.82-8.75,10.48-14.69c.82-.33,13.36-3.21,20.13,8.34"/><path class="cls-3" d="M312.22,269.08s6.52-1.07,10.73,2.23c.82.41,7.75,4.86,5.85,14.85"/><path class="cls-3" d="M399.51,185.42s.74-34.65,28.71-33.66c24,.82,31.19,21,31.77,25.9.33,2.64.41,6.19.41,6.19V284.59"/></g></g><g id="number"><g id="Number-2" data-name="Number"><text class="cls-5" transform="translate(263.38 467.98)">1</text><text class="cls-6" transform="translate(263.38 467.98)">1</text></g></g></g></svg>