<svg xmlns="http://www.w3.org/2000/svg" viewBox="0 0 491.5 491.5"><defs><style>.cls-1,.cls-2,.cls-3,.cls-4{fill:none;stroke:#000;}.cls-1,.cls-3{stroke-miterlimit:10;}.cls-1,.cls-2{stroke-width:3.97px;}.cls-2,.cls-3,.cls-4{stroke-linecap:round;}.cls-2,.cls-4{stroke-linejoin:round;}.cls-3,.cls-4{stroke-width:4.39px;}</style></defs><g id="Ebene_4" data-name="Ebene 4"><path d="M255.71,473.83V469l6.21-6c14.95-14.22,21.7-21.79,21.79-30.62,0-5.94-2.88-11.43-11.62-11.43-5.31,0-9.73,2.7-12.42,4.95l-2.53-5.58a25.73,25.73,0,0,1,16.58-5.94c12.6,0,17.92,8.64,17.92,17,0,10.81-7.84,19.55-20.18,31.43l-4.68,4.33v.17h26.29v6.58Z"/><path d="M129.8,104.16c-1.44-1.43-2.92-2.79-4.44-4a47.22,47.22,0,0,1-60,3.37,48.92,48.92,0,0,1-4.1-3.37c-1.52,1.26-3,2.62-4.44,4C41.18,119.76,31,145.1,31,173.68a2.63,2.63,0,0,0,5.26,0c0-27.38,9.75-51.59,24.61-66.15a53.16,53.16,0,0,0,65,0c14.86,14.56,24.61,38.77,24.61,66.15a2.63,2.63,0,1,0,5.26,0C155.71,145.1,145.48,119.76,129.8,104.16Z"/><path d="M93.33,26.12A39.15,39.15,0,1,0,132.5,65.29,39.21,39.21,0,0,0,93.33,26.12Zm19.39,66.05a33.09,33.09,0,0,1-38.78,0,33.17,33.17,0,1,1,38.78,0Z"/><path d="M110.16,159.73a32.35,32.35,0,0,0-6.73.4c-14.06,2.35-21.51,12.65-23,23.56h.31a19.71,19.71,0,0,1,16-7.65c11.72,0,20,8.46,20,21.41,0,12.13-8.26,23.35-22,23.35-14.17,0-23.44-11-23.44-28.25,0-13.05,4.69-23.34,11.21-29.87a36.19,36.19,0,0,1,21.21-9.79,44.17,44.17,0,0,1,6.52-.51ZM94.77,213.87c7.65,0,12.84-6.43,12.84-15.91s-5.4-15.19-13.66-15.19a14.73,14.73,0,0,0-12.84,8.16,7.51,7.51,0,0,0-1,4c.21,10.91,5.2,19,14.58,19Z"/><g id="toilet"><g id="New_icon" data-name="New icon"><path class="cls-1" d="M203.2,323.74c0,23.27-18.32,42.16-40.84,42.16S121.52,347,121.52,323.74"/><path class="cls-1" d="M119.79,322.25c0-11.55,19.06-9,43.06-9"/><path class="cls-1" d="M204.19,322.25c0-11.55-19.14-8.91-43.23-8.91"/><line class="cls-1" x1="118.55" y1="323.41" x2="205.51" y2="322.83"/></g><path class="cls-2" d="M179.44,364.08v27.15c0,2.39-2.31,4.29-5.12,4.29h-24c-2.8,0-5.11-1.9-5.11-4.29l-.58-27.15"/><path class="cls-2" d="M194.87,301.71H129.28a6.06,6.06,0,0,1-6-6V250.8a6.06,6.06,0,0,1,6-6H195a6.05,6.05,0,0,1,6,6v45A6.05,6.05,0,0,1,194.87,301.71Z"/><path class="cls-2" d="M201.71,244.86h-79.2a2.65,2.65,0,0,1-2.64-2.64v-4.29a2.66,2.66,0,0,1,2.64-2.64H201.8a2.66,2.66,0,0,1,2.64,2.64v4.21A2.8,2.8,0,0,1,201.71,244.86Z"/><line class="cls-2" x1="192.8" y1="303.86" x2="192.97" y2="311.78"/><line class="cls-2" x1="132.91" y1="303.69" x2="132.91" y2="311.53"/><ellipse class="cls-2" cx="137.03" cy="260.79" rx="4.87" ry="4.95"/><line class="cls-2" x1="143.47" y1="260.79" x2="150.4" y2="260.79"/></g><g id="bathtub"><g id="New_icon-2" data-name="New icon"><line class="cls-3" x1="252.37" y1="304.76" x2="461.52" y2="304.93"/><line class="cls-3" x1="248.99" y1="286.69" x2="464.33" y2="286.86"/><path class="cls-3" d="M459.21,305.67l-11.38,50.82s-4.21,17.82-23.6,19.47l-133.82-.33c-19.31-.82-23.35-18.48-23.6-19.22l-11.38-50.82"/><path class="cls-3" d="M250.23,286.61c-14.44,0-17.58,18.07,2.14,18.07"/><path class="cls-3" d="M464.33,286.86c14.44,0,17.57,18.07-2.15,18.07"/><path class="cls-4" d="M414.74,206.25l-32.67-.16c.17.41-.33-5.61,3.22-10.48,4.95-6.85,16.83-12,25-.33C412.18,198,414.74,201.71,414.74,206.25Z"/><line class="cls-3" x1="382.07" y1="221.19" x2="382.07" y2="228.2"/><line class="cls-3" x1="398.32" y1="221.19" x2="398.32" y2="228.2"/><line class="cls-3" x1="414.74" y1="221.19" x2="414.74" y2="228.2"/><line class="cls-3" x1="382.07" y1="239.75" x2="382.07" y2="248.25"/><line class="cls-3" x1="398.32" y1="240" x2="398.32" y2="248"/><line class="cls-3" x1="414.74" y1="239.75" x2="414.74" y2="248.25"/><line class="cls-3" x1="382.07" y1="259.55" x2="382.07" y2="266.65"/><line class="cls-3" x1="398.32" y1="259.55" x2="398.32" y2="266.65"/><line class="cls-3" x1="414.74" y1="259.55" x2="414.74" y2="266.65"/><line class="cls-3" x1="300.97" y1="376.21" x2="291.73" y2="394.94"/><line class="cls-3" x1="418.87" y1="375.88" x2="427.04" y2="394.86"/><path class="cls-3" d="M251.13,285.29s-.82-8.74,10.48-14.68c.83-.33,11.88-4.71,18.48,5.77"/><path class="cls-3" d="M280.09,275.72S279.27,267,290.57,261c.83-.33,13.37-3.22,20.13,8.33"/><path class="cls-3" d="M311,269.78s6.52-1.07,10.73,2.23c.82.41,7.75,4.87,5.86,14.85"/><path class="cls-3" d="M398.32,186.12s.75-34.65,28.72-33.66c24,.82,31.18,21,31.76,25.91.33,2.64.41,6.18.41,6.18V285.29"/></g></g></g></svg>