<svg xmlns="http://www.w3.org/2000/svg" viewBox="0 0 491.5 491.5"><g id="Ebene_3" data-name="Ebene 3"><path d="M459.18,167.46a2.39,2.39,0,0,1-1-.21L248.36,73.74,38.51,167.25a2.4,2.4,0,0,1-2-4.39L246.23,69.43a2.38,2.38,0,0,1,1.83-.85h.59a2.4,2.4,0,0,1,1.84.85l209.67,93.43a2.4,2.4,0,0,1-1,4.6Z"/><path d="M258.15,282.42a10.92,10.92,0,0,0,1.81-6V197a11,11,0,0,0-11-11h-1.27a11,11,0,0,0-11,11v79.44a10.85,10.85,0,0,0,1.82,6H122.78v21.33h8.31L151,388.13l196.38.54,19.52-84.92h7V282.42ZM241.83,197a5.9,5.9,0,0,1,5.89-5.9H249a5.91,5.91,0,0,1,5.9,5.9v79.44a5.91,5.91,0,0,1-5.9,5.9h-1.27a5.9,5.9,0,0,1-5.89-5.9ZM342.62,382.66l-186.86-.51-18.51-78.4h223.5Zm25.31-84.91H128.78v-9.33H367.93Z"/></g></svg>