<svg xmlns="http://www.w3.org/2000/svg" viewBox="0 0 491.5 491.5"><defs><style>.cls-1,.cls-2,.cls-3{fill:none;stroke:#000;stroke-linecap:round;}.cls-1,.cls-3{stroke-miterlimit:10;}.cls-1,.cls-2{stroke-width:4.5px;}.cls-2{stroke-linejoin:round;}.cls-3{stroke-width:7.43px;}</style></defs><g id="Ebene_4" data-name="Ebene 4"><g id="Ebene_2-2" data-name="Ebene 2"><line class="cls-1" x1="49.24" y1="280.08" x2="48.85" y2="442.81"/><line class="cls-1" x1="66.07" y1="280.4" x2="65.87" y2="337.84"/><line class="cls-1" x1="106.67" y1="340.34" x2="106.35" y2="390.26"/><line class="cls-1" x1="65.23" y1="391.09" x2="65.17" y2="443.13"/><line class="cls-1" x1="271.51" y1="390.9" x2="271.51" y2="442.29"/><line class="cls-1" x1="286.67" y1="356.47" x2="287.31" y2="442.29"/><path class="cls-2" d="M49.56,279.12c.51-.13,6.48-5,16,.19"/><path class="cls-2" d="M49.17,443.32c.51.13,6.49,5,16-.19"/><path class="cls-2" d="M271.45,443c.51.13,6.48,5,16-.19"/><path class="cls-2" d="M286.67,356.47c-.32-.45-.83-13.62-20.62-16.64"/><line class="cls-1" x1="50.97" y1="339.25" x2="266.05" y2="339.83"/><line class="cls-1" x1="65.49" y1="390.19" x2="271.38" y2="390.26"/><path class="cls-1" d="M85.34,339c-7.58-5.27-4.24-20,2-20.81"/><path class="cls-1" d="M127.67,339.38c7.58-5.27,3.34-20.24-3-20.95"/><line class="cls-1" x1="87.72" y1="318.24" x2="124.14" y2="318.31"/></g><line class="cls-3" x1="391.2" y1="315.65" x2="391.2" y2="379.73"/><line class="cls-3" x1="423.24" y1="347.69" x2="359.16" y2="347.69"/><circle class="cls-1" cx="391.2" cy="347.69" r="61.83"/><g id="Layer_1"><path d="M218,128.73H448.47a2.7,2.7,0,0,1,2.7,2.7v40.22a11.47,11.47,0,0,1-11.44,11.45h-213a11.47,11.47,0,0,1-11.44-11.45V131.43a2.7,2.7,0,0,1,2.7-2.7Zm227.74,5.4h-225v37.52a6.06,6.06,0,0,0,6,6h213a6.08,6.08,0,0,0,6-6V134.13Z"/><path d="M220.73,128.73h225V53.47h-225Zm227.74,5.4H218a2.7,2.7,0,0,1-2.7-2.7V50.77a2.7,2.7,0,0,1,2.7-2.7H448.47a2.7,2.7,0,0,1,2.7,2.7v80.66A2.7,2.7,0,0,1,448.47,134.13Z"/><path d="M399.11,193.51a2.7,2.7,0,0,0-5.4,0v18a2.7,2.7,0,1,0,5.4,0Z"/><path d="M272.79,193.51a2.7,2.7,0,0,0-5.4,0v18a2.7,2.7,0,1,0,5.4,0Z"/><path d="M244.24,130.69a2.7,2.7,0,0,0,5.4,0v-53h64.25v53a2.7,2.7,0,1,0,5.4,0V75a2.7,2.7,0,0,0-2.7-2.7H246.94a2.7,2.7,0,0,0-2.7,2.7v55.72Z"/><path d="M347.21,130.69a2.7,2.7,0,1,0,5.4,0v-53h64.24v53a2.7,2.7,0,0,0,5.4,0V75a2.7,2.7,0,0,0-2.7-2.7H349.91a2.7,2.7,0,0,0-2.7,2.7v55.72Z"/><path d="M370.61,114H400a10.07,10.07,0,0,1,10.05,10h0A10.07,10.07,0,0,1,400,134.13H370.61a10.09,10.09,0,0,1-10.06-10.06h0a10.09,10.09,0,0,1,10.06-10Zm29.42,5.4H370.61a4.68,4.68,0,0,0-4.66,4.65h0a4.68,4.68,0,0,0,4.66,4.66H400a4.68,4.68,0,0,0,4.65-4.66h0a4.68,4.68,0,0,0-4.65-4.65Z"/><path d="M266.47,114h29.42a10.07,10.07,0,0,1,10.05,10h0a10.07,10.07,0,0,1-10.05,10.06H266.47a10.07,10.07,0,0,1-10.05-10.06h0a10.07,10.07,0,0,1,10.05-10Zm29.42,5.4H266.47a4.68,4.68,0,0,0-4.66,4.65h0a4.68,4.68,0,0,0,4.66,4.66h29.42a4.68,4.68,0,0,0,4.65-4.66h0a4.68,4.68,0,0,0-4.65-4.65Z"/><path d="M217.19,123.89a2.7,2.7,0,0,0,0-5.4H206.36a2.7,2.7,0,0,0-2.7,2.7v64.09a11.26,11.26,0,0,0,3,7.65,10.05,10.05,0,0,0,7.37,3.28H452.49a10.05,10.05,0,0,0,7.37-3.28,11.22,11.22,0,0,0,3-7.65V121.19a2.7,2.7,0,0,0-2.7-2.7H447.88c-1.49,0-.86,1.21-.86,2.7s-.63,2.7.86,2.7h9.56v61.39a5.88,5.88,0,0,1-1.52,4,4.67,4.67,0,0,1-3.43,1.55H214a4.67,4.67,0,0,1-3.42-1.55,5.83,5.83,0,0,1-1.52-4V123.89Z"/></g></g></svg>