<svg xmlns="http://www.w3.org/2000/svg" viewBox="0 0 491.5 491.5"><defs><style>.cls-1,.cls-2{fill:none;stroke:#000;stroke-linecap:round;stroke-miterlimit:10;}.cls-1{stroke-width:7.43px;}.cls-2{stroke-width:4.5px;}</style></defs><g id="Ebene_4" data-name="Ebene 4"><line class="cls-1" x1="405.09" y1="257.44" x2="405.09" y2="321.52"/><line class="cls-1" x1="437.13" y1="289.48" x2="373.05" y2="289.48"/><circle class="cls-2" cx="405.09" cy="289.48" r="61.83"/><path d="M315.65,228.46h0l-144.79-93a5.82,5.82,0,0,0-4.36-2h-.41a5.86,5.86,0,0,0-4.37,2l-144.79,93a7.34,7.34,0,0,0-2.71,8.29A6.43,6.43,0,0,0,18.1,241a5.71,5.71,0,0,0,5-.58l32.63-21v206h221v-206l32.63,21a5.68,5.68,0,0,0,3.11.92,6.22,6.22,0,0,0,5.82-4.59A7.33,7.33,0,0,0,315.65,228.46Zm-214,190V303.75h60.58V418.42Zm168.2.05H168.18V297.75H95.6V418.47H62.78V207.33L166,141l.31-.19L269.8,207.33Z"/></g></svg>