<svg xmlns="http://www.w3.org/2000/svg" viewBox="0 0 491.5 491.5"><defs><style>.cls-1,.cls-2,.cls-3,.cls-4,.cls-5{fill:none;stroke:#000;}.cls-1,.cls-2,.cls-3,.cls-4{stroke-miterlimit:10;}.cls-1{stroke-width:6.46px;}.cls-2{stroke-width:6px;}.cls-3{stroke-width:6.52px;}.cls-4,.cls-5{stroke-linecap:round;}.cls-4{stroke-width:7.06px;}.cls-5{stroke-linejoin:round;stroke-width:19.84px;}</style></defs><g id="Ebene_4" data-name="Ebene 4"><path d="M212.74,286.38q-3-2-6.22-3.93a24.78,24.78,0,0,0-5.58,3.86,61.4,61.4,0,0,0-7.22,7.73,33.92,33.92,0,0,1,4.8-9,44,44,0,0,1,4-4.77c-1.35-.7-2.72-1.4-4.13-2.06a129.33,129.33,0,0,0-14-5.61c-2.85-1-5.78-1.85-8.79-2.65l-.65-.17a20.54,20.54,0,0,0-4.81,5,53.5,53.5,0,0,0-6,12.08c.08-4.62,2-9.15,3.92-12.57a42.31,42.31,0,0,1,3.56-5.34,126,126,0,0,0-26.71-3.42,27,27,0,0,0-5.39,6.06c-.53.77-1,1.58-1.5,2.39a64.49,64.49,0,0,0-3,5.81c-.52,1.13-1,2.24-1.45,3.3a24.79,24.79,0,0,1,.8-4.17,33.77,33.77,0,0,1,2.45-6.21l.53-1a34.94,34.94,0,0,1,3.19-4.88,2.16,2.16,0,0,0,.48-1.28c-1.73,0-3.42.13-5.09.26q-4,.3-7.82,1c-.65.11-1.3.23-1.94.36a59.94,59.94,0,0,0-8.18,2.23c-10.3,3.65-17,9.7-19,17.48-2.61,9.81,2.55,20.55,13.12,30.08,1.58,1.41,3.27,2.81,5.07,4.17a108.88,108.88,0,0,0,27.17,14.45c4.08,1.52,8.37,2.88,12.82,4.07,37.82,10.06,71.51,2.64,76.71-16.89C237,310.66,228.55,297.26,212.74,286.38ZM228,321.15c-4.19,15.73-35.95,21.52-69.37,12.63-14-3.72-26.46-9.54-35.91-16.2-1.83-1.28-3.55-2.6-5.14-3.94-9.84-8.28-15-17.42-12.87-25.29,1.94-7.31,9.88-12.75,22.36-15.32l.24,0q2.39-.48,4.89-.81c-.48,1-.94,2.16-1.36,3.33-1.79,5.08-2.68,11.3-.26,17.46a2.16,2.16,0,0,0,1.25,1.23,2,2,0,0,0,.85.13,2.15,2.15,0,0,0,2-1.54,77.78,77.78,0,0,1,2.67-7.5,76.07,76.07,0,0,1,3.51-7.49,39.61,39.61,0,0,1,4.1-6.28,114.91,114.91,0,0,1,18.66,1.88c-3.15,6-5.83,14.64-1.65,22.6a2.16,2.16,0,0,0,4-.5c1-4.15,4.19-14.08,8.74-19.6,3.86,1.05,7.61,2.25,11.2,3.59q4.46,1.66,8.57,3.58c-3.38,4.81-6.9,11.78-6.11,19.24a2.22,2.22,0,0,0,1.42,1.84l.24.07a2.19,2.19,0,0,0,2.36-.9c3.29-4.83,8.44-11.19,12.59-14.68C221.21,298.49,230.76,310.89,228,321.15Z"/><circle class="cls-1" cx="204.4" cy="206.57" r="174.23"/><circle class="cls-2" cx="141.76" cy="188.74" r="23.36"/><path class="cls-2" d="M71.71,186.7S92,170.37,91.21,146s16.39-29,16.39-29,22.88-8.09,32.53,15.76,25.63,9.46,40.46,18.87,44.88,25.72,5.94,57.72-37-2.64-74.49,33.12c0,0-25.13,25.71-49.09-8.63S71.71,186.7,71.71,186.7Z"/><path class="cls-3" d="M228.49,255.89l65.44-24.79s8.27,29.68-21.18,40.41S228.49,255.89,228.49,255.89Z"/><path class="cls-3" d="M285.43,274.81,350.87,250s8.27,29.67-21.17,40.4S285.43,274.81,285.43,274.81Z"/><path class="cls-4" d="M247.13,177.61s-11.48-19.84,5.42-38c13.9-14.9,4.95-30.63,1.33-35.76a18.39,18.39,0,0,0-2.2-2.55c-3.9-3.77-19.21-19.81-15.17-35.56L212.65,67c-4,15.74,11.27,31.79,15.16,35.55a17.65,17.65,0,0,1,2.2,2.55c3.63,5.13,12.58,20.87-1.32,35.76-16.91,18.13-5.42,38-5.42,38Z"/><path class="cls-4" d="M302.22,197.39s-11.48-19.85,5.43-38c13.89-14.9,5-30.63,1.32-35.76a17.13,17.13,0,0,0-2.2-2.55c-3.89-3.77-19.21-19.81-15.17-35.56l-23.86,1.27c-4,15.74,11.27,31.79,15.17,35.55a19,19,0,0,1,2.2,2.55c3.62,5.13,12.57,20.87-1.33,35.76-16.9,18.13-5.42,38-5.42,38Z"/><polyline class="cls-5" points="81.28 344.8 220.18 470.4 444.28 195.3"/></g></svg>