<svg xmlns="http://www.w3.org/2000/svg" viewBox="0 0 491.5 491.5"><defs><style>.cls-1,.cls-2,.cls-3{fill:none;stroke:#000;}.cls-1{stroke-miterlimit:10;stroke-width:4.85px;}.cls-2,.cls-3{stroke-linecap:round;stroke-linejoin:round;}.cls-2{stroke-width:5.38px;}.cls-3{stroke-width:3.8px;}</style></defs><g id="Layer_7" data-name="Layer 7"><path d="M155.57,229.58h0a48.37,48.37,0,1,0-88.79,0H66.6l.8,1.39a48.27,48.27,0,0,0,4,6.91l17.45,30.23,22.25,38.53,22.24-38.53,16.77-29.05a47.9,47.9,0,0,0,5.4-9.35Zm-44.4-35.64a16.44,16.44,0,1,1-16.44,16.43A16.44,16.44,0,0,1,111.17,193.94Z"/><ellipse class="cls-1" cx="244.66" cy="337.74" rx="139.85" ry="52.18"/><path d="M447.57,334.77c-1.28-7.44-5.18-14.65-11.55-21.47L356,164.58a3.35,3.35,0,0,0-5.9,0l-28.9,53.71-52.74-98a3.34,3.34,0,0,0-5.89,0l-78.2,145.33C108.34,274.55,51,300,42.42,331.69a32.42,32.42,0,0,0-1.16,8.54c0,21.48,21.6,41.37,60.82,56,38.14,14.23,88.77,22.07,142.58,22.07s104.44-7.84,142.58-22.07c18.43-6.87,33-14.91,43.2-23.73a67.51,67.51,0,0,0,6.8-6.7c5-5.69,8.33-11.65,9.85-17.79a31.71,31.71,0,0,0,.48-13.24ZM265.51,128.94l51.89,96.42,3.8,7.07,3.8-7.07,28.05-52.13,69.09,128.4c-9.3-6.35-21-12.2-34.9-17.4a295.4,295.4,0,0,0-36.36-10.76c-2.83-.66-5.71-1.29-8.62-1.9-12.34-2.56-25.32-4.63-38.81-6.16-2.38-.27-4.79-.51-7.2-.75-16.64-1.63-33.94-2.49-51.59-2.49-18,0-35.53.89-52.21,2.56ZM441.12,340.23c0,8.71-4.77,17.41-13.68,25.57a80.81,80.81,0,0,1-8.41,6.7c-8.95,6.26-20.45,12.1-34.21,17.23-37.39,13.95-87.16,21.63-140.16,21.63s-102.77-7.68-140.16-21.63c-35.78-13.35-56.3-31.39-56.3-49.5a25.76,25.76,0,0,1,.91-6.71c7.63-28,61-51.33,131.21-60.38,2.68-.34,5.4-.67,8.13-1a510.67,510.67,0,0,1,56.21-3.07c16.41,0,32.51.74,48,2.17q3.63.35,7.21.74a418.62,418.62,0,0,1,46.67,7.56c2.95.66,5.85,1.36,8.72,2.08a281.63,281.63,0,0,1,29.53,9.08c21.09,7.87,36.87,17.37,46.28,27.56,5.39,5.83,8.68,11.88,9.68,18A25,25,0,0,1,441.12,340.23Z"/><path class="cls-2" d="M124.05,339.35s12.27-19.21,53.17-18.08,14.32,18.08,55.22,18.08,38.85-21.47,96.11-19.21"/><path class="cls-2" d="M155.69,366.46s12.27-19.2,53.17-18.07,14.31,18.07,55.21,18.07,38.86-21.46,96.12-19.2"/><path class="cls-3" d="M170.73,310.36s8.06-14.56,35-13.7,9.41,13.7,36.31,13.7,25.54-16.27,63.19-14.56"/></g></svg>