<svg xmlns="http://www.w3.org/2000/svg" viewBox="0 0 491.5 491.5"><defs><style>.cls-1,.cls-2,.cls-3{fill:none;stroke:#000;}.cls-1{stroke-miterlimit:10;stroke-width:3.76px;}.cls-2,.cls-3{stroke-linecap:round;stroke-linejoin:round;}.cls-2{stroke-width:4.17px;}.cls-3{stroke-width:2.94px;}</style></defs><g id="Ebene_2" data-name="Ebene 2"><path d="M76.66,82.58V424.35H418.43V82.58ZM412.43,250.47H250.54V88.58H412.43ZM82.66,88.58H244.54V250.47H82.66V88.58Zm0,329.77,0-161.88H244.54V418.35Zm167.86,0V256.47H412.43V418.35Z"/></g><g id="Layer_7" data-name="Layer 7"><ellipse class="cls-1" cx="248.13" cy="325.26" rx="108.28" ry="40.4"/><path d="M405.24,323c-1-5.77-4-11.35-8.94-16.62l-62-115.16a2.6,2.6,0,0,0-4.57,0l-22.38,41.59-40.83-75.89a2.59,2.59,0,0,0-4.56,0L201.45,269.41C142.58,276.33,98.22,296,91.54,320.58a25.24,25.24,0,0,0-.89,6.61c0,16.63,16.72,32,47.08,43.36,29.53,11,68.74,17.08,110.4,17.08s80.87-6.06,110.4-17.08C372.8,365.22,384.05,359,392,352.17a53.85,53.85,0,0,0,5.26-5.18,33.13,33.13,0,0,0,7.63-13.78,24.65,24.65,0,0,0,.37-10.25Zm-141-159.38,40.17,74.66,2.94,5.47,2.95-5.47,21.72-40.36,53.49,99.42a126.54,126.54,0,0,0-27-13.47,229.57,229.57,0,0,0-28.15-8.34c-2.2-.51-4.42-1-6.68-1.47-9.55-2-19.6-3.58-30.05-4.77-1.84-.21-3.71-.39-5.57-.58-12.89-1.26-26.28-1.93-39.95-1.93a404.48,404.48,0,0,0-40.42,2Zm136,163.61c0,6.74-3.68,13.47-10.58,19.8a64.28,64.28,0,0,1-6.52,5.18,118.83,118.83,0,0,1-26.49,13.34c-28.94,10.8-67.48,16.75-108.52,16.75s-79.57-5.95-108.52-16.75C111.91,355.18,96,341.21,96,327.19a20.1,20.1,0,0,1,.7-5.2c5.91-21.7,47.26-39.75,101.59-46.75q3.12-.4,6.3-.75a393.08,393.08,0,0,1,43.52-2.38c12.71,0,25.17.58,37.19,1.68,1.88.18,3.73.37,5.58.57A323.28,323.28,0,0,1,327,280.22q3.42.76,6.75,1.61a216.89,216.89,0,0,1,22.86,7C373,295,385.2,302.31,392.49,310.19c4.17,4.52,6.72,9.21,7.49,13.93A18.71,18.71,0,0,1,400.24,327.19Z"/><path class="cls-2" d="M154.75,326.5s9.5-14.87,41.17-14,11.08,14,42.75,14,30.08-16.62,74.42-14.87"/><path class="cls-2" d="M179.24,347.5s9.5-14.87,41.17-14,11.08,14,42.75,14,30.09-16.62,74.42-14.87"/><path class="cls-3" d="M190.89,304.06s6.24-11.28,27.06-10.61,7.29,10.61,28.11,10.61,19.78-12.6,48.93-11.28"/></g></svg>