<svg xmlns="http://www.w3.org/2000/svg" viewBox="0 0 491.5 491.5"><defs><style>.cls-1,.cls-2,.cls-3,.cls-4,.cls-5{fill:none;}.cls-1,.cls-2,.cls-3,.cls-4{stroke:#000;stroke-miterlimit:10;}.cls-1{stroke-width:5px;}.cls-2,.cls-3,.cls-4{stroke-linecap:round;}.cls-2{stroke-width:5.06px;}.cls-3{stroke-width:3.48px;}.cls-4{stroke-width:1.74px;}</style></defs><g id="Ebene_4" data-name="Ebene 4"><polygon class="cls-1" points="399.83 444.44 28.67 444.44 68.71 336.97 97.6 259.44 328.01 259.44 399.83 444.44"/><path class="cls-2" d="M76.22,315.62s30,15.64,57.37-7.38c22.5-18.93,46.27-6.74,54-1.8a25.93,25.93,0,0,1,3.85,3c5.69,5.3,29.93,26.16,53.72,20.66"/><path class="cls-3" d="M213.1,427.47s20.67,10.78,39.54-5.09c15.51-13.05,31.89-4.65,37.24-1.25a18.32,18.32,0,0,1,2.65,2.07c3.92,3.65,20.63,18,37,14.24"/><path class="cls-4" d="M258.12,292.11s10.33,5.39,19.77-2.55c7.75-6.52,15.94-2.32,18.62-.62a9.43,9.43,0,0,1,1.32,1c2,1.82,10.32,9,18.52,7.11"/><path class="cls-3" d="M76.22,367.68s20.67,10.78,39.54-5.09c15.51-13,31.9-4.65,37.24-1.24a18.19,18.19,0,0,1,2.66,2.06c3.91,3.66,20.62,18,37,14.24"/><path class="cls-2" d="M186.87,349.28s30-15.63,57.37,7.39c22.5,18.93,46.27,6.74,54,1.8a25.93,25.93,0,0,0,3.85-3c5.69-5.3,29.93-26.16,53.72-20.66"/><path class="cls-2" d="M44.48,412s30-15.64,57.37,7.39c22.5,18.93,46.27,6.74,54,1.8a26,26,0,0,0,3.85-3c5.69-5.3,29.93-26.16,53.72-20.65"/><path class="cls-2" d="M200.66,204.7s-.1-20.63-12.79-18.21-11.48,18.21-11.48,18.21V301"/><path class="cls-2" d="M271.33,204.7s-.1-20.63-12.79-18.21-11.48,18.21-11.48,18.21V301"/><line class="cls-2" x1="176.36" y1="272.29" x2="244.73" y2="272.29"/><line class="cls-2" x1="176.36" y1="285.49" x2="244.73" y2="285.49"/><line class="cls-2" x1="176.36" y1="245.53" x2="244.73" y2="245.53"/><line class="cls-2" x1="176.36" y1="231.61" x2="244.73" y2="231.61"/><path class="cls-5" d="M359.86,161.47l77.08-63-63.3-63.3L313.54,115c9,3,18.92,9.24,27.95,18.28S356.93,152.39,359.86,161.47Z"/><path d="M373,26l-65.78,87.36c-7.14-1.14-13.3.18-17.39,4.27-10.12,10.12-3.28,32.82,15.57,51.67s41.54,25.69,51.66,15.57c4-4,5.35-10,4.34-16.94l84.47-69.06ZM352.82,180.65c-7.48,7.48-27.26.35-43.18-15.57s-23.05-35.7-15.57-43.18c2.12-2.13,5.23-3.07,9-3a27.37,27.37,0,0,1,6.69,1.09c8.49,2.38,18.61,8.54,27.52,17.45,9.11,9.11,15.34,19.48,17.6,28.09a25.84,25.84,0,0,1,.94,7C355.73,175.89,354.78,178.69,352.82,180.65Zm7-19.18c-2.93-9.08-9.23-19.11-18.37-28.24S322.54,117.92,313.54,115l60.1-79.81,63.3,63.3Z"/><circle cx="316.1" cy="158.75" r="3.87"/><circle cx="329.55" cy="168.8" r="3.87"/><circle cx="305.7" cy="141.31" r="3.87"/><circle cx="319.97" cy="136.87" r="3.87"/><circle cx="331.46" cy="146.31" r="3.87"/><circle cx="340.98" cy="162.4" r="3.87"/><circle cx="328.56" cy="157.53" r="3.87"/><circle cx="317.77" cy="147.1" r="3.87"/></g></svg>