<svg xmlns="http://www.w3.org/2000/svg" viewBox="0 0 491.5 491.5"><defs><style>.cls-1{fill:none;}</style></defs><g id="Ebene_2" data-name="Ebene 2"><path d="M76.66,81.67V423.45H418.43V81.67ZM412.43,249.56H250.54V87.67H412.43ZM82.66,87.67H244.54V249.56H82.66V87.67Zm0,329.78,0-161.89H244.54V417.45Zm167.86,0V255.56H412.43V417.45Z"/><path class="cls-1" d="M356.81,328.6c.37-7.22,3.09-15,8.63-19.87a18.33,18.33,0,0,1,9-4.31,31.5,31.5,0,0,0-10.07-.15,30.35,30.35,0,0,0-16.58,8.37c-7.74,7.43-12.36,17.4-18.33,26.17-4.82,7.08-13.36,16.1-22.5,14.68.29,5.05,1.9,10.44,5.3,14.21,3.78,4.19,9.15,4.73,14.05,2.16s8.3-6.75,11.31-11.15c2.81-4.1,5.3-8.39,7.94-12.59,3.23-5.15,6.79-10.36,11.21-14.6C356.75,330.55,356.76,329.57,356.81,328.6Z"/><path class="cls-1" d="M234.75,308.05c-.75,0-1.49,0-2.24,0a47.75,47.75,0,0,0-21.86,6.81c-11.6,6.86-20.12,17.88-26.21,29.72-2.72,5.29-5.15,11.32-10.59,14.42-4.54,2.58-10.14,2.54-15,.75.55,5.25,2.41,10.56,6.25,14.27a17.31,17.31,0,0,0,14,4.86c5.88-.81,9.1-5.59,11.6-10.49a120.07,120.07,0,0,1,9.23-15.92,72.9,72.9,0,0,1,13.59-14.46,34.75,34.75,0,0,1,21.24-30Z"/><path class="cls-1" d="M315,348.38c4.8-2.52,8.31-6.74,11.32-11.14.35-.51.68-1,1-1.55a1.47,1.47,0,0,1-.57-.44c-3.56-4.52-10.08-3.46-13.83.2s-5.55,9.07-5.92,14.29A12.1,12.1,0,0,0,315,348.38Z"/><path class="cls-1" d="M294,319.55c1.89-4.9,5.25-9.55,10.32-11.47a13.18,13.18,0,0,1,3-.72,22.45,22.45,0,0,0-6.77-.78c-7.31.21-13.87,3.62-19.23,8.42-5.16,4.63-9.27,10.25-13.26,15.87-4.79,6.73-9.56,13.49-14.35,20.22-3.66,5.15-8.24,9.68-14.3,11.84a20.88,20.88,0,0,1-11.17.79,24.69,24.69,0,0,0,3.55,12.16c3,4.65,8.23,6.62,13.62,6.14,6.1-.54,11.26-4.46,15-9.08,2.44-3,4.56-6.32,6.8-9.47l7.05-10c5.24-7.39,10.7-15.45,17.86-21.23A30.35,30.35,0,0,1,294,319.55Z"/><path d="M158.74,357.82c0,.65.08,1.31.15,2,4.82,1.79,10.42,1.83,15-.75,5.44-3.1,7.87-9.13,10.59-14.42,6.09-11.84,14.61-22.86,26.21-29.72a47.75,47.75,0,0,1,21.86-6.81c.75,0,1.49,0,2.24,0a36.15,36.15,0,0,1,10.91-2.8c-3.2-.21-6.41-.57-9.62-.69a47.49,47.49,0,0,0-18.6,3.2c-11.86,4.53-21.51,13.05-28.85,23.27A121.36,121.36,0,0,0,179.36,347c-2.5,4.91-5.72,9.69-11.6,10.5a16.29,16.29,0,0,1-9-1.5C158.71,356.58,158.72,357.21,158.74,357.82Z"/><path d="M382.41,305.05a1.15,1.15,0,0,0,.27-.07.7.7,0,0,1-.14,0Z"/><path d="M327.33,335.69c-.34.52-.67,1-1,1.55-3,4.4-6.52,8.62-11.32,11.14a12.1,12.1,0,0,1-8,1.36c-.06.88-.09,1.74-.07,2.59,0,.39,0,.78,0,1.16,9.14,1.42,17.68-7.6,22.5-14.68,6-8.77,10.59-18.74,18.33-26.17a30.35,30.35,0,0,1,16.58-8.37,31.5,31.5,0,0,1,10.07.15,16.47,16.47,0,0,1,1.87-.24c1.66-.13,4.46-.24,6,.58.49.07.6.14.35.22.2,0,.41-.12.59-.17l1.19-.33-.42,3.21a33,33,0,0,0-9.58-3.27,18.33,18.33,0,0,0-9,4.31c-5.54,4.88-8.26,12.65-8.63,19.87-.05,1-.06,1.95,0,2.92a39.74,39.74,0,0,1,3.49-3,24.9,24.9,0,0,1,6.22-15.92,14.88,14.88,0,0,1,10.34-5,14.35,14.35,0,0,1,3.07.16,19.3,19.3,0,0,0,2.92.69,10.63,10.63,0,0,0,2.57-.64,1.77,1.77,0,0,0,.41-3.21c-9.7-5.1-21.6-5.73-31.54-.88-8.93,4.35-14.89,12.68-20,20.87-1.62,2.59-3.19,5.2-4.82,7.79.1.37.17.74.27,1.1A1.87,1.87,0,0,1,327.33,335.69Z"/><path d="M314.09,311a3.52,3.52,0,0,0,.49.47,1.38,1.38,0,0,0-.12-.39c.17.32.18.41.12.39s0,.18.05.25L315,313l2.94-1.71a11.61,11.61,0,0,0-10.56-3.93,17.17,17.17,0,0,1,2.85,1.07A16.35,16.35,0,0,1,314.09,311Z"/><path d="M228.27,363.72a20.88,20.88,0,0,0,11.17-.79c6.06-2.16,10.64-6.69,14.3-11.84,4.79-6.73,9.56-13.49,14.35-20.22,4-5.62,8.1-11.24,13.26-15.87,5.36-4.8,11.92-8.21,19.23-8.42a22.45,22.45,0,0,1,6.77.78,11.61,11.61,0,0,1,10.56,3.93L315,313l-.34-1.27c0-.07,0-.16-.05-.25a3.52,3.52,0,0,1-.49-.47,16.35,16.35,0,0,0-3.89-2.58,17.17,17.17,0,0,0-2.85-1.07,13.18,13.18,0,0,0-3,.72c-5.07,1.92-8.43,6.57-10.32,11.47a30.35,30.35,0,0,0-1.89,12.74,40.53,40.53,0,0,1,3.46-2.5c.11-5.67,1.87-11.79,6-15.81,3.74-3.67,10.26-4.72,13.82-.21,1.14,1.45,3.35-.13,2.94-1.7-.17-.63-.28-1.31-.51-1.92-.46-1.23-1.82-2.13-2.85-2.9a20.71,20.71,0,0,0-7.64-3.51,28.79,28.79,0,0,0-16.77,1.33c-12.43,4.8-20.24,16.56-27.63,27l-7,9.94c-2.24,3.16-4.36,6.47-6.8,9.48-3.74,4.62-8.9,8.54-15,9.08a16.29,16.29,0,0,1-5.81-.49C228.23,361.26,228.22,362.49,228.27,363.72Z"/><path d="M314.46,311.09a1.38,1.38,0,0,1,.12.39C314.64,311.5,314.63,311.41,314.46,311.09Z"/><path d="M216.06,326.88a35.32,35.32,0,0,0-2.55,11.17c1.24-1,2.51-1.93,3.83-2.82a31.93,31.93,0,0,1,28.32-26.46c-3.61-.25-7.28-.69-10.91-.72A35.16,35.16,0,0,0,216.06,326.88Z"/><path d="M245.66,308.77v-3.52a36.15,36.15,0,0,0-10.91,2.8C238.38,308.08,242.05,308.52,245.66,308.77Z"/><path d="M384.46,304.48l-1.19.33c-.18.05-.39.13-.59.17a1.15,1.15,0,0,1-.27.07l.13,0a.7.7,0,0,0,.14,0c.25-.08.14-.15-.35-.22-1.54-.82-4.34-.71-6-.58a16.47,16.47,0,0,0-1.87.24,33,33,0,0,1,9.58,3.27Z"/><path d="M245.66,305.25v3.52A1.76,1.76,0,0,0,245.66,305.25Z"/><path d="M381.32,361.29a42.14,42.14,0,0,0,26-9.92c1.74-1.44-.76-3.91-2.49-2.48a38.67,38.67,0,0,1-20.63,8.72c-4.32.43-8.14,0-11.74-2.59-.23-.16-.46-.34-.68-.51a32.91,32.91,0,0,0,.78,4.63A17.6,17.6,0,0,0,381.32,361.29Z"/><path d="M164.3,306.92a1.77,1.77,0,0,0,.42-3.21l-2.3-1c-1.44-.62-3.14-.3-4.68-.14A50.06,50.06,0,0,0,146.59,305a51.35,51.35,0,0,0-19.08,11.79c-5.85,5.75-9.72,12.88-13,20.3s-6.26,15.25-11.27,21.76S91,371,82.4,370.82c-2.26,0-2.26,3.48,0,3.52,16,.27,25.9-14.82,31.72-27.76,3.4-7.57,6.4-15.47,11.39-22.18a47.43,47.43,0,0,1,29.24-17.88c.53-.09,1.05-.18,1.58-.25a17.55,17.55,0,0,1,7-2.73l-.42,3.21a16.69,16.69,0,0,0-2.31-1.06c.37.14-1.27.26-1.41.27l-1,.08c-.64.06-1.27.14-1.91.23-7.21,4.77-11,14.49-12.07,22.77a40.28,40.28,0,0,0-.34,4.93c1.16-.87,2.36-1.71,3.6-2.48C148.36,321,153.23,308.64,164.3,306.92Z"/><path d="M160.64,305.69a1.47,1.47,0,0,0-.26-.05Z"/><path d="M159.23,306c.14,0,1.78-.13,1.41-.27l-.26-.05a1.47,1.47,0,0,1,.26.05,16.69,16.69,0,0,1,2.31,1.06l.42-3.21a17.55,17.55,0,0,0-7,2.73c.64-.09,1.27-.17,1.91-.23Z"/><path d="M360.4,333a30.07,30.07,0,0,1,15.32-7.23,31.5,31.5,0,0,1,10.07.15c.62-.11,1.24-.19,1.87-.24,1.66-.12,4.46-.23,6,.59.49.06.6.13.35.22l.59-.17,1.19-.33c-.14,1.06-.27,2.13-.41,3.2a33.18,33.18,0,0,0-9.59-3.27,18.34,18.34,0,0,0-9,4.31c-5.55,4.88-8.27,12.65-8.64,19.87,0,.36,0,.71,0,1.06a27.06,27.06,0,0,0,3.64,3.38c-.72-7.36,1.05-14.91,6.09-20.42a14.88,14.88,0,0,1,10.34-5,14.35,14.35,0,0,1,3.07.16,20.63,20.63,0,0,0,2.92.7,11,11,0,0,0,2.57-.65,1.78,1.78,0,0,0,.42-3.21c-9.71-5.1-21.61-5.72-31.55-.88a32.81,32.81,0,0,0-5.32,3.29A32.83,32.83,0,0,0,360.4,333Z"/><path d="M393.74,326.52l.27-.06-.13,0Z"/><path d="M326.76,335.25a1.47,1.47,0,0,0,.57.44c.64-1,1.27-1.93,1.88-2.91l-2.91,1.69L326,333.2c0-.07,0-.16-.06-.25a4.08,4.08,0,0,1-.49-.46,16.23,16.23,0,0,0-3.88-2.59,18.22,18.22,0,0,0-2.86-1.07,13.18,13.18,0,0,0-3,.72c-5.07,1.92-8.42,6.57-10.32,11.47a29.78,29.78,0,0,0-1.77,7.41,10.25,10.25,0,0,0,3.41,1.31c.37-5.22,2.17-10.63,5.92-14.29S323.2,330.73,326.76,335.25Z"/><path d="M325.42,332.49a4.08,4.08,0,0,0,.49.46,1.82,1.82,0,0,0-.11-.39c.16.32.17.41.11.39s0,.18.06.25l.33,1.27,2.91-1.69,0,0a11.61,11.61,0,0,0-10.55-3.92,18.22,18.22,0,0,1,2.86,1.07A16.23,16.23,0,0,1,325.42,332.49Z"/><path d="M295.82,333.93a28.73,28.73,0,0,1,16.09-5.88,22.42,22.42,0,0,1,6.77.78,11.61,11.61,0,0,1,10.55,3.92c.06-.1.13-.2.19-.31a6.91,6.91,0,0,0-.24-.81c-.46-1.24-1.82-2.14-2.84-2.91a20.86,20.86,0,0,0-7.64-3.51,28.82,28.82,0,0,0-16.78,1.34,33.53,33.53,0,0,0-6.31,3.24c0,.36,0,.72,0,1.07A29.18,29.18,0,0,0,295.82,333.93Z"/><path d="M395.79,326l-1.19.33-.59.17-.27.06.14,0,.13,0c.25-.09.14-.16-.35-.22-1.54-.82-4.34-.71-6-.59-.63.05-1.25.13-1.87.24a33.18,33.18,0,0,1,9.59,3.27C395.52,328.09,395.65,327,395.79,326Z"/><path d="M257,326.73v3.51A1.76,1.76,0,0,0,257,326.73Z"/><path d="M325.8,332.56a1.82,1.82,0,0,1,.11.39C326,333,326,332.88,325.8,332.56Z"/><path d="M213.51,338.05a72.9,72.9,0,0,0-13.59,14.46,120.07,120.07,0,0,0-9.23,15.92c-2.5,4.9-5.72,9.68-11.6,10.49a17.31,17.31,0,0,1-14-4.86c-3.84-3.71-5.7-9-6.25-14.27l-.58-.22a21,21,0,0,1-3-1.51c.54,9.68,4.73,19.07,14.33,23,5,2,10.82,2.15,15.54-.53,5.44-3.1,7.87-9.12,10.6-14.42,4.49-8.74,10.32-17,17.72-23.53A35.72,35.72,0,0,1,213.51,338.05Z"/><path d="M143.92,334a48.79,48.79,0,0,0-5.08,4.33c-5.85,5.75-9.71,12.88-13,20.3s-6.26,15.25-11.26,21.77-12.24,12.07-20.82,11.93c-2.26,0-2.26,3.47,0,3.51,16,.27,25.91-14.81,31.72-27.76,3.41-7.56,6.4-15.47,11.4-22.17a44.22,44.22,0,0,1,7.25-7.6A38.73,38.73,0,0,1,143.92,334Z"/><path d="M274.29,353.52l-7.05,10c-2.24,3.15-4.36,6.46-6.8,9.47-3.74,4.62-8.9,8.54-15,9.08-5.39.48-10.62-1.49-13.62-6.14a24.69,24.69,0,0,1-3.55-12.16,17.81,17.81,0,0,1-3.49-1.14,35.41,35.41,0,0,0,.58,5.8c1,5.69,3.59,11.25,8.57,14.5s11.43,3.46,16.84,1.53c6.07-2.17,10.64-6.69,14.3-11.85,4.8-6.73,9.56-13.48,14.35-20.22,4-5.62,8.11-11.24,13.26-15.87h0a32.13,32.13,0,0,1-.54-4.17C285,338.07,279.53,346.13,274.29,353.52Z"/><path d="M147.4,335.77a48.6,48.6,0,0,1,6.8-4A47.18,47.18,0,0,1,166.09,328l1.57-.25a17.55,17.55,0,0,1,7-2.73l-.42,3.21a18,18,0,0,0-2.31-1.06c.37.14-1.26.26-1.4.27l-1,.08c-.64.06-1.27.14-1.91.23-7.21,4.78-11,14.49-12.06,22.77-.15,1.11-.25,2.23-.31,3.36a18.34,18.34,0,0,0,3.43,2.08c.08-10.95,4.77-25.68,16.91-27.56a1.76,1.76,0,0,0,.42-3.2l-2.3-1c-1.44-.62-3.14-.3-4.68-.14a50.18,50.18,0,0,0-11.15,2.46,52,52,0,0,0-10.4,5A39,39,0,0,0,147.4,335.77Z"/><path d="M416.13,370.36a38.74,38.74,0,0,1-20.64,8.72c-4.32.43-8.13,0-11.74-2.59a27.37,27.37,0,0,1-6.62-6.83,32.45,32.45,0,0,1-4.61-10.52,21.49,21.49,0,0,1-3.4-2.25c-.25-.19-.49-.4-.73-.61a35.45,35.45,0,0,0,5,14,32,32,0,0,0,7.09,8.07,18.41,18.41,0,0,0,12.2,4.39,42,42,0,0,0,26-9.91C420.35,371.4,417.85,368.93,416.13,370.36Z"/><path d="M345.58,346.12c-2.64,4.2-5.13,8.49-7.94,12.59-3,4.4-6.52,8.62-11.31,11.15s-10.27,2-14.05-2.16c-3.4-3.77-5-9.16-5.3-14.21a13.16,13.16,0,0,1-3.55-1.09,31.39,31.39,0,0,0,.93,7c1.32,5.27,4.12,10.72,8.89,13.63,11,6.68,21.86-4.41,27.56-12.79,5.47-8,9.81-17,16.44-24.22a32.94,32.94,0,0,1-.46-4.54C352.37,335.76,348.81,341,345.58,346.12Z"/><path d="M216.91,339.79a56.12,56.12,0,0,1,5.07-3.41,47.65,47.65,0,0,1,21.86-6.82c.75,0,1.49,0,2.24,0a35.72,35.72,0,0,1,10.91-2.8c-3.19-.22-6.41-.58-9.61-.7a47.51,47.51,0,0,0-18.61,3.2,56.29,56.29,0,0,0-11.43,6c-.06.33-.11.65-.15,1C217,337.37,217,338.57,216.91,339.79Z"/><path d="M257,330.24v-3.51a35.72,35.72,0,0,0-10.91,2.8C249.72,329.56,253.38,330,257,330.24Z"/><path d="M170.57,327.43c.14,0,1.77-.13,1.4-.27l-.26-.05.26.05a18,18,0,0,1,2.31,1.06l.42-3.21a17.55,17.55,0,0,0-7,2.73c.64-.09,1.27-.17,1.91-.23Z"/><path d="M172,327.16l-.26-.05Z"/><path d="M227.39,348.36a35.45,35.45,0,0,0-2.48,10.28,13.83,13.83,0,0,0,3.39,1.42c0-.81.12-1.61.22-2.39A31.94,31.94,0,0,1,257,330.24c-3.61-.24-7.27-.68-10.91-.71A35.16,35.16,0,0,0,227.39,348.36Z"/><path d="M372.52,359.14a32.91,32.91,0,0,1-.78-4.63,27.06,27.06,0,0,1-3.64-3.38,35.5,35.5,0,0,0,.29,5.15c.24.21.48.42.73.61A21.49,21.49,0,0,0,372.52,359.14Z"/><path d="M360.4,333a32.83,32.83,0,0,1-.12-4.43,39.74,39.74,0,0,0-3.49,3,32.94,32.94,0,0,0,.46,4.54c.61-.66,1.24-1.32,1.89-1.95Q359.76,333.53,360.4,333Z"/><path d="M295.6,330.86c0-.35,0-.71,0-1.07a40.53,40.53,0,0,0-3.46,2.5,32.13,32.13,0,0,0,.54,4.17c1-.89,2.05-1.74,3.13-2.53A29.18,29.18,0,0,1,295.6,330.86Z"/><path d="M306.94,352.33c0-.85,0-1.71.07-2.59a10.25,10.25,0,0,1-3.41-1.31,30.94,30.94,0,0,0-.17,4,13.16,13.16,0,0,0,3.55,1.09C307,353.11,306.94,352.72,306.94,352.33Z"/><path d="M329.24,332.76l0,0c-.61,1-1.24,2-1.88,2.91a1.87,1.87,0,0,0,2.36-2.15c-.1-.36-.17-.73-.27-1.1-.06.11-.13.21-.19.31Z"/><path d="M329.24,332.76h0l0,0Z"/><path d="M147.52,331.49c-1.24.77-2.44,1.61-3.6,2.48a38.73,38.73,0,0,0,.18,4.31c1.06-.88,2.16-1.72,3.3-2.51A39,39,0,0,1,147.52,331.49Z"/><path d="M158.89,359.79c-.07-.66-.12-1.32-.15-2s0-1.24,0-1.87a18.34,18.34,0,0,1-3.43-2.08,39.06,39.06,0,0,0,0,4.19,21,21,0,0,0,3,1.51Z"/><path d="M228.3,360.06a13.83,13.83,0,0,1-3.39-1.42,37,37,0,0,0-.13,3.94,17.81,17.81,0,0,0,3.49,1.14C228.22,362.49,228.23,361.26,228.3,360.06Z"/><path d="M217.19,336.2c0-.32.09-.64.15-1-1.32.89-2.59,1.84-3.83,2.82a35.72,35.72,0,0,0,0,4.51q1.65-1.46,3.41-2.77C217,338.57,217,337.37,217.19,336.2Z"/></g><g id="Layer_7" data-name="Layer 7"><path d="M492.71,409.17c34.26-5.67,72.1-12.6,96.76-39.35,12.35-13.4,20.35-30.19,33-43.32,14.11-14.65,33.69-20.83,52.57-26.83a882.22,882.22,0,0,1,380-34c5.33.69,10.65,1.45,16,2.24,3.15.47,4.51-4.35,1.33-4.82a882.57,882.57,0,0,0-128.06-9.72,891.56,891.56,0,0,0-128.12,8.94A880,880,0,0,0,690.79,289.6c-10.06,3-20.1,6.09-30,9.49-9.36,3.21-18.7,6.86-27.15,12.06-16.08,9.91-25.81,25.62-36.38,40.73-5.25,7.49-10.89,14.69-17.79,20.74a97.46,97.46,0,0,1-22.64,14.51c-16.33,7.71-34.22,11.69-51.9,14.9-4.5.81-9,1.57-13.51,2.32-3.17.52-1.83,5.34,1.32,4.82Z"/></g></svg>