<svg xmlns="http://www.w3.org/2000/svg" viewBox="0 0 491.5 491.5"><defs><style>.cls-1{fill:none;}</style></defs><g id="Ebene_2" data-name="Ebene 2"><path class="cls-1" d="M396.76,256.29c.53-10.29,4.4-21.35,12.3-28.3a26.17,26.17,0,0,1,12.83-6.14,44.8,44.8,0,0,0-14.34-.21A43.26,43.26,0,0,0,384,233.56c-11,10.59-17.61,24.78-26.11,37.27-6.87,10.08-19,22.92-32,20.91.41,7.19,2.7,14.85,7.55,20.23,5.38,6,13,6.74,20,3.07s11.82-9.61,16.12-15.88c4-5.83,7.54-11.94,11.29-17.92,4.6-7.34,9.67-14.76,16-20.79C396.68,259.06,396.68,257.67,396.76,256.29Z"/><path class="cls-1" d="M222.94,227c-1.06,0-2.13,0-3.19.05a67.85,67.85,0,0,0-31.13,9.71c-16.51,9.76-28.65,25.45-37.32,42.31-3.87,7.54-7.33,16.12-15.08,20.53-6.47,3.68-14.44,3.62-21.3,1.07.77,7.48,3.43,15,8.9,20.33,5.13,5,12.72,7.91,19.87,6.92,8.36-1.16,12.95-8,16.51-14.95,4-7.83,8-15.52,13.15-22.67a103.28,103.28,0,0,1,19.34-20.58A49.53,49.53,0,0,1,222.94,227Z"/><path class="cls-1" d="M337.21,284.46c6.83-3.6,11.83-9.61,16.12-15.87.49-.73,1-1.47,1.45-2.2a2.19,2.19,0,0,1-.82-.64c-5.07-6.42-14.35-4.93-19.69.29s-7.89,12.92-8.42,20.36A17.3,17.3,0,0,0,337.21,284.46Z"/><path class="cls-1" d="M307.38,243.4c2.69-7,7.47-13.6,14.69-16.33a18.58,18.58,0,0,1,4.25-1,32.34,32.34,0,0,0-9.64-1.12c-10.4.3-19.74,5.16-27.37,12-7.35,6.59-13.21,14.59-18.9,22.6q-10.23,14.39-20.42,28.8c-5.22,7.33-11.73,13.78-20.37,16.86a29.62,29.62,0,0,1-15.9,1.11c.29,6.13,1.8,12.31,5,17.32,4.28,6.62,11.73,9.43,19.41,8.75,8.68-.76,16-6.35,21.36-12.93,3.47-4.29,6.49-9,9.68-13.49l10-14.16c7.47-10.53,15.23-22,25.43-30.23A43.09,43.09,0,0,1,307.38,243.4Z"/><path d="M114.71,297.89c0,.93.11,1.87.21,2.81,6.86,2.55,14.83,2.61,21.3-1.07,7.75-4.41,11.21-13,15.08-20.53,8.67-16.86,20.81-32.55,37.32-42.31a67.85,67.85,0,0,1,31.13-9.71c1.06-.05,2.13-.06,3.19-.05a51.42,51.42,0,0,1,15.54-4c-4.55-.3-9.13-.81-13.69-1a67.77,67.77,0,0,0-26.5,4.56c-16.89,6.45-30.62,18.59-41.08,33.14-5.14,7.16-9.16,14.85-13.15,22.67-3.56,7-8.14,13.79-16.51,14.95a23.11,23.11,0,0,1-12.88-2.14C114.66,296.14,114.67,297,114.71,297.89Z"/><path d="M433.22,222.75l.38-.09a1.29,1.29,0,0,1-.19,0Z"/><path d="M354.78,266.39c-.48.73-1,1.47-1.45,2.2-4.29,6.26-9.29,12.27-16.12,15.87a17.3,17.3,0,0,1-11.36,1.94c-.09,1.24-.13,2.47-.11,3.69q0,.81.06,1.65c13,2,25.17-10.83,32-20.91,8.5-12.49,15.08-26.68,26.11-37.27a43.26,43.26,0,0,1,23.6-11.92,44.8,44.8,0,0,1,14.34.21c.88-.15,1.77-.27,2.67-.34,2.36-.18,6.35-.33,8.54.84.7.08.86.19.5.31.28-.06.58-.17.84-.24l1.7-.48-.6,4.57a46.93,46.93,0,0,0-13.65-4.66A26.17,26.17,0,0,0,409.06,228c-7.9,6.95-11.77,18-12.3,28.3-.08,1.38-.08,2.77,0,4.16a54.37,54.37,0,0,1,5-4.24c.37-8.34,3.13-16.43,8.84-22.68a21.27,21.27,0,0,1,19.1-6.84c1.33.22,2.84,1,4.16,1a15.21,15.21,0,0,0,3.66-.91c2-.56,2.53-3.55.6-4.57-13.83-7.27-30.77-8.16-44.93-1.26-12.71,6.2-21.2,18.05-28.51,29.72-2.31,3.69-4.56,7.41-6.87,11.1.13.52.25,1.05.38,1.56C358.65,265.22,356.45,267.12,354.78,266.39Z"/><path d="M335.92,231.25a5.8,5.8,0,0,0,.7.65,2.4,2.4,0,0,0-.16-.55c.24.46.25.58.16.55,0,.13.05.26.08.36l.48,1.81,4.18-2.43c-3.53-4.48-9.47-6.27-15-5.6a25.52,25.52,0,0,1,4.07,1.52A23,23,0,0,1,335.92,231.25Z"/><path d="M213.72,306.29a29.62,29.62,0,0,0,15.9-1.11c8.64-3.08,15.15-9.53,20.37-16.86q10.23-14.38,20.42-28.8c5.69-8,11.55-16,18.9-22.6,7.63-6.84,17-11.7,27.37-12a32.34,32.34,0,0,1,9.64,1.12c5.57-.67,11.51,1.12,15,5.6l-4.18,2.43-.48-1.81c0-.1-.05-.23-.08-.36a5.8,5.8,0,0,1-.7-.65,23,23,0,0,0-5.53-3.69,25.52,25.52,0,0,0-4.07-1.52,18.58,18.58,0,0,0-4.25,1c-7.22,2.73-12,9.35-14.69,16.33a43.09,43.09,0,0,0-2.7,18.15A57,57,0,0,1,309.6,258c.16-8.08,2.67-16.79,8.53-22.52,5.34-5.21,14.63-6.71,19.69-.29,1.63,2.06,4.78-.19,4.18-2.43-.23-.89-.4-1.85-.72-2.72-.66-1.75-2.6-3-4-4.14a29.55,29.55,0,0,0-10.88-5,41,41,0,0,0-23.89,1.9c-17.7,6.83-28.82,23.57-39.35,38.41l-10,14.16c-3.19,4.5-6.21,9.21-9.68,13.49-5.33,6.58-12.67,12.17-21.36,12.94a23.57,23.57,0,0,1-8.28-.7A50.06,50.06,0,0,0,213.72,306.29Z"/><path d="M336.46,231.35a2.4,2.4,0,0,1,.16.55C336.71,231.93,336.7,231.81,336.46,231.35Z"/><path d="M196.33,253.84a50.46,50.46,0,0,0-3.64,15.91q2.66-2.12,5.46-4A45.49,45.49,0,0,1,238.48,228c-5.14-.34-10.36-1-15.54-1A50,50,0,0,0,196.33,253.84Z"/><path d="M238.48,228v-5a51.42,51.42,0,0,0-15.54,4C228.12,227.07,233.34,227.7,238.48,228Z"/><path d="M436.14,221.94l-1.7.48c-.26.07-.56.18-.84.24l-.38.09.19-.05a1.29,1.29,0,0,0,.19,0c.36-.12.2-.23-.5-.31-2.19-1.17-6.18-1-8.54-.84-.9.07-1.79.19-2.67.34a46.93,46.93,0,0,1,13.65,4.66Z"/><path d="M238.48,223v5A2.5,2.5,0,0,0,238.48,223Z"/><path d="M431.66,302.84c13.49-.18,26.65-5.56,37-14.12,2.48-2.06-1.08-5.58-3.54-3.54a55.07,55.07,0,0,1-29.38,12.41c-6.16.62-11.59,0-16.72-3.68-.33-.23-.65-.48-1-.73a47.13,47.13,0,0,0,1.12,6.6A25.09,25.09,0,0,0,431.66,302.84Z"/><path d="M122.62,225.42c2-.32,2.52-3.74.6-4.57L120,219.43c-2.06-.88-4.48-.43-6.67-.2a70.79,70.79,0,0,0-15.88,3.51,73,73,0,0,0-27.18,16.79c-8.33,8.18-13.83,18.34-18.55,28.9s-8.92,21.72-16,31-17.42,17.2-29.64,17c-3.22-.06-3.22,4.94,0,5,22.84.39,36.89-21.09,45.17-39.53,4.85-10.77,9.11-22,16.23-31.58A67.34,67.34,0,0,1,109,224.85c.74-.14,1.49-.26,2.24-.36a25,25,0,0,1,10-3.89c-.19,1.52-.39,3-.59,4.57a25.1,25.1,0,0,0-3.29-1.5c.52.19-1.81.36-2,.38l-1.42.11c-.91.09-1.81.2-2.72.33-10.27,6.8-15.63,20.63-17.18,32.42a58.42,58.42,0,0,0-.5,7c1.66-1.24,3.37-2.43,5.13-3.52C99.91,245.5,106.86,227.86,122.62,225.42Z"/><path d="M117.41,223.67a1.39,1.39,0,0,0-.37-.08A1.76,1.76,0,0,1,117.41,223.67Z"/><path d="M115.41,224.05c.19,0,2.52-.19,2-.38a1.76,1.76,0,0,0-.37-.08,1.39,1.39,0,0,1,.37.08,25.1,25.1,0,0,1,3.29,1.5c.2-1.53.4-3,.59-4.57a25,25,0,0,0-10,3.89c.91-.13,1.81-.24,2.72-.33Z"/><path d="M401.87,262.51a42.82,42.82,0,0,1,21.82-10.29,44.52,44.52,0,0,1,14.34.21,26.49,26.49,0,0,1,2.66-.34c2.36-.18,6.36-.34,8.54.83.7.09.87.19.51.31.28-.06.58-.17.84-.24l1.7-.47-.6,4.57A47,47,0,0,0,438,252.43a26.08,26.08,0,0,0-12.83,6.14c-7.9,6.95-11.77,18-12.31,28.3,0,.5,0,1,0,1.5a37.93,37.93,0,0,0,5.17,4.81c-1-10.48,1.5-21.23,8.67-29.07a21.16,21.16,0,0,1,19.1-6.84c1.33.22,2.84,1,4.16,1a15.23,15.23,0,0,0,3.66-.92,2.53,2.53,0,0,0,.59-4.57c-13.82-7.27-30.77-8.15-44.92-1.25a45.63,45.63,0,0,0-7.57,4.69A44.24,44.24,0,0,0,401.87,262.51Z"/><path d="M449.36,253.33a2,2,0,0,0,.38-.1l-.19.05Z"/><path d="M354,265.75a2.19,2.19,0,0,0,.82.64c.91-1.38,1.81-2.76,2.68-4.15l-4.14,2.41-.48-1.82c0-.09,0-.22-.08-.35a5.22,5.22,0,0,1-.7-.66,23.28,23.28,0,0,0-5.53-3.68,24.59,24.59,0,0,0-4.07-1.52,18.07,18.07,0,0,0-4.25,1c-7.23,2.73-12,9.35-14.7,16.33A41.78,41.78,0,0,0,321,284.52a14.86,14.86,0,0,0,4.86,1.88c.53-7.44,3.08-15.14,8.42-20.36S348.89,259.33,354,265.75Z"/><path d="M352.06,261.82a5.22,5.22,0,0,0,.7.66,2.4,2.4,0,0,0-.16-.55c.23.46.25.58.16.55,0,.13.05.26.08.35l.48,1.82,4.14-2.41,0,0c-3.54-4.47-9.47-6.26-15-5.58a24.59,24.59,0,0,1,4.07,1.52A23.28,23.28,0,0,1,352.06,261.82Z"/><path d="M309.91,263.88c6.7-4.88,14.45-8.13,22.91-8.38a32.34,32.34,0,0,1,9.64,1.12c5.56-.68,11.49,1.11,15,5.58l.27-.44a10.41,10.41,0,0,0-.34-1.16c-.66-1.76-2.6-3.05-4.05-4.14a29.65,29.65,0,0,0-10.88-5,41,41,0,0,0-23.89,1.9,49.28,49.28,0,0,0-9,4.62q0,.76,0,1.53A43.4,43.4,0,0,0,309.91,263.88Z"/><path d="M452.28,252.52l-1.7.47c-.26.07-.56.18-.84.24a2,2,0,0,1-.38.1l.19-.05.19-.05c.36-.12.19-.22-.51-.31-2.18-1.17-6.18-1-8.54-.83a26.49,26.49,0,0,0-2.66.34,47,47,0,0,1,13.65,4.66Z"/><path d="M254.62,253.62v5A2.5,2.5,0,0,0,254.62,253.62Z"/><path d="M352.6,261.93a2.4,2.4,0,0,1,.16.55C352.85,262.51,352.83,262.39,352.6,261.93Z"/><path d="M192.69,269.75a103.28,103.28,0,0,0-19.34,20.58c-5.14,7.15-9.16,14.84-13.15,22.67-3.56,7-8.15,13.79-16.51,14.95-7.15,1-14.74-2-19.87-6.92-5.47-5.29-8.13-12.85-8.9-20.33l-.83-.31a31.69,31.69,0,0,1-4.28-2.15c.77,13.78,6.74,27.16,20.42,32.72,7,2.87,15.4,3.07,22.13-.75,7.74-4.41,11.21-13,15.08-20.53,6.4-12.45,14.7-24.25,25.25-33.51A50.94,50.94,0,0,1,192.69,269.75Z"/><path d="M93.59,263.93a72,72,0,0,0-7.23,6.17C78,278.29,72.53,288.45,67.81,299s-8.92,21.71-16,31S34.35,347.2,22.12,347c-3.22-.05-3.22,4.95,0,5C45,352.38,59,330.9,67.3,312.47c4.84-10.78,9.11-22,16.22-31.58a63.42,63.42,0,0,1,10.34-10.82A54.73,54.73,0,0,1,93.59,263.93Z"/><path d="M279.25,291.78l-10,14.16c-3.19,4.49-6.21,9.2-9.68,13.49-5.33,6.58-12.68,12.17-21.36,12.93-7.68.68-15.13-2.13-19.41-8.75-3.24-5-4.75-11.19-5-17.32a24.75,24.75,0,0,1-5-1.61,53,53,0,0,0,.82,8.25c1.49,8.11,5.12,16,12.22,20.65s16.28,4.93,24,2.18c8.64-3.09,15.15-9.53,20.37-16.87q10.23-14.38,20.42-28.8c5.69-8,11.55-16,18.89-22.59h0a45.54,45.54,0,0,1-.78-5.94C294.48,269.77,286.72,281.25,279.25,291.78Z"/><path d="M98.55,266.5a70.5,70.5,0,0,1,9.69-5.64,67.56,67.56,0,0,1,16.92-5.44c.75-.13,1.5-.25,2.25-.35a25,25,0,0,1,10-3.9l-.6,4.57a25.22,25.22,0,0,0-3.29-1.5c.53.2-1.8.37-2,.38l-1.41.12c-.91.09-1.82.2-2.72.33-10.27,6.79-15.63,20.63-17.19,32.42-.2,1.58-.35,3.17-.43,4.78a26.23,26.23,0,0,0,4.88,3c.11-15.59,6.8-36.56,24.09-39.24,2-.31,2.52-3.74.6-4.56L136.08,250c-2.06-.88-4.47-.43-6.66-.2a71.33,71.33,0,0,0-15.88,3.5,74,74,0,0,0-14.82,7.1A57.44,57.44,0,0,0,98.55,266.5Z"/><path d="M481.23,315.76a55.07,55.07,0,0,1-29.38,12.41c-6.16.62-11.59,0-16.72-3.68a38.93,38.93,0,0,1-9.43-9.73,45.79,45.79,0,0,1-6.56-15,31.46,31.46,0,0,1-4.85-3.2c-.35-.28-.69-.58-1-.87a50.51,50.51,0,0,0,7.08,20,45.4,45.4,0,0,0,10.1,11.48,26.23,26.23,0,0,0,17.37,6.26c13.49-.18,26.65-5.57,37-14.12C487.24,317.24,483.69,313.72,481.23,315.76Z"/><path d="M380.76,281.24c-3.75,6-7.3,12.09-11.29,17.92-4.3,6.27-9.29,12.28-16.12,15.88s-14.62,2.9-20-3.07c-4.85-5.38-7.14-13-7.55-20.23a18.89,18.89,0,0,1-5.06-1.57,45.17,45.17,0,0,0,1.33,10c1.87,7.5,5.86,15.26,12.66,19.4,15.61,9.51,31.12-6.28,39.24-18.2,7.79-11.44,14-24.28,23.41-34.5a48.42,48.42,0,0,1-.65-6.46C390.43,266.48,385.36,273.9,380.76,281.24Z"/><path d="M197.54,272.22a79.19,79.19,0,0,1,7.22-4.86,67.93,67.93,0,0,1,31.13-9.71c1.06,0,2.13,0,3.19,0a50.84,50.84,0,0,1,15.54-4c-4.56-.31-9.14-.82-13.7-1a67.57,67.57,0,0,0-26.49,4.56,79.38,79.38,0,0,0-16.28,8.55c-.08.45-.15.91-.21,1.37A50.09,50.09,0,0,0,197.54,272.22Z"/><path d="M254.62,258.62v-5a50.84,50.84,0,0,0-15.54,4C244.26,257.65,249.48,258.28,254.62,258.62Z"/><path d="M131.54,254.62c.2,0,2.53-.18,2-.38l-.36-.08a3.06,3.06,0,0,1,.36.08,25.22,25.22,0,0,1,3.29,1.5l.6-4.57a25,25,0,0,0-10,3.9c.9-.13,1.81-.24,2.72-.33Z"/><path d="M133.54,254.24a3.06,3.06,0,0,0-.36-.08Z"/><path d="M212.47,284.42a50.47,50.47,0,0,0-3.54,14.65,20,20,0,0,0,4.82,2c.07-1.15.18-2.29.32-3.4a45.49,45.49,0,0,1,40.55-39.07c-5.14-.34-10.36-1-15.54-1A50,50,0,0,0,212.47,284.42Z"/><path d="M419.14,299.78a47.13,47.13,0,0,1-1.12-6.6,37.93,37.93,0,0,1-5.17-4.81,50,50,0,0,0,.4,7.34c.35.29.69.59,1,.87A31.46,31.46,0,0,0,419.14,299.78Z"/><path d="M401.87,262.51a44.24,44.24,0,0,1-.16-6.3,54.37,54.37,0,0,0-5,4.24,48.42,48.42,0,0,0,.65,6.46c.88-1,1.77-1.88,2.7-2.78C400.67,263.57,401.27,263,401.87,262.51Z"/><path d="M309.6,259.51q0-.76,0-1.53a57,57,0,0,0-4.92,3.57,45.54,45.54,0,0,0,.78,5.94,54.8,54.8,0,0,1,4.45-3.61A43.4,43.4,0,0,1,309.6,259.51Z"/><path d="M325.74,290.09c0-1.22,0-2.45.11-3.69a14.86,14.86,0,0,1-4.86-1.88,44.51,44.51,0,0,0-.25,5.65,18.89,18.89,0,0,0,5.06,1.57Q325.76,290.9,325.74,290.09Z"/><path d="M357.5,262.22l0,0c-.87,1.39-1.77,2.77-2.68,4.15,1.67.73,3.87-1.17,3.36-3.07-.13-.51-.25-1-.38-1.56l-.27.44Z"/><path d="M357.5,262.22v0l0,0Z"/><path d="M98.72,260.41c-1.76,1.09-3.47,2.28-5.13,3.52a54.73,54.73,0,0,0,.27,6.14q2.27-1.89,4.69-3.57A57.44,57.44,0,0,1,98.72,260.41Z"/><path d="M114.92,300.7c-.1-.94-.17-1.88-.21-2.81s0-1.75,0-2.66a26.23,26.23,0,0,1-4.88-3,56.62,56.62,0,0,0,0,6,31.69,31.69,0,0,0,4.28,2.15Z"/><path d="M213.75,301.09a20,20,0,0,1-4.82-2,52.49,52.49,0,0,0-.19,5.61,24.75,24.75,0,0,0,5,1.61A50.06,50.06,0,0,1,213.75,301.09Z"/><path d="M197.94,267.11c.06-.46.13-.92.21-1.37q-2.81,1.89-5.46,4a50.94,50.94,0,0,0,0,6.42c1.56-1.38,3.19-2.69,4.85-3.95A50.09,50.09,0,0,1,197.94,267.11Z"/></g><g id="Layer_7" data-name="Layer 7"><path d="M294,127.72h0a48.36,48.36,0,1,0-88.78,0H205l.8,1.39a48.27,48.27,0,0,0,4,6.91l17.45,30.23,22.24,38.53,22.25-38.53,16.77-29.05a48.71,48.71,0,0,0,5.4-9.35ZM249.58,92.08a16.44,16.44,0,1,1-16.43,16.43A16.44,16.44,0,0,1,249.58,92.08Z"/></g></svg>