<svg xmlns="http://www.w3.org/2000/svg" viewBox="0 0 491.5 491.5"><defs><style>.cls-1{fill:none;}</style></defs><g id="Ebene_2" data-name="Ebene 2"><path class="cls-1" d="M397.7,164.33C398.23,154,402.11,143,410,136a26.11,26.11,0,0,1,12.84-6.14,44.52,44.52,0,0,0-14.34-.21,43.34,43.34,0,0,0-23.61,11.91c-11,10.6-17.6,24.79-26.11,37.28-6.86,10.07-19,22.92-32,20.91.4,7.18,2.7,14.85,7.55,20.23,5.38,6,13,6.74,20,3.06s11.83-9.6,16.12-15.87c4-5.83,7.55-11.94,11.3-17.92,4.6-7.35,9.67-14.76,16-20.79C397.62,167.1,397.63,165.71,397.7,164.33Z"/><path class="cls-1" d="M223.89,135.07c-1.07,0-2.13,0-3.19,0a68,68,0,0,0-31.14,9.71c-16.51,9.77-28.65,25.46-37.31,42.32-3.88,7.54-7.34,16.12-15.09,20.53-6.47,3.68-14.44,3.62-21.3,1.07.77,7.48,3.43,15,8.9,20.33,5.13,5,12.72,7.91,19.87,6.92,8.37-1.16,13-8,16.51-15,4-7.83,8-15.52,13.15-22.67a103,103,0,0,1,19.35-20.58,49.47,49.47,0,0,1,30.25-42.72Z"/><path class="cls-1" d="M338.16,192.5c6.83-3.6,11.82-9.61,16.11-15.88.5-.72,1-1.46,1.45-2.19a2.09,2.09,0,0,1-.81-.64c-5.07-6.43-14.36-4.93-19.7.29s-7.89,12.92-8.42,20.36A17.34,17.34,0,0,0,338.16,192.5Z"/><path class="cls-1" d="M308.32,151.44c2.69-7,7.47-13.6,14.7-16.33a18,18,0,0,1,4.25-1,32.38,32.38,0,0,0-9.64-1.12c-10.41.3-19.75,5.16-27.38,12-7.35,6.59-13.2,14.59-18.89,22.6q-10.23,14.38-20.43,28.79c-5.22,7.34-11.73,13.78-20.37,16.87a29.59,29.59,0,0,1-15.89,1.11c.29,6.13,1.79,12.3,5,17.32,4.28,6.62,11.72,9.43,19.4,8.75,8.69-.77,16-6.35,21.36-12.93,3.47-4.29,6.49-9,9.68-13.5l10-14.15c7.47-10.53,15.24-22,25.44-30.23A43.08,43.08,0,0,1,308.32,151.44Z"/><path d="M115.65,205.93c0,.93.11,1.87.21,2.81,6.86,2.55,14.83,2.61,21.3-1.07,7.75-4.41,11.21-13,15.09-20.53,8.66-16.86,20.8-32.55,37.31-42.32a68,68,0,0,1,31.14-9.71c1.06-.05,2.12-.05,3.19,0a51.42,51.42,0,0,1,15.54-4c-4.56-.3-9.14-.82-13.7-1a67.65,67.65,0,0,0-26.5,4.56c-16.89,6.45-30.62,18.58-41.08,33.14C153,175,149,182.63,145,190.46c-3.56,7-8.15,13.79-16.52,14.95a23.19,23.19,0,0,1-12.88-2.14C115.6,204.17,115.61,205.07,115.65,205.93Z"/><path d="M434.16,130.79a2.7,2.7,0,0,0,.38-.09l-.19,0Z"/><path d="M355.72,174.43c-.48.73-1,1.47-1.45,2.19C350,182.89,345,188.9,338.16,192.5a17.34,17.34,0,0,1-11.37,1.94c-.09,1.24-.13,2.47-.11,3.68,0,.55,0,1.1.07,1.66,13,2,25.17-10.84,32-20.91,8.51-12.49,15.08-26.68,26.11-37.28a43.34,43.34,0,0,1,23.61-11.91,44.52,44.52,0,0,1,14.34.21,25.77,25.77,0,0,1,2.66-.34c2.36-.18,6.36-.34,8.54.83.7.09.86.2.5.32.28-.06.58-.17.84-.25l1.7-.47-.6,4.57a47,47,0,0,0-13.64-4.66A26.11,26.11,0,0,0,410,136c-7.89,6.95-11.77,18-12.3,28.3-.07,1.38-.08,2.77,0,4.16a55.75,55.75,0,0,1,5-4.24c.37-8.34,3.13-16.43,8.85-22.68a21.24,21.24,0,0,1,14.72-7.07,22.12,22.12,0,0,1,4.38.23c1.32.22,2.83,1,4.16,1a15,15,0,0,0,3.65-.92c2-.55,2.54-3.55.6-4.57-13.82-7.26-30.77-8.15-44.92-1.25-12.72,6.2-21.21,18.05-28.52,29.72-2.31,3.68-4.55,7.41-6.86,11.1.13.52.24,1,.37,1.56C359.59,173.26,357.39,175.16,355.72,174.43Z"/><path d="M336.86,139.28a5.91,5.91,0,0,0,.71.66,2.38,2.38,0,0,0-.17-.55c.24.46.25.58.17.55,0,.13.05.26.07.36l.48,1.81,4.18-2.43c-3.53-4.49-9.47-6.28-15-5.6a24.93,24.93,0,0,1,4.07,1.52A23,23,0,0,1,336.86,139.28Z"/><path d="M214.67,214.33a29.59,29.59,0,0,0,15.89-1.11c8.64-3.09,15.15-9.53,20.37-16.87q10.23-14.39,20.43-28.79c5.69-8,11.54-16,18.89-22.6,7.63-6.84,17-11.7,27.38-12a32.38,32.38,0,0,1,9.64,1.12c5.56-.68,11.5,1.11,15,5.6l-4.18,2.43-.48-1.81c0-.1-.05-.23-.07-.36a5.91,5.91,0,0,1-.71-.66,23,23,0,0,0-5.52-3.68,24.93,24.93,0,0,0-4.07-1.52,18,18,0,0,0-4.25,1c-7.23,2.73-12,9.35-14.7,16.33a43.08,43.08,0,0,0-2.69,18.15,57.72,57.72,0,0,1,4.92-3.58c.16-8.07,2.66-16.78,8.53-22.51,5.34-5.21,14.62-6.71,19.69-.29,1.62,2.06,4.77-.19,4.18-2.43a27.93,27.93,0,0,0-.73-2.72c-.65-1.76-2.59-3.05-4.05-4.14a29.74,29.74,0,0,0-10.88-5,41.09,41.09,0,0,0-23.89,1.9c-17.7,6.84-28.82,23.58-39.35,38.42L254,183.4c-3.19,4.5-6.21,9.21-9.68,13.49-5.32,6.58-12.67,12.17-21.36,12.94a23.51,23.51,0,0,1-8.27-.7A47.42,47.42,0,0,0,214.67,214.33Z"/><path d="M337.4,139.39a2.38,2.38,0,0,1,.17.55C337.65,140,337.64,139.85,337.4,139.39Z"/><path d="M197.27,161.88a50.45,50.45,0,0,0-3.63,15.91q2.64-2.11,5.45-4a45.5,45.5,0,0,1,40.34-37.69c-5.15-.34-10.37-1-15.54-1A50.05,50.05,0,0,0,197.27,161.88Z"/><path d="M239.43,136.08v-5a51.42,51.42,0,0,0-15.54,4C229.06,135.11,234.28,135.74,239.43,136.08Z"/><path d="M437.08,130l-1.7.47c-.26.08-.56.19-.84.25a2.7,2.7,0,0,1-.38.09l.19,0,.19,0c.36-.12.2-.23-.5-.32-2.18-1.17-6.18-1-8.54-.83a25.77,25.77,0,0,0-2.66.34,47,47,0,0,1,13.64,4.66Z"/><path d="M239.43,131.08v5A2.5,2.5,0,0,0,239.43,131.08Z"/><path d="M432.6,210.88c13.49-.18,26.66-5.56,37-14.12,2.48-2.06-1.08-5.58-3.54-3.54a55,55,0,0,1-29.38,12.41c-6.15.62-11.58,0-16.72-3.68l-1-.73a49.17,49.17,0,0,0,1.12,6.6A25.14,25.14,0,0,0,432.6,210.88Z"/><path d="M123.57,133.46c2-.32,2.51-3.75.59-4.57l-3.27-1.42c-2.06-.88-4.47-.43-6.67-.2a70.91,70.91,0,0,0-15.88,3.51,72.88,72.88,0,0,0-27.17,16.79c-8.33,8.18-13.83,18.34-18.56,28.9s-8.91,21.71-16,31-17.42,17.19-29.64,17c-3.22-.06-3.22,4.94,0,5,22.84.39,36.89-21.1,45.18-39.53,4.84-10.77,9.1-22,16.22-31.58A67.34,67.34,0,0,1,110,132.89q1.13-.21,2.25-.36a25,25,0,0,1,10-3.9l-.6,4.57a25.22,25.22,0,0,0-3.29-1.5c.53.2-1.8.37-2,.38l-1.42.12c-.91.09-1.81.2-2.71.33C101.94,139.32,96.59,153.16,95,165a60.56,60.56,0,0,0-.5,7c1.67-1.24,3.37-2.43,5.13-3.53C100.86,153.54,107.8,135.9,123.57,133.46Z"/><path d="M118.35,131.7l-.37-.08Z"/><path d="M116.35,132.08c.2,0,2.53-.18,2-.38l-.37-.08.37.08a25.22,25.22,0,0,1,3.29,1.5l.6-4.57a25,25,0,0,0-10,3.9c.9-.13,1.8-.24,2.71-.33Z"/><path d="M402.82,170.55a42.75,42.75,0,0,1,21.81-10.29,44.52,44.52,0,0,1,14.34.21c.88-.15,1.77-.28,2.67-.35,2.36-.17,6.35-.33,8.54.84.7.09.86.19.5.31.28-.06.58-.17.84-.24l1.7-.47-.6,4.57A46.64,46.64,0,0,0,439,160.47a26.07,26.07,0,0,0-12.83,6.13c-7.89,7-11.77,18-12.3,28.31,0,.5,0,1,0,1.5a37.93,37.93,0,0,0,5.17,4.81c-1-10.48,1.5-21.23,8.67-29.07a21.24,21.24,0,0,1,14.73-7.07,20.61,20.61,0,0,1,4.37.23c1.33.22,2.84,1,4.16,1a15.12,15.12,0,0,0,3.66-.92,2.53,2.53,0,0,0,.6-4.57c-13.82-7.27-30.77-8.15-44.93-1.25a46,46,0,0,0-7.57,4.69A44.24,44.24,0,0,0,402.82,170.55Z"/><path d="M450.3,161.37a2.84,2.84,0,0,0,.38-.1l-.19,0Z"/><path d="M354.91,173.79a2.09,2.09,0,0,0,.81.64c.91-1.38,1.81-2.76,2.69-4.16l-4.15,2.42-.48-1.82c0-.1,0-.22-.08-.35a5.22,5.22,0,0,1-.7-.66,22.88,22.88,0,0,0-5.53-3.68,23.73,23.73,0,0,0-4.07-1.52,18.18,18.18,0,0,0-4.25,1c-7.22,2.74-12,9.36-14.69,16.34a41.36,41.36,0,0,0-2.52,10.54,14.73,14.73,0,0,0,4.85,1.88c.53-7.44,3.08-15.14,8.42-20.36S349.84,167.36,354.91,173.79Z"/><path d="M353,169.86a5.22,5.22,0,0,0,.7.66,2.4,2.4,0,0,0-.16-.55c.24.46.25.58.16.55,0,.13.05.25.08.35l.48,1.82,4.15-2.42,0,0c-3.54-4.47-9.47-6.26-15-5.58a23.73,23.73,0,0,1,4.07,1.52A22.88,22.88,0,0,1,353,169.86Z"/><path d="M310.85,171.92c6.7-4.88,14.46-8.14,22.91-8.38a32.34,32.34,0,0,1,9.64,1.12c5.56-.68,11.49,1.11,15,5.58l.28-.44a10.43,10.43,0,0,0-.35-1.16c-.65-1.76-2.59-3-4.05-4.14a29.41,29.41,0,0,0-10.88-5,41,41,0,0,0-23.89,1.9,49.46,49.46,0,0,0-9,4.61c0,.52,0,1,0,1.54A43.61,43.61,0,0,0,310.85,171.92Z"/><path d="M453.22,160.56l-1.7.47c-.26.07-.56.18-.84.24a2.84,2.84,0,0,1-.38.1l.19-.05.19,0c.36-.12.2-.22-.5-.31-2.19-1.17-6.18-1-8.54-.84-.9.07-1.79.2-2.67.35a46.64,46.64,0,0,1,13.65,4.66Z"/><path d="M255.56,161.66v5A2.5,2.5,0,0,0,255.56,161.66Z"/><path d="M353.54,170a2.4,2.4,0,0,1,.16.55C353.79,170.55,353.78,170.43,353.54,170Z"/><path d="M193.64,177.79a103,103,0,0,0-19.35,20.58c-5.14,7.15-9.16,14.84-13.15,22.67-3.56,7-8.14,13.79-16.51,15-7.15,1-14.74-2-19.87-6.92-5.47-5.29-8.13-12.85-8.9-20.33l-.82-.32a30.52,30.52,0,0,1-4.28-2.14c.76,13.78,6.73,27.15,20.41,32.72,7,2.86,15.4,3.07,22.13-.76,7.75-4.4,11.21-13,15.09-20.52,6.39-12.45,14.69-24.26,25.24-33.52A50.78,50.78,0,0,1,193.64,177.79Z"/><path d="M94.53,172a73.14,73.14,0,0,0-7.23,6.17c-8.32,8.19-13.83,18.34-18.55,28.91s-8.92,21.71-16,31-17.42,17.2-29.64,17c-3.22-.05-3.22,5,0,5,22.84.39,36.89-21.09,45.17-39.52,4.85-10.78,9.11-22,16.23-31.58A63.75,63.75,0,0,1,94.8,178.11,57.21,57.21,0,0,1,94.53,172Z"/><path d="M280.19,199.82l-10,14.15c-3.19,4.5-6.21,9.21-9.68,13.5-5.32,6.58-12.67,12.16-21.36,12.93-7.68.68-15.12-2.13-19.4-8.75-3.25-5-4.75-11.19-5-17.32a24.84,24.84,0,0,1-5-1.61,52,52,0,0,0,.83,8.25c1.48,8.1,5.12,16,12.21,20.65s16.28,4.92,24,2.18c8.64-3.09,15.15-9.53,20.37-16.87q10.23-14.38,20.42-28.8c5.7-8,11.55-16,18.9-22.59v0a43.73,43.73,0,0,1-.77-5.93C295.43,177.81,287.66,189.29,280.19,199.82Z"/><path d="M99.49,174.54a70.5,70.5,0,0,1,9.69-5.64,67.09,67.09,0,0,1,16.93-5.44c.74-.13,1.49-.25,2.24-.36a24.94,24.94,0,0,1,10-3.89l-.6,4.57a25.84,25.84,0,0,0-3.29-1.5c.52.2-1.81.37-2,.38-.48,0-1,.07-1.42.12-.91.08-1.81.2-2.72.32-10.27,6.8-15.63,20.64-17.18,32.43-.21,1.57-.35,3.17-.43,4.78a26.15,26.15,0,0,0,4.87,3c.12-15.59,6.8-36.56,24.09-39.24,2-.31,2.52-3.74.6-4.57L137,158.05c-2.06-.88-4.48-.43-6.67-.2a71.33,71.33,0,0,0-15.88,3.5,74.72,74.72,0,0,0-14.82,7.09A57.7,57.7,0,0,0,99.49,174.54Z"/><path d="M482.17,223.8a55.11,55.11,0,0,1-29.38,12.41c-6.16.62-11.59,0-16.72-3.68a38.93,38.93,0,0,1-9.43-9.73,46,46,0,0,1-6.56-15,32.72,32.72,0,0,1-4.85-3.2c-.35-.28-.69-.58-1-.87a50.26,50.26,0,0,0,7.08,20,45,45,0,0,0,10.09,11.48,26.18,26.18,0,0,0,17.37,6.27c13.49-.18,26.66-5.57,37-14.13C488.19,225.28,484.63,221.76,482.17,223.8Z"/><path d="M381.71,189.28c-3.75,6-7.31,12.09-11.3,17.92-4.29,6.27-9.28,12.28-16.12,15.87s-14.61,2.9-20-3.06c-4.85-5.38-7.15-13-7.55-20.23a18.85,18.85,0,0,1-5.07-1.57,45.77,45.77,0,0,0,1.33,10c1.88,7.5,5.87,15.26,12.66,19.4,15.61,9.51,31.13-6.28,39.25-18.21,7.78-11.43,14-24.27,23.4-34.49a52,52,0,0,1-.65-6.46C391.38,174.52,386.31,181.93,381.71,189.28Z"/><path d="M198.49,180.26a77,77,0,0,1,7.21-4.86,68,68,0,0,1,31.14-9.71c1.06-.05,2.12-.06,3.18-.05a51.19,51.19,0,0,1,15.54-4c-4.55-.31-9.13-.82-13.69-1a67.59,67.59,0,0,0-26.5,4.56,79.6,79.6,0,0,0-16.28,8.54q-.12.69-.21,1.38A47.21,47.21,0,0,0,198.49,180.26Z"/><path d="M255.56,166.66v-5a51.19,51.19,0,0,0-15.54,4C245.2,165.69,250.42,166.31,255.56,166.66Z"/><path d="M132.49,162.66c.19,0,2.52-.18,2-.38l-.37-.08.37.08a25.84,25.84,0,0,1,3.29,1.5l.6-4.57a24.94,24.94,0,0,0-10,3.89c.91-.12,1.81-.24,2.72-.32C131.54,162.73,132,162.7,132.49,162.66Z"/><path d="M134.49,162.28l-.37-.08Z"/><path d="M213.41,192.46a50.45,50.45,0,0,0-3.53,14.65,20.08,20.08,0,0,0,4.82,2c.07-1.15.17-2.29.32-3.4a45.46,45.46,0,0,1,40.54-39.07c-5.14-.35-10.36-1-15.54-1A50.05,50.05,0,0,0,213.41,192.46Z"/><path d="M420.08,207.82a49.17,49.17,0,0,1-1.12-6.6,37.93,37.93,0,0,1-5.17-4.81,48.76,48.76,0,0,0,.41,7.34c.34.29.68.59,1,.87A32.72,32.72,0,0,0,420.08,207.82Z"/><path d="M402.82,170.55a44.24,44.24,0,0,1-.17-6.3,55.75,55.75,0,0,0-5,4.24,52,52,0,0,0,.65,6.46c.88-.95,1.77-1.88,2.71-2.78C401.61,171.61,402.21,171.07,402.82,170.55Z"/><path d="M310.54,167.55c0-.51,0-1,0-1.54a57.72,57.72,0,0,0-4.92,3.58,43.73,43.73,0,0,0,.77,5.93c1.43-1.27,2.91-2.48,4.45-3.6A43.61,43.61,0,0,1,310.54,167.55Z"/><path d="M326.68,198.12c0-1.21,0-2.44.11-3.68a14.73,14.73,0,0,1-4.85-1.88,44.52,44.52,0,0,0-.26,5.65,18.85,18.85,0,0,0,5.07,1.57C326.71,199.22,326.69,198.67,326.68,198.12Z"/><path d="M358.44,170.25l0,0c-.88,1.4-1.78,2.78-2.69,4.16,1.67.73,3.87-1.17,3.36-3.07-.13-.51-.24-1-.37-1.56l-.28.44Z"/><path d="M358.44,170.25h0l0,0Z"/><path d="M99.66,168.44c-1.76,1.1-3.46,2.29-5.13,3.53a57.21,57.21,0,0,0,.27,6.14c1.51-1.26,3.08-2.45,4.69-3.57A57.7,57.7,0,0,1,99.66,168.44Z"/><path d="M115.86,208.74c-.1-.94-.17-1.88-.21-2.81s-.05-1.76,0-2.66a26.15,26.15,0,0,1-4.87-3,54.05,54.05,0,0,0,0,6,30.52,30.52,0,0,0,4.28,2.14Z"/><path d="M214.7,209.13a20.08,20.08,0,0,1-4.82-2,52.5,52.5,0,0,0-.2,5.61,24.84,24.84,0,0,0,5,1.61A47.42,47.42,0,0,1,214.7,209.13Z"/><path d="M198.88,175.15q.09-.69.21-1.38-2.81,1.9-5.45,4a50.78,50.78,0,0,0,0,6.41q2.35-2.05,4.86-3.94A47.21,47.21,0,0,1,198.88,175.15Z"/></g><g id="Layer_7" data-name="Layer 7"><path d="M249.93,374.34h0a48.37,48.37,0,1,0-88.78,0H161l.81,1.39a47.34,47.34,0,0,0,4,6.91l17.45,30.22,22.24,38.53,22.24-38.53,16.77-29a47.76,47.76,0,0,0,5.4-9.36ZM205.52,338.7a16.43,16.43,0,1,1-16.44,16.43A16.42,16.42,0,0,1,205.52,338.7Z"/><path d="M-18.78,409.17c34.25-5.67,72.09-12.6,96.75-39.35,12.35-13.4,20.35-30.19,33-43.32,14.1-14.65,33.69-20.83,52.56-26.83a882.22,882.22,0,0,1,380-34c5.33.69,10.65,1.45,16,2.24,3.15.47,4.51-4.35,1.33-4.82a882.57,882.57,0,0,0-128.06-9.72,891.56,891.56,0,0,0-128.12,8.94A880,880,0,0,0,179.29,289.6c-10.06,3-20.1,6.09-30,9.49-9.36,3.21-18.7,6.86-27.15,12.06-16.08,9.91-25.8,25.62-36.38,40.73-5.25,7.49-10.89,14.69-17.79,20.74A97.46,97.46,0,0,1,45.3,387.13C29,394.84,11.08,398.82-6.6,402c-4.5.81-9,1.57-13.51,2.32-3.17.52-1.83,5.34,1.33,4.82Z"/></g></svg>