<svg xmlns="http://www.w3.org/2000/svg" viewBox="0 0 491.5 491.5"><defs><style>.cls-1{fill:none;}</style></defs><g id="Layer_7" data-name="Layer 7"><g id="Layer_1"><g id="_169502096" data-name=" 169502096"><path id="_172747360" data-name=" 172747360" d="M237.34,204.8c11.82,2,19.14,5.41,19.14,9.82s-7.32,7.83-19.14,9.82c-10.4,1.75-24.63,2.83-40.36,2.83s-30-1.08-40.36-2.83c-11.82-2-19.14-5.4-19.14-9.82s7.32-7.82,19.14-9.82C167,203.06,181.25,202,197,202S226.94,203,237.34,204.8Zm-93.54,9.74c0,.83,5.24,2.08,13.82,3.5,10,1.66,23.88,2.66,39.27,2.66s29.3-1,39.28-2.66c8.58-1.42,13.82-2.67,13.82-3.5s-5.24-2.08-13.82-3.49c-10-1.67-23.88-2.67-39.28-2.67s-29.29,1-39.27,2.67C149.13,212.46,143.8,213.71,143.8,214.54Z"/><polygon id="_172747312" data-name=" 172747312" points="249.74 212.88 249.74 169.35 144.22 169.35 144.22 214.54 137.81 214.54 137.81 166.19 137.81 162.95 140.97 162.95 252.9 162.95 256.06 162.95 256.06 166.19 256.06 212.88 249.74 212.88"/><path id="_172747192" data-name=" 172747192" d="M225.27,278.87a3.17,3.17,0,0,0,6.33,0V260.06a3.17,3.17,0,0,0-6.33,0Z"/><path id="_172747096" data-name=" 172747096" d="M225.27,325.8a3.17,3.17,0,1,0,6.33,0V307a3.17,3.17,0,1,0-6.33,0Z"/><path id="_172747048" data-name=" 172747048" d="M225.27,372.74a3.17,3.17,0,0,0,6.33,0V353.93a3.17,3.17,0,0,0-6.33,0Z"/><path id="_172746928" data-name=" 172746928" d="M187.66,278.87a3.16,3.16,0,1,0,6.32,0V260.06a3.16,3.16,0,1,0-6.32,0Z"/><path id="_169502552" data-name=" 169502552" d="M187.66,325.8a3.16,3.16,0,1,0,6.32,0V307a3.16,3.16,0,1,0-6.32,0Z"/><path id="_169502504" data-name=" 169502504" d="M187.66,372.74a3.16,3.16,0,0,0,6.32,0V353.93a3.16,3.16,0,0,0-6.32,0Z"/><path id="_169502384" data-name=" 169502384" d="M150.13,278.87a3.16,3.16,0,1,0,6.32,0V260.06a3.16,3.16,0,1,0-6.32,0Z"/><path id="_169502288" data-name=" 169502288" d="M150.13,325.8a3.16,3.16,0,1,0,6.32,0V307a3.16,3.16,0,1,0-6.32,0Z"/><path id="_169502240" data-name=" 169502240" d="M150.13,372.74a3.16,3.16,0,0,0,6.32,0V353.93a3.16,3.16,0,0,0-6.32,0Z"/><polygon id="_169502144" data-name=" 169502144" points="193.73 166.19 193.73 75.48 33.04 75.48 33.04 69.08 196.98 69.08 200.14 69.08 200.14 72.32 200.14 166.19 193.73 166.19"/></g></g><polygon class="cls-1" points="461.45 176.88 358.25 243.17 358.25 454.31 391.07 454.31 391.07 333.59 463.65 333.59 463.65 454.31 491.58 454.31 491.58 195.84 461.76 176.68 461.45 176.88"/><rect class="cls-1" x="397.07" y="339.59" width="60.58" height="114.67"/><path d="M463.65,454.31V333.59H391.07V454.31H358.25V243.17l103.2-66.29.31-.2,29.82,19.15v-8.32l-25.25-16.22a5.85,5.85,0,0,0-4.37-2h-.4a5.79,5.79,0,0,0-4.37,2l-144.79,93a7.32,7.32,0,0,0-2.71,8.28,6.43,6.43,0,0,0,3.88,4.26,5.71,5.71,0,0,0,5.05-.58l32.63-21v206H491.58v-7Zm-6,0H397.07V339.59h60.58Z"/></g></svg>