<?xml version="1.0" encoding="utf-8"?>
<!-- Generator: Adobe Illustrator 25.0.0, SVG Export Plug-In . SVG Version: 6.00 Build 0)  -->
<svg version="1.1" xmlns="http://www.w3.org/2000/svg" xmlns:xlink="http://www.w3.org/1999/xlink" x="0px" y="0px"
	 viewBox="0 0 503.6 503.6" style="enable-background:new 0 0 503.6 503.6;" xml:space="preserve">
<style type="text/css">
	.st0{fill:none;stroke:#000000;stroke-width:7.4015;stroke-linecap:round;stroke-linejoin:round;stroke-miterlimit:10;}
	.st1{fill:none;stroke:#000000;stroke-width:7.4583;stroke-linecap:round;stroke-linejoin:round;stroke-miterlimit:10;}
	.st2{opacity:0.15;}
</style>
<g id="New_icon">
	<line class="st0" x1="220.8" y1="155.9" x2="282.5" y2="155.9"/>
	<path class="st0" d="M441.5,103.8"/>
	<path class="st0" d="M62.1,103.8"/>
	<line class="st0" x1="66.7" y1="222.3" x2="437.3" y2="222.3"/>
	<line class="st0" x1="66.7" y1="251.9" x2="437.3" y2="251.9"/>
	<path class="st0" d="M441.5,281.4"/>
	<path class="st0" d="M62.1,281.4"/>
	<path class="st1" d="M450.7,281.4H53.1c-6.6,0-12-5.4-12-12V115.8c0-6.6,5.4-12,12-12h397.6c6.6,0,12,5.4,12,12v153.7
		C462.7,276,457.3,281.4,450.7,281.4z"/>
	<path class="st1" d="M169.9,324.6c-19.6,13.9-14.2,24.2-10.8,28.8c6.6,8.8,21.1,12.1,26.2,19.9c5.4,8.2-0.7,20.7-15.5,26.2"/>
	<path class="st1" d="M250.1,310c-19.6,13.9-14.2,24.2-10.8,28.8c6.6,8.8,21.1,12.1,26.2,19.9c5.4,8.2-0.7,20.7-15.5,26.2"/>
	<path class="st1" d="M330.4,324.8c-19.6,13.9-14.2,24.2-10.8,28.8c6.6,8.8,21.1,12.1,26.2,19.9c5.4,8.2-0.7,20.7-15.5,26.2"/>
</g>
<g id="Template_1_">
	<g transform="translate(1 1)" class="st2">
		<g>
			<g>
				<path d="M447.8,95.9h-394c-12.4,0-21.9,9.6-21.9,22.1v147.5c0,12.5,9.5,22.1,21.9,22.1h394c12.4,0,21.9-9.6,21.9-22.1V118.1
					C469.7,105.5,460.2,95.9,447.8,95.9z M455.1,265.5c0,4.4-2.9,7.4-7.3,7.4h-394c-4.4,0-7.3-2.9-7.3-7.4V118.1
					c0-4.4,3.6-7.4,7.3-7.4h394c4.4,0,7.3,2.9,7.3,7.4L455.1,265.5L455.1,265.5z"/>
				<path d="M221.6,162.3H280c4.4,0,7.3-2.9,7.3-7.4s-2.9-7.4-7.3-7.4h-58.4c-4.4,0-7.3,2.9-7.3,7.4S217.2,162.3,221.6,162.3z"/>
				<path d="M433.2,243.4H68.4c-4.4,0-7.3,2.9-7.3,7.4s2.9,7.4,7.3,7.4h364.8c4.4,0,7.3-2.9,7.3-7.4S437.6,243.4,433.2,243.4z"/>
				<path d="M433.2,213.9H68.4c-4.4,0-7.3,2.9-7.3,7.4c0,4.4,2.9,7.4,7.3,7.4h364.8c4.4,0,7.3-2.9,7.3-7.4
					C440.5,216.9,437.6,213.9,433.2,213.9z"/>
				<path d="M254.4,340c-7.3-3.7-10.9-8.1-10.9-11.8c0-3.7,4.4-8.1,10.2-12.5c3.6-1.5,4.4-5.9,2.9-9.6c-1.5-3.7-5.8-5.2-9.5-2.9
					c-11.7,6.6-18.2,15.5-18.2,25.1c0,9.6,6.6,18.4,18.2,25.8c7.3,3.7,10.9,8.1,10.9,11.8c0,3.7-4.4,8.1-10.9,11.8
					c-3.6,1.5-5.1,5.9-2.9,9.6c1.5,2.2,3.6,3.7,6.6,3.7c1.5,0,2.2,0,3.6-0.7c11.7-6.6,18.2-15.5,18.2-25.1
					C272.7,355.5,266.1,345.9,254.4,340z"/>
				<path d="M174.2,354.8c-7.3-3.7-10.9-8.1-10.9-11.8c0-3.7,4.4-8.1,10.2-12.5c3.6-1.5,5.1-5.9,2.9-9.6c-1.5-3.7-5.8-5.2-9.5-2.9
					c-11.7,6.6-18.2,15.5-18.2,25.1c0,9.6,6.6,18.4,18.2,25.8c7.3,3.7,10.9,8.1,10.9,11.8c0,3.7-4.4,8.1-10.9,11.8
					c-3.6,1.5-5.1,5.9-2.9,9.6c1.5,2.2,3.6,3.7,6.6,3.7c1.5,0,2.2,0,3.6-0.7c11.7-6.6,18.2-15.5,18.2-25.1
					C192.4,370.3,185.9,360.7,174.2,354.8z"/>
				<path d="M334.7,354.8c-7.3-3.7-10.9-8.1-10.9-11.8c0-3.7,4.4-8.1,10.2-12.5c3.6-1.5,4.4-5.9,2.9-9.6c-1.5-3.7-5.8-5.2-9.5-2.9
					c-11.7,6.6-18.2,15.5-18.2,25.1c0,9.6,6.6,18.4,18.2,25.8c7.3,3.7,10.9,8.1,10.9,11.8c0,3.7-4.4,8.1-10.9,11.8
					c-3.6,1.5-5.1,5.9-2.9,9.6c1.5,2.2,3.6,3.7,6.6,3.7c1.5,0,2.2,0,3.6-0.7c11.7-6.6,18.2-15.5,18.2-25.1
					C353,370.3,346.4,360.7,334.7,354.8z"/>
			</g>
		</g>
	</g>
</g>
</svg>
