<?xml version="1.0" encoding="UTF-8"?>
<!DOCTYPE svg PUBLIC "-//W3C//DTD SVG 1.1//EN" "http://www.w3.org/Graphics/SVG/1.1/DTD/svg11.dtd">
<!-- Creator: CorelDRAW -->
<svg xmlns="http://www.w3.org/2000/svg" xml:space="preserve" width="6.82666in" height="6.82666in" style="shape-rendering:geometricPrecision; text-rendering:geometricPrecision; image-rendering:optimizeQuality; fill-rule:evenodd; clip-rule:evenodd"
viewBox="0 0 6.82666 6.82666"
 xmlns:xlink="http://www.w3.org/1999/xlink">
 <defs>
  <style type="text/css">
   <![CDATA[
    .fil2 {fill:none}
    .fil1 {fill:black}
    .fil0 {fill:black;fill-rule:nonzero}
   ]]>
  </style>
 </defs>
 <g id="Layer_x0020_1">
  <metadata id="CorelCorpID_0Corel-Layer"/>
  <g id="_172748800">
   <path id="_173387744" class="fil0" d="M3.93383 3.49792c0.14374,0.14374 0.215606,0.33213 0.215606,0.520504 0,0.188374 -0.0718701,0.376768 -0.215606,0.5205 -0.143732,0.143736 -0.332122,0.215606 -0.520504,0.215606 -0.188374,0 -0.376768,-0.0718701 -0.5205,-0.215606 -0.143736,-0.143732 -0.215606,-0.332126 -0.215606,-0.5205 0,-0.188374 0.0718661,-0.376764 0.215606,-0.520504 0.143732,-0.143736 0.332126,-0.215606 0.5205,-0.215606 0.188382,0 0.376772,0.0718701 0.520504,0.215606zm0.108937 0.520504c0,-0.161091 -0.0614528,-0.322185 -0.184354,-0.445087 -0.122898,-0.122902 -0.283992,-0.184354 -0.445087,-0.184354 -0.161091,0 -0.322185,0.0614528 -0.445083,0.184354 -0.122902,0.122902 -0.184354,0.283996 -0.184354,0.445087 0,0.161091 0.0614528,0.322185 0.184354,0.445083 0.122898,0.122902 0.283992,0.184354 0.445083,0.184354 0.161094,0 0.322189,-0.0614528 0.445087,-0.184354 0.122902,-0.122898 0.184354,-0.283992 0.184354,-0.445083z"/>
   <g>
    <path id="_173387648" class="fil0" d="M3.24215 1.17998l0.342354 0c0.0337205,0 0.0638701,0.0136614 0.0858937,0.035685 0.0217835,0.0217835 0.0354803,0.0520591 0.0364449,0.0854055l0.0481496 1.66045 0 0.000830709 2.75591e-005 0.00189764 0.000208661 0.000625984c0,0.0330197 -0.0137717,0.062874 -0.0357402,0.0846417 -0.0214961,0.0212992 -0.0511024,0.0348346 -0.0833543,0.0357717l-0.000830709 0 -0.00202362 2.75591e-005 -0.000625984 0.000208661 -0.438654 0 -0.000625984 -0.000208661 -0.00202362 -2.75591e-005 -0.000830709 0c-0.032248,-0.000937008 -0.0618583,-0.0144646 -0.0833543,-0.0357677 -0.0219764,-0.0217717 -0.0357402,-0.0516181 -0.0357402,-0.0846417l0.000208661 -0.000625984 2.75591e-005 -0.00190157 0 -0.000830709 0.0481496 -1.66045c0.00096063,-0.0332165 0.0146575,-0.0634134 0.036437,-0.0852008l0 -0.000208661c0.0220276,-0.0220276 0.0521811,-0.0356811 0.0859016,-0.0356811zm0.342354 0.106669l-0.342354 0c-0.00406299,0 -0.00775197,0.00169685 -0.0104843,0.00442913l-0.000106299 -0.000106299c-0.0032874,0.00333465 -0.00535039,0.00794882 -0.00549606,0.0130118l-0.0481496 1.66045 -1.1811e-005 0 -7.87402e-006 0.000444882 0.000200787 0c0,0.00348031 0.00157087,0.00674803 0.00407087,0.00922441 0.0029685,0.00294094 0.00698031,0.00481102 0.0112677,0.00493307l0 1.1811e-005 0.000566929 7.87402e-006 0 -0.000200787 0.438654 0 0 0.000200787 0.000566929 -7.87402e-006 0 -1.1811e-005c0.00428346,-0.000122047 0.00829528,-0.00199213 0.0112677,-0.00493701 0.0025,-0.00247638 0.00407087,-0.00574409 0.00407087,-0.00922441l0.000200787 0 -7.87402e-006 -0.000440945 -1.1811e-005 0 -0.0481496 -1.66045c-0.000141732,-0.00496063 -0.00225591,-0.00954724 -0.00561024,-0.0129016 -0.00273228,-0.00273228 -0.00642126,-0.00443307 -0.0104764,-0.00443307z"/>
    <path id="_173387600" class="fil0" d="M3.61126 3.01969l0.0831496 0.34302 -0.103331 0.025 -0.0831496 -0.34302 0.103331 -0.025zm-0.47902 0.34302l0.0831496 -0.34302 0.103331 0.025 -0.0831496 0.34302 -0.103331 -0.025z"/>
   </g>
   <g>
    <path id="_173387456" class="fil0" d="M1.0409 5.58568l-0.171087 -0.296331 -9.05512e-005 5.11811e-005c-0.0168937,-0.0292638 -0.0201732,-0.0621732 -0.0121378,-0.0921693 0.00798819,-0.0298071 0.0273071,-0.0568071 0.0555945,-0.074252l1.41392 -0.871925 0.000625984 -0.000417323 0.00162598 -0.000972441 0.000834646 -0.000413386c0.0286142,-0.0165197 0.0613031,-0.0195394 0.0910157,-0.0114331 0.029189,0.00796457 0.0556811,0.0267835 0.0725354,0.0541299l0.000417323 0.000625984 0.00103543 0.00173228 0.000413386 0.000834646 0.219327 0.379886 0.000417323 0.000622047 0.000984252 0.00175984 0.000417323 0.000625984c0.015252,0.0282795 0.018315,0.0606339 0.0106181,0.0899055 -0.00784646,0.0298386 -0.0268268,0.0566535 -0.0554882,0.0732087l-0.000830709 0.000417323 -0.00165354 0.00092126 -0.000625984 0.000417323 -1.46207 0.788528c-0.029185,0.0157402 -0.0622047,0.0189449 -0.0920394,0.0109567 -0.0299528,-0.0080315 -0.0568189,-0.0273622 -0.0737559,-0.0567087zm-0.0790984 -0.349402l0.171177 0.296488c0.00194488,0.00337402 0.00530709,0.00567323 0.00917323,0.00670866 0.00449213,0.00120079 0.00955906,0.000669291 0.014126,-0.00179134l1.46207 -0.788528 2.75591e-005 5.11811e-005 0.000188976 -0.000102362 -1.9685e-005 -3.54331e-005c0.00296063,-0.00170866 0.00499213,-0.00474016 0.00590551,-0.00821654 0.00106299,-0.00404724 0.000641732,-0.00851575 -0.00145276,-0.0124016l5.11811e-005 -2.75591e-005 -0.00061811 -0.0011063 4.33071e-005 -2.3622e-005 -0.218488 -0.378437 -5.11811e-005 3.14961e-005 -0.00103543 -0.00173228 7.87402e-006 -3.93701e-006c-0.00232677,-0.0034252 -0.00580709,-0.00579921 -0.00962205,-0.00683858 -0.00319685,-0.000870079 -0.00653543,-0.000744094 -0.0093622,0.000586614l7.87402e-006 1.5748e-005 -0.00162598 0.000972441 -1.1811e-005 -2.3622e-005 -1.41328 0.871531c-0.00433858,0.00267323 -0.00730315,0.00679921 -0.00851575,0.0113307 -0.00102362,0.00382677 -0.000685039,0.00789764 0.00130315,0.0113425l0 0.000208661z"/>
    <path id="_173387408" class="fil0" d="M2.44942 4.34632l0.255492 -0.24352 0.0733307 0.0770787 -0.255492 0.24352 -0.0733307 -0.0770787zm0.536575 0.243425l-0.338638 0.0995 -0.03 -0.102079 0.338638 -0.0995 0.03 0.102079z"/>
   </g>
   <g>
    <path id="_173387264" class="fil0" d="M5.95693 5.28919l-0.171177 0.296488 0 0.000208661c-0.0168465,0.0291772 -0.0437205,0.0484449 -0.0737559,0.0564921 -0.0298386,0.00799606 -0.0628661,0.00478346 -0.0920394,-0.0109488l-1.46207 -0.788528 -0.000625984 -0.000417323 -0.00165354 -0.00092126 -0.000622047 -0.000417323c-0.028815,-0.0166339 -0.0478701,-0.0434528 -0.0556929,-0.0732047 -0.00769685,-0.0292677 -0.00464173,-0.0616142 0.0106142,-0.0899055l0.000417323 -0.000625984 0.000984252 -0.00176378 0.000417323 -0.000622047 0.219327 -0.379886 0.000413386 -0.000834646 0.00103543 -0.00173622 0.000417323 -0.000625984c0.0168622,-0.0273386 0.0433386,-0.0461654 0.0725315,-0.0541299 0.0298031,-0.00813386 0.062563,-0.00511024 0.0912244,0.011437l0.000625984 0.000413386 0.00162992 0.000972441 0.000625984 0.000417323 1.41392 0.871925c0.0282953,0.0174528 0.0476181,0.0444449 0.0555984,0.0742441 0.00801969,0.0299134 0.00472441,0.062748 -0.0121417,0.0919685zm-0.263165 0.243417l0.171087 -0.296331c0.00201575,-0.00349606 0.00235433,-0.00764567 0.00130709,-0.0115591 -0.00120866,-0.00452362 -0.00417717,-0.00864567 -0.00851969,-0.0113228l-1.41328 -0.871531 -1.1811e-005 2.3622e-005 -0.000988189 -0.000590551 -1.5748e-005 3.14961e-005c-0.00294882,-0.00170472 -0.00655512,-0.00195276 -0.00998031,-0.00101969 -0.00381102,0.00103937 -0.0072874,0.00341339 -0.00961811,0.00683858l7.87402e-006 3.93701e-006 -0.00103543 0.00173622 -5.11811e-005 -3.14961e-005 -0.218488 0.378437 4.33071e-005 2.3622e-005 -0.00061811 0.00111024 5.11811e-005 2.75591e-005c-0.00209449,0.00388583 -0.00251181,0.00835433 -0.00144882,0.0124016 0.000866142,0.00329134 0.00259843,0.00612992 0.00505906,0.00781496l1.1811e-005 -1.9685e-005 0.001 0.000555118 2.75591e-005 -5.11811e-005 1.46207 0.788528c0.00455906,0.00245669 0.00962992,0.00298819 0.014126,0.00178346 0.00378346,-0.00101181 0.00713386,-0.00337402 0.00917323,-0.00690945l9.05512e-005 5.11811e-005z"/>
    <path id="_173387216" class="fil0" d="M4.1793 4.68925l-0.338642 -0.0995 0.03 -0.102079 0.338642 0.0995 -0.03 0.102079zm-0.0575551 -0.586445l0.255488 0.24352 -0.0733307 0.0770787 -0.255488 -0.24352 0.0733307 -0.0770787z"/>
   </g>
   <path id="_172748872" class="fil0" d="M3.6862 3.74555l3.93701e-006 3.93701e-006c0.0753504,0.0753504 0.113031,0.174114 0.113031,0.272866 0,0.098752 -0.0376811,0.197512 -0.113031,0.272866l-3.93701e-006 3.93701e-006 -3.93701e-006 3.93701e-006c-0.0753504,0.0753504 -0.174114,0.113031 -0.272866,0.113031 -0.0987559,0 -0.197516,-0.0376811 -0.272866,-0.113031l-3.93701e-006 -3.93701e-006 -3.93701e-006 -3.93701e-006c-0.0753504,-0.0753504 -0.113031,-0.174114 -0.113031,-0.272866 0,-0.0987559 0.0376811,-0.197516 0.113031,-0.272866l3.93701e-006 -3.93701e-006 3.93701e-006 -3.93701e-006c0.0753504,-0.0753504 0.174114,-0.113031 0.272866,-0.113031 0.098752,0 0.197512,0.0376811 0.272866,0.113031l3.93701e-006 3.93701e-006zm-0.0754134 0.0754213l-3.93701e-006 -3.93701e-006 -3.93701e-006 -3.93701e-006c-0.0545197,-0.0545157 -0.125984,-0.0817795 -0.197449,-0.0817795 -0.0714646,0 -0.142933,0.0272638 -0.197449,0.0817795l-3.93701e-006 3.93701e-006 -3.93701e-006 3.93701e-006c-0.0545157,0.0545157 -0.0817795,0.12598 -0.0817795,0.197449 0,0.0714646 0.0272638,0.142933 0.0817795,0.197449l3.93701e-006 3.93701e-006 3.93701e-006 3.93701e-006c0.0545157,0.0545157 0.12598,0.0817795 0.197449,0.0817795 0.0714646,0 0.142933,-0.0272638 0.197449,-0.0817795l3.93701e-006 -3.93701e-006 3.93701e-006 -3.93701e-006c0.0545157,-0.0545197 0.0817795,-0.125984 0.0817795,-0.197449 0,-0.0714646 -0.0272638,-0.142933 -0.0817795,-0.197449z"/>
   <circle id="_172748848" class="fil1" transform="matrix(0.353532 0.353533 -0.353532 0.353533 3.41333 4.01841)" r="0.16"/>
  </g>
 </g>
 <rect class="fil2" width="6.82666" height="6.82666"/>
</svg>
