<svg xmlns="http://www.w3.org/2000/svg" viewBox="0 0 491.5 491.5"><defs><style>.cls-1,.cls-3{fill:#fff;}.cls-1,.cls-2{stroke:#000;}.cls-1{stroke-miterlimit:10;stroke-width:7.72px;}.cls-2{fill:none;stroke-linecap:round;stroke-linejoin:round;stroke-width:3.09px;}</style></defs><g id="Ebene_4" data-name="Ebene 4"><ellipse class="cls-1" cx="251.5" cy="258.06" rx="228.13" ry="179.39"/><line class="cls-2" x1="51.8" y1="240.54" x2="217.6" y2="107.9"/><line class="cls-2" x1="57.86" y1="302.92" x2="302.4" y2="108.74"/><line class="cls-2" x1="86.12" y1="352.48" x2="365.74" y2="126.78"/><line class="cls-2" x1="131.32" y1="390.82" x2="416.84" y2="164.54"/><line class="cls-2" x1="199.58" y1="410.87" x2="450.37" y2="211.43"/><line class="cls-2" x1="289.69" y1="413.54" x2="455.48" y2="280.91"/><line class="cls-2" x1="309.77" y1="117.43" x2="442.41" y2="283.22"/><line class="cls-2" x1="229.62" y1="99.56" x2="423.8" y2="344.11"/><line class="cls-2" x1="166.16" y1="108.05" x2="391.86" y2="387.68"/><line class="cls-2" x1="110.52" y1="130.19" x2="336.8" y2="415.71"/><line class="cls-2" x1="71.73" y1="172.49" x2="271.17" y2="423.29"/><line class="cls-2" x1="47.43" y1="238.09" x2="180.07" y2="403.89"/><path class="cls-1" d="M254.06,154.75c-3.17,41.15-61.29.84-108.31,56.25s12.6,81.44-32.74,111.66S46.92,230.47,95.38,177.42C157.51,109.41,257.42,111.09,254.06,154.75Z"/><path class="cls-1" d="M306.64,195.85c11.45,39.66-57.11,22.25-81.74,90.62s40.32,71.87,8.44,116.06-94.2-63.2-67.39-129.87C200.33,187.2,294.49,153.78,306.64,195.85Z"/><path class="cls-3" d="M400,228.81c-1.27.05-2.53.07-3.76.08-5.2,0-9.08-.28-10-.36-1.66.15-10.13,1.38-11.59,11,2.35,2.63,22.66,25.71,25.89,43.38,7.4-5,20.52-13.26,30-15.28C420.33,258.78,403.5,245.15,400,228.81Z"/><path class="cls-3" d="M386.26,223.54l.19,0s4.1.38,9.75.35c10.73,0,29.59-1.55,35.3-11,2.77-4.59,2.1-10.89-2-18.71-18.56-35.51-71.67-16.62-76-15-3.12,2.27-34.32,25.52-36,47.2-.51,6.67,1.81,12.4,7.08,17.51,8.36,8.1,16.74,11.82,24.9,11,10.62-1,18-9.44,19.93-11.83-.41-18.32,16.47-19.53,16.65-19.54Z"/><path d="M440,268.9c-6.34-4.87-26.85-22.41-32.46-40.6,11.59-1.21,23.26-4.61,28.23-12.85,3.72-6.18,3.1-14.12-1.85-23.58-8.87-17-26.08-25.29-49.73-24.09a115.22,115.22,0,0,0-32.8,6.87l-.28.11-.24.17c-1.49,1-36.39,26-38.32,51.06-.62,8.12,2.26,15.34,8.58,21.46,8.61,8.34,17.41,12.55,26.21,12.55.89,0,1.78,0,2.66-.12,13-1.26,21.55-11.38,23.54-14,6.57,7.86,22.42,28.17,22.42,41.46v4.84l3.93-2.82c18.43-13.16,33.26-19,36.43-16.9l.61.4c2.12,1.42,3.33.65,4-.25C441.23,272.17,442.14,270.54,440,268.9Zm-70.58-25.81c-1.91,2.39-9.31,10.83-19.93,11.83-8.16.78-16.54-2.94-24.9-11-5.27-5.11-7.59-10.84-7.08-17.51,1.67-21.68,32.87-44.93,36-47.2,4.34-1.62,57.45-20.51,76,15,4.09,7.82,4.76,14.12,2,18.71-5.71,9.48-24.57,11-35.3,11-5.65,0-9.71-.35-9.75-.35l-.19,0h-.19C385.89,223.56,369,224.77,369.42,243.09Zm31.08,39.8c-3.23-17.67-23.54-40.75-25.89-43.38,1.46-9.6,9.93-10.83,11.59-11,.94.08,4.82.38,10,.36,1.23,0,2.49,0,3.76-.08,3.52,16.34,20.35,30,30.56,38.8C421,269.63,407.9,277.85,400.5,282.89Z"/><path class="cls-3" d="M338.11,336.11c-1.27.05-2.53.07-3.76.08-5.2,0-9.08-.27-10-.36-1.66.15-10.13,1.38-11.59,11,2.35,2.63,22.66,25.71,25.89,43.38,7.4-5,20.52-13.26,30-15.28C358.46,366.08,341.63,352.45,338.11,336.11Z"/><path class="cls-3" d="M324.39,330.84l.19,0s4.1.38,9.75.35c10.73,0,29.59-1.55,35.3-11,2.77-4.59,2.1-10.89-2-18.71-18.56-35.51-71.67-16.62-76-15-3.12,2.27-34.32,25.52-36,47.2-.51,6.67,1.81,12.4,7.08,17.51,8.36,8.1,16.74,11.82,24.9,11.05,10.62-1,18-9.45,19.93-11.84-.41-18.32,16.47-19.53,16.65-19.54Z"/><path d="M378.13,376.2c-6.34-4.87-26.85-22.41-32.46-40.6,11.59-1.21,23.26-4.61,28.23-12.85,3.72-6.18,3.1-14.12-1.85-23.58-8.87-17-26.08-25.29-49.73-24.09a115.22,115.22,0,0,0-32.8,6.87l-.28.11-.24.17c-1.49,1-36.39,26-38.32,51.06-.62,8.12,2.26,15.34,8.58,21.46,8.61,8.34,17.41,12.55,26.21,12.55.89,0,1.78,0,2.66-.12,13-1.26,21.55-11.38,23.54-14,6.57,7.86,22.42,28.17,22.42,41.46v4.84l3.93-2.82c18.43-13.16,33.27-19,36.43-16.9l.61.4c2.12,1.42,3.33.65,4-.25C379.36,379.47,380.27,377.84,378.13,376.2Zm-70.58-25.81c-1.91,2.39-9.31,10.83-19.93,11.84-8.16.77-16.54-3-24.9-11.05-5.27-5.11-7.59-10.84-7.08-17.51,1.67-21.68,32.87-44.93,36-47.2,4.34-1.62,57.45-20.51,76,15,4.09,7.82,4.76,14.12,2,18.71-5.71,9.48-24.57,11-35.3,11-5.65,0-9.71-.35-9.75-.35l-.19,0h-.19C324,330.86,307.14,332.07,307.55,350.39Zm31.08,39.8c-3.23-17.67-23.54-40.75-25.89-43.38,1.46-9.6,9.93-10.83,11.59-11,.94.09,4.82.38,10,.36,1.23,0,2.49,0,3.76-.08,3.52,16.34,20.35,30,30.56,38.8C359.15,376.93,346,385.15,338.63,390.19Z"/></g></svg>