<svg xmlns="http://www.w3.org/2000/svg" viewBox="0 0 491.5 491.5"><defs><style>.cls-1,.cls-2{fill:none;stroke:#000;stroke-miterlimit:10;}.cls-1{stroke-width:7.63px;}.cls-2{stroke-width:5px;}</style></defs><g id="Ebene_4" data-name="Ebene 4"><path class="cls-1" d="M424.52,124.83C374.58,74.89,282.61,85.89,219.1,149.41c-24.89,24.88-41.72,54.15-50,83.53L316.41,380.22c29.39-8.25,58.65-25.07,83.54-50C463.46,266.75,474.46,174.77,424.52,124.83Z"/><path class="cls-1" d="M303,383.08,167.09,247.21c-8.69,31-7.06,62.07,5.57,87.51l-71.82,71.81a31.14,31.14,0,0,0,0,44h0a31.14,31.14,0,0,0,44,0l72.23-72.23C242.22,390.22,272.67,391.59,303,383.08Z"/><circle class="cls-2" cx="116.71" cy="121.82" r="23.3"/></g></svg>