<?xml version="1.0" encoding="UTF-8"?>
<!DOCTYPE svg PUBLIC "-//W3C//DTD SVG 1.1//EN" "http://www.w3.org/Graphics/SVG/1.1/DTD/svg11.dtd">
<!-- Creator: CorelDRAW -->
<svg xmlns="http://www.w3.org/2000/svg" xml:space="preserve" width="6.82666in" height="6.82666in" style="shape-rendering:geometricPrecision; text-rendering:geometricPrecision; image-rendering:optimizeQuality; fill-rule:evenodd; clip-rule:evenodd"
viewBox="0 0 6.82666 6.82666"
 xmlns:xlink="http://www.w3.org/1999/xlink">
 <defs>
  <style type="text/css">
   <![CDATA[
    .fil1 {fill:none}
    .fil0 {fill:black;fill-rule:nonzero}
   ]]>
  </style>
 </defs>
 <g id="Layer_x0020_1">
  <metadata id="CorelCorpID_0Corel-Layer"/>
  <g id="_378825048">
   <g>
    <path id="_378829032" class="fil0" d="M1.02297 4.95654l7.48031e-005 0.00292913 3.93701e-006 0c0.00061811,0.0187835 0.00672047,0.0356063 0.0161929,0.0474764 0.00623622,0.00781496 0.0135,0.0127598 0.0203858,0.0129567l0.000940945 -1.5748e-005 0 -1.5748e-005 2.01215 -0.0661181c0.00764961,-0.000248031 0.0157362,-0.000208661 0.0234606,-0.000177165 0.00979528,4.33071e-005 0.0171378,7.08661e-005 0.0171378,-0.00130315 0,-0.00116535 -0.00734252,-0.0011063 -0.0171339,-0.00102756 -0.00763386,6.29921e-005 -0.0156142,0.000133858 -0.0234685,-9.44882e-005l-2.01239 -0.0582953 0 -7.87402e-006 -0.000484252 -1.9685e-005 -0.000208661 0c-0.007,1.1811e-005 -0.0143976,0.00500787 -0.0207165,0.0129921 -0.00934646,0.0118031 -0.0153346,0.0286614 -0.0158819,0.0475866l-6.29921e-005 0.00313386zm-0.106173 0.00605118c-4.33071e-005,-0.00143307 -7.48031e-005,-0.00342126 -7.87402e-005,-0.00605118 -3.93701e-006,-0.0024685 1.9685e-005,-0.00445276 6.29921e-005,-0.00604724 0.00122047,-0.0422874 0.0158583,-0.0815276 0.0388031,-0.110508 0.0259291,-0.032748 0.0624488,-0.0532559 0.103839,-0.0534055l0 -3.93701e-006 0.000208661 0c0.0015,-7.87402e-006 0.00257087,3.93701e-006 0.00339764,2.75591e-005l0.000208661 0 2.01239 0.0582953c0.007,0.000200787 0.0135,0.000145669 0.0197205,9.44882e-005 0.0709094,-0.000594488 0.124012,-0.0010315 0.12422,0.10728 0.000200787,0.108114 -0.0529016,0.10787 -0.123807,0.107555 -0.00612205,-2.75591e-005 -0.0125197,-5.90551e-005 -0.0197126,0.000177165l-2.01215 0.0661181 -0.000830709 0 -0.00214961 3.93701e-005 -0.000834646 0c-0.0414567,7.87402e-005 -0.0780984,-0.0202835 -0.104173,-0.0529646 -0.0229764,-0.0287913 -0.0377205,-0.0679724 -0.0391142,-0.110398l0 -0.000208661z"/>
    <path id="_378828480" class="fil0" d="M3.17813 4.89912c-0.0293386,0 -0.053126,0.0237874 -0.053126,0.053126 0,0.0293386 0.0237874,0.053126 0.053126,0.053126l2.6787 -0.00520866c0.0293386,0 0.053126,-0.0237874 0.053126,-0.053126 0,-0.0293386 -0.0237874,-0.053126 -0.053126,-0.053126l-2.6787 0.00520866z"/>
   </g>
   <g>
    <path id="_378825120" class="fil0" d="M1.09585 1.70564l4.63498 0c0.0667441,0 0.12739,0.0272717 0.171315,0.0711969 0.0439252,0.0439291 0.0711969,0.104579 0.0711969,0.171319l0 2.28911c0,0.0667402 -0.0272717,0.12739 -0.0711969,0.171319 -0.0439252,0.0439252 -0.104571,0.0711969 -0.171315,0.0711969l-4.63498 0c-0.0667402,0 -0.12739,-0.0272717 -0.171319,-0.0711969 -0.0439252,-0.0439291 -0.0711969,-0.104579 -0.0711969,-0.171319l0 -2.28911c0,-0.0667402 0.0272717,-0.12739 0.0711969,-0.171319 0.0439291,-0.0439252 0.104579,-0.0711969 0.171319,-0.0711969zm4.63498 0.106669l-4.63498 0c-0.0372992,0 -0.0712559,0.0153031 -0.0959016,0.0399449 -0.0246417,0.0246457 -0.0399449,0.0586024 -0.0399449,0.0959016l0 2.28911c0,0.0372992 0.0153031,0.0712559 0.0399449,0.0959016 0.0246457,0.0246417 0.0586024,0.0399449 0.0959016,0.0399449l4.63498 0c0.0372992,0 0.071252,-0.0152992 0.0958976,-0.0399449 0.0246417,-0.0246457 0.0399449,-0.0586024 0.0399449,-0.0959016l0 -2.28911c0,-0.0372992 -0.0153031,-0.0712559 -0.0399449,-0.0959016 -0.0246457,-0.0246457 -0.0585984,-0.0399449 -0.0958976,-0.0399449z"/>
    <path id="_378828024" class="fil0" d="M1.53878 1.7502c0.00261811,0.0164567 0.0045315,0.0320709 0.00568898,0.0467441 0.00125591,0.0159331 0.00189764,0.0316732 0.00189764,0.0471614 0,0.156898 -0.0611417,0.299657 -0.160921,0.405756 -0.100299,0.10665 -0.23974,0.17613 -0.395413,0.185539 -0.00430315,0.000255906 -0.0102992,0.000507874 -0.018126,0.000748031 -0.0100669,0.000299213 -0.0162165,0.00046063 -0.0180433,0.00046063l0 -0.106669c0.00926378,0 0.014189,-1.5748e-005 0.0151299,-4.33071e-005 0.00317323,-9.44882e-005 0.00816929,-0.000354331 0.0147874,-0.000748031 0.127559,-0.0077126 0.241886,-0.0647087 0.324169,-0.152201 0.0816929,-0.0868661 0.131748,-0.203953 0.131748,-0.332843 0,-0.0134488 -0.000503937,-0.0264016 -0.00148031,-0.0388307 -0.0011063,-0.0140354 -0.00259843,-0.0268425 -0.00443701,-0.0384055l0.105 -0.0166693z"/>
    <path id="_378831480" class="fil0" d="M5.39289 1.76687c-0.00184646,0.0115709 -0.00333465,0.024374 -0.00443701,0.0383976 -0.000980315,0.012437 -0.00148425,0.0253937 -0.00148425,0.0388386 0,0.12889 0.0500551,0.245976 0.131748,0.332843 0.0822835,0.0874921 0.19661,0.144488 0.324173,0.152201 0.00661811,0.000393701 0.0116142,0.000653543 0.0147874,0.000748031 0.000940945,2.75591e-005 0.00586614,4.33071e-005 0.0151299,4.33071e-005l0 0.106669c-0.00182677,0 -0.00797638,-0.000161417 -0.0180433,-0.00046063 -0.00782677,-0.000240157 -0.0138228,-0.000492126 -0.018126,-0.000748031 -0.155673,-0.00940945 -0.295118,-0.0788898 -0.395417,-0.185539 -0.0997795,-0.106098 -0.160921,-0.248858 -0.160921,-0.405756 0,-0.0154921 0.000641732,-0.0312362 0.00190157,-0.0471693 0.00115354,-0.0146772 0.00306693,-0.0302835 0.00568898,-0.0467362l0.105 0.0166693z"/>
    <path id="_378832248" class="fil0" d="M1.43378 4.41855c0.00183858,-0.011563 0.00333071,-0.0243701 0.00443701,-0.0384055 0.000976378,-0.0124291 0.00148031,-0.0253819 0.00148031,-0.0388307 0,-0.12889 -0.0500551,-0.245976 -0.131748,-0.332843 -0.0822835,-0.0874921 -0.19661,-0.144492 -0.324169,-0.152205 -0.00664173,-0.000393701 -0.0115787,-0.000645669 -0.0147874,-0.000744094 -0.000940945,-2.75591e-005 -0.00586614,-4.33071e-005 -0.0151299,-4.33071e-005l0 -0.106669c0.00182677,0 0.00797638,0.000161417 0.0180433,0.00046063 0.00779134,0.00023622 0.0138425,0.000488189 0.018126,0.000744094 0.155673,0.00940945 0.295114,0.0788937 0.395413,0.185543 0.0997795,0.106098 0.160921,0.248858 0.160921,0.405756 0,0.0154882 -0.000641732,0.0312283 -0.00189764,0.0471614 -0.00115748,0.0146732 -0.00307087,0.0302874 -0.00568898,0.0467441l-0.105 -0.0166693z"/>
    <path id="_378828768" class="fil0" d="M5.28789 4.43522c-0.00262205,-0.0164528 -0.00453543,-0.0320591 -0.00568898,-0.0467362 -0.00125984,-0.0159331 -0.00190157,-0.0316772 -0.00190157,-0.0471693 0,-0.156898 0.0611417,-0.299657 0.160921,-0.405756 0.100299,-0.106654 0.239748,-0.176134 0.395417,-0.185543 0.00428346,-0.000255906 0.0103346,-0.000507874 0.018126,-0.000744094 0.0100669,-0.000299213 0.0162165,-0.00046063 0.0180433,-0.00046063l0 0.106669c-0.00926378,0 -0.014189,1.5748e-005 -0.0151299,4.33071e-005 -0.00320866,9.84252e-005 -0.00814567,0.000350394 -0.0147874,0.000744094 -0.127563,0.0077126 -0.24189,0.0647087 -0.324173,0.152205 -0.0816929,0.0868661 -0.131748,0.203953 -0.131748,0.332843 0,0.0134449 0.000503937,0.0264016 0.00148425,0.0388386 0.00110236,0.0140236 0.00259055,0.0268268 0.00443701,0.0383976l-0.105 0.0166693z"/>
    <path id="_378831072" class="fil0" d="M3.87043 1.7878c-0.0391575,0.0468228 -0.0786575,0.0875748 -0.118382,0.122154 -0.110594,0.0962598 -0.224988,0.147063 -0.341327,0.150476 -0.116744,0.0034252 -0.232406,-0.0409803 -0.344996,-0.135146 -0.036811,-0.0307835 -0.0731299,-0.0666811 -0.10887,-0.10774l0.0804173 -0.07c0.0323937,0.0372165 0.0646772,0.0692244 0.0967835,0.0960709 0.0919173,0.076874 0.18365,0.113205 0.273752,0.110563 0.0905039,-0.00265354 0.182437,-0.0447362 0.27424,-0.124642 0.0359055,-0.031252 0.0715118,-0.0679724 0.106713,-0.110067l0.0816693 0.0683307z"/>
    <path id="_378830472" class="fil0" d="M3.78876 4.46595c-0.0352008,-0.0420906 -0.0708031,-0.078811 -0.106709,-0.110063 -0.0918031,-0.0799094 -0.18374,-0.121992 -0.274244,-0.124646 -0.0901024,-0.0026378 -0.181835,0.033689 -0.273756,0.110567 -0.0320984,0.0268465 -0.0643858,0.0588543 -0.0967795,0.0960709l-0.0804173 -0.07c0.0357323,-0.0410591 0.0720591,-0.0769567 0.108866,-0.10774 0.112594,-0.0941654 0.228256,-0.138571 0.345,-0.13515 0.116339,0.00341339 0.230736,0.0542205 0.341331,0.15048 0.0397244,0.0345787 0.0792244,0.0753307 0.118378,0.12215l-0.0816693 0.0683307z"/>
    <path id="_378828456" class="fil0" d="M3.29208 2.56169c0.0747992,0 0.142524,0.0303228 0.191547,0.0793465 0.0490236,0.0490236 0.0793465,0.116748 0.0793465,0.191547 0,0.0747992 -0.0303228,0.142524 -0.0793465,0.191547 -0.0490236,0.0490236 -0.116748,0.0793465 -0.191547,0.0793465 -0.0747953,0 -0.14252,-0.0303228 -0.191543,-0.0793465 -0.0490236,-0.0490236 -0.0793465,-0.116748 -0.0793465,-0.191547 0,-0.0747992 0.0303228,-0.142524 0.0793465,-0.191547 0.0490236,-0.0490236 0.116748,-0.0793465 0.191543,-0.0793465zm0.11613 0.154764c-0.0297126,-0.0297126 -0.0707756,-0.0480945 -0.11613,-0.0480945 -0.0453504,0 -0.0864134,0.0183819 -0.116126,0.0480945 -0.0297126,0.0297126 -0.0480945,0.0707756 -0.0480945,0.11613 0,0.0453543 0.0183819,0.0864173 0.0480945,0.11613 0.0297126,0.0297126 0.0707756,0.0480945 0.116126,0.0480945 0.0453543,0 0.0864173,-0.0183819 0.11613,-0.0480945 0.0297126,-0.0297126 0.0480945,-0.0707756 0.0480945,-0.11613 0,-0.0453543 -0.0183819,-0.0864173 -0.0480945,-0.11613z"/>
    <path id="_378827952" class="fil0" d="M3.15965 3.08194c0.0747913,0 0.14252,0.0303228 0.191547,0.0793465 0.0490236,0.0490236 0.0793465,0.116748 0.0793465,0.191547 0,0.0747953 -0.0303228,0.142524 -0.0793465,0.191547 -0.0490276,0.0490236 -0.116756,0.0793465 -0.191547,0.0793465 -0.0747992,0 -0.142524,-0.0303228 -0.191547,-0.0793465 -0.0490236,-0.0490236 -0.0793465,-0.116752 -0.0793465,-0.191547 0,-0.0747992 0.0303228,-0.142524 0.0793465,-0.191547 0.0490236,-0.0490236 0.116748,-0.0793465 0.191547,-0.0793465zm0.11613 0.154764c-0.0297165,-0.0297126 -0.0707795,-0.0480945 -0.11613,-0.0480945 -0.0453543,0 -0.0864173,0.0183819 -0.11613,0.0480945 -0.0297126,0.0297126 -0.0480945,0.0707756 -0.0480945,0.11613 0,0.0453504 0.0183819,0.0864173 0.0480945,0.11613 0.0297126,0.0297126 0.0707756,0.0480945 0.11613,0.0480945 0.0453504,0 0.0864134,-0.0183819 0.11613,-0.0480945 0.0297126,-0.0297126 0.0480945,-0.0707795 0.0480945,-0.11613 0,-0.0453543 -0.0183819,-0.0864173 -0.0480945,-0.11613z"/>
    <path id="_378830304" class="fil0" d="M3.66702 2.93628c0.0747992,0 0.142524,0.0303228 0.191547,0.0793465 0.0490236,0.0490236 0.0793465,0.116748 0.0793465,0.191543 0,0.0747992 -0.0303228,0.142524 -0.0793465,0.191547 -0.0490236,0.0490236 -0.116748,0.0793465 -0.191547,0.0793465 -0.0747992,0 -0.142524,-0.0303228 -0.191547,-0.0793465 -0.0490236,-0.0490236 -0.0793465,-0.116748 -0.0793465,-0.191547 0,-0.0747992 0.0303228,-0.14252 0.0793465,-0.191543 0.0490236,-0.0490236 0.116748,-0.0793465 0.191547,-0.0793465zm0.11613 0.154764c-0.0297126,-0.0297126 -0.0707756,-0.0480945 -0.11613,-0.0480945 -0.0453543,0 -0.0864173,0.0183819 -0.11613,0.0480945 -0.0297126,0.0297126 -0.0480945,0.0707717 -0.0480945,0.116126 0,0.0453543 0.0183819,0.0864173 0.0480945,0.11613 0.0297126,0.0297126 0.0707756,0.0480945 0.11613,0.0480945 0.0453543,0 0.0864173,-0.0183819 0.11613,-0.0480945 0.0297126,-0.0297126 0.0480945,-0.0707756 0.0480945,-0.11613 0,-0.0453504 -0.0183819,-0.0864134 -0.0480945,-0.116126z"/>
   </g>
  </g>
 </g>
 <rect class="fil1" width="6.82666" height="6.82666"/>
</svg>
