<svg xmlns="http://www.w3.org/2000/svg" viewBox="0 0 491.5 491.5"><defs><style>.cls-1,.cls-2{fill:none;stroke:#000;}.cls-1{stroke-miterlimit:10;stroke-width:4.99px;}.cls-2{stroke-linecap:round;stroke-linejoin:round;stroke-width:19.84px;}</style></defs><g id="Layer_7" data-name="Layer 7"><circle class="cls-1" cx="208.08" cy="194.87" r="75.48"/><path d="M222.73,86.56A14.65,14.65,0,1,0,205.61,101v18.45h4.95V101A14.66,14.66,0,0,0,222.73,86.56Zm-14.65,9.7a9.7,9.7,0,1,1,9.7-9.7A9.71,9.71,0,0,1,208.08,96.26Z"/><path d="M297.12,129a14.64,14.64,0,1,0-22.3-1.91l-13,13,3.49,3.5,13.05-13A14.66,14.66,0,0,0,297.12,129Zm-17.21-3.5a9.7,9.7,0,1,1,13.72,0A9.72,9.72,0,0,1,279.91,125.48Z"/><path d="M316.43,209.55A14.65,14.65,0,1,0,302,192.44H283.56v4.94H302A14.66,14.66,0,0,0,316.43,209.55Zm-9.7-14.64a9.7,9.7,0,1,1,9.7,9.7A9.71,9.71,0,0,1,306.73,194.91Z"/><path d="M273.92,283.86a14.64,14.64,0,1,0,1.91-22.3l-13.05-13-3.5,3.49,13.05,13.05A14.64,14.64,0,0,0,273.92,283.86Zm3.49-17.21a9.7,9.7,0,1,1,0,13.72A9.7,9.7,0,0,1,277.41,266.65Z"/><path d="M191.32,306.48a14.65,14.65,0,1,0,17.12-14.42V273.61h-4.95v18.45A14.65,14.65,0,0,0,191.32,306.48ZM206,296.77a9.71,9.71,0,1,1-9.7,9.71A9.72,9.72,0,0,1,206,296.77Z"/><path d="M120.69,263.15a14.65,14.65,0,1,0,22.3,1.91L156,252l-3.5-3.49-13,13A14.67,14.67,0,0,0,120.69,263.15Zm17.22,3.5a9.7,9.7,0,1,1-13.72,0A9.72,9.72,0,0,1,137.91,266.65Z"/><path d="M97.3,179.65a14.65,14.65,0,1,0,14.42,17.12h18.45v-5H111.72A14.66,14.66,0,0,0,97.3,179.65Zm9.7,14.64a9.7,9.7,0,1,1-9.7-9.7A9.72,9.72,0,0,1,107,194.29Z"/><path d="M140.63,109a14.65,14.65,0,1,0-1.91,22.3l13,13.05,3.5-3.5-13-13A14.67,14.67,0,0,0,140.63,109Zm-3.5,17.22a9.7,9.7,0,1,1,0-13.72A9.72,9.72,0,0,1,137.13,126.24Z"/></g><g id="Ebene_4" data-name="Ebene 4"><polyline class="cls-2" points="92.73 320.13 231.63 445.73 455.73 170.63"/></g></svg>