<svg xmlns="http://www.w3.org/2000/svg" viewBox="0 0 491.5 491.5"><defs><style>.cls-1,.cls-2{fill:none;stroke:#000;stroke-linecap:round;stroke-linejoin:round;}.cls-1{stroke-width:6.01px;}.cls-2{stroke-width:4.39px;}</style></defs><g id="Ebene_4" data-name="Ebene 4"><path class="cls-1" d="M363.49,428.75s-27.86,24.88-91.5-9.7S260.7,346.42,159.15,305.51c0,0,73.67-18,114.92,58.34S363.49,428.75,363.49,428.75Z"/><path class="cls-1" d="M257.26,419.91s-14.13,23.45-66.2,13-23.62-48.44-103.61-55.13c0,0,47.73-28.52,93.13,16S257.26,419.91,257.26,419.91Z"/><path class="cls-1" d="M465.4,434.49S426.51,461,352.77,407.28s-2.11-92.54-122.15-160.38c0,0,94.95-10.26,133.86,91.8S465.4,434.49,465.4,434.49Z"/><path class="cls-2" d="M330.94,84.65l34.52,112-102,17.75a498.07,498.07,0,0,0-122.18,38.11L55.43,292.19l-34.51-112L126.79,132a368.71,368.71,0,0,1,88.87-27.41Z"/></g></svg>