<svg xmlns="http://www.w3.org/2000/svg" viewBox="0 0 491.5 491.5"><defs><style>.cls-1{fill:none;}</style></defs><g id="Ebene_4" data-name="Ebene 4"><path d="M352.81,406.19H137.51v-9.55h215.3Zm-212.3-3h209.3v-3.55H140.51Z"/><path d="M477.63,399.64H12.68v-9.56h465Zm-461.95-3h459v-3.56H15.68Z"/><path d="M246.16,269.05c-53.76,0-104.31-.52-142.33-1.46-18.5-.46-33-1-43.18-1.6-5.17-.3-9.15-.62-11.82-.94-3.35-.41-5.41-.75-5.41-2.5s2.06-2.09,5.41-2.5c2.67-.32,6.65-.64,11.82-.95,10.15-.59,24.68-1.13,43.18-1.59,38-.94,88.56-1.46,142.33-1.46s104.32.52,142.33,1.46c18.5.46,33,1,43.18,1.59,5.17.31,9.15.63,11.82.95,3.35.41,5.41.75,5.41,2.5s-2.06,2.09-5.41,2.5c-2.67.32-6.65.64-11.82.94-10.15.6-24.68,1.14-43.18,1.6C350.47,268.53,299.93,269.05,246.16,269.05Zm-192.31-6.5c23.16,1.84,93.75,3.5,192.31,3.5s169.15-1.66,192.31-3.5c-23.16-1.84-93.75-3.5-192.31-3.5S77,260.71,53.85,262.55Z"/><path class="cls-1" d="M181.55,356.88h-1.27v10H312v-10h-1.27A398.45,398.45,0,0,1,246.16,362,398.45,398.45,0,0,1,181.55,356.88Z"/><path class="cls-1" d="M246.16,359a404.91,404.91,0,0,0,41.93-2.16H204.24A404.57,404.57,0,0,0,246.16,359Z"/><path d="M181.92,353.88c-78.72-13.06-135.5-49.42-135.5-92.13h-3c0,27,21.23,52.28,59.78,71.2,21.33,10.47,46.56,18.31,74.08,23.2v-2.27Z"/><path d="M445.9,261.75c0,42.71-56.78,79.07-135.5,92.13H315v2.27c27.52-4.89,52.76-12.73,74.08-23.2,38.55-18.92,59.78-44.21,59.78-71.2Z"/><path d="M204.24,356.88H181.55A398.45,398.45,0,0,0,246.16,362a398.45,398.45,0,0,0,64.61-5.16H288.09A404.91,404.91,0,0,1,246.16,359,404.57,404.57,0,0,1,204.24,356.88Z"/><path d="M312,356.88v10H180.28v-10h1.27l-4.27-.73v13.72H315V356.15l-4.27.73Z"/><path d="M204.24,356.88q-11.42-1.19-22.32-3h-4.64v2.27l4.27.73Z"/><path d="M310.4,353.88q-10.89,1.8-22.31,3h22.68l4.27-.73v-2.27Z"/><path class="cls-1" d="M119.91,216.23h-.37v10h70.21V217a102.7,102.7,0,0,1-69.84-.73Z"/><path class="cls-1" d="M155.83,219.72A99.63,99.63,0,0,0,182,216.23H129.66A99.61,99.61,0,0,0,155.83,219.72Z"/><path d="M189.75,226.22H119.54v-10h.37c-1.13-.42-2.26-.87-3.37-1.33v14.32h76.21V215.85q-1.5.59-3,1.11Z"/><path d="M129.66,216.23h-9.75a102.7,102.7,0,0,0,69.84.73v-.73H182a99.9,99.9,0,0,1-52.35,0Z"/><path d="M258.48,120.07h-3a99.81,99.81,0,0,1-64.27,93.16h1.54v2.62A102.81,102.81,0,0,0,258.48,120.07Z"/><path d="M120.46,213.23a99.8,99.8,0,0,1-64.27-93.16h-3a102.81,102.81,0,0,0,63.35,94.83v-1.67Z"/><path d="M129.66,216.23c-3.13-.85-6.2-1.86-9.2-3h-3.92v1.67c1.11.46,2.24.91,3.37,1.33Z"/><path d="M191.21,213.23c-3,1.14-6.07,2.15-9.2,3h7.74V217q1.5-.53,3-1.11v-2.62Z"/><path d="M155.66,125.72c-27,0-52.37-.43-71.46-1.22-31-1.29-31-2.69-31-4.46s0-3.17,31-4.45c19.09-.79,44.47-1.22,71.46-1.22s52.38.43,71.47,1.22c31,1.28,31,2.68,31,4.45s0,3.17-31,4.46C208,125.29,182.66,125.72,155.66,125.72ZM61.17,120c13,1.42,47.65,2.68,94.49,2.68s81.45-1.26,94.49-2.68c-13-1.42-47.65-2.67-94.49-2.67S74.22,118.62,61.17,120Z"/><path d="M386.12,229.22H331.67L311.53,114.37H407Zm-51.93-3h49.42l19.8-108.85H315.1Z"/></g></svg>