<svg xmlns="http://www.w3.org/2000/svg" viewBox="0 0 491.5 491.5"><g id="Ebene_2" data-name="Ebene 2"><path d="M235.66,447c-2.16-85.31-1.78-213.08,8.15-217.3,14-5.94,18.45-12,19.23-13.21A82.46,82.46,0,0,0,307,116.41,256.37,256.37,0,0,1,300.14,90L287.63,30.12H168.13l-13,65.75a201.65,201.65,0,0,1-5.26,21.21,82.45,82.45,0,0,0-3.74,25.49c.35,32.4,19.92,60.61,47.72,73.7v0c.16.28,4.11,6.93,19.37,13.42,9.93,4.22,10.31,132,8.14,217.3-9.63.13-67.93,1.28-67.93,10.4,0,8.27,49.1,10.45,75.06,10.45s75.07-2.18,75.07-10.45C303.6,448.3,245.3,447.15,235.66,447ZM156.5,457.2l.07-.06a1,1,0,0,1,.18-.18.5.5,0,0,0,.12-.08l.26-.17.18-.09a2,2,0,0,1,.33-.17l.24-.11.39-.16.32-.12c.14-.05.28-.11.45-.16l.37-.12.52-.17.44-.12.57-.17.55-.14.59-.15.68-.16.59-.14.78-.16.61-.13.87-.18.64-.12.95-.17.69-.13,1-.17.73-.12,1.15-.18.73-.11,1.25-.18.75-.11,1.37-.18.75-.1,1.44-.18.81-.1,1.55-.17.81-.09,1.64-.18.84-.08,1.69-.16.92-.09,1.78-.16.93-.08,1.86-.14,1-.08,1.86-.13,1.1-.08,1.89-.12,1.19-.08,1.93-.1,1.26-.07,2-.1,1.29-.06c.68,0,1.37-.06,2.06-.09l1.36-.06,2.08-.07,1.46-.05,2.09-.06,1.55,0,2.08-.05,1.7,0,2.06,0,1.46,0-.1,3.75.41.43a10.73,10.73,0,0,0,7.12,3.22,9.1,9.1,0,0,0,6.68-3.21l.42-.44-.11-3.75,1.46,0,2.07,0,1.69,0,2.08.05,1.55,0,2.1.06,1.45.05,2.09.07,1.36.06,2,.08,1.3.07,2,.1,1.18.06,2,.12,1.09.06,2,.13,1,.07,1.93.14,1,.08,1.86.14.9.08,1.82.16.83.08,1.77.17.8.08,1.69.18.73.08,1.63.18.71.09,1.53.19.67.08,1.46.2.63.09,1.36.19.64.1,1.25.2.59.09,1.16.2.59.1,1.05.19.57.12.94.18.54.12.85.18.53.12.74.17.51.13.63.16.47.14.54.15.46.15.43.14.42.15.35.12.37.16.26.11.32.16.19.1a2.49,2.49,0,0,1,.24.17l.14.08.18.18.06.06a.73.73,0,0,1,.12.23c-.5,2.15-22.69,7.54-72.15,7.54s-71.64-5.39-72.14-7.52A.53.53,0,0,1,156.5,457.2ZM242.67,227c-2.8,1.19-10.25,4.36-10.94,116.1-.28,43.63.61,86.64,1,103.86h0l0,.61v.14l0,.7h0v0h0l0,1.07v.38h0l.06,2.63a6,6,0,0,1-4.14,1.88,7.58,7.58,0,0,1-4.58-1.92l.07-2.59h0v-.57l0-.88h0v0h0l0-.7V447h0c.42-17.25,1.3-60.34,1-103.86-.69-111.74-8.14-114.91-10.94-116.1a57.47,57.47,0,0,1-13.83-7.95,81,81,0,0,0,26.84,5h1.13a82.28,82.28,0,0,0,27.66-4.74A57.73,57.73,0,0,1,242.67,227Zm-90-109.09A204.82,204.82,0,0,0,158,96.43L170.51,33H285.28l12,57.57a258.69,258.69,0,0,0,6.89,26.71q.42,1.3.78,2.61c.07,1.45.29,12.95-7.92,21.81-6.58,7.1-16.82,10.72-30.43,10.75h-.24c-22.38,0-30.19-7.88-38.44-16.22-8.1-8.18-16.47-16.64-38.39-18-14.09-.9-25.13,2.1-32.81,8.93a31.17,31.17,0,0,0-7.57,10.22A79.29,79.29,0,0,1,152.66,117.94Zm-3.38,29.54a29.38,29.38,0,0,1,9.42-18.22c7.09-6.27,17.41-9,30.67-8.18,20.83,1.33,28.81,9.39,36.52,17.19,8.31,8.4,16.91,17.08,40.51,17.08h.24c14.45,0,25.4-4,32.55-11.68A32.7,32.7,0,0,0,307,128.73,79.74,79.74,0,0,1,308,141.67a79.58,79.58,0,0,1-47,72.57h0a79.52,79.52,0,0,1-33.56,6.91C186.34,220.6,152.27,188,149.28,147.48Z"/></g></svg>