<svg xmlns="http://www.w3.org/2000/svg" viewBox="0 0 491.5 491.5"><g id="Ebene_3" data-name="Ebene 3"><path d="M292.5,375.76H140.44V115.68a28.83,28.83,0,0,0-28.83-28.83h0a28.82,28.82,0,0,0-28.82,28.83V433.41H292.5a28.83,28.83,0,0,0,0-57.65Z"/><path d="M364.93,316.3A66.92,66.92,0,0,0,309.75,288h-.39c-19.25.1-35.66-4.49-49.11-13.69,4.05-3.2,12.4-9.93,20.58-17.35,21.4-19.43,23.28-26.76,22.83-30.59a6.65,6.65,0,0,0-4.12-5.38c-7.31-3.25-19.24,2.48-36.49,17.55-8.52,7.45-16.21,15.36-20,19.43a92.52,92.52,0,0,1-6.68-9.83,112.43,112.43,0,0,1-14.06-40.76,122.84,122.84,0,0,0-6-30c-7.07-20.37-18.87-30.74-34.21-30C147.18,149,145.43,177.49,145.34,180a276.49,276.49,0,0,0,2.75,58.74c4.55,30.06,16.25,71.87,46.2,100.36,23.18,22,53.8,33.16,91.26,33.16a218.11,218.11,0,0,0,29.27-2.07c31.91-4.33,50.16-12.66,55.79-25.45C374.23,336.5,372.32,326.94,364.93,316.3ZM297.1,226.44c.56.25.58.42.6.6.72,6.13-21.23,27.14-42.42,43.52a77.17,77.17,0,0,1-8.4-8C263.45,244.66,288.75,222.73,297.1,226.44Zm68,115.88c-4.59,10.43-22.26,18-51.11,21.92-49.11,6.66-88-3.25-115.57-29.47C182.61,319.71,162.05,290.69,154,238a274.8,274.8,0,0,1-2.71-57.56v-.24c0-1,.52-25.39,31-26.85.4,0,.8,0,1.2,0,11.94,0,21,8.71,27,25.92a119.44,119.44,0,0,1,5.72,28.51v.13A116,116,0,0,0,231.05,251c11.56,19.65,34.4,43,77.67,43h1A60.92,60.92,0,0,1,360,319.72C366.12,328.53,367.84,336.13,365.12,342.32Z"/></g></svg>