<?xml version="1.0" encoding="UTF-8"?>
<!DOCTYPE svg PUBLIC "-//W3C//DTD SVG 1.1//EN" "http://www.w3.org/Graphics/SVG/1.1/DTD/svg11.dtd">
<!-- Creator: CorelDRAW -->
<svg xmlns="http://www.w3.org/2000/svg" xml:space="preserve" width="6.82666in" height="6.82666in" style="shape-rendering:geometricPrecision; text-rendering:geometricPrecision; image-rendering:optimizeQuality; fill-rule:evenodd; clip-rule:evenodd"
viewBox="0 0 6.82666 6.82666"
 xmlns:xlink="http://www.w3.org/1999/xlink">
 <defs>
  <style type="text/css">
   <![CDATA[
    .fil1 {fill:none}
    .fil0 {fill:black;fill-rule:nonzero}
   ]]>
  </style>
 </defs>
 <g id="Layer_x0020_1">
  <metadata id="CorelCorpID_0Corel-Layer"/>
  <g id="_171512440">
   <path id="_171527560" class="fil0" d="M2.57939 1.47498l-1.61939 -0.354051 0 4.23367c0.254799,0.0719764 0.659437,0.154224 1.06407,0.236465 0.194016,0.0394291 0.388024,0.0788701 0.555311,0.114791l0 -4.23088zm-1.66134 -0.472307l1.72369 0.376854c0.0251654,0.00427953 0.0443268,0.026189 0.0443268,0.0525709l0 4.33899c5.90551e-005,0.00402756 -0.000334646,0.00812205 -0.00123228,0.0122244 -0.0062874,0.0287717 -0.0347205,0.047 -0.0634921,0.0407126l1.1811e-005 -4.72441e-005c-0.202709,-0.0443189 -0.410417,-0.0865394 -0.618102,-0.128748 -0.42687,-0.0867598 -0.853732,-0.173524 -1.10783,-0.248539 -0.0240472,-0.00516929 -0.0420748,-0.0265512 -0.0420748,-0.0521417l0 -4.33899c-5.90551e-005,-0.00402756 0.000334646,-0.00812205 0.00123228,-0.0122244 0.0062874,-0.0287717 0.0347205,-0.047 0.0634921,-0.0407126l-1.1811e-005 4.72441e-005z"/>
   <path id="_171512920" class="fil0" d="M2.62934 1.37888l3.28458 -0.377059 -7.87402e-006 -7.08661e-005c0.0292598,-0.00335827 0.0557087,0.0176417 0.0590669,0.0469016 0.00023622,0.00204724 0.00034252,0.0040748 0.000346457,0.00608268l3.93701e-006 0 0 0.000712598 0 4.33911c0,0.0282795 -0.0220157,0.0514173 -0.0498386,0.0532165 -0.484406,0.0752244 -1.29526,0.161764 -2.10614,0.248299 -0.403902,0.0431024 -0.807811,0.0862087 -1.17856,0.128772l7.87402e-006 7.08661e-005c-0.0292598,0.00335827 -0.0557087,-0.0176417 -0.0590669,-0.0469016 -0.00023622,-0.00204724 -0.00034252,-0.0040748 -0.000346457,-0.00608268l-3.93701e-006 0 0 -0.000712598 0 -4.33911c0,-0.0283189 0.0220787,-0.0514803 0.0499567,-0.0532244zm3.23732 -0.264413l-3.18061 0.365126 0 4.23263c0.345134,-0.0392874 0.732594,-0.0806417 1.12005,-0.121988 0.788878,-0.084189 1.57777,-0.168378 2.06056,-0.241248l0 -4.23452z"/>
   <path id="_171524272" class="fil0" d="M4.28659 2.4587c0.128067,0 0.244024,0.0519213 0.327953,0.13585 0.0839291,0.0839291 0.13585,0.199886 0.13585,0.327957 0,0.128067 -0.0519213,0.244024 -0.13585,0.327953 -0.0839291,0.0839291 -0.199886,0.13585 -0.327953,0.13585 -0.128067,0 -0.244024,-0.0519213 -0.327953,-0.13585 -0.0839291,-0.0839291 -0.13585,-0.199886 -0.13585,-0.327953 0,-0.128071 0.0519213,-0.244028 0.13585,-0.327957 0.0839291,-0.0839291 0.199886,-0.13585 0.327953,-0.13585zm0.252535 0.211268c-0.064622,-0.064622 -0.153913,-0.104598 -0.252535,-0.104598 -0.098622,0 -0.187913,0.0399764 -0.252535,0.104598 -0.064622,0.064622 -0.104598,0.153913 -0.104598,0.252539 0,0.098622 0.0399764,0.187913 0.104598,0.252535 0.064622,0.064622 0.153913,0.104598 0.252535,0.104598 0.098622,0 0.187913,-0.0399764 0.252535,-0.104598 0.064622,-0.064622 0.104598,-0.153913 0.104598,-0.252535 0,-0.098626 -0.0399764,-0.187917 -0.104598,-0.252539z"/>
   <path id="_171517240" class="fil0" d="M4.28659 2.03827c0.256268,0 0.488291,0.103886 0.656232,0.271831 0.167949,0.167949 0.271831,0.399965 0.271831,0.656236 0,0.213866 -0.0949252,0.48439 -0.232409,0.762386 -0.183882,0.371815 -0.444268,0.758744 -0.652945,1.0382l-0.0427087 0.0571929 -0.0427087 -0.0571929c-0.208677,-0.279457 -0.469071,-0.666398 -0.652949,-1.03821 -0.137484,-0.277996 -0.232409,-0.548516 -0.232409,-0.762378 0,-0.256272 0.103882,-0.488287 0.271831,-0.656236 0.167949,-0.167949 0.399965,-0.271831 0.656236,-0.271831zm0.580815 0.347248c-0.148634,-0.148638 -0.353992,-0.240579 -0.580815,-0.240579 -0.226827,0 -0.432181,0.0919409 -0.580819,0.240579 -0.148638,0.148638 -0.240579,0.353992 -0.240579,0.580819 0,0.196067 0.0903268,0.450756 0.221157,0.715291 0.167953,0.339606 0.402331,0.693823 0.60024,0.963811 0.197906,-0.269988 0.432283,-0.624197 0.600236,-0.963803 0.130831,-0.264535 0.221157,-0.519228 0.221157,-0.715299 0,-0.226827 -0.0919409,-0.432181 -0.240579,-0.580819z"/>
  </g>
 </g>
 <rect class="fil1" width="6.82666" height="6.82666"/>
</svg>
