<?xml version="1.0" encoding="UTF-8"?>
<!DOCTYPE svg PUBLIC "-//W3C//DTD SVG 1.1//EN" "http://www.w3.org/Graphics/SVG/1.1/DTD/svg11.dtd">
<!-- Creator: CorelDRAW -->
<svg xmlns="http://www.w3.org/2000/svg" xml:space="preserve" width="6.82666in" height="6.82666in" style="shape-rendering:geometricPrecision; text-rendering:geometricPrecision; image-rendering:optimizeQuality; fill-rule:evenodd; clip-rule:evenodd"
viewBox="0 0 6.82666 6.82666"
 xmlns:xlink="http://www.w3.org/1999/xlink">
 <defs>
  <style type="text/css">
   <![CDATA[
    .fil1 {fill:none}
    .fil0 {fill:black;fill-rule:nonzero}
   ]]>
  </style>
 </defs>
 <g id="Layer_x0020_1">
  <metadata id="CorelCorpID_0Corel-Layer"/>
  <g id="_172565744">
   <path id="_172566416" class="fil0" d="M3.41411 2.33969c0.361122,0 0.689378,0.147697 0.927323,0.385642 0.237945,0.237945 0.385642,0.566201 0.385642,0.927323l0 2.26734c0,0.0294528 -0.0238819,0.0533346 -0.0533346,0.0533346l-2.51926 0c-0.0294528,0 -0.0533346,-0.0238819 -0.0533346,-0.0533346l0 -2.26734c0,-0.361122 0.147697,-0.689378 0.385642,-0.927323 0.237945,-0.237945 0.566201,-0.385642 0.927323,-0.385642zm0.851906 0.461059c-0.218661,-0.218661 -0.520228,-0.35439 -0.851906,-0.35439 -0.331677,0 -0.633244,0.135728 -0.851906,0.35439 -0.218661,0.218661 -0.35439,0.520228 -0.35439,0.851906l0 2.21401 2.41259 0 0 -2.21401c0,-0.331677 -0.135728,-0.633244 -0.35439,-0.851906z"/>
   <path id="_172566344" class="fil0" d="M4.65905 4.71513c-0.0121496,-0.00309449 -0.0412756,-0.0112402 -0.0777165,-0.0214252 -0.086063,-0.0240512 -0.217957,-0.0609173 -0.352795,-0.0905827 -0.0852087,-0.0187441 -0.167028,-0.033748 -0.234213,-0.0442559 -0.0802402,-0.0125512 -0.141142,-0.0193583 -0.163028,-0.0188307 -0.0145039,0.000350394 -0.0619685,0.00689764 -0.125547,0.0186732 -0.0472165,0.00874016 -0.103248,0.0205433 -0.161165,0.0351299 -0.0810276,0.0204055 -0.16148,0.0453465 -0.22365,0.0646181 -0.0444291,0.0137717 -0.0800118,0.0248031 -0.100602,0.0296535 -0.0604173,0.0142402 -0.103283,0.0218976 -0.137201,0.0261417 -0.0331654,0.00414567 -0.0590906,0.00496063 -0.0848268,0.00553543 -0.0253819,0.000570866 -0.0510197,0.000917323 -0.0846102,-0.00170472 -0.0337165,-0.00262992 -0.0768425,-0.00825591 -0.138374,-0.0196417 -0.0647835,-0.0119843 -0.126406,-0.0281732 -0.187941,-0.0443386 -0.0439764,-0.0115512 -0.0879252,-0.0230984 -0.128366,-0.0321063 -0.0439843,-0.00979528 -0.0887913,-0.0179764 -0.13363,-0.0261575 -0.0631299,-0.0115197 -0.126366,-0.023063 -0.185591,-0.0381575l0.026252 -0.103331c0.0608465,0.0155079 0.119516,0.0262165 0.178087,0.0369055 0.046,0.0083937 0.0919646,0.0167835 0.137795,0.0269921 0.0469882,0.0104646 0.089752,0.0217008 0.132539,0.0329409 0.0602205,0.0158228 0.120531,0.0316654 0.18002,0.0426693 0.0560276,0.0103661 0.0957402,0.0155276 0.127122,0.0179724 0.0314961,0.00246063 0.0532717,0.00218504 0.0746102,0.00170472 0.0209803,-0.000468504 0.0424252,-0.00117323 0.074,-0.00511811 0.0308228,-0.00385433 0.0701024,-0.0108937 0.125949,-0.0240551 0.019,-0.00447638 0.0521417,-0.014752 0.0935157,-0.0275748 0.0643976,-0.0199606 0.147732,-0.0457953 0.229067,-0.0662795 0.0581024,-0.0146299 0.116921,-0.0269567 0.167835,-0.0363819 0.0687205,-0.0127283 0.12322,-0.0198858 0.142217,-0.0203425 0.0273976,-0.00065748 0.0955276,0.00659055 0.181776,0.0200827 0.0730118,0.0114173 0.15798,0.0268543 0.240874,0.0450906 0.132224,0.0290866 0.268984,0.067315 0.358213,0.092252 0.029626,0.00827953 0.0533268,0.0149094 0.0756378,0.0205906l-0.026252 0.103331z"/>
   <path id="_172566272" class="fil0" d="M2.68352 4.88864c0.0691378,0 0.13174,0.0280315 0.177047,0.0733425 0.045311,0.0453071 0.0733425,0.107909 0.0733425,0.177043 0,0.0691417 -0.0280315,0.13174 -0.0733425,0.177047 -0.045315,0.045315 -0.107913,0.0733425 -0.177047,0.0733425 -0.0691339,0 -0.131736,-0.0280315 -0.177043,-0.0733425 -0.045315,-0.045315 -0.0733425,-0.107913 -0.0733425,-0.177047 0,-0.0691339 0.0280315,-0.131736 0.0733425,-0.177043 0.0453071,-0.045311 0.107909,-0.0733425 0.177043,-0.0733425zm0.10163 0.14876c-0.026,-0.0260039 -0.061937,-0.0420906 -0.10163,-0.0420906 -0.039689,0 -0.075626,0.0160866 -0.101626,0.0420906 -0.0260039,0.026 -0.0420906,0.061937 -0.0420906,0.101626 0,0.039689 0.0160866,0.075626 0.0420906,0.10163 0.026,0.0260039 0.061937,0.0420906 0.101626,0.0420906 0.039689,0 0.075626,-0.0160866 0.10163,-0.0420906 0.0260039,-0.026 0.0420906,-0.061937 0.0420906,-0.10163 0,-0.039689 -0.0160866,-0.075626 -0.0420906,-0.101626z"/>
   <path id="_172566200" class="fil0" d="M2.97233 2.45161c0,0.0294528 0.0238819,0.0533346 0.0533346,0.0533346 0.0294528,0 0.0533346,-0.0238819 0.0533346,-0.0533346l0 -0.812567 0.338272 0 0.331937 0 0 0.792886c0,0.0294528 0.0238819,0.0533346 0.0533346,0.0533346 0.0294528,0 0.0533346,-0.0238819 0.0533346,-0.0533346l0 -0.84622c0,-0.0294528 -0.0238819,-0.0533346 -0.0533346,-0.0533346l-0.385272 0 -0.391606 0c-0.0294528,0 -0.0533346,0.0238819 -0.0533346,0.0533346l0 0.865902z"/>
   <polygon id="_172566128" class="fil0" points="3.33241,1.57626 3.33241,0.906661 3.43866,0.906661 3.43867,1.57626 "/>
   <path id="_172566056" class="fil0" d="M2.65833 0.853327c-0.0294528,0 -0.0533346,0.0238819 -0.0533346,0.0533346 0,0.0294528 0.0238819,0.0533346 0.0533346,0.0533346l1.69101 0 0.286681 0.286689c0.0208228,0.0208228 0.0545945,0.0208228 0.0754173,0 0.0208228,-0.0208228 0.0208228,-0.0545945 0,-0.0754173l-0.302004 -0.302012c-0.00967323,-0.00983071 -0.0231299,-0.0159291 -0.0380118,-0.0159291l-1.71309 0z"/>
   <path id="_172565984" class="fil0" d="M3.56526 5.0664c-0.0132402,0 -0.0250984,0.00523228 -0.0335433,0.0136811l0 0.000208661c-0.00857874,0.00857874 -0.0138898,0.0204409 -0.0138898,0.0335433 0,0.0131024 0.00531102,0.0249685 0.0138898,0.0335472l0 0.000208661c0.00844488,0.00844882 0.0203031,0.0136811 0.0335433,0.0136811 0.0132402,0 0.0250945,-0.00522835 0.0335433,-0.0136811l0 -0.000208661c0.00857874,-0.00857874 0.0138898,-0.0204449 0.0138898,-0.0335472 0,-0.0131024 -0.00531102,-0.0249646 -0.0138898,-0.0335433l0 -0.000208661c-0.00844882,-0.00845276 -0.0203031,-0.0136811 -0.0335433,-0.0136811zm-0.108854 -0.0614213c0.0279961,-0.0279567 0.0664961,-0.045248 0.108854,-0.045248 0.0423583,0 0.0808583,0.0172913 0.108854,0.045248l0.000106299 -0.000106299c0.0278858,0.0278858 0.0451417,0.0664134 0.0451417,0.108961 0,0.0425472 -0.0172559,0.0810787 -0.0451417,0.108965l-0.000106299 -0.000106299c-0.0279961,0.0279567 -0.0664961,0.045248 -0.108854,0.045248 -0.0423583,0 -0.0808583,-0.0172913 -0.108854,-0.045248l-0.000106299 0.000106299c-0.0278858,-0.0278858 -0.0451417,-0.0664173 -0.0451417,-0.108965 0,-0.0425472 0.0172559,-0.0810748 0.0451417,-0.108961l0.000106299 0.000106299z"/>
   <path id="_172565912" class="fil0" d="M3.96834 5.46948c-0.0131024,0 -0.0249646,0.00531102 -0.0335433,0.0138898l-0.000208661 0c-0.00844882,0.00844488 -0.0136811,0.0203031 -0.0136811,0.0335433 0,0.0132402 0.00522835,0.0250945 0.0136811,0.0335433l0.000208661 0c0.00857874,0.00857874 0.0204409,0.0138898 0.0335433,0.0138898 0.0131024,0 0.0249685,-0.00531102 0.0335472,-0.0138898l0.000208661 0c0.00845276,-0.00844882 0.0136811,-0.0203031 0.0136811,-0.0335433 0,-0.0132402 -0.00523228,-0.0250984 -0.0136811,-0.0335433l-0.000208661 0c-0.00857874,-0.00857874 -0.0204449,-0.0138898 -0.0335472,-0.0138898zm-0.108854 -0.0614213l-0.000106299 -0.000106299c0.0278858,-0.0278858 0.0664134,-0.0451417 0.108961,-0.0451417 0.0425472,0 0.0810787,0.0172559 0.108965,0.0451417l-0.000106299 0.000106299c0.0279567,0.0279961 0.045248,0.0664961 0.045248,0.108854 0,0.0423583 -0.0172913,0.0808583 -0.045248,0.108854l0.000106299 0.000106299c-0.0278858,0.0278858 -0.0664173,0.0451417 -0.108965,0.0451417 -0.0425472,0 -0.0810748,-0.0172559 -0.108961,-0.0451417l0.000106299 -0.000106299c-0.0279567,-0.0279961 -0.045248,-0.0664961 -0.045248,-0.108854 0,-0.0423583 0.0172913,-0.0808583 0.045248,-0.108854z"/>
   <path id="_172565840" class="fil0" d="M4.06911 4.96563c-0.0131024,0 -0.0249685,0.00531102 -0.0335472,0.0138898l-0.000208661 0c-0.00844882,0.00844488 -0.0136811,0.0203031 -0.0136811,0.0335433 0,0.0131024 0.00531102,0.0249685 0.0138898,0.0335472 0.00857874,0.00857874 0.0204449,0.0138898 0.0335472,0.0138898 0.0132402,0 0.0250945,-0.00522835 0.0335433,-0.0136811l0 -0.000208661c0.00857874,-0.00857874 0.0138898,-0.0204449 0.0138898,-0.0335472 0,-0.0131024 -0.00531102,-0.0249685 -0.0138858,-0.0335433 -0.00857874,-0.00857874 -0.0204449,-0.0138898 -0.0335472,-0.0138898zm-0.108858 -0.0614213l-0.000106299 -0.000106299c0.0278858,-0.0278858 0.0664173,-0.0451417 0.108965,-0.0451417 0.0425472,0 0.0810787,0.0172559 0.108965,0.0451417 0.0278819,0.0278819 0.0451378,0.0664134 0.0451378,0.108961 0,0.0425472 -0.0172559,0.0810787 -0.0451417,0.108965l-0.000106299 -0.000106299c-0.0279961,0.0279567 -0.0664961,0.045248 -0.108854,0.045248 -0.0425472,0 -0.0810787,-0.0172559 -0.108965,-0.0451417 -0.0278858,-0.0278858 -0.0451417,-0.0664173 -0.0451417,-0.108965 0,-0.0423583 0.0172913,-0.0808583 0.045248,-0.108854z"/>
   <path id="_172565792" class="fil0" d="M3.16219 5.57025c-0.0131024,0 -0.0249685,0.00531102 -0.0335472,0.0138898 -0.00857874,0.00857874 -0.0138898,0.0204409 -0.0138898,0.0335433 0,0.0131024 0.00531102,0.0249685 0.0138898,0.0335472 0.00857874,0.00857874 0.0204449,0.0138898 0.0335472,0.0138898 0.0131024,0 0.0249646,-0.00531102 0.0335433,-0.0138898 0.00857874,-0.00857874 0.0138898,-0.0204449 0.0138898,-0.0335472 0,-0.0130984 -0.00531102,-0.0249646 -0.0138898,-0.0335433 -0.00857874,-0.00857874 -0.0204449,-0.0138898 -0.0335433,-0.0138898zm-0.108965 -0.0615276c0.0278858,-0.0278858 0.0664173,-0.0451417 0.108965,-0.0451417 0.0425433,0 0.0810748,0.0172559 0.108961,0.0451417 0.0278858,0.0278858 0.0451417,0.0664173 0.0451417,0.108961 0,0.0425472 -0.0172559,0.0810787 -0.0451417,0.108965 -0.0278858,0.0278858 -0.0664134,0.0451417 -0.108961,0.0451417 -0.0425472,0 -0.0810787,-0.0172559 -0.108965,-0.0451417 -0.0278858,-0.0278858 -0.0451417,-0.0664173 -0.0451417,-0.108965 0,-0.0425472 0.0172559,-0.0810748 0.0451417,-0.108961z"/>
  </g>
 </g>
 <rect class="fil1" width="6.82666" height="6.82666"/>
</svg>
