<?xml version="1.0" encoding="utf-8"?>
<!-- Generator: Adobe Illustrator 25.0.0, SVG Export Plug-In . SVG Version: 6.00 Build 0)  -->
<svg version="1.1" id="Ebene_1" xmlns="http://www.w3.org/2000/svg" xmlns:xlink="http://www.w3.org/1999/xlink" x="0px" y="0px"
	 viewBox="0 0 491.5 491.5" style="enable-background:new 0 0 491.5 491.5;" xml:space="preserve">
<style type="text/css">
	.st0{fill:none;}
</style>
<g id="Layer_x0020_1">
	<g id="_172564928">
		<path id="_172565240" d="M430.1,159.6v173.1c0,15.4-27.6,25-63,29.1c-13.3,1.5-27.7,2.3-42,2.3c-14.3,0-28.7-0.8-42-2.3
			c-35.4-4.1-63-13.7-63-29.1V159.6h7.7v173.1c0,12.2,24.8,20.2,56.6,23.9c12.8,1.5,26.7,2.2,40.7,2.2c14,0,27.9-0.7,40.7-2.2
			c31.7-3.7,56.6-11.7,56.6-23.9V159.6C422.4,159.6,430.1,159.6,430.1,159.6z"/>
		<path id="_172565168" d="M325.1,127.4c28.4,0,54.1,2.9,72.8,7.6c19.9,5,32.2,12.2,32.2,20.5c0,8.3-12.3,15.5-32.2,20.5
			c-18.7,4.7-44.5,7.6-72.8,7.6c-28.4,0-54.1-2.9-72.8-7.6c-19.9-5-32.2-12.2-32.2-20.5c0-8.3,12.3-15.5,32.2-20.5
			C271,130.3,296.8,127.4,325.1,127.4L325.1,127.4z M395.3,140c-17.9-4.5-42.7-7.3-70.2-7.3c-27.5,0-52.3,2.8-70.2,7.3
			c-16.7,4.2-27.1,9.7-27.1,15.5c0,5.8,10.3,11.3,27.1,15.5c17.9,4.5,42.7,7.3,70.2,7.3c27.5,0,52.3-2.8,70.2-7.3
			c16.7-4.2,27.1-9.7,27.1-15.5S412.1,144.2,395.3,140L395.3,140z"/>
		<polygon id="_172565096" points="226.3,342.2 65.3,342.2 61.4,342.2 61.4,339.6 61.4,159.6 61.4,157 65.3,157 224,157 224,162.3 
			69.1,162.3 69.1,336.9 226.3,336.9 		"/>
		<path id="_172565024" d="M192.2,184.9h-7.7v-10.6h7.7V184.9z M192.2,324.9v-7.3h-7.7v7.3H192.2z M192.2,312.3h-7.7v-10.6h7.7
			V312.3z M192.2,296.4h-7.7v-10.6h7.7V296.4z M192.2,280.5h-7.7v-10.6h7.7V280.5z M192.2,264.5h-7.7v-10.6h7.7V264.5z M192.2,248.6
			h-7.7V238h7.7V248.6z M192.2,232.7h-7.7V222h7.7V232.7z M192.2,216.7h-7.7v-10.6h7.7V216.7z M192.2,200.8h-7.7v-10.6h7.7V200.8z"
			/>
		<path id="_172564976" d="M325.1,144c10.2,0,19.5,1.1,26.3,2.8c8,2,12.9,5.1,12.9,8.8c0,3.7-4.9,6.8-12.9,8.8
			c-6.8,1.7-16.1,2.8-26.3,2.8c-10.2,0-19.5-1.1-26.3-2.8c-8-2-12.9-5.1-12.9-8.8c0-3.7,4.9-6.8,12.9-8.8
			C305.6,145.1,314.9,144,325.1,144z M348.8,151.7c-6-1.5-14.4-2.4-23.7-2.4c-9.3,0-17.7,0.9-23.7,2.4c-4.8,1.2-7.8,2.6-7.8,3.8
			c0,1.2,3,2.6,7.8,3.8c6,1.5,14.4,2.4,23.7,2.4c9.3,0,17.7-0.9,23.7-2.4c4.8-1.2,7.8-2.6,7.8-3.8
			C356.6,154.3,353.6,153,348.8,151.7z"/>
	</g>
</g>
<rect class="st0" width="491.5" height="491.5"/>
</svg>
