<?xml version="1.0" encoding="utf-8"?>
<!-- Generator: Adobe Illustrator 25.0.0, SVG Export Plug-In . SVG Version: 6.00 Build 0)  -->
<svg version="1.1" xmlns="http://www.w3.org/2000/svg" xmlns:xlink="http://www.w3.org/1999/xlink" x="0px" y="0px"
	 viewBox="0 0 503.6 503.6" style="enable-background:new 0 0 503.6 503.6;" xml:space="preserve">
<style type="text/css">
	.st0{fill:none;stroke:#000000;stroke-width:7.4015;stroke-linecap:round;stroke-linejoin:round;stroke-miterlimit:10;}
	.st1{fill:none;stroke:#000000;stroke-width:5.721;stroke-linecap:round;stroke-linejoin:round;stroke-miterlimit:10;}
	.st2{fill:none;stroke:#000000;stroke-width:5.7898;stroke-linecap:round;stroke-linejoin:round;stroke-miterlimit:10;}
	.st3{fill:none;stroke:#000000;stroke-width:7;stroke-linecap:round;stroke-linejoin:round;stroke-miterlimit:10;}
	.st4{fill:none;stroke:#000000;stroke-width:6;stroke-linecap:round;stroke-linejoin:round;stroke-miterlimit:10;}
	.st5{opacity:0.19;}
</style>
<g id="New_icon">
	<path class="st0" d="M429.2,97.4"/>
	<path class="st0" d="M71.2,103.8"/>
	<path class="st0" d="M429.2,275"/>
	<path class="st0" d="M71.2,281.4"/>
	<path class="st1" d="M363.3,241.3v183.3c0,6.6-5.4,12-12,12H185.4c-6.6,0-12-5.4-12-12V241.3"/>
	<path class="st1" d="M173.4,241.3c0,0,0.6-30.1,17.2-53.1c29.1-40.3,105.7-61.4,157.1,3.1c11.4,14.4,15.5,29.7,15.5,50"/>
	<polyline class="st1" points="224.1,158.1 224.1,111.5 312.8,111.5 312.8,158.1 	"/>
	<path class="st2" d="M245.4,93.2c0-11.8,10.3-21.4,23-21.4c12.7,0,23,9.6,23,21.4c0,11.8-10.3,18.4-23,18.4
		C255.7,111.5,245.4,105,245.4,93.2z"/>
	<path class="st3" d="M288.7,79.9c0-6.9,28-12.6,62.5-12.6"/>
	<path class="st3" d="M291.3,88.1c0-2.1,36.4-5.2,51.6,15.7"/>
	<polygon class="st2" points="114.3,409.4 53.5,417.5 53.5,377.4 114.3,384.8 	"/>
	<path class="st4" d="M140.8-13.9"/>
	<path class="st3" d="M242.9,86.6c-93.5,0.2-107.5,49-106.8,111.8"/>
	<path class="st3" d="M116.9,397.4c14.6,1.1,20.9-24.5,19.2-63.3c-1.3-51.5,0-114.6-0.2-138.4"/>
	<line class="st4" x1="136.3" y1="314.1" x2="171.9" y2="314.1"/>
	<line class="st4" x1="175" y1="377.4" x2="360.9" y2="377.4"/>
	<line class="st4" x1="175.4" y1="404.7" x2="361.3" y2="404.7"/>
	<line class="st4" x1="136.3" y1="281.4" x2="171.9" y2="281.4"/>
	<line class="st4" x1="241.8" y1="209.6" x2="295.4" y2="209.6"/>
	<line class="st4" x1="226.8" y1="235.6" x2="310.2" y2="235.6"/>
	<line class="st4" x1="268.5" y1="308.9" x2="268.6" y2="271.3"/>
	<ellipse class="st4" cx="268.9" cy="333.2" rx="4.5" ry="3.1"/>
</g>
<g id="Template_1_">
	<g transform="translate(1 1)" class="st5">
		<g>
			<g>
				<path d="M319.2,156v-44.7c0-3.9-3-6.5-7.4-6.5H293c2.5-3.8,3.9-8.1,4-12.8c17.3,1,37,5.4,37,12.8c0,3.9,3,6.5,7.4,6.5
					c4.4,0,7.4-2.6,7.4-6.5c0-19.6-32.9-24.5-50.3-25.6c3.8-2.1,16.1-6.8,50.3-6.8c4.4,0,7.4-2.6,7.4-6.5s-3-6.5-7.4-6.5
					c-40.7,0-56.8,6.3-62.9,12.2c-5.1-3.5-11.4-5.7-18.4-5.7c-10.8,0-20.4,5.2-25.5,12.9c-13-0.2-53.6,1.1-83.2,24.8
					c-21.4,16.9-31.8,41.5-31.8,72.7V280v32.4v38.9v0.6c0.7,6.5,1.5,27.2-6.7,35c-0.2,0.3-0.5,0.5-0.7,0.8v-4c0-3.2-3-5.8-6.7-6.5
					l-59.1-6.5c-2.2-0.6-4.4,0-5.9,1.3s-2.2,3.2-2.2,5.2v38.9c0,1.9,0.7,3.9,2.2,5.2c1.5,0.6,3.7,1.3,5.2,1.3h0.7l59.1-6.5
					c3.7-0.6,6.7-3.2,6.7-6.5v-7.4c4.4-1.2,8.4-3.5,11.8-6.8c13.3-13,11.1-40.2,10.3-44.8v-31.8H164v58.4v25.9v19.5
					c0,10.4,9.6,19.5,22.2,19.5h162.6c12.6,0,22.2-9.1,22.2-19.5v-19.5v-26V234.6C370.9,201.1,350.1,171.8,319.2,156z M104.8,403.3
					l-44.3,5.2v-24l44.3,4.5V403.3z M356.1,234.6v136.2H178.8v-58.4V280v-45.4c0-29.4,18.8-55.1,46.3-68.3c0.3-0.1,0.6-0.2,1-0.4
					c25.9-11.7,56.2-11.7,82,0c0.8,0.4,1.4,0.5,2,0.6C337.5,179.7,356.1,205.3,356.1,234.6z M356.1,396.8H178.8v-13h177.4V396.8z
					 M304.4,149.6c-10.1-3.3-20.8-5.2-31.5-5.7c-0.1,0-0.2,0-0.2,0c-0.7,0-1.4-0.1-2.2-0.1c-0.2,0-0.3,0-0.5,0c-0.9,0-1.7,0-2.6,0
					s-1.7,0-2.6,0c-0.2,0-0.3,0-0.5,0c-0.7,0-1.4,0-2.2,0.1c-0.1,0-0.2,0-0.2,0c-10.7,0.5-21.4,2.4-31.5,5.7v-31.8h73.9L304.4,149.6
					L304.4,149.6z M267.4,78.9c8.1,0,14.8,5.8,14.8,13c0,7.1-6.7,13-14.8,13s-14.8-5.8-14.8-13C252.7,84.7,259.3,78.9,267.4,78.9z
					 M168.4,113.3c23.4-19.1,55.7-21.4,69.5-21.5c0,0,0,0.1,0,0.1c0,4.7,1.5,9.2,4,13h-18.8c-4.4,0-7.4,2.6-7.4,6.5V156
					c-30.9,15.8-51.7,45.1-51.7,78.6v38.9h-22.2v-97.3C141.8,148.9,150.7,127.5,168.4,113.3z M141.8,305.9v-19.5H164v19.5H141.8z
					 M348.7,429.2H186.1c-3.7,0-7.4-2.6-7.4-6.5v-13h177.4v13C356.1,426,353.2,429.2,348.7,429.2z"/>
				<path d="M245.3,215.1h44.3c4.4,0,7.4-2.6,7.4-6.5s-3-6.5-7.4-6.5h-44.3c-4.4,0-7.4,2.6-7.4,6.5S240.8,215.1,245.3,215.1z"/>
				<path d="M304.4,228.1h-73.9c-4.4,0-7.4,2.6-7.4,6.5s3,6.5,7.4,6.5h73.9c4.4,0,7.4-2.6,7.4-6.5
					C311.8,230.7,308.8,228.1,304.4,228.1z"/>
				<path d="M267.4,267c-4.4,0-7.4,2.6-7.4,6.5v32.4c0,3.9,3,6.5,7.4,6.5s7.4-2.6,7.4-6.5v-32.4C274.8,269.6,271.9,267,267.4,267z"
					/>
				<path d="M267.4,325.4c-4.4,0-7.4,2.6-7.4,6.5c0,3.9,3,6.5,7.4,6.5s7.4-2.6,7.4-6.5C274.8,328,271.9,325.4,267.4,325.4z"/>
			</g>
		</g>
	</g>
</g>
</svg>
