<svg xmlns="http://www.w3.org/2000/svg" viewBox="0 0 491.5 491.5"><defs><style>.cls-1,.cls-3{fill:none;}.cls-1,.cls-2,.cls-3{stroke:#000;stroke-linecap:round;stroke-linejoin:round;}.cls-1{stroke-width:6.01px;}.cls-2{fill:#fff;}.cls-2,.cls-3{stroke-width:4.64px;}</style></defs><g id="Ebene_4" data-name="Ebene 4"><path class="cls-1" d="M336.1,462.66s-27.86,24.88-91.5-9.69-11.29-72.63-112.84-113.54c0,0,73.67-18,114.92,58.33S336.1,462.66,336.1,462.66Z"/><path class="cls-1" d="M229.87,453.82s-14.14,23.46-66.2,13-23.62-48.44-103.62-55.13c0,0,47.73-28.52,93.14,16S229.87,453.82,229.87,453.82Z"/><path class="cls-1" d="M438,468.41s-38.89,26.46-112.63-27.21-2.11-92.54-122.15-160.38c0,0,95-10.26,133.86,91.8S438,468.41,438,468.41Z"/><ellipse class="cls-2" cx="243.2" cy="104.94" rx="100.45" ry="42.12"/><path class="cls-3" d="M343.64,104.94l0-27.71c0-23.27-45-42.13-100.44-42.13S142.78,54,142.78,77.23l0,27.71"/></g></svg>