<?xml version="1.0" encoding="UTF-8"?>
<!DOCTYPE svg PUBLIC "-//W3C//DTD SVG 1.1//EN" "http://www.w3.org/Graphics/SVG/1.1/DTD/svg11.dtd">
<!-- Creator: CorelDRAW -->
<svg xmlns="http://www.w3.org/2000/svg" xml:space="preserve" width="6.82666in" height="6.82666in" style="shape-rendering:geometricPrecision; text-rendering:geometricPrecision; image-rendering:optimizeQuality; fill-rule:evenodd; clip-rule:evenodd"
viewBox="0 0 6.82666 6.82666"
 xmlns:xlink="http://www.w3.org/1999/xlink">
 <defs>
  <style type="text/css">
   <![CDATA[
    .fil1 {fill:none}
    .fil0 {fill:black;fill-rule:nonzero}
   ]]>
  </style>
 </defs>
 <g id="Layer_x0020_1">
  <metadata id="CorelCorpID_0Corel-Layer"/>
  <g id="_330996496">
   <path id="_165036920" class="fil0" d="M1.73736 1.18853l3.35193 0c0.114917,0 0.219354,0.0469764 0.295028,0.12265 0.0756732,0.0756732 0.12265,0.180106 0.12265,0.29502l0 3.36652c0,0.0294528 -0.0238819,0.0533346 -0.0533346,0.0533346l-4.08061 0c-0.0294528,0 -0.0533346,-0.0238819 -0.0533346,-0.0533346l0 -3.36652c0,-0.114913 0.0469764,-0.219346 0.12265,-0.29502 0.0756732,-0.0756732 0.18011,-0.12265 0.295024,-0.12265zm3.35193 0.106669l-3.35193 0c-0.0854685,0 -0.163217,0.0350079 -0.219606,0.0913976 -0.0563898,0.0563898 -0.0913976,0.134134 -0.0913976,0.219602l0 3.31318 3.97394 0 0 -3.31318c0,-0.0854685 -0.0350079,-0.163213 -0.0913976,-0.219602 -0.0563898,-0.0563898 -0.134138,-0.0913976 -0.21961,-0.0913976z"/>
   <path id="_165037712" class="fil0" d="M1.37302 2.07486c-0.0294528,0 -0.0533346,0.0238819 -0.0533346,0.0533346 0,0.0294528 0.0238819,0.0533346 0.0533346,0.0533346l2.04649 0 1.80494 0 0.229181 0c0.0294528,0 0.0533346,-0.0238819 0.0533346,-0.0533346 0,-0.0294528 -0.0238819,-0.0533346 -0.0533346,-0.0533346l-0.229181 0 -1.80494 0 -2.04649 0z"/>
   <polygon id="_330967432" class="fil0" points="2.7138,1.50915 4.11287,1.50915 4.11287,1.61581 2.7138,1.61581 "/>
   <polygon id="_330967144" class="fil0" points="2.7138,1.77147 4.11287,1.77147 4.11287,1.87814 2.7138,1.87814 "/>
   <path id="_330967264" class="fil0" d="M1.37302 3.88801c-0.0294528,0 -0.0533346,0.0238819 -0.0533346,0.0533346 0,0.0294528 0.0238819,0.0533346 0.0533346,0.0533346l3.73165 0 0.348969 0c0.0294528,0 0.0533346,-0.0238819 0.0533346,-0.0533346 0,-0.0294528 -0.0238819,-0.0533346 -0.0533346,-0.0533346l-0.348969 0 -3.73165 0z"/>
   <path id="_330994264" class="fil0" d="M5.2175 2.12819c0,-0.0294528 -0.0238819,-0.0533346 -0.0533346,-0.0533346 -0.0294528,0 -0.0533346,0.0238819 -0.0533346,0.0533346l0 1.81315c0,0.0294528 0.0238819,0.0533346 0.0533346,0.0533346 0.0294528,0 0.0533346,-0.0238819 0.0533346,-0.0533346l0 -1.81315z"/>
   <path id="_330994576" class="fil0" d="M1.71583 2.12819c0,-0.0294528 -0.0238819,-0.0533346 -0.0533346,-0.0533346 -0.0294528,0 -0.0533346,0.0238819 -0.0533346,0.0533346l0 1.81315c0,0.0294528 0.0238819,0.0533346 0.0533346,0.0533346 0.0294528,0 0.0533346,-0.0238819 0.0533346,-0.0533346l0 -1.81315z"/>
   <polygon id="_330995032" class="fil0" points="4.72227,2.80851 4.04617,3.19886 3.99325,3.10678 4.66935,2.71643 "/>
   <polygon id="_330994360" class="fil0" points="4.4893,3.15828 3.90064,3.49814 3.84731,3.40606 4.43597,3.0662 "/>
   <polygon id="_330997096" class="fil0" points="2.97915,2.80851 2.30304,3.19886 2.25013,3.10678 2.92623,2.71643 "/>
   <polygon id="_330996040" class="fil0" points="2.74618,3.15828 2.15752,3.49814 2.10419,3.40606 2.69285,3.0662 "/>
   <path id="_330994864" class="fil0" d="M3.46667 2.13514c0,-0.0294528 -0.0238819,-0.0533346 -0.0533346,-0.0533346 -0.0294528,0 -0.0533346,0.0238819 -0.0533346,0.0533346l0 1.8062c0,0.0294528 0.0238819,0.0533346 0.0533346,0.0533346 0.0294528,0 0.0533346,-0.0238819 0.0533346,-0.0533346l0 -1.8062z"/>
   <path id="_330997312" class="fil0" d="M4.75411 4.10325c0.0952087,0 0.181409,0.0385945 0.243807,0.100996 0.0624016,0.0623976 0.100996,0.148598 0.100996,0.243807 0,0.0952087 -0.0385984,0.181413 -0.100996,0.243811 -0.0623976,0.0623976 -0.148598,0.100996 -0.243807,0.100996 -0.0952087,0 -0.181413,-0.0385984 -0.243811,-0.100996 -0.0623976,-0.0623976 -0.100996,-0.148602 -0.100996,-0.243811 0,-0.0952087 0.0385945,-0.181409 0.100996,-0.243807 0.0623976,-0.0624016 0.148602,-0.100996 0.243811,-0.100996zm0.16839 0.176413c-0.0430866,-0.0430906 -0.102626,-0.0697441 -0.16839,-0.0697441 -0.0657638,0 -0.125307,0.0266535 -0.168394,0.0697441 -0.0430906,0.0430866 -0.0697441,0.102626 -0.0697441,0.16839 0,0.0657638 0.0266575,0.125307 0.0697441,0.168394 0.0430906,0.0430906 0.10263,0.0697441 0.168394,0.0697441 0.0657638,0 0.125303,-0.0266575 0.16839,-0.0697441 0.0430906,-0.0430906 0.0697441,-0.10263 0.0697441,-0.168394 0,-0.0657638 -0.0266535,-0.125303 -0.0697441,-0.16839z"/>
   <path id="_330997648" class="fil0" d="M2.07256 4.10325c0.0952087,0 0.181409,0.0385945 0.243807,0.100996 0.0624016,0.0623976 0.100996,0.148598 0.100996,0.243807 0,0.0952087 -0.0385984,0.181413 -0.100996,0.243811 -0.0623976,0.0623976 -0.148598,0.100996 -0.243807,0.100996 -0.0952087,0 -0.181413,-0.0385945 -0.243811,-0.100996 -0.0624016,-0.0623976 -0.100996,-0.148602 -0.100996,-0.243811 0,-0.0952087 0.0385945,-0.181409 0.100996,-0.243807 0.0623976,-0.0624016 0.148602,-0.100996 0.243811,-0.100996zm0.16839 0.176413c-0.0430866,-0.0430906 -0.102626,-0.0697441 -0.16839,-0.0697441 -0.0657638,0 -0.125307,0.0266535 -0.168394,0.0697441 -0.0430906,0.0430866 -0.0697441,0.102626 -0.0697441,0.16839 0,0.0657638 0.0266535,0.125307 0.0697441,0.168394 0.0430866,0.0430906 0.10263,0.0697441 0.168394,0.0697441 0.0657638,0 0.125303,-0.0266575 0.16839,-0.0697441 0.0430906,-0.0430906 0.0697441,-0.10263 0.0697441,-0.168394 0,-0.0657638 -0.0266535,-0.125303 -0.0697441,-0.16839z"/>
   <path id="_330995824" class="fil0" d="M2.77209 4.21984l1.28248 0c0.0294528,0 0.0533346,0.0238819 0.0533346,0.0533346l0 0.349768c0,0.0294528 -0.0238819,0.0533346 -0.0533346,0.0533346l-1.28248 0c-0.0294528,0 -0.0533346,-0.0238819 -0.0533346,-0.0533346l0 -0.349768c0,-0.0294528 0.0238819,-0.0533346 0.0533346,-0.0533346zm1.22915 0.106669l-1.17581 0 0 0.243098 1.17581 0 0 -0.243098z"/>
   <polygon id="_330996352" class="fil0" points="2.94634,4.39472 3.88032,4.39472 3.88032,4.50139 2.94634,4.50139 "/>
   <path id="_330995848" class="fil0" d="M1.70167 4.91938l0.667409 0c0.0294528,0 0.0533346,0.0238819 0.0533346,0.0533346l0 0.420811c0,0.0673189 -0.0275079,0.128492 -0.071811,0.172799 -0.044311,0.044311 -0.105476,0.071811 -0.172799,0.071811l-0.284858 0c-0.0673228,0 -0.128488,-0.0275 -0.172799,-0.071811 -0.044311,-0.044311 -0.071811,-0.105476 -0.071811,-0.172799l0 -0.420811c0,-0.0294528 0.0238819,-0.0533346 0.0533346,-0.0533346zm0.614075 0.106669l-0.56074 0 0 0.367476c0,0.037878 0.0155354,0.0723583 0.0405591,0.0973819 0.0250236,0.0250236 0.0595039,0.0405591 0.0973819,0.0405591l0.284858 0c0.037878,0 0.0723583,-0.0155354 0.0973819,-0.0405591 0.0250197,-0.0250236 0.0405591,-0.0595039 0.0405591,-0.0973819l0 -0.367476z"/>
   <path id="_330995464" class="fil0" d="M4.45758 4.91938l0.667413 0c0.0294528,0 0.0533346,0.0238819 0.0533346,0.0533346l0 0.420811c0,0.0673228 -0.0275079,0.128492 -0.071815,0.172799 -0.0443071,0.0443031 -0.10548,0.071811 -0.172799,0.071811l-0.284858 0c-0.0673228,0 -0.128488,-0.0275 -0.172799,-0.071811 -0.0443031,-0.0443071 -0.071811,-0.10548 -0.071811,-0.172799l0 -0.420811c0,-0.0294528 0.0238819,-0.0533346 0.0533346,-0.0533346zm0.614079 0.106669l-0.560744 0 0 0.367476c0,0.037878 0.0155394,0.0723583 0.0405591,0.0973819 0.0250236,0.0250236 0.0595039,0.0405591 0.0973819,0.0405591l0.284858 0c0.037878,0 0.0723583,-0.0155394 0.0973819,-0.0405591 0.0250236,-0.0250236 0.040563,-0.0595039 0.040563,-0.0973819l0 -0.367476z"/>
   <path id="_330997840" class="fil0" d="M1.37302 3.77271c0.0294528,0 0.0533346,-0.0238819 0.0533346,-0.0533346 0,-0.0294528 -0.0238819,-0.0533346 -0.0533346,-0.0533346l-0.267287 0 0 -0.592866 0.267287 0c0.0294528,0 0.0533346,-0.0238819 0.0533346,-0.0533346 0,-0.0294528 -0.0238819,-0.0533346 -0.0533346,-0.0533346l-0.320622 0c-0.0294528,0 -0.0533346,0.0238819 -0.0533346,0.0533346l0 0.699535c0,0.0294528 0.0238819,0.0533346 0.0533346,0.0533346l0.320622 0z"/>
   <path id="_330994192" class="fil0" d="M5.45364 2.96651c-0.0294528,0 -0.0533346,0.0238819 -0.0533346,0.0533346 0,0.0294528 0.0238819,0.0533346 0.0533346,0.0533346l0.252713 0 0 0.592866 -0.252713 0c-0.0294528,0 -0.0533346,0.0238819 -0.0533346,0.0533346 0,0.0294528 0.0238819,0.0533346 0.0533346,0.0533346l0.306047 0c0.0294528,0 0.0533346,-0.0238819 0.0533346,-0.0533346l0 -0.699535c0,-0.0294528 -0.0238819,-0.0533346 -0.0533346,-0.0533346l-0.306047 0z"/>
   <polygon id="_330995200" class="fil0" points="0.906661,5.53146 5.92,5.53146 5.92,5.63813 0.906661,5.63813 "/>
  </g>
 </g>
 <rect class="fil1" width="6.82666" height="6.82666"/>
</svg>
