<?xml version="1.0" encoding="UTF-8"?>
<!DOCTYPE svg PUBLIC "-//W3C//DTD SVG 1.1//EN" "http://www.w3.org/Graphics/SVG/1.1/DTD/svg11.dtd">
<!-- Creator: CorelDRAW -->
<svg xmlns="http://www.w3.org/2000/svg" xml:space="preserve" width="6.82666in" height="6.82666in" style="shape-rendering:geometricPrecision; text-rendering:geometricPrecision; image-rendering:optimizeQuality; fill-rule:evenodd; clip-rule:evenodd"
viewBox="0 0 6.82666 6.82666"
 xmlns:xlink="http://www.w3.org/1999/xlink">
 <defs>
  <style type="text/css">
   <![CDATA[
    .fil1 {fill:none}
    .fil0 {fill:black;fill-rule:nonzero}
   ]]>
  </style>
 </defs>
 <g id="Layer_x0020_1">
  <metadata id="CorelCorpID_0Corel-Layer"/>
  <g id="_172866936">
   <path id="_172860456" class="fil0" d="M1.69048 3.1611c0.231161,0 0.440457,0.0937087 0.591945,0.245201 0.151496,0.151496 0.245201,0.360787 0.245201,0.591949 0,0.231161 -0.0937047,0.440453 -0.245201,0.591949 -0.151488,0.151492 -0.360783,0.245201 -0.591945,0.245201 -0.231161,0 -0.440453,-0.0937047 -0.591949,-0.245201 -0.151496,-0.151496 -0.245201,-0.360787 -0.245201,-0.591949 0,-0.231161 0.0937047,-0.440453 0.245201,-0.591949 0.151496,-0.151496 0.360787,-0.245201 0.591949,-0.245201zm0.516528 0.320618c-0.132181,-0.132185 -0.314807,-0.213949 -0.516528,-0.213949 -0.20172,0 -0.384346,0.0817638 -0.516531,0.213949 -0.132185,0.132185 -0.213949,0.314811 -0.213949,0.516531 0,0.20172 0.0817638,0.384346 0.213949,0.516531 0.132185,0.132185 0.314811,0.213949 0.516531,0.213949 0.20172,0 0.384346,-0.0817638 0.516528,-0.213949 0.132185,-0.132185 0.213949,-0.314811 0.213949,-0.516531 0,-0.20172 -0.0817638,-0.384346 -0.213949,-0.516531z"/>
   <path id="_172866744" class="fil0" d="M3.41333 3.67637c0.088878,0 0.169358,0.0360315 0.227602,0.0942835 0.058252,0.058252 0.0942835,0.138724 0.0942835,0.227602 0,0.088878 -0.0360315,0.169358 -0.0942835,0.227602 -0.0582441,0.058252 -0.138724,0.0942835 -0.227602,0.0942835 -0.088878,0 -0.169358,-0.0360315 -0.227602,-0.0942835 -0.058252,-0.0582441 -0.0942835,-0.138724 -0.0942835,-0.227602 0,-0.088878 0.0360315,-0.16935 0.0942835,-0.227602 0.0582441,-0.058252 0.138724,-0.0942835 0.227602,-0.0942835zm0.152185 0.169701c-0.038937,-0.0389409 -0.092748,-0.0630315 -0.152185,-0.0630315 -0.059437,0 -0.113248,0.0240906 -0.152185,0.0630315 -0.0389409,0.0389409 -0.0630315,0.092752 -0.0630315,0.152185 0,0.059437 0.0240906,0.113248 0.0630315,0.152185 0.038937,0.0389409 0.092748,0.0630315 0.152185,0.0630315 0.059437,0 0.113248,-0.0240906 0.152185,-0.0630315 0.0389409,-0.038937 0.0630315,-0.092748 0.0630315,-0.152185 0,-0.0594331 -0.0240906,-0.113244 -0.0630315,-0.152185z"/>
   <polygon id="_172867008" class="fil0" points="4.65683,2.27859 4.418,2.69228 5.1264,3.83881 5.03598,3.89465 4.31086,2.72105 4.29414,2.69399 4.31003,2.66646 4.56476,2.22526 "/>
   <path id="_172867608" class="fil0" d="M4.97544 2.28305c0.0294528,0 0.0533346,-0.0238819 0.0533346,-0.0533346 0,-0.0294528 -0.0238819,-0.0533346 -0.0533346,-0.0533346l-0.76002 0c-0.0294528,0 -0.0533346,0.0238819 -0.0533346,0.0533346 0,0.0294528 0.0238819,0.0533346 0.0533346,0.0533346l0.76002 0z"/>
   <path id="_172866768" class="fil0" d="M1.71571 3.84814c-0.0147244,0.0254252 -0.00605118,0.0579803 0.019374,0.0727047 0.0254252,0.0147244 0.0579803,0.00605118 0.0727047,-0.019374l1.05667 -1.83021 -0.0460394 -0.0266654 0.046189 0.0266654c0.0147244,-0.0255079 0.00598425,-0.0581299 -0.0195236,-0.0728543 -0.00857087,-0.00494488 -0.0179409,-0.00724016 -0.0271693,-0.00714567l-0.451382 0c-0.0294528,0 -0.0533346,0.0238819 -0.0533346,0.0533346 0,0.0294528 0.0238819,0.0533346 0.0533346,0.0533346l0.359657 0 -1.01048 1.75021z"/>
   <path id="_172862496" class="fil0" d="M1.69048 3.8024c0.0540709,0 0.103039,0.0219252 0.138484,0.0573661 0.0354409,0.0354449 0.0573661,0.0844134 0.0573661,0.138484 0,0.0540709 -0.0219291,0.103043 -0.0573661,0.138484 -0.0354449,0.0354409 -0.0844134,0.0573661 -0.138484,0.0573661 -0.0540748,0 -0.103047,-0.0219291 -0.138488,-0.0573661 -0.035437,-0.0354409 -0.0573661,-0.0844134 -0.0573661,-0.138484 0,-0.0540709 0.0219252,-0.103039 0.0573661,-0.138484 0.0354409,-0.035437 0.0844134,-0.0573661 0.138488,-0.0573661zm0.0630669 0.132783c-0.0161299,-0.0161299 -0.038437,-0.0261142 -0.0630669,-0.0261142 -0.0246339,0 -0.046937,0.00998031 -0.0630709,0.0261142 -0.0161299,0.0161299 -0.0261142,0.038437 -0.0261142,0.0630669 0,0.0246299 0.00998031,0.0469331 0.0261142,0.0630669 0.0161339,0.0161339 0.038437,0.0261142 0.0630709,0.0261142 0.0246299,0 0.046937,-0.00998425 0.0630669,-0.0261142 0.0161339,-0.0161339 0.0261142,-0.038437 0.0261142,-0.0630669 0,-0.0246299 -0.00998425,-0.046937 -0.0261142,-0.0630669z"/>
   <path id="_172864968" class="fil0" d="M5.13618 3.8024c0.0540748,0 0.103047,0.0219291 0.138488,0.0573661 0.0354409,0.0354449 0.0573661,0.0844134 0.0573661,0.138484 0,0.0540709 -0.0219291,0.103043 -0.0573661,0.138484 -0.0354409,0.035437 -0.0844134,0.0573661 -0.138488,0.0573661 -0.0540709,0 -0.103039,-0.0219252 -0.138484,-0.0573661 -0.035437,-0.0354409 -0.0573661,-0.0844134 -0.0573661,-0.138484 0,-0.0540709 0.0219252,-0.103039 0.0573661,-0.138484 0.0354449,-0.0354409 0.0844134,-0.0573661 0.138484,-0.0573661zm0.0630709 0.132783c-0.0161339,-0.0161339 -0.038437,-0.0261142 -0.0630709,-0.0261142 -0.0246299,0 -0.046937,0.00998425 -0.0630669,0.0261142 -0.0161299,0.0161299 -0.0261142,0.038437 -0.0261142,0.0630669 0,0.0246299 0.00998031,0.0469331 0.0261142,0.0630669 0.0161299,0.0161299 0.038437,0.0261142 0.0630669,0.0261142 0.0246339,0 0.046937,-0.00998031 0.0630709,-0.0261142 0.0161339,-0.0161339 0.0261142,-0.038437 0.0261142,-0.0630669 0,-0.0246299 -0.00998425,-0.046937 -0.0261142,-0.0630669z"/>
   <path id="_172860216" class="fil0" d="M5.13618 3.1611c0.231161,0 0.440453,0.0937047 0.591949,0.245201 0.151496,0.151496 0.245201,0.360787 0.245201,0.591949 0,0.231161 -0.0937047,0.440453 -0.245201,0.591949 -0.151496,0.151496 -0.360787,0.245201 -0.591949,0.245201 -0.231161,0 -0.440457,-0.0937087 -0.591945,-0.245201 -0.151496,-0.151496 -0.245201,-0.360787 -0.245201,-0.591949 0,-0.231161 0.0937047,-0.440453 0.245201,-0.591949 0.151488,-0.151492 0.360783,-0.245201 0.591945,-0.245201zm0.516531 0.320618c-0.132185,-0.132185 -0.314811,-0.213949 -0.516531,-0.213949 -0.20172,0 -0.384346,0.0817638 -0.516528,0.213949 -0.132185,0.132185 -0.213949,0.314811 -0.213949,0.516531 0,0.20172 0.0817638,0.384346 0.213949,0.516531 0.132181,0.132185 0.314807,0.213949 0.516528,0.213949 0.20172,0 0.384346,-0.0817638 0.516531,-0.213949 0.132185,-0.132185 0.213949,-0.314811 0.213949,-0.516531 0,-0.20172 -0.0817638,-0.384346 -0.213949,-0.516531z"/>
   <polygon id="_172862808" class="fil0" points="3.52834,3.75085 4.24848,2.73106 2.61798,2.73106 3.30201,3.74969 3.21368,3.80885 2.47397,2.70731 2.41829,2.62439 2.51813,2.62439 4.35131,2.62439 4.45414,2.62439 4.39485,2.70835 3.61542,3.8121 "/>
   <path id="_172866648" class="fil0" d="M1.69048 2.94189c-0.0294528,0 -0.0533346,0.0238819 -0.0533346,0.0533346 0,0.0294528 0.0238819,0.0533346 0.0533346,0.0533346 0.262256,0 0.499685,0.106299 0.671543,0.278154 0.171854,0.171858 0.278154,0.409287 0.278154,0.671543 0,0.0294528 0.0238819,0.0533346 0.0533346,0.0533346 0.0294528,0 0.0533346,-0.0238819 0.0533346,-0.0533346 0,-0.291701 -0.118244,-0.555795 -0.309406,-0.746961 -0.191165,-0.191161 -0.45526,-0.309406 -0.746961,-0.309406z"/>
   <path id="_172864032" class="fil0" d="M4.44093 2.78844c-0.0294528,0 -0.0533346,0.0238819 -0.0533346,0.0533346 0,0.0294528 0.0238819,0.0533346 0.0533346,0.0533346l0.630709 0 0.273224 0.140118c0.0261181,0.0133425 0.0581142,0.00299213 0.0714567,-0.023126 0.0133425,-0.0261181 0.00299213,-0.0581142 -0.023126,-0.0714567l-0.28052 -0.143858c-0.00827559,-0.00528346 -0.0181063,-0.00834646 -0.0286535,-0.00834646l-0.643091 0z"/>
   <g>
    <g>
     <polygon id="_172862616" class="fil0" points="3.46618,4.258 3.46618,4.50805 3.35951,4.50805 3.35951,4.258 "/>
     <polygon id="_172860720" class="fil0" points="3.59031,4.57402 3.23635,4.57402 3.23635,4.46735 3.59031,4.46735 "/>
    </g>
    <g>
     <polygon id="_172862232" class="fil0" points="3.35951,3.73852 3.35951,3.48846 3.46618,3.48846 3.46618,3.73852 "/>
     <polygon id="_172867128" class="fil0" points="3.59031,3.52895 3.23635,3.52895 3.23635,3.4227 3.59031,3.4227 "/>
    </g>
   </g>
  </g>
 </g>
 <rect class="fil1" width="6.82666" height="6.82666"/>
</svg>
