<svg xmlns="http://www.w3.org/2000/svg" viewBox="0 0 491.5 491.5"><g id="Layer_7" data-name="Layer 7"><g id="_170928304" data-name=" 170928304"><path id="_171920224" data-name=" 171920224" d="M66.25,187h364V407.7a17.75,17.75,0,0,1-17.71,17.71H80.12A17.75,17.75,0,0,1,62.41,407.7V187Zm356.31,7.68H70.09V407.7a10.07,10.07,0,0,0,10,10H412.53a10.07,10.07,0,0,0,10-10v-213Z"/><polygon id="_171920128" data-name=" 171920128" points="422.56 191.98 422.56 131.12 422.56 73.77 212.35 73.77 70.09 73.77 70.09 191.98 62.41 191.98 62.41 69.93 62.41 66.09 66.25 66.09 212.35 66.09 426.4 66.09 430.24 66.09 430.24 69.93 430.24 131.12 430.24 191.98 422.56 191.98"/><polygon id="_171919528" data-name=" 171919528" points="427.21 134.8 169.04 134.8 169.04 127.12 427.21 127.12 427.21 134.8"/><polygon id="_171920320" data-name=" 171920320" points="174.96 133.48 113.33 71.84 118.75 66.41 180.39 128.05 174.96 133.48"/><polygon id="_171920848" data-name=" 171920848" points="180.39 133.48 119.37 194.5 113.94 189.07 174.96 128.05 180.39 133.48"/><polygon id="_171920728" data-name=" 171920728" points="274.69 133.48 213.06 71.84 218.49 66.41 280.12 128.05 274.69 133.48"/><polygon id="_171921880" data-name=" 171921880" points="280.12 133.48 219.1 194.5 213.67 189.07 274.69 128.05 280.12 133.48"/><polygon id="_171921088" data-name=" 171921088" points="374.42 133.48 312.79 71.84 318.22 66.41 379.85 128.05 374.42 133.48"/><polygon id="_171920680" data-name=" 171920680" points="379.85 133.48 318.83 194.5 313.4 189.07 374.42 128.05 379.85 133.48"/><circle id="_170930536" data-name=" 170930536" cx="89.57" cy="94.06" r="5.76"/><circle id="_170930272" data-name=" 170930272" cx="89.57" cy="167.85" r="5.76"/><circle id="_170927560" data-name=" 170927560" cx="139.3" cy="130.96" r="5.76"/></g><path d="M311,224.39H271a2.45,2.45,0,0,0-2.45,2.45v85.38L214.8,225.55a2.44,2.44,0,0,0-2.11-1.16l-32.21.36a2.34,2.34,0,0,0-.59.09h0l-.07,0a2.56,2.56,0,0,0-.65.3h0a2.23,2.23,0,0,0-.49.48l-.09.1a2.43,2.43,0,0,0-.31.6s0,.08,0,.12a2.47,2.47,0,0,0-.11.67V385.53a2.45,2.45,0,0,0,2.44,2.45h40a2.45,2.45,0,0,0,2.45-2.45V300.15l53.79,86.67a2.41,2.41,0,0,0,2.11,1.16l32.21-.36a2.25,2.25,0,0,0,.58-.08h.06l.07,0a2.26,2.26,0,0,0,.65-.3h0a2.42,2.42,0,0,0,.49-.47l.09-.11a2.55,2.55,0,0,0,.31-.59.56.56,0,0,1,0-.12,3,3,0,0,0,.11-.68V226.84A2.45,2.45,0,0,0,311,224.39Zm-37.51,4.9h35.06V376.6l-35.06-56.49ZM218,383.09H183V235.78L218,292.27Zm4.55-92.77,0-.08-37.64-60.65,26.49-.29L268.93,322l.06.1,37.63,60.64-26.49.29Z"/></g></svg>