<svg xmlns="http://www.w3.org/2000/svg" viewBox="0 0 491.5 491.5"><g id="Layer_7" data-name="Layer 7"><g id="_170928304" data-name=" 170928304"><path id="_171920224" data-name=" 171920224" d="M65.68,187h364V407.7A17.75,17.75,0,0,1,412,425.41H79.54a17.75,17.75,0,0,1-17.7-17.71V187ZM422,194.65H69.52V407.7a10.07,10.07,0,0,0,10,10H412a10.07,10.07,0,0,0,10-10v-213Z"/><polygon id="_171920128" data-name=" 171920128" points="421.98 191.98 421.98 131.12 421.98 73.77 211.78 73.77 69.52 73.77 69.52 191.98 61.84 191.98 61.84 69.93 61.84 66.09 65.68 66.09 211.78 66.09 425.82 66.09 429.66 66.09 429.66 69.93 429.66 131.12 429.66 191.98 421.98 191.98"/><polygon id="_171919528" data-name=" 171919528" points="426.64 134.8 168.47 134.8 168.47 127.12 426.64 127.12 426.64 134.8"/><polygon id="_171920320" data-name=" 171920320" points="174.39 133.48 112.75 71.84 118.18 66.41 179.82 128.05 174.39 133.48"/><polygon id="_171920848" data-name=" 171920848" points="179.82 133.48 118.8 194.5 113.37 189.07 174.39 128.05 179.82 133.48"/><polygon id="_171920728" data-name=" 171920728" points="274.12 133.48 212.48 71.84 217.91 66.41 279.55 128.05 274.12 133.48"/><polygon id="_171921880" data-name=" 171921880" points="279.55 133.48 218.53 194.5 213.1 189.07 274.12 128.05 279.55 133.48"/><polygon id="_171921088" data-name=" 171921088" points="373.85 133.48 312.21 71.84 317.64 66.41 379.28 128.05 373.85 133.48"/><polygon id="_171920680" data-name=" 171920680" points="379.28 133.48 318.26 194.5 312.83 189.07 373.85 128.05 379.28 133.48"/><circle id="_170930536" data-name=" 170930536" cx="88.99" cy="94.06" r="5.76"/><circle id="_170930272" data-name=" 170930272" cx="88.99" cy="167.85" r="5.76"/><circle id="_170927560" data-name=" 170927560" cx="138.73" cy="130.96" r="5.76"/></g><path d="M284,312.05c0,9.15.44,18.08,1.75,25.26H268.27L266.75,324h-.66c-5.88,8.27-17.2,15.68-32.23,15.68-21.34,0-32.23-15-32.23-30.27,0-25.49,22.65-39.43,63.38-39.21v-2.18c0-8.71-2.4-24.39-24-24.39a52.52,52.52,0,0,0-27.44,7.84l-4.36-12.63c8.71-5.66,21.34-9.37,34.63-9.37,32.23,0,40.07,22,40.07,43.13Zm-18.51-28.53c-20.91-.44-44.65,3.27-44.65,23.74,0,12.41,8.28,18.29,18.08,18.29,13.72,0,22.43-8.71,25.48-17.64a19.82,19.82,0,0,0,1.09-6.1Z"/><path d="M150.3,339.18a97,97,0,0,0,18.27,17.46A106.79,106.79,0,0,0,179,363.48,108,108,0,0,0,190,369a114.89,114.89,0,0,0,47.89,8.73c2.05.06,4.1-.16,6.16-.26s4.11-.2,6.16-.51l6.15-.7c2.05-.27,4.08-.7,6.13-1,4.12-.56,8.15-1.65,12.24-2.47l1.53-.33,1.51-.41,3-.81c2-.54,4.05-1,6.07-1.6,16.14-4.67,31.94-10.86,47.88-17.28A204,204,0,0,1,289.38,377c-4.1,1.45-8.19,3-12.37,4.22s-8.39,2.45-12.71,3.26a135.29,135.29,0,0,1-26.21,3.16c-17.68.44-35.78-3.28-51.49-11.66A93.86,93.86,0,0,1,175.36,369a91.5,91.5,0,0,1-10-8.63,79.58,79.58,0,0,1-8.52-9.94A60.28,60.28,0,0,1,150.3,339.18Z"/><path d="M323.74,348.08l20.63-2.23-8.79,18.51s6.27,1.52,17.79-25.3A81.16,81.16,0,0,0,323.74,348.08Z"/></g></svg>