<?xml version="1.0" encoding="UTF-8"?>
<!DOCTYPE svg PUBLIC "-//W3C//DTD SVG 1.1//EN" "http://www.w3.org/Graphics/SVG/1.1/DTD/svg11.dtd">
<!-- Creator: CorelDRAW -->
<svg xmlns="http://www.w3.org/2000/svg" xml:space="preserve" width="6.82666in" height="6.82666in" style="shape-rendering:geometricPrecision; text-rendering:geometricPrecision; image-rendering:optimizeQuality; fill-rule:evenodd; clip-rule:evenodd"
viewBox="0 0 6.82666 6.82666"
 xmlns:xlink="http://www.w3.org/1999/xlink">
 <defs>
  <style type="text/css">
   <![CDATA[
    .fil1 {fill:none}
    .fil0 {fill:black;fill-rule:nonzero}
   ]]>
  </style>
 </defs>
 <g id="Layer_x0020_1">
  <metadata id="CorelCorpID_0Corel-Layer"/>
  <g id="_333537488">
   <path id="_333537824" class="fil0" d="M5.5795 3.83674c0,-0.604874 -0.247587,-1.17409 -0.646949,-1.58945 -0.391008,-0.406669 -0.927488,-0.665638 -1.51922,-0.665638 -0.591736,0 -1.12822,0.258969 -1.51922,0.665638 -0.399362,0.415358 -0.646949,0.984579 -0.646949,1.58945l-0.106669 0c0,-0.632953 0.259071,-1.22858 0.676949,-1.6632 0.410346,-0.42678 0.973862,-0.698559 1.59589,-0.698559 0.622031,0 1.18555,0.27178 1.59589,0.698559 0.417878,0.434618 0.676949,1.03025 0.676949,1.6632l-0.106669 0z"/>
   <g>
    <path id="_333537512" class="fil0" d="M5.45951 3.74757l0.0052126 0c0.139921,0 0.267094,0.0572047 0.359252,0.149362 0.0921535,0.0921575 0.149362,0.219327 0.149362,0.359248l0 3.93701e-006c0,0.139925 -0.0572087,0.267094 -0.149366,0.359252 -0.0921535,0.0921575 -0.219327,0.149366 -0.359248,0.149366l-0.0052126 0 -0.0533346 0 0 -0.0533346 0 -0.910563 0 -0.0533346 0.0533346 0zm0.289047 0.22478c-0.0621378,-0.0621378 -0.14435,-0.104173 -0.235713,-0.115213l0 0.798098c0.0913622,-0.0110394 0.173575,-0.0530787 0.235709,-0.115217 0.072874,-0.072874 0.118114,-0.173354 0.118114,-0.283835l0 -3.93701e-006c0,-0.110476 -0.0452402,-0.210957 -0.11811,-0.283831z"/>
    <path id="_333538232" class="fil0" d="M1.36194 3.74757l0.0052126 0 0.0533346 0 0 0.0533346 0 0.910563 0 0.0533346 -0.0533346 0 -0.0052126 0c-0.139921,0 -0.267094,-0.0572087 -0.359248,-0.149366 -0.0921575,-0.0921575 -0.149366,-0.219327 -0.149366,-0.359252l0 -3.93701e-006c0,-0.139921 0.0572087,-0.267091 0.149362,-0.359248 0.0921575,-0.0921575 0.219331,-0.149362 0.359252,-0.149362zm-0.048122 0.109567c-0.0913622,0.0110394 -0.173575,0.0530748 -0.235713,0.115213 -0.0728701,0.072874 -0.11811,0.173354 -0.11811,0.283831l0 3.93701e-006c0,0.11048 0.0452402,0.210961 0.118114,0.283835 0.0621339,0.0621378 0.144346,0.104177 0.235709,0.115217l0 -0.798098z"/>
   </g>
   <path id="_333538472" class="fil0" d="M3.39555 4.90356c0.102343,0 0.196197,0.0213425 0.265201,0.0558425 0.0800669,0.0400315 0.129598,0.0992756 0.129598,0.168224 0,0.0689488 -0.0495315,0.128193 -0.129598,0.168228 -0.0689961,0.0344961 -0.162858,0.0558386 -0.265201,0.0558386 -0.102343,0 -0.196205,-0.0213425 -0.265201,-0.0558386 -0.0800669,-0.0400354 -0.129598,-0.0992795 -0.129598,-0.168228 0,-0.0689488 0.0495315,-0.128193 0.129598,-0.168224 0.0690039,-0.0345 0.162858,-0.0558425 0.265201,-0.0558425zm0.217705 0.150843c-0.0545827,-0.0272913 -0.131469,-0.0441732 -0.217705,-0.0441732 -0.0862362,0 -0.163122,0.0168819 -0.217705,0.0441732 -0.0435079,0.021752 -0.0704252,0.0478858 -0.0704252,0.0732244 0,0.0253386 0.0269173,0.0514724 0.0704252,0.0732283 0.0545748,0.0272874 0.131465,0.0441693 0.217705,0.0441693 0.0862402,0 0.16313,-0.0168819 0.217705,-0.0441693 0.0435079,-0.0217559 0.0704252,-0.0478898 0.0704252,-0.0732283 0,-0.0253386 -0.0269173,-0.0514724 -0.0704252,-0.0732244z"/>
   <path id="_333537416" class="fil0" d="M5.68084 4.69311l0 0.260516c0,0.0635945 -0.0260118,0.121409 -0.0678898,0.163291 -0.0418819,0.041878 -0.0996969,0.0678898 -0.163287,0.0678898l-1.74994 0 0 -0.106669 1.74994 0c0.0341496,0 0.0652677,-0.0140394 0.0878701,-0.0366378 0.0225984,-0.0226024 0.0366378,-0.0537205 0.0366378,-0.087874l0 -0.260516 0.106669 0z"/>
  </g>
 </g>
 <rect class="fil1" width="6.82666" height="6.82666"/>
</svg>
