<?xml version="1.0" encoding="utf-8"?>
<!-- Generator: Adobe Illustrator 25.0.0, SVG Export Plug-In . SVG Version: 6.00 Build 0)  -->
<svg version="1.1" id="Ebene_1" xmlns="http://www.w3.org/2000/svg" xmlns:xlink="http://www.w3.org/1999/xlink" x="0px" y="0px"
	 viewBox="0 0 491.5 491.5" style="enable-background:new 0 0 491.5 491.5;" xml:space="preserve">
<style type="text/css">
	.st0{fill-rule:evenodd;clip-rule:evenodd;}
	.st1{fill:none;}
</style>
<g id="Layer_x0020_1">
	<g id="_172042640">
		<path id="_172041560" d="M157.7,61.4h176c4.7,0,9,2.8,12.1,7.2c3.1,4.5,5,10.6,5,17.4v319.4c0,6.8-1.9,12.9-5,17.4
			c-3.1,4.5-7.4,7.2-12.1,7.2h-176c-4.7,0-9-2.8-12.1-7.2c-3.1-4.5-5-10.6-5-17.4V86.1c0-6.8,1.9-12.9,5-17.4
			C148.7,64.2,153,61.4,157.7,61.4L157.7,61.4z M333.8,69.1h-176c-3.2,0-6.2,1.9-8.3,5c-2.1,3.1-3.5,7.3-3.5,12v319.4
			c0,4.7,1.3,8.9,3.5,12s5.1,5,8.3,5h176c3.2,0,6.2-1.9,8.3-5s3.5-7.3,3.5-12V86.1c0-4.7-1.3-8.9-3.5-12C340,71,337,69.1,333.8,69.1
			z"/>
		<g>
			<polygon id="_172041656" points="348.2,380.9 143.3,380.9 143.3,373.2 348.2,373.2 			"/>
			<polygon id="_172042328" points="348.2,118.3 143.3,118.3 143.3,110.6 348.2,110.6 			"/>
		</g>
		<path id="_172042760" d="M245.8,385.3c3,0,5.6,1.7,7.6,4.5c1.9,2.8,3.1,6.6,3.1,10.9c0,4.3-1.2,8.1-3.1,10.9
			c-1.9,2.8-4.6,4.5-7.6,4.5c-3,0-5.6-1.7-7.6-4.5c-1.9-2.8-3.1-6.6-3.1-10.9c0-4.3,1.2-8.1,3.1-10.9
			C240.1,387,242.8,385.3,245.8,385.3z M249.6,395.2c-1-1.4-2.3-2.3-3.8-2.3c-1.5,0-2.8,0.9-3.8,2.3c-1,1.4-1.6,3.3-1.6,5.5
			c0,2.1,0.6,4.1,1.6,5.5s2.3,2.3,3.8,2.3c1.5,0,2.8-0.9,3.8-2.3c1-1.4,1.6-3.3,1.6-5.5C251.1,398.6,250.5,396.6,249.6,395.2z"/>
		<g>
			<path id="_172043144" d="M211,85.2c-1.5,0-2.7,1.7-2.7,3.8c0,2.1,1.2,3.8,2.7,3.8h52.9c1.5,0,2.7-1.7,2.7-3.8s-1.2-3.8-2.7-3.8
				H211z"/>
			<ellipse id="_172041728" class="st0" cx="277.2" cy="89" rx="3.3" ry="4.7"/>
		</g>
	</g>
</g>
<rect class="st1" width="491.5" height="491.5"/>
</svg>
