<svg xmlns="http://www.w3.org/2000/svg" viewBox="0 0 491.5 491.5"><defs><style>.cls-1{fill:none;stroke:#000;stroke-linecap:round;stroke-linejoin:round;stroke-width:6px;}</style></defs><g id="Ebene_2" data-name="Ebene 2"><path d="M202.86,419.74c91.72-91.73,91.72-241,0-332.69l-24.1,24.1c78.43,78.43,78.43,206.05,0,284.48Z"/><path d="M154.65,371.53c65.14-65.14,65.14-171.13,0-236.27l-24.1,24.1c51.85,51.85,51.85,136.22,0,188.07Z"/><path d="M106.44,323.32a99,99,0,0,0,0-139.86l-24.1,24.11a64.82,64.82,0,0,1,0,91.65Z"/></g><g id="Ebene_4" data-name="Ebene 4"><path class="cls-1" d="M404.32,56.51H363.86v.24l-.62,0A23.3,23.3,0,0,0,339.94,80c0,.17,0,.33,0,.5s0,.33,0,.5a23.3,23.3,0,0,0,23.3,23.29h.62v8.16h-.62a23.3,23.3,0,1,0,0,46.59l.62,0v9.34a23.3,23.3,0,0,0,0,46.59v8.14a23.29,23.29,0,0,0,0,46.58v8.15h-.62a23.3,23.3,0,1,0,0,46.59l.62,0v9.34a23.3,23.3,0,0,0,0,46.59v8.14a23.3,23.3,0,0,0,.19,46.59c.38,0,.77,0,1.15,0h39.12Z"/></g></svg>