<svg id="Layer_1" data-name="Layer 1" xmlns="http://www.w3.org/2000/svg" viewBox="0 0 491.52 491.52"><defs><style>.cls-1{fill:none;}</style></defs><g id="Layer_1-2" data-name="Layer_1"><path d="M65.28,117h361a3.84,3.84,0,0,1,3.84,3.84V370.65a3.83,3.83,0,0,1-3.84,3.84h-361a3.83,3.83,0,0,1-3.84-3.84V120.86A3.84,3.84,0,0,1,65.28,117ZM422.4,124.7H69.12V366.82H422.4Z" transform="translate(0 0)"/><path d="M79.23,130.9H412.29a3.84,3.84,0,0,1,3.84,3.84V329a3.84,3.84,0,0,1-3.84,3.84H79.23A3.84,3.84,0,0,1,75.39,329V134.74A3.84,3.84,0,0,1,79.23,130.9Zm329.22,7.68H83.07v186.6H408.45Z" transform="translate(0 0)"/><g id="_173062440" data-name=" 173062440"><rect id="_173062920" data-name=" 173062920" x="375.59" y="340.88" width="7.68" height="17.92" rx="3.84"/><rect id="_173062776" data-name=" 173062776" x="352.3" y="340.88" width="7.68" height="17.92" rx="3.84"/><circle id="_173062704" data-name=" 173062704" cx="242.66" cy="349.84" r="5.76"/><path id="_173062512" data-name=" 173062512" d="M180.21,346.74a3.84,3.84,0,0,0,0-7.68h-72a3.84,3.84,0,1,0,0,7.68Z" transform="translate(0 0)"/><path id="_173062560" data-name=" 173062560" d="M180.21,360.62a3.84,3.84,0,0,0,0-7.68h-72a3.84,3.84,0,1,0,0,7.68Z" transform="translate(0 0)"/></g></g><rect class="cls-1" width="491.52" height="491.52"/></svg>