<svg xmlns="http://www.w3.org/2000/svg" viewBox="0 0 491.5 491.5"><defs><style>.cls-1,.cls-2{fill:none;stroke:#000;stroke-linecap:round;stroke-linejoin:round;}.cls-1{stroke-width:4.77px;}.cls-2{stroke-width:5.45px;}</style></defs><g id="Ebene_2" data-name="Ebene 2"><path d="M417.05,451.19C385.1,375,391.87,224,391.94,222.45l4.4.21c-.07,1.51-6.8,151.56,24.77,226.83Z"/><path d="M433.92,68.66a47.17,47.17,0,0,0-7.07.55,46.46,46.46,0,0,0-55-11,46.43,46.43,0,0,0-82.09,19.53c-14.2,4.36-26.17,18.18-32.38,37.42a46.44,46.44,0,0,0,9.43,91.92,47.07,47.07,0,0,0,7.07-.55,46.39,46.39,0,0,0,16.33,11.82A75.88,75.88,0,0,0,298.54,251c14.61,28.7,43.3,39.47,65.49,43.4.18,15.77.89,128.66-15.52,154.77l3.72,2.34c7.72-12.28,12.79-42.82,15-90.78,1.68-35.51,1.13-67.91,1.12-68.23l0-1.84-1.81-.29c-31.06-5.08-52.6-18.93-64-41.18a73.28,73.28,0,0,1-7.87-29.2,46.32,46.32,0,0,0,12.22,2.12c4.08,17.1,12.2,29.62,24.19,37.2,10.48,6.63,21.75,8.16,29.94,8.16a56.84,56.84,0,0,0,11.73-1.12l1.32-.3.32-1.31c2.74-11,1.43-25.12.79-30.43A46.2,46.2,0,0,0,411,198c14.19-4.36,26.17-18.18,32.38-37.42a46.44,46.44,0,0,0-9.43-91.92ZM370.45,262.31c-4.84.8-22.05,2.75-37-6.72-10.75-6.8-18.15-18.08-22-33.52a46.47,46.47,0,0,0,17.47-4.55,46.59,46.59,0,0,0,36.55,17.82,48,48,0,0,0,5.4-.32C371.42,240,372.53,252.44,370.45,262.31Zm70.81-105.82-1.33.24-.39,1.29c-5.83,19-17.43,32.55-31,36.11l-1.38.35-.23,1.41a42,42,0,0,1-75.58,17.55l-1.13-1.56-1.7.91a42,42,0,0,1-52.05-10.07l-.82-1-1.26.23a42,42,0,1,1-14.87-82.75l1.33-.23.39-1.29c5.83-19,17.43-32.55,31-36.11l1.38-.36.23-1.4a42,42,0,0,1,75.58-17.55l1.13,1.56,1.7-.91A42,42,0,0,1,424.31,73l.82,1,1.26-.23a42,42,0,1,1,14.87,82.74Z"/></g><g id="Ebene_4" data-name="Ebene 4"><path class="cls-1" d="M228.17,321.42c-2.32-9.94-6.2-13.08-10.7-13.08H91.14a8.09,8.09,0,0,0-7.9,6.41l-26.49,124c-.14.54.88-.14.61.4-.68,1.57,30,22.55,70.29,3.68,7.49,3.88,30.44,23.84,64.29,2.79,0,0,40.25,18,57.75-2"/><line class="cls-1" x1="124.72" y1="441.01" x2="125.26" y2="376.45"/><line class="cls-1" x1="189.55" y1="443.53" x2="189.14" y2="410.16"/><line class="cls-1" x1="228.44" y1="321.42" x2="250.03" y2="443.53"/><line class="cls-2" x1="73.23" y1="354.59" x2="25.63" y2="353.43"/><line class="cls-2" x1="25.63" y1="353.43" x2="15.89" y2="268.1"/><line class="cls-2" x1="41.83" y1="354.79" x2="30.94" y2="416.29"/><line class="cls-2" x1="235.73" y1="354.59" x2="283.33" y2="353.43"/><line class="cls-2" x1="283.33" y1="353.43" x2="293.14" y2="268.1"/><line class="cls-2" x1="267.19" y1="354.79" x2="278.09" y2="416.29"/></g></svg>