<?xml version="1.0" encoding="UTF-8"?>
<!DOCTYPE svg PUBLIC "-//W3C//DTD SVG 1.1//EN" "http://www.w3.org/Graphics/SVG/1.1/DTD/svg11.dtd">
<!-- Creator: CorelDRAW -->
<svg xmlns="http://www.w3.org/2000/svg" xml:space="preserve" width="6.82666in" height="6.82666in" style="shape-rendering:geometricPrecision; text-rendering:geometricPrecision; image-rendering:optimizeQuality; fill-rule:evenodd; clip-rule:evenodd"
viewBox="0 0 6.82666 6.82666"
 xmlns:xlink="http://www.w3.org/1999/xlink">
 <defs>
  <style type="text/css">
   <![CDATA[
    .fil2 {fill:none}
    .fil1 {fill:black}
    .fil0 {fill:black;fill-rule:nonzero}
   ]]>
  </style>
 </defs>
 <g id="Layer_x0020_1">
  <metadata id="CorelCorpID_0Corel-Layer"/>
  <path class="fil0" d="M0.853327 2.02511l0 -3.93701e-006c0,-0.228051 0.124224,-0.434272 0.32435,-0.582803 0.195594,-0.145161 0.464469,-0.235264 0.759398,-0.235264l1.49696 0c0.011122,0 0.0214488,0.00340945 0.0299961,0.00923228l0.818157 0.47602 -0.0266654 0.0460394 0.0268189 -0.0460984c0.017185,0.00999606 0.0266969,0.028122 0.0265157,0.0466772l0 0.572976c0,0.0210472 -0.0121969,0.0392441 -0.0299055,0.0479213l-0.818157 0.476024 6.29921e-005 0.000110236c-0.00855118,0.00497638 -0.0179134,0.00730315 -0.0271378,0.00723622l-1.49664 0c-0.294921,0 -0.563803,-0.0901024 -0.759394,-0.235268 -0.200134,-0.148528 -0.324354,-0.354748 -0.324354,-0.582799zm0.106669 -3.93701e-006l0 3.93701e-006c0,0.192547 0.107626,0.368701 0.281016,0.497382 0.177921,0.132051 0.424268,0.214016 0.696063,0.214016l1.48283 0 0.782276 -0.455146 0 -0.512508 -0.78228 -0.455146 -1.48283 0c-0.271799,0 -0.518142,0.0819646 -0.696067,0.214012 -0.173386,0.128685 -0.281012,0.304835 -0.281012,0.497386z"/>
  <path class="fil0" d="M4.22798 2.26712c-0.0276142,0.0102402 -0.0416969,0.0409291 -0.0314567,0.0685433 0.0102402,0.0276142 0.0409291,0.0416969 0.0685433,0.0314567 0.236024,-0.0875827 0.738476,0.159272 0.739925,0.159976l-1.5748e-005 3.14961e-005c0.0264803,0.0128937 0.0584055,0.00188189 0.0712992,-0.0245984 0.00375984,-0.00772441 0.00548425,-0.0159094 0.00538583,-0.0239528l0 -0.0233031 0 -0.860327c0,-0.0294528 -0.0238819,-0.0533346 -0.0533346,-0.0533346 -0.00954331,0 -0.0185,0.00251181 -0.026252,0.00690157 -0.0478937,0.0216929 -0.503417,0.223161 -0.728016,0.139819 -0.0276142,-0.0102402 -0.0583031,0.00384252 -0.0685433,0.0314567 -0.0102402,0.0276142 0.00384252,0.0583031 0.0314567,0.0685433 0.214543,0.0796142 0.580756,-0.0492953 0.73802,-0.112862l0 0.721004c-0.159843,-0.0688504 -0.531787,-0.209217 -0.747012,-0.129354z"/>
  <polygon class="fil0" points="2.14305,1.26037 2.14305,2.78984 2.03638,2.78984 2.03638,1.26037 "/>
  <polygon class="fil0" points="1.28471,1.71417 1.67111,1.71417 1.67111,1.82083 1.28471,1.82083 "/>
  <polygon class="fil0" points="1.28471,1.97177 1.67111,1.97177 1.67111,2.07844 1.28471,2.07844 "/>
  <polygon class="fil0" points="1.28471,2.22938 1.67111,2.22938 1.67111,2.33605 1.28471,2.33605 "/>
  <path class="fil0" d="M2.49568 2.7416l0 1.41682 -0.000208661 0.000625984c-0.0013937,0.114287 -0.0667992,0.190516 -0.149602,0.224854 -0.0316575,0.013126 -0.0661378,0.0199252 -0.100638,0.0201654 -0.034378,0.000240157 -0.0688465,-0.00620866 -0.100598,-0.0195709 -0.0792441,-0.0333386 -0.140484,-0.107614 -0.141819,-0.225657l-0.000208661 -0.000417323 0 -1.41682 0.106669 0 0 1.41682 -0.000200787 0c0.000901575,0.0682008 0.0340157,0.110157 0.076811,0.128161 0.0182362,0.00767323 0.0384409,0.011374 0.0589291,0.0112323 0.0203583,-0.000141732 0.0409921,-0.00427165 0.0602205,-0.0122441 0.0464331,-0.0192559 0.0831535,-0.062315 0.0841732,-0.12715l-0.00019685 0 0 -1.41682 0.106669 0z"/>
  <path class="fil1" d="M2.50517 3.06896l0.0684213 0c0.0332126,0 0.060378,0.0271654 0.060378,0.0603701l0 0.126465c0,0.0332087 -0.0271654,0.060374 -0.060378,0.060374l-0.0684213 0 0 -0.247209z"/>
  <path class="fil0" d="M5.97333 4.60923c0,-0.0294528 -0.0238819,-0.0533346 -0.0533346,-0.0533346 -0.0294528,0 -0.0533346,0.0238819 -0.0533346,0.0533346 0,0.372929 -0.112047,0.61452 -0.261854,0.753268 -0.0768189,0.0711535 -0.163705,0.115303 -0.25015,0.136209 -0.0853465,0.0206457 -0.170248,0.0184606 -0.244343,-0.00285039 -0.094937,-0.0273031 -0.171142,-0.0862087 -0.204921,-0.168252 -0.122898,-0.709472 -0.429228,-0.881008 -0.798638,-0.817736 -0.300756,0.0515118 -0.637921,0.266634 -0.947744,0.464303 -0.304315,0.194157 -0.581098,0.370748 -0.74361,0.343886 -0.158193,-0.0261457 -0.218724,-0.272602 -0.106839,-0.949531 0.00471654,-0.0289921 -0.0149646,-0.0563268 -0.0439567,-0.0610433 -0.0289921,-0.00471654 -0.0563268,0.0149646 -0.0610433,0.0439567 -0.124799,0.755059 -0.0282717,1.03476 0.194752,1.07162 0.202224,0.0334252 0.495417,-0.153634 0.817776,-0.359303 0.300886,-0.191969 0.628327,-0.400886 0.908579,-0.448886 0.309165,-0.0529528 0.567409,0.101992 0.676189,0.733256 0.000519685,0.00433071 0.00157874,0.00866535 0.00322441,0.0129213l0.000161417 -6.29921e-005c0.0453858,0.117409 0.148795,0.200524 0.276906,0.23737 0.0907677,0.0261063 0.194496,0.0288465 0.298508,0.00368504 0.102913,-0.0248898 0.206169,-0.0772874 0.297228,-0.161626 0.169594,-0.157079 0.296445,-0.424764 0.296445,-0.831181z"/>
  <path class="fil0" d="M5.33439 1.76086c0.0213858,0 0.0475118,-0.00990551 0.0736299,-0.0198031 0.0354606,-0.0134409 0.0709252,-0.0268898 0.111122,-0.0268898 0.040189,0 0.0756575,0.0134449 0.111126,0.0268898 0.0261142,0.00989764 0.0522362,0.0198031 0.073626,0.0198031 0.0213898,0 0.0475157,-0.00990157 0.0736339,-0.0198031 0.0354646,-0.0134409 0.0709331,-0.0268898 0.111126,-0.0268898l0 0.106669c-0.0213898,0 -0.0475118,0.00990551 -0.0736299,0.0198031 -0.0354606,0.0134409 -0.070937,0.0268898 -0.11113,0.0268898 -0.0401969,0 -0.0756614,-0.0134488 -0.111122,-0.0268898 -0.0261181,-0.00989764 -0.0522441,-0.0198031 -0.0736299,-0.0198031 -0.0213898,0 -0.0475118,0.00990551 -0.073626,0.0198031 -0.0354685,0.0134449 -0.070937,0.0268898 -0.111126,0.0268898l0 -0.106669z"/>
  <path class="fil0" d="M5.33439 1.96694c0.0275276,0 0.0610079,0.00131496 0.0944606,0.00262205 0.0281299,0.00110236 0.0562638,0.00220866 0.0902913,0.00220866 0.0340236,0 0.0621614,-0.0011063 0.0902953,-0.00220866 0.0334488,-0.00130709 0.0669291,-0.00262205 0.0944567,-0.00262205 0.0275591,0 0.0610157,0.00131496 0.0944646,0.00262598 0.0281299,0.00109843 0.0562441,0.00220472 0.0902953,0.00220472l0 0.106669c-0.0275276,0 -0.0610079,-0.00131496 -0.0944606,-0.00262205 -0.0281299,-0.00110236 -0.0562756,-0.00220866 -0.0902992,-0.00220866 -0.0340512,0 -0.0621654,0.0011063 -0.0902913,0.00220472 -0.0334528,0.00131102 -0.0669094,0.00262598 -0.0944606,0.00262598 -0.0275591,0 -0.0610118,-0.00131496 -0.0944567,-0.00262598 -0.0281299,-0.00109843 -0.0562441,-0.00220472 -0.0902953,-0.00220472l0 -0.106669z"/>
  <path class="fil0" d="M5.33439 2.17303c0.0419409,0 0.0782008,0.0165906 0.114461,0.0331732 0.0253228,0.0115866 0.0506535,0.0231772 0.0702913,0.0231772 0.0196339,0 0.0449685,-0.0115906 0.0702953,-0.0231772 0.036252,-0.0165827 0.0725118,-0.0331732 0.114457,-0.0331732 0.0419409,0 0.0782126,0.0165906 0.114465,0.0331772 0.0253228,0.0115827 0.0506575,0.0231732 0.0702953,0.0231732l0 0.106669c-0.0419449,0 -0.0782047,-0.0165906 -0.114461,-0.0331732 -0.0253228,-0.0115866 -0.0506575,-0.0231772 -0.0702992,-0.0231772 -0.0196417,0 -0.0449724,0.0115906 -0.0702913,0.0231732 -0.0362559,0.0165866 -0.0725197,0.0331772 -0.114461,0.0331772 -0.041937,0 -0.0782047,-0.0165906 -0.114457,-0.0331772 -0.0253268,-0.0115866 -0.0506614,-0.0231732 -0.0702953,-0.0231732l0 -0.106669z"/>
 </g>
 <rect class="fil2" width="6.82666" height="6.82666"/>
</svg>
