<?xml version="1.0" encoding="UTF-8"?>
<!DOCTYPE svg PUBLIC "-//W3C//DTD SVG 1.1//EN" "http://www.w3.org/Graphics/SVG/1.1/DTD/svg11.dtd">
<!-- Creator: CorelDRAW -->
<svg xmlns="http://www.w3.org/2000/svg" xml:space="preserve" width="6.82666in" height="6.82666in" style="shape-rendering:geometricPrecision; text-rendering:geometricPrecision; image-rendering:optimizeQuality; fill-rule:evenodd; clip-rule:evenodd"
viewBox="0 0 6.82666 6.82666"
 xmlns:xlink="http://www.w3.org/1999/xlink">
 <defs>
  <style type="text/css">
   <![CDATA[
    .fil2 {fill:none}
    .fil1 {fill:black}
    .fil0 {fill:black;fill-rule:nonzero}
   ]]>
  </style>
 </defs>
 <g id="Layer_x0020_1">
  <metadata id="CorelCorpID_0Corel-Layer"/>
  <g id="_170928304">
   <path id="_171920224" class="fil0" d="M0.906665 2.60249l5.00201 0 0.0533346 0 0 0.0533346 0 3.01238c0,0.067689 -0.0276575,0.129189 -0.0722047,0.173736 -0.0445472,0.0445472 -0.106047,0.0722047 -0.173736,0.0722047l-4.6168 0c-0.067689,0 -0.129193,-0.0276535 -0.17374,-0.0722008 -0.0445472,-0.0445472 -0.0722008,-0.106051 -0.0722008,-0.17374l0 -3.01238 0 -0.0533346 0.0533346 0zm4.94868 0.106669l-4.89534 0 0 2.95905c0,0.0382441 0.015685,0.0730591 0.0409488,0.0983228 0.0252638,0.0252638 0.0600787,0.0409488 0.0983228,0.0409488l4.6168 0c0.0382441,0 0.0730551,-0.015689 0.0983189,-0.0409528 0.0252638,-0.0252638 0.0409528,-0.0600748 0.0409528,-0.0983189l0 -2.95905z"/>
   <polygon id="_171920128" class="fil0" points="5.85534,2.67211 5.85534,1.82687 5.85534,1.03035 2.93585,1.03035 0.96,1.03035 0.96,2.67211 0.853331,2.67211 0.853331,0.977016 0.853331,0.923681 0.906665,0.923681 2.93585,0.923681 5.90868,0.923681 5.96201,0.923681 5.96201,0.977016 5.96201,1.82687 5.96201,2.67211 "/>
   <polygon id="_171919528" class="fil0" points="5.92,1.8779 2.3343,1.8779 2.3343,1.77123 5.92,1.77123 "/>
   <g>
    <polygon id="_171920320" class="fil0" points="2.41652,1.85959 1.56048,1.00356 1.6359,0.928138 2.49194,1.78418 "/>
    <polygon id="_171920848" class="fil0" points="2.49194,1.85959 1.64446,2.70707 1.56904,2.63166 2.41652,1.78418 "/>
   </g>
   <g>
    <polygon id="_171920728" class="fil0" points="3.80166,1.85959 2.94562,1.00356 3.02104,0.928138 3.87708,1.78418 "/>
    <polygon id="_171921880" class="fil0" points="3.87708,1.85959 3.0296,2.70707 2.95418,2.63166 3.80166,1.78418 "/>
   </g>
   <g>
    <polygon id="_171921088" class="fil0" points="5.1868,1.85959 4.33076,1.00356 4.40618,0.928138 5.26222,1.78418 "/>
    <polygon id="_171920680" class="fil0" points="5.26222,1.85959 4.41474,2.70707 4.33932,2.63166 5.1868,1.78418 "/>
   </g>
   <g>
    <g>
     <circle id="_170930536" class="fil1" cx="1.23051" cy="1.31217" r="0.0799994"/>
     <circle id="_170930272" class="fil1" cx="1.23051" cy="2.33696" r="0.0799994"/>
    </g>
    <circle id="_170927560" class="fil1" cx="1.92125" cy="1.82457" r="0.0800008"/>
   </g>
   <g>
    <path id="_170928736" class="fil0" d="M3.96747 4.30333l-0.838693 0.525 -0.0814606 0.0509921 0 -0.0959921 0 -1.05 0 -0.0959961 0.0814606 0.0509961 0.838693 0.525 0.0718858 0.045 -0.0718858 0.045zm-0.813484 0.384008l0.685343 -0.429008 -0.685343 -0.429008 0 0.858016z"/>
    <path id="_170928544" class="fil0" d="M3.40767 3.21297c0.288661,0 0.55,0.117008 0.739173,0.306185 0.189177,0.189173 0.306185,0.450516 0.306185,0.739173 0,0.288661 -0.117008,0.55 -0.306185,0.739173 -0.189173,0.189177 -0.450512,0.306185 -0.739173,0.306185 -0.288661,0 -0.55,-0.117008 -0.739173,-0.306185 -0.189177,-0.189173 -0.306185,-0.450512 -0.306185,-0.739173 0,-0.288657 0.117008,-0.55 0.306185,-0.739173 0.189173,-0.189177 0.450512,-0.306185 0.739173,-0.306185zm0.663756 0.381602c-0.169862,-0.169866 -0.404539,-0.274933 -0.663756,-0.274933 -0.259217,0 -0.493894,0.105067 -0.663756,0.274933 -0.169866,0.169862 -0.274933,0.404543 -0.274933,0.663756 0,0.259217 0.105067,0.493894 0.274933,0.663756 0.169862,0.169866 0.404539,0.274933 0.663756,0.274933 0.259217,0 0.493894,-0.105067 0.663756,-0.274933 0.169866,-0.169862 0.274933,-0.404539 0.274933,-0.663756 0,-0.259213 -0.105067,-0.493894 -0.274933,-0.663756z"/>
   </g>
  </g>
 </g>
 <rect class="fil2" width="6.82666" height="6.82666"/>
</svg>
