<svg xmlns="http://www.w3.org/2000/svg" viewBox="0 0 491.5 491.5"><defs><style>.cls-1{fill:none;stroke:#000;stroke-linecap:round;stroke-linejoin:round;stroke-width:4.19px;}</style></defs><g id="Ebene_2" data-name="Ebene 2"><path d="M71.64,83.54V425.31H413.41V83.54ZM407.41,251.42H245.53V89.54H407.41ZM77.64,89.54H239.53V251.42H77.64V89.54Zm0,329.77,0-161.89H239.53V419.31Zm167.86,0V257.42H407.41V419.31Z"/></g><g id="Ebene_4" data-name="Ebene 4"><path class="cls-1" d="M158.61,121.45s.65,48.09,39.43,77.72v0c-38.79,29.63-39.44,77.72-39.44,77.72l0,0s-.64-48.09-39.43-77.71h0c38.79-29.63,39.44-77.72,39.44-77.72"/><path class="cls-1" d="M310.4,165.38s.65,48.09,39.44,77.72h0C311,272.71,310.4,320.8,310.4,320.8l0,.05s-.65-48.09-39.44-77.72h0c38.79-29.62,39.43-77.71,39.43-77.71"/><path class="cls-1" d="M222.45,244.6s.64,48.09,39.43,77.72h0C223.09,351.93,222.44,400,222.44,400l0,.05S221.76,352,183,322.35h0c38.79-29.62,39.44-77.72,39.44-77.72"/></g></svg>