<svg xmlns="http://www.w3.org/2000/svg" viewBox="0 0 491.5 491.5"><g id="Layer_7" data-name="Layer 7"><path d="M158.14,468a38.23,38.23,0,0,1-38.07-37.56v-.16c0-.12,0-.24,0-.37a38.09,38.09,0,0,1,76.17,0c0,.12,0,.24,0,.36v.17A38.22,38.22,0,0,1,158.14,468Zm0-71.17a33.12,33.12,0,0,0-33.09,33.08l0,.47a33.07,33.07,0,0,0,66.13,0l0-.46A33.12,33.12,0,0,0,158.14,396.79Z"/><path d="M336.62,468a38.23,38.23,0,0,1-38.07-37.56v-.16c0-.12,0-.24,0-.37a38.09,38.09,0,0,1,76.17,0c0,.12,0,.24,0,.36v.17A38.22,38.22,0,0,1,336.62,468Zm0-71.17a33.12,33.12,0,0,0-33.09,33.08l0,.47a33.07,33.07,0,0,0,66.13,0l0-.46A33.12,33.12,0,0,0,336.62,396.79Z"/><path d="M386.88,432.87h-3.36a2.49,2.49,0,0,1-1.78-.75,2.46,2.46,0,0,1-.72-1.78l0-.47a44.42,44.42,0,0,0-88.84,0v.47a2.46,2.46,0,0,1-.72,1.78,2.49,2.49,0,0,1-1.78.75H205a2.49,2.49,0,0,1-1.78-.75,2.46,2.46,0,0,1-.72-1.78v-.47a44.42,44.42,0,0,0-88.83,0v.47a2.46,2.46,0,0,1-.72,1.78,2.49,2.49,0,0,1-1.78.75H108a14.52,14.52,0,0,1-14.5-14.5V281.8A14.52,14.52,0,0,1,108,267.3H386.88a14.51,14.51,0,0,1,14.5,14.5V418.37A14.52,14.52,0,0,1,386.88,432.87Zm-.88-5h.88a9.51,9.51,0,0,0,9.5-9.5V281.8a9.51,9.51,0,0,0-9.5-9.5H108a9.51,9.51,0,0,0-9.5,9.5V418.37a9.51,9.51,0,0,0,9.5,9.5h.77a49.42,49.42,0,0,1,98.75,0h79.73a49.42,49.42,0,0,1,98.76,0Z"/><path d="M435.33,216H66.2a2.5,2.5,0,0,1-2.5-2.5V213a2.29,2.29,0,0,1,0-.25V103.41a2.52,2.52,0,0,1,.74-1.77,2.48,2.48,0,0,1,1.76-.73h0L94.8,101a2.5,2.5,0,0,1,2.37,1.71L114,153.14c1.24-.09,2.48-.13,3.69-.13h83L170.83,36a2.51,2.51,0,0,1,2.42-3.12h0l38,.1a2.49,2.49,0,0,1,2.21,1.36L274.28,153H383.8a54.1,54.1,0,0,1,54,54v6.48A2.5,2.5,0,0,1,435.33,216ZM68.68,211H432.83v-4a49.09,49.09,0,0,0-49-49h-111a2.5,2.5,0,0,1-2.22-1.36L209.73,38l-33.26-.08,29.89,117a2.51,2.51,0,0,1-2.42,3.12H117.73a50.17,50.17,0,0,0-5.17.27,2.5,2.5,0,0,1-2.63-1.69L93,106l-24.31,0Z"/><path d="M183.62,295.27H164.56v-6.88H211v6.88H191.8v55.79h-8.18Z"/><path d="M221.12,331.35l-6.51,19.71h-8.37l21.29-62.67h9.77l21.39,62.67H250l-6.7-19.71ZM241.67,325l-6.13-18c-1.4-4.1-2.33-7.81-3.26-11.44h-.19c-.93,3.72-2,7.53-3.15,11.34L222.79,325Z"/><path d="M300.93,351.06l-8-13.85c-3.26-5.3-5.3-8.74-7.26-12.37h-.19c-1.76,3.63-3.52,7-6.78,12.46l-7.53,13.76h-9.3L281,319.35l-18.42-31H272l8.27,14.69c2.33,4.09,4.09,7.26,5.77,10.6h.28c1.76-3.71,3.34-6.6,5.67-10.6l8.55-14.69h9.3l-19.06,30.5,19.53,32.17Z"/><path d="M327.84,288.39v62.67h-8.1V288.39Z"/></g></svg>