<?xml version="1.0" encoding="UTF-8"?>
<!DOCTYPE svg PUBLIC "-//W3C//DTD SVG 1.1//EN" "http://www.w3.org/Graphics/SVG/1.1/DTD/svg11.dtd">
<!-- Creator: CorelDRAW -->
<svg xmlns="http://www.w3.org/2000/svg" xml:space="preserve" width="6.82666in" height="6.82666in" style="shape-rendering:geometricPrecision; text-rendering:geometricPrecision; image-rendering:optimizeQuality; fill-rule:evenodd; clip-rule:evenodd"
viewBox="0 0 6.82666 6.82666"
 xmlns:xlink="http://www.w3.org/1999/xlink">
 <defs>
  <style type="text/css">
   <![CDATA[
    .fil1 {fill:none}
    .fil0 {fill:black;fill-rule:nonzero}
   ]]>
  </style>
 </defs>
 <g id="Layer_x0020_1">
  <metadata id="CorelCorpID_0Corel-Layer"/>
  <g id="_174123304">
   <path id="_174124072" class="fil0" d="M4.47149 4.58841l1.44851 0 0.0533346 0 0 0.0533346 0 0.289697 0 0.0533307 -0.0533346 3.93701e-006 -1.44851 0 -0.0533346 -3.93701e-006 0 -0.0533307 0 -0.289697 0 -0.0533346 0.0533346 0zm1.39517 0.106669l-1.34184 0 0 0.183028 1.34184 0 0 -0.183028z"/>
   <path id="_174124000" class="fil0" d="M5.13734 4.70257c-0.0021811,-0.441071 -0.00358661,-0.94511 -0.00205512,-1.38213 0.0011811,-0.338728 0.00412992,-0.637024 0.0098189,-0.83448 0.021937,-0.760878 -0.650055,-0.748008 -0.65198,-0.747996l-0.00187402 0c-0.808685,-0.0283189 -0.692787,0.867543 -0.684748,0.923752l0.219232 0.921724 0.00125197 0.01c0.0160551,0.371516 -0.175669,0.564012 -0.411228,0.648421 -0.12111,0.0433976 -0.25339,0.0572165 -0.373657,0.0517717 -0.121224,-0.00548819 -0.231598,-0.0305945 -0.307177,-0.0648189 -0.0901457,-0.0408307 -0.138752,-0.0991969 -0.121276,-0.164449l0.102913 0.0274961c-0.00187008,0.00699213 0.0224213,0.0218976 0.0621102,0.039874 0.0645906,0.029252 0.160764,0.0507913 0.268012,0.0556457 0.108213,0.00489764 0.226382,-0.00722835 0.33324,-0.0455197 0.194205,-0.0695906 0.352394,-0.229268 0.341004,-0.538287l-0.218598 -0.919055 -0.000834646 -0.00458268c-0.000452756,-0.00309843 -0.169161,-1.08146 0.79248,-1.04824 0.0334213,-0.00023622 0.781996,0.0033937 0.757382,0.857173 -0.00570079,0.197748 -0.00864173,0.494839 -0.0098189,0.831567 -0.00152756,0.436831 -0.000122047,0.940736 0.00205512,1.38171l-0.106252 0.000417323z"/>
   <g>
    <path id="_174123928" class="fil0" d="M1.55526 2.83528c0,-0.0294528 -0.0238819,-0.0533346 -0.0533346,-0.0533346 -0.0294528,0 -0.0533346,0.0238819 -0.0533346,0.0533346l0 1.03356c0,0.0294528 0.0238819,0.0533346 0.0533346,0.0533346 0.0294528,0 0.0533346,-0.0238819 0.0533346,-0.0533346l0 -1.03356z"/>
    <path id="_174123832" class="fil0" d="M1.95278 2.83528c0,-0.0294528 -0.0238819,-0.0533346 -0.0533346,-0.0533346 -0.0294528,0 -0.0533346,0.0238819 -0.0533346,0.0533346l0 1.03356c0,0.0294528 0.0238819,0.0533346 0.0533346,0.0533346 0.0294528,0 0.0533346,-0.0238819 0.0533346,-0.0533346l0 -1.03356z"/>
    <path id="_174123784" class="fil0" d="M2.3503 2.83528c0,-0.0294528 -0.0238819,-0.0533346 -0.0533346,-0.0533346 -0.0294528,0 -0.0533346,0.0238819 -0.0533346,0.0533346l0 1.03356c0,0.0294528 0.0238819,0.0533346 0.0533346,0.0533346 0.0294528,0 0.0533346,-0.0238819 0.0533346,-0.0533346l0 -1.03356z"/>
   </g>
   <path id="_174123664" class="fil0" d="M2.168 1.83274c0,0.0294528 0.0238819,0.0533346 0.0533346,0.0533346 0.0294528,0 0.0533346,-0.0238819 0.0533346,-0.0533346l0 -0.251079c0,-0.0294528 -0.0238819,-0.0533346 -0.0533346,-0.0533346l-0.522567 0c-0.0294528,0 -0.0533346,0.0238819 -0.0533346,0.0533346l0 0.251079c0,0.0294528 0.0238819,0.0533346 0.0533346,0.0533346 0.0294528,0 0.0533346,-0.0238819 0.0533346,-0.0533346l0 -0.197744 0.415898 0 0 0.197744z"/>
   <path id="_174123592" class="fil0" d="M0.93378 1.85022l1.93133 0c0.0294528,0 0.0533346,0.0238819 0.0533346,0.0533346l0 2.89699c0,0.0294528 -0.0238819,0.0533346 -0.0533346,0.0533346l-1.93133 0c-0.0294528,0 -0.0533346,-0.0238819 -0.0533346,-0.0533346l0 -2.89699c0,-0.0294528 0.0238819,-0.0533346 0.0533346,-0.0533346zm1.87799 0.106669l-1.82466 0 0 2.79032 1.82466 0 0 -2.79032z"/>
   <path id="_174123520" class="fil0" d="M2.92117 2.39483c-0.130606,0.0651732 -0.283571,0.117433 -0.451945,0.153016 -0.161362,0.0340984 -0.336492,0.0528189 -0.519154,0.0528189 -0.207248,0 -0.404811,-0.0241181 -0.583594,-0.0674724 -0.186346,-0.0451929 -0.352185,-0.111535 -0.487311,-0.193492l0.055 -0.0908346c0.125756,0.0762756 0.281366,0.138327 0.457311,0.180996 0.169933,0.0412087 0.358969,0.0641339 0.558594,0.0641339 0.175996,0 0.343772,-0.0178346 0.497484,-0.050315 0.158764,-0.0335512 0.302984,-0.0828228 0.426118,-0.144268l0.0474961 0.0954173z"/>
   <g>
    <path id="_174123376" class="fil0" d="M1.45344 4.7432l0 0.357969c0,0.0542795 -0.0221693,0.103587 -0.057874,0.139295 -0.0357047,0.0357047 -0.0850157,0.057874 -0.139291,0.057874l-7.87402e-006 0c-0.0542795,0 -0.103587,-0.0221693 -0.139295,-0.057874 -0.0357047,-0.0357087 -0.057874,-0.0850157 -0.057874,-0.139295l0 -0.357969 0.106669 0 0 0.357969c0,0.0248346 0.0101969,0.0474528 0.026622,0.063878 0.0164252,0.0164252 0.0390433,0.026622 0.063878,0.026622l7.87402e-006 0c0.0248307,0 0.0474528,-0.0102008 0.063874,-0.026622 0.0164252,-0.0164252 0.026622,-0.0390433 0.026622,-0.063878l0 -0.357969 0.106669 0z"/>
    <path id="_174123424" class="fil0" d="M2.73978 4.7432l0 0.357969c0,0.0542795 -0.0221693,0.103587 -0.057874,0.139295 -0.0357087,0.0357047 -0.0850236,0.057874 -0.139295,0.057874l-3.93701e-006 0c-0.0542795,0 -0.103587,-0.0221693 -0.139295,-0.057874 -0.0357047,-0.0357087 -0.057874,-0.0850157 -0.057874,-0.139295l0 -0.357969 0.106669 0 0 0.357969c0,0.0248346 0.0101969,0.0474528 0.026622,0.063878 0.0164252,0.0164252 0.0390433,0.026622 0.063878,0.026622l3.93701e-006 0c0.0248307,0 0.0474528,-0.0102008 0.063878,-0.026622 0.0164252,-0.0164252 0.026622,-0.0390433 0.026622,-0.063878l0 -0.357969 0.106669 0z"/>
   </g>
  </g>
 </g>
 <rect class="fil1" width="6.82666" height="6.82666"/>
</svg>
