<svg xmlns="http://www.w3.org/2000/svg" viewBox="0 0 491.5 491.5"><defs><style>.cls-1,.cls-2,.cls-3,.cls-4,.cls-5{fill:none;stroke:#000;}.cls-1,.cls-5{stroke-linecap:round;}.cls-1{stroke-linejoin:round;}.cls-1,.cls-2{stroke-width:6px;}.cls-2,.cls-3,.cls-4,.cls-5{stroke-miterlimit:10;}.cls-3{stroke-width:5px;}.cls-4{stroke-width:4.97px;}.cls-5{stroke-width:5.38px;}</style></defs><g id="Ebene_2" data-name="Ebene 2"><line class="cls-1" x1="81.61" y1="284.19" x2="378.93" y2="284.19"/><path class="cls-2" d="M427.84,448.47,339.9,408.59l-.14-.07a20,20,0,0,1-6.7-4.44l-62.69-62.92L180.14,341a20,20,0,0,1-20-20h0a20,20,0,0,1,20-20l96.56.18a26.93,26.93,0,0,1,16.47,6.27l65.55,65.8,85.56,38.81a20,20,0,0,1,9.95,26.46h0A20,20,0,0,1,427.84,448.47Z"/></g><g id="Ebene_4" data-name="Ebene 4"><path class="cls-3" d="M379.21,145.58l38,99.38H51.62S68.8,150.48,379.21,145.58Z"/><path class="cls-3" d="M379.21,145.58S365.72,43.74,194,53.56c0,0-33.13,1.22-29.45,23.31S217.26,94,217.26,94,304.37,83,337.5,146.8"/><line class="cls-4" x1="66.51" y1="221.64" x2="407.43" y2="221.64"/><polyline class="cls-3" points="205.54 159.46 205.54 143.94 253.51 143.94 253.51 153.35"/><circle class="cls-5" cx="341.96" cy="190.46" r="14.82"/><circle class="cls-5" cx="302.03" cy="190.46" r="14.82"/><circle class="cls-5" cx="262.09" cy="190.46" r="14.82"/></g></svg>