<svg xmlns="http://www.w3.org/2000/svg" viewBox="0 0 491.5 491.5"><defs><style>.cls-1,.cls-2,.cls-3{fill:none;}.cls-1,.cls-2,.cls-3,.cls-4{stroke:#000;}.cls-1{stroke-linecap:round;stroke-linejoin:round;}.cls-1,.cls-2{stroke-width:6px;}.cls-2,.cls-3,.cls-4{stroke-miterlimit:10;}.cls-3,.cls-4{stroke-width:0.75px;}</style></defs><g id="Ebene_2" data-name="Ebene 2"><line class="cls-1" x1="66.02" y1="300.84" x2="363.33" y2="300.84"/><path class="cls-2" d="M412.24,465.12,324.3,425.24l-.14-.07a19.86,19.86,0,0,1-6.69-4.44l-62.69-62.92-90.24-.17a20,20,0,0,1-20-20h0a20,20,0,0,1,20-20l96.56.18a26.93,26.93,0,0,1,16.47,6.27l65.55,65.8,85.56,38.81a20,20,0,0,1,9.95,26.46h0A20,20,0,0,1,412.24,465.12Z"/></g><g id="Ebene_4" data-name="Ebene 4"><rect class="cls-3" x="159.21" y="171.93" width="25.6" height="106.67"/><rect class="cls-3" x="188.62" y="171.93" width="77.27" height="106.67"/><path class="cls-4" d="M159.21,278.59V171.93h25.6v-3.81H159.22v1.42a1.9,1.9,0,1,1-3.8,0v-1.42h0V282.4h29.4v-3.81Z"/><polygon class="cls-4" points="186.71 171.93 184.81 171.93 184.81 278.59 188.62 278.59 188.62 171.93 186.72 171.93 186.71 171.93 186.71 171.93"/><path class="cls-4" d="M185.86,171.72a1.9,1.9,0,0,1-.85-2.55l.53-1h-.73v3.81h1.9A2,2,0,0,1,185.86,171.72Z"/><path class="cls-4" d="M267.78,171.93a1.91,1.91,0,0,1-1.9-1.91v-1.9H189.79l-1.38,2.75a1.9,1.9,0,0,1-1.69,1.06h79.16V278.59H184.81v3.81h84.87V170A1.91,1.91,0,0,1,267.78,171.93Z"/><path class="cls-4" d="M319.67,121.27,250.75,52.35l-.4.4a1.82,1.82,0,0,1,.73.7,1.92,1.92,0,0,1,0,1.91l-2.78,4.82,2.45-2.45,63.54,63.54-31.15,31.15-14-14a1.92,1.92,0,0,1,.55,1.34v4.59l13.46,13.46Z"/><polygon class="cls-4" points="265.88 168.12 269.69 168.12 269.69 144.34 265.88 140.54 265.88 168.12"/><path class="cls-4" d="M265.88,170a1.9,1.9,0,1,0,3.8,0v-1.9h-3.8Z"/><path class="cls-4" d="M269.13,138.41h0a1.93,1.93,0,0,0-1.35-.56,1.9,1.9,0,0,0-1.9,1.9v.79l3.8,3.8v-4.59A1.92,1.92,0,0,0,269.13,138.41Z"/><path class="cls-4" d="M156,137.93l-14,14-31.16-31.16,63.68-63.67,2.15,2.14-2.25-3.89a1.92,1.92,0,0,1,0-1.91,1.88,1.88,0,0,1,1-.82l-.9-.9-69.05,69.05L142,157.31l13.45-13.45v-4.59A1.85,1.85,0,0,1,156,137.93Z"/><polygon class="cls-4" points="159.22 140.06 155.42 143.86 155.42 168.12 159.22 168.12 159.22 140.06"/><path class="cls-4" d="M157.32,171.44a1.9,1.9,0,0,0,1.9-1.9v-1.42h-3.8v1.42A1.9,1.9,0,0,0,157.32,171.44Z"/><path class="cls-4" d="M159.22,139.27a1.9,1.9,0,0,0-3.24-1.35h0a1.85,1.85,0,0,0-.56,1.34v4.59l3.8-3.8Z"/><path class="cls-4" d="M212.73,114.17,202.62,96.66l-2.78,2.78L210.58,118l.45-.92a1.91,1.91,0,0,1,3.41,1.7l0,.05L225.32,100l-2.78-2.78Z"/><polygon class="cls-4" points="224.5 93.79 227.29 96.57 248.3 60.18 237.91 70.56 224.5 93.79"/><path class="cls-4" d="M179.33,56.31h66.81l-.88,1.53,5.09-5.09a1.8,1.8,0,0,0-.91-.25H176a2,2,0,0,0-.64.13l4.29,4.29Z"/><polygon class="cls-4" points="200.65 93.25 187.02 69.64 176.63 59.25 197.87 96.03 200.65 93.25"/><polygon class="cls-4" points="225.32 99.98 227.29 96.57 224.5 93.79 222.53 97.19 225.32 99.98"/><path class="cls-4" d="M237.91,70.57,248.3,60.18l2.78-4.82a1.92,1.92,0,0,0,0-1.91,1.82,1.82,0,0,0-.73-.7l-5.09,5.09Z"/><polygon class="cls-4" points="200.65 93.25 197.87 96.03 199.84 99.44 202.62 96.66 200.65 93.25"/><path class="cls-4" d="M174.39,53.45a1.92,1.92,0,0,0,0,1.91l2.25,3.89L187,69.64l-7.34-12.72-4.29-4.29A1.88,1.88,0,0,0,174.39,53.45Z"/><path class="cls-4" d="M214.38,118.92a1.9,1.9,0,0,1-3.29,0l-.51-.88-25,50.08h4.25l24.62-49.25Z"/><polygon class="cls-4" points="186.71 171.93 186.72 171.93 186.71 171.93 186.71 171.93"/><path class="cls-4" d="M185,169.17a1.9,1.9,0,0,0,.85,2.55,2,2,0,0,0,.85.21h0a1.9,1.9,0,0,0,1.69-1.06l1.38-2.75h-4.25Z"/><path class="cls-4" d="M213.58,116.27a1.9,1.9,0,0,0-2.55.85l-.45.92.51.88a1.9,1.9,0,0,0,3.29,0l0,0,0-.05A1.91,1.91,0,0,0,213.58,116.27Z"/></g></svg>