<?xml version="1.0" encoding="utf-8"?>
<!-- Generator: Adobe Illustrator 25.0.0, SVG Export Plug-In . SVG Version: 6.00 Build 0)  -->
<svg version="1.1" xmlns="http://www.w3.org/2000/svg" xmlns:xlink="http://www.w3.org/1999/xlink" x="0px" y="0px"
	 viewBox="0 0 503.6 503.6" style="enable-background:new 0 0 503.6 503.6;" xml:space="preserve">
<style type="text/css">
	.st0{fill:none;stroke:#000000;stroke-width:7.4015;stroke-linecap:round;stroke-linejoin:round;stroke-miterlimit:10;}
	.st1{fill:none;stroke:#000000;stroke-width:6;stroke-linecap:round;stroke-linejoin:round;stroke-miterlimit:10;}
	.st2{fill:none;stroke:#000000;stroke-width:6.402;stroke-linecap:round;stroke-linejoin:round;stroke-miterlimit:10;}
	.st3{fill:none;stroke:#000000;stroke-width:10.2219;stroke-linecap:round;stroke-linejoin:round;stroke-miterlimit:10;}
	.st4{fill:none;stroke:#000000;stroke-width:7.0057;stroke-linecap:round;stroke-linejoin:round;stroke-miterlimit:10;}
	.st5{fill:none;stroke:#000000;stroke-width:7;stroke-linecap:round;stroke-linejoin:round;stroke-miterlimit:10;}
	.st6{fill:none;stroke:#000000;stroke-width:7.3714;stroke-linecap:round;stroke-linejoin:round;stroke-miterlimit:10;}
	.st7{fill:none;stroke:#000000;stroke-width:6.9373;stroke-linecap:round;stroke-linejoin:round;stroke-miterlimit:10;}
	.st8{fill:none;stroke:#000000;stroke-width:6.4608;stroke-linecap:round;stroke-linejoin:round;stroke-miterlimit:10;}
	.st9{fill:none;stroke:#000000;stroke-width:5;stroke-linecap:round;stroke-linejoin:round;stroke-miterlimit:10;}
</style>
<g id="New_icon">
	<path class="st0" d="M429.2,97.4"/>
	<path class="st0" d="M71.2,103.8"/>
	<path class="st0" d="M429.2,275"/>
	<path class="st1" d="M140.8-13.9"/>
	<path class="st2" d="M257.1,450.3"/>
	<path class="st3" d="M170.5,490.2"/>
	<path class="st3" d="M332.1,490.2"/>
	<path class="st4" d="M85.4,418.7V184.8c0-46.9,38.5-85.2,85.5-85.2h162.5c47,0,85.5,38.3,85.5,85.2v233.9"/>
	<line class="st5" x1="52.5" y1="418.7" x2="449.8" y2="418.7"/>
	<path class="st6" d="M199.6,97.4V74.8c0-3.1,2.6-5.7,5.7-5.7H298c3.1,0,5.7,2.6,5.7,5.7v22.6"/>
	<path class="st5" d="M229.4,64.1c0-13.1,9.7-23.7,21.8-23.7s21.8,10.6,21.8,23.7"/>
	<circle class="st5" cx="121" cy="441.8" r="23.1"/>
	<circle class="st5" cx="382.6" cy="441.8" r="23.1"/>
	<path class="st5" d="M121,418.7v-140c0-6.6,5.4-12,12-12h106.1c6.6,0,12,5.4,12,12v138.5"/>
	<path class="st7" d="M261,289.7h111.2c6.3-0.8,11.7,4.5,11.7,11v116.7"/>
	<path class="st5" d="M251.8,406.7"/>
	<path class="st7" d="M251.1,297.1c1.8-5.2,4.7-7.9,10.9-7.4"/>
	<path class="st1" d="M226.4,266.7h-78c-3.1,0-5.7-2.6-5.7-5.7v-47.2c0-3.1,2.6-5.7,5.7-5.7h78c3.1,0,5.7,2.6,5.7,5.7V261
		C232.1,264.1,229.5,266.7,226.4,266.7z"/>
	<path class="st8" d="M186.8,227.9"/>
	<path class="st1" d="M157.8,206.5c0-13.6,13-28,29-28s29,14.4,29,28"/>
	<line class="st8" x1="121" y1="353.5" x2="249.8" y2="353.5"/>
	<line class="st8" x1="251.8" y1="332.7" x2="383.9" y2="332.7"/>
	<line class="st8" x1="352.9" y1="332.7" x2="352.9" y2="347.5"/>
	<line class="st8" x1="150.1" y1="354.5" x2="150.1" y2="368.7"/>
	<circle class="st9" cx="316.4" cy="237.4" r="50.1"/>
</g>
<g id="Template_1_">
</g>
</svg>
