<?xml version="1.0" encoding="utf-8"?>
<!-- Generator: Adobe Illustrator 25.0.0, SVG Export Plug-In . SVG Version: 6.00 Build 0)  -->
<svg version="1.1" id="Ebene_1" xmlns="http://www.w3.org/2000/svg" xmlns:xlink="http://www.w3.org/1999/xlink" x="0px" y="0px"
	 viewBox="0 0 503.6 503.6" style="enable-background:new 0 0 503.6 503.6;" xml:space="preserve">
<style type="text/css">
	.st0{display:none;}
	.st1{display:inline;}
	.st2{font-family:'ArialMT';}
	.st3{font-size:72px;}
	.st4{fill:none;stroke:#000000;stroke-width:8.1798;stroke-linecap:round;stroke-miterlimit:10;}
	.st5{fill:none;stroke:#000000;stroke-width:7.1296;stroke-linecap:round;stroke-miterlimit:10;}
	.st6{display:inline;opacity:0.23;}
</style>
<g id="Number" class="st0">
	<text transform="matrix(1 0 0 1 231.7787 457.4454)" class="st1 st2 st3">8</text>
</g>
<g id="New_icon_1_">
	<path class="st4" d="M381,436.1H122.6c-6.6,0-12-5.4-12-12V79.5c0-6.6,5.4-12,12-12H381c6.6,0,12,5.4,12,12v344.6
		C393,430.7,387.6,436.1,381,436.1z"/>
	<path class="st5" d="M360.7,415.4H142.9c-6.6,0-12-5.4-12-12V100.2c0-6.6,5.4-12,12-12h217.8c6.6,0,12,5.4,12,12v303.1
		C372.7,410,367.3,415.4,360.7,415.4z"/>
	<line class="st5" x1="251.8" y1="88.2" x2="251.8" y2="415.4"/>
	<line class="st5" x1="223.1" y1="237.9" x2="223.1" y2="265.7"/>
	<line class="st5" x1="278.3" y1="237.9" x2="278.3" y2="265.7"/>
	<line class="st5" x1="130.9" y1="357.6" x2="372.7" y2="358.1"/>
	<line class="st5" x1="176.3" y1="387.6" x2="205.3" y2="387.6"/>
	<line class="st5" x1="293.3" y1="387.6" x2="322.4" y2="387.6"/>
</g>
<g id="Template" class="st0">
	<g transform="translate(1 1)" class="st6">
		<g>
			<path d="M430.6,286.4L270.8,177.1c-4.2-2.8-8.9-4.6-13.7-5.5V152c21.3-2.9,37.5-20.7,37.5-42.6c0-24-19.4-43-43.7-43
				s-43.7,19-43.7,43c0,3.7,2.5,6.1,6.2,6.1s6.2-2.5,6.2-6.1c0-17.2,13.7-30.7,31.2-30.7S282,92.2,282,109.4s-13.7,30.7-31.2,30.7
				c-3.7,0-6.2,2.5-6.2,6.1v25.3c-4.9,0.8-9.6,2.7-13.7,5.5L71.1,286.4c-6.9,4.9-9.4,12.3-6.9,19.7c2.5,7.4,8.7,12.3,16.9,12.3H126
				v61.4v36.9c0,10.4,8.1,18.4,18.7,18.4h174.8c10.6,0,18.7-8,18.7-18.4v-6.1h31.2c10.6,0,18.7-8,18.7-17.8v-74.3h32.5
				c7.5,0,14.4-4.9,16.9-12.3C440,298.7,436.9,290.7,430.6,286.4z M338.3,306.1c0.4-7.2,4.4-13.3,9.9-16.4c2.4-1.2,5-1.9,7.9-2
				c4.7,0.2,9.8,1.5,13.3,4.9c3.7,3.1,6.2,8.6,6.2,13.5H338.3z M325.8,306.1v1.2v66.4H138.5v-61.4v-6.1c0-10.4,8.1-18.4,18.7-18.4
				H332C328.2,292.6,325.8,299.3,325.8,306.1z M325.8,416.7c0,3.7-2.5,6.1-6.2,6.1H144.7c-3.7,0-6.2-2.5-6.2-6.1V386h187.3v18.4
				V416.7L325.8,416.7z M369.4,398.2h-31.2v-18.4v-61.4h37.5v73.7C375.7,395.8,373.2,398.2,369.4,398.2z M425.6,302.4
				c-0.6,1.2-1.2,3.7-5,3.7h-32.5c0-17.2-13.7-30.7-31.2-30.7H157.2c-17.5,0-31.2,13.5-31.2,30.7H81.1c-3.7,0-5-3.1-5-3.7
				s-0.6-3.7,2.5-5.5l159.2-110c3.3-2.5,7.3-3.7,11.4-3.9c0.5,0.1,1.1,0.2,1.7,0.2c0.5,0,1,0,1.4-0.1c3.9,0.4,7.8,1.7,11,3.8
				l160.4,110C426.3,298.7,425.6,301.8,425.6,302.4z"/>
		</g>
	</g>
</g>
</svg>
