<svg xmlns="http://www.w3.org/2000/svg" viewBox="0 0 491.5 491.5"><defs><style>.cls-1,.cls-2{fill:none;stroke:#000;}.cls-1{stroke-miterlimit:10;stroke-width:4px;}.cls-2{stroke-linecap:round;stroke-linejoin:round;stroke-width:8.63px;}</style></defs><g id="Ebene_2" data-name="Ebene 2"><rect class="cls-1" x="70.79" y="181.21" width="358.19" height="206.89"/><rect x="70.79" y="352.91" width="358.19" height="34.26"/><line class="cls-1" x1="96.13" y1="181.21" x2="96.13" y2="387.17"/><line class="cls-1" x1="404.56" y1="180.75" x2="404.56" y2="386.71"/><line class="cls-1" x1="121.84" y1="181.68" x2="121.84" y2="387.64"/><line class="cls-1" x1="147.54" y1="181.68" x2="147.54" y2="387.64"/><line class="cls-1" x1="378.86" y1="181.68" x2="378.86" y2="387.64"/><line class="cls-1" x1="353.16" y1="181.68" x2="353.16" y2="387.64"/><line class="cls-1" x1="327.46" y1="180.75" x2="327.46" y2="386.71"/><line class="cls-1" x1="301.75" y1="180.75" x2="301.75" y2="386.71"/><line class="cls-1" x1="276.05" y1="180.75" x2="276.05" y2="386.71"/><line class="cls-1" x1="250.35" y1="180.75" x2="250.35" y2="386.71"/><line class="cls-1" x1="224.65" y1="180.75" x2="224.65" y2="386.71"/><line class="cls-1" x1="198.94" y1="180.75" x2="198.94" y2="386.71"/><line class="cls-1" x1="173.24" y1="180.75" x2="173.24" y2="386.71"/><circle class="cls-1" cx="70.79" cy="164.88" r="8.8"/><line class="cls-1" x1="70.79" y1="181.21" x2="70.79" y2="173.68"/><circle class="cls-1" cx="428.97" cy="164.88" r="8.8"/><line class="cls-1" x1="428.97" y1="181.21" x2="428.97" y2="173.68"/><line class="cls-1" x1="70.79" y1="388.1" x2="70.79" y2="387.17"/><line class="cls-2" x1="118.6" y1="392.93" x2="118.6" y2="415.23"/><line class="cls-2" x1="383.9" y1="392.93" x2="383.9" y2="415.23"/></g></svg>