<svg xmlns="http://www.w3.org/2000/svg" viewBox="0 0 491.5 491.5"><defs><style>.cls-1{fill:none;stroke:#000;stroke-miterlimit:10;stroke-width:4.51px;}</style></defs><g id="Layer_7" data-name="Layer 7"><g id="Layer_1"><g id="_169502096" data-name=" 169502096"><path id="_172747360" data-name=" 172747360" d="M300.65,166.24c11.82,2,19.14,5.41,19.14,9.82s-7.32,7.82-19.14,9.82c-10.4,1.75-24.63,2.83-40.36,2.83s-30-1.08-40.36-2.83c-11.82-2-19.14-5.41-19.14-9.82s7.32-7.82,19.14-9.82c10.4-1.75,24.63-2.83,40.36-2.83S290.25,164.41,300.65,166.24ZM207.11,176c0,.84,5.25,2.09,13.82,3.5,10,1.66,23.88,2.66,39.28,2.66s29.29-1,39.28-2.66c8.57-1.41,13.81-2.66,13.81-3.5s-5.24-2.08-13.81-3.49c-10-1.66-23.89-2.66-39.28-2.66s-29.3,1-39.28,2.66C212.44,173.89,207.11,175.14,207.11,176Z"/><polygon id="_172747312" data-name=" 172747312" points="313.05 174.31 313.05 130.79 207.53 130.79 207.53 175.97 201.12 175.97 201.12 127.63 201.12 124.38 204.28 124.38 316.21 124.38 319.38 124.38 319.38 127.63 319.38 174.31 313.05 174.31"/><path id="_172747192" data-name=" 172747192" d="M288.59,240.3a3.16,3.16,0,1,0,6.32,0V221.5a3.16,3.16,0,1,0-6.32,0Z"/><path id="_172747096" data-name=" 172747096" d="M288.59,287.24a3.16,3.16,0,1,0,6.32,0V268.43a3.16,3.16,0,0,0-6.32,0Z"/><path id="_172747048" data-name=" 172747048" d="M288.59,334.17a3.16,3.16,0,1,0,6.32,0v-18.8a3.16,3.16,0,1,0-6.32,0Z"/><path id="_172746928" data-name=" 172746928" d="M251,240.3a3.16,3.16,0,0,0,6.32,0V221.5a3.16,3.16,0,1,0-6.32,0Z"/><path id="_169502552" data-name=" 169502552" d="M251,287.24a3.16,3.16,0,1,0,6.32,0V268.43a3.16,3.16,0,0,0-6.32,0Z"/><path id="_169502504" data-name=" 169502504" d="M251,334.17a3.16,3.16,0,1,0,6.32,0v-18.8a3.16,3.16,0,1,0-6.32,0Z"/><path id="_169502384" data-name=" 169502384" d="M213.44,240.3a3.16,3.16,0,0,0,6.32,0V221.5a3.16,3.16,0,1,0-6.32,0Z"/><path id="_169502288" data-name=" 169502288" d="M213.44,287.24a3.16,3.16,0,1,0,6.32,0V268.43a3.16,3.16,0,1,0-6.32,0Z"/><path id="_169502240" data-name=" 169502240" d="M213.44,334.17a3.16,3.16,0,1,0,6.32,0v-18.8a3.16,3.16,0,1,0-6.32,0Z"/><polygon id="_169502144" data-name=" 169502144" points="257.05 127.63 257.05 36.92 96.35 36.92 96.35 30.51 260.29 30.51 263.45 30.51 263.45 33.75 263.45 127.63 257.05 127.63"/></g></g></g><g id="Ebene_3" data-name="Ebene 3"><path class="cls-1" d="M351.68,449.38l-191.2.3c-14,0-26.29-5.28-29.94-12.92l-33.29-69.5c-3.17-6.62,5.64-13.13,17.77-13.13H389.44c15,0,26,8,22.24,16.22l-30.13,65.92C378,444,365.76,449.36,351.68,449.38Z"/></g></svg>