<svg xmlns="http://www.w3.org/2000/svg" viewBox="0 0 491.5 491.5"><defs><style>.cls-1,.cls-2,.cls-3{fill:none;stroke:#000;}.cls-1,.cls-2{stroke-miterlimit:10;}.cls-1{stroke-width:1.79px;}.cls-2,.cls-3{stroke-linecap:round;stroke-width:7.13px;}.cls-3{stroke-linejoin:round;}</style></defs><g id="Ebene_3" data-name="Ebene 3"><path d="M85.74,133.68s32-40,74.52-9.94c0,0-14.09-30.88-43.76-25.34C90.16,103.32,85.74,133.68,85.74,133.68Z"/><path d="M152.25,48.36s40,32,9.94,74.52c0,0,30.88-14.09,25.34-43.76C182.61,52.77,152.25,48.36,152.25,48.36Z"/><path d="M236.81,115.63s-32,40-74.52,9.94c0,0,14.09,30.88,43.76,25.34C232.4,146,236.81,115.63,236.81,115.63Z"/><path d="M169.92,201.33s-40-32-9.94-74.52c0,0-30.88,14.09-25.34,43.76C139.56,196.92,169.92,201.33,169.92,201.33Z"/><path d="M101.31,77.75s50.93-5.66,59.72,45.66c0,0,11.87-31.8-13-48.86C125.9,59.4,101.31,77.75,101.31,77.75Z"/><path d="M208.67,64.45s5.66,50.94-45.67,59.72c0,0,31.8,11.87,48.86-13C227,89,208.67,64.45,208.67,64.45Z"/><path d="M220.89,171.81s-50.94,5.66-59.72-45.67c0,0-11.87,31.8,13,48.87C196.3,190.16,220.89,171.81,220.89,171.81Z"/><path d="M113,185.11s-5.66-50.94,45.67-59.72c0,0-31.81-11.88-48.87,13C94.64,160.52,113,185.11,113,185.11Z"/><circle class="cls-1" cx="161.28" cy="124.84" r="87.55"/><g id="New_icon" data-name="New icon"><line class="cls-2" x1="101.01" y1="319.4" x2="441.91" y2="319.7"/><line class="cls-2" x1="95.51" y1="290" x2="446.51" y2="290.3"/><path class="cls-2" d="M438.11,320.9l-18.5,82.8s-6.9,29-38.5,31.7l-218.2-.5c-31.5-1.3-38-30.1-38.4-31.3L106,320.7"/><path class="cls-2" d="M97.51,289.9c-23.5,0-28.6,29.5,3.5,29.5"/><path class="cls-2" d="M446.51,290.3c23.5,0,28.6,29.5-3.5,29.5"/><path class="cls-3" d="M365.61,158.9l-53.3-.3c.3.7-.6-9.1,5.2-17.1,8.1-11.1,27.5-19.5,40.7-.5C361.41,145.4,365.61,151.5,365.61,158.9Z"/><line class="cls-2" x1="312.31" y1="183.2" x2="312.31" y2="194.6"/><line class="cls-2" x1="338.81" y1="183.2" x2="338.81" y2="194.6"/><line class="cls-2" x1="365.61" y1="183.2" x2="365.61" y2="194.6"/><line class="cls-2" x1="312.31" y1="213.5" x2="312.31" y2="227.3"/><line class="cls-2" x1="338.81" y1="213.9" x2="338.81" y2="226.9"/><line class="cls-2" x1="365.61" y1="213.5" x2="365.61" y2="227.3"/><line class="cls-2" x1="312.31" y1="245.7" x2="312.31" y2="257.3"/><line class="cls-2" x1="338.81" y1="245.7" x2="338.81" y2="257.3"/><line class="cls-2" x1="365.61" y1="245.7" x2="365.61" y2="257.3"/><line class="cls-2" x1="180.21" y1="435.9" x2="165.11" y2="466.4"/><line class="cls-2" x1="372.31" y1="435.4" x2="385.71" y2="466.3"/><path class="cls-2" d="M99,287.7s-1.3-14.3,17.1-23.9c1.3-.6,19.4-7.7,30.1,9.4"/><path class="cls-2" d="M146.21,272.1s-1.3-14.3,17.1-23.9c1.3-.6,21.8-5.3,32.8,13.6"/><path class="cls-2" d="M196.61,262.4s10.6-1.8,17.5,3.6c1.3.7,12.6,8,9.6,24.2"/><path class="cls-2" d="M338.81,126.1s1.2-56.5,46.8-54.9c39.2,1.4,50.8,34.3,51.8,42.2.6,4.3.7,10.1.7,10.1V287.7"/></g></g></svg>