<?xml version="1.0" encoding="UTF-8"?>
<!DOCTYPE svg PUBLIC "-//W3C//DTD SVG 1.1//EN" "http://www.w3.org/Graphics/SVG/1.1/DTD/svg11.dtd">
<!-- Creator: CorelDRAW -->
<svg xmlns="http://www.w3.org/2000/svg" xml:space="preserve" width="6.82666in" height="6.82666in" style="shape-rendering:geometricPrecision; text-rendering:geometricPrecision; image-rendering:optimizeQuality; fill-rule:evenodd; clip-rule:evenodd"
viewBox="0 0 6.82666 6.82666"
 xmlns:xlink="http://www.w3.org/1999/xlink">
 <defs>
  <style type="text/css">
   <![CDATA[
    .fil1 {fill:none}
    .fil0 {fill:black;fill-rule:nonzero}
   ]]>
  </style>
 </defs>
 <g id="Layer_x0020_1">
  <metadata id="CorelCorpID_0Corel-Layer"/>
  <g id="_170030856">
   <path id="_170031168" class="fil0" d="M2.23833 0.853327l2.35 0c0.0745591,0 0.142311,0.0304646 0.191382,0.0795433 0.0490787,0.0490709 0.0795433,0.116819 0.0795433,0.191386l0 1.31426c0,0.0294528 -0.0238819,0.0533346 -0.0533346,0.0533346l-2.78518 0c-0.0294528,0 -0.0533346,-0.0238819 -0.0533346,-0.0533346l0 -1.31426c0,-0.0745669 0.0304646,-0.142315 0.0795433,-0.191386 0.0490709,-0.0490787 0.116823,-0.0795433 0.191382,-0.0795433zm2.35 0.106669l-2.35 0c-0.0451142,0 -0.0861732,0.0184961 -0.115965,0.0482913 -0.0297953,0.0297913 -0.0482913,0.0708504 -0.0482913,0.115969l0 1.26092 2.67851 0 0 -1.26092c0,-0.0451181 -0.0184961,-0.0861772 -0.0482913,-0.115969 -0.0297913,-0.0297953 -0.0708504,-0.0482913 -0.115965,-0.0482913zm0.270925 3.42815l0 1.53185c0,0.0294528 -0.0238819,0.0533346 -0.0533346,0.0533346l-2.78518 0c-0.0294528,0 -0.0533346,-0.0238819 -0.0533346,-0.0533346l0 -1.53185c0,-0.0294528 0.0238819,-0.0533346 0.0533346,-0.0533346l2.78518 0c0.0294528,0 0.0533346,0.0238819 0.0533346,0.0533346zm-0.106669 1.47852l0 -1.42518 -2.67851 0 0 1.42518 2.67851 0z"/>
   <path id="_170031096" class="fil0" d="M5.97333 2.59083l0 1.64501c0,0.0566024 -0.023122,0.108035 -0.0603701,0.14528 -0.0372441,0.037248 -0.0886772,0.0603701 -0.14528,0.0603701l-4.86102 0c-0.0294528,0 -0.0533346,-0.0238819 -0.0533346,-0.0533346l0 -1.94964c0,-0.0294528 0.0238819,-0.0533346 0.0533346,-0.0533346l4.86102 0c0.0566024,0 0.108035,0.023122 0.14528,0.0603701 0.037248,0.0372441 0.0603701,0.0886772 0.0603701,0.14528zm-0.106669 1.64501l0 -1.64501c0,-0.0271614 -0.0111535,-0.0519016 -0.0291181,-0.0698622 -0.0179606,-0.0179646 -0.0427008,-0.0291181 -0.0698622,-0.0291181l-4.80769 0 0 1.84297 4.80769 0c0.0271614,0 0.0519016,-0.0111535 0.0698622,-0.0291181 0.0179646,-0.0179606 0.0291181,-0.0427008 0.0291181,-0.0698622z"/>
   <path id="_170031024" class="fil0" d="M1.56215 2.80296c0.0803622,0 0.153126,0.0325827 0.205791,0.085248 0.0526654,0.0526654 0.085248,0.125429 0.085248,0.205787 0,0.0803622 -0.0325827,0.153126 -0.085248,0.205791 -0.0526654,0.0526654 -0.125429,0.085248 -0.205791,0.085248 -0.0803622,0 -0.153126,-0.0325827 -0.205791,-0.085248 -0.0526654,-0.0526654 -0.085248,-0.125429 -0.085248,-0.205791 0,-0.0803583 0.0325827,-0.153122 0.085248,-0.205787 0.0526654,-0.0526654 0.125429,-0.085248 0.205791,-0.085248zm0.130374 0.160665c-0.0333583,-0.0333583 -0.0794567,-0.0539961 -0.130374,-0.0539961 -0.0509173,0 -0.0970157,0.0206378 -0.130374,0.0539961 -0.0333583,0.0333583 -0.0539961,0.0794567 -0.0539961,0.13037 0,0.0509173 0.0206378,0.0970157 0.0539961,0.130374 0.0333583,0.0333583 0.0794567,0.0539961 0.130374,0.0539961 0.0509173,0 0.0970157,-0.0206378 0.130374,-0.0539961 0.0333583,-0.0333583 0.0539961,-0.0794567 0.0539961,-0.130374 0,-0.0509134 -0.0206378,-0.0970118 -0.0539961,-0.13037z"/>
   <path id="_170030952" class="fil0" d="M4.10963 1.51703c0.0294528,0 0.0533346,-0.0238819 0.0533346,-0.0533346 0,-0.0294528 -0.0238819,-0.0533346 -0.0533346,-0.0533346l-1.3926 0c-0.0294528,0 -0.0533346,0.0238819 -0.0533346,0.0533346 0,0.0294528 0.0238819,0.0533346 0.0533346,0.0533346l1.3926 0z"/>
   <path id="_170030904" class="fil0" d="M4.10963 1.93482c0.0294528,0 0.0533346,-0.0238819 0.0533346,-0.0533346 0,-0.0294528 -0.0238819,-0.0533346 -0.0533346,-0.0533346l-1.3926 0c-0.0294528,0 -0.0533346,0.0238819 -0.0533346,0.0533346 0,0.0294528 0.0238819,0.0533346 0.0533346,0.0533346l1.3926 0z"/>
  </g>
 </g>
 <rect class="fil1" width="6.82666" height="6.82666"/>
</svg>
