<svg xmlns="http://www.w3.org/2000/svg" viewBox="0 0 491.5 491.5"><defs><style>.cls-1,.cls-2,.cls-3,.cls-4,.cls-5{fill:none;stroke:#000;}.cls-1,.cls-5{stroke-miterlimit:10;}.cls-1{stroke-width:7.67px;}.cls-2,.cls-3,.cls-4,.cls-5{stroke-linecap:round;}.cls-2,.cls-3,.cls-4{stroke-linejoin:round;}.cls-2{stroke-width:7.92px;}.cls-3{stroke-width:4.91px;}.cls-4{stroke-width:4px;}.cls-5{stroke-width:4.26px;}</style></defs><g id="Ebene_3" data-name="Ebene 3"><rect class="cls-1" x="87.78" y="122.74" width="287.11" height="302.01"/><path class="cls-2" d="M314.58,399.3H146.08A30.33,30.33,0,0,1,117,360.53l40-137.91A30.34,30.34,0,0,1,186,200.72h90.25a30.33,30.33,0,0,1,29.22,22.22L343.8,360.85A30.33,30.33,0,0,1,314.58,399.3Z"/><path class="cls-1" d="M142.63,39.87h0A14.87,14.87,0,0,1,157.5,54.74v68a0,0,0,0,1,0,0H127.76a0,0,0,0,1,0,0v-68a14.87,14.87,0,0,1,14.87-14.87Z"/><path class="cls-1" d="M320,39.2h0a14.87,14.87,0,0,1,14.87,14.87v68a0,0,0,0,1,0,0H305.17a0,0,0,0,1,0,0v-68A14.87,14.87,0,0,1,320,39.2Z"/><path class="cls-1" d="M231.34,38.63h0A14.87,14.87,0,0,1,246.21,53.5v68a0,0,0,0,1,0,0H216.47a0,0,0,0,1,0,0v-68A14.87,14.87,0,0,1,231.34,38.63Z"/><polygon class="cls-3" points="173.49 322.99 173.49 341.38 150.86 341.38 150.86 354.82 173.49 354.82 173.49 373.22 191.18 373.22 191.18 322.99 173.49 322.99"/><polygon class="cls-3" points="287.14 323.77 287.14 342.16 309.78 342.16 309.78 355.6 287.14 355.6 287.14 373.99 269.45 373.99 269.45 323.77 287.14 323.77"/><path class="cls-4" d="M238.22,276.7v-8.39a18.18,18.18,0,0,0,0-34.47v-14.9H226.67v14.9a18.18,18.18,0,0,0,0,34.47v8.39a14,14,0,0,0,0,25.62V314h11.55V302.32a14,14,0,0,0,0-25.62Z"/></g><g id="Ebene_4" data-name="Ebene 4"><circle class="cls-5" cx="232.44" cy="334.44" r="8.68"/><circle class="cls-5" cx="232.44" cy="361.71" r="8.68"/></g></svg>