<svg xmlns="http://www.w3.org/2000/svg" viewBox="0 0 491.5 491.5"><g id="Ebene_3" data-name="Ebene 3"><g id="Layer_1"><path d="M62.27,124.85h361a3.84,3.84,0,0,1,3.84,3.84V378.48a3.84,3.84,0,0,1-3.84,3.84h-361a3.84,3.84,0,0,1-3.84-3.84V128.69A3.84,3.84,0,0,1,62.27,124.85Zm357.12,7.68H66.11V374.64H419.39Z"/><path d="M76.23,138.72h333a3.84,3.84,0,0,1,3.84,3.84V336.85a3.84,3.84,0,0,1-3.84,3.84h-333a3.84,3.84,0,0,1-3.84-3.84V142.56A3.84,3.84,0,0,1,76.23,138.72Zm329.21,7.68H80.07V333H405.44Z"/><g id="_173062440" data-name=" 173062440"><rect id="_173062920" data-name=" 173062920" x="372.59" y="348.7" width="7.68" height="17.92" rx="3.84"/><rect id="_173062776" data-name=" 173062776" x="349.29" y="348.7" width="7.68" height="17.92" rx="3.84"/><circle id="_173062704" data-name=" 173062704" cx="239.65" cy="357.66" r="5.76"/><path id="_173062512" data-name=" 173062512" d="M177.2,354.56a3.84,3.84,0,1,0,0-7.68h-72a3.84,3.84,0,1,0,0,7.68Z"/><path id="_173062560" data-name=" 173062560" d="M177.2,368.44a3.84,3.84,0,1,0,0-7.68h-72a3.84,3.84,0,1,0,0,7.68Z"/></g></g><path d="M128.64,259.77a24,24,0,0,0,12.15,3.43c6.92,0,11-3.67,11-9,0-4.9-2.81-7.71-9.89-10.43-8.57-3-13.86-7.47-13.86-14.87,0-8.18,6.77-14.25,17-14.25a23.87,23.87,0,0,1,11.6,2.57l-1.87,5.53a20.84,20.84,0,0,0-10-2.49c-7.16,0-9.89,4.28-9.89,7.86,0,4.91,3.2,7.31,10.44,10.12,8.88,3.43,13.4,7.71,13.4,15.42,0,8.09-6,15.18-18.38,15.18-5.06,0-10.59-1.56-13.39-3.42Z"/><path d="M212.2,245c-.38-7.32-.85-16.12-.78-22.66h-.23c-1.79,6.15-4,12.77-6.61,19.93l-9.27,25.46h-5.14l-8.49-25c-2.49-7.4-4.59-14.17-6.07-20.4h-.16c-.15,6.54-.54,15.34-1,23.2L173,268h-6.46l3.66-52.48h8.64l9,25.39c2.18,6.46,4,12.22,5.3,17.67h.23c1.33-5.29,3.2-11.05,5.53-17.67l9.34-25.39h8.65L220.15,268h-6.62Z"/><path d="M238.32,251.51,232.86,268h-7l17.83-52.48h8.17L269.77,268h-7.24l-5.61-16.51Zm17.2-5.29-5.13-15.1c-1.18-3.43-1.95-6.54-2.73-9.58h-.16c-.78,3.11-1.63,6.31-2.64,9.5l-5.14,15.18Z"/><path d="M277.51,216.25a69.77,69.77,0,0,1,13-1.09c7.25,0,11.91,1.32,15.19,4.28a13.05,13.05,0,0,1,4.12,10c0,6.93-4.36,11.52-9.89,13.39V243c4.05,1.4,6.47,5.14,7.71,10.59,1.71,7.32,3,12.38,4.05,14.4h-7c-.86-1.56-2-6-3.51-12.53-1.56-7.24-4.36-10-10.51-10.2h-6.38V268h-6.78Zm6.78,23.9h6.93c7.24,0,11.83-4,11.83-10,0-6.77-4.91-9.73-12.07-9.81a27.93,27.93,0,0,0-6.69.62Z"/><path d="M330.08,221.31H314.13v-5.77H353v5.77h-16V268h-6.86Z"/></g></svg>