<svg xmlns="http://www.w3.org/2000/svg" viewBox="0 0 491.5 491.5"><g id="Ebene_3" data-name="Ebene 3"><path d="M384.55,141.94a14,14,0,0,0,2.71,6.79L372,238.23h0a25,25,0,0,0,9.7,27.37h-35a20.33,20.33,0,0,0-20.31,20.31v3H467.06v-3a20.33,20.33,0,0,0-20.31-20.31H410.5a25,25,0,0,0,9.56-27.82l-9.18-90.69a14.07,14.07,0,0,0-11.34-20.79,82.69,82.69,0,0,0,8.88-82.53l-1.74-3.89L351.82,92.29,328.77,67.6a13.21,13.21,0,1,0-4,4.51l22.71,24.33-55.55,53.05,3.8,1.91a82.63,82.63,0,0,0,88.82-9.46ZM324.33,61.4a7.13,7.13,0,1,1-7.13-7.13A7.13,7.13,0,0,1,324.33,61.4Zm22.33,210.2H446.75a14.34,14.34,0,0,1,14,11.31H332.67A14.34,14.34,0,0,1,346.66,271.6Zm62.9-194.16a76.81,76.81,0,0,1-76.72,76.73,75.93,75.93,0,0,1-30.52-6.31L404.58,50.19A76.15,76.15,0,0,1,409.56,77.44Zm-2.95,62.89a8.08,8.08,0,1,1-8.08-8.08A8.08,8.08,0,0,1,406.61,140.33Zm-1.2,12.28,7.48,73.91a25,25,0,0,0-32.7-.8l12.42-72.64a13.81,13.81,0,0,0,5.92,1.33A14.05,14.05,0,0,0,405.41,152.61ZM377,245.11a19.06,19.06,0,0,1,37.15-6l.09.88.18,0A19.07,19.07,0,1,1,377,245.11Z"/><g id="Layer_1"><path d="M28.06,181.05h266.1a2.83,2.83,0,0,1,2.83,2.83V368a2.82,2.82,0,0,1-2.83,2.83H28.06A2.82,2.82,0,0,1,25.23,368V183.88A2.83,2.83,0,0,1,28.06,181.05Zm263.27,5.66H30.89V365.2H291.33Z"/><path d="M38.34,191.28H283.88a2.83,2.83,0,0,1,2.83,2.83V337.34a2.83,2.83,0,0,1-2.83,2.83H38.34a2.83,2.83,0,0,1-2.83-2.83V194.11A2.83,2.83,0,0,1,38.34,191.28ZM281,197H41.17V334.51H281Z"/><g id="_173062440" data-name=" 173062440"><rect id="_173062920" data-name=" 173062920" x="256.82" y="346.08" width="5.66" height="13.21" rx="2.83"/><rect id="_173062776" data-name=" 173062776" x="239.65" y="346.08" width="5.66" height="13.21" rx="2.83"/><circle id="_173062704" data-name=" 173062704" cx="158.82" cy="352.69" r="4.25"/><path id="_173062512" data-name=" 173062512" d="M112.78,350.4a2.83,2.83,0,1,0,0-5.66h-53a2.83,2.83,0,0,0,0,5.66Z"/><path id="_173062560" data-name=" 173062560" d="M112.78,360.63a2.83,2.83,0,1,0,0-5.66h-53a2.83,2.83,0,0,0,0,5.66Z"/></g></g></g></svg>