<svg xmlns="http://www.w3.org/2000/svg" viewBox="0 0 491.5 491.5"><defs><style>.cls-1,.cls-2{fill:none;stroke:#000;stroke-width:6px;}.cls-1{stroke-miterlimit:10;}.cls-2{stroke-linecap:round;stroke-linejoin:round;}</style></defs><g id="Ebene_3" data-name="Ebene 3"><g id="Layer_1"><path d="M27.13,98.84h432a4.6,4.6,0,0,1,4.6,4.6v299a4.6,4.6,0,0,1-4.6,4.59h-432a4.6,4.6,0,0,1-4.6-4.59v-299A4.6,4.6,0,0,1,27.13,98.84ZM454.55,108H31.73V397.81H454.55Z"/><path d="M43.83,115.45H442.45a4.6,4.6,0,0,1,4.6,4.6V352.58a4.59,4.59,0,0,1-4.6,4.59H43.83a4.59,4.59,0,0,1-4.6-4.59V120.05A4.6,4.6,0,0,1,43.83,115.45Zm394,9.2H48.43V348H437.85Z"/><g id="_173062440" data-name=" 173062440"><rect id="_173062920" data-name=" 173062920" x="398.53" y="366.77" width="9.19" height="21.45" rx="4.6"/><rect id="_173062776" data-name=" 173062776" x="370.65" y="366.77" width="9.19" height="21.45" rx="4.6"/><circle id="_173062704" data-name=" 173062704" cx="239.42" cy="377.49" r="6.89"/><path id="_173062512" data-name=" 173062512" d="M164.68,373.78a4.6,4.6,0,1,0,0-9.19H78.56a4.6,4.6,0,1,0,0,9.19Z"/><path id="_173062560" data-name=" 173062560" d="M164.68,390.39a4.6,4.6,0,1,0,0-9.19H78.56a4.6,4.6,0,1,0,0,9.19Z"/></g></g><circle class="cls-1" cx="183.54" cy="184.47" r="49.12"/><path class="cls-1" d="M298.2,289.55a31.46,31.46,0,0,0-3.31-3.88l-71.54-71.54-10.23,10.22,71.55,71.55a30.57,30.57,0,0,0,3.87,3.3c-1.27,3.66-.82,7.38,1.55,9.75,3.72,3.72,10.72,2.73,15.65-2.2s5.92-11.94,2.21-15.65C305.57,288.73,301.86,288.28,298.2,289.55Z"/><line class="cls-1" x1="140.73" y1="209.89" x2="207.65" y2="142.97"/><line class="cls-1" x1="148.8" y1="219.2" x2="217.29" y2="150.71"/><path class="cls-1" d="M259.43,248.57s-30.22-57.61,9-64.69S259.43,248.57,259.43,248.57Z"/><path class="cls-2" d="M263.44,254s54.31,24.09,73.2-14.64"/><path class="cls-1" d="M248.32,262s-57.61-30.22-64.69,9S248.32,262,248.32,262Z"/><path class="cls-2" d="M253.75,266.05s24.09,54.31-14.64,73.19"/></g></svg>