<?xml version="1.0" encoding="UTF-8"?>
<!DOCTYPE svg PUBLIC "-//W3C//DTD SVG 1.1//EN" "http://www.w3.org/Graphics/SVG/1.1/DTD/svg11.dtd">
<!-- Creator: CorelDRAW -->
<svg xmlns="http://www.w3.org/2000/svg" xml:space="preserve" width="6.82666in" height="6.82666in" style="shape-rendering:geometricPrecision; text-rendering:geometricPrecision; image-rendering:optimizeQuality; fill-rule:evenodd; clip-rule:evenodd"
viewBox="0 0 6.82666 6.82666"
 xmlns:xlink="http://www.w3.org/1999/xlink">
 <defs>
  <style type="text/css">
   <![CDATA[
    .fil1 {fill:none}
    .fil0 {fill:black;fill-rule:nonzero}
   ]]>
  </style>
 </defs>
 <g id="Layer_x0020_1">
  <metadata id="CorelCorpID_0Corel-Layer"/>
  <g id="_173485888">
   <path id="_173487040" class="fil0" d="M2.38885 0.951228l3.007 0c0.0294528,0 0.0533346,0.0238819 0.0533346,0.0533346l0 3.84229c0,0.0294528 -0.0238819,0.0533346 -0.0533346,0.0533346l-3.007 0c-0.0294528,0 -0.0533346,-0.0238819 -0.0533346,-0.0533346l0 -3.84229c0,-0.0294528 0.0238819,-0.0533346 0.0533346,-0.0533346zm2.95367 0.106669l-2.90033 0 0 3.73562 2.90033 0 0 -3.73562z"/>
   <path id="_173486968" class="fil0" d="M2.8065 1.78652l2.17172 0c0.0294528,0 0.0533346,0.0238819 0.0533346,0.0533346l0 0.83528c0,0.0294528 -0.0238819,0.0533346 -0.0533346,0.0533346l-2.17172 0c-0.0294528,0 -0.0533346,-0.0238819 -0.0533346,-0.0533346l0 -0.83528c0,-0.0294528 0.0238819,-0.0533346 0.0533346,-0.0533346zm2.11839 0.106669l-2.06506 0 0 0.72861 2.06506 0 0 -0.72861z"/>
   <g>
    <path id="_173486896" class="fil0" d="M3.05627 3.01506l0.201929 0c0.0294528,0 0.0533346,0.0238819 0.0533346,0.0533346l0 0.201929c0,0.0294528 -0.0238819,0.0533346 -0.0533346,0.0533346l-0.201929 0c-0.0294528,0 -0.0533346,-0.0238819 -0.0533346,-0.0533346l0 -0.201929c0,-0.0294528 0.0238819,-0.0533346 0.0533346,-0.0533346zm0.148594 0.106669l-0.0952598 0 0 0.0952598 0.0952598 0 0 -0.0952598z"/>
    <path id="_173486824" class="fil0" d="M3.54635 3.01506l0.201933 0c0.0294528,0 0.0533346,0.0238819 0.0533346,0.0533346l0 0.201929c0,0.0294528 -0.0238819,0.0533346 -0.0533346,0.0533346l-0.201933 0c-0.0294528,0 -0.0533346,-0.0238819 -0.0533346,-0.0533346l0 -0.201929c0,-0.0294528 0.0238819,-0.0533346 0.0533346,-0.0533346zm0.148598 0.106669l-0.0952638 0 0 0.0952598 0.0952638 0 0 -0.0952598z"/>
    <path id="_173486752" class="fil0" d="M4.03643 3.01506l0.201933 0c0.0294528,0 0.0533346,0.0238819 0.0533346,0.0533346l0 0.201929c0,0.0294528 -0.0238819,0.0533346 -0.0533346,0.0533346l-0.201933 0c-0.0294528,0 -0.0533346,-0.0238819 -0.0533346,-0.0533346l0 -0.201929c0,-0.0294528 0.0238819,-0.0533346 0.0533346,-0.0533346zm0.148598 0.106669l-0.0952638 0 0 0.0952598 0.0952638 0 0 -0.0952598z"/>
    <path id="_173486680" class="fil0" d="M4.52651 3.01506l0.201929 0c0.0294528,0 0.0533346,0.0238819 0.0533346,0.0533346l0 0.201929c0,0.0294528 -0.0238819,0.0533346 -0.0533346,0.0533346l-0.201929 0c-0.0294528,0 -0.0533346,-0.0238819 -0.0533346,-0.0533346l0 -0.201929c0,-0.0294528 0.0238819,-0.0533346 0.0533346,-0.0533346zm0.148594 0.106669l-0.0952598 0 0 0.0952598 0.0952598 0 0 -0.0952598z"/>
    <path id="_173486608" class="fil0" d="M3.05627 3.60583l0.201929 0c0.0294528,0 0.0533346,0.0238819 0.0533346,0.0533346l0 0.201929c0,0.0294528 -0.0238819,0.0533346 -0.0533346,0.0533346l-0.201929 0c-0.0294528,0 -0.0533346,-0.0238819 -0.0533346,-0.0533346l0 -0.201929c0,-0.0294528 0.0238819,-0.0533346 0.0533346,-0.0533346zm0.148594 0.106669l-0.0952598 0 0 0.0952598 0.0952598 0 0 -0.0952598z"/>
    <path id="_173486536" class="fil0" d="M3.54635 3.60583l0.201933 0c0.0294528,0 0.0533346,0.0238819 0.0533346,0.0533346l0 0.201929c0,0.0294528 -0.0238819,0.0533346 -0.0533346,0.0533346l-0.201933 0c-0.0294528,0 -0.0533346,-0.0238819 -0.0533346,-0.0533346l0 -0.201929c0,-0.0294528 0.0238819,-0.0533346 0.0533346,-0.0533346zm0.148598 0.106669l-0.0952638 0 0 0.0952598 0.0952638 0 0 -0.0952598z"/>
    <path id="_173486464" class="fil0" d="M4.03643 3.60583l0.201933 0c0.0294528,0 0.0533346,0.0238819 0.0533346,0.0533346l0 0.201929c0,0.0294528 -0.0238819,0.0533346 -0.0533346,0.0533346l-0.201933 0c-0.0294528,0 -0.0533346,-0.0238819 -0.0533346,-0.0533346l0 -0.201929c0,-0.0294528 0.0238819,-0.0533346 0.0533346,-0.0533346zm0.148598 0.106669l-0.0952638 0 0 0.0952598 0.0952638 0 0 -0.0952598z"/>
    <path id="_173486392" class="fil0" d="M4.52651 3.60583l0.201929 0c0.0294528,0 0.0533346,0.0238819 0.0533346,0.0533346l0 0.201929c0,0.0294528 -0.0238819,0.0533346 -0.0533346,0.0533346l-0.201929 0c-0.0294528,0 -0.0533346,-0.0238819 -0.0533346,-0.0533346l0 -0.201929c0,-0.0294528 0.0238819,-0.0533346 0.0533346,-0.0533346zm0.148594 0.106669l-0.0952598 0 0 0.0952598 0.0952598 0 0 -0.0952598z"/>
    <path id="_173486320" class="fil0" d="M3.05627 4.19661l0.201929 0c0.0294528,0 0.0533346,0.0238819 0.0533346,0.0533346l0 0.201929c0,0.0294528 -0.0238819,0.0533346 -0.0533346,0.0533346l-0.201929 0c-0.0294528,0 -0.0533346,-0.0238819 -0.0533346,-0.0533346l0 -0.201929c0,-0.0294528 0.0238819,-0.0533346 0.0533346,-0.0533346zm0.148594 0.106669l-0.0952598 0 0 0.0952598 0.0952598 0 0 -0.0952598z"/>
    <path id="_173486248" class="fil0" d="M3.54635 4.19661l0.201933 0c0.0294528,0 0.0533346,0.0238819 0.0533346,0.0533346l0 0.201929c0,0.0294528 -0.0238819,0.0533346 -0.0533346,0.0533346l-0.201933 0c-0.0294528,0 -0.0533346,-0.0238819 -0.0533346,-0.0533346l0 -0.201929c0,-0.0294528 0.0238819,-0.0533346 0.0533346,-0.0533346zm0.148598 0.106669l-0.0952638 0 0 0.0952598 0.0952638 0 0 -0.0952598z"/>
    <path id="_173486152" class="fil0" d="M4.03643 4.19661l0.201933 0c0.0294528,0 0.0533346,0.0238819 0.0533346,0.0533346l0 0.201929c0,0.0294528 -0.0238819,0.0533346 -0.0533346,0.0533346l-0.201933 0c-0.0294528,0 -0.0533346,-0.0238819 -0.0533346,-0.0533346l0 -0.201929c0,-0.0294528 0.0238819,-0.0533346 0.0533346,-0.0533346zm0.148598 0.106669l-0.0952638 0 0 0.0952598 0.0952638 0 0 -0.0952598z"/>
    <path id="_173486104" class="fil0" d="M4.52651 4.19661l0.201929 0c0.0294528,0 0.0533346,0.0238819 0.0533346,0.0533346l0 0.201929c0,0.0294528 -0.0238819,0.0533346 -0.0533346,0.0533346l-0.201929 0c-0.0294528,0 -0.0533346,-0.0238819 -0.0533346,-0.0533346l0 -0.201929c0,-0.0294528 0.0238819,-0.0533346 0.0533346,-0.0533346zm0.148594 0.106669l-0.0952598 0 0 0.0952598 0.0952598 0 0 -0.0952598z"/>
   </g>
   <path id="_173485984" class="fil0" d="M1.61542 0.853331l0.68113 0c0.0399646,0 0.0763189,0.016374 0.102693,0.0427402l-0.0375 0.0377087 0.0377087 -0.0377165c0.00119291,0.00119291 0.00231496,0.00243307 0.00337402,0.00370866 0.0243819,0.0260472 0.0393661,0.0609646 0.0393661,0.0992008l0 3.85346c0,0.0398622 -0.0163583,0.0762205 -0.0427402,0.102693l-0.000106299 0.000102362 -3.93701e-006 3.93701e-006 0.000110236 0.000110236c-0.00121654,0.00121654 -0.00248425,0.0023622 -0.00378346,0.00343701 -0.026126,0.0243583 -0.0610197,0.0392953 -0.0991181,0.0392953l-0.68113 0c-0.0654921,0 -0.124996,-0.0267559 -0.168094,-0.0698543 -0.0430984,-0.0430984 -0.0698543,-0.102602 -0.0698543,-0.168094l0 -3.66885c0,-0.0654921 0.0267559,-0.124996 0.0698543,-0.168094 0.0430984,-0.0430984 0.102602,-0.0698543 0.168094,-0.0698543zm0.68113 0.106669l-0.68113 0c-0.0360472,0 -0.0688622,0.0147874 -0.0926772,0.0386024 -0.023815,0.023815 -0.0386024,0.0566299 -0.0386024,0.0926772l0 3.66885c0,0.0360472 0.0147874,0.0688622 0.0386024,0.0926772 0.023815,0.023815 0.0566299,0.0386024 0.0926772,0.0386024l0.68113 0c0.00987402,0 0.0188465,-0.00361024 0.025626,-0.00954331 0.000602362,-0.000665354 0.00121654,-0.00131102 0.00185827,-0.00195276l0.0377087 0.0377165 -0.0375 -0.0377087c0.00695669,-0.00695669 0.0112795,-0.016685 0.0112795,-0.0274843l0 -3.85346c0,-0.00983465 -0.00364961,-0.0188465 -0.00965354,-0.0257283 -0.000622047,-0.000566929 -0.00123228,-0.00114567 -0.00183465,-0.00174803l0.000106299 -0.000106299 -3.93701e-006 -3.93701e-006c-0.0070748,-0.00702756 -0.0168386,-0.0113858 -0.0275866,-0.0113858z"/>
   <path id="_173485936" class="fil0" d="M2.00931 4.94474l0 0.640677c0.0352323,0.0607598 0.241811,0.355689 0.770583,0.00361811 0.228441,-0.152102 0.408224,-0.219476 0.542803,-0.231264 0.0893701,-0.00782677 0.160925,0.00847638 0.215331,0.0411181 0.0570866,0.0342559 0.0941614,0.0856024 0.112539,0.145862 0.0187992,0.061622 0.0175236,0.132028 -0.00235433,0.201705 -0.011252,0.0394449 0.0420866,0.0736339 0.120272,0.0959409 0.0631811,0.0180236 0.140268,0.0265591 0.218185,0.0239961 0.0776496,-0.00255512 0.155563,-0.0160591 0.220606,-0.0420748 0.11215,-0.0448583 0.183276,-0.131409 0.128008,-0.269579 -0.205354,-0.513398 -0.104421,-0.728929 -0.104142,-0.729559l0.0970787 0.0433307c-0.000228346,0.000511811 -0.0826693,0.175429 0.105811,0.646646 0.0842874,0.21072 -0.0205748,0.341276 -0.187173,0.407909 -0.0768307,0.0307323 -0.167445,0.0466339 -0.256858,0.0495787 -0.0891457,0.00292913 -0.17772,-0.00693701 -0.250681,-0.027752 -0.136913,-0.0390591 -0.225079,-0.117268 -0.193602,-0.227602 0.0144409,-0.0506142 0.0158661,-0.100118 0.0031811,-0.141705 -0.0108307,-0.0355157 -0.0324094,-0.0656181 -0.0654528,-0.0854449 -0.0357323,-0.0214409 -0.0857992,-0.031878 -0.151583,-0.0261181 -0.118535,0.0103819 -0.281146,0.0725551 -0.49322,0.21376 -0.686594,0.45715 -0.929657,-0.0542283 -0.930374,-0.055685l-0.00562598 -0.0235433 0 -0.653815 0.106669 0z"/>
  </g>
 </g>
 <rect class="fil1" width="6.82666" height="6.82666"/>
</svg>
