<svg xmlns="http://www.w3.org/2000/svg" viewBox="0 0 491.5 491.5"><defs><style>.cls-1,.cls-2,.cls-3,.cls-4{fill:none;stroke:#000;stroke-linecap:round;stroke-linejoin:round;}.cls-1{stroke-width:6.59px;}.cls-2{stroke-width:6px;}.cls-3{stroke-width:4.61px;}.cls-4{stroke-width:7.51px;}</style></defs><g id="Ebene_2" data-name="Ebene 2"><circle class="cls-1" cx="235.93" cy="280.52" r="130.1"/><path class="cls-2" d="M181.42,122.08a63.72,63.72,0,1,0-95.59,84.27Z"/><path class="cls-2" d="M387.49,202.24a63.72,63.72,0,0,0-99.33-79.83Z"/><line class="cls-2" x1="132.66" y1="165.06" x2="150.72" y2="182.21"/><line class="cls-2" x1="336.9" y1="161.58" x2="320.41" y2="181.59"/><line class="cls-2" x1="235.93" y1="150.42" x2="235.93" y2="98.6"/><rect class="cls-3" x="209.28" y="78.92" width="54.3" height="18.57" rx="9.29"/><line class="cls-3" x1="235.93" y1="280.52" x2="235.93" y2="337.84"/><polygon points="223.16 314.11 226.94 312.74 235.93 337.45 244.92 312.74 248.69 314.11 235.93 349.18 223.16 314.11"/><line class="cls-3" x1="236.39" y1="279.83" x2="291.77" y2="195.43"/><polygon points="289.42 222.27 285.51 221.35 291.55 195.75 270.48 211.48 268.08 208.26 297.99 185.94 289.42 222.27"/><circle class="cls-3" cx="236.43" cy="172.37" r="9.33"/><circle class="cls-3" cx="235.93" cy="389.3" r="9.33"/><circle class="cls-3" cx="125.66" cy="280.52" r="9.33"/><circle class="cls-3" cx="140.22" cy="230.75" r="9.33"/><circle class="cls-3" cx="178.29" cy="189.8" r="9.33"/><circle class="cls-3" cx="293.24" cy="191.82" r="9.33"/><circle class="cls-3" cx="330.19" cy="230.88" r="9.33"/><circle class="cls-3" cx="182.55" cy="368.16" r="9.33"/><circle class="cls-3" cx="145.6" cy="329.09" r="9.33"/><circle class="cls-3" cx="329.55" cy="329.09" r="9.33"/><circle class="cls-3" cx="290.49" cy="366.04" r="9.33"/><circle class="cls-3" cx="345.85" cy="280.52" r="9.33"/><line class="cls-3" x1="91.49" y1="116.42" x2="83.28" y2="107.74"/><line class="cls-3" x1="377.74" y1="112.66" x2="385" y2="103.31"/><line class="cls-4" x1="125.66" y1="427.94" x2="154.94" y2="383.32"/><line class="cls-4" x1="351.16" y1="426.94" x2="321.88" y2="382.32"/></g></svg>