<svg xmlns="http://www.w3.org/2000/svg" viewBox="0 0 491.5 491.5"><defs><style>.cls-1,.cls-2,.cls-3,.cls-4,.cls-5{fill:none;}.cls-1,.cls-2,.cls-3,.cls-5{stroke:#000;stroke-linecap:round;}.cls-1,.cls-2,.cls-3{stroke-linejoin:round;}.cls-1{stroke-width:3.94px;}.cls-2{stroke-width:3.73px;}.cls-3{stroke-width:4.27px;}.cls-5{stroke-miterlimit:10;stroke-width:9.55px;}</style></defs><g id="Ebene_2" data-name="Ebene 2"><path class="cls-1" d="M378.93,70.07c0,19-61,34.39-136.17,34.39S106.58,89.06,106.58,70.07Z"/><line class="cls-2" x1="242.76" y1="132.1" x2="242.76" y2="210.12"/><line class="cls-2" x1="185.48" y1="126.09" x2="170.79" y2="203.47"/><line class="cls-2" x1="134.5" y1="118.07" x2="91.12" y2="190.34"/><line class="cls-2" x1="305.74" y1="125.71" x2="320.43" y2="203.09"/><line class="cls-2" x1="356.73" y1="117.69" x2="400.11" y2="189.95"/><polygon class="cls-3" points="154.21 319.44 172 287.41 171.4 324.04 202.82 305.2 183.98 336.62 220.61 336.02 188.58 353.81 220.61 371.6 183.98 370.99 202.82 402.41 171.4 383.57 172 420.2 154.21 388.18 136.42 420.2 137.03 383.57 105.61 402.41 124.45 370.99 87.82 371.6 119.84 353.81 87.82 336.02 124.45 336.62 105.61 305.2 137.03 324.04 136.42 287.41 154.21 319.44"/><path class="cls-4" d="M348.8,352.35a61.46,61.46,0,0,1,27.94-51.48,57.73,57.73,0,1,0,0,103A61.46,61.46,0,0,1,348.8,352.35Z"/><path d="M350.66,410.08a57.73,57.73,0,1,1,26.08-109.21c1.22-.79,2.45-1.54,3.72-2.25a61.46,61.46,0,1,0,0,107.46c-1.27-.71-2.5-1.46-3.72-2.25A57.31,57.31,0,0,1,350.66,410.08Z"/><path d="M352.53,352.35a57.78,57.78,0,0,1,27.93-49.43c-1.21-.73-2.45-1.4-3.72-2.05a61.4,61.4,0,0,0,0,103c1.27-.64,2.51-1.32,3.72-2.05A57.78,57.78,0,0,1,352.53,352.35Z"/><path d="M380.46,302.92c1.21-.73,2.46-1.4,3.72-2.05q-1.81-1.19-3.72-2.25c-1.27.71-2.5,1.46-3.72,2.25C378,301.52,379.25,302.19,380.46,302.92Z"/><path d="M380.46,401.78c-1.21.73-2.45,1.41-3.72,2.05,1.22.79,2.45,1.54,3.72,2.25q1.91-1.06,3.72-2.25C382.92,403.19,381.67,402.51,380.46,401.78Z"/><line class="cls-5" x1="65.75" y1="245.94" x2="65.75" y2="328.3"/><line class="cls-5" x1="106.93" y1="287.12" x2="24.57" y2="287.12"/><line class="cls-5" x1="472.01" y1="287.12" x2="389.66" y2="287.12"/></g></svg>