<?xml version="1.0" encoding="utf-8"?>
<!-- Generator: Adobe Illustrator 25.0.0, SVG Export Plug-In . SVG Version: 6.00 Build 0)  -->
<svg version="1.1" id="Ebene_1" xmlns="http://www.w3.org/2000/svg" xmlns:xlink="http://www.w3.org/1999/xlink" x="0px" y="0px"
	 viewBox="0 0 491.5 491.5" style="enable-background:new 0 0 491.5 491.5;" xml:space="preserve">
<style type="text/css">
	.st0{fill:none;}
	.st1{fill:none;stroke:#000000;stroke-width:7;stroke-miterlimit:10;}
</style>
<g id="Layer_x0020_1">
	<g id="_404623376">
		<polygon id="_404627216" points="387.1,197.1 387.1,426.2 387.1,430.1 383.2,430.1 108.3,430.1 104.4,430.1 104.4,426.2 
			104.4,197.1 112.1,197.1 112.1,422.4 379.4,422.4 379.4,197.1 		"/>
		<path id="_404627912" d="M225.1,123.8c-7.4-0.4-14.7-1.1-21.6-2.3c-7.1-1.3-13.6-3.2-19.2-6.3c-13.6-7.5-24.7-18.9-29.2-28.9
			c-1.9-4.2-2.7-8.3-2.1-12c0.7-4.1,2.9-7.4,6.9-9.7c5.5-3.1,14.5-4,28-1.6c16.4,3,30.9,14.1,42.1,25.7c8,8.4,14.3,17,18.3,22.9
			c4-6,10.3-14.9,18.4-23.4c10.9-11.5,25.1-22.4,41.3-25.4c13.6-2.5,22.8-1.6,28.4,1.6c4.1,2.3,6.3,5.7,7,9.7
			c0.6,3.7-0.1,7.8-1.9,12c-4.4,10-15.4,21.4-29.2,29c-6.2,3.4-13.5,5.4-21.5,6.7c-7.7,1.2-15.9,1.8-24.1,2.2l-0.4-7.7
			c7.9-0.4,15.9-0.9,23.3-2.1c7.1-1.1,13.7-2.9,19-5.9c12.4-6.8,22.2-16.8,25.9-25.3c1.3-2.9,1.8-5.5,1.4-7.7
			c-0.3-1.8-1.3-3.3-3.2-4.3c-4.1-2.3-11.6-2.9-23.3-0.7c-14.3,2.6-27.1,12.6-37.1,23.1c-10.2,10.7-17.5,22-20.6,27l-0.1,0.2l-3-1.9
			l-3.4,2.1c-2.8-4.6-10.2-16-20.7-26.9c-10.3-10.7-23.4-20.9-37.9-23.5c-11.6-2.1-18.9-1.5-22.9,0.7c-1.9,1-2.9,2.5-3.1,4.2
			c-0.3,2.1,0.2,4.8,1.5,7.6c3.9,8.7,13.8,18.7,25.9,25.3c4.8,2.6,10.6,4.3,16.9,5.5c6.5,1.2,13.5,1.8,20.7,2.2L225.1,123.8
			L225.1,123.8z"/>
		<path id="_404620424" d="M211.1,116.5h69.3h3.8v3.8v85.8v9.9l-6.7-7.3l-31.8-34.8L214,208.7l-6.7,7.3v-9.9v-85.8v-3.8L211.1,116.5
			L211.1,116.5z M276.5,124.1H215v72.1l28-30.6l2.8-3.1l2.8,3.1l28,30.6V124.1L276.5,124.1z"/>
		<path id="_404634152" d="M280.4,193.3h132.1v-69.1H280.4v-7.7h135.9h3.8v3.8v76.8v3.8h-3.8H280.4V193.3L280.4,193.3z M211.1,124.2
			H79v69.1h132.1v7.7H75.2h-3.8v-3.8v-76.8v-3.8h3.8h135.9V124.2L211.1,124.2z"/>
	</g>
</g>
<rect class="st0" width="491.5" height="491.5"/>
<line class="st1" x1="226" y1="189" x2="226" y2="430.1"/>
<line class="st1" x1="266" y1="189" x2="266" y2="430.1"/>
</svg>
