<?xml version="1.0" encoding="UTF-8"?>
<!DOCTYPE svg PUBLIC "-//W3C//DTD SVG 1.1//EN" "http://www.w3.org/Graphics/SVG/1.1/DTD/svg11.dtd">
<!-- Creator: CorelDRAW -->
<svg xmlns="http://www.w3.org/2000/svg" xml:space="preserve" width="6.82666in" height="6.82666in" style="shape-rendering:geometricPrecision; text-rendering:geometricPrecision; image-rendering:optimizeQuality; fill-rule:evenodd; clip-rule:evenodd"
viewBox="0 0 6.82666 6.82666"
 xmlns:xlink="http://www.w3.org/1999/xlink">
 <defs>
  <style type="text/css">
   <![CDATA[
    .fil1 {fill:none}
    .fil0 {fill:black;fill-rule:nonzero}
   ]]>
  </style>
 </defs>
 <g id="Layer_x0020_1">
  <metadata id="CorelCorpID_0Corel-Layer"/>
  <path class="fil0" d="M3.30282 2.14762c0.47965,0 0.914508,0.0344173 1.22983,0.0900591 0.339673,0.0599449 0.54978,0.153988 0.54978,0.267913 0,0.113921 -0.210106,0.207969 -0.54978,0.267913 -0.315319,0.0556417 -0.750177,0.0900591 -1.22983,0.0900591 -0.479654,0 -0.914516,-0.0344213 -1.22983,-0.0900591 -0.339677,-0.0599449 -0.549783,-0.153988 -0.549783,-0.267913 0,-0.113925 0.210106,-0.207969 0.549783,-0.267913 0.315311,-0.0556378 0.750173,-0.0900591 1.22983,-0.0900591zm1.2115 0.195059c-0.309472,-0.0546063 -0.73776,-0.0883898 -1.2115,-0.0883898 -0.47374,0 -0.902031,0.0337835 -1.2115,0.0883898 -0.285098,0.050311 -0.461445,0.108602 -0.461445,0.162913 0,0.0543189 0.176346,0.112602 0.461445,0.162913 0.309465,0.0546063 0.737756,0.0883898 1.2115,0.0883898 0.473736,0 0.902024,-0.0337835 1.2115,-0.0883898 0.285094,-0.050311 0.461441,-0.108594 0.461441,-0.162913 0,-0.054311 -0.176346,-0.112602 -0.461441,-0.162913z"/>
  <path class="fil0" d="M5.08201 2.51259c-0.0031063,-0.0292244 -0.0293189,-0.0503976 -0.0585433,-0.0472913 -0.0292244,0.0031063 -0.0503976,0.0293189 -0.0472913,0.0585433 0.000547244,0.00517323 0.199661,1.79806 -0.58822,2.38897l0.031874 0.0425 -0.032 -0.0426654c-0.0139606,0.0104685 -0.0213228,0.0264646 -0.0213346,0.0426654l0 0.000114173 0 0.298063c0,0.109949 -0.276161,0.187244 -0.627031,0.225654 -0.143689,0.0157283 -0.298547,0.0237874 -0.452457,0.0239921 -0.153835,0.000204724 -0.307787,-0.00743701 -0.449768,-0.0230945 -0.33685,-0.0371457 -0.598091,-0.113083 -0.598091,-0.226551l0 -0.298177c0,-0.018748 -0.00967717,-0.0352362 -0.024311,-0.044748 -0.784492,-0.593134 -0.585921,-2.38156 -0.585374,-2.38672 0.0031063,-0.0292244 -0.0180669,-0.055437 -0.0472913,-0.0585433 -0.0292244,-0.0031063 -0.055437,0.0180669 -0.0585433,0.0472913 -0.000562992,0.00529921 -0.202768,1.82523 0.60885,2.46831l0 0.272587c0,0.180846 0.302736,0.289339 0.693091,0.332386 0.144575,0.0159449 0.302555,0.0237205 0.461437,0.0235118 0.158815,-0.000208661 0.317543,-0.00840945 0.463709,-0.0244094 0.404264,-0.0442559 0.722449,-0.154736 0.722449,-0.331488l0 -0.272583c0.81161,-0.643083 0.609409,-2.46302 0.608846,-2.46832z"/>
  <path class="fil0" d="M5.0529 2.82789c-0.0294528,0 -0.0533346,0.0238819 -0.0533346,0.0533346 0,0.0294528 0.0238819,0.0533346 0.0533346,0.0533346 0.189571,0 0.390264,0.00508661 0.527079,0.0813898 0.129543,0.072248 0.206264,0.216008 0.166878,0.497988 -0.0279016,0.199768 -0.144031,0.391937 -0.31013,0.532724 -0.159795,0.135445 -0.365378,0.222665 -0.582665,0.222665 -0.0294528,0 -0.0533346,0.0238819 -0.0533346,0.0533346 0,0.0294528 0.0238819,0.0533346 0.0533346,0.0533346 0.24361,0 0.473374,-0.0971732 0.651413,-0.248083 0.185374,-0.157126 0.315217,-0.37328 0.346799,-0.599394 0.0469252,-0.335969 -0.0534055,-0.512224 -0.220626,-0.605484 -0.159937,-0.0892008 -0.375744,-0.0951457 -0.578748,-0.0951457z"/>
  <path class="fil0" d="M2.15165 5.21376c0.0292244,-0.00287402 0.0505827,-0.0289016 0.0477087,-0.058126 -0.00287402,-0.0292244 -0.0289016,-0.0505827 -0.058126,-0.0477087 -0.362004,0.0359409 -0.664406,0.0882126 -0.874516,0.15111 -0.224319,0.0671496 -0.352783,0.153681 -0.352783,0.254791 0,0.142016 0.278378,0.261437 0.728449,0.339709 0.42561,0.0740157 1.01272,0.119803 1.66044,0.119803 0.647713,0 1.23482,-0.0457874 1.66044,-0.119803 0.450071,-0.0782717 0.728449,-0.197693 0.728449,-0.339709 0,-0.102232 -0.131799,-0.189681 -0.361476,-0.257307 -0.215575,-0.0634724 -0.525386,-0.115941 -0.895386,-0.151457 -0.0292244,-0.00275984 -0.0551575,0.0186929 -0.0579173,0.0479173 -0.00275984,0.0292244 0.0186929,0.0551575 0.0479173,0.0579173 0.362969,0.0348425 0.665854,0.0860079 0.875386,0.147701 0.180961,0.0532835 0.284807,0.106866 0.284807,0.155228 0,0.0823031 -0.244461,0.165976 -0.639693,0.234709 -0.419681,0.0729843 -1.00036,0.118134 -1.64252,0.118134 -0.642169,0 -1.22285,-0.0451496 -1.64252,-0.118134 -0.395232,-0.0687323 -0.639693,-0.152406 -0.639693,-0.234709 0,-0.0473976 0.100697,-0.100079 0.276531,-0.152713 0.204323,-0.0611654 0.499811,-0.112138 0.854516,-0.147354z"/>
  <path class="fil0" d="M2.88776 1.16398c0,-0.0294528 -0.0238819,-0.0533346 -0.0533346,-0.0533346 -0.0294528,0 -0.0533346,0.0238819 -0.0533346,0.0533346 0,0.0277126 -0.0229882,0.0640236 -0.0459685,0.100323 -0.0313189,0.0494685 -0.0626378,0.0989409 -0.0626378,0.156996 0,0.0580512 0.0313189,0.107528 0.0626378,0.156988 0.0229803,0.0362992 0.0459685,0.0726102 0.0459685,0.100323 0,0.0277165 -0.0229882,0.0640276 -0.0459685,0.100327 -0.0313189,0.0494606 -0.0626378,0.0989331 -0.0626378,0.156988 0,0.0294528 0.0238819,0.0533346 0.0533346,0.0533346 0.0294528,0 0.0533346,-0.0238819 0.0533346,-0.0533346 0,-0.0277126 0.0229843,-0.0640236 0.0459685,-0.100319 0.031315,-0.0494646 0.0626378,-0.098937 0.0626378,-0.156996 0,-0.0580551 -0.0313228,-0.107528 -0.0626378,-0.156992 -0.0229843,-0.0362953 -0.0459685,-0.0726024 -0.0459685,-0.100319 0,-0.0277165 0.0229843,-0.0640236 0.0459685,-0.100327 0.031315,-0.0494646 0.0626378,-0.098937 0.0626378,-0.156992z"/>
  <path class="fil0" d="M3.4625 0.906661c0,-0.0294528 -0.0238819,-0.0533346 -0.0533346,-0.0533346 -0.0294528,0 -0.0533346,0.0238819 -0.0533346,0.0533346 0,0.0277165 -0.0229882,0.0640276 -0.0459685,0.100327 -0.0313189,0.0494646 -0.0626378,0.098937 -0.0626378,0.156992 0,0.0580551 0.0313189,0.107528 0.0626378,0.156992 0.0229803,0.0362992 0.0459685,0.0726102 0.0459685,0.100323 0,0.0277165 -0.0229882,0.0640236 -0.0459685,0.100319 -0.0313189,0.0494646 -0.0626378,0.098937 -0.0626378,0.156992 0,0.0294528 0.0238819,0.0533346 0.0533346,0.0533346 0.0294528,0 0.0533346,-0.0238819 0.0533346,-0.0533346 0,-0.0277165 0.0229882,-0.0640236 0.0459685,-0.100323 0.031315,-0.0494606 0.0626378,-0.0989331 0.0626378,-0.156988 0,-0.0580551 -0.0313228,-0.107528 -0.0626378,-0.156992 -0.0229803,-0.0362992 -0.0459685,-0.0726063 -0.0459685,-0.100323 0,-0.0277165 0.0229882,-0.0640236 0.0459685,-0.100323 0.031315,-0.0494646 0.0626378,-0.098937 0.0626378,-0.156996z"/>
  <path class="fil0" d="M3.93315 1.16398c0,-0.0294528 -0.0238819,-0.0533346 -0.0533346,-0.0533346 -0.0294528,0 -0.0533346,0.0238819 -0.0533346,0.0533346 0,0.0277165 -0.0229882,0.0640236 -0.0459685,0.100323 -0.031311,0.0494685 -0.0626378,0.098937 -0.0626378,0.156996 0,0.0580551 0.0313228,0.107528 0.0626378,0.156988 0.0229803,0.0362992 0.0459685,0.0726063 0.0459685,0.100323 0,0.0277165 -0.0229882,0.0640276 -0.0459685,0.100327 -0.0313189,0.0494606 -0.0626378,0.0989331 -0.0626378,0.156988 0,0.0294528 0.0238819,0.0533346 0.0533346,0.0533346 0.0294528,0 0.0533346,-0.0238819 0.0533346,-0.0533346 0,-0.0277126 0.0229843,-0.0640236 0.0459685,-0.100319 0.031315,-0.0494646 0.0626378,-0.098937 0.0626378,-0.156996 0,-0.0580551 -0.0313189,-0.107528 -0.0626378,-0.156992 -0.0229803,-0.0362953 -0.0459685,-0.0726024 -0.0459685,-0.100319 0,-0.0277087 0.0229882,-0.0640236 0.0459685,-0.100327 0.0313189,-0.0494646 0.0626378,-0.098937 0.0626378,-0.156992z"/>
 </g>
 <rect class="fil1" width="6.82666" height="6.82666"/>
</svg>
