<?xml version="1.0" encoding="utf-8"?>
<!-- Generator: Adobe Illustrator 25.0.0, SVG Export Plug-In . SVG Version: 6.00 Build 0)  -->
<svg version="1.1" id="icon" xmlns="http://www.w3.org/2000/svg" xmlns:xlink="http://www.w3.org/1999/xlink" x="0px" y="0px"
	 viewBox="0 0 502.3 502.3" style="enable-background:new 0 0 502.3 502.3;" xml:space="preserve">
<style type="text/css">
	.st0{fill:none;stroke:#000000;stroke-width:7;stroke-linecap:round;stroke-linejoin:round;stroke-miterlimit:10;}
	.st1{fill:none;stroke:#000000;stroke-width:5.7819;stroke-linecap:round;stroke-linejoin:round;stroke-miterlimit:10;}
	.st2{fill:none;stroke:#000000;stroke-width:6.0886;stroke-linecap:round;stroke-linejoin:round;stroke-miterlimit:10;}
	.st3{fill:none;stroke:#000000;stroke-width:6;stroke-linecap:round;stroke-linejoin:round;stroke-miterlimit:10;}
	.st4{fill:none;stroke:#000000;stroke-width:6.1996;stroke-linecap:round;stroke-linejoin:round;stroke-miterlimit:10;}
</style>
<path class="st0" d="M436.8,215.9v161.8c0,9.5-8.2,17.3-18.2,17.3H313.2c-7.8,0-14.1-6-14.1-13.4V215.9"/>
<path class="st0" d="M437.7,195.3v18.1c0,1-0.8,1.8-1.8,1.8l-369.5,0.9c-1,0-1.8-0.8-1.8-1.8v-18.1c0-1,0.8-1.8,1.8-1.8l369.5-0.9
	C436.9,193.5,437.7,194.3,437.7,195.3z"/>
<rect x="65.3" y="216.2" class="st0" width="14.8" height="178.9"/>
<line class="st0" x1="298.6" y1="303.7" x2="436.9" y2="303.7"/>
<line class="st1" x1="388.7" y1="256.6" x2="350.9" y2="256.6"/>
<line class="st1" x1="202.6" y1="233.1" x2="164.7" y2="233.1"/>
<line class="st1" x1="388.2" y1="350.9" x2="350.4" y2="350.9"/>
<path class="st2" d="M253.5,177.4c1.6,9.8-3,16.1-9.8,16.1H120.4c-15.6,0.8-14.5-10.9-14.5-16.1"/>
<line class="st3" x1="106.9" y1="176.1" x2="252.5" y2="176.1"/>
<path class="st0" d="M187.5,169.6"/>
<line class="st0" x1="82.6" y1="249.4" x2="297.4" y2="249"/>
<polyline class="st4" points="115.2,173 115.2,98.4 241.1,98.4 241.1,173 "/>
</svg>
