<svg xmlns="http://www.w3.org/2000/svg" viewBox="0 0 491.5 491.5"><defs><style>.cls-1,.cls-2,.cls-3,.cls-4{fill:none;stroke:#000;}.cls-1,.cls-2,.cls-3{stroke-miterlimit:10;}.cls-1{stroke-width:4.86px;}.cls-2{stroke-width:5.51px;}.cls-3,.cls-4{stroke-linecap:round;stroke-width:6.5px;}.cls-4{stroke-linejoin:round;}</style></defs><g id="Ebene_2" data-name="Ebene 2"><rect class="cls-1" x="49.21" y="36.96" width="192.22" height="192.22" rx="9.73"/><circle class="cls-2" cx="145.32" cy="133.07" r="63.02"/><circle class="cls-1" cx="120.31" cy="132.16" r="13.14"/><circle class="cls-1" cx="170.62" cy="132.26" r="13.14"/></g><g id="Ebene_4" data-name="Ebene 4"><g id="Layer_1" data-name="Layer 1"><path d="M199.9,343.09H416.84a5.29,5.29,0,0,0,5.05-5.56V265.89a5.38,5.38,0,0,0-5.05-5.56H199.9a5.29,5.29,0,0,0-5.06,5.56v71.64A5.38,5.38,0,0,0,199.9,343.09ZM422,345.84H197.59c-4.55,0-8.23-4-8.23-8.89V263.08c0-4.7,3.46-8.45,7.79-8.45H419.51c4.33,0,7.8,3.75,7.8,8.45V340A5.56,5.56,0,0,1,422,345.84Z"/><path d="M214.56,344c0,1.08,1.23,1.88,2.74,1.88s2.75-.87,2.75-1.88V306.69h66V344c0,1.08,1.23,1.88,2.75,1.88s2.74-.87,2.74-1.88V304.82c0-1.09-1.23-1.88-2.74-1.88H217.23c-1.52,0-2.74.87-2.74,1.88l.07,39.14Z"/><path d="M320.28,344c0,1.08,1.23,1.88,2.75,1.88s2.74-.87,2.74-1.88V306.69h66V344c0,1.08,1.22,1.88,2.74,1.88s2.75-.87,2.75-1.88V304.82c0-1.09-1.23-1.88-2.75-1.88H323c-1.52,0-2.75.87-2.75,1.88l.07,39.14Z"/><path d="M344.33,326h30.19a10.35,10.35,0,0,1,10.32,10.32h0a10.35,10.35,0,0,1-10.32,10.33H344.33A10.36,10.36,0,0,1,334,336.3h0A10.36,10.36,0,0,1,344.33,326Zm30.19,5.49H344.33a4.7,4.7,0,0,0-4.77,4.76h0a4.7,4.7,0,0,0,4.77,4.77h30.19a4.68,4.68,0,0,0,4.76-4.77h0a4.77,4.77,0,0,0-1.37-3.39A4.65,4.65,0,0,0,374.52,331.47Z"/><path d="M237.38,326h30.19a10.35,10.35,0,0,1,10.32,10.32h0a10.35,10.35,0,0,1-10.32,10.33H237.38a10.36,10.36,0,0,1-10.33-10.33h0a10.33,10.33,0,0,1,3-7.29A10.16,10.16,0,0,1,237.38,326Zm30.19,5.49H237.38a4.68,4.68,0,0,0-4.77,4.76h0a4.68,4.68,0,0,0,4.77,4.77h30.19a4.68,4.68,0,0,0,4.76-4.77h0a4.77,4.77,0,0,0-1.37-3.39A5.1,5.1,0,0,0,267.57,331.47Z"/><path d="M441.17,346.27a19.17,19.17,0,0,0-9.38-2.24H185a19.44,19.44,0,0,0-9.39,2.24c-2.38,1.37-3.9,3.25-3.9,5.27V377.9a1.36,1.36,0,0,0,.58,1h0c.14,0,.29-.07.43-.07h.08c.14,0,.28-.07.43-.07h2.09c.22,0,.51.07.73.07h0a11.68,11.68,0,0,1,1.87-.29l.15-2.38V351.54a3.48,3.48,0,0,1,2.09-2.82,10.29,10.29,0,0,1,4.91-1.15H431.93a9.9,9.9,0,0,1,4.91,1.15,3.48,3.48,0,0,1,2.09,2.82v24.63h0c.08.86.15,1.73.22,2.6h0c0,.07-.22.29,0,.43a2.1,2.1,0,0,0,1.59.14c.43.15.87.22,1.3.37a4.92,4.92,0,0,0,2.24-.51,1.66,1.66,0,0,0,.94-1.23V351.61C445.07,349.52,443.56,347.64,441.17,346.27Z"/><path d="M175.85,445.35V386.13a5.43,5.43,0,0,1,1.59-3.82,5.18,5.18,0,0,1,3.68-1.52H435.83a5.31,5.31,0,0,1,5.27,5.34v59.22H430.92c-15.31-.14-15.67-.14-15.67,1.3s-.22,3.9,1.37,3.9H444a2.76,2.76,0,0,0,2.89-2.6V386.13c0-2.89.72-7.07-1.23-8.95s-6.72-1.59-9.82-1.59H181.12c-3.1,0-7.29,0-9.31,2s-1.74,5.78-1.74,8.59V448a2.76,2.76,0,0,0,2.89,2.6l27.44-.29c1.59,0,1.88-.94,1.88-2.31s0-2.6-1.59-2.6Z"/><line class="cls-3" x1="203.65" y1="408.66" x2="415.9" y2="408.66"/><polyline class="cls-4" points="415.75 408.66 415.68 431.34 415.75 447.08 415.75 408.66 202.06 408.66 201.27 446.94"/></g></g></svg>