<svg xmlns="http://www.w3.org/2000/svg" viewBox="0 0 491.5 491.5"><defs><style>.cls-1,.cls-2,.cls-3{fill:none;}.cls-2,.cls-3{stroke:#000;stroke-miterlimit:10;}.cls-2{stroke-width:4.12px;}.cls-3{stroke-width:4.78px;}</style></defs><g id="Ebene_2" data-name="Ebene 2"><rect class="cls-1" x="124.34" y="349.04" width="15.32" height="66.83"/><rect class="cls-1" x="248.43" y="382.4" width="11.64" height="50.78"/><rect class="cls-1" x="284.18" y="382.4" width="11.64" height="50.78"/><rect class="cls-1" x="319.94" y="382.4" width="11.64" height="50.78"/><path d="M362.49,433.18H355.7V382.4h6.79a1.32,1.32,0,0,0,0-2.63H355.7v-30.2a1.35,1.35,0,0,0-.27-.8l-5.37-7-5.38-7a1.37,1.37,0,0,0-2.08,0l-10.74,13.94a1.29,1.29,0,0,0-.27.8v30.2H319.94v-30.2a1.29,1.29,0,0,0-.27-.8l-10.74-13.94a1.38,1.38,0,0,0-2.09,0L296.1,348.77a1.35,1.35,0,0,0-.27.8v30.2H284.18v-30.2a1.29,1.29,0,0,0-.27-.8l-5.37-7-5.37-7a1.37,1.37,0,0,0-2.08,0l-10.74,13.94a1.3,1.3,0,0,0-.28.8v30.2H248.43v-30.2a1.3,1.3,0,0,0-.28-.8l-5.37-7-5.37-7a1.37,1.37,0,0,0-2.08,0l-10.74,13.94a1.29,1.29,0,0,0-.27.8v30.2H212.67v-30.2a1.35,1.35,0,0,0-.27-.8l-5.37-7-5.37-7a1.38,1.38,0,0,0-2.09,0l-10.74,13.94a1.29,1.29,0,0,0-.27.8v30.2H176.91v-30.2a1.29,1.29,0,0,0-.27-.8l-5.37-7-5.37-7a1.37,1.37,0,0,0-2.08,0l-10.75,13.94a1.35,1.35,0,0,0-.27.8v30.2H146a1.32,1.32,0,1,0,0,2.63h6.79v50.78H146a1.32,1.32,0,1,0,0,2.63h6.79v29.28a1.32,1.32,0,0,0,1.32,1.32H175.6a1.31,1.31,0,0,0,1.31-1.32V435.81h11.65v29.28a1.32,1.32,0,0,0,1.31,1.32h21.49a1.32,1.32,0,0,0,1.31-1.32V435.81h11.65v29.28a1.31,1.31,0,0,0,1.31,1.32h21.48a1.32,1.32,0,0,0,1.32-1.32V435.81h11.64v29.28a1.32,1.32,0,0,0,1.32,1.32h21.48a1.31,1.31,0,0,0,1.31-1.32V435.81h11.65v29.28a1.32,1.32,0,0,0,1.31,1.32h21.49a1.32,1.32,0,0,0,1.31-1.32V435.81h11.65v29.28a1.31,1.31,0,0,0,1.31,1.32h21.48a1.32,1.32,0,0,0,1.32-1.32V435.81h6.79a1.32,1.32,0,0,0,0-2.63ZM174.28,379.77v84H155.43V350l9.43-12.23L174.28,350Zm14.28,53.41H176.91V382.4h11.65ZM210,379.77v84H191.19V350l9.42-12.23L210,350Zm14.28,53.41H212.67V382.4h11.65Zm21.48-53.41v84H227V350l9.42-12.23L245.8,350Zm14.27,53.41H248.43V382.4h11.64Zm21.48-53.41v84H262.7V350l9.43-12.23L281.55,350Zm14.28,53.41H284.18V382.4h11.65Zm21.48-53.41v84H298.46V350l9.43-12.23L317.31,350Zm14.28,53.41H319.94V382.4h11.65Zm21.48,30.6H334.22V350l9.42-12.23L353.07,350V463.78Z"/><path d="M440.69,465.74c-24.28-57.89-19.14-172.67-19.08-173.82l3.34.16c-.06,1.15-5.16,115.17,18.82,172.37Z"/><path d="M453.5,175.06a34.76,34.76,0,0,0-5.36.42,35.3,35.3,0,0,0-41.79-8.37A35.28,35.28,0,0,0,344,182c-10.79,3.3-19.89,13.81-24.6,28.43a35.29,35.29,0,0,0,12.53,69.43,35.12,35.12,0,0,0,12.41,9,57.78,57.78,0,0,0,6.32,24.83c11.11,21.8,32.9,30,49.77,33,.13,12,.68,97.77-11.8,117.61l2.83,1.78c5.87-9.33,9.72-32.54,11.44-69,1.27-27,.85-51.6.85-51.85l0-1.39-1.37-.23c-23.6-3.86-40-14.38-48.64-31.29a55.75,55.75,0,0,1-6-22.19,35.28,35.28,0,0,0,9.28,1.62c3.11,13,9.28,22.5,18.38,28.26a42.58,42.58,0,0,0,22.76,6.2,43,43,0,0,0,8.91-.85l1-.23.25-1c2.08-8.35,1.09-19.09.6-23.12a35.14,35.14,0,0,0,27.19-27.6c10.78-3.31,19.88-13.81,24.6-28.43a35.29,35.29,0,0,0-7.17-69.85ZM405.27,322.21c-3.68.61-16.75,2.09-28.12-5.1-8.17-5.18-13.79-13.74-16.74-25.48a35.34,35.34,0,0,0,13.28-3.45,35.41,35.41,0,0,0,27.77,13.54,34.89,34.89,0,0,0,4.11-.25C406,305.23,406.86,314.71,405.27,322.21Zm53.81-80.41-1,.18-.3,1c-4.42,14.48-13.24,24.74-23.58,27.44l-1.05.27-.18,1.07a31.94,31.94,0,0,1-57.43,13.34l-.85-1.19-1.29.69a31.94,31.94,0,0,1-39.56-7.65l-.62-.74-1,.17A31.94,31.94,0,1,1,321,213.48l1-.18.3-1c4.43-14.47,13.24-24.73,23.59-27.43l1-.28.18-1.06a31.94,31.94,0,0,1,57.43-13.34l.86,1.19,1.29-.69a31.93,31.93,0,0,1,39.55,7.65l.63.74.95-.17a31.94,31.94,0,1,1,11.3,62.87Z"/><polygon class="cls-2" points="79.84 179.35 79.84 206.74 128.42 206.74 128.42 230.59 170.82 188.19 128.86 146.23 128.86 170.52 79.84 170.52 79.84 179.35"/><polygon class="cls-3" points="210.46 289.42 64.24 335.74 64.24 40.07 211.87 71.31 210.46 289.42"/></g></svg>