<svg xmlns="http://www.w3.org/2000/svg" viewBox="0 0 491.5 491.5"><defs><style>.cls-1,.cls-2{fill:none;stroke:#000;stroke-miterlimit:10;}.cls-1{stroke-width:5.76px;}.cls-2{stroke-width:5.2px;}</style></defs><g id="Ebene_2" data-name="Ebene 2"><path class="cls-1" d="M454.45,324,320.84,273.49l-.22-.07A29.5,29.5,0,0,0,309,271H177.59L83.2,176.65a29.58,29.58,0,0,0-41.83,0h0a29.58,29.58,0,0,0,0,41.83l101,101a29.59,29.59,0,0,0,5.13,4.1,29.47,29.47,0,0,0,18.64,6.61H303.53l130,49.15a29.58,29.58,0,0,0,38.13-17.21h0A29.58,29.58,0,0,0,454.45,324Z"/><line class="cls-1" x1="180.89" y1="244.42" x2="180.89" y2="312.98"/><rect class="cls-2" x="175.13" y="228.23" width="78.48" height="18.4" rx="9.2"/><rect class="cls-2" x="186.64" y="330.19" width="94.31" height="20.29"/><polygon class="cls-2" points="332.82 431.54 132.13 431.54 186.64 350.49 280.96 350.49 332.82 431.54"/></g></svg>