<svg xmlns="http://www.w3.org/2000/svg" viewBox="0 0 491.5 491.5"><defs><style>.cls-1{fill:none;stroke:#000;stroke-miterlimit:10;stroke-width:6px;}</style></defs><g id="Ebene_2" data-name="Ebene 2"><rect class="cls-1" x="56.43" y="62.12" width="375.54" height="375.54"/><line class="cls-1" x1="107.82" y1="60.83" x2="107.82" y2="436.36"/><line class="cls-1" x1="153.66" y1="61.86" x2="153.66" y2="437.4"/><line class="cls-1" x1="199.51" y1="61.34" x2="199.51" y2="436.88"/><line class="cls-1" x1="245.35" y1="60.72" x2="245.35" y2="436.26"/><line class="cls-1" x1="291.19" y1="62.39" x2="291.19" y2="437.93"/><line class="cls-1" x1="382.87" y1="64.47" x2="382.87" y2="440.01"/><line class="cls-1" x1="337.03" y1="61.36" x2="337.03" y2="436.9"/><line class="cls-1" x1="56.02" y1="187.73" x2="107.82" y2="187.73"/><line class="cls-1" x1="108.38" y1="277.86" x2="155.48" y2="277.86"/><line class="cls-1" x1="151.89" y1="410.47" x2="198.99" y2="410.47"/><line class="cls-1" x1="199.65" y1="113.14" x2="246.75" y2="113.14"/><line class="cls-1" x1="198.61" y1="307.03" x2="245.71" y2="307.03"/><line class="cls-1" x1="245.61" y1="186.18" x2="292.71" y2="186.18"/><line class="cls-1" x1="292.26" y1="276.31" x2="339.36" y2="276.31"/><line class="cls-1" x1="335.77" y1="408.91" x2="382.87" y2="408.91"/><line class="cls-1" x1="383.53" y1="111.59" x2="430.64" y2="111.59"/><line class="cls-1" x1="382.5" y1="305.47" x2="429.6" y2="305.47"/></g></svg>