<svg xmlns="http://www.w3.org/2000/svg" viewBox="0 0 491.5 491.5"><defs><style>.cls-1{fill:none;stroke:#000;stroke-miterlimit:10;stroke-width:4.04px;}</style></defs><g id="Ebene_2" data-name="Ebene 2"><path class="cls-1" d="M309.82,95.64H208.92V106.8H194.27a11.86,11.86,0,0,0-11.86,11.86v6.51A11.86,11.86,0,0,0,194.27,137h14.65v11.16h16.37c2.9,5.05,15.22,29.95-12.65,47.43,0,0,34.74,4.33,38.33-47.43h58.85Z"/><path d="M271.1,189.12a63.86,63.86,0,0,1,63.79,63.79c0,1.56-.08,3.25-.23,5.16v198.2H207.31V251.8l.07-1.65a63.78,63.78,0,0,1,63.72-61m0-4A67.82,67.82,0,0,0,203.34,250h-.07V460.31H338.69V258.39c.14-1.81.24-3.63.24-5.48a67.83,67.83,0,0,0-67.83-67.83Z"/><path class="cls-1" d="M204.47,327.55s11.52,36.17,54.1,34.89,37.46-31.37,73.32-32.33l5.12.32"/><rect class="cls-1" x="257.74" y="148.77" width="27.9" height="38.13"/></g></svg>