<svg xmlns="http://www.w3.org/2000/svg" viewBox="0 0 491.5 491.5"><defs><style>.cls-1,.cls-2{fill:none;stroke:#000;stroke-miterlimit:10;}.cls-1{stroke-width:4.12px;}.cls-2{stroke-width:3px;}</style></defs><g id="Layer_7" data-name="Layer 7"><path d="M227.31,221.51l18,10.92a1.38,1.38,0,0,0,1.43,0l18-10.92a1.37,1.37,0,0,0-.71-2.55H228a1.37,1.37,0,0,0-.71,2.55Zm31.86.2-13.11,7.94-13.12-7.94Z"/><path class="cls-1" d="M341.38,164.86c0-14.45-5.89-27.88-16-39.06l.82-26,.6-19.18a6.09,6.09,0,0,0-9-5.56l-16.92,9.07L275.49,97.79a128.87,128.87,0,0,0-59.91.1L190,84.15l-16.92-9.07a6.09,6.09,0,0,0-9,5.56l.6,19.18.84,26.64c-9.74,11-15.4,24.24-15.4,38.4,0,22.75,14.59,43,37.24,55.88,7.11,29.9,30.89,51.89,59.12,51.89,28.55,0,52.54-22.47,59.35-52.88C327.51,206.81,341.38,187,341.38,164.86Z"/><ellipse class="cls-2" cx="136.75" cy="309.76" rx="97.49" ry="18.28"/><path class="cls-2" d="M234.24,309.76,209.92,370c-78.18,21.45-144.59,0-144.59,0l-26.06-60.2"/><ellipse class="cls-2" cx="350.37" cy="309.76" rx="97.49" ry="18.28"/><path class="cls-2" d="M447.86,309.76,423.53,370c-78.17,21.45-144.59,0-144.59,0l-26.06-60.2"/></g></svg>