<svg xmlns="http://www.w3.org/2000/svg" viewBox="0 0 491.5 491.5"><defs><style>.cls-1{fill:none;}</style></defs><g id="Layer_7" data-name="Layer 7"><path class="cls-1" d="M256.38,291.48c-29.13,0-54.86-22.27-62.84-54.27a97.88,97.88,0,0,1-12.69-8.75c-24,2.34-46.06,5.83-64.94,10.35C79.77,247.46,59,259.15,59,270.88S79.77,294.3,115.91,303c22.55,5.4,49.6,9.33,79.14,11.59q9.69.75,19.7,1.25c13.3.66,27,1,40.88,1s27.58-.35,40.87-1q10-.51,19.71-1.25c29.53-2.26,56.59-6.19,79.14-11.59,36.14-8.65,56.87-20.34,56.87-32.07s-20.73-23.42-56.87-32.07c-18.89-4.52-41-8-65-10.36a94.39,94.39,0,0,1-10.89,7.7C311.81,268.78,286,291.48,256.38,291.48Z"/><polygon class="cls-1" points="269.48 236.82 242.41 236.82 255.94 245.02 269.48 236.82"/><path d="M236.6,236.61l18.61,11.28a1.45,1.45,0,0,0,1.47,0l18.61-11.28a1.42,1.42,0,0,0-.74-2.63H237.34a1.42,1.42,0,0,0-.74,2.63Zm32.88.21L256,245l-13.54-8.2Z"/><path d="M455.22,270.88c0-20.61-49.52-37.87-121.64-45.17-1,.93-2.1,1.85-3.2,2.74,24,2.35,46.08,5.84,65,10.36,36.14,8.65,56.87,20.34,56.87,32.07S431.49,294.3,395.35,303c-22.55,5.4-49.61,9.33-79.14,11.59q-9.69.75-19.71,1.25c-13.29.66-27,1-40.87,1s-27.58-.35-40.88-1q-10-.51-19.7-1.25c-29.54-2.26-56.59-6.19-79.14-11.59C79.77,294.3,59,282.61,59,270.88s20.73-23.42,56.87-32.07c18.88-4.52,40.93-8,64.94-10.35-1.1-.9-2.16-1.82-3.19-2.75C105.55,233,56,250.27,56,270.88a13.52,13.52,0,0,0,.88,4.74h0l29.68,85c.25,13.28,18,25.59,50.16,34.68,31.77,9,74,13.94,118.89,13.94s87.11-4.95,118.89-13.94c32.12-9.09,49.9-21.4,50.16-34.68l29.8-85.34h0A13.41,13.41,0,0,0,455.22,270.88Z"/><path d="M340,137.08l1.43-45.74A8.4,8.4,0,0,0,329,83.66l-43,23a135,135,0,0,0-61.22.11L181.62,83.66a8.41,8.41,0,0,0-12.38,7.68l1.46,46.44c-10.38,12-15.87,26-15.87,40.39,0,17.66,8.14,34.29,22.83,47.54,1,.93,2.09,1.85,3.19,2.75a97.88,97.88,0,0,0,12.69,8.75c8,32,33.71,54.27,62.84,54.27,29.59,0,55.43-22.7,63.11-55.33a94.39,94.39,0,0,0,10.89-7.7c1.1-.89,2.17-1.81,3.2-2.74,14.69-13.27,22.84-30,22.84-47.54C356.42,163.48,350.73,149.29,340,137.08Zm-12.24,88.06q-1.71,1.41-3.52,2.74-3.62,2.67-7.66,5.09l-.79.47-.2.89c-7,31.15-31.3,52.9-59.16,52.9-27.43,0-51.66-21.35-58.92-51.9l-.21-.9-.81-.46a96.36,96.36,0,0,1-9.38-6.09q-1.81-1.33-3.53-2.74c-15.69-12.84-24.44-29.39-24.44-47,0-13.6,5.31-26.82,15.36-38.22l.55-.63L173.49,91.2a4.18,4.18,0,0,1,4.16-4.29,4.17,4.17,0,0,1,2,.5l44.61,23.92.79-.19a130.74,130.74,0,0,1,60.81-.11l.79.2L331,87.41a4.15,4.15,0,0,1,6.12,3.79l-1.48,47.45.57.64c10.43,11.55,15.95,25,15.95,38.88C352.17,195.68,343.4,212.28,327.71,225.14Z"/></g></svg>