<svg xmlns="http://www.w3.org/2000/svg" viewBox="0 0 491.5 491.5"><defs><style>.cls-1{fill:none;stroke:#000;stroke-linecap:round;stroke-linejoin:round;stroke-width:6px;}</style></defs><g id="Ebene_2" data-name="Ebene 2"><path d="M270.9,407.39a25.42,25.42,0,0,1-10.48,1.89c-11.19,0-19.61-7.07-19.61-20.08,0-12.43,8.42-20.85,20.73-20.85,4.95,0,8.07,1.06,9.42,1.77l-1.24,4.18a18.68,18.68,0,0,0-8-1.65c-9.3,0-15.48,6-15.48,16.37,0,9.71,5.59,16,15.25,16a20.51,20.51,0,0,0,8.36-1.65Z"/><path d="M277.16,366.88h5.18v17.78h.12a9.71,9.71,0,0,1,3.71-3.65,10.71,10.71,0,0,1,5.3-1.47c3.83,0,9.95,2.36,9.95,12.19v17h-5.18V392.32c0-4.59-1.71-8.48-6.59-8.48A7.45,7.45,0,0,0,282.7,389a6.16,6.16,0,0,0-.36,2.47v17.2h-5.18Z"/><path d="M312.75,395.38c.12,7,4.59,9.9,9.77,9.9a18.67,18.67,0,0,0,7.9-1.48l.88,3.71a23.18,23.18,0,0,1-9.48,1.77c-8.78,0-14-5.77-14-14.37s5.07-15.37,13.37-15.37c9.3,0,11.78,8.19,11.78,13.43a19.11,19.11,0,0,1-.18,2.41Zm15.19-3.71c.06-3.3-1.35-8.42-7.18-8.42-5.24,0-7.54,4.83-7.95,8.42Z"/><path d="M359.7,407.63a19.22,19.22,0,0,1-8.19,1.65c-8.6,0-14.19-5.83-14.19-14.55s6-15.13,15.31-15.13a17.41,17.41,0,0,1,7.18,1.47l-1.17,4a12.11,12.11,0,0,0-6-1.35c-6.53,0-10.07,4.83-10.07,10.78,0,6.59,4.24,10.66,9.89,10.66a14.65,14.65,0,0,0,6.36-1.42Z"/><path d="M370.9,393.26H371c.7-1,1.71-2.24,2.53-3.24l8.36-9.83h6.24l-11,11.72,12.55,16.78h-6.3L373.55,395,370.9,398v10.72h-5.12V366.88h5.12Z"/><path d="M411.67,372.18a3.21,3.21,0,0,1-6.42,0,3.16,3.16,0,0,1,3.24-3.24A3.08,3.08,0,0,1,411.67,372.18Zm-5.77,36.51v-28.5h5.18v28.5Z"/><path d="M419.69,387.9c0-2.94-.06-5.36-.24-7.71H424l.3,4.71h.11a10.5,10.5,0,0,1,9.43-5.36c3.94,0,10.07,2.36,10.07,12.13v17h-5.18V392.26c0-4.59-1.71-8.42-6.6-8.42a7.36,7.36,0,0,0-6.95,5.3,7.61,7.61,0,0,0-.35,2.41v17.14h-5.18Z"/><rect class="cls-1" x="56.52" y="74.92" width="196.83" height="129.5" transform="translate(-51.52 169.5) rotate(-50.25)"/><path d="M265.36,314.3c81.9-25.58,127.73-113,102.15-194.93L346,126.1c21.87,70-17.32,144.81-87.35,166.68Z"/><path d="M251.92,271.25a110.63,110.63,0,0,0,72.54-138.43l-21.52,6.72a88.07,88.07,0,0,1-57.75,110.19Z"/><path d="M238.47,228.2a65.48,65.48,0,0,0,42.94-81.94L259.89,153a42.87,42.87,0,0,1-28.14,53.7Z"/></g></svg>