<?xml version="1.0" encoding="utf-8"?>
<!-- Generator: Adobe Illustrator 25.0.0, SVG Export Plug-In . SVG Version: 6.00 Build 0)  -->
<svg version="1.1" xmlns="http://www.w3.org/2000/svg" xmlns:xlink="http://www.w3.org/1999/xlink" x="0px" y="0px"
	 viewBox="0 0 503.6 503.6" style="enable-background:new 0 0 503.6 503.6;" xml:space="preserve">
<style type="text/css">
	.st0{fill:none;stroke:#000000;stroke-width:7.4015;stroke-linecap:round;stroke-linejoin:round;stroke-miterlimit:10;}
	.st1{fill:none;stroke:#000000;stroke-width:6;stroke-linecap:round;stroke-linejoin:round;stroke-miterlimit:10;}
	.st2{fill:none;stroke:#000000;stroke-width:7;stroke-linecap:round;stroke-linejoin:round;stroke-miterlimit:10;}
	.st3{fill:none;stroke:#000000;stroke-width:6.402;stroke-linecap:round;stroke-linejoin:round;stroke-miterlimit:10;}
	.st4{fill:none;stroke:#000000;stroke-width:8;stroke-linecap:round;stroke-linejoin:round;stroke-miterlimit:10;}
	.st5{fill:none;stroke:#000000;stroke-width:6.0751;stroke-linecap:round;stroke-linejoin:round;stroke-miterlimit:10;}
	.st6{display:none;}
	.st7{display:inline;opacity:0.23;}
</style>
<g id="New_icon">
	<path class="st0" d="M429.2,97.4"/>
	<path class="st0" d="M71.2,103.8"/>
	<path class="st0" d="M429.2,275"/>
	<path class="st1" d="M140.8-13.9"/>
	<line class="st2" x1="274.3" y1="288.5" x2="273.9" y2="178.9"/>
	<line class="st2" x1="243.2" y1="288.9" x2="244.1" y2="185.6"/>
	<path class="st3" d="M257.1,450.3"/>
	<path class="st4" d="M257.6,451.2l-2.9,3.3c-3.3,3.9-7.1,7.3-11.3,10.3v0c-2.5,1-5.9,1.3-8.3-0.7c0,0,0,0,0,0
		c-3.5-2.9-5.6-7.2-5.7-11.9l-2-76c-1.2-6.7-6.7-12.8-13.6-12.6c-52.3,1.5-74.8-10.8-88.1-20.5c-15.5-11.4-23.9-26.5-31.1-46.5
		c-0.3-0.8-0.6-1.6-0.9-2.4c-1.1-3.1-1.9-6.3-2.6-9.7c-1.7-8.3-2.5-16.9-2.5-25.4V136.1c1.4-38.5,23.7-75.3,59.6-92.5
		c0.8-0.4,1.5-0.7,2.3-1.1c9.5-4.3,19.8-6.3,30.2-6.3l131.7,0C339,36.3,364.7,46,384,64c0.8,0.7,1.5,1.4,2.2,2.1
		c18.5,18.2,28.8,43.1,28.8,69.1l0,131.4c0,24.7-10.1,48-26.7,66.4c-8.7,9.6-13.4,14.9-39.5,25.5c-0.1,0.1,1.7-0.3,1.6-0.3
		c-24.5,6.2-37.4,16.6-50.2,33.5L257.6,451.2"/>
	<path class="st2" d="M275,289.2h13.9c8.2,0,14.9,6.7,14.9,14.9v0c0,8.2-6.7,14.9-14.9,14.9h-59.3c-8.2,0-14.9-6.7-14.9-14.9v0
		c0-8.2,6.7-14.9,14.9-14.9h13.6"/>
	<path class="st5" d="M303.7,190.3"/>
	<path class="st2" d="M244.1,185.6H230c-8.4,0-15.3-6.9-15.3-15.3v0c0-8.4,6.9-15.3,15.3-15.3h30c8.4,0,14.1,5.7,14.1,14.1l-0.2,9.7
		"/>
	<circle class="st4" cx="251.8" cy="104" r="22.7"/>
</g>
<g id="Template_1_" class="st6">
	<g transform="translate(1 1)" class="st7">
		<g>
			<g>
				<path d="M317.3,29.1h-133c-56.9,0-103.5,46.6-103.5,103.5v133c0,56.9,46.6,103.5,103.5,103.5h24.4c6.7,0,12.6,5.9,12.6,12.6
					v73.2c0,8.1,5.2,14.8,12.6,17c1.5,0.7,3.7,0.7,5.2,0.7c5.9,0,11.1-3,14.8-7.4l45.1-64.3c11.8-17.7,29.6-30.3,50.3-37
					c42.9-14,71.7-53.2,71.7-98.3v-133C420.8,75.6,374.2,29.1,317.3,29.1z M406,266.3c0,38.4-24.4,72.4-61.3,84.3
					c-23.7,8.1-43.6,22.2-57.7,42.1L241.2,457c-0.7,1.5-2.2,0.7-3,0.7c-0.7-0.7-2.2-0.7-2.2-3v-73.2c0-14.8-12.6-27.3-27.3-27.3
					h-24.4c-48.8,0-88.7-39.9-88.7-88.7v-133c0-48.8,39.9-88.7,88.7-88.7h133c48.8,0,88.7,39.9,88.7,88.7L406,266.3L406,266.3z"/>
				<path d="M287.8,280.4h-7.4V169.5c0-12.6-9.6-22.2-22.2-22.2h-29.6c-12.6,0-22.2,9.6-22.2,22.2c0,12.6,9.6,22.2,22.2,22.2h7.4
					v88.7h-7.4c-12.6,0-22.2,9.6-22.2,22.2c0,12.6,9.6,22.2,22.2,22.2h59.1c12.6,0,22.2-9.6,22.2-22.2
					C309.9,290,300.3,280.4,287.8,280.4z M287.8,309.9h-59.1c-4.4,0-7.4-3-7.4-7.4c0-4.4,3-7.4,7.4-7.4h14.8c4.4,0,7.4-3,7.4-7.4
					V184.3c0-4.4-3-7.4-7.4-7.4h-14.8c-4.4,0-7.4-3-7.4-7.4s3-7.4,7.4-7.4h29.6c3.7,0,7.4,3,7.4,7.4v118.3c0,4.4,3,7.4,7.4,7.4h14.8
					c4.4,0,7.4,3,7.4,7.4S292.2,309.9,287.8,309.9z"/>
				<path d="M250.8,132.5c16.3,0,29.6-13.3,29.6-29.6s-13.3-29.6-29.6-29.6s-29.6,13.3-29.6,29.6S234.5,132.5,250.8,132.5z
					 M250.8,88.2c8.1,0,14.8,6.7,14.8,14.8s-6.7,14.8-14.8,14.8c-8.1,0-14.8-6.7-14.8-14.8C236,94.8,242.7,88.2,250.8,88.2z"/>
			</g>
		</g>
	</g>
</g>
</svg>
