<svg xmlns="http://www.w3.org/2000/svg" viewBox="0 0 491.5 491.5"><defs><style>.cls-1{fill:none;stroke:#000;stroke-linecap:round;stroke-linejoin:round;stroke-width:10.44px;}</style></defs><g id="Ebene_2" data-name="Ebene 2"><rect class="cls-1" x="134.55" y="73.75" width="173.02" height="382.09"/><polyline class="cls-1" points="307.57 73.75 189.86 44.65 344.71 33.84 344.71 421.78 309.56 431.24"/><line class="cls-1" x1="189.86" y1="44.65" x2="189.86" y2="72.89"/><path d="M171.15,391.86h95.6V404.2h-95.6Z"/><path d="M266.75,370.28h-95.6V356.8l48.36-30.64A272.93,272.93,0,0,1,250.58,309l-.14-.28c-12.77,1.14-24.4,1.41-39.29,1.41h-40V298.5h95.6V311l-48.51,30.35a305.66,305.66,0,0,1-31.91,17.88l.14.42c12.06-.71,23.55-1,39.43-1h40.85Z"/><path d="M171.15,276.91V225.42h10.36v39.14h31.77V228.39h10.21v36.17h43.26v12.35Z"/><path d="M218,126.1c32.91,0,50.36,20,50.36,44.39,0,25.25-19.58,43-48.51,43-30.35,0-50.21-18.87-50.21-44.4C169.59,143,189.59,126.1,218,126.1Zm1.56,74.18c20.43,0,38.73-11.07,38.73-30.5,0-19.58-18-30.63-39.72-30.63-19,0-38.86,9.92-38.86,30.49S198.53,200.28,219.51,200.28Z"/></g></svg>