<svg xmlns="http://www.w3.org/2000/svg" viewBox="0 0 491.5 491.5"><defs><style>.cls-1,.cls-3{fill:#fff;}.cls-1,.cls-4{stroke:#000;stroke-miterlimit:10;}.cls-1{stroke-width:3px;}.cls-2,.cls-4{fill:none;}.cls-4{stroke-width:6px;}</style></defs><g id="Ebene_2" data-name="Ebene 2"><rect class="cls-1" x="294.34" y="109.69" width="118.3" height="300.05"/><rect class="cls-1" x="333.56" y="201.15" width="79.08" height="208.6"/><polygon class="cls-2" points="136.34 295.02 146.03 295.02 146.03 270.69 241.75 270.69 241.75 76.97 79.87 76.97 79.87 220.81 136.34 220.81 136.34 295.02"/><polygon class="cls-2" points="263.53 270.69 263.53 330.3 290.52 330.3 290.52 406.75 409.64 406.75 409.64 76.97 247.75 76.97 247.75 270.69 263.53 270.69"/><polygon class="cls-3" points="161.33 406.75 233.54 406.75 233.54 330.3 241.75 330.3 241.75 273.69 149.03 273.69 149.03 295.02 161.33 295.02 161.33 406.75"/><rect class="cls-3" x="247.75" y="273.69" width="12.78" height="56.61"/><polygon points="147.53 272.19 241.75 272.19 241.75 270.69 146.03 270.69 146.03 295.02 147.53 295.02 147.53 272.19"/><polygon points="262.03 272.19 262.03 330.3 263.53 330.3 263.53 270.69 247.75 270.69 247.75 272.19 262.03 272.19"/><polygon points="260.53 273.69 260.53 330.3 262.03 330.3 262.03 272.19 247.75 272.19 247.75 273.69 260.53 273.69"/><polygon points="149.03 273.69 241.75 273.69 241.75 272.19 147.53 272.19 147.53 295.02 149.03 295.02 149.03 273.69"/><polygon class="cls-3" points="104.35 406.75 104.35 295.02 133.34 295.02 133.34 223.81 79.87 223.81 79.87 406.75 104.35 406.75"/><polygon points="134.84 222.31 134.84 295.02 136.34 295.02 136.34 220.81 79.87 220.81 79.87 222.31 134.84 222.31"/><polygon points="133.34 223.81 133.34 295.02 134.84 295.02 134.84 222.31 79.87 222.31 79.87 223.81 133.34 223.81"/><rect class="cls-3" x="149.03" y="298.02" width="9.29" height="108.73"/><rect x="136.34" y="295.02" width="9.69" height="1.5"/><polygon points="159.83 406.75 161.33 406.75 161.33 295.02 149.03 295.02 149.03 296.52 159.83 296.52 159.83 406.75"/><rect x="146.03" y="295.02" width="1.5" height="1.5"/><rect x="147.53" y="295.02" width="1.5" height="1.5"/><polygon points="104.35 406.75 105.85 406.75 105.85 296.52 133.34 296.52 133.34 295.02 104.35 295.02 104.35 406.75"/><rect x="134.84" y="295.02" width="1.5" height="1.5"/><rect x="133.34" y="295.02" width="1.5" height="1.5"/><rect x="136.34" y="296.52" width="9.69" height="1.5"/><polygon points="158.33 406.75 159.83 406.75 159.83 296.52 149.03 296.52 149.03 298.02 158.33 298.02 158.33 406.75"/><rect x="146.03" y="296.52" width="1.5" height="1.5"/><rect x="147.53" y="296.52" width="1.5" height="1.5"/><polygon points="105.85 406.75 107.35 406.75 107.35 298.02 133.34 298.02 133.34 296.52 105.85 296.52 105.85 406.75"/><rect x="134.84" y="296.52" width="1.5" height="1.5"/><rect x="133.34" y="296.52" width="1.5" height="1.5"/><rect class="cls-3" x="236.54" y="333.3" width="5.21" height="73.45"/><polygon points="263.53 330.3 263.53 331.8 289.02 331.8 289.02 406.75 290.52 406.75 290.52 330.3 263.53 330.3"/><polygon points="241.75 331.8 241.75 330.3 233.54 330.3 233.54 406.75 235.04 406.75 235.04 331.8 241.75 331.8"/><rect x="247.75" y="330.3" width="12.78" height="1.5"/><rect x="262.03" y="330.3" width="1.5" height="1.5"/><rect x="260.53" y="330.3" width="1.5" height="1.5"/><polygon points="263.53 331.8 263.53 333.3 287.52 333.3 287.52 406.75 289.02 406.75 289.02 331.8 263.53 331.8"/><rect x="247.75" y="331.8" width="12.78" height="1.5"/><polygon points="241.75 333.3 241.75 331.8 235.04 331.8 235.04 406.75 236.54 406.75 236.54 333.3 241.75 333.3"/><rect x="262.03" y="331.8" width="1.5" height="1.5"/><rect x="260.53" y="331.8" width="1.5" height="1.5"/><polygon points="415.64 70.97 73.87 70.97 73.87 412.75 104.35 412.75 104.35 411.25 75.37 411.25 75.37 220.81 79.87 220.81 79.87 76.97 241.75 76.97 241.75 73.97 247.75 73.97 247.75 76.97 409.64 76.97 409.64 406.75 290.52 406.75 290.52 412.75 415.64 412.75 415.64 70.97"/><rect x="161.33" y="406.75" width="72.22" height="6"/><polygon points="79.87 406.75 79.87 223.81 78.37 223.81 78.37 408.25 104.35 408.25 104.35 406.75 79.87 406.75"/><polygon points="76.87 409.75 76.87 222.31 79.87 222.31 79.87 220.81 75.37 220.81 75.37 411.25 104.35 411.25 104.35 409.75 76.87 409.75"/><polygon points="78.37 408.25 78.37 223.81 79.87 223.81 79.87 222.31 76.87 222.31 76.87 409.75 104.35 409.75 104.35 408.25 78.37 408.25"/><polygon points="146.03 406.75 136.34 406.75 136.34 411.25 107.35 411.25 107.35 412.75 146.03 412.75 146.03 406.75"/><rect x="149.03" y="406.75" width="9.29" height="6"/><rect x="146.03" y="406.75" width="1.5" height="6"/><rect x="147.53" y="406.75" width="1.5" height="6"/><rect x="107.35" y="406.75" width="25.99" height="1.5"/><polygon points="136.34 406.75 134.84 406.75 134.84 409.75 107.35 409.75 107.35 411.25 136.34 411.25 136.34 406.75"/><polygon points="134.84 406.75 133.34 406.75 133.34 408.25 107.35 408.25 107.35 409.75 134.84 409.75 134.84 406.75"/><rect x="104.35" y="411.25" width="1.5" height="1.5"/><rect x="159.83" y="406.75" width="1.5" height="6"/><rect x="104.35" y="406.75" width="1.5" height="1.5"/><rect x="104.35" y="409.75" width="1.5" height="1.5"/><rect x="104.35" y="408.25" width="1.5" height="1.5"/><rect x="105.85" y="411.25" width="1.5" height="1.5"/><rect x="158.33" y="406.75" width="1.5" height="6"/><rect x="105.85" y="406.75" width="1.5" height="1.5"/><rect x="105.85" y="409.75" width="1.5" height="1.5"/><rect x="105.85" y="408.25" width="1.5" height="1.5"/><rect x="263.53" y="406.75" width="23.99" height="6"/><polygon points="247.75 406.75 247.75 409.75 241.75 409.75 241.75 406.75 236.54 406.75 236.54 412.75 260.53 412.75 260.53 406.75 247.75 406.75"/><rect x="262.03" y="406.75" width="1.5" height="6"/><rect x="260.53" y="406.75" width="1.5" height="6"/><rect x="289.02" y="406.75" width="1.5" height="6"/><rect x="233.54" y="406.75" width="1.5" height="6"/><rect x="287.52" y="406.75" width="1.5" height="6"/><rect x="235.04" y="406.75" width="1.5" height="6"/><rect x="241.75" y="76.97" width="6" height="193.71"/><rect x="241.75" y="273.69" width="6" height="56.61"/><rect x="241.75" y="270.69" width="6" height="1.5"/><rect x="241.75" y="272.19" width="6" height="1.5"/><rect x="241.75" y="333.3" width="6" height="73.45"/><rect x="241.75" y="330.3" width="6" height="1.5"/><rect x="241.75" y="331.8" width="6" height="1.5"/><rect x="241.75" y="73.97" width="6" height="3"/><rect x="241.75" y="406.75" width="6" height="3"/><line class="cls-4" x1="76.87" y1="241.86" x2="412.64" y2="241.86"/><circle class="cls-1" cx="161.21" cy="149.7" r="28.37"/></g></svg>