<?xml version="1.0" encoding="utf-8"?>
<!-- Generator: Adobe Illustrator 25.2.0, SVG Export Plug-In . SVG Version: 6.00 Build 0)  -->
<svg version="1.1" xmlns="http://www.w3.org/2000/svg" xmlns:xlink="http://www.w3.org/1999/xlink" x="0px" y="0px"
	 viewBox="0 0 491.5 491.5" style="enable-background:new 0 0 491.5 491.5;" xml:space="preserve">
<style type="text/css">
	.st0{fill:none;}
	.st1{fill:none;stroke:#000000;stroke-width:5.1041;stroke-miterlimit:10;}
	.st2{fill:none;stroke:#000000;stroke-width:4.4756;stroke-linejoin:round;stroke-miterlimit:10;}
	.st3{fill:none;stroke:#000000;stroke-width:5.9674;stroke-miterlimit:10;}
	.st4{fill:none;stroke:#000000;stroke-width:3.0013;stroke-miterlimit:10;}
	.st5{fill:none;stroke:#000000;stroke-width:2.8965;stroke-miterlimit:10;}
	.st6{fill:none;stroke:#000000;stroke-width:4.4756;stroke-miterlimit:10;}
	.st7{fill:none;stroke:#000000;stroke-width:5.3309;stroke-miterlimit:10;}
	.st8{fill:none;stroke:#000000;stroke-width:3.6805;stroke-miterlimit:10;}
	.st9{fill:none;stroke:#000000;stroke-width:2.9837;stroke-miterlimit:10;}
	.st10{fill:none;stroke:#000000;stroke-width:6.8833;stroke-miterlimit:10;}
	.st11{fill:none;stroke:#000000;stroke-width:5.1625;stroke-miterlimit:10;}
	.st12{fill:none;stroke:#000000;stroke-width:3.4417;stroke-miterlimit:10;}
	.st13{fill:none;stroke:#000000;stroke-width:6.6761;stroke-linecap:round;stroke-linejoin:round;stroke-miterlimit:10;}
	.st14{fill:none;stroke:#000000;stroke-width:3.6118;stroke-miterlimit:10;}
	.st15{fill:none;stroke:#000000;stroke-width:3.167;stroke-linejoin:round;stroke-miterlimit:10;}
	.st16{fill:none;stroke:#000000;stroke-width:4.2227;stroke-miterlimit:10;}
	.st17{fill:none;stroke:#000000;stroke-width:2.1238;stroke-miterlimit:10;}
	.st18{fill:none;stroke:#000000;stroke-width:2.0496;stroke-miterlimit:10;}
	.st19{fill:none;stroke:#000000;stroke-width:3.167;stroke-miterlimit:10;}
	.st20{fill:none;stroke:#000000;stroke-width:3.7723;stroke-miterlimit:10;}
	.st21{fill:none;stroke:#000000;stroke-width:2.6044;stroke-miterlimit:10;}
	.st22{fill:none;stroke:#000000;stroke-width:5.0946;stroke-miterlimit:10;}
	.st23{fill:none;stroke:#000000;stroke-width:2.1114;stroke-miterlimit:10;}
	.st24{fill:none;stroke:#000000;stroke-width:3.8907;stroke-miterlimit:10;}
	.st25{fill:none;stroke:#000000;stroke-width:3.5144;stroke-miterlimit:10;}
	.st26{fill:none;stroke:#000000;stroke-width:7.4015;stroke-linecap:round;stroke-linejoin:round;stroke-miterlimit:10;}
	.st27{fill:none;stroke:#000000;stroke-width:6;stroke-linecap:round;stroke-linejoin:round;stroke-miterlimit:10;}
	.st28{fill:none;stroke:#000000;stroke-width:6.402;stroke-linecap:round;stroke-linejoin:round;stroke-miterlimit:10;}
	.st29{fill:none;stroke:#000000;stroke-width:6.4805;stroke-linecap:round;stroke-linejoin:round;stroke-miterlimit:10;}
	.st30{fill:none;stroke:#000000;stroke-width:8.6309;stroke-linecap:round;stroke-linejoin:round;stroke-miterlimit:10;}
	.st31{fill:none;stroke:#000000;stroke-width:6.5793;stroke-linecap:round;stroke-linejoin:round;stroke-miterlimit:10;}
	.st32{fill:none;stroke:#000000;stroke-width:7.4533;stroke-linecap:round;stroke-linejoin:round;stroke-miterlimit:10;}
	.st33{fill:none;stroke:#000000;stroke-width:7;stroke-linecap:round;stroke-linejoin:round;stroke-miterlimit:10;}
	.st34{fill:none;stroke:#000000;stroke-width:8.6697;stroke-linecap:round;stroke-linejoin:round;stroke-miterlimit:10;}
	.st35{fill:none;stroke:#000000;stroke-width:3.5;stroke-linecap:round;stroke-linejoin:round;stroke-miterlimit:10;}
	.st36{fill:none;stroke:#000000;stroke-width:10.1283;stroke-linecap:round;stroke-linejoin:round;stroke-miterlimit:10;}
	.st37{fill:none;stroke:#000000;stroke-width:5.8977;stroke-linecap:round;stroke-linejoin:round;stroke-miterlimit:10;}
	.st38{stroke:#000000;stroke-width:2;stroke-miterlimit:10;}
	.st39{fill:none;stroke:#000000;stroke-width:4;stroke-linecap:round;stroke-linejoin:round;stroke-miterlimit:10;}
	.st40{fill:none;stroke:#000000;stroke-width:3.8602;stroke-linecap:round;stroke-linejoin:round;stroke-miterlimit:10;}
	.st41{fill:none;stroke:#000000;stroke-width:7.5112;stroke-linecap:round;stroke-linejoin:round;stroke-miterlimit:10;}
	.st42{fill:none;stroke:#000000;stroke-width:6.637;stroke-linecap:round;stroke-linejoin:round;stroke-miterlimit:10;}
	.st43{fill:none;stroke:#000000;stroke-width:3.8647;stroke-linecap:round;stroke-linejoin:round;stroke-miterlimit:10;}
	.st44{fill:none;stroke:#000000;stroke-width:4.8547;stroke-linecap:round;stroke-linejoin:round;stroke-miterlimit:10;}
	.st45{fill:none;stroke:#000000;stroke-width:5.0032;stroke-linecap:round;stroke-linejoin:round;stroke-miterlimit:10;}
	.st46{fill:none;stroke:#000000;stroke-width:8.0426;stroke-linecap:round;stroke-linejoin:round;stroke-miterlimit:10;}
	.st47{fill:none;stroke:#000000;stroke-width:5.7948;stroke-linecap:round;stroke-linejoin:round;stroke-miterlimit:10;}
	.st48{fill:none;stroke:#000000;stroke-width:8.8499;stroke-linecap:round;stroke-linejoin:round;stroke-miterlimit:10;}
	.st49{fill:none;stroke:#000000;stroke-width:7.6374;stroke-miterlimit:10;}
	.st50{fill:none;stroke:#000000;stroke-width:8.9404;stroke-linecap:round;stroke-miterlimit:10;}
	.st51{fill:none;stroke:#000000;stroke-width:5.3462;stroke-linecap:round;stroke-linejoin:round;stroke-miterlimit:10;}
	.st52{fill:none;stroke:#000000;stroke-width:4.543;stroke-linecap:round;stroke-linejoin:round;stroke-miterlimit:10;}
	.st53{fill:none;stroke:#000000;stroke-width:4;stroke-miterlimit:10;}
	.st54{fill-rule:evenodd;clip-rule:evenodd;}
	.st55{stroke:#000000;stroke-width:3.859;stroke-linecap:round;stroke-linejoin:round;stroke-miterlimit:10;}
	.st56{fill:#FFFFFF;stroke:#000000;stroke-width:3;stroke-miterlimit:10;}
	.st57{fill:#FFFFFF;}
	.st58{fill:none;stroke:#000000;stroke-width:6;stroke-miterlimit:10;}
	.st59{fill:none;stroke:#000000;stroke-width:7.3318;stroke-linecap:round;stroke-linejoin:round;stroke-miterlimit:10;}
	.st60{fill:none;stroke:#000000;stroke-width:6.4562;stroke-miterlimit:10;}
	.st61{fill:none;stroke:#000000;stroke-width:6.5234;stroke-miterlimit:10;}
	.st62{fill:none;stroke:#000000;stroke-width:3.9371;stroke-linecap:round;stroke-linejoin:round;stroke-miterlimit:10;}
	.st63{fill:none;stroke:#000000;stroke-width:7.2858;stroke-linecap:round;stroke-linejoin:round;stroke-miterlimit:10;}
	.st64{stroke:#000000;stroke-width:7.2858;stroke-linecap:round;stroke-linejoin:round;stroke-miterlimit:10;}
	.st65{fill:none;stroke:#000000;stroke-width:7.7695;stroke-linecap:round;stroke-linejoin:round;stroke-miterlimit:10;}
	.st66{stroke:#000000;stroke-width:4;stroke-linecap:round;stroke-linejoin:round;stroke-miterlimit:10;}
	.st67{fill:none;stroke:#000000;stroke-width:6.5895;stroke-linecap:round;stroke-linejoin:round;stroke-miterlimit:10;}
	.st68{fill:none;stroke:#000000;stroke-width:4.614;stroke-linecap:round;stroke-linejoin:round;stroke-miterlimit:10;}
	.st69{fill:none;stroke:#000000;stroke-width:4.614;stroke-linecap:round;stroke-linejoin:round;}
	.st70{fill:none;stroke:#000000;stroke-width:3.7322;stroke-linecap:round;stroke-linejoin:round;stroke-miterlimit:10;}
	.st71{fill:none;stroke:#000000;stroke-width:4.2744;stroke-linecap:round;stroke-linejoin:round;stroke-miterlimit:10;}
	.st72{fill:none;stroke:#000000;stroke-width:9.5537;stroke-linecap:round;stroke-miterlimit:10;}
	.st73{fill:none;stroke:#000000;stroke-width:2.3359;stroke-linecap:round;stroke-linejoin:round;stroke-miterlimit:10;}
	.st74{fill:none;stroke:#000000;stroke-width:2.2144;stroke-linecap:round;stroke-linejoin:round;stroke-miterlimit:10;}
	.st75{fill:none;stroke:#000000;stroke-width:5.7554;stroke-miterlimit:10;}
	.st76{fill:none;stroke:#000000;stroke-width:5.1988;stroke-miterlimit:10;}
	.st77{fill:none;stroke:#000000;stroke-width:5.1692;stroke-miterlimit:10;}
	.st78{fill:none;stroke:#000000;stroke-width:10;stroke-linecap:round;stroke-linejoin:round;stroke-miterlimit:10;}
	.st79{fill:none;stroke:#000000;stroke-width:4.8649;stroke-miterlimit:10;}
	.st80{fill:none;stroke:#000000;stroke-width:5.5074;stroke-miterlimit:10;}
	.st81{fill:none;stroke:#000000;stroke-width:4.1154;stroke-miterlimit:10;}
	.st82{fill:none;stroke:#000000;stroke-width:4.7768;stroke-miterlimit:10;}
	.st83{fill:none;stroke:#000000;stroke-width:10.4383;stroke-linecap:round;stroke-linejoin:round;stroke-miterlimit:10;}
	.st84{fill:none;stroke:#000000;stroke-width:4.0396;stroke-miterlimit:10;}
	.st85{fill:none;stroke:#000000;stroke-width:4.1219;stroke-miterlimit:10;}
	.st86{fill:none;stroke:#000000;stroke-width:3;stroke-miterlimit:10;}
	.st87{fill:none;stroke:#000000;stroke-width:4.8522;stroke-miterlimit:10;}
	.st88{fill:none;stroke:#000000;stroke-width:5.3814;stroke-linecap:round;stroke-linejoin:round;stroke-miterlimit:10;}
	.st89{fill:none;stroke:#000000;stroke-width:3.7993;stroke-linecap:round;stroke-linejoin:round;stroke-miterlimit:10;}
	.st90{fill:none;stroke:#000000;stroke-width:3.757;stroke-miterlimit:10;}
	.st91{fill:none;stroke:#000000;stroke-width:4.1667;stroke-linecap:round;stroke-linejoin:round;stroke-miterlimit:10;}
	.st92{fill:none;stroke:#000000;stroke-width:2.9417;stroke-linecap:round;stroke-linejoin:round;stroke-miterlimit:10;}
	.st93{fill:none;stroke:#000000;stroke-width:6.0522;stroke-miterlimit:10;}
	.st94{fill:none;stroke:#000000;stroke-width:5.9791;stroke-miterlimit:10;}
	.st95{fill:none;stroke:#000000;stroke-width:4.9879;stroke-miterlimit:10;}
	.st96{stroke:#000000;stroke-width:1.0001;stroke-miterlimit:10;}
	.st97{fill:none;stroke:#000000;stroke-width:4.2817;stroke-linecap:round;stroke-linejoin:round;stroke-miterlimit:10;}
	.st98{fill:none;stroke:#000000;stroke-width:4.2914;stroke-linecap:round;stroke-linejoin:round;stroke-miterlimit:10;}
	.st99{fill:none;stroke:#000000;stroke-width:4.5108;stroke-miterlimit:10;}
	.st100{fill:none;stroke:#000000;stroke-width:1.7944;stroke-miterlimit:10;}
	.st101{fill:none;stroke:#000000;stroke-width:7.1296;stroke-linecap:round;stroke-miterlimit:10;}
	.st102{fill:none;stroke:#000000;stroke-width:7.1296;stroke-linecap:round;stroke-linejoin:round;stroke-miterlimit:10;}
	.st103{fill:none;stroke:#000000;stroke-width:7.6723;stroke-miterlimit:10;}
	.st104{fill:none;stroke:#000000;stroke-width:7.9214;stroke-linecap:round;stroke-linejoin:round;stroke-miterlimit:10;}
	.st105{fill:none;stroke:#000000;stroke-width:4.9056;stroke-linecap:round;stroke-linejoin:round;stroke-miterlimit:10;}
	.st106{fill:none;stroke:#000000;stroke-width:1.6722;stroke-miterlimit:10;}
	.st107{fill:none;stroke:#000000;stroke-width:1.304;stroke-miterlimit:10;}
	.st108{fill:#FFFFFF;stroke:#000000;stroke-width:1.2537;stroke-miterlimit:10;}
	.st109{fill:none;stroke:#000000;stroke-width:1.3653;stroke-miterlimit:10;}
	.st110{stroke:#000000;stroke-width:7.2216;stroke-miterlimit:10;}
	.st111{fill:none;stroke:#000000;stroke-width:6.4995;stroke-linecap:round;stroke-miterlimit:10;}
	.st112{fill:none;stroke:#000000;stroke-width:6.4995;stroke-linecap:round;stroke-linejoin:round;stroke-miterlimit:10;}
	.st113{fill:none;stroke:#000000;stroke-width:5.0552;stroke-linecap:round;stroke-miterlimit:10;}
	.st114{fill:none;stroke:#000000;stroke-width:5.0552;stroke-linecap:round;stroke-linejoin:round;stroke-miterlimit:10;}
	.st115{fill:none;stroke:#000000;stroke-width:6.2403;stroke-linecap:round;stroke-linejoin:round;stroke-miterlimit:10;}
	.st116{fill:none;stroke:#000000;stroke-width:8.7962;stroke-linecap:round;stroke-linejoin:round;stroke-miterlimit:10;}
	.st117{fill:none;stroke:#000000;stroke-width:8.1888;stroke-linecap:round;stroke-linejoin:round;stroke-miterlimit:10;}
	.st118{fill:none;stroke:#000000;stroke-width:8;stroke-linecap:round;stroke-linejoin:round;stroke-miterlimit:10;}
	.st119{fill:none;stroke:#000000;stroke-width:5.4086;stroke-linecap:round;stroke-miterlimit:10;}
	.st120{fill:none;stroke:#000000;stroke-width:5.4086;stroke-linecap:round;stroke-linejoin:round;stroke-miterlimit:10;}
	.st121{fill:none;stroke:#000000;stroke-width:5;stroke-miterlimit:10;}
	.st122{fill:none;stroke:#000000;stroke-width:5;stroke-linecap:round;stroke-linejoin:round;stroke-miterlimit:10;}
	.st123{fill:none;stroke:#000000;stroke-width:6.5638;stroke-miterlimit:10;}
	.st124{fill:none;stroke:#000000;stroke-width:6.5638;stroke-linecap:round;stroke-linejoin:round;stroke-miterlimit:10;}
	.st125{fill:none;stroke:#000000;stroke-width:4.4969;stroke-linecap:round;stroke-miterlimit:10;}
	.st126{fill:none;stroke:#000000;stroke-width:4.4969;stroke-linecap:round;stroke-linejoin:round;stroke-miterlimit:10;}
	.st127{fill:none;stroke:#000000;stroke-width:7.4334;stroke-linecap:round;stroke-miterlimit:10;}
	.st128{fill:none;stroke:#000000;stroke-width:7;stroke-linecap:round;stroke-miterlimit:10;}
	.st129{fill:none;stroke:#000000;stroke-width:3.4844;stroke-linecap:round;stroke-miterlimit:10;}
	.st130{fill:none;stroke:#000000;stroke-width:1.7422;stroke-linecap:round;stroke-miterlimit:10;}
	.st131{fill:none;stroke:#000000;stroke-width:6.2652;stroke-linecap:round;stroke-linejoin:round;stroke-miterlimit:10;}
	.st132{fill:#FFFFFF;stroke:#000000;stroke-width:6.5638;stroke-miterlimit:10;}
	.st133{fill:#FFFFFF;stroke:#000000;stroke-width:6.5638;stroke-linecap:round;stroke-linejoin:round;stroke-miterlimit:10;}
	.st134{fill:#FFFFFF;stroke:#000000;stroke-width:6.2652;stroke-linecap:round;stroke-linejoin:round;stroke-miterlimit:10;}
	.st135{fill:none;stroke:#000000;stroke-width:4.7725;stroke-linecap:round;stroke-linejoin:round;stroke-miterlimit:10;}
	.st136{fill:none;stroke:#000000;stroke-width:3.4624;stroke-linecap:round;stroke-linejoin:round;stroke-miterlimit:10;}
	.st137{fill:none;stroke:#000000;stroke-width:3.6274;stroke-linecap:round;stroke-linejoin:round;stroke-miterlimit:10;}
	.st138{fill:none;stroke:#000000;stroke-width:6;stroke-linecap:round;stroke-miterlimit:10;}
	.st139{fill:none;stroke:#000000;stroke-width:7.0562;stroke-linecap:round;stroke-miterlimit:10;}
	.st140{fill:none;stroke:#000000;stroke-width:3;stroke-linecap:round;stroke-linejoin:round;stroke-miterlimit:10;}
	.st141{fill:#231F20;}
	.st142{fill:none;stroke:#231F20;stroke-width:6;stroke-miterlimit:10;}
	.st143{fill:none;stroke:#000000;stroke-width:3.9748;stroke-linecap:round;stroke-linejoin:round;stroke-miterlimit:10;}
	.st144{fill:none;stroke:#000000;stroke-width:3.9748;stroke-miterlimit:10;}
	.st145{display:none;}
	.st146{display:inline;opacity:0.17;}
	.st147{fill:none;stroke:#000000;stroke-width:4.3866;stroke-linecap:round;stroke-miterlimit:10;}
	.st148{fill:none;stroke:#000000;stroke-width:4.3866;stroke-linecap:round;stroke-linejoin:round;stroke-miterlimit:10;}
	.st149{fill:none;stroke:#000000;stroke-width:19.8414;stroke-linecap:round;stroke-linejoin:round;stroke-miterlimit:10;}
	.st150{fill:none;stroke:#000000;stroke-width:7;stroke-miterlimit:10;}
	.st151{fill:none;stroke:#000000;stroke-width:4.1168;stroke-miterlimit:10;}
	.st152{fill:#FFFFFF;stroke:#000000;stroke-width:7.724;stroke-miterlimit:10;}
	.st153{fill:none;stroke:#000000;stroke-width:3.0896;stroke-linecap:round;stroke-linejoin:round;stroke-miterlimit:10;}
	.st154{fill:none;stroke:#000000;stroke-width:7.6335;stroke-miterlimit:10;}
	.st155{fill:none;stroke:#000000;stroke-width:6.0109;stroke-linecap:round;stroke-linejoin:round;stroke-miterlimit:10;}
	.st156{fill:none;stroke:#000000;stroke-width:4.3936;stroke-linecap:round;stroke-linejoin:round;stroke-miterlimit:10;}
	.st157{fill:#FFFFFF;stroke:#000000;stroke-width:5;stroke-linecap:round;stroke-linejoin:round;stroke-miterlimit:10;}
	.st158{fill:#FFFFFF;stroke:#000000;stroke-width:4.3444;stroke-linecap:round;stroke-linejoin:round;stroke-miterlimit:10;}
	.st159{fill:#FFFFFF;stroke:#000000;stroke-width:4;stroke-linecap:round;stroke-linejoin:round;stroke-miterlimit:10;}
	.st160{fill:none;stroke:#000000;stroke-width:4.3444;stroke-linecap:round;stroke-linejoin:round;stroke-miterlimit:10;}
	.st161{fill:#FFFFFF;stroke:#000000;stroke-width:4.6424;stroke-linecap:round;stroke-linejoin:round;stroke-miterlimit:10;}
	.st162{fill:none;stroke:#000000;stroke-width:4.6424;stroke-linecap:round;stroke-linejoin:round;stroke-miterlimit:10;}
	.st163{fill:none;stroke:#000000;stroke-width:5.5623;stroke-linecap:round;stroke-miterlimit:10;}
	.st164{fill:none;stroke:#000000;stroke-width:6.2247;stroke-linecap:round;stroke-miterlimit:10;}
	.st165{fill:none;stroke:#000000;stroke-width:4.972;stroke-miterlimit:10;}
	.st166{fill:none;stroke:#000000;stroke-width:5.3821;stroke-linecap:round;stroke-miterlimit:10;}
	.st167{fill:none;stroke:#000000;stroke-width:5.7832;stroke-linecap:round;stroke-miterlimit:10;}
	.st168{fill:none;stroke:#000000;stroke-width:5.3595;stroke-linecap:round;stroke-miterlimit:10;}
	.st169{fill:none;stroke:#000000;stroke-width:10.0169;stroke-linecap:round;stroke-miterlimit:10;}
	.st170{fill:none;stroke:#000000;stroke-width:10.3959;stroke-linecap:round;stroke-miterlimit:10;}
	.st171{stroke:#000000;stroke-miterlimit:10;}
	.st172{fill:none;stroke:#000000;stroke-width:3.0667;stroke-linecap:round;stroke-linejoin:round;stroke-miterlimit:10;}
	.st173{fill:none;stroke:#000000;stroke-width:4.3006;stroke-linecap:round;stroke-linejoin:round;stroke-miterlimit:10;}
	.st174{fill:none;stroke:#000000;stroke-width:3.0971;stroke-linecap:round;stroke-linejoin:round;stroke-miterlimit:10;}
	.st175{fill:none;stroke:#000000;stroke-width:8;stroke-miterlimit:10;}
	.st176{fill:none;stroke:#000000;stroke-width:7.2079;stroke-linecap:round;stroke-linejoin:round;stroke-miterlimit:10;}
	.st177{fill:none;stroke:#000000;stroke-width:4.7673;stroke-linecap:round;stroke-linejoin:round;stroke-miterlimit:10;}
	.st178{fill:none;stroke:#000000;stroke-width:5.4483;stroke-linecap:round;stroke-linejoin:round;stroke-miterlimit:10;}
	.st179{fill:none;stroke:#000000;stroke-width:4.1878;stroke-linecap:round;stroke-linejoin:round;stroke-miterlimit:10;}
	.st180{fill:none;stroke:#000000;stroke-width:0.75;stroke-miterlimit:10;}
	.st181{stroke:#000000;stroke-width:0.75;stroke-miterlimit:10;}
	.st182{fill:none;stroke:#000000;stroke-width:4.2605;stroke-linecap:round;stroke-miterlimit:10;}
</style>
<g id="Ebene_1">
</g>
<g id="Ebene_2">
</g>
<g id="Layer_5">
</g>
<g id="Layer_6">
</g>
<g id="Layer_7">
</g>
<g id="Ebene_3">
</g>
<g id="Ebene_4">
	<path class="st0" d="M318.75,182.69l-9.31,9.31v66.59h13.53c-1.09-2.07-1.72-4.42-1.72-6.92v0c0-4.11,1.68-7.85,4.39-10.56
		c2.71-2.71,6.45-4.39,10.56-4.39h43.74c4.11,0,7.85,1.68,10.56,4.39c2.71,2.71,4.39,6.44,4.39,10.56v0c0,2.5-0.63,4.85-1.72,6.92
		h11.78v-75.9H318.75z"/>
	<path class="st0" d="M384.82,256.55c1.26-1.26,2.04-2.99,2.04-4.88v0c0-1.9-0.78-3.63-2.04-4.88c-1.26-1.26-2.99-2.04-4.88-2.04
		H336.2c-1.9,0-3.63,0.78-4.88,2.04c-1.26,1.26-2.04,2.99-2.04,4.88v0c0,1.9,0.78,3.63,2.04,4.88c1.26,1.25,2.98,2.03,4.88,2.04
		h43.74C381.84,258.59,383.57,257.81,384.82,256.55z"/>
	<path d="M451.96,266.62h-4.01v55.79c0,2.47-1.01,4.71-2.64,6.34c-1.63,1.63-3.88,2.64-6.34,2.64H170.05l-8.03,8.03h276.93
		c4.68,0,8.94-1.91,12.02-4.99c3.08-3.08,4.99-7.34,4.99-12.02v-59.79C455.97,264.82,454.17,266.62,451.96,266.62z"/>
	<path d="M447.94,146.71v111.88h4.01c2.22,0,4.01,1.8,4.01,4.01v0.01c0,0,0,0,0-0.01v-11.2h-4.9c-2.22,0-1.27-1.8-1.27-4.01
		c0-2.22-0.95-4.01,1.27-4.01h4.9V142.69c0-2.22-1.8-4.01-4.01-4.01h-89.2l-8.03,8.03H447.94z"/>
	<path d="M322.97,258.59h-13.53v2.92c0,2.22-1.8,4.01-4.01,4.01s-4.01-1.8-4.01-4.01l0,0v-2.92h-41.51v2.92
		c0,2.22-1.8,4.01-4.01,4.01c-2.22,0-4.01-1.8-4.01-4.01v-2.92h-9.03l-8.03,8.03H336.2c-4.11,0-7.85-1.68-10.55-4.39
		C324.58,261.16,323.68,259.93,322.97,258.59z"/>
	<polygon points="379.94,258.59 379.94,258.59 336.2,258.59 336.2,258.59 	"/>
	<path d="M412.98,261.5c0,2.22-1.8,4.01-4.01,4.01s-4.01-1.8-4.01-4.01v-2.92h-11.78c-0.71,1.34-1.61,2.57-2.67,3.64
		c-2.71,2.71-6.44,4.39-10.55,4.39h68h0h4.01c2.21,0,4.01-1.79,4.01-4.01v-0.01c0-2.22-1.8-4.01-4.01-4.01h-4.01h-34.96V261.5z"/>
	<path d="M370.55,381.68c0,2.22,1.8,4.01,4.01,4.01c2.22,0,4.01-1.8,4.01-4.01v-22.77h-8.03V381.68z"/>
	<path d="M182.75,381.68c0,2.22,1.8,4.01,4.01,4.01s4.01-1.8,4.01-4.01v-22.77h-8.03V381.68z"/>
	<polygon points="251.88,258.59 259.91,258.59 259.91,241.53 251.88,249.56 	"/>
	<path d="M255.89,265.52c2.22,0,4.01-1.8,4.01-4.01v-2.92h-8.03v2.92C251.88,263.72,253.68,265.52,255.89,265.52z"/>
	<polygon points="309.44,258.59 309.44,192 301.41,200.02 301.41,258.59 	"/>
	<path d="M404.95,182.69v75.9h8.03v-79.91c0-2.22-1.8-4.01-4.01-4.01h-82.19l-8.03,8.03H404.95z"/>
	<path d="M404.95,261.5c0,2.22,1.8,4.01,4.01,4.01s4.01-1.8,4.01-4.01v-2.92h-8.03V261.5z"/>
	<path d="M301.41,261.5c0,2.22,1.8,4.01,4.01,4.01s4.01-1.8,4.01-4.01v-2.92h-8.03L301.41,261.5L301.41,261.5z"/>
	<polygon points="336.2,266.62 379.94,266.62 379.94,266.62 336.2,266.62 	"/>
	<path d="M394.89,251.67c0-4.11-1.68-7.85-4.39-10.56c-2.71-2.71-6.44-4.39-10.56-4.39H336.2c-4.11,0-7.85,1.68-10.56,4.39
		c-2.71,2.71-4.39,6.44-4.39,10.56v0c0,2.49,0.63,4.85,1.72,6.92h13.23c-1.9,0-3.63-0.78-4.88-2.04c-1.26-1.26-2.04-2.99-2.04-4.88
		v0c0-1.9,0.78-3.63,2.04-4.88c1.26-1.26,2.99-2.04,4.88-2.04h43.74c1.9,0,3.63,0.78,4.88,2.04c1.26,1.26,2.04,2.99,2.04,4.88v0
		c0,1.9-0.78,3.63-2.04,4.88c-1.26,1.25-2.98,2.03-4.88,2.04h13.23C394.26,256.52,394.89,254.16,394.89,251.67L394.89,251.67z"/>
	<path d="M379.94,258.59H336.2c0,0,0,0,0,0h-13.23c0.71,1.34,1.61,2.57,2.67,3.64c2.71,2.71,6.44,4.39,10.55,4.39h43.75
		c4.11,0,7.85-1.68,10.55-4.39c1.07-1.07,1.96-2.3,2.67-3.64L379.94,258.59C379.94,258.59,379.94,258.59,379.94,258.59z"/>
	<path d="M465.28,251.4v91.27c0,2.32-0.86,4.41-2.26,5.91c-1.32,1.42-3.13,2.31-5.09,2.31H150.55l-8.03,8.03h40.22v-4.01
		c0-2.22,1.8-4.01,4.01-4.01s4.01,1.8,4.01,4.01v4.01h179.77v-4.01c0-2.22,1.8-4.01,4.01-4.01c2.22,0,4.01,1.8,4.01,4.01v4.01h79.36
		c4.28,0,8.16-1.87,10.96-4.88c2.73-2.94,4.42-6.96,4.42-11.37v-95.28c0-2.22-1.8-4.01-4.01-4.01h-13.33v8.03H465.28z"/>
	<path d="M473.85,247.38c0,2.22-0.95,4.01,1.27,4.01h4.9v-8.03h-4.9C472.9,243.37,473.85,245.17,473.85,247.38z"/>
	<path d="M374.56,350.89c-2.22,0-4.01,1.8-4.01,4.01v4.01h8.03v-4.01C378.57,352.68,376.78,350.89,374.56,350.89z"/>
	<path d="M186.76,350.89c-2.22,0-4.01,1.8-4.01,4.01v4.01h8.03v-4.01C190.77,352.68,188.98,350.89,186.76,350.89z"/>
	<g>
		<path class="st0" d="M41.86,104.8c-7.23-3.64-13.97-3.81-20.07-0.51L21.57,196l19.98,0.05L41.86,104.8z"/>
		<path class="st0" d="M21.55,203.32l-0.39,163.2c5.86,3.17,12.32,3.14,19.23-0.11L40.5,284c0-0.62,0.17-1.19,0.44-1.71
			c0.13-1.9,1.7-3.41,3.63-3.41c0,0,0,0,0,0l62.84,0.02l0.48-75.35L21.55,203.32z"/>
		<path class="st0" d="M147.96,179.57c-1.38-5.46-4.57-9.82-7.42-10.14c-0.28-0.03-0.54-0.1-0.79-0.19l-59.01-0.1
			c-0.16,0-0.32-0.03-0.48-0.05c-2.49,0.63-4.97,4.19-6.14,8.9c-1.55,6.28-0.68,14.3,4.74,18.16l65.48,0.18
			C149.11,192.38,149.31,184.94,147.96,179.57z"/>
		<path d="M14.48,368.09c0.49-1.96,2.48-3.15,4.44-2.66c0.61,0.15,1.04,0.41,1.58,0.73c0.22,0.13,0.45,0.24,0.67,0.37l0.39-163.2
			l-0.61,0c-2.02-0.01-3.65-1.65-3.65-3.67c0.01-2.02,1.64-3.65,3.66-3.65c0,0,0.01,0,0.01,0l0.61,0l0.22-91.71
			c-0.22,0.12-0.44,0.23-0.66,0.36c-0.55,0.32-0.98,0.57-1.58,0.73c-1.96,0.49-3.95-0.7-4.44-2.66c-0.1-0.41-0.12-0.82-0.09-1.22
			c-0.34,0.55-0.54,1.19-0.54,1.89l-0.63,264.75c0,0.89,0.32,1.69,0.85,2.32C14.37,369.74,14.27,368.91,14.48,368.09z"/>
		<path d="M47.89,103.9c-0.66,1.22-1.92,1.9-3.21,1.9c-0.59,0-1.2-0.14-1.75-0.45c-0.36-0.2-0.71-0.37-1.07-0.55l-0.31,91.26
			l7.32,0.02l0.31-92.14c0-0.92-0.34-1.75-0.9-2.39C48.4,102.32,48.3,103.15,47.89,103.9z"/>
		<polygon points="107.9,203.55 107.42,278.9 114.73,278.9 115.22,203.57 		"/>
		<path d="M111.03,286.3c0.01,0,0.02,0,0.02,0c0.26,0,0.52-0.03,0.77-0.08l-1.54,0C110.52,286.27,110.77,286.3,111.03,286.3z"/>
		<path d="M40.92,282.54c0-0.08,0.02-0.16,0.02-0.25c-0.27,0.51-0.44,1.09-0.44,1.71l-0.1,82.41c0.63-0.3,1.26-0.61,1.9-0.96
			c1.77-0.97,3.99-0.32,4.97,1.45c0.33,0.61,0.46,1.27,0.43,1.92c0-0.05,0.02-0.1,0.02-0.16l0.1-82.47l-3.24,0
			C42.55,286.2,40.92,284.56,40.92,282.54z"/>
		<path d="M47.49,369.89c-0.04,0.11-0.08,0.22-0.13,0.33C47.41,370.11,47.45,370,47.49,369.89z"/>
		<path d="M47.19,370.53c-0.06,0.1-0.12,0.2-0.19,0.29C47.07,370.72,47.13,370.63,47.19,370.53z"/>
		<path d="M47.66,369.21c-0.02,0.11-0.04,0.23-0.06,0.34C47.62,369.44,47.64,369.33,47.66,369.21z"/>
		<path d="M46.77,371.1c-0.08,0.09-0.16,0.17-0.24,0.25C46.61,371.27,46.69,371.18,46.77,371.1z"/>
		<path d="M46.26,371.57c-0.1,0.08-0.21,0.15-0.32,0.22C46.05,371.72,46.16,371.64,46.26,371.57z"/>
		<path d="M18.13,99.74C18.13,99.74,18.14,99.74,18.13,99.74c2.03,0,3.66,1.65,3.66,3.67l0,0.89c6.1-3.3,12.84-3.13,20.07,0.51
			l0-0.89c0.01-2.02,1.64-3.65,3.66-3.65c0,0,0.01,0,0.01,0c1.1,0,2.08,0.5,2.74,1.28c-0.18-1.07-0.81-2.04-1.84-2.6
			c-7.09-3.88-17.89-7.14-29.02-0.59c-0.08,0.05-0.15,0.09-0.21,0.13c-1.24,0.54-2.07,1.71-2.19,3.03
			C15.66,100.45,16.81,99.74,18.13,99.74z M17.77,98.28C17.77,98.28,17.76,98.28,17.77,98.28C17.76,98.28,17.77,98.28,17.77,98.28z
			 M17.76,98.28C17.76,98.28,17.76,98.28,17.76,98.28C17.76,98.28,17.76,98.28,17.76,98.28z"/>
		<path d="M15.11,102.71c0.49,1.96,2.48,3.15,4.44,2.66c0.61-0.15,1.04-0.41,1.58-0.73c0.22-0.13,0.44-0.24,0.66-0.36l0-0.89
			c0-2.02-1.63-3.66-3.65-3.67c0,0-0.01,0-0.01,0c-1.32,0-2.47,0.71-3.11,1.76C14.98,101.9,15,102.31,15.11,102.71z"/>
		<path d="M45.53,100.26c0,0-0.01,0-0.01,0c-2.01,0-3.65,1.63-3.66,3.65l0,0.89c0.36,0.18,0.71,0.36,1.07,0.55
			c0.56,0.31,1.16,0.45,1.75,0.45c1.29,0,2.55-0.69,3.21-1.9c0.41-0.75,0.52-1.58,0.38-2.36C47.6,100.76,46.63,100.26,45.53,100.26z
			"/>
		<path d="M44.05,372.32c-2.02,0-3.66-1.64-3.65-3.66l0-2.25c-6.91,3.24-13.37,3.28-19.23,0.11l0,1.63c0,2.02-1.64,3.65-3.66,3.65
			c0,0-0.01,0-0.01,0c-1.13,0-2.13-0.53-2.8-1.35c0.37,0.82,1.02,1.51,1.88,1.88c0.06,0.04,0.13,0.08,0.21,0.13
			c4.61,2.71,9.17,3.74,13.43,3.74c6.02,0,11.44-2.06,15.59-4.33c0.05-0.03,0.08-0.06,0.13-0.09
			C45.39,372.12,44.75,372.32,44.05,372.32C44.05,372.32,44.05,372.32,44.05,372.32z M17.13,372.53
			C17.14,372.53,17.14,372.53,17.13,372.53C17.14,372.53,17.14,372.53,17.13,372.53z"/>
		<path d="M47.7,368.83c-0.01,0.13-0.02,0.26-0.04,0.39C47.68,369.08,47.69,368.96,47.7,368.83z"/>
		<path d="M47,370.82c-0.07,0.1-0.15,0.19-0.23,0.28C46.85,371,46.93,370.91,47,370.82z"/>
		<path d="M47.59,369.55c-0.03,0.12-0.07,0.23-0.1,0.34C47.53,369.78,47.56,369.67,47.59,369.55z"/>
		<path d="M47.35,370.22c-0.05,0.11-0.11,0.21-0.17,0.31C47.25,370.43,47.3,370.32,47.35,370.22z"/>
		<path d="M46.53,371.35c-0.08,0.08-0.17,0.15-0.27,0.22C46.35,371.5,46.44,371.42,46.53,371.35z"/>
		<path d="M17.5,371.8C17.5,371.8,17.5,371.8,17.5,371.8c2.03,0,3.66-1.63,3.67-3.65l0-1.63c-0.22-0.12-0.45-0.23-0.67-0.37
			c-0.55-0.32-0.98-0.57-1.58-0.73c-1.96-0.49-3.95,0.7-4.44,2.66c-0.21,0.82-0.11,1.65,0.21,2.37
			C15.36,371.27,16.36,371.8,17.5,371.8z"/>
		<path d="M42.3,365.46c-0.64,0.35-1.27,0.66-1.9,0.96l0,2.25c0,2.02,1.63,3.66,3.65,3.66c0,0,0,0,0,0c0.69,0,1.33-0.2,1.89-0.54
			c0.11-0.07,0.22-0.14,0.32-0.22c0.09-0.07,0.18-0.14,0.27-0.22c0.09-0.08,0.17-0.16,0.24-0.25c0.08-0.09,0.16-0.18,0.23-0.28
			c0.07-0.09,0.13-0.19,0.19-0.29c0.06-0.1,0.12-0.2,0.17-0.31c0.05-0.11,0.09-0.22,0.13-0.33c0.04-0.11,0.08-0.22,0.1-0.34
			c0.03-0.11,0.05-0.22,0.06-0.34c0.02-0.13,0.03-0.26,0.04-0.39c0.03-0.65-0.1-1.31-0.43-1.92
			C46.29,365.14,44.07,364.49,42.3,365.46z"/>
		<path d="M45.2,201.02c0,0-0.01,0-0.01,0c-2.02-0.01-3.65-1.65-3.65-3.67l0-1.29L21.57,196l-0.02,7.32l86.35,0.23l0.01-2.14
			c0.01-2.01,1.65-3.63,3.66-3.63c0.01,0,0.02,0,0.02,0c2.02,0.01,3.65,1.66,3.63,3.68l-0.01,2.11l127.23,0.34l7.3-7.3l-96.28-0.26
			c-1.37,2.63-3.25,4.86-5.63,6.52c-0.64,0.44-1.36,0.65-2.08,0.65c-1.16,0-2.3-0.55-3.01-1.57c-1.15-1.66-0.74-3.94,0.92-5.09
			c0.24-0.17,0.46-0.35,0.68-0.53l-65.48-0.18c0.04,0.03,0.07,0.06,0.1,0.08c1.66,1.15,2.07,3.43,0.92,5.09
			c-0.71,1.02-1.85,1.57-3.01,1.57c-0.72,0-1.45-0.21-2.08-0.65c-2-1.39-3.96-3.45-5.52-6.11l-20.4-0.05l0,1.3
			C48.85,199.39,47.22,201.02,45.2,201.02z"/>
		<path d="M20.96,196C20.96,196,20.96,196,20.96,196c-2.03,0-3.66,1.63-3.67,3.65c-0.01,2.02,1.63,3.66,3.65,3.67l0.61,0l0.02-7.32
			L20.96,196z"/>
		<path d="M41.55,197.35c-0.01,2.02,1.63,3.66,3.65,3.67c0,0,0.01,0,0.01,0c2.01,0,3.65-1.63,3.66-3.65l0-1.3l-7.32-0.02
			L41.55,197.35z"/>
		<path d="M115.23,201.46c0.01-2.02-1.61-3.67-3.63-3.68c-0.01,0-0.02,0-0.02,0c-2.01,0-3.64,1.62-3.66,3.63l-0.01,2.14l7.32,0.02
			L115.23,201.46z"/>
		<path d="M107.39,282.62l0.02-3.72l-62.84-0.02c0,0,0,0,0,0c-1.94,0-3.5,1.51-3.63,3.41c0.62-1.15,1.82-1.95,3.22-1.95c0,0,0,0,0,0
			c2.02,0,3.66,1.64,3.65,3.66l0,2.19l62.46,0.02C108.62,285.86,107.38,284.38,107.39,282.62z"/>
		<path d="M114.73,278.9l-0.02,3.76c-0.01,1.75-1.25,3.2-2.89,3.55l48.3,0.02l7.31-7.31L114.73,278.9z"/>
		<path d="M114.71,282.67l0.02-3.76l-7.32,0l-0.02,3.72c-0.01,1.76,1.23,3.24,2.88,3.6l1.54,0
			C113.46,285.87,114.7,284.42,114.71,282.67z"/>
		<path d="M44.16,280.35C44.16,280.35,44.16,280.35,44.16,280.35c-1.4,0-2.6,0.79-3.22,1.95c-0.01,0.08-0.02,0.16-0.02,0.25
			c0,2.02,1.64,3.66,3.66,3.66l3.24,0l0-2.19C47.82,281.99,46.18,280.35,44.16,280.35z"/>
		<path d="M74.12,177.99c1.17-4.71,3.65-8.27,6.14-8.9c-1.79-0.24-3.17-1.76-3.17-3.62c0-2.02,1.64-3.65,3.66-3.65c0,0,0,0,0.01,0
			l0.28,0c-0.4-0.09-0.82-0.13-1.25-0.08c-5.83,0.71-10.72,6.27-12.76,14.49c-2.07,8.35-0.57,15.1,2.25,19.9l9.59,0.03
			C73.44,192.29,72.56,184.27,74.12,177.99z"/>
		<path d="M74.79,202.24c0.64,0.44,1.36,0.65,2.08,0.65c1.16,0,2.3-0.55,3.01-1.57c1.15-1.66,0.74-3.94-0.92-5.09
			c-0.04-0.03-0.07-0.06-0.1-0.08l-9.59-0.03C70.83,198.79,72.79,200.86,74.79,202.24z"/>
		<path d="M143.66,165.59c0,2.02-1.64,3.65-3.66,3.65c0,0,0,0-0.01,0l-0.25,0c0.25,0.09,0.52,0.16,0.79,0.19
			c2.85,0.32,6.04,4.68,7.42,10.14c1.36,5.37,1.16,12.81-3.62,16.76l9.13,0.02c2.66-5.11,3.32-11.73,1.58-18.58
			c-2.23-8.8-7.6-14.93-13.7-15.62c-0.04,0-0.07,0-0.11,0C142.65,162.67,143.66,164,143.66,165.59z"/>
		<path d="M143.66,196.86c-1.66,1.15-2.07,3.43-0.92,5.09c0.71,1.02,1.85,1.57,3.01,1.57c0.72,0,1.45-0.21,2.08-0.65
			c2.38-1.65,4.26-3.89,5.63-6.52l-9.13-0.02C144.12,196.51,143.9,196.7,143.66,196.86z"/>
		<path d="M83.85,164.93c0.25,2.01-1.18,3.83-3.19,4.08c-0.14,0.02-0.27,0.05-0.41,0.08c0.16,0.02,0.32,0.05,0.48,0.05l59.01,0.1
			c-1.58-0.55-2.63-2.13-2.43-3.86c0.22-1.97,1.97-3.39,3.93-3.23c-0.39-0.14-0.8-0.23-1.23-0.23l-58.99-0.1
			C82.48,162.16,83.66,163.36,83.85,164.93z"/>
		<path d="M80.74,161.82c-2.02,0-3.65,1.63-3.66,3.65c0,1.86,1.38,3.37,3.17,3.62c0.14-0.03,0.27-0.07,0.41-0.08
			c2.01-0.25,3.43-2.07,3.19-4.08c-0.19-1.57-1.37-2.77-2.82-3.11L80.74,161.82C80.74,161.82,80.74,161.82,80.74,161.82z"/>
		<path d="M137.31,165.38c-0.19,1.73,0.86,3.31,2.43,3.86l0.25,0c0,0,0,0,0.01,0c2.02,0,3.65-1.63,3.66-3.65
			c0-1.59-1.01-2.92-2.42-3.43C139.28,161.99,137.53,163.41,137.31,165.38z"/>
		<polygon points="243.92,203.91 251.22,196.62 249.74,196.61 242.45,203.91 		"/>
		<polygon points="167.44,278.92 160.12,286.24 161.6,286.24 168.91,278.92 		"/>
	</g>
</g>
</svg>
