<svg id="Layer_1" data-name="Layer 1" xmlns="http://www.w3.org/2000/svg" viewBox="0 0 503.6 503.6"><defs><style>.cls-1,.cls-2,.cls-3,.cls-4{fill:none;stroke:#000;}.cls-1,.cls-3{stroke-miterlimit:10;}.cls-1,.cls-2{stroke-width:4.82px;}.cls-2,.cls-3,.cls-4{stroke-linecap:round;}.cls-2,.cls-4{stroke-linejoin:round;}.cls-3,.cls-4{stroke-width:5.32px;}.cls-5{isolation:isolate;font-size:77.76px;font-family:ArialMT, Arial;}</style></defs><g id="toilet"><g id="New_icon" data-name="New icon"><path class="cls-1" d="M143.2,289.9c0,28.2-22.2,51.1-49.5,51.1s-49.5-22.9-49.5-51.1"/><path class="cls-1" d="M42.1,288.1c0-14,23.1-10.9,52.2-10.9"/><path class="cls-1" d="M144.4,288.1c0-14-23.2-10.8-52.4-10.8"/><line class="cls-1" x1="40.6" y1="289.5" x2="146" y2="288.8"/></g><path class="cls-2" d="M114.4,338.8v32.9c0,2.9-2.8,5.2-6.2,5.2H79.1c-3.4,0-6.2-2.3-6.2-5.2l-.7-32.9"/><path class="cls-2" d="M133.1,263.2H53.6a7.34,7.34,0,0,1-7.3-7.3V201.5a7.34,7.34,0,0,1,7.3-7.3h79.6a7.34,7.34,0,0,1,7.3,7.3V256A7.34,7.34,0,0,1,133.1,263.2Z"/><path class="cls-2" d="M141.4,194.3h-96a3.22,3.22,0,0,1-3.2-3.2v-5.2a3.22,3.22,0,0,1,3.2-3.2h96.1a3.22,3.22,0,0,1,3.2,3.2V191A3.4,3.4,0,0,1,141.4,194.3Z"/><line class="cls-2" x1="130.6" y1="265.8" x2="130.8" y2="275.4"/><line class="cls-2" x1="58" y1="265.6" x2="58" y2="275.1"/><ellipse class="cls-2" cx="63" cy="213.6" rx="5.9" ry="6"/><line class="cls-2" x1="70.8" y1="213.6" x2="79.2" y2="213.6"/></g><g id="bathtub"><g id="New_icon-2" data-name="New icon"><line class="cls-3" x1="202.8" y1="266.9" x2="456.3" y2="267.1"/><line class="cls-3" x1="198.7" y1="245" x2="459.7" y2="245.2"/><path class="cls-3" d="M453.5,268l-13.8,61.6s-5.1,21.6-28.6,23.6l-162.2-.4c-23.4-1-28.3-22.4-28.6-23.3l-13.8-61.6"/><path class="cls-3" d="M200.2,244.9c-17.5,0-21.3,21.9,2.6,21.9"/><path class="cls-3" d="M459.7,245.2c17.5,0,21.3,21.9-2.6,21.9"/><path class="cls-4" d="M399.6,147.5l-39.6-.2c.2.5-.4-6.8,3.9-12.7,6-8.3,20.4-14.5,30.3-.4C396.5,137.5,399.6,142,399.6,147.5Z"/><line class="cls-3" x1="360" y1="165.6" x2="360" y2="174.1"/><line class="cls-3" x1="379.7" y1="165.6" x2="379.7" y2="174.1"/><line class="cls-3" x1="399.6" y1="165.6" x2="399.6" y2="174.1"/><line class="cls-3" x1="360" y1="188.1" x2="360" y2="198.4"/><line class="cls-3" x1="379.7" y1="188.4" x2="379.7" y2="198.1"/><line class="cls-3" x1="399.6" y1="188.1" x2="399.6" y2="198.4"/><line class="cls-3" x1="360" y1="212.1" x2="360" y2="220.7"/><line class="cls-3" x1="379.7" y1="212.1" x2="379.7" y2="220.7"/><line class="cls-3" x1="399.6" y1="212.1" x2="399.6" y2="220.7"/><line class="cls-3" x1="261.7" y1="353.5" x2="250.5" y2="376.2"/><line class="cls-3" x1="404.6" y1="353.1" x2="414.5" y2="376.1"/><path class="cls-3" d="M201.3,243.3s-1-10.6,12.7-17.8c1-.4,14.4-5.7,22.4,7"/><path class="cls-3" d="M236.4,231.7s-1-10.6,12.7-17.8c1-.4,16.2-3.9,24.4,10.1"/><path class="cls-3" d="M273.9,224.5s7.9-1.3,13,2.7c1,.5,9.4,5.9,7.1,18"/><path class="cls-3" d="M379.7,123.1s.9-42,34.8-40.8c29.1,1,37.8,25.5,38.5,31.4.4,3.2.5,7.5.5,7.5V243.3"/></g></g><g id="number"><g id="Number-2" data-name="Number"><text class="cls-5" transform="translate(207.35 467.21)">#6</text></g></g></svg>