<svg id="Layer_1" data-name="Layer 1" xmlns="http://www.w3.org/2000/svg" viewBox="0 0 503.6 503.6"><defs><style>.cls-1{isolation:isolate;font-size:77.76px;font-family:ArialMT, Arial;}.cls-2,.cls-3{fill:none;stroke:#000;stroke-linecap:round;stroke-width:9px;}.cls-2{stroke-miterlimit:10;}.cls-3{stroke-linejoin:round;}</style></defs><g id="number"><g id="Number-2" data-name="Number"><text class="cls-1" transform="translate(208.4 467.21)">#6</text></g></g><g id="Layer_1-2" data-name="Layer 1"><path d="M101.21,215.43h300.4c3.9,0,7-3.4,7-7.7v-99.2c0-4.2-3.2-7.7-7-7.7H101.21c-3.9,0-7,3.4-7,7.7v99.2C94.21,211.93,97.41,215.43,101.21,215.43Zm307.5,3.8H98c-6.3,0-11.4-5.5-11.4-12.3V104.63c0-6.5,4.8-11.7,10.8-11.7h307.9c6,0,10.8,5.2,10.8,11.7v106.5A7.68,7.68,0,0,1,408.71,219.23Z"/><path d="M121.51,216.63c0,1.5,1.7,2.6,3.8,2.6s3.8-1.2,3.8-2.6V165h91.4v51.6c0,1.5,1.7,2.6,3.8,2.6s3.8-1.2,3.8-2.6v-54.2c0-1.5-1.7-2.6-3.8-2.6h-99.1c-2.1,0-3.8,1.2-3.8,2.6l.1,54.2Z"/><path d="M267.91,216.63c0,1.5,1.7,2.6,3.8,2.6s3.8-1.2,3.8-2.6V165h91.4v51.6c0,1.5,1.7,2.6,3.8,2.6s3.8-1.2,3.8-2.6v-54.2c0-1.5-1.7-2.6-3.8-2.6h-99.1c-2.1,0-3.8,1.2-3.8,2.6l.1,54.2Z"/><path d="M301.21,191.73H343a14.34,14.34,0,0,1,14.3,14.3h0a14.34,14.34,0,0,1-14.3,14.3h-41.8a14.34,14.34,0,0,1-14.3-14.3h0a14.34,14.34,0,0,1,14.3-14.3Zm41.8,7.6h-41.8a6.49,6.49,0,0,0-6.6,6.6h0a6.49,6.49,0,0,0,6.6,6.6H343a6.49,6.49,0,0,0,6.6-6.6h0a6.65,6.65,0,0,0-1.9-4.7A6.48,6.48,0,0,0,343,199.33Z"/><path d="M153.11,191.73h41.8a14.34,14.34,0,0,1,14.3,14.3h0a14.34,14.34,0,0,1-14.3,14.3h-41.8a14.34,14.34,0,0,1-14.3-14.3h0a14.29,14.29,0,0,1,4.2-10.1A14.12,14.12,0,0,1,153.11,191.73Zm41.8,7.6h-41.8a6.49,6.49,0,0,0-6.6,6.6h0a6.49,6.49,0,0,0,6.6,6.6h41.8a6.49,6.49,0,0,0,6.6-6.6h0a6.65,6.65,0,0,0-1.9-4.7A7.11,7.11,0,0,0,194.91,199.33Z"/><path d="M435.31,219.83a26.56,26.56,0,0,0-13-3.1H80.51a26.85,26.85,0,0,0-13,3.1c-3.3,1.9-5.4,4.5-5.4,7.3v36.5a1.87,1.87,0,0,0,.8,1.4h0c.2,0,.4-.1.6-.1h.1c.2,0,.4-.1.6-.1h2.9c.3,0,.7.1,1,.1h0a17.82,17.82,0,0,1,2.6-.4l.2-3.3v-34.1c0-1.5,1.1-2.9,2.9-3.9a14.23,14.23,0,0,1,6.8-1.6h341.9a13.67,13.67,0,0,1,6.8,1.6c1.8,1,2.9,2.4,2.9,3.9v34.1h0l.3,3.6h0c0,.1-.3.4,0,.6a3,3,0,0,0,2.2.2c.6.2,1.2.3,1.8.5a6.86,6.86,0,0,0,3.1-.7,2.29,2.29,0,0,0,1.3-1.7v-36.5C440.71,224.33,438.61,221.73,435.31,219.83Z"/><path d="M67.91,357V275a7.56,7.56,0,0,1,2.2-5.3,7.18,7.18,0,0,1,5.1-2.1h352.7a7.34,7.34,0,0,1,7.3,7.4v82h-14.1c-21.2-.2-21.7-.2-21.7,1.8s-.3,5.4,1.9,5.4h37.9a3.81,3.81,0,0,0,4-3.6V275c0-4,1-9.8-1.7-12.4s-9.3-2.2-13.6-2.2H75.21c-4.3,0-10.1,0-12.9,2.7s-2.4,8-2.4,11.9v85.6a3.81,3.81,0,0,0,4,3.6l38-.4c2.2,0,2.6-1.3,2.6-3.2s0-3.6-2.2-3.6Z"/><line class="cls-2" x1="106.41" y1="306.23" x2="400.31" y2="306.23"/><polyline class="cls-3" points="400.11 306.23 400.01 337.63 400.11 359.43 400.11 306.23 104.21 306.23 103.11 359.23"/></g></svg>