<svg xmlns="http://www.w3.org/2000/svg" viewBox="0 0 491.5 491.5"><defs><style>.cls-1,.cls-2{fill:none;stroke:#000;stroke-linecap:round;}.cls-1{stroke-linejoin:round;stroke-width:7.21px;}.cls-2{stroke-miterlimit:10;stroke-width:5.38px;}</style></defs><g id="Ebene_4" data-name="Ebene 4"><path class="cls-1" d="M38.57,401.12H467.89a0,0,0,0,1,0,0v0a46.14,46.14,0,0,1-46.14,46.14h-337a46.14,46.14,0,0,1-46.14-46.14v0A0,0,0,0,1,38.57,401.12Z"/><path class="cls-1" d="M38.57,124H467.89a0,0,0,0,1,0,0V274.1A109.43,109.43,0,0,1,358.46,383.52H148A109.43,109.43,0,0,1,38.57,274.1V124A0,0,0,0,1,38.57,124Z" transform="translate(506.46 507.54) rotate(180)"/><rect class="cls-1" x="169.61" y="145.96" width="167.24" height="39.66" rx="19.83"/><rect class="cls-1" x="101.32" y="213.61" width="140.01" height="140.01"/><path class="cls-1" d="M103.46,215,239.39,352Z"/><rect class="cls-1" x="262.91" y="213.61" width="140.01" height="140.01"/><path class="cls-1" d="M265.05,215,401,352Z"/><circle class="cls-2" cx="404.84" cy="424.33" r="14.82"/></g></svg>