<svg xmlns="http://www.w3.org/2000/svg" viewBox="0 0 491.5 491.5"><defs><style>.cls-1,.cls-2,.cls-3,.cls-4{fill:none;stroke:#000;stroke-linecap:round;stroke-linejoin:round;}.cls-1{stroke-width:8.8px;}.cls-2{stroke-width:8.19px;}.cls-3{stroke-width:8px;}.cls-4{stroke-width:7px;}</style></defs><g id="Ebene_4" data-name="Ebene 4"><polygon class="cls-1" points="344.3 420.39 301.56 282.74 187.12 282.74 144.38 420.39 344.3 420.39"/><polygon class="cls-2" points="337.34 117.16 302.08 237.19 183.07 237.19 148.81 117.16 168.76 84.24 321.31 84.24 337.34 117.16"/><rect class="cls-3" x="181.98" y="251.56" width="121.69" height="18.81"/><path d="M239.72,60.3h6.71a6.64,6.64,0,0,1,6.64,6.64V80.29a0,0,0,0,1,0,0h-20a0,0,0,0,1,0,0V66.94A6.64,6.64,0,0,1,239.72,60.3Z"/><path class="cls-4" d="M324.08,162.3s31.46-59.68,47.83-51.87c0,0-6-20.1-43.55-11.72l9,18.45Z"/><path class="cls-4" d="M148.81,117.16,116.3,96.67,87.48,115.16,98.41,244.87s17.89,19.42,24.84-7.68l-5.1-100.61L161.7,162.3Z"/></g></svg>