<svg xmlns="http://www.w3.org/2000/svg" viewBox="0 0 491.5 491.5"><defs><style>.cls-1,.cls-2{fill:none;}.cls-1,.cls-2,.cls-3{stroke:#000;stroke-miterlimit:10;}.cls-1{stroke-width:3.76px;}.cls-2,.cls-3{stroke-width:0.54px;}</style></defs><g id="Ebene_2" data-name="Ebene 2"><path d="M438.19,165.6a3.4,3.4,0,0,1-1.35-.28L244.16,79.46,51.48,165.32a3.32,3.32,0,0,1-2.7-6.06l192.76-85.9a3.34,3.34,0,0,1,2.35-1h.54a3.34,3.34,0,0,1,2.35,1l192.76,85.9a3.31,3.31,0,0,1-1.35,6.34Z"/></g><g id="Ebene_4" data-name="Ebene 4"><g id="New_icon" data-name="New icon"><rect class="cls-1" x="62.33" y="221.5" width="196.38" height="195.15"/><line class="cls-1" x1="62.33" y1="252.58" x2="258.66" y2="252.58"/><path class="cls-1" d="M91.52,241.69H84a2.87,2.87,0,0,1-2.85-2.85v-2.79A2.86,2.86,0,0,1,84,233.21h7.51a2.86,2.86,0,0,1,2.85,2.84v2.79A2.87,2.87,0,0,1,91.52,241.69Z"/><path class="cls-1" d="M117,241.36h-7.51a2.85,2.85,0,0,1-2.84-2.84v-2.79a2.86,2.86,0,0,1,2.84-2.85H117a2.87,2.87,0,0,1,2.85,2.85v2.79A2.86,2.86,0,0,1,117,241.36Z"/><path class="cls-1" d="M142.4,241.36h-7.51a2.85,2.85,0,0,1-2.84-2.84v-2.79a2.86,2.86,0,0,1,2.84-2.85h7.51a2.87,2.87,0,0,1,2.85,2.85v2.79A2.86,2.86,0,0,1,142.4,241.36Z"/><path class="cls-1" d="M246.74,241h-48.3a2.41,2.41,0,0,1-2.42-2.41v-3a2.41,2.41,0,0,1,2.42-2.41h48.3a2.41,2.41,0,0,1,2.42,2.41v3A2.41,2.41,0,0,1,246.74,241Z"/><circle class="cls-1" cx="160.49" cy="337.7" r="55.07"/><path class="cls-1" d="M120.56,337.7a39.93,39.93,0,1,1,39.93,39.94c-22.22,0-37.14-19.27-39.61-34.57A38.77,38.77,0,0,1,120.56,337.7Z"/><path class="cls-1" d="M120.77,347.53c5-10.42,18.31-13.37,26.46-4.73a38.72,38.72,0,0,0,4,4.19c3.38,2.79,12.18,8.85,22-2.9,3.27-3.92,17.49-12,25.27,3.92"/></g><rect class="cls-2" x="311.03" y="262.66" width="18.34" height="76.43"/><rect class="cls-2" x="332.1" y="262.66" width="55.36" height="76.43"/><path class="cls-3" d="M311,339.09V262.66h18.34v-2.73H311v1a1.37,1.37,0,0,1-2.73,0v-1h0v81.88h21.06v-2.72Z"/><polygon class="cls-3" points="330.73 262.66 329.37 262.66 329.37 339.09 332.1 339.09 332.1 262.66 330.74 262.66 330.73 262.66 330.73 262.66"/><path class="cls-3" d="M330.12,262.51a1.35,1.35,0,0,1-.6-1.82l.37-.76h-.52v2.73h1.36A1.37,1.37,0,0,1,330.12,262.51Z"/><path class="cls-3" d="M388.82,262.66a1.36,1.36,0,0,1-1.36-1.36v-1.37H332.94l-1,2a1.37,1.37,0,0,1-1.21.76h56.72v76.43H329.37v2.72h60.81V261.3A1.36,1.36,0,0,1,388.82,262.66Z"/><path class="cls-3" d="M426,226.36,376.61,177l-.28.28a1.37,1.37,0,0,1,.52,1.88l-2,3.45,1.75-1.76,45.53,45.53-22.32,22.32-10-10a1.32,1.32,0,0,1,.4,1v3.29l9.64,9.64Z"/><polygon class="cls-3" points="387.46 259.93 390.18 259.93 390.18 242.9 387.46 240.17 387.46 259.93"/><path class="cls-3" d="M387.46,261.3a1.36,1.36,0,0,0,2.72,0v-1.37h-2.72Z"/><path class="cls-3" d="M389.78,238.65h0a1.36,1.36,0,0,0-2.32,1v.56l2.72,2.73v-3.29A1.32,1.32,0,0,0,389.78,238.65Z"/><path class="cls-3" d="M308.71,238.3l-10,10L276.35,226,322,180.39l1.53,1.54-1.61-2.79a1.39,1.39,0,0,1,0-1.37,1.35,1.35,0,0,1,.72-.59l-.64-.64L272.5,226l26.17,26.18,9.64-9.64v-3.29A1.32,1.32,0,0,1,308.71,238.3Z"/><polygon class="cls-3" points="311.04 239.82 308.31 242.55 308.31 259.93 311.04 259.93 311.04 239.82"/><path class="cls-3" d="M309.67,262.31A1.36,1.36,0,0,0,311,261v-1h-2.73v1A1.36,1.36,0,0,0,309.67,262.31Z"/><path class="cls-3" d="M311,239.26a1.36,1.36,0,0,0-1.37-1.36,1.39,1.39,0,0,0-1,.39h0a1.32,1.32,0,0,0-.4,1v3.29l2.73-2.73Z"/><path class="cls-3" d="M349.38,221.28l-7.25-12.55-2,2,7.69,13.33.33-.66a1.36,1.36,0,0,1,2.44,1.22l0,0,7.81-13.53-2-2Z"/><polygon class="cls-3" points="357.81 206.67 359.81 208.66 374.86 182.59 367.42 190.03 357.81 206.67"/><path class="cls-3" d="M325.44,179.82h47.87l-.63,1.1,3.65-3.66a1.47,1.47,0,0,0-.66-.17H323.08a1.45,1.45,0,0,0-.46.09l3.07,3.07Z"/><polygon class="cls-3" points="340.72 206.28 330.96 189.37 323.51 181.93 338.73 208.28 340.72 206.28"/><polygon class="cls-3" points="358.39 211.11 359.81 208.66 357.81 206.67 356.4 209.11 358.39 211.11"/><path class="cls-3" d="M367.42,190l7.44-7.44,2-3.45a1.37,1.37,0,0,0-.52-1.88l-3.65,3.66Z"/><polygon class="cls-3" points="340.72 206.28 338.73 208.28 340.14 210.72 342.13 208.73 340.72 206.28"/><path class="cls-3" d="M321.9,177.77a1.39,1.39,0,0,0,0,1.37l1.61,2.79,7.45,7.44-5.27-9.12-3.07-3.07A1.35,1.35,0,0,0,321.9,177.77Z"/><path class="cls-3" d="M350.56,224.68a1.38,1.38,0,0,1-1.18.68,1.36,1.36,0,0,1-1.18-.68l-.37-.63-17.94,35.88h3.05l17.64-35.29Z"/><polygon class="cls-3" points="330.73 262.66 330.74 262.66 330.73 262.66 330.73 262.66"/><path class="cls-3" d="M329.52,260.69a1.35,1.35,0,0,0,.6,1.82,1.37,1.37,0,0,0,.61.15h0a1.37,1.37,0,0,0,1.21-.76l1-2h-3.05Z"/><path class="cls-3" d="M350,222.78a1.37,1.37,0,0,0-1.83.61l-.33.66.37.63a1.36,1.36,0,0,0,1.18.68,1.38,1.38,0,0,0,1.18-.68l0,0,0,0A1.38,1.38,0,0,0,350,222.78Z"/></g></svg>