<svg xmlns="http://www.w3.org/2000/svg" viewBox="0 0 491.5 491.5"><g id="Ebene_4" data-name="Ebene 4"><path d="M328.29,38V29.5a7.93,7.93,0,0,0-7.92-7.93H161.77a7.94,7.94,0,0,0-7.93,7.93v8.6A7.93,7.93,0,0,0,161.77,46h2.28a14.6,14.6,0,0,0-3.41,9.38v89.8a14.64,14.64,0,0,0,14.63,14.62h5.11a2.63,2.63,0,0,0-.34,1.28v15.7a2.63,2.63,0,0,0,.39,1.36c-9.76,1.1-17.3,3.38-21.85,7.85a16.54,16.54,0,0,0-4.84,12.29h.11l0,4.92,3.39,0c.74,33.64,20.11,62.62,47.87,76.38a2.63,2.63,0,0,0-1.6,2.47l1.1,54.35c0,6.19,5.76,11.22,12.83,11.22h48.1c7.07,0,12.82-5,12.82-11.22V282a2.61,2.61,0,0,0-1.05-2.1c28.4-13.77,48.19-43.41,48.54-77.76l2,0,0-3.92h0c0-.34,0-.66,0-1v-.34h0a16.2,16.2,0,0,0-4.77-10.93c-3.92-3.85-10.07-6.06-17.95-7.3a2.59,2.59,0,0,0,.37-1.41l-.4-15.8a2.59,2.59,0,0,0-.6-1.61h2.18a14.46,14.46,0,0,0,14.62-14.62V55.4A14.54,14.54,0,0,0,317.88,46h2.39A8.1,8.1,0,0,0,328.29,38Zm-169.2.1V29.5a2.72,2.72,0,0,1,2.68-2.68h158.6A2.71,2.71,0,0,1,323,29.5v8.41a2.88,2.88,0,0,1-2.77,2.86H161.77A2.71,2.71,0,0,1,159.09,38.1Zm114,243.9v54.4c0,3.23-3.47,6-7.57,6h-48.1c-4.18,0-7.58-2.68-7.58-6l-1.1-54.4a2.4,2.4,0,0,0-.12-.71,82,82,0,0,0,64.49.56C273.16,281.86,273.14,281.92,273.14,282Zm-31.57.87c-43,0-78-35.58-79-79.7l158.08-1C320.11,246.76,284.85,282.87,241.57,282.87Zm81-86-163.58,1a11.21,11.21,0,0,1,3.25-8.18c8.08-7.94,31.3-7.55,58.18-7.08,5.92.1,12,.2,18.33.23h3.7c6.46,0,12.71-.14,18.78-.25,26.87-.47,50.09-.88,58.14,7A10.82,10.82,0,0,1,322.59,196.9Zm-22.35-19.54a2.41,2.41,0,0,0,.12.67c-10.79-1.12-24.18-.88-39.21-.62-6.62.12-13.47.23-20.56.25-6.91,0-13.59-.13-20.06-.24-13.31-.22-25.34-.43-35.42.31a2.41,2.41,0,0,0,.18-.93V161.1a2.63,2.63,0,0,0-.34-1.28H300.46a2.63,2.63,0,0,0-.62,1.74ZM316,55.4v89.8a9.28,9.28,0,0,1-9.37,9.37H175.27a9.38,9.38,0,0,1-9.38-9.37V55.4A9.39,9.39,0,0,1,175.27,46h131.4A9.38,9.38,0,0,1,316,55.4Z"/><path d="M190.87,87.72a12.4,12.4,0,0,0,12.08-10,2.48,2.48,0,0,0,.82.14h13.9a2.63,2.63,0,0,0,0-5.25h-13.9a2.76,2.76,0,0,0-.82.14,12.35,12.35,0,1,0-12.08,15Zm0-19.8a7.28,7.28,0,1,1-7.08,7.28A7.19,7.19,0,0,1,190.87,67.92Z"/><path d="M203,436.88a26.47,26.47,0,0,0,13,3.69c10.17,0,13.32-6.47,13.23-11.33-.09-8.19-7.47-11.7-15.12-11.7H209.7V411.6h4.41c5.76,0,13-3,13-9.9,0-4.68-3-8.82-10.26-8.82a21.49,21.49,0,0,0-11.7,3.87L203.13,391c3.06-2.25,9-4.5,15.3-4.5,11.52,0,16.74,6.84,16.74,13.95,0,6-3.6,11.16-10.8,13.77v.18c7.2,1.44,13,6.84,13,15,0,9.37-7.29,17.55-21.33,17.55-6.57,0-12.33-2.07-15.21-4Z"/><path d="M253.53,402.42l6.21,9.36c1.62,2.43,3,4.68,4.41,7.11h.27c1.44-2.61,2.88-4.86,4.32-7.2l6.12-9.27h8.55l-14.85,21.06L283.86,446h-9l-6.39-9.81c-1.71-2.51-3.15-4.94-4.68-7.55h-.18c-1.44,2.7-3,4.95-4.59,7.55l-6.3,9.81H244l15.48-22.22-14.76-21.33Z"/></g></svg>