<svg id="Layer_1" data-name="Layer 1" xmlns="http://www.w3.org/2000/svg" viewBox="0 0 100 100"><path d="M54.07,48.68l-1-.21a16.28,16.28,0,0,0-1.86-.22c-.37,0-.74,0-1.11,0s-.74,0-1.11,0a16.28,16.28,0,0,0-1.86.22l-1,.21a17,17,0,0,0-13,16.54.79.79,0,0,0,1.57,0,15.45,15.45,0,1,1,30.89,0,.78.78,0,0,0,1.56,0A17,17,0,0,0,54.07,48.68Z"/><path d="M29,29a9.27,9.27,0,0,0,7.71,0A9.45,9.45,0,1,0,29,29Zm3.85-16.47A7.87,7.87,0,1,1,25,20.44,7.88,7.88,0,0,1,32.86,12.57Z"/><path d="M41,36a9.36,9.36,0,0,0,5.25,11.07l.52.21a10,10,0,0,0,1.77.48l.28,0c.24,0,.48.06.72.07s.37,0,.56,0,.38,0,.56,0,.48,0,.72-.07l.29,0a10.5,10.5,0,0,0,1.77-.48l.52-.21a9.46,9.46,0,0,0,5.58-8.61A9.13,9.13,0,0,0,59.18,36a9,9,0,0,0-.56-1.53,8.81,8.81,0,0,0-.78-1.37,9.59,9.59,0,0,0-1-1.21,9.4,9.4,0,0,0-13.52,0,9.59,9.59,0,0,0-1,1.21,9.7,9.7,0,0,0-.78,1.37A9,9,0,0,0,41,36Zm2.6-2a7.6,7.6,0,0,1,1-1.19,7.85,7.85,0,0,1,11,0,8.25,8.25,0,0,1,1,1.19,8,8,0,0,1,.76,1.41,7.74,7.74,0,0,1,.48,1.68A7.34,7.34,0,0,1,58,38.44a7.86,7.86,0,0,1-4.41,7.06,8.11,8.11,0,0,1-1.63.59l-.5.1a7.89,7.89,0,0,1-1.09.11h-.47a8,8,0,0,1-1.1-.11l-.5-.1a7.74,7.74,0,0,1-1.63-.59,7.86,7.86,0,0,1-4.41-7.06,8.35,8.35,0,0,1,.12-1.34,7.74,7.74,0,0,1,.48-1.68A8,8,0,0,1,43.58,34Z"/><path d="M41,32.27A17,17,0,0,0,15.85,47.21a.79.79,0,1,0,1.57,0A15.46,15.46,0,0,1,32.86,31.77a15.27,15.27,0,0,1,7.34,1.86A10.18,10.18,0,0,1,41,32.27Z"/><path d="M63.45,29a9.27,9.27,0,0,0,7.71,0,9.45,9.45,0,1,0-7.71,0ZM67.3,12.57a7.87,7.87,0,1,1-7.87,7.87A7.88,7.88,0,0,1,67.3,12.57Z"/><path d="M71.29,30.68a17,17,0,0,0-12.11,1.59A10.18,10.18,0,0,1,60,33.63,15.44,15.44,0,0,1,82.75,47.21a.78.78,0,1,0,1.56,0A17,17,0,0,0,71.29,30.68Z"/><path d="M53,75.63a5.78,5.78,0,0,0-1.19.08,4.75,4.75,0,0,0-4.07,4.16h0a3.57,3.57,0,0,1,6.36,2.43,3.91,3.91,0,0,1-3.89,4.12c-2.5,0-4.14-1.94-4.14-5a7.36,7.36,0,0,1,2-5.27,6.34,6.34,0,0,1,3.74-1.73A8,8,0,0,1,53,74.34Zm-.46,6.76a2.38,2.38,0,0,0-2.41-2.69,2.64,2.64,0,0,0-2.27,1.44,1.46,1.46,0,0,0-.18.71c0,1.92.92,3.35,2.58,3.35C51.59,85.2,52.5,84.06,52.5,82.39Z"/></svg>