<svg id="Layer_1" data-name="Layer 1" xmlns="http://www.w3.org/2000/svg" viewBox="0 0 100 100"><path d="M53.38,48.68l-1-.21a16.28,16.28,0,0,0-1.86-.22c-.37,0-.74,0-1.11,0s-.74,0-1.11,0a16.28,16.28,0,0,0-1.86.22l-1,.21a17,17,0,0,0-13,16.54.78.78,0,1,0,1.56,0,15.45,15.45,0,0,1,30.9,0,.78.78,0,0,0,1.56,0A17,17,0,0,0,53.38,48.68Z"/><path d="M28.31,29a9.43,9.43,0,1,0-5.58-8.6A9.42,9.42,0,0,0,28.31,29Zm3.86-16.47a7.87,7.87,0,1,1-7.87,7.87A7.88,7.88,0,0,1,32.17,12.57Z"/><path d="M40.29,36a9.37,9.37,0,0,0,5.24,11.07l.52.21a10.5,10.5,0,0,0,1.77.48l.29,0c.24,0,.48.06.72.07s.37,0,.56,0,.37,0,.56,0,.48,0,.72-.07l.29,0a10.5,10.5,0,0,0,1.77-.48l.52-.21A9.37,9.37,0,0,0,58.49,36a9,9,0,0,0-.56-1.53,8.81,8.81,0,0,0-.78-1.37,9.59,9.59,0,0,0-1-1.21,9.4,9.4,0,0,0-13.52,0,9.59,9.59,0,0,0-1,1.21,8.81,8.81,0,0,0-.78,1.37A9,9,0,0,0,40.29,36Zm2.59-2a8.25,8.25,0,0,1,1-1.19,7.85,7.85,0,0,1,11,0,8.25,8.25,0,0,1,1,1.19,8,8,0,0,1,.76,1.41,7.74,7.74,0,0,1,.48,1.68,8.35,8.35,0,0,1,.12,1.34,7.86,7.86,0,0,1-4.41,7.06,8.34,8.34,0,0,1-1.63.59l-.5.1a7.88,7.88,0,0,1-1.1.11h-.46a7.88,7.88,0,0,1-1.1-.11l-.5-.1a7.74,7.74,0,0,1-1.63-.59,7.86,7.86,0,0,1-4.41-7.06,8.35,8.35,0,0,1,.12-1.34,7.74,7.74,0,0,1,.48-1.68A8,8,0,0,1,42.88,34Z"/><path d="M40.29,32.27A17,17,0,0,0,15.16,47.21a.78.78,0,1,0,1.56,0A15.46,15.46,0,0,1,32.17,31.77a15.29,15.29,0,0,1,7.34,1.86A10.18,10.18,0,0,1,40.29,32.27Z"/><path d="M62.75,29a9.43,9.43,0,1,0-5.58-8.6A9.42,9.42,0,0,0,62.75,29Zm3.86-16.47a7.87,7.87,0,1,1-7.87,7.87A7.88,7.88,0,0,1,66.61,12.57Z"/><path d="M70.6,30.68a17,17,0,0,0-12.11,1.59,10.18,10.18,0,0,1,.78,1.36,15.27,15.27,0,0,1,7.34-1.86A15.46,15.46,0,0,1,82.06,47.21a.78.78,0,1,0,1.56,0A17,17,0,0,0,70.6,30.68Z"/><path d="M44.41,76h0l-2,1.09-.3-1.2,2.56-1.37h1.35v11.7H44.41Z"/><path d="M58,80.24c0,4-1.48,6.18-4.07,6.18-2.29,0-3.84-2.14-3.87-6s1.69-6.09,4.07-6.09S58,76.52,58,80.24Zm-6.36.18c0,3,.94,4.78,2.38,4.78,1.62,0,2.39-1.9,2.39-4.88s-.73-4.78-2.37-4.78C52.63,75.54,51.62,77.24,51.62,80.42Z"/></svg>