<svg id="Layer_1" data-name="Layer 1" xmlns="http://www.w3.org/2000/svg" viewBox="0 0 173.39 173.39"><defs><style>.cls-1{fill:none;}</style></defs><path class="cls-1" d="M52.25,55.5a6.51,6.51,0,0,0,6.5-6.5A6.51,6.51,0,0,1,52.25,55.5Z"/><path class="cls-1" d="M45.75,49a6.51,6.51,0,0,0,6.5,6.5A6.51,6.51,0,0,1,45.75,49Z"/><path class="cls-1" d="M58.75,30a6.51,6.51,0,0,0-6.5-6.5A6.51,6.51,0,0,1,58.75,30Z"/><path class="cls-1" d="M122.25,23.5a6.51,6.51,0,0,0-6.5,6.5A6.51,6.51,0,0,1,122.25,23.5Z"/><path class="cls-1" d="M52.25,23.5a6.51,6.51,0,0,0-6.5,6.5A6.51,6.51,0,0,1,52.25,23.5Z"/><path class="cls-1" d="M115.75,49a6.51,6.51,0,0,0,6.5,6.5A6.51,6.51,0,0,1,115.75,49Z"/><path class="cls-1" d="M122.25,55.5a6.51,6.51,0,0,0,6.5-6.5A6.51,6.51,0,0,1,122.25,55.5Z"/><path class="cls-1" d="M128.75,30a6.51,6.51,0,0,0-6.5-6.5A6.51,6.51,0,0,1,128.75,30Z"/><rect x="63.75" y="36" width="47" height="5"/><path d="M142.25,36h-8.5v5h8.5a7,7,0,0,1,7,7v87a7,7,0,0,1-7,7h-110a7,7,0,0,1-7-7V48a7,7,0,0,1,7-7h8.5V36h-8.5a12,12,0,0,0-12,12v87a12,12,0,0,0,12,12h110a12,12,0,0,0,12-12V48A12,12,0,0,0,142.25,36Z"/><path d="M52.25,23.5a6.51,6.51,0,0,0-6.5,6.5V49a6.5,6.5,0,0,0,13,0V30A6.51,6.51,0,0,0,52.25,23.5ZM53.75,41v8a1.5,1.5,0,0,1-3,0V30a1.5,1.5,0,0,1,3,0V41Z"/><path d="M122.25,23.5a6.51,6.51,0,0,0-6.5,6.5V49a6.5,6.5,0,0,0,13,0V30A6.51,6.51,0,0,0,122.25,23.5Zm1.5,17.5v8a1.5,1.5,0,0,1-3,0V30a1.5,1.5,0,0,1,3,0V41Z"/><path d="M58.1,94.72H34.83a5.56,5.56,0,0,1-5.55-5.55V75.5A5.56,5.56,0,0,1,34.83,70H58.1a5.56,5.56,0,0,1,5.55,5.55V89.17A5.56,5.56,0,0,1,58.1,94.72ZM34.83,73.39a2.11,2.11,0,0,0-2.11,2.11V89.17a2.12,2.12,0,0,0,2.11,2.11H58.1a2.11,2.11,0,0,0,2.11-2.11V75.5a2.1,2.1,0,0,0-2.11-2.11Z"/><path d="M139.7,94.72H116.43a5.56,5.56,0,0,1-5.55-5.55V75.5A5.56,5.56,0,0,1,116.43,70H139.7a5.56,5.56,0,0,1,5.55,5.55V89.17A5.56,5.56,0,0,1,139.7,94.72ZM116.43,73.39a2.11,2.11,0,0,0-2.11,2.11V89.17a2.12,2.12,0,0,0,2.11,2.11H139.7a2.11,2.11,0,0,0,2.11-2.11V75.5a2.1,2.1,0,0,0-2.11-2.11Z"/><path d="M98.9,94.72H75.63a5.56,5.56,0,0,1-5.55-5.55V75.5A5.56,5.56,0,0,1,75.63,70H98.9a5.56,5.56,0,0,1,5.55,5.55V89.17A5.56,5.56,0,0,1,98.9,94.72ZM75.63,73.39a2.11,2.11,0,0,0-2.11,2.11V89.17a2.12,2.12,0,0,0,2.11,2.11H98.9A2.11,2.11,0,0,0,101,89.17V75.5a2.1,2.1,0,0,0-2.11-2.11Z"/><path d="M58.1,124.72H34.83a5.56,5.56,0,0,1-5.55-5.55V105.5A5.56,5.56,0,0,1,34.83,100H58.1a5.56,5.56,0,0,1,5.55,5.55v13.67A5.56,5.56,0,0,1,58.1,124.72ZM34.83,103.39a2.11,2.11,0,0,0-2.11,2.11v13.67a2.12,2.12,0,0,0,2.11,2.11H58.1a2.11,2.11,0,0,0,2.11-2.11V105.5a2.1,2.1,0,0,0-2.11-2.11Z"/><path d="M139.7,124.72H116.43a5.56,5.56,0,0,1-5.55-5.55V105.5a5.56,5.56,0,0,1,5.55-5.55H139.7a5.56,5.56,0,0,1,5.55,5.55v13.67A5.56,5.56,0,0,1,139.7,124.72Zm-23.27-21.33a2.11,2.11,0,0,0-2.11,2.11v13.67a2.12,2.12,0,0,0,2.11,2.11H139.7a2.11,2.11,0,0,0,2.11-2.11V105.5a2.1,2.1,0,0,0-2.11-2.11Z"/><path d="M98.9,124.72H75.63a5.56,5.56,0,0,1-5.55-5.55V105.5A5.56,5.56,0,0,1,75.63,100H98.9a5.56,5.56,0,0,1,5.55,5.55v13.67A5.56,5.56,0,0,1,98.9,124.72ZM75.63,103.39a2.11,2.11,0,0,0-2.11,2.11v13.67a2.12,2.12,0,0,0,2.11,2.11H98.9a2.11,2.11,0,0,0,2.11-2.11V105.5a2.1,2.1,0,0,0-2.11-2.11Z"/></svg>