<svg id="Layer_1" data-name="Layer 1" xmlns="http://www.w3.org/2000/svg" viewBox="0 0 173.39 173.39"><defs><style>.cls-1{fill:none;stroke:#000;stroke-miterlimit:10;stroke-width:4px;}</style></defs><path class="cls-1" d="M45,150H40.66a8.86,8.86,0,0,1-9-8L26,66.26A8.81,8.81,0,0,1,35,57H51.49a8.79,8.79,0,0,1,9,9.35L54,142.07A8.87,8.87,0,0,1,45,150Z"/><circle class="cls-1" cx="43.23" cy="37.5" r="12.5"/><path class="cls-1" d="M134.35,150h-3.94a8.08,8.08,0,0,1-8.19-7.31l-5.2-69a8,8,0,0,1,8.19-8.45h15.08a8,8,0,0,1,8.18,8.53l-5.93,69A8.1,8.1,0,0,1,134.35,150Z"/><circle class="cls-1" cx="132.75" cy="47.44" r="11.4"/><path class="cls-1" d="M88.93,150H86.61a4.74,4.74,0,0,1-4.81-4.29l-3-40.55a4.71,4.71,0,0,1,4.81-5h8.85a4.71,4.71,0,0,1,4.81,5l-3.49,40.54A4.74,4.74,0,0,1,88.93,150Z"/><circle class="cls-1" cx="87.99" cy="87.76" r="6.69"/></svg>