<svg id="Layer_1" data-name="Layer 1" xmlns="http://www.w3.org/2000/svg" viewBox="0 0 173.39 173.39"><defs><style>.cls-1{fill:#fff;}</style></defs><path class="cls-1" d="M17,100.56A1.56,1.56,0,0,1,15.44,99V36A1.56,1.56,0,0,1,17,34.44H123a1.56,1.56,0,0,1,0,3.12H18.56V99A1.56,1.56,0,0,1,17,100.56Z"/><path class="cls-1" d="M158,136.56H52a1.56,1.56,0,0,1,0-3.12H156.44V72a1.56,1.56,0,0,1,3.12,0v63A1.56,1.56,0,0,1,158,136.56Z"/><path class="cls-1" d="M17.48,138a3.49,3.49,0,0,1-3.5-3.5v-21A3.5,3.5,0,0,1,17.4,110h.08a3.51,3.51,0,0,1,3.5,3.34L21.6,127,61,96.88a3.5,3.5,0,0,1,4.24,5.57L27.84,131H38.59a3.5,3.5,0,0,1,0,7H18.44a3.87,3.87,0,0,1-.48,0A3.87,3.87,0,0,1,17.48,138Z"/><path class="cls-1" d="M111.76,75a3.5,3.5,0,0,1-2.12-6.28L147,40.24h-10.7a3.5,3.5,0,0,1,0-7h20.1a3.87,3.87,0,0,1,.48,0,3.5,3.5,0,0,1,4,3.47V57.69a3.49,3.49,0,0,1-3.42,3.49h-.09a3.5,3.5,0,0,1-3.49-3.35l-.62-13.56-39.31,30A3.49,3.49,0,0,1,111.76,75Z"/></svg>