<svg id="Layer_1" data-name="Layer 1" xmlns="http://www.w3.org/2000/svg" viewBox="0 0 100 100"><path d="M54.87,60.22c-.4-.1-.81-.18-1.23-.25a18.11,18.11,0,0,0-2.23-.27c-.44,0-.88-.05-1.33-.05s-.89,0-1.33.05a18.35,18.35,0,0,0-2.23.27c-.41.07-.82.15-1.23.25A20.44,20.44,0,0,0,29.67,80.06a.94.94,0,1,0,1.88,0,18.54,18.54,0,0,1,37.07,0,.94.94,0,1,0,1.87,0A20.44,20.44,0,0,0,54.87,60.22Z"/><path d="M24.79,36.65a11.2,11.2,0,0,0,9.25,0,11.33,11.33,0,1,0-9.25,0Zm4.63-19.77A9.45,9.45,0,1,1,20,26.33,9.45,9.45,0,0,1,29.42,16.88Z"/><path d="M39.16,45a11.06,11.06,0,0,0-.4,3,11.35,11.35,0,0,0,6.69,10.33l.63.25a10.87,10.87,0,0,0,2.12.57l.35.06c.28,0,.57.06.86.08s.44,0,.67,0,.45,0,.67,0,.58,0,.87-.08l.34-.06a10.68,10.68,0,0,0,2.12-.57l.63-.25a11.36,11.36,0,0,0,6.7-10.33A11.06,11.06,0,0,0,61,45a11.25,11.25,0,0,0-1.61-3.48,11.06,11.06,0,0,0-1.19-1.45,11.27,11.27,0,0,0-16.23,0,11.13,11.13,0,0,0-1.2,1.45A11.25,11.25,0,0,0,39.16,45Zm3.11-2.36a10.48,10.48,0,0,1,1.21-1.44,9.42,9.42,0,0,1,13.2,0,9.82,9.82,0,0,1,1.21,1.44,9.14,9.14,0,0,1,.91,1.69,9,9,0,0,1,.58,2,9.48,9.48,0,0,1-7.1,10.79c-.2,0-.4.09-.61.12a9.23,9.23,0,0,1-1.31.13l-.28,0-.28,0a9.38,9.38,0,0,1-1.31-.13c-.21,0-.41-.08-.61-.12a9.36,9.36,0,0,1-7.1-10.79,9,9,0,0,1,.58-2A9.14,9.14,0,0,1,42.27,42.62Z"/><path d="M39.16,40.52A20.42,20.42,0,0,0,9,58.46a.94.94,0,1,0,1.88,0A18.54,18.54,0,0,1,38.23,42.15,13.16,13.16,0,0,1,39.16,40.52Z"/><path d="M66.12,36.65a11.2,11.2,0,0,0,9.25,0,11.33,11.33,0,1,0-9.25,0Zm4.63-19.77a9.45,9.45,0,1,1-9.45,9.45A9.46,9.46,0,0,1,70.75,16.88Z"/><path d="M75.53,38.62a20,20,0,0,0-9.57,0A20.14,20.14,0,0,0,61,40.52a14.58,14.58,0,0,1,.93,1.63A18.53,18.53,0,0,1,89.28,58.46a.94.94,0,1,0,1.88,0A20.44,20.44,0,0,0,75.53,38.62Z"/></svg>