<svg id="Layer_1" data-name="Layer 1" xmlns="http://www.w3.org/2000/svg" viewBox="0 0 132.89 132.89"><defs><style>.cls-1{fill:#fff;}</style></defs><path class="cls-1" d="M87.88,29.86A40.83,40.83,0,1,0,85,90.26L90.69,96a9.84,9.84,0,0,0-.54,1.83c-.06.31-.1.63-.13,1a10.48,10.48,0,0,0,0,1.94c0,.32.07.64.13,1a11.13,11.13,0,0,0,.55,1.87,10.09,10.09,0,0,0,.92,1.75,10.59,10.59,0,0,0,1.28,1.57l41,41a10.06,10.06,0,0,0,14.23-14.23l-41-41a10.55,10.55,0,0,0-1.57-1.29,10.4,10.4,0,0,0-1.75-.91,9.53,9.53,0,0,0-1.87-.55,9.64,9.64,0,0,0-1-.14,10.37,10.37,0,0,0-1.93,0c-.32,0-.64.08-1,.14a10.53,10.53,0,0,0-1.82.53l-5.73-5.73A40.83,40.83,0,0,0,87.88,29.86ZM39.76,78a27.22,27.22,0,1,1,38.5,0A27.25,27.25,0,0,1,39.76,78Z" transform="translate(-18.18 -17.9)"/></svg>