<svg id="Layer_1" data-name="Layer 1" xmlns="http://www.w3.org/2000/svg" viewBox="0 0 100 100"><path d="M61.29,82H12.09a1,1,0,0,1-1-1V31.8a1,1,0,0,1,1-1h27.8V15a1,1,0,0,1,1-1h49.2a1,1,0,0,1,1,1V64.2a1,1,0,0,1-1,1H62.29V81A1,1,0,0,1,61.29,82Zm-48.2-2h47.2V64.2a1,1,0,0,1,1-1h27.8V16H41.89V31.8a1,1,0,0,1-1,1H13.09Z"/><path d="M38.23,46c0-1.25,0-2.28-.1-3.28h1.93l.1,1.95h.07A4.17,4.17,0,0,1,44,42.4a3.59,3.59,0,0,1,3.43,2.42h0a4.9,4.9,0,0,1,1.35-1.57,4.11,4.11,0,0,1,2.67-.85c1.6,0,4,1.05,4,5.25v7.12H53.35V47.92c0-2.32-.85-3.72-2.62-3.72a2.84,2.84,0,0,0-2.6,2A3.63,3.63,0,0,0,48,47.3v7.47H45.81V47.52c0-1.92-.85-3.32-2.53-3.32a3,3,0,0,0-2.72,2.2,2.9,2.9,0,0,0-.18,1.07v7.3H38.23Z"/><path d="M57.56,47.2l1.57-1.48c2.08-1.87,3.15-3,3.15-4.32a1.7,1.7,0,0,0-1.9-1.75,3.89,3.89,0,0,0-2.1.77l-.52-1.12a4.81,4.81,0,0,1,3.05-1c2.35,0,3.32,1.47,3.32,2.82,0,1.88-1.42,3.25-3.32,4.93l-.78.7v0h4.28v1.37H57.56Z"/></svg>